%TF.GenerationSoftware,KiCad,Pcbnew,10.0.5*%
%TF.CreationDate,2026-08-13T11:11:24+05:00*%
%TF.ProjectId,geiger,67656967-6572-42e6-9b69-6361645f7063,rev?*%
%TF.SameCoordinates,Original*%
%TF.FileFunction,Soldermask,Top*%
%TF.FilePolarity,Negative*%
%FSLAX46Y46*%
G04 Gerber Fmt 4.6, Leading zero omitted, Abs format (unit mm)*
G04 Created by KiCad (PCBNEW 10.0.5) date 2026-08-13 11:11:24*
%MOMM*%
%LPD*%
G01*
G04 APERTURE LIST*
G04 Aperture macros list*
%AMRoundRect*
0 Rectangle with rounded corners*
0 $1 Rounding radius*
0 $2 $3 $4 $5 $6 $7 $8 $9 X,Y pos of 4 corners*
0 Add a 4 corners polygon primitive as box body*
4,1,4,$2,$3,$4,$5,$6,$7,$8,$9,$2,$3,0*
0 Add four circle primitives for the rounded corners*
1,1,$1+$1,$2,$3*
1,1,$1+$1,$4,$5*
1,1,$1+$1,$6,$7*
1,1,$1+$1,$8,$9*
0 Add four rect primitives between the rounded corners*
20,1,$1+$1,$2,$3,$4,$5,0*
20,1,$1+$1,$4,$5,$6,$7,0*
20,1,$1+$1,$6,$7,$8,$9,0*
20,1,$1+$1,$8,$9,$2,$3,0*%
%AMFreePoly0*
4,1,25,0.351325,0.786196,0.363448,0.775842,0.775842,0.363448,0.804349,0.307500,0.805600,0.291606,0.805600,-0.291606,0.786196,-0.351325,0.775842,-0.363448,0.363448,-0.775842,0.307500,-0.804349,0.291606,-0.805600,-0.291606,-0.805600,-0.351325,-0.786196,-0.363448,-0.775842,-0.775842,-0.363448,-0.804349,-0.307500,-0.805600,-0.291606,-0.805600,0.291606,-0.786196,0.351325,-0.775842,0.363448,
-0.363448,0.775842,-0.307500,0.804349,-0.291606,0.805600,0.291606,0.805600,0.351325,0.786196,0.351325,0.786196,$1*%
%AMFreePoly1*
4,1,25,0.333266,0.742596,0.345389,0.732242,0.732242,0.345389,0.760749,0.289441,0.762000,0.273547,0.762000,-0.273547,0.742596,-0.333266,0.732242,-0.345389,0.345389,-0.732242,0.289441,-0.760749,0.273547,-0.762000,-0.273547,-0.762000,-0.333266,-0.742596,-0.345389,-0.732242,-0.732242,-0.345389,-0.760749,-0.289441,-0.762000,-0.273547,-0.762000,0.273547,-0.742596,0.333266,-0.732242,0.345389,
-0.345389,0.732242,-0.289441,0.760749,-0.273547,0.762000,0.273547,0.762000,0.333266,0.742596,0.333266,0.742596,$1*%
%AMFreePoly2*
4,1,25,0.322745,0.717196,0.334868,0.706842,0.706842,0.334868,0.735349,0.278920,0.736600,0.263026,0.736600,-0.263026,0.717196,-0.322745,0.706842,-0.334868,0.334868,-0.706842,0.278920,-0.735349,0.263026,-0.736600,-0.263026,-0.736600,-0.322745,-0.717196,-0.334868,-0.706842,-0.706842,-0.334868,-0.735349,-0.278920,-0.736600,-0.263026,-0.736600,0.263026,-0.717196,0.322745,-0.706842,0.334868,
-0.334868,0.706842,-0.278920,0.735349,-0.263026,0.736600,0.263026,0.736600,0.322745,0.717196,0.322745,0.717196,$1*%
%AMFreePoly3*
4,1,25,0.375350,0.844196,0.387473,0.833842,0.833842,0.387473,0.862349,0.331525,0.863600,0.315631,0.863600,-0.315631,0.844196,-0.375350,0.833842,-0.387473,0.387473,-0.833842,0.331525,-0.862349,0.315631,-0.863600,-0.315631,-0.863600,-0.375350,-0.844196,-0.387473,-0.833842,-0.833842,-0.387473,-0.862349,-0.331525,-0.863600,-0.315631,-0.863600,0.315631,-0.844196,0.375350,-0.833842,0.387473,
-0.387473,0.833842,-0.331525,0.862349,-0.315631,0.863600,0.315631,0.863600,0.375350,0.844196,0.375350,0.844196,$1*%
G04 Aperture macros list end*
%ADD10FreePoly0,210.000000*%
%ADD11FreePoly1,0.000000*%
%ADD12FreePoly1,270.000000*%
%ADD13RoundRect,0.101600X-1.200000X-1.200000X1.200000X-1.200000X1.200000X1.200000X-1.200000X1.200000X0*%
%ADD14FreePoly1,180.000000*%
%ADD15C,1.879600*%
%ADD16RoundRect,0.101600X-1.117500X0.609500X-1.117500X-0.609500X1.117500X-0.609500X1.117500X0.609500X0*%
%ADD17RoundRect,0.101600X-1.100000X1.800000X-1.100000X-1.800000X1.100000X-1.800000X1.100000X1.800000X0*%
%ADD18C,2.700000*%
%ADD19R,1.700000X1.700000*%
%ADD20O,1.700000X1.700000*%
%ADD21RoundRect,0.150000X-0.625000X0.150000X-0.625000X-0.150000X0.625000X-0.150000X0.625000X0.150000X0*%
%ADD22RoundRect,0.250000X-0.650000X0.350000X-0.650000X-0.350000X0.650000X-0.350000X0.650000X0.350000X0*%
%ADD23FreePoly1,90.000000*%
%ADD24RoundRect,0.250000X-1.500000X0.250000X-1.500000X-0.250000X1.500000X-0.250000X1.500000X0.250000X0*%
%ADD25RoundRect,0.250001X-1.449999X0.499999X-1.449999X-0.499999X1.449999X-0.499999X1.449999X0.499999X0*%
%ADD26C,2.000000*%
%ADD27C,1.473200*%
%ADD28FreePoly2,90.000000*%
%ADD29FreePoly3,180.000000*%
G04 APERTURE END LIST*
D10*
%TO.C,L1*%
X216005901Y-127377570D03*
X211606491Y-129917570D03*
%TD*%
D11*
%TO.C,R7*%
X147246196Y-136047570D03*
X157406196Y-136047570D03*
%TD*%
D12*
%TO.C,R1*%
X188866196Y-140557570D03*
X188866196Y-150717570D03*
%TD*%
D13*
%TO.C,SBM-19/20*%
X218606196Y-143737570D03*
X226226196Y-143737570D03*
%TD*%
D14*
%TO.C,C2*%
X185616196Y-150637570D03*
X180536196Y-150637570D03*
%TD*%
%TO.C,R6*%
X157406196Y-138617570D03*
X147246196Y-138617570D03*
%TD*%
D11*
%TO.C,R5*%
X144786196Y-141437570D03*
X154946196Y-141437570D03*
%TD*%
D15*
%TO.C,D3*%
X193316196Y-150517570D03*
X193316196Y-140357570D03*
%TD*%
D16*
%TO.C,U3*%
X198217196Y-132226570D03*
X198217196Y-134537570D03*
X198217196Y-136848570D03*
D17*
X204415196Y-134537570D03*
%TD*%
D15*
%TO.C,D2*%
X197266196Y-140457570D03*
X197266196Y-150617570D03*
%TD*%
D12*
%TO.C,R3*%
X225516196Y-124897570D03*
X225516196Y-135057570D03*
%TD*%
D15*
%TO.C,D6*%
X210346196Y-148211570D03*
X210346196Y-138051570D03*
%TD*%
D18*
%TO.C,REF\u002A\u002A*%
X175470000Y-147270000D03*
%TD*%
D19*
%TO.C,U1*%
X162586196Y-130997570D03*
D20*
X160046196Y-130997570D03*
X157506196Y-130997570D03*
X154966196Y-130997570D03*
X152426196Y-130997570D03*
X149886196Y-130997570D03*
X147346196Y-130997570D03*
X147346196Y-146237570D03*
X149886196Y-146237570D03*
X152426196Y-146237570D03*
X154966196Y-146237570D03*
X157506196Y-146237570D03*
X160046196Y-146237570D03*
D19*
X162586196Y-146237570D03*
%TD*%
D21*
%TO.C,J2*%
X138186196Y-129482570D03*
X138186196Y-130482570D03*
X138186196Y-131482570D03*
X138186196Y-132482570D03*
D22*
X134311196Y-128182570D03*
X134311196Y-133782570D03*
%TD*%
D12*
%TO.C,C4*%
X192216196Y-131997570D03*
X192216196Y-137077570D03*
%TD*%
D15*
%TO.C,D1*%
X201616196Y-150517570D03*
X201616196Y-140357570D03*
%TD*%
%TO.C,D4*%
X205516196Y-140357570D03*
X205516196Y-150517570D03*
%TD*%
D11*
%TO.C,R4*%
X215436196Y-137937570D03*
X225596196Y-137937570D03*
%TD*%
D23*
%TO.C,R2*%
X221866196Y-135037570D03*
X221866196Y-124877570D03*
%TD*%
D24*
%TO.C,J1*%
X140961196Y-140432570D03*
X140961196Y-142432570D03*
X140961196Y-144432570D03*
X140961196Y-146432570D03*
D25*
X135211196Y-138082570D03*
X135211196Y-148782570D03*
%TD*%
D18*
%TO.C,REF\u002A\u002A*%
X175470000Y-125170000D03*
%TD*%
D26*
%TO.C,J3*%
X222646196Y-150137570D03*
%TD*%
D27*
%TO.C,C1*%
X167256196Y-146143570D03*
D28*
X167256196Y-144111570D03*
%TD*%
D29*
%TO.C,C3*%
X205509196Y-126937570D03*
X190523196Y-126937570D03*
%TD*%
M02*
