%TF.GenerationSoftware,KiCad,Pcbnew,9.0.0*%
%TF.CreationDate,2026-06-03T15:54:16+05:00*%
%TF.ProjectId,geiger,67656967-6572-42e6-9b69-6361645f7063,rev?*%
%TF.SameCoordinates,Original*%
%TF.FileFunction,Soldermask,Top*%
%TF.FilePolarity,Negative*%
%FSLAX46Y46*%
G04 Gerber Fmt 4.6, Leading zero omitted, Abs format (unit mm)*
G04 Created by KiCad (PCBNEW 9.0.0) date 2026-06-03 15:54:16*
%MOMM*%
%LPD*%
G01*
G04 APERTURE LIST*
G04 Aperture macros list*
%AMRoundRect*
0 Rectangle with rounded corners*
0 $1 Rounding radius*
0 $2 $3 $4 $5 $6 $7 $8 $9 X,Y pos of 4 corners*
0 Add a 4 corners polygon primitive as box body*
4,1,4,$2,$3,$4,$5,$6,$7,$8,$9,$2,$3,0*
0 Add four circle primitives for the rounded corners*
1,1,$1+$1,$2,$3*
1,1,$1+$1,$4,$5*
1,1,$1+$1,$6,$7*
1,1,$1+$1,$8,$9*
0 Add four rect primitives between the rounded corners*
20,1,$1+$1,$2,$3,$4,$5,0*
20,1,$1+$1,$4,$5,$6,$7,0*
20,1,$1+$1,$6,$7,$8,$9,0*
20,1,$1+$1,$8,$9,$2,$3,0*%
%AMFreePoly0*
4,1,25,0.351325,0.786196,0.363448,0.775842,0.775842,0.363448,0.804349,0.307500,0.805600,0.291606,0.805600,-0.291606,0.786196,-0.351325,0.775842,-0.363448,0.363448,-0.775842,0.307500,-0.804349,0.291606,-0.805600,-0.291606,-0.805600,-0.351325,-0.786196,-0.363448,-0.775842,-0.775842,-0.363448,-0.804349,-0.307500,-0.805600,-0.291606,-0.805600,0.291606,-0.786196,0.351325,-0.775842,0.363448,
-0.363448,0.775842,-0.307500,0.804349,-0.291606,0.805600,0.291606,0.805600,0.351325,0.786196,0.351325,0.786196,$1*%
%AMFreePoly1*
4,1,25,0.333266,0.742596,0.345389,0.732242,0.732242,0.345389,0.760749,0.289441,0.762000,0.273547,0.762000,-0.273547,0.742596,-0.333266,0.732242,-0.345389,0.345389,-0.732242,0.289441,-0.760749,0.273547,-0.762000,-0.273547,-0.762000,-0.333266,-0.742596,-0.345389,-0.732242,-0.732242,-0.345389,-0.760749,-0.289441,-0.762000,-0.273547,-0.762000,0.273547,-0.742596,0.333266,-0.732242,0.345389,
-0.345389,0.732242,-0.289441,0.760749,-0.273547,0.762000,0.273547,0.762000,0.333266,0.742596,0.333266,0.742596,$1*%
%AMFreePoly2*
4,1,25,0.322745,0.717196,0.334868,0.706842,0.706842,0.334868,0.735349,0.278920,0.736600,0.263026,0.736600,-0.263026,0.717196,-0.322745,0.706842,-0.334868,0.334868,-0.706842,0.278920,-0.735349,0.263026,-0.736600,-0.263026,-0.736600,-0.322745,-0.717196,-0.334868,-0.706842,-0.706842,-0.334868,-0.735349,-0.278920,-0.736600,-0.263026,-0.736600,0.263026,-0.717196,0.322745,-0.706842,0.334868,
-0.334868,0.706842,-0.278920,0.735349,-0.263026,0.736600,0.263026,0.736600,0.322745,0.717196,0.322745,0.717196,$1*%
%AMFreePoly3*
4,1,25,0.375350,0.844196,0.387473,0.833842,0.833842,0.387473,0.862349,0.331525,0.863600,0.315631,0.863600,-0.315631,0.844196,-0.375350,0.833842,-0.387473,0.387473,-0.833842,0.331525,-0.862349,0.315631,-0.863600,-0.315631,-0.863600,-0.375350,-0.844196,-0.387473,-0.833842,-0.833842,-0.387473,-0.862349,-0.331525,-0.863600,-0.315631,-0.863600,0.315631,-0.844196,0.375350,-0.833842,0.387473,
-0.387473,0.833842,-0.331525,0.862349,-0.315631,0.863600,0.315631,0.863600,0.375350,0.844196,0.375350,0.844196,$1*%
G04 Aperture macros list end*
%ADD10FreePoly0,0.000000*%
%ADD11FreePoly1,0.000000*%
%ADD12FreePoly1,270.000000*%
%ADD13RoundRect,0.101600X-1.200000X-1.200000X1.200000X-1.200000X1.200000X1.200000X-1.200000X1.200000X0*%
%ADD14FreePoly1,180.000000*%
%ADD15C,1.879600*%
%ADD16RoundRect,0.101600X-1.117500X0.609500X-1.117500X-0.609500X1.117500X-0.609500X1.117500X0.609500X0*%
%ADD17RoundRect,0.101600X-1.100000X1.800000X-1.100000X-1.800000X1.100000X-1.800000X1.100000X1.800000X0*%
%ADD18C,1.152000*%
%ADD19C,2.200000*%
%ADD20R,1.700000X1.700000*%
%ADD21O,1.700000X1.700000*%
%ADD22RoundRect,0.150000X-0.625000X0.150000X-0.625000X-0.150000X0.625000X-0.150000X0.625000X0.150000X0*%
%ADD23RoundRect,0.250000X-0.650000X0.350000X-0.650000X-0.350000X0.650000X-0.350000X0.650000X0.350000X0*%
%ADD24FreePoly1,90.000000*%
%ADD25RoundRect,0.250000X-1.500000X0.250000X-1.500000X-0.250000X1.500000X-0.250000X1.500000X0.250000X0*%
%ADD26RoundRect,0.250001X-1.449999X0.499999X-1.449999X-0.499999X1.449999X-0.499999X1.449999X0.499999X0*%
%ADD27C,2.000000*%
%ADD28C,1.473200*%
%ADD29FreePoly2,270.000000*%
%ADD30FreePoly3,180.000000*%
G04 APERTURE END LIST*
D10*
%TO.C,L1*%
X207436196Y-128647570D03*
X212516196Y-128647570D03*
%TD*%
D11*
%TO.C,R6*%
X156196196Y-136737570D03*
X166356196Y-136737570D03*
%TD*%
D12*
%TO.C,R1*%
X193116196Y-139167570D03*
X193116196Y-149327570D03*
%TD*%
D13*
%TO.C,SBM-19/1*%
X214506196Y-142247570D03*
X222126196Y-142247570D03*
%TD*%
D12*
%TO.C,C2*%
X188716196Y-143847570D03*
X188716196Y-148927570D03*
%TD*%
D14*
%TO.C,R7*%
X166356196Y-139307570D03*
X156196196Y-139307570D03*
%TD*%
D12*
%TO.C,R5*%
X180716196Y-123347570D03*
X180716196Y-133507570D03*
%TD*%
D15*
%TO.C,D3*%
X196716196Y-149227570D03*
X196716196Y-139067570D03*
%TD*%
D16*
%TO.C,U3*%
X194817196Y-131836570D03*
X194817196Y-134147570D03*
X194817196Y-136458570D03*
D17*
X201015196Y-134147570D03*
%TD*%
D15*
%TO.C,D2*%
X200116196Y-139167570D03*
X200116196Y-149327570D03*
%TD*%
D18*
%TO.C,REF\u002A\u002A*%
X143081196Y-124152570D03*
%TD*%
D19*
%TO.C,REF\u002A\u002A*%
X175466196Y-147267570D03*
%TD*%
D12*
%TO.C,R3*%
X221216196Y-123387570D03*
X221216196Y-133547570D03*
%TD*%
D15*
%TO.C,D5*%
X210116196Y-149227570D03*
X210116196Y-139067570D03*
%TD*%
D20*
%TO.C,U1*%
X168946196Y-131057570D03*
D21*
X166406196Y-131057570D03*
X163866196Y-131057570D03*
X161326196Y-131057570D03*
X158786196Y-131057570D03*
X156246196Y-131057570D03*
X153706196Y-131057570D03*
X153706196Y-146297570D03*
X156246196Y-146297570D03*
X158786196Y-146297570D03*
X161326196Y-146297570D03*
X163866196Y-146297570D03*
X166406196Y-146297570D03*
D20*
X168946196Y-146297570D03*
%TD*%
D19*
%TO.C,REF\u002A\u002A*%
X175466196Y-125167570D03*
%TD*%
D22*
%TO.C,J2*%
X144546196Y-129542570D03*
X144546196Y-130542570D03*
X144546196Y-131542570D03*
X144546196Y-132542570D03*
D23*
X140671196Y-128242570D03*
X140671196Y-133842570D03*
%TD*%
D14*
%TO.C,C4*%
X191256196Y-132947570D03*
X186176196Y-132947570D03*
%TD*%
D15*
%TO.C,D1*%
X203116196Y-149227570D03*
X203116196Y-139067570D03*
%TD*%
D18*
%TO.C,REF\u002A\u002A*%
X143081196Y-151852570D03*
%TD*%
%TO.C,REF\u002A\u002A*%
X222416196Y-151847570D03*
%TD*%
D15*
%TO.C,D4*%
X206516196Y-139067570D03*
X206516196Y-149227570D03*
%TD*%
D11*
%TO.C,R4*%
X212636196Y-137247570D03*
X222796196Y-137247570D03*
%TD*%
D24*
%TO.C,R2*%
X217916196Y-133527570D03*
X217916196Y-123367570D03*
%TD*%
D25*
%TO.C,J1*%
X147321196Y-140492570D03*
X147321196Y-142492570D03*
X147321196Y-144492570D03*
X147321196Y-146492570D03*
D26*
X141571196Y-138142570D03*
X141571196Y-148842570D03*
%TD*%
D27*
%TO.C,J3*%
X218816196Y-149647570D03*
%TD*%
D28*
%TO.C,C1*%
X177526196Y-139245570D03*
D29*
X177526196Y-141277570D03*
%TD*%
D30*
%TO.C,C3*%
X201609196Y-126547570D03*
X186623196Y-126547570D03*
%TD*%
M02*
