%TF.GenerationSoftware,KiCad,Pcbnew,9.0.0*%
%TF.CreationDate,2026-06-03T15:54:16+05:00*%
%TF.ProjectId,geiger,67656967-6572-42e6-9b69-6361645f7063,rev?*%
%TF.SameCoordinates,Original*%
%TF.FileFunction,Soldermask,Bot*%
%TF.FilePolarity,Negative*%
%FSLAX46Y46*%
G04 Gerber Fmt 4.6, Leading zero omitted, Abs format (unit mm)*
G04 Created by KiCad (PCBNEW 9.0.0) date 2026-06-03 15:54:16*
%MOMM*%
%LPD*%
G01*
G04 APERTURE LIST*
G04 Aperture macros list*
%AMOutline5P*
0 Free polygon, 5 corners , with rotation*
0 The origin of the aperture is its center*
0 number of corners: always 5*
0 $1 to $10 corner X, Y*
0 $11 Rotation angle, in degrees counterclockwise*
0 create outline with 5 corners*
4,1,5,$1,$2,$3,$4,$5,$6,$7,$8,$9,$10,$1,$2,$11*%
%AMOutline6P*
0 Free polygon, 6 corners , with rotation*
0 The origin of the aperture is its center*
0 number of corners: always 6*
0 $1 to $12 corner X, Y*
0 $13 Rotation angle, in degrees counterclockwise*
0 create outline with 6 corners*
4,1,6,$1,$2,$3,$4,$5,$6,$7,$8,$9,$10,$11,$12,$1,$2,$13*%
%AMOutline7P*
0 Free polygon, 7 corners , with rotation*
0 The origin of the aperture is its center*
0 number of corners: always 7*
0 $1 to $14 corner X, Y*
0 $15 Rotation angle, in degrees counterclockwise*
0 create outline with 7 corners*
4,1,7,$1,$2,$3,$4,$5,$6,$7,$8,$9,$10,$11,$12,$13,$14,$1,$2,$15*%
%AMOutline8P*
0 Free polygon, 8 corners , with rotation*
0 The origin of the aperture is its center*
0 number of corners: always 8*
0 $1 to $16 corner X, Y*
0 $17 Rotation angle, in degrees counterclockwise*
0 create outline with 8 corners*
4,1,8,$1,$2,$3,$4,$5,$6,$7,$8,$9,$10,$11,$12,$13,$14,$15,$16,$1,$2,$17*%
G04 Aperture macros list end*
%ADD10Outline8P,-0.704000X0.291606X-0.291606X0.704000X0.291606X0.704000X0.704000X0.291606X0.704000X-0.291606X0.291606X-0.704000X-0.291606X-0.704000X-0.704000X-0.291606X0.000000*%
%ADD11Outline8P,-0.660400X0.273547X-0.273547X0.660400X0.273547X0.660400X0.660400X0.273547X0.660400X-0.273547X0.273547X-0.660400X-0.273547X-0.660400X-0.660400X-0.273547X0.000000*%
%ADD12Outline8P,-0.660400X0.273547X-0.273547X0.660400X0.273547X0.660400X0.660400X0.273547X0.660400X-0.273547X0.273547X-0.660400X-0.273547X-0.660400X-0.660400X-0.273547X270.000000*%
%ADD13R,2.400000X2.400000*%
%ADD14Outline8P,-0.660400X0.273547X-0.273547X0.660400X0.273547X0.660400X0.660400X0.273547X0.660400X-0.273547X0.273547X-0.660400X-0.273547X-0.660400X-0.660400X-0.273547X180.000000*%
%ADD15C,1.676400*%
%ADD16C,1.152000*%
%ADD17C,2.200000*%
%ADD18R,1.700000X1.700000*%
%ADD19O,1.700000X1.700000*%
%ADD20Outline8P,-0.660400X0.273547X-0.273547X0.660400X0.273547X0.660400X0.660400X0.273547X0.660400X-0.273547X0.273547X-0.660400X-0.273547X-0.660400X-0.660400X-0.273547X90.000000*%
%ADD21C,2.000000*%
%ADD22C,1.270000*%
%ADD23Outline8P,-0.635000X0.263026X-0.263026X0.635000X0.263026X0.635000X0.635000X0.263026X0.635000X-0.263026X0.263026X-0.635000X-0.263026X-0.635000X-0.635000X-0.263026X270.000000*%
%ADD24Outline8P,-0.762000X0.315631X-0.315631X0.762000X0.315631X0.762000X0.762000X0.315631X0.762000X-0.315631X0.315631X-0.762000X-0.315631X-0.762000X-0.762000X-0.315631X180.000000*%
G04 APERTURE END LIST*
D10*
%TO.C,L1*%
X207436196Y-128647570D03*
X212516196Y-128647570D03*
%TD*%
D11*
%TO.C,R6*%
X156196196Y-136737570D03*
X166356196Y-136737570D03*
%TD*%
D12*
%TO.C,R1*%
X193116196Y-139167570D03*
X193116196Y-149327570D03*
%TD*%
D13*
%TO.C,SBM-19/1*%
X214506196Y-142247570D03*
X222126196Y-142247570D03*
%TD*%
D12*
%TO.C,C2*%
X188716196Y-143847570D03*
X188716196Y-148927570D03*
%TD*%
D14*
%TO.C,R7*%
X166356196Y-139307570D03*
X156196196Y-139307570D03*
%TD*%
D12*
%TO.C,R5*%
X180716196Y-123347570D03*
X180716196Y-133507570D03*
%TD*%
D15*
%TO.C,D3*%
X196716196Y-149227570D03*
X196716196Y-139067570D03*
%TD*%
%TO.C,D2*%
X200116196Y-139167570D03*
X200116196Y-149327570D03*
%TD*%
D16*
%TO.C,REF\u002A\u002A*%
X143081196Y-124152570D03*
%TD*%
D17*
%TO.C,REF\u002A\u002A*%
X175466196Y-147267570D03*
%TD*%
D12*
%TO.C,R3*%
X221216196Y-123387570D03*
X221216196Y-133547570D03*
%TD*%
D15*
%TO.C,D5*%
X210116196Y-149227570D03*
X210116196Y-139067570D03*
%TD*%
D18*
%TO.C,U1*%
X168946196Y-131057570D03*
D19*
X166406196Y-131057570D03*
X163866196Y-131057570D03*
X161326196Y-131057570D03*
X158786196Y-131057570D03*
X156246196Y-131057570D03*
X153706196Y-131057570D03*
X153706196Y-146297570D03*
X156246196Y-146297570D03*
X158786196Y-146297570D03*
X161326196Y-146297570D03*
X163866196Y-146297570D03*
X166406196Y-146297570D03*
D18*
X168946196Y-146297570D03*
%TD*%
D17*
%TO.C,REF\u002A\u002A*%
X175466196Y-125167570D03*
%TD*%
D14*
%TO.C,C4*%
X191256196Y-132947570D03*
X186176196Y-132947570D03*
%TD*%
D15*
%TO.C,D1*%
X203116196Y-149227570D03*
X203116196Y-139067570D03*
%TD*%
D16*
%TO.C,REF\u002A\u002A*%
X143081196Y-151852570D03*
%TD*%
%TO.C,REF\u002A\u002A*%
X222416196Y-151847570D03*
%TD*%
D15*
%TO.C,D4*%
X206516196Y-139067570D03*
X206516196Y-149227570D03*
%TD*%
D11*
%TO.C,R4*%
X212636196Y-137247570D03*
X222796196Y-137247570D03*
%TD*%
D20*
%TO.C,R2*%
X217916196Y-133527570D03*
X217916196Y-123367570D03*
%TD*%
D21*
%TO.C,J3*%
X218816196Y-149647570D03*
%TD*%
D22*
%TO.C,C1*%
X177526196Y-139245570D03*
D23*
X177526196Y-141277570D03*
%TD*%
D24*
%TO.C,C3*%
X201609196Y-126547570D03*
X186623196Y-126547570D03*
%TD*%
M02*
