%TF.GenerationSoftware,KiCad,Pcbnew,9.0.0*%
%TF.CreationDate,2026-06-03T15:54:16+05:00*%
%TF.ProjectId,geiger,67656967-6572-42e6-9b69-6361645f7063,rev?*%
%TF.SameCoordinates,Original*%
%TF.FileFunction,Legend,Top*%
%TF.FilePolarity,Positive*%
%FSLAX46Y46*%
G04 Gerber Fmt 4.6, Leading zero omitted, Abs format (unit mm)*
G04 Created by KiCad (PCBNEW 9.0.0) date 2026-06-03 15:54:16*
%MOMM*%
%LPD*%
G01*
G04 APERTURE LIST*
%ADD10C,0.254000*%
%ADD11C,0.100000*%
%ADD12C,0.101600*%
%ADD13C,0.114300*%
%ADD14C,0.150000*%
%ADD15C,0.200000*%
%ADD16C,0.127000*%
%ADD17C,0.152400*%
%ADD18C,0.000000*%
%ADD19C,0.304800*%
%ADD20C,0.203200*%
%ADD21C,0.120000*%
%ADD22C,0.406400*%
G04 APERTURE END LIST*
D10*
G36*
X175542291Y-152314187D02*
G01*
X175542291Y-152882921D01*
X175518359Y-152894888D01*
X175336414Y-152894888D01*
X175260712Y-152857037D01*
X175229380Y-152825704D01*
X175191529Y-152750002D01*
X175191529Y-152447105D01*
X175229379Y-152371403D01*
X175260711Y-152340072D01*
X175336414Y-152302221D01*
X175518359Y-152302221D01*
X175542291Y-152314187D01*
G37*
G36*
X173820821Y-152330357D02*
G01*
X173842983Y-152374681D01*
X173498196Y-152443638D01*
X173498196Y-152386629D01*
X173526332Y-152330357D01*
X173582606Y-152302221D01*
X173764550Y-152302221D01*
X173820821Y-152330357D01*
G37*
G36*
X176663202Y-152330357D02*
G01*
X176685364Y-152374681D01*
X176340577Y-152443638D01*
X176340577Y-152386629D01*
X176368713Y-152330357D01*
X176424987Y-152302221D01*
X176606931Y-152302221D01*
X176663202Y-152330357D01*
G37*
G36*
X181339297Y-151916738D02*
G01*
X181370631Y-151948072D01*
X181415654Y-152038118D01*
X181468958Y-152251331D01*
X181468958Y-152522443D01*
X181415654Y-152735656D01*
X181370629Y-152825705D01*
X181339299Y-152857036D01*
X181263597Y-152894888D01*
X181202604Y-152894888D01*
X181126904Y-152857038D01*
X181095571Y-152825705D01*
X181050545Y-152735654D01*
X180997243Y-152522444D01*
X180997243Y-152251330D01*
X181050545Y-152038120D01*
X181095570Y-151948071D01*
X181126904Y-151916738D01*
X181202604Y-151878888D01*
X181263597Y-151878888D01*
X181339297Y-151916738D01*
G37*
G36*
X184767011Y-152330357D02*
G01*
X184789173Y-152374681D01*
X184444386Y-152443638D01*
X184444386Y-152386629D01*
X184472522Y-152330357D01*
X184528796Y-152302221D01*
X184710740Y-152302221D01*
X184767011Y-152330357D01*
G37*
G36*
X183637394Y-151916739D02*
G01*
X183668727Y-151948072D01*
X183706577Y-152023772D01*
X183706577Y-152145241D01*
X183668726Y-152220942D01*
X183637393Y-152252274D01*
X183561692Y-152290126D01*
X183234862Y-152290126D01*
X183234862Y-151878888D01*
X183561692Y-151878888D01*
X183637394Y-151916739D01*
G37*
G36*
X188393057Y-153713332D02*
G01*
X167297370Y-153713332D01*
X167297370Y-151751888D01*
X167438481Y-151751888D01*
X167438481Y-153021888D01*
X167440921Y-153046664D01*
X167459884Y-153092445D01*
X167494924Y-153127485D01*
X167540705Y-153146448D01*
X167590257Y-153146448D01*
X167636038Y-153127485D01*
X167671078Y-153092445D01*
X167690041Y-153046664D01*
X167692481Y-153021888D01*
X167692481Y-152324347D01*
X167873730Y-152712737D01*
X167879103Y-152721809D01*
X167880222Y-152724884D01*
X167882212Y-152727058D01*
X167886418Y-152734157D01*
X167900652Y-152747193D01*
X167913689Y-152761428D01*
X167918801Y-152763813D01*
X167922962Y-152767624D01*
X167941093Y-152774216D01*
X167958592Y-152782383D01*
X167964233Y-152782630D01*
X167969533Y-152784558D01*
X167988803Y-152783710D01*
X168008097Y-152784559D01*
X168013402Y-152782629D01*
X168019038Y-152782382D01*
X168036523Y-152774222D01*
X168054668Y-152767624D01*
X168058830Y-152763811D01*
X168063941Y-152761427D01*
X168076971Y-152747198D01*
X168091212Y-152734157D01*
X168095418Y-152727055D01*
X168097408Y-152724883D01*
X168098525Y-152721810D01*
X168103900Y-152712737D01*
X168285148Y-152324348D01*
X168285148Y-153021888D01*
X168287588Y-153046664D01*
X168306551Y-153092445D01*
X168341591Y-153127485D01*
X168387372Y-153146448D01*
X168436924Y-153146448D01*
X168482705Y-153127485D01*
X168517745Y-153092445D01*
X168536708Y-153046664D01*
X168539148Y-153021888D01*
X168539148Y-152175221D01*
X168889910Y-152175221D01*
X168889910Y-152840459D01*
X168892350Y-152865235D01*
X168894096Y-152869451D01*
X168894420Y-152874004D01*
X168903318Y-152897256D01*
X168963795Y-153018209D01*
X168966401Y-153022349D01*
X168967054Y-153024307D01*
X168969168Y-153026744D01*
X168977058Y-153039278D01*
X168989086Y-153049710D01*
X168999522Y-153061742D01*
X169012056Y-153069632D01*
X169014493Y-153071745D01*
X169016449Y-153072397D01*
X169020591Y-153075004D01*
X169141542Y-153135480D01*
X169164794Y-153144378D01*
X169169346Y-153144701D01*
X169173563Y-153146448D01*
X169198339Y-153148888D01*
X169379768Y-153148888D01*
X169404544Y-153146448D01*
X169408760Y-153144701D01*
X169413313Y-153144378D01*
X169436564Y-153135480D01*
X169477944Y-153114790D01*
X169490639Y-153127485D01*
X169536420Y-153146448D01*
X169585972Y-153146448D01*
X169631753Y-153127485D01*
X169666793Y-153092445D01*
X169685756Y-153046664D01*
X169688196Y-153021888D01*
X169688196Y-152175221D01*
X169685756Y-152150445D01*
X169666793Y-152104664D01*
X169631753Y-152069624D01*
X169585972Y-152050661D01*
X169536420Y-152050661D01*
X169490639Y-152069624D01*
X169455599Y-152104664D01*
X169436636Y-152150445D01*
X169434196Y-152175221D01*
X169434196Y-152848330D01*
X169425490Y-152857036D01*
X169349788Y-152894888D01*
X169228319Y-152894888D01*
X169172047Y-152866752D01*
X169143910Y-152810478D01*
X169143910Y-152175221D01*
X169141470Y-152150445D01*
X169122507Y-152104664D01*
X169087467Y-152069624D01*
X169041686Y-152050661D01*
X168992134Y-152050661D01*
X168946353Y-152069624D01*
X168911313Y-152104664D01*
X168892350Y-152150445D01*
X168889910Y-152175221D01*
X168539148Y-152175221D01*
X168539148Y-151751888D01*
X170038958Y-151751888D01*
X170038958Y-152840459D01*
X170041398Y-152865235D01*
X170043144Y-152869451D01*
X170043468Y-152874004D01*
X170052366Y-152897256D01*
X170112843Y-153018209D01*
X170115449Y-153022349D01*
X170116102Y-153024307D01*
X170118216Y-153026744D01*
X170126106Y-153039278D01*
X170138134Y-153049710D01*
X170148570Y-153061742D01*
X170161104Y-153069632D01*
X170163541Y-153071745D01*
X170165497Y-153072397D01*
X170169639Y-153075004D01*
X170290590Y-153135480D01*
X170313842Y-153144378D01*
X170363270Y-153147891D01*
X170410281Y-153132220D01*
X170447716Y-153099753D01*
X170469877Y-153055432D01*
X170473389Y-153006004D01*
X170457719Y-152958993D01*
X170425252Y-152921558D01*
X170404183Y-152908296D01*
X170321095Y-152866752D01*
X170292958Y-152810478D01*
X170292958Y-152150445D01*
X170525208Y-152150445D01*
X170525208Y-152199997D01*
X170544171Y-152245778D01*
X170579211Y-152280818D01*
X170624992Y-152299781D01*
X170649768Y-152302221D01*
X170704196Y-152302221D01*
X170704196Y-152840459D01*
X170706636Y-152865235D01*
X170708382Y-152869451D01*
X170708706Y-152874004D01*
X170717604Y-152897256D01*
X170778081Y-153018209D01*
X170780687Y-153022349D01*
X170781340Y-153024307D01*
X170783454Y-153026744D01*
X170791344Y-153039278D01*
X170803372Y-153049710D01*
X170813808Y-153061742D01*
X170826342Y-153069632D01*
X170828779Y-153071745D01*
X170830735Y-153072397D01*
X170834877Y-153075004D01*
X170955828Y-153135480D01*
X170979080Y-153144378D01*
X170983632Y-153144701D01*
X170987849Y-153146448D01*
X171012625Y-153148888D01*
X171133577Y-153148888D01*
X171158353Y-153146448D01*
X171204134Y-153127485D01*
X171239174Y-153092445D01*
X171258137Y-153046664D01*
X171258137Y-152997112D01*
X171239174Y-152951331D01*
X171204134Y-152916291D01*
X171158353Y-152897328D01*
X171133577Y-152894888D01*
X171042605Y-152894888D01*
X170986333Y-152866752D01*
X170958196Y-152810478D01*
X170958196Y-152302221D01*
X171133577Y-152302221D01*
X171158353Y-152299781D01*
X171204134Y-152280818D01*
X171239174Y-152245778D01*
X171258137Y-152199997D01*
X171258137Y-152175221D01*
X171429910Y-152175221D01*
X171429910Y-153021888D01*
X171432350Y-153046664D01*
X171451313Y-153092445D01*
X171486353Y-153127485D01*
X171532134Y-153146448D01*
X171581686Y-153146448D01*
X171627467Y-153127485D01*
X171662507Y-153092445D01*
X171681470Y-153046664D01*
X171683910Y-153021888D01*
X171683910Y-152296173D01*
X171974196Y-152296173D01*
X171974196Y-152477602D01*
X171974621Y-152481923D01*
X171974346Y-152483776D01*
X171975717Y-152493048D01*
X171976636Y-152502378D01*
X171977352Y-152504108D01*
X171977988Y-152508404D01*
X172038464Y-152750309D01*
X172039116Y-152752136D01*
X172039182Y-152753052D01*
X172043129Y-152763367D01*
X172046840Y-152773753D01*
X172047385Y-152774489D01*
X172048080Y-152776304D01*
X172108557Y-152897256D01*
X172115267Y-152907916D01*
X172116552Y-152911017D01*
X172119417Y-152914508D01*
X172121820Y-152918325D01*
X172124352Y-152920521D01*
X172132346Y-152930261D01*
X172253298Y-153051214D01*
X172272543Y-153067008D01*
X172276758Y-153068754D01*
X172280207Y-153071745D01*
X172302940Y-153081895D01*
X172484369Y-153142371D01*
X172496655Y-153145164D01*
X172499754Y-153146448D01*
X172504244Y-153146890D01*
X172508646Y-153147891D01*
X172511991Y-153147653D01*
X172524530Y-153148888D01*
X172645482Y-153148888D01*
X172658020Y-153147653D01*
X172661367Y-153147891D01*
X172665768Y-153146890D01*
X172670258Y-153146448D01*
X172673355Y-153145165D01*
X172685643Y-153142371D01*
X172867072Y-153081895D01*
X172889805Y-153071745D01*
X172893252Y-153068754D01*
X172897470Y-153067008D01*
X172916714Y-153051214D01*
X172977191Y-152990737D01*
X172992984Y-152971492D01*
X173011947Y-152925711D01*
X173014387Y-152900935D01*
X173014387Y-152477602D01*
X173011947Y-152452826D01*
X172992984Y-152407045D01*
X172957944Y-152372005D01*
X172920874Y-152356650D01*
X173244196Y-152356650D01*
X173244196Y-152840459D01*
X173246636Y-152865235D01*
X173248382Y-152869451D01*
X173248706Y-152874003D01*
X173257604Y-152897255D01*
X173318079Y-153018207D01*
X173320688Y-153022352D01*
X173321340Y-153024307D01*
X173323450Y-153026740D01*
X173331342Y-153039277D01*
X173343372Y-153049711D01*
X173353807Y-153061742D01*
X173366342Y-153069632D01*
X173368777Y-153071744D01*
X173370732Y-153072395D01*
X173374876Y-153075004D01*
X173495829Y-153135480D01*
X173519081Y-153144378D01*
X173523632Y-153144701D01*
X173527849Y-153146448D01*
X173552625Y-153148888D01*
X173794530Y-153148888D01*
X173819306Y-153146448D01*
X173823522Y-153144701D01*
X173828075Y-153144378D01*
X173851326Y-153135480D01*
X173972278Y-153075004D01*
X173993347Y-153061742D01*
X174025814Y-153024307D01*
X174041484Y-152977296D01*
X174037972Y-152927868D01*
X174015811Y-152883547D01*
X173978376Y-152851080D01*
X173931365Y-152835409D01*
X173881937Y-152838922D01*
X173858685Y-152847820D01*
X173764550Y-152894888D01*
X173582606Y-152894888D01*
X173526332Y-152866751D01*
X173498196Y-152810479D01*
X173498196Y-152702669D01*
X174000865Y-152602136D01*
X174024681Y-152594884D01*
X174035019Y-152587960D01*
X174046515Y-152583199D01*
X174055406Y-152574307D01*
X174065854Y-152567311D01*
X174072756Y-152556957D01*
X174081555Y-152548159D01*
X174086366Y-152536543D01*
X174093342Y-152526080D01*
X174095757Y-152513871D01*
X174100518Y-152502378D01*
X174102958Y-152477602D01*
X174102958Y-152477474D01*
X174102959Y-152477469D01*
X174102958Y-152477464D01*
X174102958Y-152356650D01*
X174100518Y-152331874D01*
X174098771Y-152327657D01*
X174098448Y-152323106D01*
X174089550Y-152299854D01*
X174029074Y-152178901D01*
X174026757Y-152175221D01*
X174393243Y-152175221D01*
X174393243Y-153021888D01*
X174395683Y-153046664D01*
X174414646Y-153092445D01*
X174449686Y-153127485D01*
X174495467Y-153146448D01*
X174545019Y-153146448D01*
X174590800Y-153127485D01*
X174625840Y-153092445D01*
X174644803Y-153046664D01*
X174647243Y-153021888D01*
X174647243Y-152417126D01*
X174937529Y-152417126D01*
X174937529Y-152779983D01*
X174939969Y-152804759D01*
X174941715Y-152808975D01*
X174942039Y-152813528D01*
X174950937Y-152836779D01*
X175011413Y-152957731D01*
X175018126Y-152968395D01*
X175019409Y-152971493D01*
X175022270Y-152974979D01*
X175024675Y-152978800D01*
X175027208Y-152980997D01*
X175035202Y-152990738D01*
X175095679Y-153051214D01*
X175105418Y-153059206D01*
X175107617Y-153061742D01*
X175111438Y-153064147D01*
X175114924Y-153067008D01*
X175118020Y-153068290D01*
X175128686Y-153075004D01*
X175249637Y-153135480D01*
X175272889Y-153144378D01*
X175277441Y-153144701D01*
X175281658Y-153146448D01*
X175306434Y-153148888D01*
X175542291Y-153148888D01*
X175542291Y-153173335D01*
X175504440Y-153249037D01*
X175473107Y-153280370D01*
X175397406Y-153318221D01*
X175275939Y-153318221D01*
X175181801Y-153271153D01*
X175158549Y-153262255D01*
X175109121Y-153258742D01*
X175062110Y-153274413D01*
X175024675Y-153306880D01*
X175002515Y-153351201D01*
X174999002Y-153400629D01*
X175014673Y-153447640D01*
X175047140Y-153485075D01*
X175068209Y-153498337D01*
X175189162Y-153558813D01*
X175212414Y-153567711D01*
X175216965Y-153568034D01*
X175221182Y-153569781D01*
X175245958Y-153572221D01*
X175427386Y-153572221D01*
X175452162Y-153569781D01*
X175456378Y-153568034D01*
X175460930Y-153567711D01*
X175484182Y-153558813D01*
X175605134Y-153498338D01*
X175615800Y-153491623D01*
X175618897Y-153490341D01*
X175622383Y-153487479D01*
X175626204Y-153485075D01*
X175628401Y-153482541D01*
X175638142Y-153474548D01*
X175698618Y-153414072D01*
X175706613Y-153404329D01*
X175709145Y-153402134D01*
X175711546Y-153398318D01*
X175714412Y-153394827D01*
X175715696Y-153391725D01*
X175722407Y-153381065D01*
X175782883Y-153260112D01*
X175791781Y-153236860D01*
X175792104Y-153232308D01*
X175793851Y-153228092D01*
X175796291Y-153203316D01*
X175796291Y-152356650D01*
X176086577Y-152356650D01*
X176086577Y-152840459D01*
X176089017Y-152865235D01*
X176090763Y-152869451D01*
X176091087Y-152874003D01*
X176099985Y-152897255D01*
X176160460Y-153018207D01*
X176163069Y-153022352D01*
X176163721Y-153024307D01*
X176165831Y-153026740D01*
X176173723Y-153039277D01*
X176185753Y-153049711D01*
X176196188Y-153061742D01*
X176208723Y-153069632D01*
X176211158Y-153071744D01*
X176213113Y-153072395D01*
X176217257Y-153075004D01*
X176338210Y-153135480D01*
X176361462Y-153144378D01*
X176366013Y-153144701D01*
X176370230Y-153146448D01*
X176395006Y-153148888D01*
X176636911Y-153148888D01*
X176661687Y-153146448D01*
X176665903Y-153144701D01*
X176670456Y-153144378D01*
X176693707Y-153135480D01*
X176814659Y-153075004D01*
X176835728Y-153061742D01*
X176868195Y-153024307D01*
X176883865Y-152977296D01*
X176880353Y-152927868D01*
X176858192Y-152883547D01*
X176820757Y-152851080D01*
X176773746Y-152835409D01*
X176724318Y-152838922D01*
X176701066Y-152847820D01*
X176606931Y-152894888D01*
X176424987Y-152894888D01*
X176368713Y-152866751D01*
X176340577Y-152810479D01*
X176340577Y-152702669D01*
X176843246Y-152602136D01*
X176867062Y-152594884D01*
X176877400Y-152587960D01*
X176888896Y-152583199D01*
X176897787Y-152574307D01*
X176908235Y-152567311D01*
X176915137Y-152556957D01*
X176923936Y-152548159D01*
X176928747Y-152536543D01*
X176935723Y-152526080D01*
X176938138Y-152513871D01*
X176942899Y-152502378D01*
X176945339Y-152477602D01*
X176945339Y-152477474D01*
X176945340Y-152477469D01*
X176945339Y-152477464D01*
X176945339Y-152356650D01*
X176942899Y-152331874D01*
X176941152Y-152327657D01*
X176940829Y-152323106D01*
X176931931Y-152299854D01*
X176871455Y-152178901D01*
X176869138Y-152175221D01*
X177235624Y-152175221D01*
X177235624Y-153021888D01*
X177238064Y-153046664D01*
X177257027Y-153092445D01*
X177292067Y-153127485D01*
X177337848Y-153146448D01*
X177387400Y-153146448D01*
X177433181Y-153127485D01*
X177468221Y-153092445D01*
X177487184Y-153046664D01*
X177489624Y-153021888D01*
X177489624Y-152997111D01*
X178870921Y-152997111D01*
X178870921Y-153046665D01*
X178872806Y-153051215D01*
X178889884Y-153092445D01*
X178889885Y-153092446D01*
X178924923Y-153127485D01*
X178970704Y-153146448D01*
X178970705Y-153146448D01*
X178995481Y-153148888D01*
X179781672Y-153148888D01*
X179806448Y-153146448D01*
X179852229Y-153127485D01*
X179887269Y-153092445D01*
X179906232Y-153046664D01*
X179906232Y-152997112D01*
X179887269Y-152951331D01*
X179872573Y-152936635D01*
X180140921Y-152936635D01*
X180140921Y-152986189D01*
X180145446Y-152997112D01*
X180159885Y-153031971D01*
X180159889Y-153031975D01*
X180175678Y-153051215D01*
X180236154Y-153111691D01*
X180255399Y-153127485D01*
X180301180Y-153146448D01*
X180301181Y-153146448D01*
X180350733Y-153146448D01*
X180350734Y-153146448D01*
X180396515Y-153127485D01*
X180396519Y-153127480D01*
X180415759Y-153111691D01*
X180476236Y-153051215D01*
X180492030Y-153031971D01*
X180510994Y-152986190D01*
X180510994Y-152936636D01*
X180492031Y-152890855D01*
X180492029Y-152890853D01*
X180476236Y-152871609D01*
X180415760Y-152811132D01*
X180396515Y-152795339D01*
X180396514Y-152795338D01*
X180368328Y-152783663D01*
X180350734Y-152776375D01*
X180350733Y-152776375D01*
X180301179Y-152776375D01*
X180255398Y-152795339D01*
X180236154Y-152811133D01*
X180175678Y-152871610D01*
X180159884Y-152890855D01*
X180154184Y-152904616D01*
X180140921Y-152936635D01*
X179872573Y-152936635D01*
X179852229Y-152916291D01*
X179806448Y-152897328D01*
X179781672Y-152894888D01*
X179302086Y-152894888D01*
X179810997Y-152385976D01*
X179826791Y-152366731D01*
X179828537Y-152362515D01*
X179831528Y-152359067D01*
X179841678Y-152336335D01*
X179875225Y-152235697D01*
X180743243Y-152235697D01*
X180743243Y-152538078D01*
X180743668Y-152542399D01*
X180743393Y-152544252D01*
X180744764Y-152553524D01*
X180745683Y-152562854D01*
X180746399Y-152564584D01*
X180747035Y-152568880D01*
X180807511Y-152810785D01*
X180808163Y-152812612D01*
X180808229Y-152813528D01*
X180812176Y-152823843D01*
X180815887Y-152834229D01*
X180816432Y-152834965D01*
X180817127Y-152836780D01*
X180877604Y-152957732D01*
X180884315Y-152968394D01*
X180885599Y-152971492D01*
X180888462Y-152974980D01*
X180890867Y-152978801D01*
X180893400Y-152980998D01*
X180901393Y-152990737D01*
X180961869Y-153051214D01*
X180971609Y-153059208D01*
X180973807Y-153061742D01*
X180977624Y-153064145D01*
X180981113Y-153067008D01*
X180984213Y-153068292D01*
X180994876Y-153075004D01*
X181115827Y-153135480D01*
X181139079Y-153144378D01*
X181143631Y-153144701D01*
X181147848Y-153146448D01*
X181172624Y-153148888D01*
X181293577Y-153148888D01*
X181318353Y-153146448D01*
X181322569Y-153144701D01*
X181327122Y-153144378D01*
X181350373Y-153135480D01*
X181471325Y-153075004D01*
X181481988Y-153068291D01*
X181485088Y-153067008D01*
X181488576Y-153064145D01*
X181492394Y-153061742D01*
X181494591Y-153059208D01*
X181504332Y-153051214D01*
X181564809Y-152990737D01*
X181572801Y-152980996D01*
X181575335Y-152978800D01*
X181577739Y-152974980D01*
X181580602Y-152971492D01*
X181581885Y-152968393D01*
X181588597Y-152957731D01*
X181649073Y-152836780D01*
X181649766Y-152834967D01*
X181650313Y-152834230D01*
X181654026Y-152823835D01*
X181657971Y-152813528D01*
X181658036Y-152812612D01*
X181658689Y-152810785D01*
X181719166Y-152568881D01*
X181719801Y-152564583D01*
X181720518Y-152562854D01*
X181721436Y-152553527D01*
X181722808Y-152544253D01*
X181722532Y-152542400D01*
X181722958Y-152538078D01*
X181722958Y-152235697D01*
X181722532Y-152231374D01*
X181722808Y-152229522D01*
X181721436Y-152220247D01*
X181720518Y-152210921D01*
X181719801Y-152209191D01*
X181719166Y-152204894D01*
X181658689Y-151962990D01*
X181658036Y-151961162D01*
X181657971Y-151960247D01*
X181654026Y-151949939D01*
X181650313Y-151939545D01*
X181649766Y-151938807D01*
X181649073Y-151936995D01*
X181588597Y-151816044D01*
X181581886Y-151805383D01*
X181580602Y-151802282D01*
X181577736Y-151798790D01*
X181575335Y-151794975D01*
X181572803Y-151792779D01*
X181564808Y-151783037D01*
X181533659Y-151751888D01*
X182980862Y-151751888D01*
X182980862Y-153021888D01*
X182983302Y-153046664D01*
X183002265Y-153092445D01*
X183037305Y-153127485D01*
X183083086Y-153146448D01*
X183132638Y-153146448D01*
X183178419Y-153127485D01*
X183213459Y-153092445D01*
X183232422Y-153046664D01*
X183234862Y-153021888D01*
X183234862Y-152544126D01*
X183344120Y-152544126D01*
X183729534Y-153094717D01*
X183745741Y-153113615D01*
X183787530Y-153140246D01*
X183836330Y-153148858D01*
X183884710Y-153138139D01*
X183925305Y-153109723D01*
X183951935Y-153067934D01*
X183960547Y-153019134D01*
X183949828Y-152970754D01*
X183937619Y-152949058D01*
X183645559Y-152531830D01*
X183648468Y-152530718D01*
X183769420Y-152470242D01*
X183780084Y-152463528D01*
X183783182Y-152462246D01*
X183786668Y-152459384D01*
X183790489Y-152456980D01*
X183792686Y-152454446D01*
X183802427Y-152446453D01*
X183862903Y-152385976D01*
X183870895Y-152376236D01*
X183873431Y-152374038D01*
X183875836Y-152370216D01*
X183878697Y-152366731D01*
X183879979Y-152363634D01*
X183884376Y-152356650D01*
X184190386Y-152356650D01*
X184190386Y-152840459D01*
X184192826Y-152865235D01*
X184194572Y-152869451D01*
X184194896Y-152874003D01*
X184203794Y-152897255D01*
X184264269Y-153018207D01*
X184266878Y-153022352D01*
X184267530Y-153024307D01*
X184269640Y-153026740D01*
X184277532Y-153039277D01*
X184289562Y-153049711D01*
X184299997Y-153061742D01*
X184312532Y-153069632D01*
X184314967Y-153071744D01*
X184316922Y-153072395D01*
X184321066Y-153075004D01*
X184442019Y-153135480D01*
X184465271Y-153144378D01*
X184469822Y-153144701D01*
X184474039Y-153146448D01*
X184498815Y-153148888D01*
X184740720Y-153148888D01*
X184765496Y-153146448D01*
X184769712Y-153144701D01*
X184774265Y-153144378D01*
X184797516Y-153135480D01*
X184918468Y-153075004D01*
X184939537Y-153061742D01*
X184972004Y-153024307D01*
X184987674Y-152977296D01*
X184984162Y-152927868D01*
X184962001Y-152883547D01*
X184924566Y-152851080D01*
X184877555Y-152835409D01*
X184828127Y-152838922D01*
X184804875Y-152847820D01*
X184710740Y-152894888D01*
X184528796Y-152894888D01*
X184472522Y-152866751D01*
X184444386Y-152810479D01*
X184444386Y-152702669D01*
X184947055Y-152602136D01*
X184970871Y-152594884D01*
X184981209Y-152587960D01*
X184992705Y-152583199D01*
X185001596Y-152574307D01*
X185012044Y-152567311D01*
X185018946Y-152556957D01*
X185027745Y-152548159D01*
X185032556Y-152536543D01*
X185039532Y-152526080D01*
X185041947Y-152513871D01*
X185046708Y-152502378D01*
X185049148Y-152477602D01*
X185049148Y-152477474D01*
X185049149Y-152477469D01*
X185049148Y-152477464D01*
X185049148Y-152356650D01*
X185046708Y-152331874D01*
X185044961Y-152327657D01*
X185044638Y-152323106D01*
X185035740Y-152299854D01*
X184982704Y-152193782D01*
X185219845Y-152193782D01*
X185225880Y-152217936D01*
X185528261Y-153064603D01*
X185538892Y-153087115D01*
X185543170Y-153091840D01*
X185545899Y-153097602D01*
X185559676Y-153110073D01*
X185572148Y-153123851D01*
X185577909Y-153126579D01*
X185582635Y-153130858D01*
X185600136Y-153137108D01*
X185616932Y-153145064D01*
X185623299Y-153145380D01*
X185629301Y-153147524D01*
X185647856Y-153146601D01*
X185666424Y-153147525D01*
X185672429Y-153145380D01*
X185678792Y-153145064D01*
X185695578Y-153137112D01*
X185713089Y-153130859D01*
X185717816Y-153126578D01*
X185723576Y-153123851D01*
X185736042Y-153110079D01*
X185749825Y-153097603D01*
X185752554Y-153091839D01*
X185756832Y-153087115D01*
X185767463Y-153064603D01*
X186041902Y-152296173D01*
X187214195Y-152296173D01*
X187214195Y-152477602D01*
X187214620Y-152481923D01*
X187214345Y-152483776D01*
X187215716Y-152493048D01*
X187216635Y-152502378D01*
X187217351Y-152504108D01*
X187217987Y-152508404D01*
X187278463Y-152750309D01*
X187279115Y-152752136D01*
X187279181Y-152753052D01*
X187283128Y-152763367D01*
X187286839Y-152773753D01*
X187287384Y-152774489D01*
X187288079Y-152776304D01*
X187348556Y-152897256D01*
X187355266Y-152907916D01*
X187356551Y-152911017D01*
X187359416Y-152914508D01*
X187361819Y-152918325D01*
X187364351Y-152920521D01*
X187372345Y-152930261D01*
X187493297Y-153051214D01*
X187512542Y-153067008D01*
X187516757Y-153068754D01*
X187520206Y-153071745D01*
X187542939Y-153081895D01*
X187724368Y-153142371D01*
X187736654Y-153145164D01*
X187739753Y-153146448D01*
X187744243Y-153146890D01*
X187748645Y-153147891D01*
X187751990Y-153147653D01*
X187764529Y-153148888D01*
X187885481Y-153148888D01*
X187898019Y-153147653D01*
X187901366Y-153147891D01*
X187905767Y-153146890D01*
X187910257Y-153146448D01*
X187913354Y-153145165D01*
X187925642Y-153142371D01*
X188107071Y-153081895D01*
X188129804Y-153071745D01*
X188133251Y-153068754D01*
X188137469Y-153067008D01*
X188156713Y-153051214D01*
X188217190Y-152990737D01*
X188232983Y-152971492D01*
X188251946Y-152925711D01*
X188251946Y-152876157D01*
X188232982Y-152830376D01*
X188197943Y-152795338D01*
X188152162Y-152776375D01*
X188102608Y-152776375D01*
X188056827Y-152795339D01*
X188037583Y-152811133D01*
X187998307Y-152850409D01*
X187864871Y-152894888D01*
X187785139Y-152894888D01*
X187651702Y-152850409D01*
X187566523Y-152765229D01*
X187521497Y-152675178D01*
X187468195Y-152461968D01*
X187468195Y-152311807D01*
X187521497Y-152098597D01*
X187566522Y-152008548D01*
X187651703Y-151923366D01*
X187785139Y-151878888D01*
X187864871Y-151878888D01*
X187998306Y-151923366D01*
X188037583Y-151962643D01*
X188056828Y-151978437D01*
X188102609Y-151997400D01*
X188152163Y-151997400D01*
X188197944Y-151978437D01*
X188232983Y-151943398D01*
X188251946Y-151897617D01*
X188251946Y-151848063D01*
X188232983Y-151802282D01*
X188217189Y-151783037D01*
X188156713Y-151722561D01*
X188137468Y-151706768D01*
X188133252Y-151705021D01*
X188129804Y-151702031D01*
X188107071Y-151691881D01*
X187925642Y-151631405D01*
X187913354Y-151628610D01*
X187910257Y-151627328D01*
X187905767Y-151626885D01*
X187901366Y-151625885D01*
X187898019Y-151626122D01*
X187885481Y-151624888D01*
X187764529Y-151624888D01*
X187751990Y-151626122D01*
X187748645Y-151625885D01*
X187744243Y-151626885D01*
X187739753Y-151627328D01*
X187736654Y-151628611D01*
X187724368Y-151631405D01*
X187542939Y-151691881D01*
X187520206Y-151702031D01*
X187516759Y-151705020D01*
X187512542Y-151706767D01*
X187493297Y-151722561D01*
X187372345Y-151843513D01*
X187364351Y-151853253D01*
X187361819Y-151855450D01*
X187359414Y-151859270D01*
X187356552Y-151862758D01*
X187355269Y-151865854D01*
X187348556Y-151876519D01*
X187288079Y-151997472D01*
X187287385Y-151999284D01*
X187286839Y-152000022D01*
X187283125Y-152010416D01*
X187279181Y-152020724D01*
X187279115Y-152021639D01*
X187278463Y-152023467D01*
X187217987Y-152265371D01*
X187217351Y-152269666D01*
X187216635Y-152271397D01*
X187215716Y-152280726D01*
X187214345Y-152289999D01*
X187214620Y-152291851D01*
X187214195Y-152296173D01*
X186041902Y-152296173D01*
X186069844Y-152217935D01*
X186075880Y-152193782D01*
X186073419Y-152144290D01*
X186052206Y-152099506D01*
X186015470Y-152066250D01*
X185968805Y-152049584D01*
X185919313Y-152052045D01*
X185874529Y-152073258D01*
X185841273Y-152109994D01*
X185830642Y-152132506D01*
X185647861Y-152644290D01*
X185465082Y-152132506D01*
X185454451Y-152109994D01*
X185421195Y-152073258D01*
X185376411Y-152052045D01*
X185326920Y-152049585D01*
X185280254Y-152066251D01*
X185243518Y-152099507D01*
X185222305Y-152144291D01*
X185219845Y-152193782D01*
X184982704Y-152193782D01*
X184975264Y-152178901D01*
X184972655Y-152174757D01*
X184972004Y-152172802D01*
X184969892Y-152170367D01*
X184962002Y-152157832D01*
X184949971Y-152147397D01*
X184939537Y-152135367D01*
X184927001Y-152127476D01*
X184924567Y-152125365D01*
X184922611Y-152124713D01*
X184918468Y-152122105D01*
X184797516Y-152061629D01*
X184774265Y-152052731D01*
X184769712Y-152052407D01*
X184765496Y-152050661D01*
X184740720Y-152048221D01*
X184498815Y-152048221D01*
X184474039Y-152050661D01*
X184469822Y-152052407D01*
X184465271Y-152052731D01*
X184442019Y-152061629D01*
X184321066Y-152122105D01*
X184316922Y-152124713D01*
X184314967Y-152125365D01*
X184312532Y-152127476D01*
X184299997Y-152135367D01*
X184289562Y-152147397D01*
X184277532Y-152157832D01*
X184269640Y-152170368D01*
X184267530Y-152172802D01*
X184266878Y-152174756D01*
X184264269Y-152178902D01*
X184203794Y-152299854D01*
X184194896Y-152323106D01*
X184194572Y-152327657D01*
X184192826Y-152331874D01*
X184190386Y-152356650D01*
X183884376Y-152356650D01*
X183886693Y-152352969D01*
X183947169Y-152232018D01*
X183956067Y-152208766D01*
X183956390Y-152204213D01*
X183958137Y-152199997D01*
X183960577Y-152175221D01*
X183960577Y-151993792D01*
X183958137Y-151969016D01*
X183956390Y-151964799D01*
X183956067Y-151960247D01*
X183947169Y-151936995D01*
X183886693Y-151816044D01*
X183879981Y-151805381D01*
X183878697Y-151802281D01*
X183875834Y-151798792D01*
X183873431Y-151794975D01*
X183870897Y-151792777D01*
X183862903Y-151783037D01*
X183802426Y-151722561D01*
X183792687Y-151714568D01*
X183790489Y-151712034D01*
X183786668Y-151709629D01*
X183783181Y-151706767D01*
X183780082Y-151705483D01*
X183769420Y-151698772D01*
X183648468Y-151638296D01*
X183625217Y-151629398D01*
X183620664Y-151629074D01*
X183616448Y-151627328D01*
X183591672Y-151624888D01*
X183107862Y-151624888D01*
X183083086Y-151627328D01*
X183037305Y-151646291D01*
X183002265Y-151681331D01*
X182983302Y-151727112D01*
X182980862Y-151751888D01*
X181533659Y-151751888D01*
X181504332Y-151722561D01*
X181494591Y-151714567D01*
X181492394Y-151712034D01*
X181488573Y-151709629D01*
X181485087Y-151706768D01*
X181481989Y-151705485D01*
X181471325Y-151698772D01*
X181350373Y-151638296D01*
X181327122Y-151629398D01*
X181322569Y-151629074D01*
X181318353Y-151627328D01*
X181293577Y-151624888D01*
X181172624Y-151624888D01*
X181147848Y-151627328D01*
X181143631Y-151629074D01*
X181139079Y-151629398D01*
X181115827Y-151638296D01*
X180994876Y-151698772D01*
X180984215Y-151705482D01*
X180981114Y-151706767D01*
X180977622Y-151709632D01*
X180973807Y-151712034D01*
X180971611Y-151714565D01*
X180961869Y-151722561D01*
X180901393Y-151783037D01*
X180893399Y-151792777D01*
X180890867Y-151794974D01*
X180888462Y-151798794D01*
X180885600Y-151802282D01*
X180884317Y-151805378D01*
X180877604Y-151816043D01*
X180817127Y-151936995D01*
X180816432Y-151938809D01*
X180815887Y-151939546D01*
X180812176Y-151949931D01*
X180808229Y-151960247D01*
X180808163Y-151961162D01*
X180807511Y-151962990D01*
X180747035Y-152204895D01*
X180746399Y-152209190D01*
X180745683Y-152210921D01*
X180744764Y-152220250D01*
X180743393Y-152229523D01*
X180743668Y-152231375D01*
X180743243Y-152235697D01*
X179875225Y-152235697D01*
X179902155Y-152154907D01*
X179904949Y-152142617D01*
X179906232Y-152139521D01*
X179906673Y-152135033D01*
X179907675Y-152130631D01*
X179907437Y-152127284D01*
X179908672Y-152114745D01*
X179908672Y-151993792D01*
X179906232Y-151969016D01*
X179904485Y-151964799D01*
X179904162Y-151960247D01*
X179895264Y-151936995D01*
X179834787Y-151816043D01*
X179828076Y-151805382D01*
X179826792Y-151802282D01*
X179823926Y-151798790D01*
X179821524Y-151794974D01*
X179818992Y-151792778D01*
X179810998Y-151783037D01*
X179750522Y-151722561D01*
X179740781Y-151714567D01*
X179738584Y-151712034D01*
X179734763Y-151709629D01*
X179731277Y-151706768D01*
X179728179Y-151705485D01*
X179717515Y-151698772D01*
X179596563Y-151638296D01*
X179573312Y-151629398D01*
X179568759Y-151629074D01*
X179564543Y-151627328D01*
X179539767Y-151624888D01*
X179237386Y-151624888D01*
X179212610Y-151627328D01*
X179208393Y-151629074D01*
X179203842Y-151629398D01*
X179180590Y-151638296D01*
X179059637Y-151698772D01*
X179048976Y-151705482D01*
X179045875Y-151706767D01*
X179042383Y-151709632D01*
X179038568Y-151712034D01*
X179036372Y-151714565D01*
X179026630Y-151722561D01*
X178966154Y-151783037D01*
X178950361Y-151802282D01*
X178931397Y-151848063D01*
X178931397Y-151897617D01*
X178950361Y-151943398D01*
X178985399Y-151978436D01*
X179031180Y-151997400D01*
X179080734Y-151997400D01*
X179126515Y-151978436D01*
X179145760Y-151962643D01*
X179191664Y-151916738D01*
X179267367Y-151878888D01*
X179509787Y-151878888D01*
X179585487Y-151916738D01*
X179616820Y-151948071D01*
X179654672Y-152023773D01*
X179654672Y-152094134D01*
X179610192Y-152227570D01*
X178905678Y-152932086D01*
X178889884Y-152951330D01*
X178870921Y-152997111D01*
X177489624Y-152997111D01*
X177489624Y-152447107D01*
X177527475Y-152371405D01*
X177558809Y-152340071D01*
X177634509Y-152302221D01*
X177725482Y-152302221D01*
X177750258Y-152299781D01*
X177796039Y-152280818D01*
X177831079Y-152245778D01*
X177850042Y-152199997D01*
X177850042Y-152150445D01*
X177831079Y-152104664D01*
X177796039Y-152069624D01*
X177750258Y-152050661D01*
X177725482Y-152048221D01*
X177604529Y-152048221D01*
X177579753Y-152050661D01*
X177575536Y-152052407D01*
X177570984Y-152052731D01*
X177547732Y-152061629D01*
X177466034Y-152102477D01*
X177433181Y-152069624D01*
X177387400Y-152050661D01*
X177337848Y-152050661D01*
X177292067Y-152069624D01*
X177257027Y-152104664D01*
X177238064Y-152150445D01*
X177235624Y-152175221D01*
X176869138Y-152175221D01*
X176868846Y-152174757D01*
X176868195Y-152172802D01*
X176866083Y-152170367D01*
X176858193Y-152157832D01*
X176846162Y-152147397D01*
X176835728Y-152135367D01*
X176823192Y-152127476D01*
X176820758Y-152125365D01*
X176818802Y-152124713D01*
X176814659Y-152122105D01*
X176693707Y-152061629D01*
X176670456Y-152052731D01*
X176665903Y-152052407D01*
X176661687Y-152050661D01*
X176636911Y-152048221D01*
X176395006Y-152048221D01*
X176370230Y-152050661D01*
X176366013Y-152052407D01*
X176361462Y-152052731D01*
X176338210Y-152061629D01*
X176217257Y-152122105D01*
X176213113Y-152124713D01*
X176211158Y-152125365D01*
X176208723Y-152127476D01*
X176196188Y-152135367D01*
X176185753Y-152147397D01*
X176173723Y-152157832D01*
X176165831Y-152170368D01*
X176163721Y-152172802D01*
X176163069Y-152174756D01*
X176160460Y-152178902D01*
X176099985Y-152299854D01*
X176091087Y-152323106D01*
X176090763Y-152327657D01*
X176089017Y-152331874D01*
X176086577Y-152356650D01*
X175796291Y-152356650D01*
X175796291Y-152175221D01*
X175793851Y-152150445D01*
X175774888Y-152104664D01*
X175739848Y-152069624D01*
X175694067Y-152050661D01*
X175644515Y-152050661D01*
X175610980Y-152064551D01*
X175605135Y-152061629D01*
X175581884Y-152052731D01*
X175577331Y-152052407D01*
X175573115Y-152050661D01*
X175548339Y-152048221D01*
X175306434Y-152048221D01*
X175281658Y-152050661D01*
X175277441Y-152052407D01*
X175272889Y-152052731D01*
X175249637Y-152061629D01*
X175128686Y-152122105D01*
X175118023Y-152128816D01*
X175114925Y-152130100D01*
X175111436Y-152132962D01*
X175107617Y-152135367D01*
X175105420Y-152137900D01*
X175095680Y-152145893D01*
X175035203Y-152206370D01*
X175027208Y-152216110D01*
X175024675Y-152218308D01*
X175022271Y-152222126D01*
X175019409Y-152225614D01*
X175018125Y-152228712D01*
X175011412Y-152239378D01*
X174950937Y-152360330D01*
X174942039Y-152383582D01*
X174941715Y-152388133D01*
X174939969Y-152392350D01*
X174937529Y-152417126D01*
X174647243Y-152417126D01*
X174647243Y-152175221D01*
X174644803Y-152150445D01*
X174625840Y-152104664D01*
X174590800Y-152069624D01*
X174545019Y-152050661D01*
X174495467Y-152050661D01*
X174449686Y-152069624D01*
X174414646Y-152104664D01*
X174395683Y-152150445D01*
X174393243Y-152175221D01*
X174026757Y-152175221D01*
X174026465Y-152174757D01*
X174025814Y-152172802D01*
X174023702Y-152170367D01*
X174015812Y-152157832D01*
X174003781Y-152147397D01*
X173993347Y-152135367D01*
X173980811Y-152127476D01*
X173978377Y-152125365D01*
X173976421Y-152124713D01*
X173972278Y-152122105D01*
X173851326Y-152061629D01*
X173828075Y-152052731D01*
X173823522Y-152052407D01*
X173819306Y-152050661D01*
X173794530Y-152048221D01*
X173552625Y-152048221D01*
X173527849Y-152050661D01*
X173523632Y-152052407D01*
X173519081Y-152052731D01*
X173495829Y-152061629D01*
X173374876Y-152122105D01*
X173370732Y-152124713D01*
X173368777Y-152125365D01*
X173366342Y-152127476D01*
X173353807Y-152135367D01*
X173343372Y-152147397D01*
X173331342Y-152157832D01*
X173323450Y-152170368D01*
X173321340Y-152172802D01*
X173320688Y-152174756D01*
X173318079Y-152178902D01*
X173257604Y-152299854D01*
X173248706Y-152323106D01*
X173248382Y-152327657D01*
X173246636Y-152331874D01*
X173244196Y-152356650D01*
X172920874Y-152356650D01*
X172912163Y-152353042D01*
X172887387Y-152350602D01*
X172645482Y-152350602D01*
X172620706Y-152353042D01*
X172574925Y-152372005D01*
X172539885Y-152407045D01*
X172520922Y-152452826D01*
X172520922Y-152502378D01*
X172539885Y-152548159D01*
X172574925Y-152583199D01*
X172620706Y-152602162D01*
X172645482Y-152604602D01*
X172760387Y-152604602D01*
X172760387Y-152848330D01*
X172758308Y-152850409D01*
X172624872Y-152894888D01*
X172545140Y-152894888D01*
X172411703Y-152850409D01*
X172326524Y-152765229D01*
X172281498Y-152675178D01*
X172228196Y-152461968D01*
X172228196Y-152311807D01*
X172281498Y-152098597D01*
X172326523Y-152008548D01*
X172411704Y-151923366D01*
X172545140Y-151878888D01*
X172675978Y-151878888D01*
X172770115Y-151925956D01*
X172793367Y-151934854D01*
X172842795Y-151938367D01*
X172889806Y-151922696D01*
X172927241Y-151890229D01*
X172949401Y-151845908D01*
X172952914Y-151796480D01*
X172949950Y-151787587D01*
X174335207Y-151787587D01*
X174335207Y-151837141D01*
X174354171Y-151882922D01*
X174369964Y-151902167D01*
X174430440Y-151962643D01*
X174449685Y-151978437D01*
X174495466Y-151997400D01*
X174495467Y-151997400D01*
X174545019Y-151997400D01*
X174545020Y-151997400D01*
X174590801Y-151978437D01*
X174590805Y-151978432D01*
X174610045Y-151962643D01*
X174670522Y-151902167D01*
X174686316Y-151882923D01*
X174687988Y-151878888D01*
X174700756Y-151848063D01*
X174705280Y-151837142D01*
X174705280Y-151787588D01*
X174705280Y-151787587D01*
X174705280Y-151787586D01*
X174686316Y-151741805D01*
X174670522Y-151722561D01*
X174610045Y-151662085D01*
X174590805Y-151646295D01*
X174590801Y-151646291D01*
X174545020Y-151627328D01*
X174495466Y-151627328D01*
X174449685Y-151646291D01*
X174430440Y-151662085D01*
X174369964Y-151722561D01*
X174354172Y-151741805D01*
X174354171Y-151741806D01*
X174335207Y-151787587D01*
X172949950Y-151787587D01*
X172937243Y-151749469D01*
X172904776Y-151712034D01*
X172883706Y-151698771D01*
X172762754Y-151638296D01*
X172739502Y-151629398D01*
X172734950Y-151629074D01*
X172730734Y-151627328D01*
X172705958Y-151624888D01*
X172524530Y-151624888D01*
X172511991Y-151626122D01*
X172508646Y-151625885D01*
X172504244Y-151626885D01*
X172499754Y-151627328D01*
X172496655Y-151628611D01*
X172484369Y-151631405D01*
X172302940Y-151691881D01*
X172280207Y-151702031D01*
X172276760Y-151705020D01*
X172272543Y-151706767D01*
X172253298Y-151722561D01*
X172132346Y-151843513D01*
X172124352Y-151853253D01*
X172121820Y-151855450D01*
X172119415Y-151859270D01*
X172116553Y-151862758D01*
X172115270Y-151865854D01*
X172108557Y-151876519D01*
X172048080Y-151997472D01*
X172047386Y-151999284D01*
X172046840Y-152000022D01*
X172043126Y-152010416D01*
X172039182Y-152020724D01*
X172039116Y-152021639D01*
X172038464Y-152023467D01*
X171977988Y-152265371D01*
X171977352Y-152269666D01*
X171976636Y-152271397D01*
X171975717Y-152280726D01*
X171974346Y-152289999D01*
X171974621Y-152291851D01*
X171974196Y-152296173D01*
X171683910Y-152296173D01*
X171683910Y-152175221D01*
X171681470Y-152150445D01*
X171662507Y-152104664D01*
X171627467Y-152069624D01*
X171581686Y-152050661D01*
X171532134Y-152050661D01*
X171486353Y-152069624D01*
X171451313Y-152104664D01*
X171432350Y-152150445D01*
X171429910Y-152175221D01*
X171258137Y-152175221D01*
X171258137Y-152150445D01*
X171239174Y-152104664D01*
X171204134Y-152069624D01*
X171158353Y-152050661D01*
X171133577Y-152048221D01*
X170958196Y-152048221D01*
X170958196Y-151787587D01*
X171371874Y-151787587D01*
X171371874Y-151837141D01*
X171390838Y-151882922D01*
X171406631Y-151902167D01*
X171467107Y-151962643D01*
X171486352Y-151978437D01*
X171532133Y-151997400D01*
X171532134Y-151997400D01*
X171581686Y-151997400D01*
X171581687Y-151997400D01*
X171627468Y-151978437D01*
X171627472Y-151978432D01*
X171646712Y-151962643D01*
X171707189Y-151902167D01*
X171722983Y-151882923D01*
X171724655Y-151878888D01*
X171737423Y-151848063D01*
X171741947Y-151837142D01*
X171741947Y-151787588D01*
X171741947Y-151787587D01*
X171741947Y-151787586D01*
X171722983Y-151741805D01*
X171707189Y-151722561D01*
X171646712Y-151662085D01*
X171627472Y-151646295D01*
X171627468Y-151646291D01*
X171581687Y-151627328D01*
X171532133Y-151627328D01*
X171486352Y-151646291D01*
X171467107Y-151662085D01*
X171406631Y-151722561D01*
X171390839Y-151741805D01*
X171390838Y-151741806D01*
X171371874Y-151787587D01*
X170958196Y-151787587D01*
X170958196Y-151751888D01*
X170955756Y-151727112D01*
X170936793Y-151681331D01*
X170901753Y-151646291D01*
X170855972Y-151627328D01*
X170806420Y-151627328D01*
X170760639Y-151646291D01*
X170725599Y-151681331D01*
X170706636Y-151727112D01*
X170704196Y-151751888D01*
X170704196Y-152048221D01*
X170649768Y-152048221D01*
X170624992Y-152050661D01*
X170579211Y-152069624D01*
X170544171Y-152104664D01*
X170525208Y-152150445D01*
X170292958Y-152150445D01*
X170292958Y-151751888D01*
X170290518Y-151727112D01*
X170271555Y-151681331D01*
X170236515Y-151646291D01*
X170190734Y-151627328D01*
X170141182Y-151627328D01*
X170095401Y-151646291D01*
X170060361Y-151681331D01*
X170041398Y-151727112D01*
X170038958Y-151751888D01*
X168539148Y-151751888D01*
X168537544Y-151735603D01*
X168537676Y-151732606D01*
X168537090Y-151730995D01*
X168536708Y-151727112D01*
X168528273Y-151706748D01*
X168520741Y-151686035D01*
X168518828Y-151683946D01*
X168517745Y-151681331D01*
X168502163Y-151665749D01*
X168487274Y-151649491D01*
X168484707Y-151648293D01*
X168482705Y-151646291D01*
X168462351Y-151637860D01*
X168442371Y-151628536D01*
X168439539Y-151628411D01*
X168436924Y-151627328D01*
X168414888Y-151627328D01*
X168392866Y-151626360D01*
X168390204Y-151627328D01*
X168387372Y-151627328D01*
X168367008Y-151635762D01*
X168346295Y-151643295D01*
X168344206Y-151645207D01*
X168341591Y-151646291D01*
X168326009Y-151661872D01*
X168309751Y-151676762D01*
X168307761Y-151680120D01*
X168306551Y-151681331D01*
X168305403Y-151684101D01*
X168297063Y-151698182D01*
X167988815Y-152358713D01*
X167680566Y-151698181D01*
X167672225Y-151684100D01*
X167671078Y-151681331D01*
X167669867Y-151680120D01*
X167667878Y-151676762D01*
X167651619Y-151661872D01*
X167636038Y-151646291D01*
X167633422Y-151645207D01*
X167631334Y-151643295D01*
X167610620Y-151635762D01*
X167590257Y-151627328D01*
X167587425Y-151627328D01*
X167584763Y-151626360D01*
X167562741Y-151627328D01*
X167540705Y-151627328D01*
X167538089Y-151628411D01*
X167535258Y-151628536D01*
X167515277Y-151637860D01*
X167494924Y-151646291D01*
X167492921Y-151648293D01*
X167490355Y-151649491D01*
X167475465Y-151665749D01*
X167459884Y-151681331D01*
X167458800Y-151683946D01*
X167456888Y-151686035D01*
X167449355Y-151706748D01*
X167440921Y-151727112D01*
X167440538Y-151730995D01*
X167439953Y-151732606D01*
X167440084Y-151735603D01*
X167438481Y-151751888D01*
X167297370Y-151751888D01*
X167297370Y-151483777D01*
X188393057Y-151483777D01*
X188393057Y-153713332D01*
G37*
D11*
X146004529Y-136407465D02*
X145623577Y-136407465D01*
X145623577Y-136407465D02*
X145537863Y-136788417D01*
X145537863Y-136788417D02*
X145580720Y-136750322D01*
X145580720Y-136750322D02*
X145661672Y-136712227D01*
X145661672Y-136712227D02*
X145852148Y-136712227D01*
X145852148Y-136712227D02*
X145923577Y-136750322D01*
X145923577Y-136750322D02*
X145956910Y-136788417D01*
X145956910Y-136788417D02*
X145985482Y-136864608D01*
X145985482Y-136864608D02*
X145961672Y-137055084D01*
X145961672Y-137055084D02*
X145914053Y-137131274D01*
X145914053Y-137131274D02*
X145871196Y-137169370D01*
X145871196Y-137169370D02*
X145790243Y-137207465D01*
X145790243Y-137207465D02*
X145599767Y-137207465D01*
X145599767Y-137207465D02*
X145528339Y-137169370D01*
X145528339Y-137169370D02*
X145495005Y-137131274D01*
X146271196Y-136407465D02*
X146437863Y-137207465D01*
X146437863Y-137207465D02*
X146804529Y-136407465D01*
X147833101Y-136407465D02*
X147985482Y-136407465D01*
X147985482Y-136407465D02*
X148056910Y-136445560D01*
X148056910Y-136445560D02*
X148123577Y-136521750D01*
X148123577Y-136521750D02*
X148142625Y-136674131D01*
X148142625Y-136674131D02*
X148109291Y-136940798D01*
X148109291Y-136940798D02*
X148052148Y-137093179D01*
X148052148Y-137093179D02*
X147966434Y-137169370D01*
X147966434Y-137169370D02*
X147885482Y-137207465D01*
X147885482Y-137207465D02*
X147733101Y-137207465D01*
X147733101Y-137207465D02*
X147661672Y-137169370D01*
X147661672Y-137169370D02*
X147595006Y-137093179D01*
X147595006Y-137093179D02*
X147575958Y-136940798D01*
X147575958Y-136940798D02*
X147609291Y-136674131D01*
X147609291Y-136674131D02*
X147666434Y-136521750D01*
X147666434Y-136521750D02*
X147752148Y-136445560D01*
X147752148Y-136445560D02*
X147833101Y-136407465D01*
X148418815Y-137207465D02*
X148518815Y-136407465D01*
X148518815Y-136407465D02*
X148875958Y-137207465D01*
X148875958Y-137207465D02*
X148975958Y-136407465D01*
X149637862Y-137207465D02*
X149256910Y-137207465D01*
X149256910Y-137207465D02*
X149356910Y-136407465D01*
X150104529Y-136826512D02*
X150056910Y-137207465D01*
X149890243Y-136407465D02*
X150104529Y-136826512D01*
X150104529Y-136826512D02*
X150423576Y-136407465D01*
D12*
X204417609Y-123999296D02*
X203861228Y-123999296D01*
X203861228Y-123999296D02*
X203861228Y-122830896D01*
X205419095Y-123999296D02*
X204751438Y-123999296D01*
X205085266Y-123999296D02*
X205085266Y-122830896D01*
X205085266Y-122830896D02*
X204973990Y-122997810D01*
X204973990Y-122997810D02*
X204862714Y-123109086D01*
X204862714Y-123109086D02*
X204751438Y-123164724D01*
D13*
X168106959Y-137390190D02*
X167721726Y-136839857D01*
X167446559Y-137390190D02*
X167446559Y-136234490D01*
X167446559Y-136234490D02*
X167886826Y-136234490D01*
X167886826Y-136234490D02*
X167996893Y-136289523D01*
X167996893Y-136289523D02*
X168051926Y-136344557D01*
X168051926Y-136344557D02*
X168106959Y-136454623D01*
X168106959Y-136454623D02*
X168106959Y-136619723D01*
X168106959Y-136619723D02*
X168051926Y-136729790D01*
X168051926Y-136729790D02*
X167996893Y-136784823D01*
X167996893Y-136784823D02*
X167886826Y-136839857D01*
X167886826Y-136839857D02*
X167446559Y-136839857D01*
X169097559Y-136234490D02*
X168877426Y-136234490D01*
X168877426Y-136234490D02*
X168767359Y-136289523D01*
X168767359Y-136289523D02*
X168712326Y-136344557D01*
X168712326Y-136344557D02*
X168602259Y-136509657D01*
X168602259Y-136509657D02*
X168547226Y-136729790D01*
X168547226Y-136729790D02*
X168547226Y-137170057D01*
X168547226Y-137170057D02*
X168602259Y-137280123D01*
X168602259Y-137280123D02*
X168657293Y-137335157D01*
X168657293Y-137335157D02*
X168767359Y-137390190D01*
X168767359Y-137390190D02*
X168987493Y-137390190D01*
X168987493Y-137390190D02*
X169097559Y-137335157D01*
X169097559Y-137335157D02*
X169152593Y-137280123D01*
X169152593Y-137280123D02*
X169207626Y-137170057D01*
X169207626Y-137170057D02*
X169207626Y-136894890D01*
X169207626Y-136894890D02*
X169152593Y-136784823D01*
X169152593Y-136784823D02*
X169097559Y-136729790D01*
X169097559Y-136729790D02*
X168987493Y-136674757D01*
X168987493Y-136674757D02*
X168767359Y-136674757D01*
X168767359Y-136674757D02*
X168657293Y-136729790D01*
X168657293Y-136729790D02*
X168602259Y-136784823D01*
X168602259Y-136784823D02*
X168547226Y-136894890D01*
X192926959Y-151500190D02*
X192541726Y-150949857D01*
X192266559Y-151500190D02*
X192266559Y-150344490D01*
X192266559Y-150344490D02*
X192706826Y-150344490D01*
X192706826Y-150344490D02*
X192816893Y-150399523D01*
X192816893Y-150399523D02*
X192871926Y-150454557D01*
X192871926Y-150454557D02*
X192926959Y-150564623D01*
X192926959Y-150564623D02*
X192926959Y-150729723D01*
X192926959Y-150729723D02*
X192871926Y-150839790D01*
X192871926Y-150839790D02*
X192816893Y-150894823D01*
X192816893Y-150894823D02*
X192706826Y-150949857D01*
X192706826Y-150949857D02*
X192266559Y-150949857D01*
X194027626Y-151500190D02*
X193367226Y-151500190D01*
X193697426Y-151500190D02*
X193697426Y-150344490D01*
X193697426Y-150344490D02*
X193587359Y-150509590D01*
X193587359Y-150509590D02*
X193477293Y-150619657D01*
X193477293Y-150619657D02*
X193367226Y-150674690D01*
D12*
X213305590Y-146943658D02*
X213472504Y-146999296D01*
X213472504Y-146999296D02*
X213750695Y-146999296D01*
X213750695Y-146999296D02*
X213861971Y-146943658D01*
X213861971Y-146943658D02*
X213917609Y-146888019D01*
X213917609Y-146888019D02*
X213973247Y-146776743D01*
X213973247Y-146776743D02*
X213973247Y-146665467D01*
X213973247Y-146665467D02*
X213917609Y-146554191D01*
X213917609Y-146554191D02*
X213861971Y-146498553D01*
X213861971Y-146498553D02*
X213750695Y-146442915D01*
X213750695Y-146442915D02*
X213528142Y-146387277D01*
X213528142Y-146387277D02*
X213416866Y-146331638D01*
X213416866Y-146331638D02*
X213361228Y-146276000D01*
X213361228Y-146276000D02*
X213305590Y-146164724D01*
X213305590Y-146164724D02*
X213305590Y-146053448D01*
X213305590Y-146053448D02*
X213361228Y-145942172D01*
X213361228Y-145942172D02*
X213416866Y-145886534D01*
X213416866Y-145886534D02*
X213528142Y-145830896D01*
X213528142Y-145830896D02*
X213806333Y-145830896D01*
X213806333Y-145830896D02*
X213973247Y-145886534D01*
X214863457Y-146387277D02*
X215030371Y-146442915D01*
X215030371Y-146442915D02*
X215086009Y-146498553D01*
X215086009Y-146498553D02*
X215141647Y-146609829D01*
X215141647Y-146609829D02*
X215141647Y-146776743D01*
X215141647Y-146776743D02*
X215086009Y-146888019D01*
X215086009Y-146888019D02*
X215030371Y-146943658D01*
X215030371Y-146943658D02*
X214919095Y-146999296D01*
X214919095Y-146999296D02*
X214473990Y-146999296D01*
X214473990Y-146999296D02*
X214473990Y-145830896D01*
X214473990Y-145830896D02*
X214863457Y-145830896D01*
X214863457Y-145830896D02*
X214974733Y-145886534D01*
X214974733Y-145886534D02*
X215030371Y-145942172D01*
X215030371Y-145942172D02*
X215086009Y-146053448D01*
X215086009Y-146053448D02*
X215086009Y-146164724D01*
X215086009Y-146164724D02*
X215030371Y-146276000D01*
X215030371Y-146276000D02*
X214974733Y-146331638D01*
X214974733Y-146331638D02*
X214863457Y-146387277D01*
X214863457Y-146387277D02*
X214473990Y-146387277D01*
X215642390Y-146999296D02*
X215642390Y-145830896D01*
X215642390Y-145830896D02*
X216031857Y-146665467D01*
X216031857Y-146665467D02*
X216421323Y-145830896D01*
X216421323Y-145830896D02*
X216421323Y-146999296D01*
X216977704Y-146554191D02*
X217867914Y-146554191D01*
X219036313Y-146999296D02*
X218368656Y-146999296D01*
X218702484Y-146999296D02*
X218702484Y-145830896D01*
X218702484Y-145830896D02*
X218591208Y-145997810D01*
X218591208Y-145997810D02*
X218479932Y-146109086D01*
X218479932Y-146109086D02*
X218368656Y-146164724D01*
X219592694Y-146999296D02*
X219815246Y-146999296D01*
X219815246Y-146999296D02*
X219926523Y-146943658D01*
X219926523Y-146943658D02*
X219982161Y-146888019D01*
X219982161Y-146888019D02*
X220093437Y-146721105D01*
X220093437Y-146721105D02*
X220149075Y-146498553D01*
X220149075Y-146498553D02*
X220149075Y-146053448D01*
X220149075Y-146053448D02*
X220093437Y-145942172D01*
X220093437Y-145942172D02*
X220037799Y-145886534D01*
X220037799Y-145886534D02*
X219926523Y-145830896D01*
X219926523Y-145830896D02*
X219703970Y-145830896D01*
X219703970Y-145830896D02*
X219592694Y-145886534D01*
X219592694Y-145886534D02*
X219537056Y-145942172D01*
X219537056Y-145942172D02*
X219481418Y-146053448D01*
X219481418Y-146053448D02*
X219481418Y-146331638D01*
X219481418Y-146331638D02*
X219537056Y-146442915D01*
X219537056Y-146442915D02*
X219592694Y-146498553D01*
X219592694Y-146498553D02*
X219703970Y-146554191D01*
X219703970Y-146554191D02*
X219926523Y-146554191D01*
X219926523Y-146554191D02*
X220037799Y-146498553D01*
X220037799Y-146498553D02*
X220093437Y-146442915D01*
X220093437Y-146442915D02*
X220149075Y-146331638D01*
X221484389Y-145775258D02*
X220482904Y-147277486D01*
X222485875Y-146999296D02*
X221818218Y-146999296D01*
X222152046Y-146999296D02*
X222152046Y-145830896D01*
X222152046Y-145830896D02*
X222040770Y-145997810D01*
X222040770Y-145997810D02*
X221929494Y-146109086D01*
X221929494Y-146109086D02*
X221818218Y-146164724D01*
D13*
X187126959Y-142290123D02*
X187071926Y-142345157D01*
X187071926Y-142345157D02*
X186906826Y-142400190D01*
X186906826Y-142400190D02*
X186796759Y-142400190D01*
X186796759Y-142400190D02*
X186631659Y-142345157D01*
X186631659Y-142345157D02*
X186521593Y-142235090D01*
X186521593Y-142235090D02*
X186466559Y-142125023D01*
X186466559Y-142125023D02*
X186411526Y-141904890D01*
X186411526Y-141904890D02*
X186411526Y-141739790D01*
X186411526Y-141739790D02*
X186466559Y-141519657D01*
X186466559Y-141519657D02*
X186521593Y-141409590D01*
X186521593Y-141409590D02*
X186631659Y-141299523D01*
X186631659Y-141299523D02*
X186796759Y-141244490D01*
X186796759Y-141244490D02*
X186906826Y-141244490D01*
X186906826Y-141244490D02*
X187071926Y-141299523D01*
X187071926Y-141299523D02*
X187126959Y-141354557D01*
X187567226Y-141354557D02*
X187622259Y-141299523D01*
X187622259Y-141299523D02*
X187732326Y-141244490D01*
X187732326Y-141244490D02*
X188007493Y-141244490D01*
X188007493Y-141244490D02*
X188117559Y-141299523D01*
X188117559Y-141299523D02*
X188172593Y-141354557D01*
X188172593Y-141354557D02*
X188227626Y-141464623D01*
X188227626Y-141464623D02*
X188227626Y-141574690D01*
X188227626Y-141574690D02*
X188172593Y-141739790D01*
X188172593Y-141739790D02*
X187512193Y-142400190D01*
X187512193Y-142400190D02*
X188227626Y-142400190D01*
X168106959Y-139860190D02*
X167721726Y-139309857D01*
X167446559Y-139860190D02*
X167446559Y-138704490D01*
X167446559Y-138704490D02*
X167886826Y-138704490D01*
X167886826Y-138704490D02*
X167996893Y-138759523D01*
X167996893Y-138759523D02*
X168051926Y-138814557D01*
X168051926Y-138814557D02*
X168106959Y-138924623D01*
X168106959Y-138924623D02*
X168106959Y-139089723D01*
X168106959Y-139089723D02*
X168051926Y-139199790D01*
X168051926Y-139199790D02*
X167996893Y-139254823D01*
X167996893Y-139254823D02*
X167886826Y-139309857D01*
X167886826Y-139309857D02*
X167446559Y-139309857D01*
X168492193Y-138704490D02*
X169262659Y-138704490D01*
X169262659Y-138704490D02*
X168767359Y-139860190D01*
X182426959Y-133900190D02*
X182041726Y-133349857D01*
X181766559Y-133900190D02*
X181766559Y-132744490D01*
X181766559Y-132744490D02*
X182206826Y-132744490D01*
X182206826Y-132744490D02*
X182316893Y-132799523D01*
X182316893Y-132799523D02*
X182371926Y-132854557D01*
X182371926Y-132854557D02*
X182426959Y-132964623D01*
X182426959Y-132964623D02*
X182426959Y-133129723D01*
X182426959Y-133129723D02*
X182371926Y-133239790D01*
X182371926Y-133239790D02*
X182316893Y-133294823D01*
X182316893Y-133294823D02*
X182206826Y-133349857D01*
X182206826Y-133349857D02*
X181766559Y-133349857D01*
X183472593Y-132744490D02*
X182922259Y-132744490D01*
X182922259Y-132744490D02*
X182867226Y-133294823D01*
X182867226Y-133294823D02*
X182922259Y-133239790D01*
X182922259Y-133239790D02*
X183032326Y-133184757D01*
X183032326Y-133184757D02*
X183307493Y-133184757D01*
X183307493Y-133184757D02*
X183417559Y-133239790D01*
X183417559Y-133239790D02*
X183472593Y-133294823D01*
X183472593Y-133294823D02*
X183527626Y-133404890D01*
X183527626Y-133404890D02*
X183527626Y-133680057D01*
X183527626Y-133680057D02*
X183472593Y-133790123D01*
X183472593Y-133790123D02*
X183417559Y-133845157D01*
X183417559Y-133845157D02*
X183307493Y-133900190D01*
X183307493Y-133900190D02*
X183032326Y-133900190D01*
X183032326Y-133900190D02*
X182922259Y-133845157D01*
X182922259Y-133845157D02*
X182867226Y-133790123D01*
X195966559Y-151500190D02*
X195966559Y-150344490D01*
X195966559Y-150344490D02*
X196241726Y-150344490D01*
X196241726Y-150344490D02*
X196406826Y-150399523D01*
X196406826Y-150399523D02*
X196516893Y-150509590D01*
X196516893Y-150509590D02*
X196571926Y-150619657D01*
X196571926Y-150619657D02*
X196626959Y-150839790D01*
X196626959Y-150839790D02*
X196626959Y-151004890D01*
X196626959Y-151004890D02*
X196571926Y-151225023D01*
X196571926Y-151225023D02*
X196516893Y-151335090D01*
X196516893Y-151335090D02*
X196406826Y-151445157D01*
X196406826Y-151445157D02*
X196241726Y-151500190D01*
X196241726Y-151500190D02*
X195966559Y-151500190D01*
X197012193Y-150344490D02*
X197727626Y-150344490D01*
X197727626Y-150344490D02*
X197342393Y-150784757D01*
X197342393Y-150784757D02*
X197507493Y-150784757D01*
X197507493Y-150784757D02*
X197617559Y-150839790D01*
X197617559Y-150839790D02*
X197672593Y-150894823D01*
X197672593Y-150894823D02*
X197727626Y-151004890D01*
X197727626Y-151004890D02*
X197727626Y-151280057D01*
X197727626Y-151280057D02*
X197672593Y-151390123D01*
X197672593Y-151390123D02*
X197617559Y-151445157D01*
X197617559Y-151445157D02*
X197507493Y-151500190D01*
X197507493Y-151500190D02*
X197177293Y-151500190D01*
X197177293Y-151500190D02*
X197067226Y-151445157D01*
X197067226Y-151445157D02*
X197012193Y-151390123D01*
D12*
X202761228Y-132630896D02*
X202761228Y-133576743D01*
X202761228Y-133576743D02*
X202816866Y-133688019D01*
X202816866Y-133688019D02*
X202872504Y-133743658D01*
X202872504Y-133743658D02*
X202983780Y-133799296D01*
X202983780Y-133799296D02*
X203206333Y-133799296D01*
X203206333Y-133799296D02*
X203317609Y-133743658D01*
X203317609Y-133743658D02*
X203373247Y-133688019D01*
X203373247Y-133688019D02*
X203428885Y-133576743D01*
X203428885Y-133576743D02*
X203428885Y-132630896D01*
X203873990Y-132630896D02*
X204597285Y-132630896D01*
X204597285Y-132630896D02*
X204207818Y-133076000D01*
X204207818Y-133076000D02*
X204374733Y-133076000D01*
X204374733Y-133076000D02*
X204486009Y-133131638D01*
X204486009Y-133131638D02*
X204541647Y-133187277D01*
X204541647Y-133187277D02*
X204597285Y-133298553D01*
X204597285Y-133298553D02*
X204597285Y-133576743D01*
X204597285Y-133576743D02*
X204541647Y-133688019D01*
X204541647Y-133688019D02*
X204486009Y-133743658D01*
X204486009Y-133743658D02*
X204374733Y-133799296D01*
X204374733Y-133799296D02*
X204040904Y-133799296D01*
X204040904Y-133799296D02*
X203929628Y-133743658D01*
X203929628Y-133743658D02*
X203873990Y-133688019D01*
D13*
X199366559Y-151600190D02*
X199366559Y-150444490D01*
X199366559Y-150444490D02*
X199641726Y-150444490D01*
X199641726Y-150444490D02*
X199806826Y-150499523D01*
X199806826Y-150499523D02*
X199916893Y-150609590D01*
X199916893Y-150609590D02*
X199971926Y-150719657D01*
X199971926Y-150719657D02*
X200026959Y-150939790D01*
X200026959Y-150939790D02*
X200026959Y-151104890D01*
X200026959Y-151104890D02*
X199971926Y-151325023D01*
X199971926Y-151325023D02*
X199916893Y-151435090D01*
X199916893Y-151435090D02*
X199806826Y-151545157D01*
X199806826Y-151545157D02*
X199641726Y-151600190D01*
X199641726Y-151600190D02*
X199366559Y-151600190D01*
X200467226Y-150554557D02*
X200522259Y-150499523D01*
X200522259Y-150499523D02*
X200632326Y-150444490D01*
X200632326Y-150444490D02*
X200907493Y-150444490D01*
X200907493Y-150444490D02*
X201017559Y-150499523D01*
X201017559Y-150499523D02*
X201072593Y-150554557D01*
X201072593Y-150554557D02*
X201127626Y-150664623D01*
X201127626Y-150664623D02*
X201127626Y-150774690D01*
X201127626Y-150774690D02*
X201072593Y-150939790D01*
X201072593Y-150939790D02*
X200412193Y-151600190D01*
X200412193Y-151600190D02*
X201127626Y-151600190D01*
X222726959Y-133400190D02*
X222341726Y-132849857D01*
X222066559Y-133400190D02*
X222066559Y-132244490D01*
X222066559Y-132244490D02*
X222506826Y-132244490D01*
X222506826Y-132244490D02*
X222616893Y-132299523D01*
X222616893Y-132299523D02*
X222671926Y-132354557D01*
X222671926Y-132354557D02*
X222726959Y-132464623D01*
X222726959Y-132464623D02*
X222726959Y-132629723D01*
X222726959Y-132629723D02*
X222671926Y-132739790D01*
X222671926Y-132739790D02*
X222616893Y-132794823D01*
X222616893Y-132794823D02*
X222506826Y-132849857D01*
X222506826Y-132849857D02*
X222066559Y-132849857D01*
X223112193Y-132244490D02*
X223827626Y-132244490D01*
X223827626Y-132244490D02*
X223442393Y-132684757D01*
X223442393Y-132684757D02*
X223607493Y-132684757D01*
X223607493Y-132684757D02*
X223717559Y-132739790D01*
X223717559Y-132739790D02*
X223772593Y-132794823D01*
X223772593Y-132794823D02*
X223827626Y-132904890D01*
X223827626Y-132904890D02*
X223827626Y-133180057D01*
X223827626Y-133180057D02*
X223772593Y-133290123D01*
X223772593Y-133290123D02*
X223717559Y-133345157D01*
X223717559Y-133345157D02*
X223607493Y-133400190D01*
X223607493Y-133400190D02*
X223277293Y-133400190D01*
X223277293Y-133400190D02*
X223167226Y-133345157D01*
X223167226Y-133345157D02*
X223112193Y-133290123D01*
X209366559Y-151600190D02*
X209366559Y-150444490D01*
X209366559Y-150444490D02*
X209641726Y-150444490D01*
X209641726Y-150444490D02*
X209806826Y-150499523D01*
X209806826Y-150499523D02*
X209916893Y-150609590D01*
X209916893Y-150609590D02*
X209971926Y-150719657D01*
X209971926Y-150719657D02*
X210026959Y-150939790D01*
X210026959Y-150939790D02*
X210026959Y-151104890D01*
X210026959Y-151104890D02*
X209971926Y-151325023D01*
X209971926Y-151325023D02*
X209916893Y-151435090D01*
X209916893Y-151435090D02*
X209806826Y-151545157D01*
X209806826Y-151545157D02*
X209641726Y-151600190D01*
X209641726Y-151600190D02*
X209366559Y-151600190D01*
X211072593Y-150444490D02*
X210522259Y-150444490D01*
X210522259Y-150444490D02*
X210467226Y-150994823D01*
X210467226Y-150994823D02*
X210522259Y-150939790D01*
X210522259Y-150939790D02*
X210632326Y-150884757D01*
X210632326Y-150884757D02*
X210907493Y-150884757D01*
X210907493Y-150884757D02*
X211017559Y-150939790D01*
X211017559Y-150939790D02*
X211072593Y-150994823D01*
X211072593Y-150994823D02*
X211127626Y-151104890D01*
X211127626Y-151104890D02*
X211127626Y-151380057D01*
X211127626Y-151380057D02*
X211072593Y-151490123D01*
X211072593Y-151490123D02*
X211017559Y-151545157D01*
X211017559Y-151545157D02*
X210907493Y-151600190D01*
X210907493Y-151600190D02*
X210632326Y-151600190D01*
X210632326Y-151600190D02*
X210522259Y-151545157D01*
X210522259Y-151545157D02*
X210467226Y-151490123D01*
D11*
X164044291Y-125924989D02*
X164044291Y-126734512D01*
X164044291Y-126734512D02*
X164091910Y-126829750D01*
X164091910Y-126829750D02*
X164139529Y-126877370D01*
X164139529Y-126877370D02*
X164234767Y-126924989D01*
X164234767Y-126924989D02*
X164425243Y-126924989D01*
X164425243Y-126924989D02*
X164520481Y-126877370D01*
X164520481Y-126877370D02*
X164568100Y-126829750D01*
X164568100Y-126829750D02*
X164615719Y-126734512D01*
X164615719Y-126734512D02*
X164615719Y-125924989D01*
X165615719Y-126924989D02*
X165044291Y-126924989D01*
X165330005Y-126924989D02*
X165330005Y-125924989D01*
X165330005Y-125924989D02*
X165234767Y-126067846D01*
X165234767Y-126067846D02*
X165139529Y-126163084D01*
X165139529Y-126163084D02*
X165044291Y-126210703D01*
D14*
X146537862Y-130497389D02*
X146537862Y-131211674D01*
X146537862Y-131211674D02*
X146490243Y-131354531D01*
X146490243Y-131354531D02*
X146395005Y-131449770D01*
X146395005Y-131449770D02*
X146252148Y-131497389D01*
X146252148Y-131497389D02*
X146156910Y-131497389D01*
X146966434Y-130592627D02*
X147014053Y-130545008D01*
X147014053Y-130545008D02*
X147109291Y-130497389D01*
X147109291Y-130497389D02*
X147347386Y-130497389D01*
X147347386Y-130497389D02*
X147442624Y-130545008D01*
X147442624Y-130545008D02*
X147490243Y-130592627D01*
X147490243Y-130592627D02*
X147537862Y-130687865D01*
X147537862Y-130687865D02*
X147537862Y-130783103D01*
X147537862Y-130783103D02*
X147490243Y-130925960D01*
X147490243Y-130925960D02*
X146918815Y-131497389D01*
X146918815Y-131497389D02*
X147537862Y-131497389D01*
D15*
G36*
X145368021Y-127705900D02*
G01*
X139421990Y-127705900D01*
X139421990Y-126494789D01*
X139533101Y-126494789D01*
X139533101Y-127494789D01*
X139535022Y-127514298D01*
X139549954Y-127550346D01*
X139577544Y-127577936D01*
X139613592Y-127592868D01*
X139652610Y-127592868D01*
X139688658Y-127577936D01*
X139716248Y-127550346D01*
X139731180Y-127514298D01*
X139733101Y-127494789D01*
X139733101Y-127475280D01*
X139915974Y-127475280D01*
X139915974Y-127514298D01*
X139930906Y-127550346D01*
X139958496Y-127577936D01*
X139994544Y-127592868D01*
X140014053Y-127594789D01*
X140633100Y-127594789D01*
X140652609Y-127592868D01*
X140688657Y-127577936D01*
X140716247Y-127550346D01*
X140731179Y-127514298D01*
X140731179Y-127475280D01*
X140716247Y-127439232D01*
X140688657Y-127411642D01*
X140652609Y-127396710D01*
X140633100Y-127394789D01*
X140255475Y-127394789D01*
X140656192Y-126994071D01*
X140668628Y-126978917D01*
X140670002Y-126975598D01*
X140672358Y-126972883D01*
X140680349Y-126954983D01*
X140690890Y-126923360D01*
X140914053Y-126923360D01*
X140914053Y-127066217D01*
X140914388Y-127069619D01*
X140914171Y-127071078D01*
X140915250Y-127078375D01*
X140915974Y-127085726D01*
X140916538Y-127087089D01*
X140917039Y-127090471D01*
X140964658Y-127280946D01*
X140965171Y-127282383D01*
X140965223Y-127283106D01*
X140968331Y-127291230D01*
X140971253Y-127299407D01*
X140971683Y-127299987D01*
X140972229Y-127301414D01*
X141019848Y-127396652D01*
X141025130Y-127405044D01*
X141026143Y-127407488D01*
X141028399Y-127410237D01*
X141030291Y-127413242D01*
X141032285Y-127414971D01*
X141038580Y-127422641D01*
X141133818Y-127517881D01*
X141148971Y-127530317D01*
X141152290Y-127531692D01*
X141155006Y-127534047D01*
X141172906Y-127542038D01*
X141315763Y-127589657D01*
X141325435Y-127591856D01*
X141327877Y-127592868D01*
X141331414Y-127593216D01*
X141334878Y-127594004D01*
X141337512Y-127593816D01*
X141347386Y-127594789D01*
X141442624Y-127594789D01*
X141452497Y-127593816D01*
X141455131Y-127594004D01*
X141458594Y-127593216D01*
X141462133Y-127592868D01*
X141464575Y-127591856D01*
X141474247Y-127589657D01*
X141617103Y-127542038D01*
X141635004Y-127534047D01*
X141637719Y-127531692D01*
X141641039Y-127530317D01*
X141656192Y-127517880D01*
X141703811Y-127470260D01*
X141716248Y-127455107D01*
X141731179Y-127419058D01*
X141731178Y-127380040D01*
X141716247Y-127343992D01*
X141688656Y-127316402D01*
X141652608Y-127301471D01*
X141613590Y-127301472D01*
X141577542Y-127316403D01*
X141562388Y-127328840D01*
X141531461Y-127359767D01*
X141426397Y-127394789D01*
X141363612Y-127394789D01*
X141258547Y-127359767D01*
X141191477Y-127292697D01*
X141156023Y-127221788D01*
X141114053Y-127053907D01*
X141114053Y-126935670D01*
X141156023Y-126767788D01*
X141191476Y-126696882D01*
X141258548Y-126629810D01*
X141363612Y-126594789D01*
X141426397Y-126594789D01*
X141531462Y-126629810D01*
X141562389Y-126660737D01*
X141577542Y-126673174D01*
X141613591Y-126688105D01*
X141652609Y-126688105D01*
X141688657Y-126673174D01*
X141716247Y-126645584D01*
X141731178Y-126609536D01*
X141731178Y-126570518D01*
X141716247Y-126534469D01*
X141703810Y-126519316D01*
X141659775Y-126475280D01*
X142630260Y-126475280D01*
X142630260Y-126514298D01*
X142645192Y-126550346D01*
X142672782Y-126577936D01*
X142708830Y-126592868D01*
X142728339Y-126594789D01*
X143127009Y-126594789D01*
X142938795Y-126809891D01*
X142932765Y-126818324D01*
X142930906Y-126820184D01*
X142930175Y-126821947D01*
X142927394Y-126825838D01*
X142922189Y-126841226D01*
X142915974Y-126856232D01*
X142915974Y-126859605D01*
X142914894Y-126862799D01*
X142915974Y-126879001D01*
X142915974Y-126895250D01*
X142917264Y-126898365D01*
X142917489Y-126901731D01*
X142924689Y-126916291D01*
X142930906Y-126931298D01*
X142933290Y-126933682D01*
X142934786Y-126936706D01*
X142947011Y-126947403D01*
X142958496Y-126958888D01*
X142961610Y-126960178D01*
X142964150Y-126962400D01*
X142979538Y-126967604D01*
X142994544Y-126973820D01*
X142999303Y-126974288D01*
X143001111Y-126974900D01*
X143003735Y-126974725D01*
X143014053Y-126975741D01*
X143133303Y-126975741D01*
X143192912Y-127005546D01*
X143217581Y-127030214D01*
X143247386Y-127089824D01*
X143247386Y-127280705D01*
X143217581Y-127340313D01*
X143192912Y-127364983D01*
X143133303Y-127394789D01*
X142894803Y-127394789D01*
X142835193Y-127364984D01*
X142799050Y-127328840D01*
X142783897Y-127316403D01*
X142747849Y-127301472D01*
X142708831Y-127301471D01*
X142672782Y-127316402D01*
X142645192Y-127343992D01*
X142630261Y-127380040D01*
X142630260Y-127419058D01*
X142645191Y-127455107D01*
X142657628Y-127470260D01*
X142705246Y-127517880D01*
X142712914Y-127524173D01*
X142714646Y-127526170D01*
X142717654Y-127528063D01*
X142720400Y-127530317D01*
X142722840Y-127531327D01*
X142731237Y-127536613D01*
X142826474Y-127584232D01*
X142844783Y-127591238D01*
X142848366Y-127591492D01*
X142851687Y-127592868D01*
X142871196Y-127594789D01*
X143156910Y-127594789D01*
X143176419Y-127592868D01*
X143179739Y-127591492D01*
X143183323Y-127591238D01*
X143201631Y-127584232D01*
X143296869Y-127536613D01*
X143305264Y-127531328D01*
X143307706Y-127530317D01*
X143310453Y-127528061D01*
X143313459Y-127526170D01*
X143315189Y-127524175D01*
X143322859Y-127517880D01*
X143370478Y-127470260D01*
X143376770Y-127462593D01*
X143378767Y-127460862D01*
X143380660Y-127457854D01*
X143382915Y-127455107D01*
X143383926Y-127452665D01*
X143389210Y-127444271D01*
X143436829Y-127349034D01*
X143443835Y-127330725D01*
X143444089Y-127327141D01*
X143445465Y-127323821D01*
X143447386Y-127304312D01*
X143447386Y-127066217D01*
X143445465Y-127046708D01*
X143444089Y-127043387D01*
X143443835Y-127039804D01*
X143436829Y-127021495D01*
X143389210Y-126926258D01*
X143383924Y-126917861D01*
X143382914Y-126915421D01*
X143380660Y-126912675D01*
X143378767Y-126909667D01*
X143376769Y-126907934D01*
X143370477Y-126900268D01*
X143322859Y-126852649D01*
X143315188Y-126846354D01*
X143313459Y-126844360D01*
X143310451Y-126842466D01*
X143307705Y-126840213D01*
X143305265Y-126839202D01*
X143296869Y-126833917D01*
X143218021Y-126794493D01*
X143422644Y-126560639D01*
X143428673Y-126552205D01*
X143430533Y-126550346D01*
X143431263Y-126548582D01*
X143434045Y-126544692D01*
X143439249Y-126529303D01*
X143445465Y-126514298D01*
X143445465Y-126510924D01*
X143446545Y-126507731D01*
X143446516Y-126507296D01*
X143533886Y-126507296D01*
X143538233Y-126526412D01*
X143871566Y-127526411D01*
X143879557Y-127544312D01*
X143884240Y-127549711D01*
X143887435Y-127556101D01*
X143896906Y-127564316D01*
X143905122Y-127573788D01*
X143911510Y-127576982D01*
X143916911Y-127581666D01*
X143928812Y-127585633D01*
X143940021Y-127591237D01*
X143947145Y-127591743D01*
X143953927Y-127594004D01*
X143966436Y-127593114D01*
X143978941Y-127594004D01*
X143985719Y-127591744D01*
X143992847Y-127591238D01*
X144004063Y-127585629D01*
X144015957Y-127581665D01*
X144021354Y-127576984D01*
X144027746Y-127573788D01*
X144035964Y-127564312D01*
X144045433Y-127556100D01*
X144048626Y-127549713D01*
X144053311Y-127544312D01*
X144061302Y-127526412D01*
X144394635Y-126526412D01*
X144398982Y-126507297D01*
X144396707Y-126475280D01*
X144439784Y-126475280D01*
X144439784Y-126514298D01*
X144454716Y-126550346D01*
X144482306Y-126577936D01*
X144518354Y-126592868D01*
X144537863Y-126594789D01*
X144936533Y-126594789D01*
X144748319Y-126809891D01*
X144742289Y-126818324D01*
X144740430Y-126820184D01*
X144739699Y-126821947D01*
X144736918Y-126825838D01*
X144731713Y-126841226D01*
X144725498Y-126856232D01*
X144725498Y-126859605D01*
X144724418Y-126862799D01*
X144725498Y-126879001D01*
X144725498Y-126895250D01*
X144726788Y-126898365D01*
X144727013Y-126901731D01*
X144734213Y-126916291D01*
X144740430Y-126931298D01*
X144742814Y-126933682D01*
X144744310Y-126936706D01*
X144756535Y-126947403D01*
X144768020Y-126958888D01*
X144771134Y-126960178D01*
X144773674Y-126962400D01*
X144789062Y-126967604D01*
X144804068Y-126973820D01*
X144808827Y-126974288D01*
X144810635Y-126974900D01*
X144813259Y-126974725D01*
X144823577Y-126975741D01*
X144942827Y-126975741D01*
X145002436Y-127005546D01*
X145027105Y-127030214D01*
X145056910Y-127089824D01*
X145056910Y-127280705D01*
X145027105Y-127340313D01*
X145002436Y-127364983D01*
X144942827Y-127394789D01*
X144704327Y-127394789D01*
X144644717Y-127364984D01*
X144608574Y-127328840D01*
X144593421Y-127316403D01*
X144557373Y-127301472D01*
X144518355Y-127301471D01*
X144482306Y-127316402D01*
X144454716Y-127343992D01*
X144439785Y-127380040D01*
X144439784Y-127419058D01*
X144454715Y-127455107D01*
X144467152Y-127470260D01*
X144514770Y-127517880D01*
X144522438Y-127524173D01*
X144524170Y-127526170D01*
X144527178Y-127528063D01*
X144529924Y-127530317D01*
X144532364Y-127531327D01*
X144540761Y-127536613D01*
X144635998Y-127584232D01*
X144654307Y-127591238D01*
X144657890Y-127591492D01*
X144661211Y-127592868D01*
X144680720Y-127594789D01*
X144966434Y-127594789D01*
X144985943Y-127592868D01*
X144989263Y-127591492D01*
X144992847Y-127591238D01*
X145011155Y-127584232D01*
X145106393Y-127536613D01*
X145114788Y-127531328D01*
X145117230Y-127530317D01*
X145119977Y-127528061D01*
X145122983Y-127526170D01*
X145124713Y-127524175D01*
X145132383Y-127517880D01*
X145180002Y-127470260D01*
X145186294Y-127462593D01*
X145188291Y-127460862D01*
X145190184Y-127457854D01*
X145192439Y-127455107D01*
X145193450Y-127452665D01*
X145198734Y-127444271D01*
X145246353Y-127349034D01*
X145253359Y-127330725D01*
X145253613Y-127327141D01*
X145254989Y-127323821D01*
X145256910Y-127304312D01*
X145256910Y-127066217D01*
X145254989Y-127046708D01*
X145253613Y-127043387D01*
X145253359Y-127039804D01*
X145246353Y-127021495D01*
X145198734Y-126926258D01*
X145193448Y-126917861D01*
X145192438Y-126915421D01*
X145190184Y-126912675D01*
X145188291Y-126909667D01*
X145186293Y-126907934D01*
X145180001Y-126900268D01*
X145132383Y-126852649D01*
X145124712Y-126846354D01*
X145122983Y-126844360D01*
X145119975Y-126842466D01*
X145117229Y-126840213D01*
X145114789Y-126839202D01*
X145106393Y-126833917D01*
X145027545Y-126794493D01*
X145232168Y-126560639D01*
X145238197Y-126552205D01*
X145240057Y-126550346D01*
X145240787Y-126548582D01*
X145243569Y-126544692D01*
X145248773Y-126529303D01*
X145254989Y-126514298D01*
X145254989Y-126510924D01*
X145256069Y-126507731D01*
X145254989Y-126491528D01*
X145254989Y-126475280D01*
X145253698Y-126472164D01*
X145253474Y-126468799D01*
X145246271Y-126454233D01*
X145240057Y-126439232D01*
X145237673Y-126436848D01*
X145236178Y-126433824D01*
X145223944Y-126423119D01*
X145212467Y-126411642D01*
X145209353Y-126410352D01*
X145206814Y-126408130D01*
X145191422Y-126402924D01*
X145176419Y-126396710D01*
X145171659Y-126396241D01*
X145169852Y-126395630D01*
X145167227Y-126395804D01*
X145156910Y-126394789D01*
X144537863Y-126394789D01*
X144518354Y-126396710D01*
X144482306Y-126411642D01*
X144454716Y-126439232D01*
X144439784Y-126475280D01*
X144396707Y-126475280D01*
X144396216Y-126468377D01*
X144378766Y-126433478D01*
X144349290Y-126407913D01*
X144312274Y-126395574D01*
X144273354Y-126398341D01*
X144238455Y-126415790D01*
X144212890Y-126445266D01*
X144204899Y-126463167D01*
X143966434Y-127178561D01*
X143727969Y-126463166D01*
X143719978Y-126445266D01*
X143694413Y-126415790D01*
X143659514Y-126398340D01*
X143620594Y-126395574D01*
X143583578Y-126407912D01*
X143554102Y-126433477D01*
X143536652Y-126468376D01*
X143533886Y-126507296D01*
X143446516Y-126507296D01*
X143445465Y-126491528D01*
X143445465Y-126475280D01*
X143444174Y-126472164D01*
X143443950Y-126468799D01*
X143436747Y-126454233D01*
X143430533Y-126439232D01*
X143428149Y-126436848D01*
X143426654Y-126433824D01*
X143414420Y-126423119D01*
X143402943Y-126411642D01*
X143399829Y-126410352D01*
X143397290Y-126408130D01*
X143381898Y-126402924D01*
X143366895Y-126396710D01*
X143362135Y-126396241D01*
X143360328Y-126395630D01*
X143357703Y-126395804D01*
X143347386Y-126394789D01*
X142728339Y-126394789D01*
X142708830Y-126396710D01*
X142672782Y-126411642D01*
X142645192Y-126439232D01*
X142630260Y-126475280D01*
X141659775Y-126475280D01*
X141656192Y-126471697D01*
X141641038Y-126459261D01*
X141637719Y-126457886D01*
X141635004Y-126455531D01*
X141617103Y-126447540D01*
X141474247Y-126399921D01*
X141464575Y-126397721D01*
X141462133Y-126396710D01*
X141458594Y-126396361D01*
X141455131Y-126395574D01*
X141452497Y-126395761D01*
X141442624Y-126394789D01*
X141347386Y-126394789D01*
X141337512Y-126395761D01*
X141334878Y-126395574D01*
X141331414Y-126396361D01*
X141327877Y-126396710D01*
X141325435Y-126397721D01*
X141315763Y-126399921D01*
X141172906Y-126447540D01*
X141155006Y-126455531D01*
X141152290Y-126457886D01*
X141148972Y-126459261D01*
X141133818Y-126471697D01*
X141038580Y-126566935D01*
X141032285Y-126574605D01*
X141030291Y-126576335D01*
X141028397Y-126579342D01*
X141026144Y-126582089D01*
X141025133Y-126584528D01*
X141019848Y-126592925D01*
X140972229Y-126688163D01*
X140971683Y-126689589D01*
X140971253Y-126690170D01*
X140968331Y-126698346D01*
X140965223Y-126706471D01*
X140965171Y-126707193D01*
X140964658Y-126708631D01*
X140917039Y-126899106D01*
X140916538Y-126902487D01*
X140915974Y-126903851D01*
X140915250Y-126911201D01*
X140914171Y-126918499D01*
X140914388Y-126919957D01*
X140914053Y-126923360D01*
X140690890Y-126923360D01*
X140727968Y-126812126D01*
X140730167Y-126802453D01*
X140731179Y-126800012D01*
X140731527Y-126796474D01*
X140732315Y-126793011D01*
X140732127Y-126790376D01*
X140733100Y-126780503D01*
X140733100Y-126685265D01*
X140731179Y-126665756D01*
X140729803Y-126662435D01*
X140729549Y-126658852D01*
X140722543Y-126640543D01*
X140674924Y-126545306D01*
X140669638Y-126536909D01*
X140668628Y-126534469D01*
X140666374Y-126531723D01*
X140664481Y-126528715D01*
X140662483Y-126526982D01*
X140656191Y-126519316D01*
X140608573Y-126471697D01*
X140600902Y-126465402D01*
X140599173Y-126463408D01*
X140596165Y-126461514D01*
X140593419Y-126459261D01*
X140590979Y-126458250D01*
X140582583Y-126452965D01*
X140487345Y-126405346D01*
X140469037Y-126398340D01*
X140465453Y-126398085D01*
X140462133Y-126396710D01*
X140442624Y-126394789D01*
X140204529Y-126394789D01*
X140185020Y-126396710D01*
X140181699Y-126398085D01*
X140178116Y-126398340D01*
X140159807Y-126405346D01*
X140064570Y-126452965D01*
X140056173Y-126458250D01*
X140053733Y-126459261D01*
X140050987Y-126461514D01*
X140047979Y-126463408D01*
X140046246Y-126465405D01*
X140038580Y-126471698D01*
X139990961Y-126519316D01*
X139978525Y-126534470D01*
X139963593Y-126570518D01*
X139963593Y-126609536D01*
X139978525Y-126645584D01*
X140006115Y-126673174D01*
X140042163Y-126688106D01*
X140081181Y-126688106D01*
X140117229Y-126673174D01*
X140132383Y-126660738D01*
X140168526Y-126624593D01*
X140228136Y-126594789D01*
X140419017Y-126594789D01*
X140478626Y-126624594D01*
X140503295Y-126649262D01*
X140533100Y-126708872D01*
X140533100Y-126764276D01*
X140498078Y-126869340D01*
X139943342Y-127424078D01*
X139930906Y-127439232D01*
X139915974Y-127475280D01*
X139733101Y-127475280D01*
X139733101Y-126494789D01*
X139731180Y-126475280D01*
X139716248Y-126439232D01*
X139688658Y-126411642D01*
X139652610Y-126396710D01*
X139613592Y-126396710D01*
X139577544Y-126411642D01*
X139549954Y-126439232D01*
X139535022Y-126475280D01*
X139533101Y-126494789D01*
X139421990Y-126494789D01*
X139421990Y-126283678D01*
X145368021Y-126283678D01*
X145368021Y-127705900D01*
G37*
D13*
X183626959Y-131790123D02*
X183571926Y-131845157D01*
X183571926Y-131845157D02*
X183406826Y-131900190D01*
X183406826Y-131900190D02*
X183296759Y-131900190D01*
X183296759Y-131900190D02*
X183131659Y-131845157D01*
X183131659Y-131845157D02*
X183021593Y-131735090D01*
X183021593Y-131735090D02*
X182966559Y-131625023D01*
X182966559Y-131625023D02*
X182911526Y-131404890D01*
X182911526Y-131404890D02*
X182911526Y-131239790D01*
X182911526Y-131239790D02*
X182966559Y-131019657D01*
X182966559Y-131019657D02*
X183021593Y-130909590D01*
X183021593Y-130909590D02*
X183131659Y-130799523D01*
X183131659Y-130799523D02*
X183296759Y-130744490D01*
X183296759Y-130744490D02*
X183406826Y-130744490D01*
X183406826Y-130744490D02*
X183571926Y-130799523D01*
X183571926Y-130799523D02*
X183626959Y-130854557D01*
X184617559Y-131129723D02*
X184617559Y-131900190D01*
X184342393Y-130689457D02*
X184067226Y-131514957D01*
X184067226Y-131514957D02*
X184782659Y-131514957D01*
X202366559Y-151600190D02*
X202366559Y-150444490D01*
X202366559Y-150444490D02*
X202641726Y-150444490D01*
X202641726Y-150444490D02*
X202806826Y-150499523D01*
X202806826Y-150499523D02*
X202916893Y-150609590D01*
X202916893Y-150609590D02*
X202971926Y-150719657D01*
X202971926Y-150719657D02*
X203026959Y-150939790D01*
X203026959Y-150939790D02*
X203026959Y-151104890D01*
X203026959Y-151104890D02*
X202971926Y-151325023D01*
X202971926Y-151325023D02*
X202916893Y-151435090D01*
X202916893Y-151435090D02*
X202806826Y-151545157D01*
X202806826Y-151545157D02*
X202641726Y-151600190D01*
X202641726Y-151600190D02*
X202366559Y-151600190D01*
X204127626Y-151600190D02*
X203467226Y-151600190D01*
X203797426Y-151600190D02*
X203797426Y-150444490D01*
X203797426Y-150444490D02*
X203687359Y-150609590D01*
X203687359Y-150609590D02*
X203577293Y-150719657D01*
X203577293Y-150719657D02*
X203467226Y-150774690D01*
X205766559Y-151600190D02*
X205766559Y-150444490D01*
X205766559Y-150444490D02*
X206041726Y-150444490D01*
X206041726Y-150444490D02*
X206206826Y-150499523D01*
X206206826Y-150499523D02*
X206316893Y-150609590D01*
X206316893Y-150609590D02*
X206371926Y-150719657D01*
X206371926Y-150719657D02*
X206426959Y-150939790D01*
X206426959Y-150939790D02*
X206426959Y-151104890D01*
X206426959Y-151104890D02*
X206371926Y-151325023D01*
X206371926Y-151325023D02*
X206316893Y-151435090D01*
X206316893Y-151435090D02*
X206206826Y-151545157D01*
X206206826Y-151545157D02*
X206041726Y-151600190D01*
X206041726Y-151600190D02*
X205766559Y-151600190D01*
X207417559Y-150829723D02*
X207417559Y-151600190D01*
X207142393Y-150389457D02*
X206867226Y-151214957D01*
X206867226Y-151214957D02*
X207582659Y-151214957D01*
X222426959Y-136100190D02*
X222041726Y-135549857D01*
X221766559Y-136100190D02*
X221766559Y-134944490D01*
X221766559Y-134944490D02*
X222206826Y-134944490D01*
X222206826Y-134944490D02*
X222316893Y-134999523D01*
X222316893Y-134999523D02*
X222371926Y-135054557D01*
X222371926Y-135054557D02*
X222426959Y-135164623D01*
X222426959Y-135164623D02*
X222426959Y-135329723D01*
X222426959Y-135329723D02*
X222371926Y-135439790D01*
X222371926Y-135439790D02*
X222316893Y-135494823D01*
X222316893Y-135494823D02*
X222206826Y-135549857D01*
X222206826Y-135549857D02*
X221766559Y-135549857D01*
X223417559Y-135329723D02*
X223417559Y-136100190D01*
X223142393Y-134889457D02*
X222867226Y-135714957D01*
X222867226Y-135714957D02*
X223582659Y-135714957D01*
X215726959Y-123900190D02*
X215341726Y-123349857D01*
X215066559Y-123900190D02*
X215066559Y-122744490D01*
X215066559Y-122744490D02*
X215506826Y-122744490D01*
X215506826Y-122744490D02*
X215616893Y-122799523D01*
X215616893Y-122799523D02*
X215671926Y-122854557D01*
X215671926Y-122854557D02*
X215726959Y-122964623D01*
X215726959Y-122964623D02*
X215726959Y-123129723D01*
X215726959Y-123129723D02*
X215671926Y-123239790D01*
X215671926Y-123239790D02*
X215616893Y-123294823D01*
X215616893Y-123294823D02*
X215506826Y-123349857D01*
X215506826Y-123349857D02*
X215066559Y-123349857D01*
X216167226Y-122854557D02*
X216222259Y-122799523D01*
X216222259Y-122799523D02*
X216332326Y-122744490D01*
X216332326Y-122744490D02*
X216607493Y-122744490D01*
X216607493Y-122744490D02*
X216717559Y-122799523D01*
X216717559Y-122799523D02*
X216772593Y-122854557D01*
X216772593Y-122854557D02*
X216827626Y-122964623D01*
X216827626Y-122964623D02*
X216827626Y-123074690D01*
X216827626Y-123074690D02*
X216772593Y-123239790D01*
X216772593Y-123239790D02*
X216112193Y-123900190D01*
X216112193Y-123900190D02*
X216827626Y-123900190D01*
D14*
X150097862Y-137987389D02*
X150097862Y-138701674D01*
X150097862Y-138701674D02*
X150050243Y-138844531D01*
X150050243Y-138844531D02*
X149955005Y-138939770D01*
X149955005Y-138939770D02*
X149812148Y-138987389D01*
X149812148Y-138987389D02*
X149716910Y-138987389D01*
X151097862Y-138987389D02*
X150526434Y-138987389D01*
X150812148Y-138987389D02*
X150812148Y-137987389D01*
X150812148Y-137987389D02*
X150716910Y-138130246D01*
X150716910Y-138130246D02*
X150621672Y-138225484D01*
X150621672Y-138225484D02*
X150526434Y-138273103D01*
D15*
G36*
X144986283Y-137305900D02*
G01*
X139898180Y-137305900D01*
X139898180Y-136094789D01*
X140009291Y-136094789D01*
X140009291Y-137094789D01*
X140011212Y-137114298D01*
X140026144Y-137150346D01*
X140053734Y-137177936D01*
X140089782Y-137192868D01*
X140128800Y-137192868D01*
X140164848Y-137177936D01*
X140192438Y-137150346D01*
X140207370Y-137114298D01*
X140209291Y-137094789D01*
X140209291Y-137075280D01*
X140392164Y-137075280D01*
X140392164Y-137114298D01*
X140407096Y-137150346D01*
X140434686Y-137177936D01*
X140470734Y-137192868D01*
X140490243Y-137194789D01*
X141109290Y-137194789D01*
X141128799Y-137192868D01*
X141164847Y-137177936D01*
X141192437Y-137150346D01*
X141207369Y-137114298D01*
X141207369Y-137075280D01*
X141192437Y-137039232D01*
X141164847Y-137011642D01*
X141128799Y-136996710D01*
X141109290Y-136994789D01*
X140731665Y-136994789D01*
X141132382Y-136594071D01*
X141144818Y-136578917D01*
X141146192Y-136575598D01*
X141148548Y-136572883D01*
X141156539Y-136554983D01*
X141167080Y-136523360D01*
X141390243Y-136523360D01*
X141390243Y-136666217D01*
X141390578Y-136669619D01*
X141390361Y-136671078D01*
X141391440Y-136678375D01*
X141392164Y-136685726D01*
X141392728Y-136687089D01*
X141393229Y-136690471D01*
X141440848Y-136880946D01*
X141441361Y-136882383D01*
X141441413Y-136883106D01*
X141444521Y-136891230D01*
X141447443Y-136899407D01*
X141447873Y-136899987D01*
X141448419Y-136901414D01*
X141496038Y-136996652D01*
X141501320Y-137005044D01*
X141502333Y-137007488D01*
X141504589Y-137010237D01*
X141506481Y-137013242D01*
X141508475Y-137014971D01*
X141514770Y-137022641D01*
X141610008Y-137117881D01*
X141625161Y-137130317D01*
X141628480Y-137131692D01*
X141631196Y-137134047D01*
X141649096Y-137142038D01*
X141791953Y-137189657D01*
X141801625Y-137191856D01*
X141804067Y-137192868D01*
X141807604Y-137193216D01*
X141811068Y-137194004D01*
X141813702Y-137193816D01*
X141823576Y-137194789D01*
X141918814Y-137194789D01*
X141928687Y-137193816D01*
X141931321Y-137194004D01*
X141934784Y-137193216D01*
X141938323Y-137192868D01*
X141940765Y-137191856D01*
X141950437Y-137189657D01*
X142093293Y-137142038D01*
X142111194Y-137134047D01*
X142113909Y-137131692D01*
X142117229Y-137130317D01*
X142132382Y-137117880D01*
X142180001Y-137070260D01*
X142192438Y-137055107D01*
X142207369Y-137019058D01*
X142207368Y-136980040D01*
X142192437Y-136943992D01*
X142164846Y-136916402D01*
X142128798Y-136901471D01*
X142089780Y-136901472D01*
X142053732Y-136916403D01*
X142038578Y-136928840D01*
X142007651Y-136959767D01*
X141902587Y-136994789D01*
X141839802Y-136994789D01*
X141734737Y-136959767D01*
X141667667Y-136892697D01*
X141632213Y-136821788D01*
X141590243Y-136653907D01*
X141590243Y-136580632D01*
X143152615Y-136580632D01*
X143154069Y-136585450D01*
X143154069Y-136590488D01*
X143159665Y-136603997D01*
X143163886Y-136617987D01*
X143167073Y-136621883D01*
X143169001Y-136626536D01*
X143179337Y-136636872D01*
X143188593Y-136648185D01*
X143193030Y-136650565D01*
X143196591Y-136654126D01*
X143210096Y-136659720D01*
X143222977Y-136666630D01*
X143227986Y-136667130D01*
X143232639Y-136669058D01*
X143247260Y-136669058D01*
X143261801Y-136670512D01*
X143266620Y-136669058D01*
X143271657Y-136669058D01*
X143285166Y-136663461D01*
X143299156Y-136659241D01*
X143303052Y-136656053D01*
X143307705Y-136654126D01*
X143322859Y-136641690D01*
X143359002Y-136605545D01*
X143418612Y-136575741D01*
X143609493Y-136575741D01*
X143669102Y-136605546D01*
X143693771Y-136630214D01*
X143723576Y-136689824D01*
X143723576Y-136880705D01*
X143693771Y-136940313D01*
X143669102Y-136964983D01*
X143609493Y-136994789D01*
X143418612Y-136994789D01*
X143359002Y-136964984D01*
X143322859Y-136928840D01*
X143307706Y-136916403D01*
X143271658Y-136901472D01*
X143232640Y-136901471D01*
X143196591Y-136916402D01*
X143169001Y-136943992D01*
X143154070Y-136980040D01*
X143154069Y-137019058D01*
X143169000Y-137055107D01*
X143181437Y-137070260D01*
X143229055Y-137117880D01*
X143236723Y-137124173D01*
X143238455Y-137126170D01*
X143241463Y-137128063D01*
X143244209Y-137130317D01*
X143246649Y-137131327D01*
X143255046Y-137136613D01*
X143350283Y-137184232D01*
X143368592Y-137191238D01*
X143372175Y-137191492D01*
X143375496Y-137192868D01*
X143395005Y-137194789D01*
X143633100Y-137194789D01*
X143652609Y-137192868D01*
X143655929Y-137191492D01*
X143659513Y-137191238D01*
X143677821Y-137184232D01*
X143773059Y-137136613D01*
X143781454Y-137131328D01*
X143783896Y-137130317D01*
X143786643Y-137128061D01*
X143789649Y-137126170D01*
X143791379Y-137124175D01*
X143799049Y-137117880D01*
X143846668Y-137070260D01*
X143852960Y-137062593D01*
X143854957Y-137060862D01*
X143856850Y-137057854D01*
X143859105Y-137055107D01*
X143860116Y-137052665D01*
X143865400Y-137044271D01*
X143913019Y-136949034D01*
X143920025Y-136930725D01*
X143920279Y-136927141D01*
X143921655Y-136923821D01*
X143923576Y-136904312D01*
X143923576Y-136666217D01*
X143921655Y-136646708D01*
X143920279Y-136643387D01*
X143920025Y-136639804D01*
X143913019Y-136621495D01*
X143865400Y-136526258D01*
X143860114Y-136517861D01*
X143859104Y-136515421D01*
X143856850Y-136512675D01*
X143854957Y-136509667D01*
X143852959Y-136507934D01*
X143846667Y-136500268D01*
X143799049Y-136452649D01*
X143791378Y-136446354D01*
X143789649Y-136444360D01*
X143786641Y-136442466D01*
X143783895Y-136440213D01*
X143781455Y-136439202D01*
X143773059Y-136433917D01*
X143677821Y-136386298D01*
X143659513Y-136379292D01*
X143655929Y-136379037D01*
X143652609Y-136377662D01*
X143633100Y-136375741D01*
X143395005Y-136375741D01*
X143375496Y-136377662D01*
X143372175Y-136379037D01*
X143371838Y-136379061D01*
X143390266Y-136194789D01*
X143775957Y-136194789D01*
X143795466Y-136192868D01*
X143831514Y-136177936D01*
X143859104Y-136150346D01*
X143874036Y-136114298D01*
X143874036Y-136107296D01*
X144010076Y-136107296D01*
X144014423Y-136126412D01*
X144347756Y-137126411D01*
X144355747Y-137144312D01*
X144360430Y-137149711D01*
X144363625Y-137156101D01*
X144373096Y-137164316D01*
X144381312Y-137173788D01*
X144387700Y-137176982D01*
X144393101Y-137181666D01*
X144405002Y-137185633D01*
X144416211Y-137191237D01*
X144423335Y-137191743D01*
X144430117Y-137194004D01*
X144442626Y-137193114D01*
X144455131Y-137194004D01*
X144461909Y-137191744D01*
X144469037Y-137191238D01*
X144480253Y-137185629D01*
X144492147Y-137181665D01*
X144497544Y-137176984D01*
X144503936Y-137173788D01*
X144512154Y-137164312D01*
X144521623Y-137156100D01*
X144524816Y-137149713D01*
X144529501Y-137144312D01*
X144537492Y-137126412D01*
X144870825Y-136126412D01*
X144875172Y-136107297D01*
X144872406Y-136068377D01*
X144854956Y-136033478D01*
X144825480Y-136007913D01*
X144788464Y-135995574D01*
X144749544Y-135998341D01*
X144714645Y-136015790D01*
X144689080Y-136045266D01*
X144681089Y-136063167D01*
X144442624Y-136778561D01*
X144204159Y-136063166D01*
X144196168Y-136045266D01*
X144170603Y-136015790D01*
X144135704Y-135998340D01*
X144096784Y-135995574D01*
X144059768Y-136007912D01*
X144030292Y-136033477D01*
X144012842Y-136068376D01*
X144010076Y-136107296D01*
X143874036Y-136107296D01*
X143874036Y-136075280D01*
X143859104Y-136039232D01*
X143831514Y-136011642D01*
X143795466Y-135996710D01*
X143775957Y-135994789D01*
X143299767Y-135994789D01*
X143292550Y-135995499D01*
X143290114Y-135995256D01*
X143287735Y-135995973D01*
X143280258Y-135996710D01*
X143266748Y-136002306D01*
X143252759Y-136006527D01*
X143248862Y-136009714D01*
X143244210Y-136011642D01*
X143233873Y-136021978D01*
X143222561Y-136031234D01*
X143220180Y-136035671D01*
X143216620Y-136039232D01*
X143211025Y-136052737D01*
X143204116Y-136065618D01*
X143202639Y-136072982D01*
X143201688Y-136075280D01*
X143201688Y-136077730D01*
X143200263Y-136084839D01*
X143152644Y-136561029D01*
X143152615Y-136580632D01*
X141590243Y-136580632D01*
X141590243Y-136535670D01*
X141632213Y-136367788D01*
X141667666Y-136296882D01*
X141734738Y-136229810D01*
X141839802Y-136194789D01*
X141902587Y-136194789D01*
X142007652Y-136229810D01*
X142038579Y-136260737D01*
X142053732Y-136273174D01*
X142089781Y-136288105D01*
X142128799Y-136288105D01*
X142164847Y-136273174D01*
X142192437Y-136245584D01*
X142207368Y-136209536D01*
X142207368Y-136170518D01*
X142192437Y-136134469D01*
X142180000Y-136119316D01*
X142132382Y-136071697D01*
X142117228Y-136059261D01*
X142113909Y-136057886D01*
X142111194Y-136055531D01*
X142093293Y-136047540D01*
X141950437Y-135999921D01*
X141940765Y-135997721D01*
X141938323Y-135996710D01*
X141934784Y-135996361D01*
X141931321Y-135995574D01*
X141928687Y-135995761D01*
X141918814Y-135994789D01*
X141823576Y-135994789D01*
X141813702Y-135995761D01*
X141811068Y-135995574D01*
X141807604Y-135996361D01*
X141804067Y-135996710D01*
X141801625Y-135997721D01*
X141791953Y-135999921D01*
X141649096Y-136047540D01*
X141631196Y-136055531D01*
X141628480Y-136057886D01*
X141625162Y-136059261D01*
X141610008Y-136071697D01*
X141514770Y-136166935D01*
X141508475Y-136174605D01*
X141506481Y-136176335D01*
X141504587Y-136179342D01*
X141502334Y-136182089D01*
X141501323Y-136184528D01*
X141496038Y-136192925D01*
X141448419Y-136288163D01*
X141447873Y-136289589D01*
X141447443Y-136290170D01*
X141444521Y-136298346D01*
X141441413Y-136306471D01*
X141441361Y-136307193D01*
X141440848Y-136308631D01*
X141393229Y-136499106D01*
X141392728Y-136502487D01*
X141392164Y-136503851D01*
X141391440Y-136511201D01*
X141390361Y-136518499D01*
X141390578Y-136519957D01*
X141390243Y-136523360D01*
X141167080Y-136523360D01*
X141204158Y-136412126D01*
X141206357Y-136402453D01*
X141207369Y-136400012D01*
X141207717Y-136396474D01*
X141208505Y-136393011D01*
X141208317Y-136390376D01*
X141209290Y-136380503D01*
X141209290Y-136285265D01*
X141207369Y-136265756D01*
X141205993Y-136262435D01*
X141205739Y-136258852D01*
X141198733Y-136240543D01*
X141151114Y-136145306D01*
X141145828Y-136136909D01*
X141144818Y-136134469D01*
X141142564Y-136131723D01*
X141140671Y-136128715D01*
X141138673Y-136126982D01*
X141132381Y-136119316D01*
X141084763Y-136071697D01*
X141077092Y-136065402D01*
X141075363Y-136063408D01*
X141072355Y-136061514D01*
X141069609Y-136059261D01*
X141067169Y-136058250D01*
X141058773Y-136052965D01*
X140963535Y-136005346D01*
X140945227Y-135998340D01*
X140941643Y-135998085D01*
X140938323Y-135996710D01*
X140918814Y-135994789D01*
X140680719Y-135994789D01*
X140661210Y-135996710D01*
X140657889Y-135998085D01*
X140654306Y-135998340D01*
X140635997Y-136005346D01*
X140540760Y-136052965D01*
X140532363Y-136058250D01*
X140529923Y-136059261D01*
X140527177Y-136061514D01*
X140524169Y-136063408D01*
X140522436Y-136065405D01*
X140514770Y-136071698D01*
X140467151Y-136119316D01*
X140454715Y-136134470D01*
X140439783Y-136170518D01*
X140439783Y-136209536D01*
X140454715Y-136245584D01*
X140482305Y-136273174D01*
X140518353Y-136288106D01*
X140557371Y-136288106D01*
X140593419Y-136273174D01*
X140608573Y-136260738D01*
X140644716Y-136224593D01*
X140704326Y-136194789D01*
X140895207Y-136194789D01*
X140954816Y-136224594D01*
X140979485Y-136249262D01*
X141009290Y-136308872D01*
X141009290Y-136364276D01*
X140974268Y-136469340D01*
X140419532Y-137024078D01*
X140407096Y-137039232D01*
X140392164Y-137075280D01*
X140209291Y-137075280D01*
X140209291Y-136094789D01*
X140207370Y-136075280D01*
X140192438Y-136039232D01*
X140164848Y-136011642D01*
X140128800Y-135996710D01*
X140089782Y-135996710D01*
X140053734Y-136011642D01*
X140026144Y-136039232D01*
X140011212Y-136075280D01*
X140009291Y-136094789D01*
X139898180Y-136094789D01*
X139898180Y-135883678D01*
X144986283Y-135883678D01*
X144986283Y-137305900D01*
G37*
D14*
X218054291Y-151850008D02*
X217959053Y-151802389D01*
X217959053Y-151802389D02*
X217816196Y-151802389D01*
X217816196Y-151802389D02*
X217673339Y-151850008D01*
X217673339Y-151850008D02*
X217578101Y-151945246D01*
X217578101Y-151945246D02*
X217530482Y-152040484D01*
X217530482Y-152040484D02*
X217482863Y-152230960D01*
X217482863Y-152230960D02*
X217482863Y-152373817D01*
X217482863Y-152373817D02*
X217530482Y-152564293D01*
X217530482Y-152564293D02*
X217578101Y-152659531D01*
X217578101Y-152659531D02*
X217673339Y-152754770D01*
X217673339Y-152754770D02*
X217816196Y-152802389D01*
X217816196Y-152802389D02*
X217911434Y-152802389D01*
X217911434Y-152802389D02*
X218054291Y-152754770D01*
X218054291Y-152754770D02*
X218101910Y-152707150D01*
X218101910Y-152707150D02*
X218101910Y-152373817D01*
X218101910Y-152373817D02*
X217911434Y-152373817D01*
X218530482Y-152802389D02*
X218530482Y-151802389D01*
X218530482Y-151802389D02*
X219101910Y-152802389D01*
X219101910Y-152802389D02*
X219101910Y-151802389D01*
X219578101Y-152802389D02*
X219578101Y-151802389D01*
X219578101Y-151802389D02*
X219816196Y-151802389D01*
X219816196Y-151802389D02*
X219959053Y-151850008D01*
X219959053Y-151850008D02*
X220054291Y-151945246D01*
X220054291Y-151945246D02*
X220101910Y-152040484D01*
X220101910Y-152040484D02*
X220149529Y-152230960D01*
X220149529Y-152230960D02*
X220149529Y-152373817D01*
X220149529Y-152373817D02*
X220101910Y-152564293D01*
X220101910Y-152564293D02*
X220054291Y-152659531D01*
X220054291Y-152659531D02*
X219959053Y-152754770D01*
X219959053Y-152754770D02*
X219816196Y-152802389D01*
X219816196Y-152802389D02*
X219578101Y-152802389D01*
D13*
X177230198Y-137056292D02*
X177175165Y-137111326D01*
X177175165Y-137111326D02*
X177010065Y-137166359D01*
X177010065Y-137166359D02*
X176899998Y-137166359D01*
X176899998Y-137166359D02*
X176734898Y-137111326D01*
X176734898Y-137111326D02*
X176624832Y-137001259D01*
X176624832Y-137001259D02*
X176569798Y-136891192D01*
X176569798Y-136891192D02*
X176514765Y-136671059D01*
X176514765Y-136671059D02*
X176514765Y-136505959D01*
X176514765Y-136505959D02*
X176569798Y-136285826D01*
X176569798Y-136285826D02*
X176624832Y-136175759D01*
X176624832Y-136175759D02*
X176734898Y-136065692D01*
X176734898Y-136065692D02*
X176899998Y-136010659D01*
X176899998Y-136010659D02*
X177010065Y-136010659D01*
X177010065Y-136010659D02*
X177175165Y-136065692D01*
X177175165Y-136065692D02*
X177230198Y-136120726D01*
X178330865Y-137166359D02*
X177670465Y-137166359D01*
X178000665Y-137166359D02*
X178000665Y-136010659D01*
X178000665Y-136010659D02*
X177890598Y-136175759D01*
X177890598Y-136175759D02*
X177780532Y-136285826D01*
X177780532Y-136285826D02*
X177670465Y-136340859D01*
X183526959Y-124290123D02*
X183471926Y-124345157D01*
X183471926Y-124345157D02*
X183306826Y-124400190D01*
X183306826Y-124400190D02*
X183196759Y-124400190D01*
X183196759Y-124400190D02*
X183031659Y-124345157D01*
X183031659Y-124345157D02*
X182921593Y-124235090D01*
X182921593Y-124235090D02*
X182866559Y-124125023D01*
X182866559Y-124125023D02*
X182811526Y-123904890D01*
X182811526Y-123904890D02*
X182811526Y-123739790D01*
X182811526Y-123739790D02*
X182866559Y-123519657D01*
X182866559Y-123519657D02*
X182921593Y-123409590D01*
X182921593Y-123409590D02*
X183031659Y-123299523D01*
X183031659Y-123299523D02*
X183196759Y-123244490D01*
X183196759Y-123244490D02*
X183306826Y-123244490D01*
X183306826Y-123244490D02*
X183471926Y-123299523D01*
X183471926Y-123299523D02*
X183526959Y-123354557D01*
X183912193Y-123244490D02*
X184627626Y-123244490D01*
X184627626Y-123244490D02*
X184242393Y-123684757D01*
X184242393Y-123684757D02*
X184407493Y-123684757D01*
X184407493Y-123684757D02*
X184517559Y-123739790D01*
X184517559Y-123739790D02*
X184572593Y-123794823D01*
X184572593Y-123794823D02*
X184627626Y-123904890D01*
X184627626Y-123904890D02*
X184627626Y-124180057D01*
X184627626Y-124180057D02*
X184572593Y-124290123D01*
X184572593Y-124290123D02*
X184517559Y-124345157D01*
X184517559Y-124345157D02*
X184407493Y-124400190D01*
X184407493Y-124400190D02*
X184077293Y-124400190D01*
X184077293Y-124400190D02*
X183967226Y-124345157D01*
X183967226Y-124345157D02*
X183912193Y-124290123D01*
D16*
%TO.C,L1*%
X215976196Y-128647570D02*
G75*
G02*
X203976196Y-128647570I-6000000J0D01*
G01*
X203976196Y-128647570D02*
G75*
G02*
X215976196Y-128647570I6000000J0D01*
G01*
D17*
%TO.C,R6*%
X158101196Y-137626570D02*
X158101196Y-135848570D01*
X158355196Y-135594570D02*
X158736196Y-135594570D01*
X158355196Y-137880570D02*
X158736196Y-137880570D01*
X158863196Y-135721570D02*
X158736196Y-135594570D01*
X158863196Y-137753570D02*
X158736196Y-137880570D01*
X163689196Y-135721570D02*
X158863196Y-135721570D01*
X163689196Y-135721570D02*
X163816196Y-135594570D01*
X163689196Y-137753570D02*
X158863196Y-137753570D01*
X163689196Y-137753570D02*
X163816196Y-137880570D01*
X164197196Y-135594570D02*
X163816196Y-135594570D01*
X164197196Y-137880570D02*
X163816196Y-137880570D01*
X164451196Y-137626570D02*
X164451196Y-135848570D01*
X158101196Y-135848570D02*
G75*
G02*
X158355196Y-135594570I254000J0D01*
G01*
X158355196Y-137880570D02*
G75*
G02*
X158101196Y-137626570I0J254000D01*
G01*
X164197196Y-135594570D02*
G75*
G02*
X164451196Y-135848570I0J-254000D01*
G01*
X164451196Y-137626570D02*
G75*
G02*
X164197196Y-137880570I-254000J0D01*
G01*
D18*
G36*
X158101196Y-137042370D02*
G01*
X157237596Y-137042370D01*
X157237596Y-136432770D01*
X158101196Y-136432770D01*
X158101196Y-137042370D01*
G37*
G36*
X165314796Y-137042370D02*
G01*
X164451196Y-137042370D01*
X164451196Y-136432770D01*
X165314796Y-136432770D01*
X165314796Y-137042370D01*
G37*
D17*
%TO.C,R1*%
X191973196Y-141326570D02*
X191973196Y-141707570D01*
X191973196Y-147168570D02*
X191973196Y-146787570D01*
X192100196Y-141834570D02*
X191973196Y-141707570D01*
X192100196Y-146660570D02*
X191973196Y-146787570D01*
X192100196Y-146660570D02*
X192100196Y-141834570D01*
X192227196Y-141072570D02*
X194005196Y-141072570D01*
X192227196Y-147422570D02*
X194005196Y-147422570D01*
X194132196Y-141834570D02*
X194259196Y-141707570D01*
X194132196Y-146660570D02*
X194132196Y-141834570D01*
X194132196Y-146660570D02*
X194259196Y-146787570D01*
X194259196Y-141326570D02*
X194259196Y-141707570D01*
X194259196Y-147168570D02*
X194259196Y-146787570D01*
X191973196Y-141326570D02*
G75*
G02*
X192227196Y-141072570I254000J0D01*
G01*
X192227196Y-147422570D02*
G75*
G02*
X191973196Y-147168570I0J254000D01*
G01*
X194005196Y-141072570D02*
G75*
G02*
X194259196Y-141326570I0J-254000D01*
G01*
X194259196Y-147168570D02*
G75*
G02*
X194005196Y-147422570I-254000J0D01*
G01*
D18*
G36*
X193420996Y-141072570D02*
G01*
X192811396Y-141072570D01*
X192811396Y-140208970D01*
X193420996Y-140208970D01*
X193420996Y-141072570D01*
G37*
G36*
X193420996Y-148286170D02*
G01*
X192811396Y-148286170D01*
X192811396Y-147422570D01*
X193420996Y-147422570D01*
X193420996Y-148286170D01*
G37*
D16*
%TO.C,SBM-19/1*%
X214506196Y-139072570D02*
X222126196Y-139072570D01*
X214506196Y-140342570D02*
X222126196Y-140342570D01*
X214506196Y-144152570D02*
X214506196Y-140342570D01*
X214506196Y-144152570D02*
X222126196Y-144152570D01*
X214506196Y-145422570D02*
X214506196Y-139072570D01*
X222126196Y-139072570D02*
X222126196Y-145422570D01*
X222126196Y-145422570D02*
X214506196Y-145422570D01*
D17*
%TO.C,C2*%
X186430196Y-142958570D02*
X186430196Y-149816570D01*
X186684196Y-150070570D02*
X190748196Y-150070570D01*
D19*
X188716196Y-146082770D02*
X188081196Y-146082770D01*
D17*
X188716196Y-146082770D02*
X188716196Y-144863570D01*
D19*
X188716196Y-146717770D02*
X188081196Y-146717770D01*
D17*
X188716196Y-146717770D02*
X188716196Y-147911570D01*
D19*
X189351196Y-146082770D02*
X188716196Y-146082770D01*
X189351196Y-146717770D02*
X188716196Y-146717770D01*
D17*
X190748196Y-142704570D02*
X186684196Y-142704570D01*
X191002196Y-149816570D02*
X191002196Y-142958570D01*
X186430196Y-142958570D02*
G75*
G02*
X186684196Y-142704570I254000J0D01*
G01*
X186684196Y-150070570D02*
G75*
G02*
X186430196Y-149816570I0J254000D01*
G01*
X190748196Y-142704570D02*
G75*
G02*
X191002196Y-142958570I0J-254000D01*
G01*
X191002196Y-149816570D02*
G75*
G02*
X190748196Y-150070570I-254000J0D01*
G01*
%TO.C,R7*%
X158101196Y-138418570D02*
X158101196Y-140196570D01*
X158355196Y-138164570D02*
X158736196Y-138164570D01*
X158355196Y-140450570D02*
X158736196Y-140450570D01*
X158863196Y-138291570D02*
X158736196Y-138164570D01*
X158863196Y-138291570D02*
X163689196Y-138291570D01*
X158863196Y-140323570D02*
X158736196Y-140450570D01*
X158863196Y-140323570D02*
X163689196Y-140323570D01*
X163689196Y-138291570D02*
X163816196Y-138164570D01*
X163689196Y-140323570D02*
X163816196Y-140450570D01*
X164197196Y-138164570D02*
X163816196Y-138164570D01*
X164197196Y-140450570D02*
X163816196Y-140450570D01*
X164451196Y-138418570D02*
X164451196Y-140196570D01*
X158101196Y-138418570D02*
G75*
G02*
X158355196Y-138164570I254000J0D01*
G01*
X158355196Y-140450570D02*
G75*
G02*
X158101196Y-140196570I0J254000D01*
G01*
X164197196Y-138164570D02*
G75*
G02*
X164451196Y-138418570I0J-254000D01*
G01*
X164451196Y-140196570D02*
G75*
G02*
X164197196Y-140450570I-254000J0D01*
G01*
D18*
G36*
X158101196Y-139612370D02*
G01*
X157237596Y-139612370D01*
X157237596Y-139002770D01*
X158101196Y-139002770D01*
X158101196Y-139612370D01*
G37*
G36*
X165314796Y-139612370D02*
G01*
X164451196Y-139612370D01*
X164451196Y-139002770D01*
X165314796Y-139002770D01*
X165314796Y-139612370D01*
G37*
D17*
%TO.C,R5*%
X179573196Y-125506570D02*
X179573196Y-125887570D01*
X179573196Y-131348570D02*
X179573196Y-130967570D01*
X179700196Y-126014570D02*
X179573196Y-125887570D01*
X179700196Y-130840570D02*
X179573196Y-130967570D01*
X179700196Y-130840570D02*
X179700196Y-126014570D01*
X179827196Y-125252570D02*
X181605196Y-125252570D01*
X179827196Y-131602570D02*
X181605196Y-131602570D01*
X181732196Y-126014570D02*
X181859196Y-125887570D01*
X181732196Y-130840570D02*
X181732196Y-126014570D01*
X181732196Y-130840570D02*
X181859196Y-130967570D01*
X181859196Y-125506570D02*
X181859196Y-125887570D01*
X181859196Y-131348570D02*
X181859196Y-130967570D01*
X179573196Y-125506570D02*
G75*
G02*
X179827196Y-125252570I254000J0D01*
G01*
X179827196Y-131602570D02*
G75*
G02*
X179573196Y-131348570I0J254000D01*
G01*
X181605196Y-125252570D02*
G75*
G02*
X181859196Y-125506570I0J-254000D01*
G01*
X181859196Y-131348570D02*
G75*
G02*
X181605196Y-131602570I-254000J0D01*
G01*
D18*
G36*
X181020996Y-125252570D02*
G01*
X180411396Y-125252570D01*
X180411396Y-124388970D01*
X181020996Y-124388970D01*
X181020996Y-125252570D01*
G37*
G36*
X181020996Y-132466170D02*
G01*
X180411396Y-132466170D01*
X180411396Y-131602570D01*
X181020996Y-131602570D01*
X181020996Y-132466170D01*
G37*
D17*
%TO.C,D3*%
X195446196Y-146179570D02*
X195446196Y-142115570D01*
X195446196Y-146179570D02*
X197986196Y-146179570D01*
X196081196Y-145163570D02*
X196716196Y-144147570D01*
X196716196Y-143512570D02*
X196716196Y-144147570D01*
X196716196Y-144147570D02*
X196081196Y-144147570D01*
X196716196Y-144147570D02*
X196716196Y-145671570D01*
X196716196Y-144147570D02*
X197351196Y-145163570D01*
X197351196Y-144147570D02*
X196716196Y-144147570D01*
X197351196Y-145163570D02*
X196081196Y-145163570D01*
X197986196Y-142115570D02*
X195446196Y-142115570D01*
X197986196Y-142115570D02*
X197986196Y-146179570D01*
D18*
G36*
X197986196Y-143004570D02*
G01*
X195446196Y-143004570D01*
X195446196Y-142496570D01*
X197986196Y-142496570D01*
X197986196Y-143004570D01*
G37*
G36*
X197097196Y-142115570D02*
G01*
X196335196Y-142115570D01*
X196335196Y-140210570D01*
X197097196Y-140210570D01*
X197097196Y-142115570D01*
G37*
G36*
X197097196Y-148084570D02*
G01*
X196335196Y-148084570D01*
X196335196Y-146179570D01*
X197097196Y-146179570D01*
X197097196Y-148084570D01*
G37*
D20*
%TO.C,U3*%
X196138196Y-130870570D02*
X199694196Y-130870570D01*
X196138196Y-137424570D02*
X196138196Y-130870570D01*
X199694196Y-130870570D02*
X199694196Y-137424570D01*
X199694196Y-137424570D02*
X196138196Y-137424570D01*
D17*
%TO.C,D2*%
X198846196Y-146279570D02*
X198846196Y-142215570D01*
X198846196Y-146279570D02*
X201386196Y-146279570D01*
X199481196Y-143231570D02*
X200751196Y-143231570D01*
X199481196Y-144247570D02*
X200116196Y-144247570D01*
X200116196Y-144247570D02*
X199481196Y-143231570D01*
X200116196Y-144247570D02*
X200116196Y-142723570D01*
X200116196Y-144247570D02*
X200751196Y-144247570D01*
X200116196Y-144882570D02*
X200116196Y-144247570D01*
X200751196Y-143231570D02*
X200116196Y-144247570D01*
X201386196Y-142215570D02*
X198846196Y-142215570D01*
X201386196Y-142215570D02*
X201386196Y-146279570D01*
D18*
G36*
X200497196Y-142215570D02*
G01*
X199735196Y-142215570D01*
X199735196Y-140310570D01*
X200497196Y-140310570D01*
X200497196Y-142215570D01*
G37*
G36*
X200497196Y-148184570D02*
G01*
X199735196Y-148184570D01*
X199735196Y-146279570D01*
X200497196Y-146279570D01*
X200497196Y-148184570D01*
G37*
G36*
X201386196Y-145898570D02*
G01*
X198846196Y-145898570D01*
X198846196Y-145390570D01*
X201386196Y-145390570D01*
X201386196Y-145898570D01*
G37*
D17*
%TO.C,R3*%
X220073196Y-125546570D02*
X220073196Y-125927570D01*
X220073196Y-131388570D02*
X220073196Y-131007570D01*
X220200196Y-126054570D02*
X220073196Y-125927570D01*
X220200196Y-130880570D02*
X220073196Y-131007570D01*
X220200196Y-130880570D02*
X220200196Y-126054570D01*
X220327196Y-125292570D02*
X222105196Y-125292570D01*
X220327196Y-131642570D02*
X222105196Y-131642570D01*
X222232196Y-126054570D02*
X222359196Y-125927570D01*
X222232196Y-130880570D02*
X222232196Y-126054570D01*
X222232196Y-130880570D02*
X222359196Y-131007570D01*
X222359196Y-125546570D02*
X222359196Y-125927570D01*
X222359196Y-131388570D02*
X222359196Y-131007570D01*
X220073196Y-125546570D02*
G75*
G02*
X220327196Y-125292570I254000J0D01*
G01*
X220327196Y-131642570D02*
G75*
G02*
X220073196Y-131388570I0J254000D01*
G01*
X222105196Y-125292570D02*
G75*
G02*
X222359196Y-125546570I0J-254000D01*
G01*
X222359196Y-131388570D02*
G75*
G02*
X222105196Y-131642570I-254000J0D01*
G01*
D18*
G36*
X221520996Y-125292570D02*
G01*
X220911396Y-125292570D01*
X220911396Y-124428970D01*
X221520996Y-124428970D01*
X221520996Y-125292570D01*
G37*
G36*
X221520996Y-132506170D02*
G01*
X220911396Y-132506170D01*
X220911396Y-131642570D01*
X221520996Y-131642570D01*
X221520996Y-132506170D01*
G37*
D17*
%TO.C,D5*%
X208846196Y-146179570D02*
X208846196Y-142115570D01*
X208846196Y-146179570D02*
X211386196Y-146179570D01*
X209481196Y-145163570D02*
X210116196Y-144147570D01*
X210116196Y-143512570D02*
X210116196Y-144147570D01*
X210116196Y-144147570D02*
X209481196Y-144147570D01*
X210116196Y-144147570D02*
X210116196Y-145671570D01*
X210116196Y-144147570D02*
X210751196Y-145163570D01*
X210751196Y-144147570D02*
X210116196Y-144147570D01*
X210751196Y-145163570D02*
X209481196Y-145163570D01*
X211386196Y-142115570D02*
X208846196Y-142115570D01*
X211386196Y-142115570D02*
X211386196Y-146179570D01*
D18*
G36*
X211386196Y-143004570D02*
G01*
X208846196Y-143004570D01*
X208846196Y-142496570D01*
X211386196Y-142496570D01*
X211386196Y-143004570D01*
G37*
G36*
X210497196Y-142115570D02*
G01*
X209735196Y-142115570D01*
X209735196Y-140210570D01*
X210497196Y-140210570D01*
X210497196Y-142115570D01*
G37*
G36*
X210497196Y-148084570D02*
G01*
X209735196Y-148084570D01*
X209735196Y-146179570D01*
X210497196Y-146179570D01*
X210497196Y-148084570D01*
G37*
D21*
%TO.C,U1*%
X152376196Y-129727570D02*
X152376196Y-132387570D01*
X152376196Y-144967570D02*
X152376196Y-147627570D01*
X167676196Y-129727570D02*
X152376196Y-129727570D01*
X167676196Y-129727570D02*
X167676196Y-132387570D01*
X167676196Y-132387570D02*
X152376196Y-132387570D01*
X167676196Y-144967570D02*
X152376196Y-144967570D01*
X167676196Y-144967570D02*
X167676196Y-147627570D01*
X167676196Y-147627570D02*
X152376196Y-147627570D01*
X168946196Y-129727570D02*
X170276196Y-129727570D01*
X168946196Y-144967570D02*
X170276196Y-144967570D01*
X170276196Y-129727570D02*
X170276196Y-131057570D01*
X170276196Y-144967570D02*
X170276196Y-146297570D01*
%TO.C,J2*%
X139861196Y-129102570D02*
X139861196Y-132982570D01*
X141831196Y-127932570D02*
X144331196Y-127932570D01*
X141831196Y-134152570D02*
X144331196Y-134152570D01*
X144331196Y-127932570D02*
X144331196Y-128982570D01*
X144331196Y-128982570D02*
X145321196Y-128982570D01*
X144331196Y-134152570D02*
X144331196Y-133102570D01*
D17*
%TO.C,C4*%
X185033196Y-130915570D02*
X185033196Y-134979570D01*
X185287196Y-135233570D02*
X192145196Y-135233570D01*
X188385996Y-132947570D02*
X187192196Y-132947570D01*
D19*
X188385996Y-132947570D02*
X188385996Y-132312570D01*
X188385996Y-133582570D02*
X188385996Y-132947570D01*
X189020996Y-132947570D02*
X189020996Y-132312570D01*
D17*
X189020996Y-132947570D02*
X190240196Y-132947570D01*
D19*
X189020996Y-133582570D02*
X189020996Y-132947570D01*
D17*
X192145196Y-130661570D02*
X185287196Y-130661570D01*
X192399196Y-134979570D02*
X192399196Y-130915570D01*
X185033196Y-130915570D02*
G75*
G02*
X185287196Y-130661570I254000J0D01*
G01*
X185287196Y-135233570D02*
G75*
G02*
X185033196Y-134979570I0J254000D01*
G01*
X192145196Y-130661570D02*
G75*
G02*
X192399196Y-130915570I0J-254000D01*
G01*
X192399196Y-134979570D02*
G75*
G02*
X192145196Y-135233570I-254000J0D01*
G01*
%TO.C,D1*%
X201846196Y-146179570D02*
X201846196Y-142115570D01*
X201846196Y-146179570D02*
X204386196Y-146179570D01*
X202481196Y-145163570D02*
X203116196Y-144147570D01*
X203116196Y-143512570D02*
X203116196Y-144147570D01*
X203116196Y-144147570D02*
X202481196Y-144147570D01*
X203116196Y-144147570D02*
X203116196Y-145671570D01*
X203116196Y-144147570D02*
X203751196Y-145163570D01*
X203751196Y-144147570D02*
X203116196Y-144147570D01*
X203751196Y-145163570D02*
X202481196Y-145163570D01*
X204386196Y-142115570D02*
X201846196Y-142115570D01*
X204386196Y-142115570D02*
X204386196Y-146179570D01*
D18*
G36*
X204386196Y-143004570D02*
G01*
X201846196Y-143004570D01*
X201846196Y-142496570D01*
X204386196Y-142496570D01*
X204386196Y-143004570D01*
G37*
G36*
X203497196Y-142115570D02*
G01*
X202735196Y-142115570D01*
X202735196Y-140210570D01*
X203497196Y-140210570D01*
X203497196Y-142115570D01*
G37*
G36*
X203497196Y-148084570D02*
G01*
X202735196Y-148084570D01*
X202735196Y-146179570D01*
X203497196Y-146179570D01*
X203497196Y-148084570D01*
G37*
D17*
%TO.C,D4*%
X205246196Y-146179570D02*
X205246196Y-142115570D01*
X205246196Y-146179570D02*
X207786196Y-146179570D01*
X205881196Y-143131570D02*
X207151196Y-143131570D01*
X205881196Y-144147570D02*
X206516196Y-144147570D01*
X206516196Y-144147570D02*
X205881196Y-143131570D01*
X206516196Y-144147570D02*
X206516196Y-142623570D01*
X206516196Y-144147570D02*
X207151196Y-144147570D01*
X206516196Y-144782570D02*
X206516196Y-144147570D01*
X207151196Y-143131570D02*
X206516196Y-144147570D01*
X207786196Y-142115570D02*
X205246196Y-142115570D01*
X207786196Y-142115570D02*
X207786196Y-146179570D01*
D18*
G36*
X206897196Y-142115570D02*
G01*
X206135196Y-142115570D01*
X206135196Y-140210570D01*
X206897196Y-140210570D01*
X206897196Y-142115570D01*
G37*
G36*
X206897196Y-148084570D02*
G01*
X206135196Y-148084570D01*
X206135196Y-146179570D01*
X206897196Y-146179570D01*
X206897196Y-148084570D01*
G37*
G36*
X207786196Y-145798570D02*
G01*
X205246196Y-145798570D01*
X205246196Y-145290570D01*
X207786196Y-145290570D01*
X207786196Y-145798570D01*
G37*
D17*
%TO.C,R4*%
X214541196Y-138136570D02*
X214541196Y-136358570D01*
X214795196Y-136104570D02*
X215176196Y-136104570D01*
X214795196Y-138390570D02*
X215176196Y-138390570D01*
X215303196Y-136231570D02*
X215176196Y-136104570D01*
X215303196Y-138263570D02*
X215176196Y-138390570D01*
X220129196Y-136231570D02*
X215303196Y-136231570D01*
X220129196Y-136231570D02*
X220256196Y-136104570D01*
X220129196Y-138263570D02*
X215303196Y-138263570D01*
X220129196Y-138263570D02*
X220256196Y-138390570D01*
X220637196Y-136104570D02*
X220256196Y-136104570D01*
X220637196Y-138390570D02*
X220256196Y-138390570D01*
X220891196Y-138136570D02*
X220891196Y-136358570D01*
X214541196Y-136358570D02*
G75*
G02*
X214795196Y-136104570I254000J0D01*
G01*
X214795196Y-138390570D02*
G75*
G02*
X214541196Y-138136570I0J254000D01*
G01*
X220637196Y-136104570D02*
G75*
G02*
X220891196Y-136358570I0J-254000D01*
G01*
X220891196Y-138136570D02*
G75*
G02*
X220637196Y-138390570I-254000J0D01*
G01*
D18*
G36*
X214541196Y-137552370D02*
G01*
X213677596Y-137552370D01*
X213677596Y-136942770D01*
X214541196Y-136942770D01*
X214541196Y-137552370D01*
G37*
G36*
X221754796Y-137552370D02*
G01*
X220891196Y-137552370D01*
X220891196Y-136942770D01*
X221754796Y-136942770D01*
X221754796Y-137552370D01*
G37*
D17*
%TO.C,R2*%
X216773196Y-125526570D02*
X216773196Y-125907570D01*
X216773196Y-131368570D02*
X216773196Y-130987570D01*
X216900196Y-126034570D02*
X216773196Y-125907570D01*
X216900196Y-126034570D02*
X216900196Y-130860570D01*
X216900196Y-130860570D02*
X216773196Y-130987570D01*
X218805196Y-125272570D02*
X217027196Y-125272570D01*
X218805196Y-131622570D02*
X217027196Y-131622570D01*
X218932196Y-126034570D02*
X218932196Y-130860570D01*
X218932196Y-126034570D02*
X219059196Y-125907570D01*
X218932196Y-130860570D02*
X219059196Y-130987570D01*
X219059196Y-125526570D02*
X219059196Y-125907570D01*
X219059196Y-131368570D02*
X219059196Y-130987570D01*
X216773196Y-125526570D02*
G75*
G02*
X217027196Y-125272570I254000J0D01*
G01*
X217027196Y-131622570D02*
G75*
G02*
X216773196Y-131368570I0J254000D01*
G01*
X218805196Y-125272570D02*
G75*
G02*
X219059196Y-125526570I0J-254000D01*
G01*
X219059196Y-131368570D02*
G75*
G02*
X218805196Y-131622570I-254000J0D01*
G01*
D18*
G36*
X218220996Y-125272570D02*
G01*
X217611396Y-125272570D01*
X217611396Y-124408970D01*
X218220996Y-124408970D01*
X218220996Y-125272570D01*
G37*
G36*
X218220996Y-132486170D02*
G01*
X217611396Y-132486170D01*
X217611396Y-131622570D01*
X218220996Y-131622570D01*
X218220996Y-132486170D01*
G37*
D21*
%TO.C,J1*%
X139961196Y-139152570D02*
X139961196Y-147832570D01*
X143531196Y-137432570D02*
X147781196Y-137432570D01*
X143531196Y-149552570D02*
X147781196Y-149552570D01*
X146181196Y-138452570D02*
X146181196Y-139732570D01*
X146181196Y-139732570D02*
X149071196Y-139732570D01*
X146181196Y-148532570D02*
X146181196Y-147252570D01*
X147781196Y-137432570D02*
X147781196Y-138452570D01*
X147781196Y-138452570D02*
X146181196Y-138452570D01*
X147781196Y-148532570D02*
X146181196Y-148532570D01*
X147781196Y-149552570D02*
X147781196Y-148532570D01*
%TO.C,J3*%
X220316196Y-149647570D02*
G75*
G02*
X217316196Y-149647570I-1500000J0D01*
G01*
X217316196Y-149647570D02*
G75*
G02*
X220316196Y-149647570I1500000J0D01*
G01*
D17*
%TO.C,C1*%
X179050196Y-139245570D02*
X179558196Y-139245570D01*
X179304196Y-138991570D02*
X179304196Y-139499570D01*
X180066196Y-140261570D02*
G75*
G02*
X174986196Y-140261570I-2540000J0D01*
G01*
X174986196Y-140261570D02*
G75*
G02*
X180066196Y-140261570I2540000J0D01*
G01*
%TO.C,C3*%
X185099196Y-129595570D02*
X185099196Y-123499570D01*
X185607196Y-122991570D02*
X202625196Y-122991570D01*
X198307196Y-126547570D02*
X188020196Y-126547570D01*
D22*
X198307196Y-126547570D02*
X198307196Y-125277570D01*
X198307196Y-127817570D02*
X198307196Y-126547570D01*
X199196196Y-126547570D02*
X199196196Y-125277570D01*
D17*
X199196196Y-126547570D02*
X200212196Y-126547570D01*
D22*
X199196196Y-127817570D02*
X199196196Y-126547570D01*
D17*
X202625196Y-130103570D02*
X185607196Y-130103570D01*
X203133196Y-123499570D02*
X203133196Y-129595570D01*
X185099196Y-123499570D02*
G75*
G02*
X185607196Y-122991570I508000J0D01*
G01*
X185607196Y-130103570D02*
G75*
G02*
X185099196Y-129595570I0J508000D01*
G01*
X202625196Y-122991570D02*
G75*
G02*
X203133196Y-123499570I-1J-508001D01*
G01*
X203133196Y-129595570D02*
G75*
G02*
X202625196Y-130103570I-508001J1D01*
G01*
%TD*%
M02*
