%TF.GenerationSoftware,KiCad,Pcbnew,10.0.5*%
%TF.CreationDate,2026-08-13T11:11:24+05:00*%
%TF.ProjectId,geiger,67656967-6572-42e6-9b69-6361645f7063,rev?*%
%TF.SameCoordinates,Original*%
%TF.FileFunction,Copper,L2,Bot*%
%TF.FilePolarity,Positive*%
%FSLAX46Y46*%
G04 Gerber Fmt 4.6, Leading zero omitted, Abs format (unit mm)*
G04 Created by KiCad (PCBNEW 10.0.5) date 2026-08-13 11:11:24*
%MOMM*%
%LPD*%
G01*
G04 APERTURE LIST*
G04 Aperture macros list*
%AMOutline5P*
0 Free polygon, 5 corners , with rotation*
0 The origin of the aperture is its center*
0 number of corners: always 5*
0 $1 to $10 corner X, Y*
0 $11 Rotation angle, in degrees counterclockwise*
0 create outline with 5 corners*
4,1,5,$1,$2,$3,$4,$5,$6,$7,$8,$9,$10,$1,$2,$11*%
%AMOutline6P*
0 Free polygon, 6 corners , with rotation*
0 The origin of the aperture is its center*
0 number of corners: always 6*
0 $1 to $12 corner X, Y*
0 $13 Rotation angle, in degrees counterclockwise*
0 create outline with 6 corners*
4,1,6,$1,$2,$3,$4,$5,$6,$7,$8,$9,$10,$11,$12,$1,$2,$13*%
%AMOutline7P*
0 Free polygon, 7 corners , with rotation*
0 The origin of the aperture is its center*
0 number of corners: always 7*
0 $1 to $14 corner X, Y*
0 $15 Rotation angle, in degrees counterclockwise*
0 create outline with 7 corners*
4,1,7,$1,$2,$3,$4,$5,$6,$7,$8,$9,$10,$11,$12,$13,$14,$1,$2,$15*%
%AMOutline8P*
0 Free polygon, 8 corners , with rotation*
0 The origin of the aperture is its center*
0 number of corners: always 8*
0 $1 to $16 corner X, Y*
0 $17 Rotation angle, in degrees counterclockwise*
0 create outline with 8 corners*
4,1,8,$1,$2,$3,$4,$5,$6,$7,$8,$9,$10,$11,$12,$13,$14,$15,$16,$1,$2,$17*%
G04 Aperture macros list end*
%TA.AperFunction,ComponentPad*%
%ADD10Outline8P,-0.704000X0.291606X-0.291606X0.704000X0.291606X0.704000X0.704000X0.291606X0.704000X-0.291606X0.291606X-0.704000X-0.291606X-0.704000X-0.704000X-0.291606X210.000000*%
%TD*%
%TA.AperFunction,ComponentPad*%
%ADD11Outline8P,-0.660400X0.273547X-0.273547X0.660400X0.273547X0.660400X0.660400X0.273547X0.660400X-0.273547X0.273547X-0.660400X-0.273547X-0.660400X-0.660400X-0.273547X0.000000*%
%TD*%
%TA.AperFunction,ComponentPad*%
%ADD12Outline8P,-0.660400X0.273547X-0.273547X0.660400X0.273547X0.660400X0.660400X0.273547X0.660400X-0.273547X0.273547X-0.660400X-0.273547X-0.660400X-0.660400X-0.273547X270.000000*%
%TD*%
%TA.AperFunction,ComponentPad*%
%ADD13R,2.400000X2.400000*%
%TD*%
%TA.AperFunction,ComponentPad*%
%ADD14Outline8P,-0.660400X0.273547X-0.273547X0.660400X0.273547X0.660400X0.660400X0.273547X0.660400X-0.273547X0.273547X-0.660400X-0.273547X-0.660400X-0.660400X-0.273547X180.000000*%
%TD*%
%TA.AperFunction,ComponentPad*%
%ADD15C,1.676400*%
%TD*%
%TA.AperFunction,ComponentPad*%
%ADD16R,1.700000X1.700000*%
%TD*%
%TA.AperFunction,ComponentPad*%
%ADD17O,1.700000X1.700000*%
%TD*%
%TA.AperFunction,ComponentPad*%
%ADD18Outline8P,-0.660400X0.273547X-0.273547X0.660400X0.273547X0.660400X0.660400X0.273547X0.660400X-0.273547X0.273547X-0.660400X-0.273547X-0.660400X-0.660400X-0.273547X90.000000*%
%TD*%
%TA.AperFunction,ComponentPad*%
%ADD19C,2.000000*%
%TD*%
%TA.AperFunction,ComponentPad*%
%ADD20C,1.270000*%
%TD*%
%TA.AperFunction,ComponentPad*%
%ADD21Outline8P,-0.635000X0.263026X-0.263026X0.635000X0.263026X0.635000X0.635000X0.263026X0.635000X-0.263026X0.263026X-0.635000X-0.263026X-0.635000X-0.635000X-0.263026X90.000000*%
%TD*%
%TA.AperFunction,ComponentPad*%
%ADD22Outline8P,-0.762000X0.315631X-0.315631X0.762000X0.315631X0.762000X0.762000X0.315631X0.762000X-0.315631X0.315631X-0.762000X-0.315631X-0.762000X-0.762000X-0.315631X180.000000*%
%TD*%
%TA.AperFunction,ViaPad*%
%ADD23C,0.600000*%
%TD*%
%TA.AperFunction,Conductor*%
%ADD24C,0.500000*%
%TD*%
%TA.AperFunction,Conductor*%
%ADD25C,0.200000*%
%TD*%
G04 APERTURE END LIST*
D10*
%TO.P,L1,1,1_1*%
%TO.N,+5V*%
X216005901Y-127377570D03*
%TO.P,L1,2,2_2*%
%TO.N,Net-(D1-K)*%
X211606491Y-129917570D03*
%TD*%
D11*
%TO.P,R7,1*%
%TO.N,/SCL*%
X147246196Y-136047570D03*
%TO.P,R7,2*%
%TO.N,+3V3*%
X157406196Y-136047570D03*
%TD*%
D12*
%TO.P,R1,1*%
%TO.N,/HV_CAP_FUL*%
X188866196Y-140557570D03*
%TO.P,R1,2*%
%TO.N,GND*%
X188866196Y-150717570D03*
%TD*%
D13*
%TO.P,SBM-19/20,P1,1_P1*%
%TO.N,Net-(SBM-19/1-1)*%
X218606196Y-143737570D03*
%TO.P,SBM-19/20,P2,2_P2*%
%TO.N,unconnected-(SBM-19/1-2-PadP2)*%
X226226196Y-143737570D03*
%TD*%
D14*
%TO.P,C2,1*%
%TO.N,/HV_CAP_FUL*%
X185616196Y-150637570D03*
%TO.P,C2,2*%
%TO.N,GND*%
X180536196Y-150637570D03*
%TD*%
%TO.P,R6,1*%
%TO.N,+3V3*%
X157406196Y-138617570D03*
%TO.P,R6,2*%
%TO.N,/SDA*%
X147246196Y-138617570D03*
%TD*%
D11*
%TO.P,R5,1*%
%TO.N,+3V3*%
X144786196Y-141437570D03*
%TO.P,R5,2*%
%TO.N,/GMZ_COUNT*%
X154946196Y-141437570D03*
%TD*%
D15*
%TO.P,D3,A,A_A*%
%TO.N,GND*%
X193316196Y-150517570D03*
%TO.P,D3,C,K_C*%
%TO.N,/HV_CAP_FUL*%
X193316196Y-140357570D03*
%TD*%
%TO.P,D2,A,A_A*%
%TO.N,/HV_CAP_FUL*%
X197266196Y-140457570D03*
%TO.P,D2,C,K_C*%
%TO.N,Net-(D2-K)*%
X197266196Y-150617570D03*
%TD*%
D12*
%TO.P,R3,1*%
%TO.N,Net-(C4-Pad1)*%
X225516196Y-124897570D03*
%TO.P,R3,2*%
%TO.N,Net-(R3-Pad2)*%
X225516196Y-135057570D03*
%TD*%
D15*
%TO.P,D6,A,A_A*%
%TO.N,Net-(D4-K)*%
X210346196Y-148211570D03*
%TO.P,D6,C,C_C*%
%TO.N,Net-(C3-Pad1)*%
X210346196Y-138051570D03*
%TD*%
D16*
%TO.P,U1,1,A0_1*%
%TO.N,/HV_CAP_FUL*%
X162586196Y-130997570D03*
D17*
%TO.P,U1,2,A1_2*%
%TO.N,/HV_FET_OUT*%
X160046196Y-130997570D03*
%TO.P,U1,3,A2_3*%
%TO.N,unconnected-(U1-A2-Pad3)*%
X157506196Y-130997570D03*
%TO.P,U1,4,A3_4*%
%TO.N,unconnected-(U1-A3-Pad4)*%
X154966196Y-130997570D03*
%TO.P,U1,5,A4_5*%
%TO.N,/SDA*%
X152426196Y-130997570D03*
%TO.P,U1,6,A5_6*%
%TO.N,/SCL*%
X149886196Y-130997570D03*
%TO.P,U1,7,D6_7*%
%TO.N,unconnected-(U1-D6-Pad7)*%
X147346196Y-130997570D03*
%TO.P,U1,8,D7_8*%
%TO.N,unconnected-(U1-D7-Pad8)*%
X147346196Y-146237570D03*
%TO.P,U1,9,D8_9*%
%TO.N,/GMZ_COUNT*%
X149886196Y-146237570D03*
%TO.P,U1,10,D9_10*%
%TO.N,unconnected-(U1-D9-Pad10)*%
X152426196Y-146237570D03*
%TO.P,U1,11,D10_11*%
%TO.N,unconnected-(U1-D10-Pad11)*%
X154966196Y-146237570D03*
%TO.P,U1,12,3V3_12*%
%TO.N,+3V3*%
X157506196Y-146237570D03*
%TO.P,U1,13,GND_13*%
%TO.N,GND*%
X160046196Y-146237570D03*
D16*
%TO.P,U1,14,5V_14*%
%TO.N,+5V*%
X162586196Y-146237570D03*
%TD*%
D12*
%TO.P,C4,1*%
%TO.N,Net-(C4-Pad1)*%
X192216196Y-131997570D03*
%TO.P,C4,2*%
%TO.N,/GMZ_COUNT*%
X192216196Y-137077570D03*
%TD*%
D15*
%TO.P,D1,A,A_A*%
%TO.N,Net-(D2-K)*%
X201616196Y-150517570D03*
%TO.P,D1,C,K_C*%
%TO.N,Net-(D1-K)*%
X201616196Y-140357570D03*
%TD*%
%TO.P,D4,A,A_A*%
%TO.N,Net-(D1-K)*%
X205516196Y-140357570D03*
%TO.P,D4,C,K_C*%
%TO.N,Net-(D4-K)*%
X205516196Y-150517570D03*
%TD*%
D11*
%TO.P,R4,1*%
%TO.N,Net-(SBM-19/1-1)*%
X215436196Y-137937570D03*
%TO.P,R4,2*%
%TO.N,Net-(R3-Pad2)*%
X225596196Y-137937570D03*
%TD*%
D18*
%TO.P,R2,1*%
%TO.N,Net-(C3-Pad1)*%
X221866196Y-135037570D03*
%TO.P,R2,2*%
%TO.N,Net-(C4-Pad1)*%
X221866196Y-124877570D03*
%TD*%
D19*
%TO.P,J3,1,Pin_1_1*%
%TO.N,GND*%
X222646196Y-150137570D03*
%TD*%
D20*
%TO.P,C1,+*%
%TO.N,+5V*%
X167256196Y-146143570D03*
D21*
%TO.P,C1,-*%
%TO.N,GND*%
X167256196Y-144111570D03*
%TD*%
D22*
%TO.P,C3,1*%
%TO.N,Net-(C3-Pad1)*%
X205509196Y-126937570D03*
%TO.P,C3,2*%
%TO.N,GND*%
X190523196Y-126937570D03*
%TD*%
D23*
%TO.N,+5V*%
X169036196Y-141537570D03*
X213516196Y-123537570D03*
X145986196Y-149837570D03*
X169036196Y-128037570D03*
%TO.N,/SCL*%
X144481196Y-144342570D03*
%TO.N,+3V3*%
X147286196Y-133737570D03*
%TO.N,/HV_CAP_FUL*%
X178536196Y-141287570D03*
X173686196Y-131137570D03*
%TO.N,GND*%
X159536196Y-126687570D03*
X171536196Y-141287570D03*
X144036196Y-148787570D03*
X175286196Y-131537570D03*
X164786196Y-127487570D03*
X172036196Y-124787570D03*
X138036196Y-138037570D03*
X156286196Y-124137570D03*
X159536196Y-127487570D03*
X154286196Y-148037570D03*
X133986196Y-123037570D03*
X137286196Y-123187570D03*
X137536196Y-151987570D03*
X141136196Y-124937570D03*
X158786196Y-143787570D03*
X151036196Y-123137570D03*
X142136196Y-124137570D03*
X160786196Y-143037570D03*
X135036196Y-141787570D03*
X160786196Y-143787570D03*
X176036196Y-139787570D03*
X163536196Y-149787570D03*
X177536196Y-139037570D03*
X147886196Y-152337570D03*
X146686196Y-123137570D03*
X171536196Y-136787570D03*
X163786196Y-123137570D03*
X163786196Y-125737570D03*
X158786196Y-142287570D03*
X177536196Y-139787570D03*
X143286196Y-125737570D03*
X149936196Y-124137570D03*
X149786196Y-126687570D03*
X156286196Y-123137570D03*
X162736196Y-128287570D03*
X170786196Y-135037570D03*
X155286196Y-123137570D03*
X147686196Y-124137570D03*
X140036196Y-123137570D03*
X151036196Y-148787570D03*
X149936196Y-125737570D03*
X160786196Y-142287570D03*
X146686196Y-125737570D03*
X173286196Y-133287570D03*
X140036196Y-133787570D03*
X161036196Y-136037570D03*
X143286196Y-148787570D03*
X170286196Y-128537570D03*
X173036196Y-136037570D03*
X165836196Y-123137570D03*
X171036196Y-133287570D03*
X164786196Y-136787570D03*
X144486196Y-124137570D03*
X160436196Y-124137570D03*
X154136196Y-128287570D03*
X144286196Y-127187570D03*
X155036196Y-148037570D03*
X147536196Y-148787570D03*
X171536196Y-138287570D03*
X171036196Y-123187570D03*
X166786196Y-136787570D03*
X172936196Y-151987570D03*
X149786196Y-148787570D03*
X172286196Y-136787570D03*
X151786196Y-148037570D03*
X159436196Y-125737570D03*
X159786196Y-143787570D03*
X172286196Y-140537570D03*
X157536196Y-148037570D03*
X161586196Y-123137570D03*
X159786196Y-142287570D03*
X153086196Y-125737570D03*
X166886196Y-128287570D03*
X171286196Y-151187570D03*
X174036196Y-151987570D03*
X158536196Y-140537570D03*
X170036196Y-124787570D03*
X173036196Y-141287570D03*
X177036196Y-142537570D03*
X148836196Y-125737570D03*
X176036196Y-139037570D03*
X170186196Y-151187570D03*
X166936196Y-123137570D03*
X166936196Y-124137570D03*
X164786196Y-123137570D03*
X151036196Y-125737570D03*
X134036196Y-151187570D03*
X149936196Y-123137570D03*
X171036196Y-125787570D03*
X177036196Y-143287570D03*
X161736196Y-127487570D03*
X149786196Y-128287570D03*
X176036196Y-129787570D03*
X177536196Y-129787570D03*
X143286196Y-148037570D03*
X137536196Y-152787570D03*
X156386196Y-126687570D03*
X154286196Y-148787570D03*
X172036196Y-129287570D03*
X144486196Y-123137570D03*
X171536196Y-135037570D03*
X159436196Y-123137570D03*
X144786196Y-151187570D03*
X170536196Y-147537570D03*
X174286196Y-144337570D03*
X164786196Y-135037570D03*
X170286196Y-129287570D03*
X153086196Y-124137570D03*
X170286196Y-148537570D03*
X139036196Y-138037570D03*
X155786196Y-133287570D03*
X171536196Y-136037570D03*
X147286196Y-143037570D03*
X174036196Y-152787570D03*
X172286196Y-138287570D03*
X159036196Y-148037570D03*
X142286196Y-152787570D03*
X168036196Y-124937570D03*
X162736196Y-126687570D03*
X167036196Y-140487570D03*
X176286196Y-142537570D03*
X165036196Y-149037570D03*
X176786196Y-135787570D03*
X135186196Y-144837570D03*
X149036196Y-148787570D03*
X142536196Y-148787570D03*
X173036196Y-140537570D03*
X146686196Y-124137570D03*
X176036196Y-135037570D03*
X150936196Y-126687570D03*
X165836196Y-125737570D03*
X170036196Y-135037570D03*
X161036196Y-137787570D03*
X172036196Y-146787570D03*
X158286196Y-133287570D03*
X172036196Y-123187570D03*
X135036196Y-131287570D03*
X134036196Y-152787570D03*
X177536196Y-131537570D03*
X142136196Y-124937570D03*
X177536196Y-132287570D03*
X150286196Y-138537570D03*
X165286196Y-132787570D03*
X158336196Y-124137570D03*
X143786196Y-135037570D03*
X159536196Y-139787570D03*
X171286196Y-128537570D03*
X175286196Y-133037570D03*
X168036196Y-128287570D03*
X154536196Y-139537570D03*
X176786196Y-129787570D03*
X159786196Y-144537570D03*
X171036196Y-132287570D03*
X161586196Y-124137570D03*
X142036196Y-127187570D03*
X153136196Y-128287570D03*
X134036196Y-131287570D03*
X143286196Y-123137570D03*
X172036196Y-147537570D03*
X135136196Y-151987570D03*
X156036196Y-144037570D03*
X136436196Y-151987570D03*
X175286196Y-130537570D03*
X144786196Y-151987570D03*
X163786196Y-136037570D03*
X172536196Y-132287570D03*
X161586196Y-124937570D03*
X166286196Y-131787570D03*
X161786196Y-144537570D03*
X146686196Y-124937570D03*
X148836196Y-124137570D03*
X166936196Y-125737570D03*
X136436196Y-151187570D03*
X144286196Y-128787570D03*
X177536196Y-133037570D03*
X158286196Y-134037570D03*
X170036196Y-136037570D03*
X164786196Y-124937570D03*
X135036196Y-130537570D03*
X161786196Y-143037570D03*
X176786196Y-130537570D03*
X160786196Y-144537570D03*
X165286196Y-131787570D03*
X170786196Y-138287570D03*
X175286196Y-139787570D03*
X163286196Y-135037570D03*
X149936196Y-124937570D03*
X159786196Y-148037570D03*
X166286196Y-132787570D03*
X155786196Y-134037570D03*
X141036196Y-134537570D03*
X165886196Y-130287570D03*
X153536196Y-140287570D03*
X167036196Y-142087570D03*
X157536196Y-148787570D03*
X147686196Y-123137570D03*
X140936196Y-128787570D03*
X172536196Y-133287570D03*
X134286196Y-129237570D03*
X173036196Y-130287570D03*
X196416196Y-136837570D03*
X142786196Y-134287570D03*
X145586196Y-125737570D03*
X153136196Y-127487570D03*
X133986196Y-124637570D03*
X174286196Y-142737570D03*
X158486196Y-126687570D03*
X167036196Y-141287570D03*
X150536196Y-143037570D03*
X152036196Y-124937570D03*
X169536196Y-149287570D03*
X170036196Y-136787570D03*
X164636196Y-141287570D03*
X138936196Y-152787570D03*
X165786196Y-149037570D03*
X176036196Y-138287570D03*
X161786196Y-143787570D03*
X170786196Y-136037570D03*
X155286196Y-124937570D03*
X149786196Y-148037570D03*
X148286196Y-148037570D03*
X135036196Y-143537570D03*
X166886196Y-127487570D03*
X135186196Y-146737570D03*
X136186196Y-123987570D03*
X163536196Y-140487570D03*
X140036196Y-151187570D03*
X154786196Y-133287570D03*
X168036196Y-126687570D03*
X142536196Y-148037570D03*
X163786196Y-124937570D03*
X135036196Y-141037570D03*
X158286196Y-148037570D03*
X152036196Y-127487570D03*
X170036196Y-125787570D03*
X159536196Y-140537570D03*
X171536196Y-139037570D03*
X169036196Y-123987570D03*
X149686196Y-153337570D03*
X158336196Y-124937570D03*
X164786196Y-136037570D03*
X136036196Y-141037570D03*
X141036196Y-133787570D03*
X143686196Y-151187570D03*
X167536196Y-131787570D03*
X159536196Y-128287570D03*
X142136196Y-125737570D03*
X160636196Y-127487570D03*
X157236196Y-125737570D03*
X140936196Y-127187570D03*
X163536196Y-142087570D03*
X155786196Y-148037570D03*
X176786196Y-139787570D03*
X177536196Y-135787570D03*
X170286196Y-130287570D03*
X166886196Y-129287570D03*
X138936196Y-124137570D03*
X175286196Y-129787570D03*
X166286196Y-135037570D03*
X162036196Y-137787570D03*
X177536196Y-135037570D03*
X171286196Y-146787570D03*
X172036196Y-125787570D03*
X156536196Y-140287570D03*
X172936196Y-151187570D03*
X165886196Y-126687570D03*
X149036196Y-148037570D03*
X136436196Y-152787570D03*
X156536196Y-139537570D03*
X159786196Y-143037570D03*
X165536196Y-135037570D03*
X142136196Y-123137570D03*
X148286196Y-143787570D03*
X141136196Y-125737570D03*
X176786196Y-139037570D03*
X133986196Y-123837570D03*
X170786196Y-141287570D03*
X148286196Y-143037570D03*
X172286196Y-135037570D03*
X158336196Y-125737570D03*
X164786196Y-128287570D03*
X155786196Y-148787570D03*
X156536196Y-148787570D03*
X169036196Y-124787570D03*
X160436196Y-123137570D03*
X168036196Y-124137570D03*
X166786196Y-139037570D03*
X161786196Y-135037570D03*
X154786196Y-134037570D03*
X169536196Y-148537570D03*
X172036196Y-144337570D03*
X140936196Y-127987570D03*
X140036196Y-151987570D03*
X170036196Y-138287570D03*
X150536196Y-143787570D03*
X164786196Y-126687570D03*
X168786196Y-148537570D03*
X176036196Y-133037570D03*
X148686196Y-153337570D03*
X165786196Y-136787570D03*
X161036196Y-138537570D03*
X138036196Y-138787570D03*
X168036196Y-129287570D03*
X166786196Y-136037570D03*
X167786196Y-135037570D03*
X176036196Y-136537570D03*
X164786196Y-125737570D03*
X161736196Y-128287570D03*
X137536196Y-151187570D03*
X163036196Y-136037570D03*
X134036196Y-151987570D03*
X175286196Y-135037570D03*
X157486196Y-126687570D03*
X157486196Y-127487570D03*
X163036196Y-136787570D03*
X173286196Y-132287570D03*
X144486196Y-124937570D03*
X162536196Y-135037570D03*
X148686196Y-126687570D03*
X163686196Y-128287570D03*
X157236196Y-124937570D03*
X167536196Y-132787570D03*
X170786196Y-139037570D03*
X136186196Y-123187570D03*
X140036196Y-125737570D03*
X176036196Y-132287570D03*
X171286196Y-151987570D03*
X133986196Y-125537570D03*
X156286196Y-125737570D03*
X156036196Y-143287570D03*
X143686196Y-152787570D03*
X159436196Y-124937570D03*
X149786196Y-127487570D03*
X163786196Y-136787570D03*
X165936196Y-142087570D03*
X151286196Y-137787570D03*
X167786196Y-136037570D03*
X170036196Y-123187570D03*
X161036196Y-135037570D03*
X171536196Y-140537570D03*
X165886196Y-128287570D03*
X134286196Y-132737570D03*
X137286196Y-123987570D03*
X155286196Y-124137570D03*
X158786196Y-143037570D03*
X148286196Y-148787570D03*
X149536196Y-143787570D03*
X165936196Y-140487570D03*
X165886196Y-127487570D03*
X155286196Y-128287570D03*
X172936196Y-152787570D03*
X170186196Y-152787570D03*
X154186196Y-124137570D03*
X161586196Y-125737570D03*
X167786196Y-136787570D03*
X176786196Y-136537570D03*
X160636196Y-128287570D03*
X149686196Y-152337570D03*
X166786196Y-138287570D03*
X175286196Y-139037570D03*
X162686196Y-124937570D03*
X155536196Y-139537570D03*
X155286196Y-126687570D03*
X140036196Y-124937570D03*
X152036196Y-124137570D03*
X170536196Y-146787570D03*
X147686196Y-125737570D03*
X142286196Y-151187570D03*
X139036196Y-138787570D03*
X169036196Y-123187570D03*
X176036196Y-131537570D03*
X156536196Y-142287570D03*
X150286196Y-137787570D03*
X175286196Y-136537570D03*
X160286196Y-135037570D03*
X141186196Y-151187570D03*
X141186196Y-152787570D03*
X169036196Y-125787570D03*
X159436196Y-124137570D03*
X161786196Y-142287570D03*
X158486196Y-127487570D03*
X157486196Y-128287570D03*
X171286196Y-152787570D03*
X151036196Y-124937570D03*
X148686196Y-128287570D03*
X158486196Y-128287570D03*
X165786196Y-149787570D03*
X165936196Y-141287570D03*
X156386196Y-128287570D03*
X170186196Y-151987570D03*
X164786196Y-124137570D03*
X171286196Y-130287570D03*
X156286196Y-124937570D03*
X176786196Y-138287570D03*
X166936196Y-124937570D03*
X156386196Y-127487570D03*
X138786196Y-140437570D03*
X176036196Y-130537570D03*
X162686196Y-123137570D03*
X151786196Y-148787570D03*
X156536196Y-148037570D03*
X152036196Y-125737570D03*
X175286196Y-138287570D03*
X176786196Y-132287570D03*
X164636196Y-140487570D03*
X134036196Y-130537570D03*
X173036196Y-138287570D03*
X153086196Y-123137570D03*
X155286196Y-127487570D03*
X161736196Y-126687570D03*
X138936196Y-124937570D03*
X140036196Y-124137570D03*
X155286196Y-125737570D03*
X135036196Y-142787570D03*
X173036196Y-135037570D03*
X154186196Y-123137570D03*
X143686196Y-151987570D03*
X170036196Y-133287570D03*
X147536196Y-148037570D03*
X160436196Y-125737570D03*
X152036196Y-126687570D03*
X154186196Y-124937570D03*
X164636196Y-142087570D03*
X135136196Y-152787570D03*
X136036196Y-143537570D03*
X154136196Y-126687570D03*
X154186196Y-125737570D03*
X145586196Y-124137570D03*
X143786196Y-134287570D03*
X168036196Y-123137570D03*
X174036196Y-151187570D03*
X175286196Y-132287570D03*
X166886196Y-126687570D03*
X137286196Y-124787570D03*
X148836196Y-124937570D03*
X136986196Y-129537570D03*
X164036196Y-135037570D03*
X160636196Y-126687570D03*
X171286196Y-147537570D03*
X143186196Y-127187570D03*
X167786196Y-139037570D03*
X157236196Y-123137570D03*
X135136196Y-151187570D03*
X145586196Y-124937570D03*
X153136196Y-126687570D03*
X162686196Y-125737570D03*
X138936196Y-151987570D03*
X141136196Y-123137570D03*
X162036196Y-138537570D03*
X165836196Y-124937570D03*
X167036196Y-135037570D03*
X173136196Y-143537570D03*
X176786196Y-131537570D03*
X172036196Y-130287570D03*
X142036196Y-127987570D03*
X168036196Y-125737570D03*
X147686196Y-124937570D03*
X136036196Y-141787570D03*
X171036196Y-124787570D03*
X145586196Y-123137570D03*
X142036196Y-128787570D03*
X164286196Y-149787570D03*
X136186196Y-124787570D03*
X168036196Y-130287570D03*
X176786196Y-135037570D03*
X161036196Y-136787570D03*
X173036196Y-136787570D03*
X170286196Y-149287570D03*
X172286196Y-141287570D03*
X171786196Y-132287570D03*
X159536196Y-135037570D03*
X177536196Y-138287570D03*
X163686196Y-126687570D03*
X143186196Y-128787570D03*
X153286196Y-148787570D03*
X135186196Y-147537570D03*
X153286196Y-148037570D03*
X172036196Y-143537570D03*
X176286196Y-143287570D03*
X159036196Y-148787570D03*
X154136196Y-127487570D03*
X173036196Y-139037570D03*
X157236196Y-124137570D03*
X144786196Y-148787570D03*
X170786196Y-140537570D03*
X138936196Y-151187570D03*
X158286196Y-148787570D03*
X152036196Y-123137570D03*
X165786196Y-136037570D03*
X140036196Y-152787570D03*
X141186196Y-151987570D03*
X144486196Y-125737570D03*
X138936196Y-123137570D03*
X152536196Y-148037570D03*
X147886196Y-153337570D03*
X144786196Y-148037570D03*
X162036196Y-136787570D03*
X175286196Y-135787570D03*
X148686196Y-152337570D03*
X162736196Y-127487570D03*
X148686196Y-127487570D03*
X142786196Y-135037570D03*
X172286196Y-136037570D03*
X140036196Y-134537570D03*
X171786196Y-133287570D03*
X135186196Y-146137570D03*
X167786196Y-138287570D03*
X163686196Y-127487570D03*
X143286196Y-124137570D03*
X177536196Y-136537570D03*
X143186196Y-127987570D03*
X155036196Y-144037570D03*
X158786196Y-144537570D03*
X153536196Y-139537570D03*
X136036196Y-142787570D03*
X163536196Y-149037570D03*
X162036196Y-136037570D03*
X166886196Y-130287570D03*
X150936196Y-128287570D03*
X149536196Y-143037570D03*
X160436196Y-124937570D03*
X170786196Y-136787570D03*
X157286196Y-133287570D03*
X135186196Y-139337570D03*
X144786196Y-152787570D03*
X164286196Y-149037570D03*
X165886196Y-129287570D03*
X171036196Y-123987570D03*
X177536196Y-130537570D03*
X152536196Y-148787570D03*
X141136196Y-124137570D03*
X175536196Y-143287570D03*
X159786196Y-148787570D03*
X170036196Y-132037570D03*
X150936196Y-127487570D03*
X175536196Y-142537570D03*
X163536196Y-141287570D03*
X171286196Y-129287570D03*
X155036196Y-148787570D03*
X162686196Y-124137570D03*
X157286196Y-134037570D03*
X158336196Y-123137570D03*
X144036196Y-148037570D03*
X176036196Y-135787570D03*
X168036196Y-127487570D03*
X135186196Y-145537570D03*
X151036196Y-124137570D03*
X173136196Y-144337570D03*
X176786196Y-133037570D03*
X172036196Y-142737570D03*
X163786196Y-124137570D03*
X155036196Y-143287570D03*
X174286196Y-143537570D03*
X151036196Y-148037570D03*
X172286196Y-139037570D03*
X165836196Y-124137570D03*
X152036196Y-128287570D03*
X153086196Y-124937570D03*
X158536196Y-139787570D03*
X147286196Y-143787570D03*
X173136196Y-142737570D03*
X168786196Y-149287570D03*
X142286196Y-151987570D03*
X170036196Y-139287570D03*
X172036196Y-123987570D03*
X144286196Y-127987570D03*
X148836196Y-123137570D03*
X170036196Y-123987570D03*
X165036196Y-149787570D03*
X143286196Y-124937570D03*
X151286196Y-138537570D03*
%TD*%
%TO.N,+5V*%
D24*
X162586196Y-148437570D02*
X162586196Y-146237570D01*
D25*
X213516196Y-123537570D02*
X216005901Y-126027275D01*
X169036196Y-128037570D02*
X169036196Y-141537570D01*
D24*
X145986196Y-149837570D02*
X161186196Y-149837570D01*
X161186196Y-149837570D02*
X162586196Y-148437570D01*
D25*
X216005901Y-126027275D02*
X216005901Y-127377570D01*
%TO.N,/SCL*%
X149246196Y-139577570D02*
X144481196Y-144342570D01*
X147246196Y-136047570D02*
X148476196Y-136047570D01*
X149246196Y-136817570D02*
X149246196Y-139577570D01*
X148476196Y-136047570D02*
X149246196Y-136817570D01*
%TO.N,+3V3*%
D24*
X157506196Y-146237570D02*
X157506196Y-136147570D01*
X150286196Y-133737570D02*
X152686196Y-136137570D01*
X157506196Y-136147570D02*
X157406196Y-136047570D01*
X152686196Y-136137570D02*
X157316196Y-136137570D01*
X147286196Y-133737570D02*
X150286196Y-133737570D01*
X157316196Y-136137570D02*
X157406196Y-136047570D01*
%TO.N,/HV_CAP_FUL*%
D25*
X174286196Y-131737570D02*
X173686196Y-131137570D01*
X178536196Y-141287570D02*
X175036196Y-141287570D01*
X174286196Y-140537570D02*
X174286196Y-131737570D01*
X175036196Y-141287570D02*
X174286196Y-140537570D01*
%TD*%
%TA.AperFunction,Conductor*%
%TO.N,GND*%
G36*
X227953735Y-122150755D02*
G01*
X227999490Y-122203559D01*
X228010696Y-122255070D01*
X228010696Y-130894353D01*
X227991011Y-130961392D01*
X227960806Y-130993769D01*
X227542712Y-131305440D01*
X223560474Y-134274016D01*
X223494961Y-134298301D01*
X223426718Y-134283311D01*
X223377412Y-134233807D01*
X223377191Y-134233397D01*
X223359218Y-134200026D01*
X223359216Y-134200024D01*
X223359216Y-134200023D01*
X223272348Y-134094855D01*
X222808914Y-133631422D01*
X222755232Y-133587080D01*
X222703745Y-133544551D01*
X222703741Y-133544549D01*
X222699846Y-133542451D01*
X222524593Y-133448061D01*
X222524590Y-133448060D01*
X222524588Y-133448059D01*
X222329688Y-133389611D01*
X222302527Y-133387022D01*
X222193890Y-133376670D01*
X221538495Y-133376670D01*
X221441502Y-133385913D01*
X221402704Y-133389611D01*
X221207801Y-133448059D01*
X221207791Y-133448064D01*
X221028654Y-133544545D01*
X220923479Y-133631419D01*
X220460048Y-134094851D01*
X220373177Y-134200020D01*
X220373175Y-134200024D01*
X220276685Y-134379177D01*
X220218237Y-134574077D01*
X220205296Y-134709879D01*
X220205296Y-134913570D01*
X220185611Y-134980609D01*
X220132807Y-135026364D01*
X220081296Y-135037570D01*
X215286195Y-135037570D01*
X212786196Y-137537569D01*
X212786196Y-137537570D01*
X212786196Y-146787570D01*
X214836196Y-148837570D01*
X221649034Y-148837570D01*
X221716073Y-148857255D01*
X221733634Y-148877521D01*
X221736668Y-148874488D01*
X222516787Y-149654607D01*
X222453203Y-149671645D01*
X222339189Y-149737471D01*
X222246097Y-149830563D01*
X222180271Y-149944577D01*
X222163233Y-150008161D01*
X221423536Y-149268464D01*
X221363280Y-149351400D01*
X221256093Y-149561767D01*
X221183130Y-149786322D01*
X221146196Y-150019517D01*
X221146196Y-150255622D01*
X221183130Y-150488817D01*
X221256093Y-150713372D01*
X221363283Y-150923744D01*
X221423534Y-151006674D01*
X221423536Y-151006675D01*
X222163233Y-150266978D01*
X222180271Y-150330563D01*
X222246097Y-150444577D01*
X222339189Y-150537669D01*
X222453203Y-150603495D01*
X222516786Y-150620532D01*
X221777089Y-151360228D01*
X221860024Y-151420484D01*
X222070393Y-151527672D01*
X222294948Y-151600635D01*
X222294947Y-151600635D01*
X222528144Y-151637570D01*
X222764248Y-151637570D01*
X222997443Y-151600635D01*
X223221998Y-151527672D01*
X223432359Y-151420488D01*
X223432365Y-151420484D01*
X223515300Y-151360228D01*
X223515301Y-151360228D01*
X222775604Y-150620532D01*
X222839189Y-150603495D01*
X222953203Y-150537669D01*
X223046295Y-150444577D01*
X223112121Y-150330563D01*
X223129158Y-150266979D01*
X223868854Y-151006675D01*
X223868854Y-151006674D01*
X223929110Y-150923739D01*
X223929114Y-150923733D01*
X224036298Y-150713372D01*
X224109261Y-150488817D01*
X224146196Y-150255622D01*
X224146196Y-150019517D01*
X224109261Y-149786322D01*
X224036298Y-149561767D01*
X223929110Y-149351398D01*
X223868854Y-149268464D01*
X223868854Y-149268463D01*
X223129158Y-150008160D01*
X223112121Y-149944577D01*
X223046295Y-149830563D01*
X222953203Y-149737471D01*
X222839189Y-149671645D01*
X222775605Y-149654607D01*
X223555723Y-148874489D01*
X223558951Y-148877717D01*
X223583194Y-148853143D01*
X223643357Y-148837570D01*
X227886696Y-148837570D01*
X227953735Y-148857255D01*
X227999490Y-148910059D01*
X228010696Y-148961570D01*
X228010696Y-153898070D01*
X227991011Y-153965109D01*
X227938207Y-154010864D01*
X227886696Y-154022070D01*
X132734196Y-154022070D01*
X132667157Y-154002385D01*
X132621402Y-153949581D01*
X132610196Y-153898070D01*
X132610196Y-149771020D01*
X145480696Y-149771020D01*
X145480696Y-149904120D01*
X145513159Y-150025272D01*
X145515145Y-150032685D01*
X145515146Y-150032688D01*
X145525297Y-150050270D01*
X145581695Y-150147954D01*
X145675812Y-150242071D01*
X145791080Y-150308621D01*
X145919646Y-150343070D01*
X145919648Y-150343070D01*
X146052744Y-150343070D01*
X146052746Y-150343070D01*
X146127346Y-150323081D01*
X179375796Y-150323081D01*
X179375796Y-150387570D01*
X180211459Y-150387570D01*
X180210995Y-150388034D01*
X180157491Y-150480705D01*
X180129796Y-150584066D01*
X180129796Y-150691074D01*
X180157491Y-150794435D01*
X180210995Y-150887106D01*
X180211459Y-150887570D01*
X179375797Y-150887570D01*
X179375797Y-150952059D01*
X179386346Y-151036041D01*
X179441367Y-151168876D01*
X179493289Y-151235714D01*
X179493300Y-151235727D01*
X179938039Y-151680466D01*
X179938052Y-151680477D01*
X180004890Y-151732399D01*
X180137724Y-151787421D01*
X180221710Y-151797969D01*
X180286195Y-151797968D01*
X180286196Y-151797968D01*
X180286196Y-150962307D01*
X180286660Y-150962771D01*
X180379331Y-151016275D01*
X180482692Y-151043970D01*
X180589700Y-151043970D01*
X180693061Y-151016275D01*
X180785732Y-150962771D01*
X180786196Y-150962307D01*
X180786196Y-151797969D01*
X180850679Y-151797969D01*
X180850685Y-151797968D01*
X180934667Y-151787419D01*
X181067502Y-151732398D01*
X181134340Y-151680476D01*
X181134353Y-151680465D01*
X181579092Y-151235726D01*
X181579103Y-151235713D01*
X181631025Y-151168875D01*
X181631025Y-151168874D01*
X181686046Y-151036041D01*
X181696595Y-150952058D01*
X181696596Y-150952052D01*
X181696596Y-150887570D01*
X180860933Y-150887570D01*
X180861397Y-150887106D01*
X180914901Y-150794435D01*
X180942596Y-150691074D01*
X180942596Y-150584066D01*
X180914901Y-150480705D01*
X180861397Y-150388034D01*
X180860933Y-150387570D01*
X181696595Y-150387570D01*
X181696595Y-150323087D01*
X181696507Y-150322387D01*
X181696507Y-150322384D01*
X181694936Y-150309876D01*
X183955296Y-150309876D01*
X183955296Y-150965271D01*
X183961661Y-151032058D01*
X183968237Y-151101061D01*
X184026685Y-151295964D01*
X184026690Y-151295974D01*
X184123171Y-151475111D01*
X184123176Y-151475117D01*
X184210044Y-151580285D01*
X184673478Y-152043718D01*
X184680692Y-152049677D01*
X184778646Y-152130588D01*
X184778647Y-152130588D01*
X184778649Y-152130590D01*
X184957799Y-152227079D01*
X185152705Y-152285529D01*
X185288502Y-152298470D01*
X185288507Y-152298470D01*
X185943890Y-152298470D01*
X185943897Y-152298470D01*
X186079686Y-152285529D01*
X186203698Y-152248339D01*
X186274590Y-152227080D01*
X186274600Y-152227075D01*
X186453737Y-152130594D01*
X186453739Y-152130591D01*
X186453743Y-152130590D01*
X186558911Y-152043722D01*
X187022344Y-151580288D01*
X187109216Y-151475117D01*
X187205705Y-151295967D01*
X187264155Y-151101061D01*
X187277096Y-150965264D01*
X187277096Y-150403081D01*
X187705796Y-150403081D01*
X187705796Y-150467570D01*
X188541459Y-150467570D01*
X188540995Y-150468034D01*
X188487491Y-150560705D01*
X188459796Y-150664066D01*
X188459796Y-150771074D01*
X188487491Y-150874435D01*
X188540995Y-150967106D01*
X188541459Y-150967570D01*
X187705797Y-150967570D01*
X187705797Y-151032059D01*
X187716346Y-151116041D01*
X187771367Y-151248876D01*
X187823289Y-151315714D01*
X187823300Y-151315727D01*
X188268039Y-151760466D01*
X188268052Y-151760477D01*
X188334890Y-151812399D01*
X188467724Y-151867421D01*
X188551710Y-151877969D01*
X188616195Y-151877968D01*
X188616196Y-151877968D01*
X188616196Y-151042307D01*
X188616660Y-151042771D01*
X188709331Y-151096275D01*
X188812692Y-151123970D01*
X188919700Y-151123970D01*
X189023061Y-151096275D01*
X189115732Y-151042771D01*
X189116196Y-151042307D01*
X189116196Y-151877969D01*
X189180679Y-151877969D01*
X189180685Y-151877968D01*
X189264667Y-151867419D01*
X189397502Y-151812398D01*
X189464340Y-151760476D01*
X189464353Y-151760465D01*
X189909092Y-151315726D01*
X189909103Y-151315713D01*
X189961025Y-151248875D01*
X189961025Y-151248874D01*
X190016046Y-151116041D01*
X190026595Y-151032058D01*
X190026596Y-151032052D01*
X190026596Y-150967570D01*
X189190933Y-150967570D01*
X189191397Y-150967106D01*
X189244901Y-150874435D01*
X189272596Y-150771074D01*
X189272596Y-150664066D01*
X189244901Y-150560705D01*
X189191397Y-150468034D01*
X189190933Y-150467570D01*
X190024831Y-150467570D01*
X190015817Y-150318547D01*
X189994702Y-150267570D01*
X192000911Y-150267570D01*
X192815287Y-150267570D01*
X192795477Y-150301881D01*
X192757396Y-150444003D01*
X192757396Y-150591137D01*
X192795477Y-150733259D01*
X192815287Y-150767570D01*
X192000911Y-150767570D01*
X192010947Y-150830934D01*
X192010947Y-150830937D01*
X192076035Y-151031258D01*
X192171667Y-151218943D01*
X192295468Y-151389342D01*
X192295472Y-151389347D01*
X192444418Y-151538293D01*
X192444423Y-151538297D01*
X192614822Y-151662098D01*
X192802507Y-151757730D01*
X193002825Y-151822816D01*
X193066196Y-151832853D01*
X193066196Y-151018479D01*
X193100507Y-151038289D01*
X193242629Y-151076370D01*
X193389763Y-151076370D01*
X193531885Y-151038289D01*
X193566196Y-151018479D01*
X193566196Y-151832852D01*
X193629566Y-151822816D01*
X193829884Y-151757730D01*
X194017569Y-151662098D01*
X194187968Y-151538297D01*
X194187973Y-151538293D01*
X194336919Y-151389347D01*
X194336923Y-151389342D01*
X194460724Y-151218943D01*
X194556356Y-151031258D01*
X194621444Y-150830937D01*
X194621444Y-150830934D01*
X194631481Y-150767570D01*
X193817105Y-150767570D01*
X193836915Y-150733259D01*
X193874996Y-150591137D01*
X193874996Y-150497047D01*
X195427496Y-150497047D01*
X195427496Y-150738092D01*
X195447115Y-150887106D01*
X195458957Y-150977052D01*
X195473694Y-151032052D01*
X195521339Y-151209867D01*
X195613573Y-151432542D01*
X195613581Y-151432558D01*
X195734088Y-151641281D01*
X195734099Y-151641297D01*
X195880820Y-151832508D01*
X195880826Y-151832515D01*
X196051250Y-152002939D01*
X196051257Y-152002945D01*
X196187422Y-152107428D01*
X196242477Y-152149673D01*
X196242484Y-152149677D01*
X196451207Y-152270184D01*
X196451223Y-152270192D01*
X196583079Y-152324808D01*
X196673897Y-152362426D01*
X196906714Y-152424809D01*
X197145681Y-152456270D01*
X197145688Y-152456270D01*
X197386704Y-152456270D01*
X197386711Y-152456270D01*
X197625678Y-152424809D01*
X197858495Y-152362426D01*
X198044143Y-152285528D01*
X198081168Y-152270192D01*
X198081171Y-152270190D01*
X198081177Y-152270188D01*
X198289915Y-152149673D01*
X198481136Y-152002944D01*
X198651570Y-151832510D01*
X198798299Y-151641289D01*
X198918814Y-151432551D01*
X198923813Y-151420484D01*
X198967204Y-151315727D01*
X199011052Y-151209869D01*
X199073435Y-150977052D01*
X199104896Y-150738085D01*
X199104896Y-150497055D01*
X199091730Y-150397047D01*
X199777496Y-150397047D01*
X199777496Y-150638092D01*
X199798080Y-150794435D01*
X199808957Y-150877052D01*
X199821465Y-150923733D01*
X199871339Y-151109867D01*
X199963573Y-151332542D01*
X199963581Y-151332558D01*
X200084088Y-151541281D01*
X200084099Y-151541297D01*
X200230820Y-151732508D01*
X200230826Y-151732515D01*
X200401250Y-151902939D01*
X200401256Y-151902944D01*
X200592477Y-152049673D01*
X200592484Y-152049677D01*
X200801207Y-152170184D01*
X200801223Y-152170192D01*
X200938552Y-152227075D01*
X201023897Y-152262426D01*
X201256714Y-152324809D01*
X201495681Y-152356270D01*
X201495688Y-152356270D01*
X201736704Y-152356270D01*
X201736711Y-152356270D01*
X201975678Y-152324809D01*
X202208495Y-152262426D01*
X202376116Y-152192994D01*
X202431168Y-152170192D01*
X202431171Y-152170190D01*
X202431177Y-152170188D01*
X202639915Y-152049673D01*
X202831136Y-151902944D01*
X203001570Y-151732510D01*
X203148299Y-151541289D01*
X203268814Y-151332551D01*
X203361052Y-151109869D01*
X203423435Y-150877052D01*
X203443257Y-150726489D01*
X203471524Y-150662594D01*
X203529848Y-150624123D01*
X203599713Y-150623292D01*
X203658936Y-150660364D01*
X203688715Y-150723570D01*
X203689133Y-150726480D01*
X203708957Y-150877052D01*
X203721465Y-150923733D01*
X203771339Y-151109867D01*
X203863573Y-151332542D01*
X203863581Y-151332558D01*
X203984088Y-151541281D01*
X203984099Y-151541297D01*
X204130820Y-151732508D01*
X204130826Y-151732515D01*
X204301250Y-151902939D01*
X204301256Y-151902944D01*
X204492477Y-152049673D01*
X204492484Y-152049677D01*
X204701207Y-152170184D01*
X204701223Y-152170192D01*
X204838552Y-152227075D01*
X204923897Y-152262426D01*
X205156714Y-152324809D01*
X205395681Y-152356270D01*
X205395688Y-152356270D01*
X205636704Y-152356270D01*
X205636711Y-152356270D01*
X205875678Y-152324809D01*
X206108495Y-152262426D01*
X206276116Y-152192994D01*
X206331168Y-152170192D01*
X206331171Y-152170190D01*
X206331177Y-152170188D01*
X206539915Y-152049673D01*
X206731136Y-151902944D01*
X206901570Y-151732510D01*
X207048299Y-151541289D01*
X207168814Y-151332551D01*
X207261052Y-151109869D01*
X207323435Y-150877052D01*
X207354896Y-150638085D01*
X207354896Y-150397055D01*
X207323435Y-150158088D01*
X207261052Y-149925271D01*
X207210239Y-149802597D01*
X207168818Y-149702597D01*
X207168810Y-149702581D01*
X207048303Y-149493858D01*
X207048299Y-149493851D01*
X206996625Y-149426508D01*
X206901571Y-149302631D01*
X206901565Y-149302624D01*
X206731141Y-149132200D01*
X206731134Y-149132194D01*
X206539923Y-148985473D01*
X206539921Y-148985471D01*
X206539915Y-148985467D01*
X206539910Y-148985464D01*
X206539907Y-148985462D01*
X206331184Y-148864955D01*
X206331168Y-148864947D01*
X206108493Y-148772713D01*
X205960893Y-148733164D01*
X205875678Y-148710331D01*
X205845807Y-148706398D01*
X205636718Y-148678870D01*
X205636711Y-148678870D01*
X205395681Y-148678870D01*
X205395673Y-148678870D01*
X205156714Y-148710331D01*
X204923898Y-148772713D01*
X204701223Y-148864947D01*
X204701207Y-148864955D01*
X204492484Y-148985462D01*
X204492468Y-148985473D01*
X204301257Y-149132194D01*
X204301250Y-149132200D01*
X204130826Y-149302624D01*
X204130820Y-149302631D01*
X203984099Y-149493842D01*
X203984088Y-149493858D01*
X203863581Y-149702581D01*
X203863573Y-149702597D01*
X203771339Y-149925272D01*
X203732448Y-150070419D01*
X203708957Y-150158088D01*
X203698292Y-150239098D01*
X203689135Y-150308649D01*
X203660868Y-150372545D01*
X203602544Y-150411016D01*
X203532679Y-150411847D01*
X203473456Y-150374775D01*
X203443677Y-150311569D01*
X203443257Y-150308649D01*
X203441206Y-150293070D01*
X203423435Y-150158088D01*
X203361052Y-149925271D01*
X203310239Y-149802597D01*
X203268818Y-149702597D01*
X203268810Y-149702581D01*
X203148303Y-149493858D01*
X203148299Y-149493851D01*
X203096625Y-149426508D01*
X203001571Y-149302631D01*
X203001565Y-149302624D01*
X202831141Y-149132200D01*
X202831134Y-149132194D01*
X202639923Y-148985473D01*
X202639921Y-148985471D01*
X202639915Y-148985467D01*
X202639910Y-148985464D01*
X202639907Y-148985462D01*
X202431184Y-148864955D01*
X202431168Y-148864947D01*
X202208493Y-148772713D01*
X202060893Y-148733164D01*
X201975678Y-148710331D01*
X201945807Y-148706398D01*
X201736718Y-148678870D01*
X201736711Y-148678870D01*
X201495681Y-148678870D01*
X201495673Y-148678870D01*
X201256714Y-148710331D01*
X201023898Y-148772713D01*
X200801223Y-148864947D01*
X200801207Y-148864955D01*
X200592484Y-148985462D01*
X200592468Y-148985473D01*
X200401257Y-149132194D01*
X200401250Y-149132200D01*
X200230826Y-149302624D01*
X200230820Y-149302631D01*
X200084099Y-149493842D01*
X200084088Y-149493858D01*
X199963581Y-149702581D01*
X199963573Y-149702597D01*
X199871339Y-149925272D01*
X199808957Y-150158088D01*
X199777496Y-150397047D01*
X199091730Y-150397047D01*
X199073435Y-150258088D01*
X199011052Y-150025271D01*
X198944331Y-149864192D01*
X198918818Y-149802597D01*
X198918810Y-149802581D01*
X198798303Y-149593858D01*
X198798299Y-149593851D01*
X198747143Y-149527183D01*
X198651571Y-149402631D01*
X198651565Y-149402624D01*
X198481141Y-149232200D01*
X198481134Y-149232194D01*
X198289923Y-149085473D01*
X198289921Y-149085471D01*
X198289915Y-149085467D01*
X198289910Y-149085464D01*
X198289907Y-149085462D01*
X198081184Y-148964955D01*
X198081168Y-148964947D01*
X197858493Y-148872713D01*
X197703148Y-148831089D01*
X197625678Y-148810331D01*
X197595807Y-148806398D01*
X197386718Y-148778870D01*
X197386711Y-148778870D01*
X197145681Y-148778870D01*
X197145673Y-148778870D01*
X196906714Y-148810331D01*
X196673898Y-148872713D01*
X196451223Y-148964947D01*
X196451207Y-148964955D01*
X196242484Y-149085462D01*
X196242468Y-149085473D01*
X196051257Y-149232194D01*
X196051250Y-149232200D01*
X195880826Y-149402624D01*
X195880820Y-149402631D01*
X195734099Y-149593842D01*
X195734088Y-149593858D01*
X195613581Y-149802581D01*
X195613573Y-149802597D01*
X195521339Y-150025272D01*
X195458957Y-150258088D01*
X195427496Y-150497047D01*
X193874996Y-150497047D01*
X193874996Y-150444003D01*
X193836915Y-150301881D01*
X193817105Y-150267570D01*
X194631481Y-150267570D01*
X194621444Y-150204205D01*
X194621444Y-150204202D01*
X194556356Y-150003881D01*
X194460724Y-149816196D01*
X194336923Y-149645797D01*
X194336919Y-149645792D01*
X194187973Y-149496846D01*
X194187968Y-149496842D01*
X194017569Y-149373041D01*
X193829884Y-149277409D01*
X193629561Y-149212321D01*
X193566196Y-149202284D01*
X193566196Y-150016660D01*
X193531885Y-149996851D01*
X193389763Y-149958770D01*
X193242629Y-149958770D01*
X193100507Y-149996851D01*
X193066196Y-150016660D01*
X193066196Y-149202284D01*
X193002831Y-149212321D01*
X193002828Y-149212321D01*
X192802507Y-149277409D01*
X192614822Y-149373041D01*
X192444423Y-149496842D01*
X192444418Y-149496846D01*
X192295472Y-149645792D01*
X192295468Y-149645797D01*
X192171667Y-149816196D01*
X192076035Y-150003881D01*
X192010947Y-150204202D01*
X192010947Y-150204205D01*
X192000911Y-150267570D01*
X189994702Y-150267570D01*
X189961024Y-150186263D01*
X189909102Y-150119425D01*
X189909091Y-150119412D01*
X189464352Y-149674673D01*
X189464339Y-149674662D01*
X189397501Y-149622740D01*
X189264667Y-149567719D01*
X189180684Y-149557170D01*
X189116196Y-149557170D01*
X189116196Y-150392833D01*
X189115732Y-150392369D01*
X189023061Y-150338865D01*
X188919700Y-150311170D01*
X188812692Y-150311170D01*
X188709331Y-150338865D01*
X188616660Y-150392369D01*
X188616196Y-150392833D01*
X188616196Y-149557170D01*
X188616195Y-149557169D01*
X188551714Y-149557170D01*
X188551705Y-149557171D01*
X188467724Y-149567720D01*
X188334889Y-149622741D01*
X188268051Y-149674663D01*
X188268038Y-149674674D01*
X187823299Y-150119413D01*
X187823288Y-150119426D01*
X187771366Y-150186264D01*
X187771366Y-150186265D01*
X187716345Y-150319098D01*
X187705796Y-150403081D01*
X187277096Y-150403081D01*
X187277096Y-150309869D01*
X187264155Y-150174080D01*
X187223770Y-150039412D01*
X187205706Y-149979175D01*
X187205701Y-149979165D01*
X187109220Y-149800028D01*
X187109216Y-149800023D01*
X187022348Y-149694855D01*
X186558914Y-149231422D01*
X186535790Y-149212321D01*
X186453745Y-149144551D01*
X186453741Y-149144549D01*
X186430805Y-149132196D01*
X186274593Y-149048061D01*
X186274590Y-149048060D01*
X186274588Y-149048059D01*
X186079688Y-148989611D01*
X186052527Y-148987022D01*
X185943890Y-148976670D01*
X185288495Y-148976670D01*
X185196241Y-148985462D01*
X185152704Y-148989611D01*
X184957801Y-149048059D01*
X184957791Y-149048064D01*
X184778654Y-149144545D01*
X184673479Y-149231419D01*
X184210048Y-149694851D01*
X184123177Y-149800020D01*
X184123175Y-149800024D01*
X184026685Y-149979177D01*
X183968237Y-150174077D01*
X183968237Y-150174078D01*
X183968237Y-150174079D01*
X183955296Y-150309876D01*
X181694936Y-150309876D01*
X181686045Y-150239098D01*
X181631024Y-150106263D01*
X181579102Y-150039425D01*
X181579091Y-150039412D01*
X181134352Y-149594673D01*
X181134339Y-149594662D01*
X181067501Y-149542740D01*
X180934667Y-149487719D01*
X180850684Y-149477170D01*
X180786196Y-149477170D01*
X180786196Y-150312833D01*
X180785732Y-150312369D01*
X180693061Y-150258865D01*
X180589700Y-150231170D01*
X180482692Y-150231170D01*
X180379331Y-150258865D01*
X180286660Y-150312369D01*
X180286196Y-150312833D01*
X180286196Y-149477170D01*
X180286195Y-149477169D01*
X180221714Y-149477170D01*
X180221705Y-149477171D01*
X180137724Y-149487720D01*
X180004889Y-149542741D01*
X179938051Y-149594663D01*
X179938038Y-149594674D01*
X179493299Y-150039413D01*
X179493288Y-150039426D01*
X179441366Y-150106264D01*
X179441366Y-150106265D01*
X179386345Y-150239098D01*
X179375796Y-150323081D01*
X146127346Y-150323081D01*
X146181312Y-150308621D01*
X146181319Y-150308616D01*
X146188826Y-150305509D01*
X146189448Y-150307011D01*
X146241473Y-150293070D01*
X161246162Y-150293070D01*
X161246164Y-150293070D01*
X161362012Y-150262028D01*
X161378631Y-150252433D01*
X161465879Y-150202061D01*
X162950687Y-148717253D01*
X163010654Y-148613386D01*
X163020482Y-148576707D01*
X163041696Y-148497538D01*
X163041696Y-147417070D01*
X163061381Y-147350031D01*
X163114185Y-147304276D01*
X163165696Y-147293070D01*
X163456437Y-147293070D01*
X163456438Y-147293069D01*
X163476597Y-147289059D01*
X163516375Y-147281148D01*
X163516375Y-147281147D01*
X163516378Y-147281147D01*
X163584353Y-147235727D01*
X163629773Y-147167752D01*
X163634490Y-147144038D01*
X173869500Y-147144038D01*
X173869500Y-147395961D01*
X173908910Y-147644785D01*
X173986760Y-147884383D01*
X174061314Y-148030701D01*
X174092061Y-148091047D01*
X174101132Y-148108848D01*
X174249201Y-148312649D01*
X174249205Y-148312654D01*
X174427345Y-148490794D01*
X174427350Y-148490798D01*
X174596076Y-148613384D01*
X174631155Y-148638870D01*
X174709660Y-148678870D01*
X174855616Y-148753239D01*
X174855618Y-148753239D01*
X174855621Y-148753241D01*
X175095215Y-148831090D01*
X175344038Y-148870500D01*
X175344039Y-148870500D01*
X175595961Y-148870500D01*
X175595962Y-148870500D01*
X175844785Y-148831090D01*
X176084379Y-148753241D01*
X176308845Y-148638870D01*
X176512656Y-148490793D01*
X176690793Y-148312656D01*
X176838870Y-148108845D01*
X176847939Y-148091047D01*
X208507496Y-148091047D01*
X208507496Y-148332092D01*
X208538957Y-148571051D01*
X208601339Y-148803867D01*
X208693573Y-149026542D01*
X208693581Y-149026558D01*
X208814088Y-149235281D01*
X208814099Y-149235297D01*
X208960820Y-149426508D01*
X208960826Y-149426515D01*
X209131250Y-149596939D01*
X209131256Y-149596944D01*
X209322477Y-149743673D01*
X209322484Y-149743677D01*
X209531207Y-149864184D01*
X209531223Y-149864192D01*
X209627619Y-149904120D01*
X209753897Y-149956426D01*
X209986714Y-150018809D01*
X210225681Y-150050270D01*
X210225688Y-150050270D01*
X210466704Y-150050270D01*
X210466711Y-150050270D01*
X210705678Y-150018809D01*
X210938495Y-149956426D01*
X211064775Y-149904119D01*
X211074517Y-149900084D01*
X211161168Y-149864192D01*
X211161171Y-149864190D01*
X211161177Y-149864188D01*
X211369915Y-149743673D01*
X211561136Y-149596944D01*
X211731570Y-149426510D01*
X211878299Y-149235289D01*
X211998814Y-149026551D01*
X212091052Y-148803869D01*
X212153435Y-148571052D01*
X212184896Y-148332085D01*
X212184896Y-148091055D01*
X212153435Y-147852088D01*
X212091052Y-147619271D01*
X212007298Y-147417070D01*
X211998818Y-147396597D01*
X211998810Y-147396581D01*
X211878303Y-147187858D01*
X211878299Y-147187851D01*
X211822377Y-147114972D01*
X211731571Y-146996631D01*
X211731565Y-146996624D01*
X211561141Y-146826200D01*
X211561134Y-146826194D01*
X211369923Y-146679473D01*
X211369921Y-146679471D01*
X211369915Y-146679467D01*
X211369910Y-146679464D01*
X211369907Y-146679462D01*
X211161184Y-146558955D01*
X211161168Y-146558947D01*
X210938493Y-146466713D01*
X210790893Y-146427164D01*
X210705678Y-146404331D01*
X210675807Y-146400398D01*
X210466718Y-146372870D01*
X210466711Y-146372870D01*
X210225681Y-146372870D01*
X210225673Y-146372870D01*
X209986714Y-146404331D01*
X209753898Y-146466713D01*
X209531223Y-146558947D01*
X209531207Y-146558955D01*
X209322484Y-146679462D01*
X209322468Y-146679473D01*
X209131257Y-146826194D01*
X209131250Y-146826200D01*
X208960826Y-146996624D01*
X208960820Y-146996631D01*
X208814099Y-147187842D01*
X208814088Y-147187858D01*
X208693581Y-147396581D01*
X208693573Y-147396597D01*
X208601339Y-147619272D01*
X208538957Y-147852088D01*
X208507496Y-148091047D01*
X176847939Y-148091047D01*
X176953241Y-147884379D01*
X177031090Y-147644785D01*
X177070500Y-147395962D01*
X177070500Y-147144038D01*
X177031090Y-146895215D01*
X176953241Y-146655621D01*
X176953239Y-146655618D01*
X176953239Y-146655616D01*
X176874618Y-146501315D01*
X176838870Y-146431155D01*
X176773753Y-146341529D01*
X176690798Y-146227350D01*
X176690794Y-146227345D01*
X176512654Y-146049205D01*
X176512649Y-146049201D01*
X176308848Y-145901132D01*
X176308847Y-145901131D01*
X176308845Y-145901130D01*
X176238747Y-145865413D01*
X176084383Y-145786760D01*
X175844785Y-145708910D01*
X175595962Y-145669500D01*
X175344038Y-145669500D01*
X175219626Y-145689205D01*
X175095214Y-145708910D01*
X174855616Y-145786760D01*
X174631151Y-145901132D01*
X174427350Y-146049201D01*
X174427345Y-146049205D01*
X174249205Y-146227345D01*
X174249201Y-146227350D01*
X174101132Y-146431151D01*
X173986760Y-146655616D01*
X173908910Y-146895214D01*
X173869500Y-147144038D01*
X163634490Y-147144038D01*
X163641696Y-147107810D01*
X163641696Y-145367330D01*
X163635339Y-145335370D01*
X163629774Y-145307390D01*
X163629773Y-145307389D01*
X163629773Y-145307388D01*
X163595234Y-145255697D01*
X163584353Y-145239412D01*
X163533486Y-145205424D01*
X163516378Y-145193993D01*
X163516377Y-145193992D01*
X163516376Y-145193992D01*
X163516375Y-145193991D01*
X163456440Y-145182070D01*
X163456436Y-145182070D01*
X161715956Y-145182070D01*
X161715951Y-145182070D01*
X161656016Y-145193991D01*
X161656015Y-145193992D01*
X161588038Y-145239412D01*
X161542618Y-145307389D01*
X161542617Y-145307390D01*
X161530696Y-145367325D01*
X161530696Y-145660937D01*
X161511011Y-145727976D01*
X161458207Y-145773731D01*
X161389049Y-145783675D01*
X161325493Y-145754650D01*
X161296211Y-145717232D01*
X161200816Y-145530012D01*
X161075923Y-145358110D01*
X161075919Y-145358105D01*
X160925660Y-145207846D01*
X160925655Y-145207842D01*
X160753753Y-145082949D01*
X160564411Y-144986473D01*
X160362320Y-144920811D01*
X160296196Y-144910338D01*
X160296196Y-145804558D01*
X160239189Y-145771645D01*
X160112022Y-145737570D01*
X159980370Y-145737570D01*
X159853203Y-145771645D01*
X159796196Y-145804558D01*
X159796196Y-144910338D01*
X159796195Y-144910338D01*
X159730071Y-144920811D01*
X159527980Y-144986473D01*
X159338638Y-145082949D01*
X159166736Y-145207842D01*
X159166731Y-145207846D01*
X159016472Y-145358105D01*
X159016468Y-145358110D01*
X158891575Y-145530012D01*
X158795101Y-145719351D01*
X158740231Y-145888222D01*
X158700793Y-145945897D01*
X158636434Y-145973095D01*
X158567588Y-145961180D01*
X158516112Y-145913936D01*
X158507742Y-145897361D01*
X158448629Y-145754650D01*
X158441570Y-145737607D01*
X158441569Y-145737605D01*
X158326056Y-145564728D01*
X158326053Y-145564724D01*
X158179041Y-145417712D01*
X158179037Y-145417709D01*
X158016805Y-145309309D01*
X157972000Y-145255697D01*
X157961696Y-145206207D01*
X157961696Y-143807602D01*
X166121196Y-143807602D01*
X166121196Y-143861570D01*
X166931459Y-143861570D01*
X166930995Y-143862034D01*
X166877491Y-143954705D01*
X166849796Y-144058066D01*
X166849796Y-144165074D01*
X166877491Y-144268435D01*
X166930995Y-144361106D01*
X166931459Y-144361570D01*
X166121197Y-144361570D01*
X166121197Y-144415530D01*
X166131744Y-144499520D01*
X166186766Y-144632353D01*
X166238695Y-144699200D01*
X166238700Y-144699206D01*
X166668560Y-145129066D01*
X166668573Y-145129077D01*
X166735411Y-145180999D01*
X166797956Y-145206906D01*
X166852359Y-145250747D01*
X166874424Y-145317041D01*
X166857145Y-145384740D01*
X166819395Y-145424569D01*
X166720404Y-145490713D01*
X166603339Y-145607778D01*
X166603336Y-145607782D01*
X166511357Y-145745437D01*
X166511350Y-145745450D01*
X166447996Y-145898403D01*
X166447993Y-145898412D01*
X166415696Y-146060783D01*
X166415696Y-146226356D01*
X166447993Y-146388727D01*
X166447996Y-146388736D01*
X166511350Y-146541689D01*
X166511357Y-146541702D01*
X166603336Y-146679357D01*
X166603339Y-146679361D01*
X166720404Y-146796426D01*
X166720408Y-146796429D01*
X166858063Y-146888408D01*
X166858076Y-146888415D01*
X166911190Y-146910415D01*
X167011031Y-146951770D01*
X167011033Y-146951770D01*
X167011038Y-146951772D01*
X167173409Y-146984069D01*
X167173412Y-146984070D01*
X167173414Y-146984070D01*
X167338980Y-146984070D01*
X167338981Y-146984069D01*
X167393105Y-146973303D01*
X167501353Y-146951772D01*
X167501356Y-146951770D01*
X167501361Y-146951770D01*
X167654322Y-146888412D01*
X167791984Y-146796429D01*
X167909055Y-146679358D01*
X168001038Y-146541696D01*
X168064396Y-146388735D01*
X168096696Y-146226352D01*
X168096696Y-146060788D01*
X168096696Y-146060785D01*
X168096695Y-146060783D01*
X168064398Y-145898412D01*
X168064395Y-145898403D01*
X168001041Y-145745450D01*
X168001034Y-145745437D01*
X167909055Y-145607782D01*
X167909052Y-145607778D01*
X167791987Y-145490713D01*
X167791983Y-145490710D01*
X167692997Y-145424569D01*
X167648192Y-145370956D01*
X167639485Y-145301631D01*
X167669640Y-145238604D01*
X167714435Y-145206906D01*
X167776979Y-145180999D01*
X167843826Y-145129070D01*
X167843832Y-145129065D01*
X168273692Y-144699205D01*
X168273703Y-144699192D01*
X168325625Y-144632354D01*
X168325625Y-144632353D01*
X168380646Y-144499520D01*
X168391195Y-144415537D01*
X168391196Y-144415531D01*
X168391196Y-144361570D01*
X167580933Y-144361570D01*
X167581397Y-144361106D01*
X167634901Y-144268435D01*
X167662596Y-144165074D01*
X167662596Y-144058066D01*
X167634901Y-143954705D01*
X167581397Y-143862034D01*
X167580933Y-143861570D01*
X168391195Y-143861570D01*
X168391195Y-143807609D01*
X168380647Y-143723619D01*
X168325625Y-143590786D01*
X168273696Y-143523939D01*
X168273691Y-143523933D01*
X167843831Y-143094073D01*
X167843818Y-143094062D01*
X167776980Y-143042140D01*
X167644146Y-142987119D01*
X167560163Y-142976570D01*
X167506196Y-142976570D01*
X167506196Y-143786833D01*
X167505732Y-143786369D01*
X167413061Y-143732865D01*
X167309700Y-143705170D01*
X167202692Y-143705170D01*
X167099331Y-143732865D01*
X167006660Y-143786369D01*
X167006196Y-143786833D01*
X167006196Y-142976570D01*
X167006195Y-142976569D01*
X166952237Y-142976570D01*
X166952235Y-142976571D01*
X166868245Y-142987118D01*
X166735412Y-143042140D01*
X166668565Y-143094069D01*
X166668559Y-143094074D01*
X166238699Y-143523934D01*
X166238688Y-143523947D01*
X166186766Y-143590785D01*
X166186766Y-143590786D01*
X166131745Y-143723619D01*
X166121196Y-143807602D01*
X157961696Y-143807602D01*
X157961696Y-139337999D01*
X157981381Y-139270960D01*
X157998015Y-139250318D01*
X158105709Y-139142624D01*
X158272096Y-138976237D01*
X158272095Y-138258902D01*
X157998015Y-137984822D01*
X157964530Y-137923499D01*
X157961696Y-137897141D01*
X157961696Y-136767999D01*
X157981381Y-136700960D01*
X157998015Y-136680318D01*
X158127743Y-136550590D01*
X158272096Y-136406237D01*
X158272095Y-135688902D01*
X157764863Y-135181670D01*
X157047528Y-135181670D01*
X157047527Y-135181671D01*
X156583448Y-135645751D01*
X156522125Y-135679236D01*
X156495767Y-135682070D01*
X152926232Y-135682070D01*
X152859193Y-135662385D01*
X152838551Y-135645751D01*
X150565880Y-133373080D01*
X150565879Y-133373079D01*
X150462012Y-133313112D01*
X150462013Y-133313112D01*
X150423396Y-133302764D01*
X150346164Y-133282070D01*
X150346162Y-133282070D01*
X147541473Y-133282070D01*
X147489448Y-133268128D01*
X147488826Y-133269631D01*
X147481314Y-133266520D01*
X147481313Y-133266519D01*
X147481312Y-133266519D01*
X147352746Y-133232070D01*
X147219646Y-133232070D01*
X147091080Y-133266519D01*
X147091077Y-133266520D01*
X146975815Y-133333067D01*
X146975809Y-133333071D01*
X146881697Y-133427183D01*
X146881693Y-133427189D01*
X146815146Y-133542451D01*
X146815145Y-133542454D01*
X146780696Y-133671020D01*
X146780696Y-133804120D01*
X146815145Y-133932686D01*
X146881695Y-134047954D01*
X146975812Y-134142071D01*
X147091080Y-134208621D01*
X147219646Y-134243070D01*
X147219648Y-134243070D01*
X147352744Y-134243070D01*
X147352746Y-134243070D01*
X147481312Y-134208621D01*
X147481319Y-134208616D01*
X147488826Y-134205509D01*
X147489448Y-134207011D01*
X147541473Y-134193070D01*
X150046160Y-134193070D01*
X150113199Y-134212755D01*
X150133841Y-134229389D01*
X152406513Y-136502061D01*
X152467910Y-136537508D01*
X152510380Y-136562028D01*
X152626228Y-136593070D01*
X156675767Y-136593070D01*
X156742806Y-136612755D01*
X156763448Y-136629389D01*
X157014377Y-136880318D01*
X157047862Y-136941641D01*
X157050696Y-136967999D01*
X157050696Y-137697140D01*
X157031011Y-137764179D01*
X157014377Y-137784821D01*
X156540296Y-138258902D01*
X156540296Y-138976237D01*
X157014377Y-139450318D01*
X157047862Y-139511641D01*
X157050696Y-139537999D01*
X157050696Y-145206207D01*
X157031011Y-145273246D01*
X156995587Y-145309309D01*
X156833354Y-145417709D01*
X156833350Y-145417712D01*
X156686338Y-145564724D01*
X156686335Y-145564728D01*
X156570822Y-145737605D01*
X156491258Y-145929691D01*
X156491256Y-145929699D01*
X156450696Y-146133607D01*
X156450696Y-146341532D01*
X156491256Y-146545440D01*
X156491258Y-146545448D01*
X156570822Y-146737534D01*
X156686335Y-146910411D01*
X156686338Y-146910415D01*
X156833350Y-147057427D01*
X156833354Y-147057430D01*
X157006229Y-147172942D01*
X157198318Y-147252508D01*
X157342297Y-147281147D01*
X157402233Y-147293069D01*
X157402237Y-147293070D01*
X157402238Y-147293070D01*
X157610155Y-147293070D01*
X157610156Y-147293069D01*
X157814074Y-147252508D01*
X158006163Y-147172942D01*
X158179038Y-147057430D01*
X158326056Y-146910412D01*
X158441568Y-146737537D01*
X158507740Y-146577781D01*
X158551579Y-146523380D01*
X158617873Y-146501315D01*
X158685573Y-146518594D01*
X158733184Y-146569731D01*
X158740231Y-146586918D01*
X158795100Y-146755786D01*
X158891575Y-146945127D01*
X159016468Y-147117029D01*
X159016472Y-147117034D01*
X159166731Y-147267293D01*
X159166736Y-147267297D01*
X159338638Y-147392190D01*
X159527978Y-147488665D01*
X159730067Y-147554327D01*
X159796196Y-147564801D01*
X159796196Y-146670582D01*
X159853203Y-146703495D01*
X159980370Y-146737570D01*
X160112022Y-146737570D01*
X160239189Y-146703495D01*
X160296196Y-146670582D01*
X160296196Y-147564800D01*
X160362322Y-147554327D01*
X160362325Y-147554327D01*
X160564413Y-147488665D01*
X160753753Y-147392190D01*
X160925655Y-147267297D01*
X160925660Y-147267293D01*
X161075919Y-147117034D01*
X161075923Y-147117029D01*
X161200816Y-146945127D01*
X161296211Y-146757907D01*
X161344186Y-146707111D01*
X161412007Y-146690316D01*
X161478142Y-146712853D01*
X161521593Y-146767569D01*
X161530696Y-146814202D01*
X161530696Y-147107814D01*
X161542617Y-147167749D01*
X161542618Y-147167750D01*
X161588038Y-147235727D01*
X161622026Y-147258437D01*
X161656014Y-147281147D01*
X161656015Y-147281147D01*
X161656016Y-147281148D01*
X161715951Y-147293069D01*
X161715955Y-147293070D01*
X161715956Y-147293070D01*
X162006696Y-147293070D01*
X162073735Y-147312755D01*
X162119490Y-147365559D01*
X162130696Y-147417070D01*
X162130696Y-148197534D01*
X162111011Y-148264573D01*
X162094377Y-148285215D01*
X161033841Y-149345751D01*
X160972518Y-149379236D01*
X160946160Y-149382070D01*
X146241473Y-149382070D01*
X146189448Y-149368128D01*
X146188826Y-149369631D01*
X146181314Y-149366520D01*
X146181313Y-149366519D01*
X146181312Y-149366519D01*
X146052746Y-149332070D01*
X145919646Y-149332070D01*
X145791080Y-149366519D01*
X145791077Y-149366520D01*
X145675815Y-149433067D01*
X145675809Y-149433071D01*
X145581697Y-149527183D01*
X145581693Y-149527189D01*
X145515146Y-149642451D01*
X145515145Y-149642454D01*
X145480696Y-149771020D01*
X132610196Y-149771020D01*
X132610196Y-146133607D01*
X146290696Y-146133607D01*
X146290696Y-146341532D01*
X146331256Y-146545440D01*
X146331258Y-146545448D01*
X146410822Y-146737534D01*
X146526335Y-146910411D01*
X146526338Y-146910415D01*
X146673350Y-147057427D01*
X146673354Y-147057430D01*
X146846229Y-147172942D01*
X147038318Y-147252508D01*
X147182297Y-147281147D01*
X147242233Y-147293069D01*
X147242237Y-147293070D01*
X147242238Y-147293070D01*
X147450155Y-147293070D01*
X147450156Y-147293069D01*
X147654074Y-147252508D01*
X147846163Y-147172942D01*
X148019038Y-147057430D01*
X148166056Y-146910412D01*
X148281568Y-146737537D01*
X148361134Y-146545448D01*
X148401696Y-146341528D01*
X148401696Y-146133612D01*
X148401695Y-146133607D01*
X148830696Y-146133607D01*
X148830696Y-146341532D01*
X148871256Y-146545440D01*
X148871258Y-146545448D01*
X148950822Y-146737534D01*
X149066335Y-146910411D01*
X149066338Y-146910415D01*
X149213350Y-147057427D01*
X149213354Y-147057430D01*
X149386229Y-147172942D01*
X149578318Y-147252508D01*
X149722297Y-147281147D01*
X149782233Y-147293069D01*
X149782237Y-147293070D01*
X149782238Y-147293070D01*
X149990155Y-147293070D01*
X149990156Y-147293069D01*
X150194074Y-147252508D01*
X150386163Y-147172942D01*
X150559038Y-147057430D01*
X150706056Y-146910412D01*
X150821568Y-146737537D01*
X150901134Y-146545448D01*
X150941696Y-146341528D01*
X150941696Y-146133612D01*
X150941695Y-146133607D01*
X151370696Y-146133607D01*
X151370696Y-146341532D01*
X151411256Y-146545440D01*
X151411258Y-146545448D01*
X151490822Y-146737534D01*
X151606335Y-146910411D01*
X151606338Y-146910415D01*
X151753350Y-147057427D01*
X151753354Y-147057430D01*
X151926229Y-147172942D01*
X152118318Y-147252508D01*
X152262297Y-147281147D01*
X152322233Y-147293069D01*
X152322237Y-147293070D01*
X152322238Y-147293070D01*
X152530155Y-147293070D01*
X152530156Y-147293069D01*
X152734074Y-147252508D01*
X152926163Y-147172942D01*
X153099038Y-147057430D01*
X153246056Y-146910412D01*
X153361568Y-146737537D01*
X153441134Y-146545448D01*
X153481696Y-146341528D01*
X153481696Y-146133612D01*
X153481695Y-146133607D01*
X153910696Y-146133607D01*
X153910696Y-146341532D01*
X153951256Y-146545440D01*
X153951258Y-146545448D01*
X154030822Y-146737534D01*
X154146335Y-146910411D01*
X154146338Y-146910415D01*
X154293350Y-147057427D01*
X154293354Y-147057430D01*
X154466229Y-147172942D01*
X154658318Y-147252508D01*
X154802297Y-147281147D01*
X154862233Y-147293069D01*
X154862237Y-147293070D01*
X154862238Y-147293070D01*
X155070155Y-147293070D01*
X155070156Y-147293069D01*
X155274074Y-147252508D01*
X155466163Y-147172942D01*
X155639038Y-147057430D01*
X155786056Y-146910412D01*
X155901568Y-146737537D01*
X155981134Y-146545448D01*
X156021696Y-146341528D01*
X156021696Y-146133612D01*
X155981134Y-145929692D01*
X155901568Y-145737603D01*
X155786056Y-145564728D01*
X155786053Y-145564724D01*
X155639041Y-145417712D01*
X155639037Y-145417709D01*
X155466160Y-145302196D01*
X155274074Y-145222632D01*
X155274066Y-145222630D01*
X155070158Y-145182070D01*
X155070154Y-145182070D01*
X154862238Y-145182070D01*
X154862233Y-145182070D01*
X154658325Y-145222630D01*
X154658317Y-145222632D01*
X154466231Y-145302196D01*
X154293354Y-145417709D01*
X154293350Y-145417712D01*
X154146338Y-145564724D01*
X154146335Y-145564728D01*
X154030822Y-145737605D01*
X153951258Y-145929691D01*
X153951256Y-145929699D01*
X153910696Y-146133607D01*
X153481695Y-146133607D01*
X153441134Y-145929692D01*
X153361568Y-145737603D01*
X153246056Y-145564728D01*
X153246053Y-145564724D01*
X153099041Y-145417712D01*
X153099037Y-145417709D01*
X152926160Y-145302196D01*
X152734074Y-145222632D01*
X152734066Y-145222630D01*
X152530158Y-145182070D01*
X152530154Y-145182070D01*
X152322238Y-145182070D01*
X152322233Y-145182070D01*
X152118325Y-145222630D01*
X152118317Y-145222632D01*
X151926231Y-145302196D01*
X151753354Y-145417709D01*
X151753350Y-145417712D01*
X151606338Y-145564724D01*
X151606335Y-145564728D01*
X151490822Y-145737605D01*
X151411258Y-145929691D01*
X151411256Y-145929699D01*
X151370696Y-146133607D01*
X150941695Y-146133607D01*
X150901134Y-145929692D01*
X150821568Y-145737603D01*
X150706056Y-145564728D01*
X150706053Y-145564724D01*
X150559041Y-145417712D01*
X150559037Y-145417709D01*
X150386160Y-145302196D01*
X150194074Y-145222632D01*
X150194066Y-145222630D01*
X149990158Y-145182070D01*
X149990154Y-145182070D01*
X149782238Y-145182070D01*
X149782233Y-145182070D01*
X149578325Y-145222630D01*
X149578317Y-145222632D01*
X149386231Y-145302196D01*
X149213354Y-145417709D01*
X149213350Y-145417712D01*
X149066338Y-145564724D01*
X149066335Y-145564728D01*
X148950822Y-145737605D01*
X148871258Y-145929691D01*
X148871256Y-145929699D01*
X148830696Y-146133607D01*
X148401695Y-146133607D01*
X148361134Y-145929692D01*
X148281568Y-145737603D01*
X148166056Y-145564728D01*
X148166053Y-145564724D01*
X148019041Y-145417712D01*
X148019037Y-145417709D01*
X147846160Y-145302196D01*
X147654074Y-145222632D01*
X147654066Y-145222630D01*
X147450158Y-145182070D01*
X147450154Y-145182070D01*
X147242238Y-145182070D01*
X147242233Y-145182070D01*
X147038325Y-145222630D01*
X147038317Y-145222632D01*
X146846231Y-145302196D01*
X146673354Y-145417709D01*
X146673350Y-145417712D01*
X146526338Y-145564724D01*
X146526335Y-145564728D01*
X146410822Y-145737605D01*
X146331258Y-145929691D01*
X146331256Y-145929699D01*
X146290696Y-146133607D01*
X132610196Y-146133607D01*
X132610196Y-144276020D01*
X143975696Y-144276020D01*
X143975696Y-144409120D01*
X144010145Y-144537686D01*
X144076695Y-144652954D01*
X144170812Y-144747071D01*
X144286080Y-144813621D01*
X144414646Y-144848070D01*
X144414648Y-144848070D01*
X144547744Y-144848070D01*
X144547746Y-144848070D01*
X144676312Y-144813621D01*
X144791580Y-144747071D01*
X144885697Y-144652954D01*
X144952247Y-144537686D01*
X144986696Y-144409120D01*
X144986696Y-144320473D01*
X145006381Y-144253434D01*
X145023015Y-144232792D01*
X148176906Y-141078902D01*
X154080296Y-141078902D01*
X154080296Y-141796237D01*
X154080297Y-141796238D01*
X154587529Y-142303470D01*
X155304864Y-142303469D01*
X155812096Y-141796237D01*
X155812095Y-141078902D01*
X155304863Y-140571670D01*
X154587528Y-140571670D01*
X154080296Y-141078902D01*
X148176906Y-141078902D01*
X148289251Y-140966557D01*
X148869784Y-140386024D01*
X149490657Y-139765151D01*
X149516712Y-139720023D01*
X149530877Y-139695489D01*
X149551696Y-139617790D01*
X149551696Y-136777350D01*
X149544334Y-136749876D01*
X149530877Y-136699651D01*
X149490657Y-136629988D01*
X148663777Y-135803109D01*
X148660655Y-135801306D01*
X148594120Y-135762891D01*
X148594118Y-135762890D01*
X148594115Y-135762889D01*
X148516416Y-135742070D01*
X148516415Y-135742070D01*
X148216625Y-135742070D01*
X148149586Y-135722385D01*
X148128944Y-135705751D01*
X147604863Y-135181670D01*
X146887528Y-135181670D01*
X146380296Y-135688902D01*
X146380296Y-136406237D01*
X146380297Y-136406238D01*
X146887529Y-136913470D01*
X147604864Y-136913469D01*
X148112096Y-136406237D01*
X148112096Y-136406236D01*
X148128944Y-136389389D01*
X148190267Y-136355904D01*
X148216625Y-136353070D01*
X148298292Y-136353070D01*
X148365331Y-136372755D01*
X148385973Y-136389389D01*
X148904377Y-136907793D01*
X148937862Y-136969116D01*
X148940696Y-136995474D01*
X148940696Y-139399665D01*
X148921011Y-139466704D01*
X148904377Y-139487346D01*
X144590972Y-143800751D01*
X144529649Y-143834236D01*
X144503291Y-143837070D01*
X144414646Y-143837070D01*
X144286080Y-143871519D01*
X144286077Y-143871520D01*
X144170815Y-143938067D01*
X144170809Y-143938071D01*
X144076697Y-144032183D01*
X144076693Y-144032189D01*
X144010146Y-144147451D01*
X144010145Y-144147454D01*
X143975696Y-144276020D01*
X132610196Y-144276020D01*
X132610196Y-141078902D01*
X143920296Y-141078902D01*
X143920296Y-141796237D01*
X143920297Y-141796238D01*
X144427529Y-142303470D01*
X145144864Y-142303469D01*
X145652096Y-141796237D01*
X145652095Y-141078902D01*
X145144863Y-140571670D01*
X144427528Y-140571670D01*
X143920296Y-141078902D01*
X132610196Y-141078902D01*
X132610196Y-138258902D01*
X146380296Y-138258902D01*
X146380296Y-138976237D01*
X146380297Y-138976238D01*
X146887529Y-139483470D01*
X147604864Y-139483469D01*
X148112096Y-138976237D01*
X148112095Y-138258902D01*
X147604863Y-137751670D01*
X146887528Y-137751670D01*
X146380296Y-138258902D01*
X132610196Y-138258902D01*
X132610196Y-130893607D01*
X146290696Y-130893607D01*
X146290696Y-131101532D01*
X146331256Y-131305440D01*
X146331258Y-131305448D01*
X146410822Y-131497534D01*
X146526335Y-131670411D01*
X146526338Y-131670415D01*
X146673350Y-131817427D01*
X146673354Y-131817430D01*
X146846229Y-131932942D01*
X147038318Y-132012508D01*
X147182297Y-132041147D01*
X147242233Y-132053069D01*
X147242237Y-132053070D01*
X147242238Y-132053070D01*
X147450155Y-132053070D01*
X147450156Y-132053069D01*
X147654074Y-132012508D01*
X147846163Y-131932942D01*
X148019038Y-131817430D01*
X148166056Y-131670412D01*
X148281568Y-131497537D01*
X148361134Y-131305448D01*
X148401696Y-131101528D01*
X148401696Y-130893612D01*
X148401695Y-130893607D01*
X148830696Y-130893607D01*
X148830696Y-131101532D01*
X148871256Y-131305440D01*
X148871258Y-131305448D01*
X148950822Y-131497534D01*
X149066335Y-131670411D01*
X149066338Y-131670415D01*
X149213350Y-131817427D01*
X149213354Y-131817430D01*
X149386229Y-131932942D01*
X149578318Y-132012508D01*
X149722297Y-132041147D01*
X149782233Y-132053069D01*
X149782237Y-132053070D01*
X149782238Y-132053070D01*
X149990155Y-132053070D01*
X149990156Y-132053069D01*
X150194074Y-132012508D01*
X150386163Y-131932942D01*
X150559038Y-131817430D01*
X150706056Y-131670412D01*
X150821568Y-131497537D01*
X150901134Y-131305448D01*
X150941696Y-131101528D01*
X150941696Y-130893612D01*
X150941695Y-130893607D01*
X151370696Y-130893607D01*
X151370696Y-131101532D01*
X151411256Y-131305440D01*
X151411258Y-131305448D01*
X151490822Y-131497534D01*
X151606335Y-131670411D01*
X151606338Y-131670415D01*
X151753350Y-131817427D01*
X151753354Y-131817430D01*
X151926229Y-131932942D01*
X152118318Y-132012508D01*
X152262297Y-132041147D01*
X152322233Y-132053069D01*
X152322237Y-132053070D01*
X152322238Y-132053070D01*
X152530155Y-132053070D01*
X152530156Y-132053069D01*
X152734074Y-132012508D01*
X152926163Y-131932942D01*
X153099038Y-131817430D01*
X153246056Y-131670412D01*
X153361568Y-131497537D01*
X153441134Y-131305448D01*
X153481696Y-131101528D01*
X153481696Y-130893612D01*
X153481695Y-130893607D01*
X153910696Y-130893607D01*
X153910696Y-131101532D01*
X153951256Y-131305440D01*
X153951258Y-131305448D01*
X154030822Y-131497534D01*
X154146335Y-131670411D01*
X154146338Y-131670415D01*
X154293350Y-131817427D01*
X154293354Y-131817430D01*
X154466229Y-131932942D01*
X154658318Y-132012508D01*
X154802297Y-132041147D01*
X154862233Y-132053069D01*
X154862237Y-132053070D01*
X154862238Y-132053070D01*
X155070155Y-132053070D01*
X155070156Y-132053069D01*
X155274074Y-132012508D01*
X155466163Y-131932942D01*
X155639038Y-131817430D01*
X155786056Y-131670412D01*
X155901568Y-131497537D01*
X155981134Y-131305448D01*
X156021696Y-131101528D01*
X156021696Y-130893612D01*
X156021695Y-130893607D01*
X156450696Y-130893607D01*
X156450696Y-131101532D01*
X156491256Y-131305440D01*
X156491258Y-131305448D01*
X156570822Y-131497534D01*
X156686335Y-131670411D01*
X156686338Y-131670415D01*
X156833350Y-131817427D01*
X156833354Y-131817430D01*
X157006229Y-131932942D01*
X157198318Y-132012508D01*
X157342297Y-132041147D01*
X157402233Y-132053069D01*
X157402237Y-132053070D01*
X157402238Y-132053070D01*
X157610155Y-132053070D01*
X157610156Y-132053069D01*
X157814074Y-132012508D01*
X158006163Y-131932942D01*
X158179038Y-131817430D01*
X158326056Y-131670412D01*
X158441568Y-131497537D01*
X158521134Y-131305448D01*
X158561696Y-131101528D01*
X158561696Y-130893612D01*
X158561695Y-130893607D01*
X158990696Y-130893607D01*
X158990696Y-131101532D01*
X159031256Y-131305440D01*
X159031258Y-131305448D01*
X159110822Y-131497534D01*
X159226335Y-131670411D01*
X159226338Y-131670415D01*
X159373350Y-131817427D01*
X159373354Y-131817430D01*
X159546229Y-131932942D01*
X159738318Y-132012508D01*
X159882297Y-132041147D01*
X159942233Y-132053069D01*
X159942237Y-132053070D01*
X159942238Y-132053070D01*
X160150155Y-132053070D01*
X160150156Y-132053069D01*
X160354074Y-132012508D01*
X160546163Y-131932942D01*
X160719038Y-131817430D01*
X160866056Y-131670412D01*
X160981568Y-131497537D01*
X161061134Y-131305448D01*
X161101696Y-131101528D01*
X161101696Y-130893612D01*
X161061134Y-130689692D01*
X160984445Y-130504549D01*
X160981569Y-130497605D01*
X160921739Y-130408064D01*
X160866056Y-130324728D01*
X160866053Y-130324724D01*
X160719041Y-130177712D01*
X160719037Y-130177709D01*
X160643632Y-130127325D01*
X161530696Y-130127325D01*
X161530696Y-131867814D01*
X161542617Y-131927749D01*
X161542618Y-131927750D01*
X161588038Y-131995727D01*
X161622026Y-132018437D01*
X161656014Y-132041147D01*
X161656015Y-132041147D01*
X161656016Y-132041148D01*
X161715951Y-132053069D01*
X161715955Y-132053070D01*
X161715956Y-132053070D01*
X163456437Y-132053070D01*
X163456438Y-132053069D01*
X163476597Y-132049059D01*
X163516375Y-132041148D01*
X163516375Y-132041147D01*
X163516378Y-132041147D01*
X163584353Y-131995727D01*
X163629773Y-131927752D01*
X163641696Y-131867810D01*
X163641696Y-130127330D01*
X163641587Y-130126786D01*
X163629774Y-130067390D01*
X163629773Y-130067389D01*
X163629773Y-130067388D01*
X163601282Y-130024748D01*
X163584353Y-129999412D01*
X163533486Y-129965424D01*
X163516378Y-129953993D01*
X163516377Y-129953992D01*
X163516376Y-129953992D01*
X163516375Y-129953991D01*
X163456440Y-129942070D01*
X163456436Y-129942070D01*
X161715956Y-129942070D01*
X161715951Y-129942070D01*
X161656016Y-129953991D01*
X161656015Y-129953992D01*
X161588038Y-129999412D01*
X161542618Y-130067389D01*
X161542617Y-130067390D01*
X161530696Y-130127325D01*
X160643632Y-130127325D01*
X160546160Y-130062196D01*
X160354074Y-129982632D01*
X160354066Y-129982630D01*
X160150158Y-129942070D01*
X160150154Y-129942070D01*
X159942238Y-129942070D01*
X159942233Y-129942070D01*
X159738325Y-129982630D01*
X159738317Y-129982632D01*
X159546231Y-130062196D01*
X159373354Y-130177709D01*
X159373350Y-130177712D01*
X159226338Y-130324724D01*
X159226335Y-130324728D01*
X159110822Y-130497605D01*
X159031258Y-130689691D01*
X159031256Y-130689699D01*
X158990696Y-130893607D01*
X158561695Y-130893607D01*
X158521134Y-130689692D01*
X158444445Y-130504549D01*
X158441569Y-130497605D01*
X158381739Y-130408064D01*
X158326056Y-130324728D01*
X158326053Y-130324724D01*
X158179041Y-130177712D01*
X158179037Y-130177709D01*
X158006160Y-130062196D01*
X157814074Y-129982632D01*
X157814066Y-129982630D01*
X157610158Y-129942070D01*
X157610154Y-129942070D01*
X157402238Y-129942070D01*
X157402233Y-129942070D01*
X157198325Y-129982630D01*
X157198317Y-129982632D01*
X157006231Y-130062196D01*
X156833354Y-130177709D01*
X156833350Y-130177712D01*
X156686338Y-130324724D01*
X156686335Y-130324728D01*
X156570822Y-130497605D01*
X156491258Y-130689691D01*
X156491256Y-130689699D01*
X156450696Y-130893607D01*
X156021695Y-130893607D01*
X155981134Y-130689692D01*
X155904445Y-130504549D01*
X155901569Y-130497605D01*
X155841739Y-130408064D01*
X155786056Y-130324728D01*
X155786053Y-130324724D01*
X155639041Y-130177712D01*
X155639037Y-130177709D01*
X155466160Y-130062196D01*
X155274074Y-129982632D01*
X155274066Y-129982630D01*
X155070158Y-129942070D01*
X155070154Y-129942070D01*
X154862238Y-129942070D01*
X154862233Y-129942070D01*
X154658325Y-129982630D01*
X154658317Y-129982632D01*
X154466231Y-130062196D01*
X154293354Y-130177709D01*
X154293350Y-130177712D01*
X154146338Y-130324724D01*
X154146335Y-130324728D01*
X154030822Y-130497605D01*
X153951258Y-130689691D01*
X153951256Y-130689699D01*
X153910696Y-130893607D01*
X153481695Y-130893607D01*
X153441134Y-130689692D01*
X153364445Y-130504549D01*
X153361569Y-130497605D01*
X153301739Y-130408064D01*
X153246056Y-130324728D01*
X153246053Y-130324724D01*
X153099041Y-130177712D01*
X153099037Y-130177709D01*
X152926160Y-130062196D01*
X152734074Y-129982632D01*
X152734066Y-129982630D01*
X152530158Y-129942070D01*
X152530154Y-129942070D01*
X152322238Y-129942070D01*
X152322233Y-129942070D01*
X152118325Y-129982630D01*
X152118317Y-129982632D01*
X151926231Y-130062196D01*
X151753354Y-130177709D01*
X151753350Y-130177712D01*
X151606338Y-130324724D01*
X151606335Y-130324728D01*
X151490822Y-130497605D01*
X151411258Y-130689691D01*
X151411256Y-130689699D01*
X151370696Y-130893607D01*
X150941695Y-130893607D01*
X150901134Y-130689692D01*
X150824445Y-130504549D01*
X150821569Y-130497605D01*
X150761739Y-130408064D01*
X150706056Y-130324728D01*
X150706053Y-130324724D01*
X150559041Y-130177712D01*
X150559037Y-130177709D01*
X150386160Y-130062196D01*
X150194074Y-129982632D01*
X150194066Y-129982630D01*
X149990158Y-129942070D01*
X149990154Y-129942070D01*
X149782238Y-129942070D01*
X149782233Y-129942070D01*
X149578325Y-129982630D01*
X149578317Y-129982632D01*
X149386231Y-130062196D01*
X149213354Y-130177709D01*
X149213350Y-130177712D01*
X149066338Y-130324724D01*
X149066335Y-130324728D01*
X148950822Y-130497605D01*
X148871258Y-130689691D01*
X148871256Y-130689699D01*
X148830696Y-130893607D01*
X148401695Y-130893607D01*
X148361134Y-130689692D01*
X148284445Y-130504549D01*
X148281569Y-130497605D01*
X148221739Y-130408064D01*
X148166056Y-130324728D01*
X148166053Y-130324724D01*
X148019041Y-130177712D01*
X148019037Y-130177709D01*
X147846160Y-130062196D01*
X147654074Y-129982632D01*
X147654066Y-129982630D01*
X147450158Y-129942070D01*
X147450154Y-129942070D01*
X147242238Y-129942070D01*
X147242233Y-129942070D01*
X147038325Y-129982630D01*
X147038317Y-129982632D01*
X146846231Y-130062196D01*
X146673354Y-130177709D01*
X146673350Y-130177712D01*
X146526338Y-130324724D01*
X146526335Y-130324728D01*
X146410822Y-130497605D01*
X146331258Y-130689691D01*
X146331256Y-130689699D01*
X146290696Y-130893607D01*
X132610196Y-130893607D01*
X132610196Y-127971020D01*
X168530696Y-127971020D01*
X168530696Y-128104120D01*
X168565145Y-128232686D01*
X168631695Y-128347954D01*
X168631697Y-128347956D01*
X168694377Y-128410636D01*
X168727862Y-128471959D01*
X168730696Y-128498317D01*
X168730696Y-141076823D01*
X168711011Y-141143862D01*
X168694377Y-141164504D01*
X168631697Y-141227183D01*
X168631693Y-141227189D01*
X168565146Y-141342451D01*
X168565145Y-141342454D01*
X168530696Y-141471020D01*
X168530696Y-141604120D01*
X168554263Y-141692071D01*
X168565145Y-141732685D01*
X168565146Y-141732688D01*
X168571067Y-141742944D01*
X168631695Y-141847954D01*
X168725812Y-141942071D01*
X168841080Y-142008621D01*
X168969646Y-142043070D01*
X168969648Y-142043070D01*
X169102744Y-142043070D01*
X169102746Y-142043070D01*
X169231312Y-142008621D01*
X169346580Y-141942071D01*
X169440697Y-141847954D01*
X169507247Y-141732686D01*
X169541696Y-141604120D01*
X169541696Y-141471020D01*
X169507247Y-141342454D01*
X169440697Y-141227186D01*
X169378015Y-141164504D01*
X169344530Y-141103181D01*
X169341696Y-141076823D01*
X169341696Y-131071020D01*
X173180696Y-131071020D01*
X173180696Y-131204120D01*
X173207845Y-131305440D01*
X173215145Y-131332685D01*
X173215146Y-131332688D01*
X173237328Y-131371108D01*
X173281695Y-131447954D01*
X173375812Y-131542071D01*
X173491080Y-131608621D01*
X173619646Y-131643070D01*
X173619648Y-131643070D01*
X173708292Y-131643070D01*
X173775331Y-131662755D01*
X173795973Y-131679389D01*
X173944377Y-131827793D01*
X173977862Y-131889116D01*
X173980696Y-131915474D01*
X173980696Y-140577789D01*
X174001516Y-140655492D01*
X174001517Y-140655494D01*
X174037058Y-140717051D01*
X174041735Y-140725151D01*
X174848615Y-141532031D01*
X174883446Y-141552141D01*
X174918271Y-141572248D01*
X174918273Y-141572249D01*
X174918274Y-141572249D01*
X174918277Y-141572251D01*
X174995976Y-141593070D01*
X175076416Y-141593070D01*
X178075449Y-141593070D01*
X178142488Y-141612755D01*
X178163130Y-141629389D01*
X178225812Y-141692071D01*
X178341080Y-141758621D01*
X178469646Y-141793070D01*
X178469648Y-141793070D01*
X178602744Y-141793070D01*
X178602746Y-141793070D01*
X178731312Y-141758621D01*
X178846580Y-141692071D01*
X178940697Y-141597954D01*
X179007247Y-141482686D01*
X179041696Y-141354120D01*
X179041696Y-141221020D01*
X179007247Y-141092454D01*
X178940697Y-140977186D01*
X178846580Y-140883069D01*
X178732235Y-140817052D01*
X178731314Y-140816520D01*
X178731313Y-140816519D01*
X178731312Y-140816519D01*
X178602746Y-140782070D01*
X178469646Y-140782070D01*
X178341080Y-140816519D01*
X178341077Y-140816520D01*
X178225815Y-140883067D01*
X178225809Y-140883071D01*
X178163130Y-140945751D01*
X178101807Y-140979236D01*
X178075449Y-140982070D01*
X175214100Y-140982070D01*
X175147061Y-140962385D01*
X175126419Y-140945751D01*
X174628015Y-140447347D01*
X174613311Y-140420419D01*
X174596719Y-140394601D01*
X174595827Y-140388400D01*
X174594530Y-140386024D01*
X174591696Y-140359666D01*
X174591696Y-140229876D01*
X187205296Y-140229876D01*
X187205296Y-140885271D01*
X187214056Y-140977186D01*
X187218237Y-141021061D01*
X187276685Y-141215964D01*
X187276690Y-141215974D01*
X187373171Y-141395111D01*
X187373176Y-141395117D01*
X187460044Y-141500285D01*
X187923478Y-141963718D01*
X187923483Y-141963722D01*
X188028646Y-142050588D01*
X188028647Y-142050588D01*
X188028649Y-142050590D01*
X188207799Y-142147079D01*
X188402705Y-142205529D01*
X188538502Y-142218470D01*
X188538507Y-142218470D01*
X189193890Y-142218470D01*
X189193897Y-142218470D01*
X189329686Y-142205529D01*
X189465470Y-142164809D01*
X189524590Y-142147080D01*
X189524600Y-142147075D01*
X189703737Y-142050594D01*
X189703739Y-142050591D01*
X189703743Y-142050590D01*
X189808911Y-141963722D01*
X190272344Y-141500288D01*
X190359216Y-141395117D01*
X190455705Y-141215967D01*
X190514155Y-141021061D01*
X190527096Y-140885264D01*
X190527096Y-140229869D01*
X190514155Y-140094080D01*
X190492894Y-140023186D01*
X190455706Y-139899175D01*
X190455701Y-139899165D01*
X190359220Y-139720028D01*
X190359216Y-139720023D01*
X190272348Y-139614855D01*
X189808914Y-139151422D01*
X189716754Y-139075297D01*
X189703745Y-139064551D01*
X189703741Y-139064549D01*
X189703734Y-139064545D01*
X189524593Y-138968061D01*
X189524590Y-138968060D01*
X189524588Y-138968059D01*
X189329688Y-138909611D01*
X189302527Y-138907022D01*
X189193890Y-138896670D01*
X188538495Y-138896670D01*
X188441502Y-138905913D01*
X188402704Y-138909611D01*
X188207801Y-138968059D01*
X188207791Y-138968064D01*
X188028654Y-139064545D01*
X187923479Y-139151419D01*
X187460048Y-139614851D01*
X187373177Y-139720020D01*
X187373176Y-139720023D01*
X187294947Y-139865271D01*
X187276685Y-139899177D01*
X187218237Y-140094077D01*
X187218237Y-140094078D01*
X187218237Y-140094079D01*
X187205296Y-140229876D01*
X174591696Y-140229876D01*
X174591696Y-136749876D01*
X190555296Y-136749876D01*
X190555296Y-137405271D01*
X190566388Y-137521661D01*
X190568237Y-137541061D01*
X190626685Y-137735964D01*
X190626690Y-137735974D01*
X190723171Y-137915111D01*
X190810045Y-138020286D01*
X191273477Y-138483717D01*
X191378646Y-138570588D01*
X191378647Y-138570588D01*
X191378649Y-138570590D01*
X191557799Y-138667079D01*
X191752705Y-138725529D01*
X191888502Y-138738470D01*
X192040561Y-138738470D01*
X192107600Y-138758155D01*
X192153355Y-138810959D01*
X192163299Y-138880117D01*
X192134274Y-138943673D01*
X192116047Y-138960846D01*
X192101257Y-138972194D01*
X192101250Y-138972200D01*
X191930826Y-139142624D01*
X191930820Y-139142631D01*
X191784099Y-139333842D01*
X191784088Y-139333858D01*
X191663581Y-139542581D01*
X191663573Y-139542597D01*
X191571339Y-139765272D01*
X191508957Y-139998088D01*
X191477496Y-140237047D01*
X191477496Y-140478092D01*
X191505024Y-140687181D01*
X191508957Y-140717052D01*
X191531790Y-140802267D01*
X191571339Y-140949867D01*
X191663573Y-141172542D01*
X191663581Y-141172558D01*
X191784088Y-141381281D01*
X191784099Y-141381297D01*
X191930820Y-141572508D01*
X191930826Y-141572515D01*
X192101250Y-141742939D01*
X192101257Y-141742945D01*
X192166580Y-141793069D01*
X192292477Y-141889673D01*
X192292484Y-141889677D01*
X192501207Y-142010184D01*
X192501223Y-142010192D01*
X192640086Y-142067710D01*
X192723897Y-142102426D01*
X192956714Y-142164809D01*
X193195681Y-142196270D01*
X193195688Y-142196270D01*
X193436704Y-142196270D01*
X193436711Y-142196270D01*
X193675678Y-142164809D01*
X193908495Y-142102426D01*
X194076116Y-142032994D01*
X194131168Y-142010192D01*
X194131171Y-142010190D01*
X194131177Y-142010188D01*
X194339915Y-141889673D01*
X194531136Y-141742944D01*
X194701570Y-141572510D01*
X194848299Y-141381289D01*
X194968814Y-141172551D01*
X194980698Y-141143862D01*
X195001991Y-141092454D01*
X195061052Y-140949869D01*
X195123435Y-140717052D01*
X195154896Y-140478085D01*
X195154896Y-140337047D01*
X195427496Y-140337047D01*
X195427496Y-140578092D01*
X195458957Y-140817051D01*
X195521339Y-141049867D01*
X195613573Y-141272542D01*
X195613581Y-141272558D01*
X195734088Y-141481281D01*
X195734099Y-141481297D01*
X195880820Y-141672508D01*
X195880826Y-141672515D01*
X196051250Y-141842939D01*
X196051257Y-141842945D01*
X196180437Y-141942068D01*
X196242477Y-141989673D01*
X196242484Y-141989677D01*
X196451207Y-142110184D01*
X196451223Y-142110192D01*
X196583079Y-142164808D01*
X196673897Y-142202426D01*
X196906714Y-142264809D01*
X197145681Y-142296270D01*
X197145688Y-142296270D01*
X197386704Y-142296270D01*
X197386711Y-142296270D01*
X197625678Y-142264809D01*
X197858495Y-142202426D01*
X198026116Y-142132994D01*
X198081168Y-142110192D01*
X198081171Y-142110190D01*
X198081177Y-142110188D01*
X198289915Y-141989673D01*
X198481136Y-141842944D01*
X198651570Y-141672510D01*
X198798299Y-141481289D01*
X198918814Y-141272551D01*
X199011052Y-141049869D01*
X199073435Y-140817052D01*
X199104896Y-140578085D01*
X199104896Y-140337055D01*
X199091730Y-140237047D01*
X199777496Y-140237047D01*
X199777496Y-140478092D01*
X199805024Y-140687181D01*
X199808957Y-140717052D01*
X199831790Y-140802267D01*
X199871339Y-140949867D01*
X199963573Y-141172542D01*
X199963581Y-141172558D01*
X200084088Y-141381281D01*
X200084099Y-141381297D01*
X200230820Y-141572508D01*
X200230826Y-141572515D01*
X200401250Y-141742939D01*
X200401257Y-141742945D01*
X200466580Y-141793069D01*
X200592477Y-141889673D01*
X200592484Y-141889677D01*
X200801207Y-142010184D01*
X200801223Y-142010192D01*
X200940086Y-142067710D01*
X201023897Y-142102426D01*
X201256714Y-142164809D01*
X201495681Y-142196270D01*
X201495688Y-142196270D01*
X201736704Y-142196270D01*
X201736711Y-142196270D01*
X201975678Y-142164809D01*
X202208495Y-142102426D01*
X202376116Y-142032994D01*
X202431168Y-142010192D01*
X202431171Y-142010190D01*
X202431177Y-142010188D01*
X202639915Y-141889673D01*
X202831136Y-141742944D01*
X203001570Y-141572510D01*
X203148299Y-141381289D01*
X203268814Y-141172551D01*
X203280698Y-141143862D01*
X203301991Y-141092454D01*
X203361052Y-140949869D01*
X203423435Y-140717052D01*
X203443257Y-140566489D01*
X203471524Y-140502594D01*
X203529848Y-140464123D01*
X203599713Y-140463292D01*
X203658936Y-140500364D01*
X203688715Y-140563570D01*
X203689133Y-140566480D01*
X203708957Y-140717052D01*
X203731790Y-140802267D01*
X203771339Y-140949867D01*
X203863573Y-141172542D01*
X203863581Y-141172558D01*
X203984088Y-141381281D01*
X203984099Y-141381297D01*
X204130820Y-141572508D01*
X204130826Y-141572515D01*
X204301250Y-141742939D01*
X204301257Y-141742945D01*
X204366580Y-141793069D01*
X204492477Y-141889673D01*
X204492484Y-141889677D01*
X204701207Y-142010184D01*
X204701223Y-142010192D01*
X204840086Y-142067710D01*
X204923897Y-142102426D01*
X205156714Y-142164809D01*
X205395681Y-142196270D01*
X205395688Y-142196270D01*
X205636704Y-142196270D01*
X205636711Y-142196270D01*
X205875678Y-142164809D01*
X206108495Y-142102426D01*
X206276116Y-142032994D01*
X206331168Y-142010192D01*
X206331171Y-142010190D01*
X206331177Y-142010188D01*
X206539915Y-141889673D01*
X206731136Y-141742944D01*
X206901570Y-141572510D01*
X207048299Y-141381289D01*
X207168814Y-141172551D01*
X207180698Y-141143862D01*
X207201991Y-141092454D01*
X207261052Y-140949869D01*
X207323435Y-140717052D01*
X207354896Y-140478085D01*
X207354896Y-140237055D01*
X207323435Y-139998088D01*
X207261052Y-139765271D01*
X207210239Y-139642597D01*
X207168818Y-139542597D01*
X207168810Y-139542581D01*
X207048303Y-139333858D01*
X207048299Y-139333851D01*
X206984202Y-139250318D01*
X206901571Y-139142631D01*
X206901565Y-139142624D01*
X206731141Y-138972200D01*
X206731134Y-138972194D01*
X206539923Y-138825473D01*
X206539921Y-138825471D01*
X206539915Y-138825467D01*
X206539910Y-138825464D01*
X206539907Y-138825462D01*
X206331184Y-138704955D01*
X206331168Y-138704947D01*
X206108493Y-138612713D01*
X205951278Y-138570588D01*
X205875678Y-138550331D01*
X205845807Y-138546398D01*
X205636718Y-138518870D01*
X205636711Y-138518870D01*
X205395681Y-138518870D01*
X205395673Y-138518870D01*
X205156714Y-138550331D01*
X204923898Y-138612713D01*
X204701223Y-138704947D01*
X204701207Y-138704955D01*
X204492484Y-138825462D01*
X204492468Y-138825473D01*
X204301257Y-138972194D01*
X204301250Y-138972200D01*
X204130826Y-139142624D01*
X204130820Y-139142631D01*
X203984099Y-139333842D01*
X203984088Y-139333858D01*
X203863581Y-139542581D01*
X203863573Y-139542597D01*
X203771339Y-139765272D01*
X203708957Y-139998089D01*
X203689135Y-140148649D01*
X203660868Y-140212545D01*
X203602544Y-140251016D01*
X203532679Y-140251847D01*
X203473456Y-140214775D01*
X203443677Y-140151569D01*
X203443257Y-140148649D01*
X203436600Y-140098088D01*
X203423435Y-139998088D01*
X203361052Y-139765271D01*
X203310239Y-139642597D01*
X203268818Y-139542597D01*
X203268810Y-139542581D01*
X203148303Y-139333858D01*
X203148299Y-139333851D01*
X203084202Y-139250318D01*
X203001571Y-139142631D01*
X203001565Y-139142624D01*
X202831141Y-138972200D01*
X202831134Y-138972194D01*
X202639923Y-138825473D01*
X202639921Y-138825471D01*
X202639915Y-138825467D01*
X202639910Y-138825464D01*
X202639907Y-138825462D01*
X202431184Y-138704955D01*
X202431168Y-138704947D01*
X202208493Y-138612713D01*
X202051278Y-138570588D01*
X201975678Y-138550331D01*
X201945807Y-138546398D01*
X201736718Y-138518870D01*
X201736711Y-138518870D01*
X201495681Y-138518870D01*
X201495673Y-138518870D01*
X201256714Y-138550331D01*
X201023898Y-138612713D01*
X200801223Y-138704947D01*
X200801207Y-138704955D01*
X200592484Y-138825462D01*
X200592468Y-138825473D01*
X200401257Y-138972194D01*
X200401250Y-138972200D01*
X200230826Y-139142624D01*
X200230820Y-139142631D01*
X200084099Y-139333842D01*
X200084088Y-139333858D01*
X199963581Y-139542581D01*
X199963573Y-139542597D01*
X199871339Y-139765272D01*
X199808957Y-139998088D01*
X199777496Y-140237047D01*
X199091730Y-140237047D01*
X199073435Y-140098088D01*
X199011052Y-139865271D01*
X198969578Y-139765144D01*
X198918818Y-139642597D01*
X198918810Y-139642581D01*
X198798303Y-139433858D01*
X198798299Y-139433851D01*
X198685338Y-139286637D01*
X198651571Y-139242631D01*
X198651565Y-139242624D01*
X198481141Y-139072200D01*
X198481134Y-139072194D01*
X198289923Y-138925473D01*
X198289921Y-138925471D01*
X198289915Y-138925467D01*
X198289910Y-138925464D01*
X198289907Y-138925462D01*
X198081184Y-138804955D01*
X198081168Y-138804947D01*
X197858493Y-138712713D01*
X197688186Y-138667080D01*
X197625678Y-138650331D01*
X197595807Y-138646398D01*
X197386718Y-138618870D01*
X197386711Y-138618870D01*
X197145681Y-138618870D01*
X197145673Y-138618870D01*
X196906714Y-138650331D01*
X196673898Y-138712713D01*
X196451223Y-138804947D01*
X196451207Y-138804955D01*
X196242484Y-138925462D01*
X196242468Y-138925473D01*
X196051257Y-139072194D01*
X196051250Y-139072200D01*
X195880826Y-139242624D01*
X195880820Y-139242631D01*
X195734099Y-139433842D01*
X195734088Y-139433858D01*
X195613581Y-139642581D01*
X195613573Y-139642597D01*
X195521339Y-139865272D01*
X195458957Y-140098088D01*
X195427496Y-140337047D01*
X195154896Y-140337047D01*
X195154896Y-140237055D01*
X195123435Y-139998088D01*
X195061052Y-139765271D01*
X195010239Y-139642597D01*
X194968818Y-139542597D01*
X194968810Y-139542581D01*
X194848303Y-139333858D01*
X194848299Y-139333851D01*
X194784202Y-139250318D01*
X194701571Y-139142631D01*
X194701565Y-139142624D01*
X194531141Y-138972200D01*
X194531134Y-138972194D01*
X194339923Y-138825473D01*
X194339921Y-138825471D01*
X194339915Y-138825467D01*
X194339910Y-138825464D01*
X194339907Y-138825462D01*
X194131184Y-138704955D01*
X194131168Y-138704947D01*
X193908493Y-138612713D01*
X193751278Y-138570588D01*
X193675678Y-138550331D01*
X193645807Y-138546398D01*
X193436718Y-138518870D01*
X193436711Y-138518870D01*
X193423125Y-138518870D01*
X193356086Y-138499185D01*
X193310331Y-138446381D01*
X193300387Y-138377223D01*
X193329412Y-138313667D01*
X193335444Y-138307189D01*
X193470554Y-138172078D01*
X193622344Y-138020288D01*
X193696058Y-137931047D01*
X208507496Y-137931047D01*
X208507496Y-138172092D01*
X208523841Y-138296237D01*
X208538957Y-138411052D01*
X208558428Y-138483718D01*
X208601339Y-138643867D01*
X208693573Y-138866542D01*
X208693581Y-138866558D01*
X208814088Y-139075281D01*
X208814099Y-139075297D01*
X208960820Y-139266508D01*
X208960826Y-139266515D01*
X209131250Y-139436939D01*
X209131257Y-139436945D01*
X209191890Y-139483470D01*
X209322477Y-139583673D01*
X209322484Y-139583677D01*
X209531207Y-139704184D01*
X209531223Y-139704192D01*
X209670086Y-139761710D01*
X209753897Y-139796426D01*
X209986714Y-139858809D01*
X210225681Y-139890270D01*
X210225688Y-139890270D01*
X210466704Y-139890270D01*
X210466711Y-139890270D01*
X210705678Y-139858809D01*
X210938495Y-139796426D01*
X211122955Y-139720020D01*
X211161168Y-139704192D01*
X211161171Y-139704190D01*
X211161177Y-139704188D01*
X211369915Y-139583673D01*
X211561136Y-139436944D01*
X211731570Y-139266510D01*
X211878299Y-139075289D01*
X211998814Y-138866551D01*
X212091052Y-138643869D01*
X212153435Y-138411052D01*
X212184896Y-138172085D01*
X212184896Y-137931055D01*
X212153435Y-137692088D01*
X212091052Y-137459271D01*
X212056336Y-137375460D01*
X211998818Y-137236597D01*
X211998810Y-137236581D01*
X211878303Y-137027858D01*
X211878299Y-137027851D01*
X211731570Y-136836630D01*
X211731565Y-136836624D01*
X211561141Y-136666200D01*
X211561134Y-136666194D01*
X211369923Y-136519473D01*
X211369921Y-136519471D01*
X211369915Y-136519467D01*
X211369910Y-136519464D01*
X211369907Y-136519462D01*
X211161184Y-136398955D01*
X211161168Y-136398947D01*
X210938493Y-136306713D01*
X210790893Y-136267164D01*
X210705678Y-136244331D01*
X210672933Y-136240020D01*
X210466718Y-136212870D01*
X210466711Y-136212870D01*
X210225681Y-136212870D01*
X210225673Y-136212870D01*
X209986714Y-136244331D01*
X209753898Y-136306713D01*
X209531223Y-136398947D01*
X209531207Y-136398955D01*
X209322484Y-136519462D01*
X209322468Y-136519473D01*
X209131257Y-136666194D01*
X209131250Y-136666200D01*
X208960826Y-136836624D01*
X208960820Y-136836631D01*
X208814099Y-137027842D01*
X208814088Y-137027858D01*
X208693581Y-137236581D01*
X208693573Y-137236597D01*
X208601339Y-137459272D01*
X208538957Y-137692088D01*
X208507496Y-137931047D01*
X193696058Y-137931047D01*
X193709216Y-137915117D01*
X193709219Y-137915112D01*
X193734488Y-137868196D01*
X193754487Y-137831061D01*
X193805705Y-137735967D01*
X193864155Y-137541061D01*
X193877096Y-137405264D01*
X193877096Y-136749869D01*
X193864155Y-136614080D01*
X193839117Y-136530590D01*
X193805706Y-136419175D01*
X193805701Y-136419165D01*
X193709220Y-136240028D01*
X193709216Y-136240023D01*
X193622348Y-136134855D01*
X193158914Y-135671422D01*
X193127836Y-135645751D01*
X193053745Y-135584551D01*
X193053741Y-135584549D01*
X193053734Y-135584545D01*
X192874593Y-135488061D01*
X192874590Y-135488060D01*
X192874588Y-135488059D01*
X192679688Y-135429611D01*
X192652527Y-135427022D01*
X192543890Y-135416670D01*
X191888495Y-135416670D01*
X191791502Y-135425913D01*
X191752704Y-135429611D01*
X191557801Y-135488059D01*
X191557791Y-135488064D01*
X191378654Y-135584545D01*
X191273479Y-135671419D01*
X190810048Y-136134851D01*
X190723177Y-136240020D01*
X190723175Y-136240024D01*
X190662290Y-136353070D01*
X190642729Y-136389389D01*
X190626685Y-136419177D01*
X190568237Y-136614077D01*
X190565092Y-136647079D01*
X190555296Y-136749876D01*
X174591696Y-136749876D01*
X174591696Y-131697352D01*
X174591696Y-131697350D01*
X174584334Y-131669876D01*
X190555296Y-131669876D01*
X190555296Y-132325271D01*
X190566388Y-132441661D01*
X190568237Y-132461061D01*
X190626685Y-132655964D01*
X190626690Y-132655974D01*
X190723171Y-132835111D01*
X190723176Y-132835117D01*
X190810044Y-132940285D01*
X191273478Y-133403718D01*
X191273483Y-133403722D01*
X191378646Y-133490588D01*
X191378647Y-133490588D01*
X191378649Y-133490590D01*
X191557799Y-133587079D01*
X191752705Y-133645529D01*
X191888502Y-133658470D01*
X191888507Y-133658470D01*
X192543890Y-133658470D01*
X192543897Y-133658470D01*
X192679686Y-133645529D01*
X192803698Y-133608339D01*
X192874590Y-133587080D01*
X192874600Y-133587075D01*
X193053737Y-133490594D01*
X193053739Y-133490591D01*
X193053743Y-133490590D01*
X193158911Y-133403722D01*
X193622344Y-132940288D01*
X193709216Y-132835117D01*
X193805705Y-132655967D01*
X193864155Y-132461061D01*
X193877096Y-132325264D01*
X193877096Y-131669869D01*
X193864155Y-131534080D01*
X193842894Y-131463186D01*
X193805706Y-131339175D01*
X193805701Y-131339165D01*
X193709220Y-131160028D01*
X193709216Y-131160023D01*
X193622348Y-131054855D01*
X193158914Y-130591422D01*
X193158909Y-130591418D01*
X193053745Y-130504551D01*
X193053741Y-130504549D01*
X193040848Y-130497605D01*
X192874593Y-130408061D01*
X192874590Y-130408060D01*
X192874588Y-130408059D01*
X192679688Y-130349611D01*
X192652527Y-130347022D01*
X192543890Y-130336670D01*
X191888495Y-130336670D01*
X191791502Y-130345913D01*
X191752704Y-130349611D01*
X191557801Y-130408059D01*
X191557791Y-130408064D01*
X191378654Y-130504545D01*
X191273479Y-130591419D01*
X190810048Y-131054851D01*
X190723177Y-131160020D01*
X190723175Y-131160024D01*
X190696491Y-131209568D01*
X190630182Y-131332685D01*
X190626685Y-131339177D01*
X190568237Y-131534077D01*
X190568237Y-131534078D01*
X190568237Y-131534079D01*
X190555296Y-131669876D01*
X174584334Y-131669876D01*
X174570877Y-131619651D01*
X174530657Y-131549989D01*
X174473777Y-131493109D01*
X174228015Y-131247347D01*
X174194530Y-131186024D01*
X174191696Y-131159666D01*
X174191696Y-131071022D01*
X174191696Y-131071020D01*
X174157247Y-130942454D01*
X174090697Y-130827186D01*
X173996580Y-130733069D01*
X173881312Y-130666519D01*
X173752746Y-130632070D01*
X173619646Y-130632070D01*
X173491080Y-130666519D01*
X173491077Y-130666520D01*
X173375815Y-130733067D01*
X173375809Y-130733071D01*
X173281697Y-130827183D01*
X173281693Y-130827189D01*
X173215146Y-130942451D01*
X173215145Y-130942454D01*
X173180696Y-131071020D01*
X169341696Y-131071020D01*
X169341696Y-129944902D01*
X209847936Y-129944902D01*
X209847936Y-129944906D01*
X209853950Y-130148293D01*
X209853950Y-130148299D01*
X209900782Y-130346314D01*
X209900783Y-130346316D01*
X209957474Y-130470389D01*
X210303231Y-131069257D01*
X210326202Y-131101528D01*
X210382333Y-131180385D01*
X210515008Y-131305440D01*
X210530405Y-131319953D01*
X210703542Y-131426857D01*
X210756917Y-131446753D01*
X210831347Y-131474498D01*
X210831349Y-131474498D01*
X210831356Y-131474501D01*
X211499308Y-131653477D01*
X211633824Y-131676125D01*
X211837218Y-131670111D01*
X212035237Y-131623278D01*
X212159310Y-131566587D01*
X212758178Y-131220830D01*
X212869304Y-131141729D01*
X213008874Y-130993656D01*
X213115778Y-130820519D01*
X213163422Y-130692705D01*
X213342398Y-130024753D01*
X213365046Y-129890237D01*
X213359032Y-129686843D01*
X213312199Y-129488824D01*
X213255508Y-129364751D01*
X212909751Y-128765883D01*
X212830650Y-128654757D01*
X212830648Y-128654754D01*
X212682578Y-128515188D01*
X212682577Y-128515187D01*
X212569427Y-128445322D01*
X212509441Y-128408283D01*
X212381634Y-128360641D01*
X212381629Y-128360640D01*
X212381627Y-128360639D01*
X212381626Y-128360639D01*
X211713674Y-128181663D01*
X211713670Y-128181662D01*
X211713669Y-128181662D01*
X211670679Y-128174424D01*
X211579158Y-128159015D01*
X211579156Y-128159015D01*
X211497800Y-128161420D01*
X211375764Y-128165029D01*
X211375761Y-128165029D01*
X211177746Y-128211861D01*
X211177744Y-128211862D01*
X211053671Y-128268553D01*
X210454805Y-128614309D01*
X210343675Y-128693412D01*
X210204109Y-128841482D01*
X210097204Y-129014619D01*
X210049562Y-129142426D01*
X210049561Y-129142431D01*
X210049560Y-129142435D01*
X209903687Y-129686846D01*
X209870583Y-129810391D01*
X209847936Y-129944902D01*
X169341696Y-129944902D01*
X169341696Y-128498317D01*
X169361381Y-128431278D01*
X169378015Y-128410636D01*
X169380368Y-128408283D01*
X169440697Y-128347954D01*
X169507247Y-128232686D01*
X169541696Y-128104120D01*
X169541696Y-127971020D01*
X169507247Y-127842454D01*
X169440697Y-127727186D01*
X169346580Y-127633069D01*
X169231312Y-127566519D01*
X169102746Y-127532070D01*
X168969646Y-127532070D01*
X168841080Y-127566519D01*
X168841077Y-127566520D01*
X168725815Y-127633067D01*
X168725809Y-127633071D01*
X168631697Y-127727183D01*
X168631693Y-127727189D01*
X168565146Y-127842451D01*
X168565145Y-127842454D01*
X168530696Y-127971020D01*
X132610196Y-127971020D01*
X132610196Y-125044038D01*
X173869500Y-125044038D01*
X173869500Y-125295962D01*
X173879811Y-125361060D01*
X173908910Y-125544785D01*
X173986760Y-125784383D01*
X174065413Y-125938747D01*
X174083980Y-125975187D01*
X174101132Y-126008848D01*
X174249201Y-126212649D01*
X174249205Y-126212654D01*
X174427345Y-126390794D01*
X174427350Y-126390798D01*
X174573545Y-126497014D01*
X174631155Y-126538870D01*
X174774184Y-126611747D01*
X174855616Y-126653239D01*
X174855618Y-126653239D01*
X174855621Y-126653241D01*
X175095215Y-126731090D01*
X175344038Y-126770500D01*
X175344039Y-126770500D01*
X175595961Y-126770500D01*
X175595962Y-126770500D01*
X175844785Y-126731090D01*
X176084379Y-126653241D01*
X176226166Y-126580997D01*
X189261196Y-126580997D01*
X189261196Y-126687570D01*
X190080945Y-126687570D01*
X190049815Y-126741489D01*
X190015196Y-126870690D01*
X190015196Y-127004450D01*
X190049815Y-127133651D01*
X190080945Y-127187570D01*
X189261196Y-127187570D01*
X189261196Y-127294144D01*
X189271745Y-127378126D01*
X189326766Y-127510959D01*
X189378688Y-127577797D01*
X189378699Y-127577810D01*
X189882955Y-128082066D01*
X189882968Y-128082077D01*
X189949806Y-128133999D01*
X190082640Y-128189020D01*
X190166623Y-128199569D01*
X190166630Y-128199570D01*
X190273196Y-128199570D01*
X190273196Y-127379821D01*
X190327115Y-127410951D01*
X190456316Y-127445570D01*
X190590076Y-127445570D01*
X190719277Y-127410951D01*
X190773196Y-127379821D01*
X190773196Y-128199570D01*
X190879769Y-128199570D01*
X190879770Y-128199569D01*
X190963752Y-128189020D01*
X191096585Y-128133999D01*
X191163423Y-128082077D01*
X191163436Y-128082066D01*
X191667692Y-127577810D01*
X191667703Y-127577797D01*
X191719625Y-127510959D01*
X191719625Y-127510958D01*
X191774646Y-127378125D01*
X191785195Y-127294142D01*
X191785196Y-127294136D01*
X191785196Y-127187570D01*
X190965447Y-127187570D01*
X190996577Y-127133651D01*
X191031196Y-127004450D01*
X191031196Y-126870690D01*
X190996577Y-126741489D01*
X190965447Y-126687570D01*
X191785196Y-126687570D01*
X191785196Y-126580997D01*
X191785195Y-126580990D01*
X191785108Y-126580293D01*
X191783537Y-126567792D01*
X203746696Y-126567792D01*
X203746696Y-127307355D01*
X203755993Y-127404903D01*
X203759637Y-127443145D01*
X203818085Y-127638048D01*
X203818090Y-127638058D01*
X203914571Y-127817195D01*
X203914576Y-127817201D01*
X204001444Y-127922369D01*
X204524394Y-128445318D01*
X204524399Y-128445322D01*
X204629562Y-128532188D01*
X204629573Y-128532195D01*
X204808707Y-128628675D01*
X204808717Y-128628680D01*
X204895665Y-128654754D01*
X205003622Y-128687129D01*
X205139418Y-128700070D01*
X205139423Y-128700070D01*
X205878974Y-128700070D01*
X205878981Y-128700070D01*
X206014770Y-128687129D01*
X206138782Y-128649939D01*
X206209674Y-128628680D01*
X206209684Y-128628675D01*
X206388821Y-128532194D01*
X206388823Y-128532191D01*
X206388827Y-128532190D01*
X206493995Y-128445322D01*
X207016944Y-127922372D01*
X207103816Y-127817201D01*
X207200305Y-127638050D01*
X207201799Y-127633071D01*
X207238418Y-127510958D01*
X207258755Y-127443144D01*
X207271696Y-127307348D01*
X207271696Y-126567785D01*
X207258755Y-126431996D01*
X207219616Y-126301484D01*
X207200306Y-126237091D01*
X207200301Y-126237081D01*
X207103820Y-126057944D01*
X207103816Y-126057939D01*
X207016948Y-125952771D01*
X206493998Y-125429822D01*
X206493993Y-125429818D01*
X206388829Y-125342951D01*
X206388818Y-125342944D01*
X206209684Y-125246464D01*
X206209674Y-125246459D01*
X206014770Y-125188011D01*
X205878974Y-125175070D01*
X205139411Y-125175070D01*
X205042418Y-125184313D01*
X205003620Y-125188011D01*
X204808717Y-125246459D01*
X204808707Y-125246464D01*
X204629570Y-125342945D01*
X204524395Y-125429819D01*
X204001448Y-125952767D01*
X203914577Y-126057936D01*
X203914570Y-126057947D01*
X203818090Y-126237081D01*
X203818085Y-126237091D01*
X203759637Y-126431995D01*
X203759637Y-126431996D01*
X203746696Y-126567792D01*
X191783537Y-126567792D01*
X191774645Y-126497013D01*
X191719625Y-126364180D01*
X191667703Y-126297342D01*
X191667692Y-126297329D01*
X191163436Y-125793073D01*
X191163423Y-125793062D01*
X191096585Y-125741140D01*
X190963751Y-125686119D01*
X190879768Y-125675570D01*
X190773196Y-125675570D01*
X190773196Y-126495318D01*
X190719277Y-126464189D01*
X190590076Y-126429570D01*
X190456316Y-126429570D01*
X190327115Y-126464189D01*
X190273196Y-126495318D01*
X190273196Y-125675570D01*
X190166621Y-125675570D01*
X190082639Y-125686119D01*
X189949806Y-125741140D01*
X189882968Y-125793062D01*
X189882955Y-125793073D01*
X189378699Y-126297329D01*
X189378688Y-126297342D01*
X189326766Y-126364180D01*
X189326766Y-126364181D01*
X189271745Y-126497014D01*
X189261196Y-126580997D01*
X176226166Y-126580997D01*
X176308845Y-126538870D01*
X176366455Y-126497014D01*
X176394267Y-126476808D01*
X176512649Y-126390798D01*
X176512647Y-126390798D01*
X176512656Y-126390793D01*
X176690793Y-126212656D01*
X176838870Y-126008845D01*
X176953241Y-125784379D01*
X177031090Y-125544785D01*
X177070500Y-125295962D01*
X177070500Y-125044038D01*
X177031090Y-124795215D01*
X176953241Y-124555621D01*
X176953239Y-124555618D01*
X176953239Y-124555616D01*
X176881122Y-124414080D01*
X176838870Y-124331155D01*
X176772042Y-124239174D01*
X176690798Y-124127350D01*
X176690794Y-124127345D01*
X176512654Y-123949205D01*
X176512649Y-123949201D01*
X176308848Y-123801132D01*
X176308847Y-123801131D01*
X176308845Y-123801130D01*
X176238747Y-123765413D01*
X176084383Y-123686760D01*
X175844785Y-123608910D01*
X175814536Y-123604119D01*
X175595962Y-123569500D01*
X175344038Y-123569500D01*
X175219626Y-123589205D01*
X175095214Y-123608910D01*
X174855616Y-123686760D01*
X174631151Y-123801132D01*
X174427350Y-123949201D01*
X174427345Y-123949205D01*
X174249205Y-124127345D01*
X174249201Y-124127350D01*
X174101132Y-124331151D01*
X173986760Y-124555616D01*
X173982127Y-124569876D01*
X173908910Y-124795215D01*
X173869500Y-125044038D01*
X132610196Y-125044038D01*
X132610196Y-123471020D01*
X213010696Y-123471020D01*
X213010696Y-123604120D01*
X213045145Y-123732686D01*
X213111695Y-123847954D01*
X213205812Y-123942071D01*
X213321080Y-124008621D01*
X213449646Y-124043070D01*
X213449648Y-124043070D01*
X213538292Y-124043070D01*
X213605331Y-124062755D01*
X213625973Y-124079389D01*
X215226000Y-125679416D01*
X215259485Y-125740739D01*
X215254501Y-125810431D01*
X215212629Y-125866364D01*
X215200320Y-125874484D01*
X214967602Y-126008845D01*
X214882556Y-126057947D01*
X214854211Y-126074312D01*
X214743085Y-126153412D01*
X214603519Y-126301482D01*
X214496614Y-126474619D01*
X214448972Y-126602426D01*
X214448971Y-126602431D01*
X214448970Y-126602435D01*
X214303097Y-127146846D01*
X214269993Y-127270391D01*
X214247346Y-127404902D01*
X214247346Y-127404906D01*
X214253360Y-127608293D01*
X214253360Y-127608299D01*
X214300192Y-127806314D01*
X214300193Y-127806316D01*
X214356884Y-127930389D01*
X214702641Y-128529257D01*
X214742191Y-128584820D01*
X214781743Y-128640385D01*
X214845064Y-128700069D01*
X214929815Y-128779953D01*
X215102952Y-128886857D01*
X215156327Y-128906753D01*
X215230757Y-128934498D01*
X215230759Y-128934498D01*
X215230766Y-128934501D01*
X215898718Y-129113477D01*
X216033234Y-129136125D01*
X216236628Y-129130111D01*
X216434647Y-129083278D01*
X216558720Y-129026587D01*
X217157588Y-128680830D01*
X217268714Y-128601729D01*
X217408284Y-128453656D01*
X217515188Y-128280519D01*
X217562832Y-128152705D01*
X217741808Y-127484753D01*
X217764456Y-127350237D01*
X217758442Y-127146843D01*
X217711609Y-126948824D01*
X217654918Y-126824751D01*
X217309161Y-126225883D01*
X217230060Y-126114757D01*
X217230058Y-126114754D01*
X217081988Y-125975188D01*
X217081987Y-125975187D01*
X217015755Y-125934291D01*
X216908851Y-125868283D01*
X216781044Y-125820641D01*
X216781039Y-125820640D01*
X216781037Y-125820639D01*
X216781036Y-125820639D01*
X216461869Y-125735119D01*
X216113089Y-125641664D01*
X216113075Y-125641661D01*
X216079102Y-125635941D01*
X216016262Y-125605397D01*
X216012011Y-125601343D01*
X214960544Y-124549876D01*
X220205296Y-124549876D01*
X220205296Y-125205271D01*
X220209222Y-125246461D01*
X220218237Y-125341061D01*
X220276685Y-125535964D01*
X220276690Y-125535974D01*
X220373171Y-125715111D01*
X220373176Y-125715117D01*
X220460044Y-125820285D01*
X220923478Y-126283718D01*
X220923483Y-126283722D01*
X221028646Y-126370588D01*
X221028647Y-126370588D01*
X221028649Y-126370590D01*
X221207799Y-126467079D01*
X221402705Y-126525529D01*
X221538502Y-126538470D01*
X221538507Y-126538470D01*
X222193890Y-126538470D01*
X222193897Y-126538470D01*
X222329686Y-126525529D01*
X222457897Y-126487080D01*
X222524590Y-126467080D01*
X222524600Y-126467075D01*
X222703737Y-126370594D01*
X222703739Y-126370591D01*
X222703743Y-126370590D01*
X222808911Y-126283722D01*
X223272344Y-125820288D01*
X223359216Y-125715117D01*
X223455705Y-125535967D01*
X223514155Y-125341061D01*
X223527096Y-125205264D01*
X223527096Y-124569876D01*
X223855296Y-124569876D01*
X223855296Y-125225271D01*
X223857316Y-125246464D01*
X223868237Y-125361061D01*
X223926685Y-125555964D01*
X223926690Y-125555974D01*
X224023171Y-125735111D01*
X224023176Y-125735117D01*
X224110044Y-125840285D01*
X224573478Y-126303718D01*
X224573483Y-126303722D01*
X224678646Y-126390588D01*
X224678647Y-126390588D01*
X224678649Y-126390590D01*
X224857799Y-126487079D01*
X225052705Y-126545529D01*
X225188502Y-126558470D01*
X225188507Y-126558470D01*
X225843890Y-126558470D01*
X225843897Y-126558470D01*
X225979686Y-126545529D01*
X226103698Y-126508339D01*
X226174590Y-126487080D01*
X226174600Y-126487075D01*
X226353737Y-126390594D01*
X226353739Y-126390591D01*
X226353743Y-126390590D01*
X226458911Y-126303722D01*
X226922344Y-125840288D01*
X227009216Y-125735117D01*
X227105705Y-125555967D01*
X227164155Y-125361061D01*
X227177096Y-125225264D01*
X227177096Y-124569869D01*
X227164155Y-124434080D01*
X227133288Y-124331151D01*
X227105706Y-124239175D01*
X227105701Y-124239165D01*
X227009220Y-124060028D01*
X227009216Y-124060023D01*
X226922348Y-123954855D01*
X226458914Y-123491422D01*
X226434217Y-123471022D01*
X226353745Y-123404551D01*
X226353741Y-123404549D01*
X226316600Y-123384545D01*
X226174593Y-123308061D01*
X226174590Y-123308060D01*
X226174588Y-123308059D01*
X225979688Y-123249611D01*
X225952527Y-123247022D01*
X225843890Y-123236670D01*
X225188495Y-123236670D01*
X225091502Y-123245913D01*
X225052704Y-123249611D01*
X224857801Y-123308059D01*
X224857791Y-123308064D01*
X224678654Y-123404545D01*
X224573479Y-123491419D01*
X224110048Y-123954851D01*
X224023177Y-124060020D01*
X224023175Y-124060024D01*
X223926685Y-124239177D01*
X223868237Y-124434077D01*
X223868237Y-124434078D01*
X223868237Y-124434079D01*
X223855296Y-124569876D01*
X223527096Y-124569876D01*
X223527096Y-124549869D01*
X223514155Y-124414080D01*
X223461704Y-124239177D01*
X223455706Y-124219175D01*
X223455701Y-124219165D01*
X223359220Y-124040028D01*
X223359216Y-124040023D01*
X223272348Y-123934855D01*
X222808914Y-123471422D01*
X222808427Y-123471020D01*
X222703745Y-123384551D01*
X222703741Y-123384549D01*
X222703734Y-123384545D01*
X222524593Y-123288061D01*
X222524590Y-123288060D01*
X222524588Y-123288059D01*
X222329688Y-123229611D01*
X222302527Y-123227022D01*
X222193890Y-123216670D01*
X221538495Y-123216670D01*
X221441502Y-123225913D01*
X221402704Y-123229611D01*
X221207801Y-123288059D01*
X221207791Y-123288064D01*
X221028654Y-123384545D01*
X220923479Y-123471419D01*
X220460048Y-123934851D01*
X220373177Y-124040020D01*
X220373175Y-124040024D01*
X220276685Y-124219177D01*
X220218237Y-124414077D01*
X220218237Y-124414078D01*
X220218237Y-124414079D01*
X220205296Y-124549876D01*
X214960544Y-124549876D01*
X214058015Y-123647347D01*
X214024530Y-123586024D01*
X214021696Y-123559666D01*
X214021696Y-123471022D01*
X214021696Y-123471020D01*
X213987247Y-123342454D01*
X213920697Y-123227186D01*
X213826580Y-123133069D01*
X213711312Y-123066519D01*
X213582746Y-123032070D01*
X213449646Y-123032070D01*
X213321080Y-123066519D01*
X213321077Y-123066520D01*
X213205815Y-123133067D01*
X213205809Y-123133071D01*
X213111697Y-123227183D01*
X213111693Y-123227189D01*
X213045146Y-123342451D01*
X213045145Y-123342454D01*
X213010696Y-123471020D01*
X132610196Y-123471020D01*
X132610196Y-122255070D01*
X132629881Y-122188031D01*
X132682685Y-122142276D01*
X132734196Y-122131070D01*
X227886696Y-122131070D01*
X227953735Y-122150755D01*
G37*
%TD.AperFunction*%
%TD*%
M02*
