%TF.GenerationSoftware,KiCad,Pcbnew,10.0.5*%
%TF.CreationDate,2026-08-13T11:11:24+05:00*%
%TF.ProjectId,geiger,67656967-6572-42e6-9b69-6361645f7063,rev?*%
%TF.SameCoordinates,Original*%
%TF.FileFunction,Copper,L1,Top*%
%TF.FilePolarity,Positive*%
%FSLAX46Y46*%
G04 Gerber Fmt 4.6, Leading zero omitted, Abs format (unit mm)*
G04 Created by KiCad (PCBNEW 10.0.5) date 2026-08-13 11:11:24*
%MOMM*%
%LPD*%
G01*
G04 APERTURE LIST*
G04 Aperture macros list*
%AMRoundRect*
0 Rectangle with rounded corners*
0 $1 Rounding radius*
0 $2 $3 $4 $5 $6 $7 $8 $9 X,Y pos of 4 corners*
0 Add a 4 corners polygon primitive as box body*
4,1,4,$2,$3,$4,$5,$6,$7,$8,$9,$2,$3,0*
0 Add four circle primitives for the rounded corners*
1,1,$1+$1,$2,$3*
1,1,$1+$1,$4,$5*
1,1,$1+$1,$6,$7*
1,1,$1+$1,$8,$9*
0 Add four rect primitives between the rounded corners*
20,1,$1+$1,$2,$3,$4,$5,0*
20,1,$1+$1,$4,$5,$6,$7,0*
20,1,$1+$1,$6,$7,$8,$9,0*
20,1,$1+$1,$8,$9,$2,$3,0*%
%AMOutline5P*
0 Free polygon, 5 corners , with rotation*
0 The origin of the aperture is its center*
0 number of corners: always 5*
0 $1 to $10 corner X, Y*
0 $11 Rotation angle, in degrees counterclockwise*
0 create outline with 5 corners*
4,1,5,$1,$2,$3,$4,$5,$6,$7,$8,$9,$10,$1,$2,$11*%
%AMOutline6P*
0 Free polygon, 6 corners , with rotation*
0 The origin of the aperture is its center*
0 number of corners: always 6*
0 $1 to $12 corner X, Y*
0 $13 Rotation angle, in degrees counterclockwise*
0 create outline with 6 corners*
4,1,6,$1,$2,$3,$4,$5,$6,$7,$8,$9,$10,$11,$12,$1,$2,$13*%
%AMOutline7P*
0 Free polygon, 7 corners , with rotation*
0 The origin of the aperture is its center*
0 number of corners: always 7*
0 $1 to $14 corner X, Y*
0 $15 Rotation angle, in degrees counterclockwise*
0 create outline with 7 corners*
4,1,7,$1,$2,$3,$4,$5,$6,$7,$8,$9,$10,$11,$12,$13,$14,$1,$2,$15*%
%AMOutline8P*
0 Free polygon, 8 corners , with rotation*
0 The origin of the aperture is its center*
0 number of corners: always 8*
0 $1 to $16 corner X, Y*
0 $17 Rotation angle, in degrees counterclockwise*
0 create outline with 8 corners*
4,1,8,$1,$2,$3,$4,$5,$6,$7,$8,$9,$10,$11,$12,$13,$14,$15,$16,$1,$2,$17*%
G04 Aperture macros list end*
%TA.AperFunction,ComponentPad*%
%ADD10Outline8P,-0.704000X0.291606X-0.291606X0.704000X0.291606X0.704000X0.704000X0.291606X0.704000X-0.291606X0.291606X-0.704000X-0.291606X-0.704000X-0.704000X-0.291606X210.000000*%
%TD*%
%TA.AperFunction,ComponentPad*%
%ADD11Outline8P,-0.660400X0.273547X-0.273547X0.660400X0.273547X0.660400X0.660400X0.273547X0.660400X-0.273547X0.273547X-0.660400X-0.273547X-0.660400X-0.660400X-0.273547X0.000000*%
%TD*%
%TA.AperFunction,ComponentPad*%
%ADD12Outline8P,-0.660400X0.273547X-0.273547X0.660400X0.273547X0.660400X0.660400X0.273547X0.660400X-0.273547X0.273547X-0.660400X-0.273547X-0.660400X-0.660400X-0.273547X270.000000*%
%TD*%
%TA.AperFunction,ComponentPad*%
%ADD13R,2.400000X2.400000*%
%TD*%
%TA.AperFunction,ComponentPad*%
%ADD14Outline8P,-0.660400X0.273547X-0.273547X0.660400X0.273547X0.660400X0.660400X0.273547X0.660400X-0.273547X0.273547X-0.660400X-0.273547X-0.660400X-0.660400X-0.273547X180.000000*%
%TD*%
%TA.AperFunction,ComponentPad*%
%ADD15C,1.676400*%
%TD*%
%TA.AperFunction,SMDPad,CuDef*%
%ADD16R,2.235000X1.219000*%
%TD*%
%TA.AperFunction,SMDPad,CuDef*%
%ADD17R,2.200000X3.600000*%
%TD*%
%TA.AperFunction,ComponentPad*%
%ADD18R,1.700000X1.700000*%
%TD*%
%TA.AperFunction,ComponentPad*%
%ADD19O,1.700000X1.700000*%
%TD*%
%TA.AperFunction,SMDPad,CuDef*%
%ADD20RoundRect,0.150000X-0.625000X0.150000X-0.625000X-0.150000X0.625000X-0.150000X0.625000X0.150000X0*%
%TD*%
%TA.AperFunction,SMDPad,CuDef*%
%ADD21RoundRect,0.250000X-0.650000X0.350000X-0.650000X-0.350000X0.650000X-0.350000X0.650000X0.350000X0*%
%TD*%
%TA.AperFunction,ComponentPad*%
%ADD22Outline8P,-0.660400X0.273547X-0.273547X0.660400X0.273547X0.660400X0.660400X0.273547X0.660400X-0.273547X0.273547X-0.660400X-0.273547X-0.660400X-0.660400X-0.273547X90.000000*%
%TD*%
%TA.AperFunction,SMDPad,CuDef*%
%ADD23RoundRect,0.250000X-1.500000X0.250000X-1.500000X-0.250000X1.500000X-0.250000X1.500000X0.250000X0*%
%TD*%
%TA.AperFunction,SMDPad,CuDef*%
%ADD24RoundRect,0.250001X-1.449999X0.499999X-1.449999X-0.499999X1.449999X-0.499999X1.449999X0.499999X0*%
%TD*%
%TA.AperFunction,ComponentPad*%
%ADD25C,2.000000*%
%TD*%
%TA.AperFunction,ComponentPad*%
%ADD26C,1.270000*%
%TD*%
%TA.AperFunction,ComponentPad*%
%ADD27Outline8P,-0.635000X0.263026X-0.263026X0.635000X0.263026X0.635000X0.635000X0.263026X0.635000X-0.263026X0.263026X-0.635000X-0.263026X-0.635000X-0.635000X-0.263026X90.000000*%
%TD*%
%TA.AperFunction,ComponentPad*%
%ADD28Outline8P,-0.762000X0.315631X-0.315631X0.762000X0.315631X0.762000X0.762000X0.315631X0.762000X-0.315631X0.315631X-0.762000X-0.315631X-0.762000X-0.762000X-0.315631X180.000000*%
%TD*%
%TA.AperFunction,ViaPad*%
%ADD29C,0.600000*%
%TD*%
%TA.AperFunction,Conductor*%
%ADD30C,0.200000*%
%TD*%
%TA.AperFunction,Conductor*%
%ADD31C,0.500000*%
%TD*%
G04 APERTURE END LIST*
D10*
%TO.P,L1,1,1_1*%
%TO.N,+5V*%
X216005901Y-127377570D03*
%TO.P,L1,2,2_2*%
%TO.N,Net-(D1-K)*%
X211606491Y-129917570D03*
%TD*%
D11*
%TO.P,R7,1*%
%TO.N,/SCL*%
X147246196Y-136047570D03*
%TO.P,R7,2*%
%TO.N,+3V3*%
X157406196Y-136047570D03*
%TD*%
D12*
%TO.P,R1,1*%
%TO.N,/HV_CAP_FUL*%
X188866196Y-140557570D03*
%TO.P,R1,2*%
%TO.N,GND*%
X188866196Y-150717570D03*
%TD*%
D13*
%TO.P,SBM-19/20,P1,1_P1*%
%TO.N,Net-(SBM-19/1-1)*%
X218606196Y-143737570D03*
%TO.P,SBM-19/20,P2,2_P2*%
%TO.N,unconnected-(SBM-19/1-2-PadP2)*%
X226226196Y-143737570D03*
%TD*%
D14*
%TO.P,C2,1*%
%TO.N,/HV_CAP_FUL*%
X185616196Y-150637570D03*
%TO.P,C2,2*%
%TO.N,GND*%
X180536196Y-150637570D03*
%TD*%
%TO.P,R6,1*%
%TO.N,+3V3*%
X157406196Y-138617570D03*
%TO.P,R6,2*%
%TO.N,/SDA*%
X147246196Y-138617570D03*
%TD*%
D11*
%TO.P,R5,1*%
%TO.N,+3V3*%
X144786196Y-141437570D03*
%TO.P,R5,2*%
%TO.N,/GMZ_COUNT*%
X154946196Y-141437570D03*
%TD*%
D15*
%TO.P,D3,A,A_A*%
%TO.N,GND*%
X193316196Y-150517570D03*
%TO.P,D3,C,K_C*%
%TO.N,/HV_CAP_FUL*%
X193316196Y-140357570D03*
%TD*%
D16*
%TO.P,U3,1,G_1*%
%TO.N,/HV_FET_OUT*%
X198217196Y-132226570D03*
%TO.P,U3,2,D_2*%
%TO.N,Net-(D1-K)*%
X198217196Y-134537570D03*
%TO.P,U3,3,S_3*%
%TO.N,GND*%
X198217196Y-136848570D03*
D17*
%TO.P,U3,4,D_4*%
%TO.N,Net-(D1-K)*%
X204415196Y-134537570D03*
%TD*%
D15*
%TO.P,D2,A,A_A*%
%TO.N,/HV_CAP_FUL*%
X197266196Y-140457570D03*
%TO.P,D2,C,K_C*%
%TO.N,Net-(D2-K)*%
X197266196Y-150617570D03*
%TD*%
D12*
%TO.P,R3,1*%
%TO.N,Net-(C4-Pad1)*%
X225516196Y-124897570D03*
%TO.P,R3,2*%
%TO.N,Net-(R3-Pad2)*%
X225516196Y-135057570D03*
%TD*%
D15*
%TO.P,D6,A,A_A*%
%TO.N,Net-(D4-K)*%
X210346196Y-148211570D03*
%TO.P,D6,C,C_C*%
%TO.N,Net-(C3-Pad1)*%
X210346196Y-138051570D03*
%TD*%
D18*
%TO.P,U1,1,A0_1*%
%TO.N,/HV_CAP_FUL*%
X162586196Y-130997570D03*
D19*
%TO.P,U1,2,A1_2*%
%TO.N,/HV_FET_OUT*%
X160046196Y-130997570D03*
%TO.P,U1,3,A2_3*%
%TO.N,unconnected-(U1-A2-Pad3)*%
X157506196Y-130997570D03*
%TO.P,U1,4,A3_4*%
%TO.N,unconnected-(U1-A3-Pad4)*%
X154966196Y-130997570D03*
%TO.P,U1,5,A4_5*%
%TO.N,/SDA*%
X152426196Y-130997570D03*
%TO.P,U1,6,A5_6*%
%TO.N,/SCL*%
X149886196Y-130997570D03*
%TO.P,U1,7,D6_7*%
%TO.N,unconnected-(U1-D6-Pad7)*%
X147346196Y-130997570D03*
%TO.P,U1,8,D7_8*%
%TO.N,unconnected-(U1-D7-Pad8)*%
X147346196Y-146237570D03*
%TO.P,U1,9,D8_9*%
%TO.N,/GMZ_COUNT*%
X149886196Y-146237570D03*
%TO.P,U1,10,D9_10*%
%TO.N,unconnected-(U1-D9-Pad10)*%
X152426196Y-146237570D03*
%TO.P,U1,11,D10_11*%
%TO.N,unconnected-(U1-D10-Pad11)*%
X154966196Y-146237570D03*
%TO.P,U1,12,3V3_12*%
%TO.N,+3V3*%
X157506196Y-146237570D03*
%TO.P,U1,13,GND_13*%
%TO.N,GND*%
X160046196Y-146237570D03*
D18*
%TO.P,U1,14,5V_14*%
%TO.N,+5V*%
X162586196Y-146237570D03*
%TD*%
D20*
%TO.P,J2,1,Pin_1_1*%
%TO.N,GND*%
X138186196Y-129482570D03*
%TO.P,J2,2,Pin_2_2*%
%TO.N,+3V3*%
X138186196Y-130482570D03*
%TO.P,J2,3,Pin_3_3*%
%TO.N,/SDA*%
X138186196Y-131482570D03*
%TO.P,J2,4,Pin_4_4*%
%TO.N,/SCL*%
X138186196Y-132482570D03*
D21*
%TO.P,J2,MP,MountPin_MP*%
%TO.N,GND*%
X134311196Y-128182570D03*
X134311196Y-133782570D03*
%TD*%
D12*
%TO.P,C4,1*%
%TO.N,Net-(C4-Pad1)*%
X192216196Y-131997570D03*
%TO.P,C4,2*%
%TO.N,/GMZ_COUNT*%
X192216196Y-137077570D03*
%TD*%
D15*
%TO.P,D1,A,A_A*%
%TO.N,Net-(D2-K)*%
X201616196Y-150517570D03*
%TO.P,D1,C,K_C*%
%TO.N,Net-(D1-K)*%
X201616196Y-140357570D03*
%TD*%
%TO.P,D4,A,A_A*%
%TO.N,Net-(D1-K)*%
X205516196Y-140357570D03*
%TO.P,D4,C,K_C*%
%TO.N,Net-(D4-K)*%
X205516196Y-150517570D03*
%TD*%
D11*
%TO.P,R4,1*%
%TO.N,Net-(SBM-19/1-1)*%
X215436196Y-137937570D03*
%TO.P,R4,2*%
%TO.N,Net-(R3-Pad2)*%
X225596196Y-137937570D03*
%TD*%
D22*
%TO.P,R2,1*%
%TO.N,Net-(C3-Pad1)*%
X221866196Y-135037570D03*
%TO.P,R2,2*%
%TO.N,Net-(C4-Pad1)*%
X221866196Y-124877570D03*
%TD*%
D23*
%TO.P,J1,1,Pin_1_1*%
%TO.N,GND*%
X140961196Y-140432570D03*
%TO.P,J1,2,Pin_2_2*%
%TO.N,+5V*%
X140961196Y-142432570D03*
%TO.P,J1,3,Pin_3_3*%
%TO.N,/SDA*%
X140961196Y-144432570D03*
%TO.P,J1,4,Pin_4_4*%
%TO.N,/SCL*%
X140961196Y-146432570D03*
D24*
%TO.P,J1,MP,MountPin_MP*%
%TO.N,GND*%
X135211196Y-138082570D03*
X135211196Y-148782570D03*
%TD*%
D25*
%TO.P,J3,1,Pin_1_1*%
%TO.N,GND*%
X222646196Y-150137570D03*
%TD*%
D26*
%TO.P,C1,+*%
%TO.N,+5V*%
X167256196Y-146143570D03*
D27*
%TO.P,C1,-*%
%TO.N,GND*%
X167256196Y-144111570D03*
%TD*%
D28*
%TO.P,C3,1*%
%TO.N,Net-(C3-Pad1)*%
X205509196Y-126937570D03*
%TO.P,C3,2*%
%TO.N,GND*%
X190523196Y-126937570D03*
%TD*%
D29*
%TO.N,+5V*%
X169036196Y-141537570D03*
X213516196Y-123537570D03*
X145986196Y-149837570D03*
X169036196Y-128037570D03*
%TO.N,/SCL*%
X144481196Y-144342570D03*
%TO.N,+3V3*%
X147286196Y-133737570D03*
%TO.N,/HV_CAP_FUL*%
X178536196Y-141287570D03*
X173686196Y-131137570D03*
%TO.N,GND*%
X159536196Y-126687570D03*
X171536196Y-141287570D03*
X144036196Y-148787570D03*
X175286196Y-131537570D03*
X164786196Y-127487570D03*
X172036196Y-124787570D03*
X138036196Y-138037570D03*
X156286196Y-124137570D03*
X159536196Y-127487570D03*
X154286196Y-148037570D03*
X133986196Y-123037570D03*
X137286196Y-123187570D03*
X137536196Y-151987570D03*
X141136196Y-124937570D03*
X158786196Y-143787570D03*
X151036196Y-123137570D03*
X142136196Y-124137570D03*
X160786196Y-143037570D03*
X135036196Y-141787570D03*
X160786196Y-143787570D03*
X176036196Y-139787570D03*
X163536196Y-149787570D03*
X177536196Y-139037570D03*
X147886196Y-152337570D03*
X146686196Y-123137570D03*
X171536196Y-136787570D03*
X163786196Y-123137570D03*
X163786196Y-125737570D03*
X158786196Y-142287570D03*
X177536196Y-139787570D03*
X143286196Y-125737570D03*
X149936196Y-124137570D03*
X149786196Y-126687570D03*
X156286196Y-123137570D03*
X162736196Y-128287570D03*
X170786196Y-135037570D03*
X155286196Y-123137570D03*
X147686196Y-124137570D03*
X140036196Y-123137570D03*
X151036196Y-148787570D03*
X149936196Y-125737570D03*
X160786196Y-142287570D03*
X146686196Y-125737570D03*
X173286196Y-133287570D03*
X140036196Y-133787570D03*
X161036196Y-136037570D03*
X143286196Y-148787570D03*
X170286196Y-128537570D03*
X173036196Y-136037570D03*
X165836196Y-123137570D03*
X171036196Y-133287570D03*
X164786196Y-136787570D03*
X144486196Y-124137570D03*
X160436196Y-124137570D03*
X154136196Y-128287570D03*
X144286196Y-127187570D03*
X155036196Y-148037570D03*
X147536196Y-148787570D03*
X171536196Y-138287570D03*
X171036196Y-123187570D03*
X166786196Y-136787570D03*
X172936196Y-151987570D03*
X149786196Y-148787570D03*
X172286196Y-136787570D03*
X151786196Y-148037570D03*
X159436196Y-125737570D03*
X159786196Y-143787570D03*
X172286196Y-140537570D03*
X157536196Y-148037570D03*
X161586196Y-123137570D03*
X159786196Y-142287570D03*
X153086196Y-125737570D03*
X166886196Y-128287570D03*
X171286196Y-151187570D03*
X174036196Y-151987570D03*
X158536196Y-140537570D03*
X170036196Y-124787570D03*
X173036196Y-141287570D03*
X177036196Y-142537570D03*
X148836196Y-125737570D03*
X176036196Y-139037570D03*
X170186196Y-151187570D03*
X166936196Y-123137570D03*
X166936196Y-124137570D03*
X164786196Y-123137570D03*
X151036196Y-125737570D03*
X134036196Y-151187570D03*
X149936196Y-123137570D03*
X171036196Y-125787570D03*
X177036196Y-143287570D03*
X161736196Y-127487570D03*
X149786196Y-128287570D03*
X176036196Y-129787570D03*
X177536196Y-129787570D03*
X143286196Y-148037570D03*
X137536196Y-152787570D03*
X156386196Y-126687570D03*
X154286196Y-148787570D03*
X172036196Y-129287570D03*
X144486196Y-123137570D03*
X171536196Y-135037570D03*
X159436196Y-123137570D03*
X144786196Y-151187570D03*
X170536196Y-147537570D03*
X174286196Y-144337570D03*
X164786196Y-135037570D03*
X170286196Y-129287570D03*
X153086196Y-124137570D03*
X170286196Y-148537570D03*
X139036196Y-138037570D03*
X155786196Y-133287570D03*
X171536196Y-136037570D03*
X147286196Y-143037570D03*
X174036196Y-152787570D03*
X172286196Y-138287570D03*
X159036196Y-148037570D03*
X142286196Y-152787570D03*
X168036196Y-124937570D03*
X162736196Y-126687570D03*
X167036196Y-140487570D03*
X176286196Y-142537570D03*
X165036196Y-149037570D03*
X176786196Y-135787570D03*
X135186196Y-144837570D03*
X149036196Y-148787570D03*
X142536196Y-148787570D03*
X173036196Y-140537570D03*
X146686196Y-124137570D03*
X176036196Y-135037570D03*
X150936196Y-126687570D03*
X165836196Y-125737570D03*
X170036196Y-135037570D03*
X161036196Y-137787570D03*
X172036196Y-146787570D03*
X158286196Y-133287570D03*
X172036196Y-123187570D03*
X135036196Y-131287570D03*
X134036196Y-152787570D03*
X177536196Y-131537570D03*
X142136196Y-124937570D03*
X177536196Y-132287570D03*
X150286196Y-138537570D03*
X165286196Y-132787570D03*
X158336196Y-124137570D03*
X143786196Y-135037570D03*
X159536196Y-139787570D03*
X171286196Y-128537570D03*
X175286196Y-133037570D03*
X168036196Y-128287570D03*
X154536196Y-139537570D03*
X176786196Y-129787570D03*
X159786196Y-144537570D03*
X171036196Y-132287570D03*
X161586196Y-124137570D03*
X142036196Y-127187570D03*
X153136196Y-128287570D03*
X134036196Y-131287570D03*
X143286196Y-123137570D03*
X172036196Y-147537570D03*
X135136196Y-151987570D03*
X156036196Y-144037570D03*
X136436196Y-151987570D03*
X175286196Y-130537570D03*
X144786196Y-151987570D03*
X163786196Y-136037570D03*
X172536196Y-132287570D03*
X161586196Y-124937570D03*
X166286196Y-131787570D03*
X161786196Y-144537570D03*
X146686196Y-124937570D03*
X148836196Y-124137570D03*
X166936196Y-125737570D03*
X136436196Y-151187570D03*
X144286196Y-128787570D03*
X177536196Y-133037570D03*
X158286196Y-134037570D03*
X170036196Y-136037570D03*
X164786196Y-124937570D03*
X135036196Y-130537570D03*
X161786196Y-143037570D03*
X176786196Y-130537570D03*
X160786196Y-144537570D03*
X165286196Y-131787570D03*
X170786196Y-138287570D03*
X175286196Y-139787570D03*
X163286196Y-135037570D03*
X149936196Y-124937570D03*
X159786196Y-148037570D03*
X166286196Y-132787570D03*
X155786196Y-134037570D03*
X141036196Y-134537570D03*
X165886196Y-130287570D03*
X153536196Y-140287570D03*
X167036196Y-142087570D03*
X157536196Y-148787570D03*
X147686196Y-123137570D03*
X140936196Y-128787570D03*
X172536196Y-133287570D03*
X134286196Y-129237570D03*
X173036196Y-130287570D03*
X196416196Y-136837570D03*
X142786196Y-134287570D03*
X145586196Y-125737570D03*
X153136196Y-127487570D03*
X133986196Y-124637570D03*
X174286196Y-142737570D03*
X158486196Y-126687570D03*
X167036196Y-141287570D03*
X150536196Y-143037570D03*
X152036196Y-124937570D03*
X169536196Y-149287570D03*
X170036196Y-136787570D03*
X164636196Y-141287570D03*
X138936196Y-152787570D03*
X165786196Y-149037570D03*
X176036196Y-138287570D03*
X161786196Y-143787570D03*
X170786196Y-136037570D03*
X155286196Y-124937570D03*
X149786196Y-148037570D03*
X148286196Y-148037570D03*
X135036196Y-143537570D03*
X166886196Y-127487570D03*
X135186196Y-146737570D03*
X136186196Y-123987570D03*
X163536196Y-140487570D03*
X140036196Y-151187570D03*
X154786196Y-133287570D03*
X168036196Y-126687570D03*
X142536196Y-148037570D03*
X163786196Y-124937570D03*
X135036196Y-141037570D03*
X158286196Y-148037570D03*
X152036196Y-127487570D03*
X170036196Y-125787570D03*
X159536196Y-140537570D03*
X171536196Y-139037570D03*
X169036196Y-123987570D03*
X149686196Y-153337570D03*
X158336196Y-124937570D03*
X164786196Y-136037570D03*
X136036196Y-141037570D03*
X141036196Y-133787570D03*
X143686196Y-151187570D03*
X167536196Y-131787570D03*
X159536196Y-128287570D03*
X142136196Y-125737570D03*
X160636196Y-127487570D03*
X157236196Y-125737570D03*
X140936196Y-127187570D03*
X163536196Y-142087570D03*
X155786196Y-148037570D03*
X176786196Y-139787570D03*
X177536196Y-135787570D03*
X170286196Y-130287570D03*
X166886196Y-129287570D03*
X138936196Y-124137570D03*
X175286196Y-129787570D03*
X166286196Y-135037570D03*
X162036196Y-137787570D03*
X177536196Y-135037570D03*
X171286196Y-146787570D03*
X172036196Y-125787570D03*
X156536196Y-140287570D03*
X172936196Y-151187570D03*
X165886196Y-126687570D03*
X149036196Y-148037570D03*
X136436196Y-152787570D03*
X156536196Y-139537570D03*
X159786196Y-143037570D03*
X165536196Y-135037570D03*
X142136196Y-123137570D03*
X148286196Y-143787570D03*
X141136196Y-125737570D03*
X176786196Y-139037570D03*
X133986196Y-123837570D03*
X170786196Y-141287570D03*
X148286196Y-143037570D03*
X172286196Y-135037570D03*
X158336196Y-125737570D03*
X164786196Y-128287570D03*
X155786196Y-148787570D03*
X156536196Y-148787570D03*
X169036196Y-124787570D03*
X160436196Y-123137570D03*
X168036196Y-124137570D03*
X166786196Y-139037570D03*
X161786196Y-135037570D03*
X154786196Y-134037570D03*
X169536196Y-148537570D03*
X172036196Y-144337570D03*
X140936196Y-127987570D03*
X140036196Y-151987570D03*
X170036196Y-138287570D03*
X150536196Y-143787570D03*
X164786196Y-126687570D03*
X168786196Y-148537570D03*
X176036196Y-133037570D03*
X148686196Y-153337570D03*
X165786196Y-136787570D03*
X161036196Y-138537570D03*
X138036196Y-138787570D03*
X168036196Y-129287570D03*
X166786196Y-136037570D03*
X167786196Y-135037570D03*
X176036196Y-136537570D03*
X164786196Y-125737570D03*
X161736196Y-128287570D03*
X137536196Y-151187570D03*
X163036196Y-136037570D03*
X134036196Y-151987570D03*
X175286196Y-135037570D03*
X157486196Y-126687570D03*
X157486196Y-127487570D03*
X163036196Y-136787570D03*
X173286196Y-132287570D03*
X144486196Y-124937570D03*
X162536196Y-135037570D03*
X148686196Y-126687570D03*
X163686196Y-128287570D03*
X157236196Y-124937570D03*
X167536196Y-132787570D03*
X170786196Y-139037570D03*
X136186196Y-123187570D03*
X140036196Y-125737570D03*
X176036196Y-132287570D03*
X171286196Y-151987570D03*
X133986196Y-125537570D03*
X156286196Y-125737570D03*
X156036196Y-143287570D03*
X143686196Y-152787570D03*
X159436196Y-124937570D03*
X149786196Y-127487570D03*
X163786196Y-136787570D03*
X165936196Y-142087570D03*
X151286196Y-137787570D03*
X167786196Y-136037570D03*
X170036196Y-123187570D03*
X161036196Y-135037570D03*
X171536196Y-140537570D03*
X165886196Y-128287570D03*
X134286196Y-132737570D03*
X137286196Y-123987570D03*
X155286196Y-124137570D03*
X158786196Y-143037570D03*
X148286196Y-148787570D03*
X149536196Y-143787570D03*
X165936196Y-140487570D03*
X165886196Y-127487570D03*
X155286196Y-128287570D03*
X172936196Y-152787570D03*
X170186196Y-152787570D03*
X154186196Y-124137570D03*
X161586196Y-125737570D03*
X167786196Y-136787570D03*
X176786196Y-136537570D03*
X160636196Y-128287570D03*
X149686196Y-152337570D03*
X166786196Y-138287570D03*
X175286196Y-139037570D03*
X162686196Y-124937570D03*
X155536196Y-139537570D03*
X155286196Y-126687570D03*
X140036196Y-124937570D03*
X152036196Y-124137570D03*
X170536196Y-146787570D03*
X147686196Y-125737570D03*
X142286196Y-151187570D03*
X139036196Y-138787570D03*
X169036196Y-123187570D03*
X176036196Y-131537570D03*
X156536196Y-142287570D03*
X150286196Y-137787570D03*
X175286196Y-136537570D03*
X160286196Y-135037570D03*
X141186196Y-151187570D03*
X141186196Y-152787570D03*
X169036196Y-125787570D03*
X159436196Y-124137570D03*
X161786196Y-142287570D03*
X158486196Y-127487570D03*
X157486196Y-128287570D03*
X171286196Y-152787570D03*
X151036196Y-124937570D03*
X148686196Y-128287570D03*
X158486196Y-128287570D03*
X165786196Y-149787570D03*
X165936196Y-141287570D03*
X156386196Y-128287570D03*
X170186196Y-151987570D03*
X164786196Y-124137570D03*
X171286196Y-130287570D03*
X156286196Y-124937570D03*
X176786196Y-138287570D03*
X166936196Y-124937570D03*
X156386196Y-127487570D03*
X138786196Y-140437570D03*
X176036196Y-130537570D03*
X162686196Y-123137570D03*
X151786196Y-148787570D03*
X156536196Y-148037570D03*
X152036196Y-125737570D03*
X175286196Y-138287570D03*
X176786196Y-132287570D03*
X164636196Y-140487570D03*
X134036196Y-130537570D03*
X173036196Y-138287570D03*
X153086196Y-123137570D03*
X155286196Y-127487570D03*
X161736196Y-126687570D03*
X138936196Y-124937570D03*
X140036196Y-124137570D03*
X155286196Y-125737570D03*
X135036196Y-142787570D03*
X173036196Y-135037570D03*
X154186196Y-123137570D03*
X143686196Y-151987570D03*
X170036196Y-133287570D03*
X147536196Y-148037570D03*
X160436196Y-125737570D03*
X152036196Y-126687570D03*
X154186196Y-124937570D03*
X164636196Y-142087570D03*
X135136196Y-152787570D03*
X136036196Y-143537570D03*
X154136196Y-126687570D03*
X154186196Y-125737570D03*
X145586196Y-124137570D03*
X143786196Y-134287570D03*
X168036196Y-123137570D03*
X174036196Y-151187570D03*
X175286196Y-132287570D03*
X166886196Y-126687570D03*
X137286196Y-124787570D03*
X148836196Y-124937570D03*
X136986196Y-129537570D03*
X164036196Y-135037570D03*
X160636196Y-126687570D03*
X171286196Y-147537570D03*
X143186196Y-127187570D03*
X167786196Y-139037570D03*
X157236196Y-123137570D03*
X135136196Y-151187570D03*
X145586196Y-124937570D03*
X153136196Y-126687570D03*
X162686196Y-125737570D03*
X138936196Y-151987570D03*
X141136196Y-123137570D03*
X162036196Y-138537570D03*
X165836196Y-124937570D03*
X167036196Y-135037570D03*
X173136196Y-143537570D03*
X176786196Y-131537570D03*
X172036196Y-130287570D03*
X142036196Y-127987570D03*
X168036196Y-125737570D03*
X147686196Y-124937570D03*
X136036196Y-141787570D03*
X171036196Y-124787570D03*
X145586196Y-123137570D03*
X142036196Y-128787570D03*
X164286196Y-149787570D03*
X136186196Y-124787570D03*
X168036196Y-130287570D03*
X176786196Y-135037570D03*
X161036196Y-136787570D03*
X173036196Y-136787570D03*
X170286196Y-149287570D03*
X172286196Y-141287570D03*
X171786196Y-132287570D03*
X159536196Y-135037570D03*
X177536196Y-138287570D03*
X163686196Y-126687570D03*
X143186196Y-128787570D03*
X153286196Y-148787570D03*
X135186196Y-147537570D03*
X153286196Y-148037570D03*
X172036196Y-143537570D03*
X176286196Y-143287570D03*
X159036196Y-148787570D03*
X154136196Y-127487570D03*
X173036196Y-139037570D03*
X157236196Y-124137570D03*
X144786196Y-148787570D03*
X170786196Y-140537570D03*
X138936196Y-151187570D03*
X158286196Y-148787570D03*
X152036196Y-123137570D03*
X165786196Y-136037570D03*
X140036196Y-152787570D03*
X141186196Y-151987570D03*
X144486196Y-125737570D03*
X138936196Y-123137570D03*
X152536196Y-148037570D03*
X147886196Y-153337570D03*
X144786196Y-148037570D03*
X162036196Y-136787570D03*
X175286196Y-135787570D03*
X148686196Y-152337570D03*
X162736196Y-127487570D03*
X148686196Y-127487570D03*
X142786196Y-135037570D03*
X172286196Y-136037570D03*
X140036196Y-134537570D03*
X171786196Y-133287570D03*
X135186196Y-146137570D03*
X167786196Y-138287570D03*
X163686196Y-127487570D03*
X143286196Y-124137570D03*
X177536196Y-136537570D03*
X143186196Y-127987570D03*
X155036196Y-144037570D03*
X158786196Y-144537570D03*
X153536196Y-139537570D03*
X136036196Y-142787570D03*
X163536196Y-149037570D03*
X162036196Y-136037570D03*
X166886196Y-130287570D03*
X150936196Y-128287570D03*
X149536196Y-143037570D03*
X160436196Y-124937570D03*
X170786196Y-136787570D03*
X157286196Y-133287570D03*
X135186196Y-139337570D03*
X144786196Y-152787570D03*
X164286196Y-149037570D03*
X165886196Y-129287570D03*
X171036196Y-123987570D03*
X177536196Y-130537570D03*
X152536196Y-148787570D03*
X141136196Y-124137570D03*
X175536196Y-143287570D03*
X159786196Y-148787570D03*
X170036196Y-132037570D03*
X150936196Y-127487570D03*
X175536196Y-142537570D03*
X163536196Y-141287570D03*
X171286196Y-129287570D03*
X155036196Y-148787570D03*
X162686196Y-124137570D03*
X157286196Y-134037570D03*
X158336196Y-123137570D03*
X144036196Y-148037570D03*
X176036196Y-135787570D03*
X168036196Y-127487570D03*
X135186196Y-145537570D03*
X151036196Y-124137570D03*
X173136196Y-144337570D03*
X176786196Y-133037570D03*
X172036196Y-142737570D03*
X163786196Y-124137570D03*
X155036196Y-143287570D03*
X174286196Y-143537570D03*
X151036196Y-148037570D03*
X172286196Y-139037570D03*
X165836196Y-124137570D03*
X152036196Y-128287570D03*
X153086196Y-124937570D03*
X158536196Y-139787570D03*
X147286196Y-143787570D03*
X173136196Y-142737570D03*
X168786196Y-149287570D03*
X142286196Y-151987570D03*
X170036196Y-139287570D03*
X172036196Y-123987570D03*
X144286196Y-127987570D03*
X148836196Y-123137570D03*
X170036196Y-123987570D03*
X165036196Y-149787570D03*
X143286196Y-124937570D03*
X151286196Y-138537570D03*
%TD*%
%TO.N,+5V*%
D30*
X185286196Y-123037570D02*
X213016196Y-123037570D01*
X213016196Y-123037570D02*
X213516196Y-123537570D01*
D31*
X162586196Y-146237570D02*
X167162196Y-146237570D01*
X140086196Y-149837570D02*
X145986196Y-149837570D01*
X137986196Y-147737570D02*
X140086196Y-149837570D01*
X137986196Y-143237570D02*
X137986196Y-147737570D01*
D30*
X169036196Y-127287570D02*
X169536196Y-126787570D01*
D31*
X167162196Y-146237570D02*
X167256196Y-146143570D01*
X138791196Y-142432570D02*
X137986196Y-143237570D01*
D30*
X173786196Y-128787570D02*
X179536196Y-128787570D01*
D31*
X140961196Y-142432570D02*
X138791196Y-142432570D01*
D30*
X179536196Y-128787570D02*
X185286196Y-123037570D01*
X169536196Y-126787570D02*
X171786196Y-126787570D01*
X169036196Y-128037570D02*
X169036196Y-127287570D01*
X171786196Y-126787570D02*
X173786196Y-128787570D01*
X169036196Y-145537570D02*
X168430196Y-146143570D01*
X169036196Y-141537570D02*
X169036196Y-145537570D01*
X168430196Y-146143570D02*
X167256196Y-146143570D01*
%TO.N,Net-(D1-K)*%
X206986491Y-134537570D02*
X204415196Y-134537570D01*
X205516196Y-140357570D02*
X201616196Y-140357570D01*
X201616196Y-140357570D02*
X201616196Y-134537570D01*
X201616196Y-134537570D02*
X204415196Y-134537570D01*
X198217196Y-134537570D02*
X201616196Y-134537570D01*
X211606491Y-129917570D02*
X206986491Y-134537570D01*
%TO.N,/SCL*%
X144481196Y-144342570D02*
X142391196Y-146432570D01*
X138186196Y-132482570D02*
X143681196Y-132482570D01*
X142391196Y-146432570D02*
X140961196Y-146432570D01*
X147246196Y-136047570D02*
X149886196Y-133407570D01*
X143681196Y-132482570D02*
X147246196Y-136047570D01*
X149886196Y-133407570D02*
X149886196Y-130997570D01*
%TO.N,+3V3*%
X149636196Y-141437570D02*
X152456196Y-138617570D01*
D31*
X138186196Y-130482570D02*
X143141196Y-130482570D01*
D30*
X144786196Y-141437570D02*
X149636196Y-141437570D01*
D31*
X146186196Y-133537570D02*
X146386196Y-133737570D01*
D30*
X157406196Y-138617570D02*
X157406196Y-136047570D01*
D31*
X146386196Y-133737570D02*
X147286196Y-133737570D01*
D30*
X152456196Y-138617570D02*
X157406196Y-138617570D01*
D31*
X143141196Y-130482570D02*
X143141196Y-130492570D01*
X143141196Y-130492570D02*
X146186196Y-133537570D01*
%TO.N,/HV_CAP_FUL*%
D30*
X190736196Y-140537570D02*
X190716196Y-140557570D01*
X193316196Y-140357570D02*
X193136196Y-140537570D01*
X173546196Y-130997570D02*
X162586196Y-130997570D01*
X188136196Y-141287570D02*
X178536196Y-141287570D01*
X190866196Y-140537570D02*
X190736196Y-140537570D01*
X195366196Y-140457570D02*
X195266196Y-140357570D01*
X193136196Y-140537570D02*
X190866196Y-140537570D01*
X190716196Y-140557570D02*
X188866196Y-140557570D01*
X195266196Y-140357570D02*
X193316196Y-140357570D01*
X197266196Y-140457570D02*
X195366196Y-140457570D01*
X190716196Y-145537570D02*
X190716196Y-140557570D01*
X185616196Y-150637570D02*
X190716196Y-145537570D01*
X173686196Y-131137570D02*
X173546196Y-130997570D01*
X188866196Y-140557570D02*
X188136196Y-141287570D01*
%TO.N,GND*%
D31*
X135211196Y-139312570D02*
X135186196Y-139337570D01*
X135211196Y-147562570D02*
X135186196Y-147537570D01*
X140961196Y-140432570D02*
X138791196Y-140432570D01*
X135211196Y-138082570D02*
X135211196Y-139312570D01*
X134311196Y-128182570D02*
X134311196Y-129212570D01*
X138186196Y-129482570D02*
X137041196Y-129482570D01*
D30*
X196427196Y-136848570D02*
X196416196Y-136837570D01*
D31*
X137041196Y-129482570D02*
X136986196Y-129537570D01*
X134311196Y-133782570D02*
X134311196Y-132762570D01*
X135211196Y-148782570D02*
X135211196Y-147562570D01*
X134311196Y-132762570D02*
X134286196Y-132737570D01*
X134311196Y-129212570D02*
X134286196Y-129237570D01*
D30*
X198217196Y-136848570D02*
X196427196Y-136848570D01*
D31*
X138791196Y-140432570D02*
X138786196Y-140437570D01*
%TO.N,Net-(SBM-19/1-1)*%
D30*
X218606196Y-143737570D02*
X218606196Y-141107570D01*
X218606196Y-141107570D02*
X215436196Y-137937570D01*
%TO.N,/SDA*%
X145386196Y-138617570D02*
X147246196Y-138617570D01*
X143616196Y-143607570D02*
X143616196Y-139037570D01*
X147246196Y-138977570D02*
X147246196Y-138617570D01*
X136486196Y-133037570D02*
X136986196Y-133537570D01*
X152426196Y-133437570D02*
X152426196Y-130997570D01*
X142066196Y-138617570D02*
X141086196Y-137637570D01*
X136986196Y-133537570D02*
X141086196Y-137637570D01*
X140961196Y-144432570D02*
X142791196Y-144432570D01*
X145386196Y-138617570D02*
X144386196Y-138617570D01*
X136486196Y-131937570D02*
X136486196Y-132837570D01*
X136586196Y-131837570D02*
X136486196Y-131937570D01*
X136486196Y-132837570D02*
X136486196Y-133037570D01*
X138186196Y-131482570D02*
X136941196Y-131482570D01*
X144386196Y-138617570D02*
X144036196Y-138617570D01*
X140961196Y-144432570D02*
X141791196Y-144432570D01*
X143616196Y-139037570D02*
X144036196Y-138617570D01*
X136941196Y-131482570D02*
X136586196Y-131837570D01*
X142791196Y-144432570D02*
X143101196Y-144122570D01*
X143101196Y-144122570D02*
X143616196Y-143607570D01*
X147246196Y-138617570D02*
X152426196Y-133437570D01*
X144036196Y-138617570D02*
X142066196Y-138617570D01*
%TO.N,/GMZ_COUNT*%
X192056196Y-137537570D02*
X192216196Y-137377570D01*
X188616196Y-137537570D02*
X189076196Y-137077570D01*
X149886196Y-146237570D02*
X154686196Y-141437570D01*
X154686196Y-141437570D02*
X154946196Y-141437570D01*
X161326196Y-141437570D02*
X165226196Y-137537570D01*
X189076196Y-137077570D02*
X192216196Y-137077570D01*
X165226196Y-137537570D02*
X188616196Y-137537570D01*
X154946196Y-141437570D02*
X161326196Y-141437570D01*
%TO.N,/HV_FET_OUT*%
X160046196Y-132487570D02*
X161596196Y-134037570D01*
X160046196Y-131402570D02*
X160046196Y-132487570D01*
X194516196Y-134037570D02*
X196327196Y-132226570D01*
X161596196Y-134037570D02*
X194516196Y-134037570D01*
X196327196Y-132226570D02*
X198217196Y-132226570D01*
%TO.N,Net-(D2-K)*%
X198366196Y-150517570D02*
X197366196Y-150517570D01*
X197366196Y-150517570D02*
X197266196Y-150617570D01*
X201616196Y-150517570D02*
X198366196Y-150517570D01*
X198016196Y-150517570D02*
X197916196Y-150617570D01*
%TO.N,Net-(C4-Pad1)*%
X192216196Y-130037570D02*
X192216196Y-130537570D01*
X225516196Y-124897570D02*
X221886196Y-124897570D01*
X221866196Y-124877570D02*
X197376196Y-124877570D01*
X197376196Y-124877570D02*
X192216196Y-130037570D01*
X221886196Y-124897570D02*
X221866196Y-124877570D01*
X192216196Y-130537570D02*
X192216196Y-132297570D01*
%TO.N,Net-(R3-Pad2)*%
X225596196Y-137937570D02*
X225596196Y-135137570D01*
X225596196Y-135137570D02*
X225516196Y-135057570D01*
%TO.N,Net-(D4-K)*%
X210346196Y-148211570D02*
X207822196Y-148211570D01*
X207822196Y-148211570D02*
X205516196Y-150517570D01*
%TO.N,Net-(C3-Pad1)*%
X212016196Y-126937570D02*
X213916196Y-128837570D01*
X213916196Y-135037570D02*
X222216196Y-135037570D01*
X213916196Y-128837570D02*
X213916196Y-134137570D01*
X212916196Y-136037570D02*
X213916196Y-135037570D01*
X213916196Y-135037570D02*
X213916196Y-134137570D01*
X210346196Y-138051570D02*
X210902196Y-138051570D01*
X205509196Y-126937570D02*
X212016196Y-126937570D01*
X210902196Y-138051570D02*
X212916196Y-136037570D01*
%TD*%
%TA.AperFunction,Conductor*%
%TO.N,GND*%
G36*
X178476406Y-122150755D02*
G01*
X178522161Y-122203559D01*
X178533366Y-122255047D01*
X178534438Y-128232688D01*
X178534461Y-128358048D01*
X178514788Y-128425091D01*
X178461993Y-128470855D01*
X178410461Y-128482070D01*
X173964100Y-128482070D01*
X173897061Y-128462385D01*
X173876419Y-128445751D01*
X171973779Y-126543111D01*
X171973777Y-126543109D01*
X171966430Y-126538867D01*
X171904120Y-126502891D01*
X171904118Y-126502890D01*
X171904115Y-126502889D01*
X171826416Y-126482070D01*
X169495976Y-126482070D01*
X169418275Y-126502889D01*
X169355957Y-126538870D01*
X169348612Y-126543110D01*
X168848615Y-127043109D01*
X168791737Y-127099986D01*
X168791731Y-127099995D01*
X168751517Y-127169645D01*
X168751516Y-127169647D01*
X168730696Y-127247350D01*
X168730696Y-127576823D01*
X168711011Y-127643862D01*
X168694377Y-127664504D01*
X168631697Y-127727183D01*
X168631693Y-127727189D01*
X168565146Y-127842451D01*
X168565145Y-127842454D01*
X168530696Y-127971020D01*
X168530696Y-128104120D01*
X168565145Y-128232686D01*
X168631695Y-128347954D01*
X168725812Y-128442071D01*
X168841080Y-128508621D01*
X168969646Y-128543070D01*
X168969648Y-128543070D01*
X169102744Y-128543070D01*
X169102746Y-128543070D01*
X169231312Y-128508621D01*
X169346580Y-128442071D01*
X169440697Y-128347954D01*
X169507247Y-128232686D01*
X169541696Y-128104120D01*
X169541696Y-127971020D01*
X169507247Y-127842454D01*
X169440697Y-127727186D01*
X169378015Y-127664504D01*
X169344530Y-127603181D01*
X169341696Y-127576823D01*
X169341696Y-127465474D01*
X169361381Y-127398435D01*
X169378015Y-127377793D01*
X169626419Y-127129389D01*
X169687742Y-127095904D01*
X169714100Y-127093070D01*
X171608292Y-127093070D01*
X171675331Y-127112755D01*
X171695973Y-127129389D01*
X173598615Y-129032031D01*
X173633446Y-129052141D01*
X173668271Y-129072248D01*
X173668273Y-129072249D01*
X173668274Y-129072249D01*
X173668277Y-129072251D01*
X173745976Y-129093070D01*
X173745978Y-129093070D01*
X178410615Y-129093070D01*
X178477654Y-129112755D01*
X178523409Y-129165559D01*
X178534614Y-129217046D01*
X178535400Y-133595149D01*
X178535402Y-133608048D01*
X178515729Y-133675091D01*
X178462934Y-133720855D01*
X178411402Y-133732070D01*
X161774100Y-133732070D01*
X161707061Y-133712385D01*
X161686419Y-133695751D01*
X160388015Y-132397347D01*
X160354530Y-132336024D01*
X160351696Y-132309666D01*
X160351696Y-132096347D01*
X160371381Y-132029308D01*
X160424185Y-131983553D01*
X160428243Y-131981786D01*
X160546161Y-131932943D01*
X160546161Y-131932942D01*
X160546163Y-131932942D01*
X160719038Y-131817430D01*
X160866056Y-131670412D01*
X160981568Y-131497537D01*
X161061134Y-131305448D01*
X161101696Y-131101528D01*
X161101696Y-130893612D01*
X161061134Y-130689692D01*
X160981568Y-130497603D01*
X160866056Y-130324728D01*
X160866053Y-130324724D01*
X160719041Y-130177712D01*
X160719037Y-130177709D01*
X160643632Y-130127325D01*
X161530696Y-130127325D01*
X161530696Y-131867814D01*
X161542617Y-131927749D01*
X161542618Y-131927750D01*
X161542618Y-131927751D01*
X161542619Y-131927752D01*
X161554050Y-131944860D01*
X161588038Y-131995727D01*
X161613861Y-132012981D01*
X161656014Y-132041147D01*
X161656015Y-132041147D01*
X161656016Y-132041148D01*
X161715951Y-132053069D01*
X161715955Y-132053070D01*
X161715956Y-132053070D01*
X163456437Y-132053070D01*
X163456438Y-132053069D01*
X163479733Y-132048436D01*
X163516375Y-132041148D01*
X163516375Y-132041147D01*
X163516378Y-132041147D01*
X163584353Y-131995727D01*
X163629773Y-131927752D01*
X163641696Y-131867810D01*
X163641696Y-131427070D01*
X163661381Y-131360031D01*
X163714185Y-131314276D01*
X163765696Y-131303070D01*
X173126454Y-131303070D01*
X173193493Y-131322755D01*
X173233841Y-131365069D01*
X173281695Y-131447954D01*
X173375812Y-131542071D01*
X173491080Y-131608621D01*
X173619646Y-131643070D01*
X173619648Y-131643070D01*
X173752744Y-131643070D01*
X173752746Y-131643070D01*
X173881312Y-131608621D01*
X173996580Y-131542071D01*
X174090697Y-131447954D01*
X174157247Y-131332686D01*
X174191696Y-131204120D01*
X174191696Y-131071020D01*
X174157247Y-130942454D01*
X174090697Y-130827186D01*
X173996580Y-130733069D01*
X173881312Y-130666519D01*
X173752746Y-130632070D01*
X173619646Y-130632070D01*
X173491080Y-130666519D01*
X173491077Y-130666520D01*
X173475599Y-130675457D01*
X173413599Y-130692070D01*
X163765696Y-130692070D01*
X163698657Y-130672385D01*
X163652902Y-130619581D01*
X163641696Y-130568070D01*
X163641696Y-130127329D01*
X163641695Y-130127325D01*
X163629774Y-130067390D01*
X163629773Y-130067389D01*
X163629773Y-130067388D01*
X163589680Y-130007385D01*
X163584353Y-129999412D01*
X163517258Y-129954581D01*
X163516378Y-129953993D01*
X163516377Y-129953992D01*
X163516376Y-129953992D01*
X163516375Y-129953991D01*
X163456440Y-129942070D01*
X163456436Y-129942070D01*
X161715956Y-129942070D01*
X161715951Y-129942070D01*
X161656016Y-129953991D01*
X161656015Y-129953992D01*
X161588038Y-129999412D01*
X161542618Y-130067389D01*
X161542617Y-130067390D01*
X161530696Y-130127325D01*
X160643632Y-130127325D01*
X160546160Y-130062196D01*
X160354074Y-129982632D01*
X160354066Y-129982630D01*
X160150158Y-129942070D01*
X160150154Y-129942070D01*
X159942238Y-129942070D01*
X159942233Y-129942070D01*
X159738325Y-129982630D01*
X159738317Y-129982632D01*
X159546231Y-130062196D01*
X159373354Y-130177709D01*
X159373350Y-130177712D01*
X159226338Y-130324724D01*
X159226335Y-130324728D01*
X159110822Y-130497605D01*
X159031258Y-130689691D01*
X159031256Y-130689699D01*
X158990696Y-130893607D01*
X158990696Y-131101532D01*
X159031256Y-131305440D01*
X159031258Y-131305448D01*
X159110822Y-131497534D01*
X159226335Y-131670411D01*
X159226338Y-131670415D01*
X159373350Y-131817427D01*
X159373354Y-131817430D01*
X159546230Y-131932943D01*
X159664149Y-131981786D01*
X159718552Y-132025627D01*
X159740617Y-132091921D01*
X159740696Y-132096347D01*
X159740696Y-132527789D01*
X159761516Y-132605492D01*
X159761517Y-132605494D01*
X159796628Y-132666306D01*
X159801735Y-132675151D01*
X161351735Y-134225151D01*
X161408615Y-134282031D01*
X161443446Y-134302141D01*
X161478271Y-134322248D01*
X161478273Y-134322249D01*
X161478274Y-134322249D01*
X161478277Y-134322251D01*
X161555976Y-134343070D01*
X161555978Y-134343070D01*
X178411556Y-134343070D01*
X178478595Y-134362755D01*
X178524350Y-134415559D01*
X178535555Y-134467047D01*
X178536029Y-137108050D01*
X178516357Y-137175091D01*
X178463562Y-137220855D01*
X178412030Y-137232070D01*
X165185976Y-137232070D01*
X165108273Y-137252890D01*
X165108271Y-137252891D01*
X165038621Y-137293105D01*
X165038612Y-137293111D01*
X161235973Y-141095751D01*
X161174650Y-141129236D01*
X161148292Y-141132070D01*
X155916625Y-141132070D01*
X155849586Y-141112385D01*
X155828944Y-141095751D01*
X155304863Y-140571670D01*
X154587528Y-140571670D01*
X154080296Y-141078902D01*
X154080296Y-141560065D01*
X154060611Y-141627104D01*
X154043977Y-141647746D01*
X150447127Y-145244595D01*
X150385804Y-145278080D01*
X150316112Y-145273096D01*
X150311994Y-145271475D01*
X150194078Y-145222633D01*
X150194066Y-145222630D01*
X149990158Y-145182070D01*
X149990154Y-145182070D01*
X149782238Y-145182070D01*
X149782233Y-145182070D01*
X149578325Y-145222630D01*
X149578317Y-145222632D01*
X149386231Y-145302196D01*
X149213354Y-145417709D01*
X149213350Y-145417712D01*
X149066338Y-145564724D01*
X149066335Y-145564728D01*
X148950822Y-145737605D01*
X148871258Y-145929691D01*
X148871256Y-145929699D01*
X148830696Y-146133607D01*
X148830696Y-146341532D01*
X148871256Y-146545440D01*
X148871258Y-146545448D01*
X148950822Y-146737534D01*
X149066335Y-146910411D01*
X149066338Y-146910415D01*
X149213350Y-147057427D01*
X149213354Y-147057430D01*
X149386229Y-147172942D01*
X149578318Y-147252508D01*
X149722297Y-147281147D01*
X149782233Y-147293069D01*
X149782237Y-147293070D01*
X149782238Y-147293070D01*
X149990155Y-147293070D01*
X149990156Y-147293069D01*
X150194074Y-147252508D01*
X150386163Y-147172942D01*
X150559038Y-147057430D01*
X150706056Y-146910412D01*
X150821568Y-146737537D01*
X150901134Y-146545448D01*
X150941696Y-146341528D01*
X150941696Y-146133612D01*
X150941695Y-146133607D01*
X151370696Y-146133607D01*
X151370696Y-146341532D01*
X151411256Y-146545440D01*
X151411258Y-146545448D01*
X151490822Y-146737534D01*
X151606335Y-146910411D01*
X151606338Y-146910415D01*
X151753350Y-147057427D01*
X151753354Y-147057430D01*
X151926229Y-147172942D01*
X152118318Y-147252508D01*
X152262297Y-147281147D01*
X152322233Y-147293069D01*
X152322237Y-147293070D01*
X152322238Y-147293070D01*
X152530155Y-147293070D01*
X152530156Y-147293069D01*
X152734074Y-147252508D01*
X152926163Y-147172942D01*
X153099038Y-147057430D01*
X153246056Y-146910412D01*
X153361568Y-146737537D01*
X153441134Y-146545448D01*
X153481696Y-146341528D01*
X153481696Y-146133612D01*
X153481695Y-146133607D01*
X153910696Y-146133607D01*
X153910696Y-146341532D01*
X153951256Y-146545440D01*
X153951258Y-146545448D01*
X154030822Y-146737534D01*
X154146335Y-146910411D01*
X154146338Y-146910415D01*
X154293350Y-147057427D01*
X154293354Y-147057430D01*
X154466229Y-147172942D01*
X154658318Y-147252508D01*
X154802297Y-147281147D01*
X154862233Y-147293069D01*
X154862237Y-147293070D01*
X154862238Y-147293070D01*
X155070155Y-147293070D01*
X155070156Y-147293069D01*
X155274074Y-147252508D01*
X155466163Y-147172942D01*
X155639038Y-147057430D01*
X155786056Y-146910412D01*
X155901568Y-146737537D01*
X155981134Y-146545448D01*
X156021696Y-146341528D01*
X156021696Y-146133612D01*
X156021695Y-146133607D01*
X156450696Y-146133607D01*
X156450696Y-146341532D01*
X156491256Y-146545440D01*
X156491258Y-146545448D01*
X156570822Y-146737534D01*
X156686335Y-146910411D01*
X156686338Y-146910415D01*
X156833350Y-147057427D01*
X156833354Y-147057430D01*
X157006229Y-147172942D01*
X157198318Y-147252508D01*
X157342297Y-147281147D01*
X157402233Y-147293069D01*
X157402237Y-147293070D01*
X157402238Y-147293070D01*
X157610155Y-147293070D01*
X157610156Y-147293069D01*
X157814074Y-147252508D01*
X158006163Y-147172942D01*
X158179038Y-147057430D01*
X158326056Y-146910412D01*
X158441568Y-146737537D01*
X158507740Y-146577781D01*
X158551579Y-146523380D01*
X158617873Y-146501315D01*
X158685573Y-146518594D01*
X158733184Y-146569731D01*
X158740231Y-146586918D01*
X158795100Y-146755786D01*
X158891575Y-146945127D01*
X159016468Y-147117029D01*
X159016472Y-147117034D01*
X159166731Y-147267293D01*
X159166736Y-147267297D01*
X159338638Y-147392190D01*
X159527978Y-147488665D01*
X159730067Y-147554327D01*
X159796196Y-147564801D01*
X159796196Y-146670582D01*
X159853203Y-146703495D01*
X159980370Y-146737570D01*
X160112022Y-146737570D01*
X160239189Y-146703495D01*
X160296196Y-146670582D01*
X160296196Y-147564800D01*
X160362322Y-147554327D01*
X160362325Y-147554327D01*
X160564413Y-147488665D01*
X160753753Y-147392190D01*
X160925655Y-147267297D01*
X160925660Y-147267293D01*
X161075919Y-147117034D01*
X161075923Y-147117029D01*
X161200816Y-146945127D01*
X161296211Y-146757907D01*
X161344186Y-146707111D01*
X161412007Y-146690316D01*
X161478142Y-146712853D01*
X161521593Y-146767569D01*
X161530696Y-146814202D01*
X161530696Y-147107814D01*
X161542617Y-147167749D01*
X161542618Y-147167750D01*
X161588038Y-147235727D01*
X161622026Y-147258437D01*
X161656014Y-147281147D01*
X161656015Y-147281147D01*
X161656016Y-147281148D01*
X161715951Y-147293069D01*
X161715955Y-147293070D01*
X161715956Y-147293070D01*
X163456437Y-147293070D01*
X163456438Y-147293069D01*
X163476597Y-147289059D01*
X163516375Y-147281148D01*
X163516375Y-147281147D01*
X163516378Y-147281147D01*
X163584353Y-147235727D01*
X163629773Y-147167752D01*
X163634490Y-147144038D01*
X173869500Y-147144038D01*
X173869500Y-147395961D01*
X173908910Y-147644785D01*
X173986760Y-147884383D01*
X174101132Y-148108848D01*
X174249201Y-148312649D01*
X174249205Y-148312654D01*
X174427345Y-148490794D01*
X174427350Y-148490798D01*
X174484845Y-148532570D01*
X174631155Y-148638870D01*
X174774184Y-148711747D01*
X174855616Y-148753239D01*
X174855618Y-148753239D01*
X174855621Y-148753241D01*
X175095215Y-148831090D01*
X175344038Y-148870500D01*
X175344039Y-148870500D01*
X175595961Y-148870500D01*
X175595962Y-148870500D01*
X175844785Y-148831090D01*
X176084379Y-148753241D01*
X176308845Y-148638870D01*
X176512656Y-148490793D01*
X176690793Y-148312656D01*
X176838870Y-148108845D01*
X176953241Y-147884379D01*
X177031090Y-147644785D01*
X177070500Y-147395962D01*
X177070500Y-147144038D01*
X177031090Y-146895215D01*
X176953241Y-146655621D01*
X176953239Y-146655618D01*
X176953239Y-146655616D01*
X176895193Y-146541695D01*
X176838870Y-146431155D01*
X176807539Y-146388031D01*
X176690798Y-146227350D01*
X176690794Y-146227345D01*
X176512654Y-146049205D01*
X176512649Y-146049201D01*
X176308848Y-145901132D01*
X176308847Y-145901131D01*
X176308845Y-145901130D01*
X176185083Y-145838070D01*
X176084383Y-145786760D01*
X175844785Y-145708910D01*
X175595962Y-145669500D01*
X175344038Y-145669500D01*
X175278868Y-145679822D01*
X175095214Y-145708910D01*
X174855616Y-145786760D01*
X174631151Y-145901132D01*
X174427350Y-146049201D01*
X174427345Y-146049205D01*
X174249205Y-146227345D01*
X174249201Y-146227350D01*
X174101132Y-146431151D01*
X173986760Y-146655616D01*
X173908910Y-146895214D01*
X173869500Y-147144038D01*
X163634490Y-147144038D01*
X163641696Y-147107810D01*
X163641696Y-146817070D01*
X163661381Y-146750031D01*
X163714185Y-146704276D01*
X163765696Y-146693070D01*
X166565687Y-146693070D01*
X166632726Y-146712755D01*
X166653363Y-146729384D01*
X166691548Y-146767569D01*
X166720409Y-146796430D01*
X166858063Y-146888408D01*
X166858076Y-146888415D01*
X166911190Y-146910415D01*
X167011031Y-146951770D01*
X167011033Y-146951770D01*
X167011038Y-146951772D01*
X167173409Y-146984069D01*
X167173412Y-146984070D01*
X167173414Y-146984070D01*
X167338980Y-146984070D01*
X167338981Y-146984069D01*
X167393105Y-146973303D01*
X167501353Y-146951772D01*
X167501356Y-146951770D01*
X167501361Y-146951770D01*
X167654322Y-146888412D01*
X167791984Y-146796429D01*
X167909055Y-146679358D01*
X168001038Y-146541696D01*
X168007697Y-146525618D01*
X168051538Y-146471215D01*
X168117832Y-146449149D01*
X168122259Y-146449070D01*
X168470414Y-146449070D01*
X168470416Y-146449070D01*
X168548115Y-146428251D01*
X168617777Y-146388031D01*
X169280657Y-145725152D01*
X169320877Y-145655489D01*
X169341696Y-145577791D01*
X169341696Y-145497350D01*
X169341696Y-141998317D01*
X169361381Y-141931278D01*
X169378015Y-141910636D01*
X169402978Y-141885673D01*
X169440697Y-141847954D01*
X169507247Y-141732686D01*
X169541696Y-141604120D01*
X169541696Y-141471020D01*
X169507247Y-141342454D01*
X169440697Y-141227186D01*
X169346580Y-141133069D01*
X169231312Y-141066519D01*
X169102746Y-141032070D01*
X168969646Y-141032070D01*
X168841080Y-141066519D01*
X168841077Y-141066520D01*
X168725815Y-141133067D01*
X168725809Y-141133071D01*
X168631697Y-141227183D01*
X168631693Y-141227189D01*
X168565146Y-141342451D01*
X168565145Y-141342454D01*
X168530696Y-141471020D01*
X168530696Y-141604120D01*
X168565145Y-141732686D01*
X168631695Y-141847954D01*
X168631697Y-141847956D01*
X168694377Y-141910636D01*
X168727862Y-141971959D01*
X168730696Y-141998317D01*
X168730696Y-145359665D01*
X168711011Y-145426704D01*
X168694377Y-145447346D01*
X168339973Y-145801751D01*
X168278650Y-145835236D01*
X168252292Y-145838070D01*
X168122259Y-145838070D01*
X168055220Y-145818385D01*
X168009465Y-145765581D01*
X168007697Y-145761521D01*
X168006962Y-145759747D01*
X168001038Y-145745444D01*
X168001034Y-145745437D01*
X167909055Y-145607782D01*
X167909052Y-145607778D01*
X167791987Y-145490713D01*
X167791983Y-145490710D01*
X167692997Y-145424569D01*
X167648192Y-145370956D01*
X167639485Y-145301631D01*
X167669640Y-145238604D01*
X167714435Y-145206906D01*
X167776979Y-145180999D01*
X167843826Y-145129070D01*
X167843832Y-145129065D01*
X168273692Y-144699205D01*
X168273703Y-144699192D01*
X168325625Y-144632354D01*
X168325625Y-144632353D01*
X168380646Y-144499520D01*
X168391195Y-144415537D01*
X168391196Y-144415531D01*
X168391196Y-144361570D01*
X167580933Y-144361570D01*
X167581397Y-144361106D01*
X167634901Y-144268435D01*
X167662596Y-144165074D01*
X167662596Y-144058066D01*
X167634901Y-143954705D01*
X167581397Y-143862034D01*
X167580933Y-143861570D01*
X168391195Y-143861570D01*
X168391195Y-143807609D01*
X168380647Y-143723619D01*
X168325625Y-143590786D01*
X168273696Y-143523939D01*
X168273691Y-143523933D01*
X167843831Y-143094073D01*
X167843818Y-143094062D01*
X167776980Y-143042140D01*
X167644146Y-142987119D01*
X167560163Y-142976570D01*
X167506196Y-142976570D01*
X167506196Y-143786833D01*
X167505732Y-143786369D01*
X167413061Y-143732865D01*
X167309700Y-143705170D01*
X167202692Y-143705170D01*
X167099331Y-143732865D01*
X167006660Y-143786369D01*
X167006196Y-143786833D01*
X167006196Y-142976570D01*
X167006195Y-142976569D01*
X166952237Y-142976570D01*
X166952235Y-142976571D01*
X166868245Y-142987118D01*
X166735412Y-143042140D01*
X166668565Y-143094069D01*
X166668559Y-143094074D01*
X166238699Y-143523934D01*
X166238688Y-143523947D01*
X166186766Y-143590785D01*
X166186766Y-143590786D01*
X166131745Y-143723619D01*
X166121196Y-143807602D01*
X166121196Y-143861570D01*
X166931459Y-143861570D01*
X166930995Y-143862034D01*
X166877491Y-143954705D01*
X166849796Y-144058066D01*
X166849796Y-144165074D01*
X166877491Y-144268435D01*
X166930995Y-144361106D01*
X166931459Y-144361570D01*
X166121197Y-144361570D01*
X166121197Y-144415530D01*
X166131744Y-144499520D01*
X166186766Y-144632353D01*
X166238695Y-144699200D01*
X166238700Y-144699206D01*
X166668560Y-145129066D01*
X166668573Y-145129077D01*
X166735411Y-145180999D01*
X166797956Y-145206906D01*
X166852359Y-145250747D01*
X166874424Y-145317041D01*
X166857145Y-145384740D01*
X166819395Y-145424569D01*
X166720404Y-145490713D01*
X166603339Y-145607778D01*
X166603336Y-145607782D01*
X166523703Y-145726961D01*
X166470090Y-145771766D01*
X166420601Y-145782070D01*
X163765696Y-145782070D01*
X163698657Y-145762385D01*
X163652902Y-145709581D01*
X163641696Y-145658070D01*
X163641696Y-145367329D01*
X163641695Y-145367325D01*
X163629774Y-145307390D01*
X163629773Y-145307389D01*
X163629773Y-145307388D01*
X163605776Y-145271475D01*
X163584353Y-145239412D01*
X163533486Y-145205424D01*
X163516378Y-145193993D01*
X163516377Y-145193992D01*
X163516376Y-145193992D01*
X163516375Y-145193991D01*
X163456440Y-145182070D01*
X163456436Y-145182070D01*
X161715956Y-145182070D01*
X161715951Y-145182070D01*
X161656016Y-145193991D01*
X161656015Y-145193992D01*
X161588038Y-145239412D01*
X161542618Y-145307389D01*
X161542617Y-145307390D01*
X161530696Y-145367325D01*
X161530696Y-145660937D01*
X161511011Y-145727976D01*
X161458207Y-145773731D01*
X161389049Y-145783675D01*
X161325493Y-145754650D01*
X161296211Y-145717232D01*
X161200816Y-145530012D01*
X161075923Y-145358110D01*
X161075919Y-145358105D01*
X160925660Y-145207846D01*
X160925655Y-145207842D01*
X160753753Y-145082949D01*
X160564411Y-144986473D01*
X160362320Y-144920811D01*
X160296196Y-144910338D01*
X160296196Y-145804558D01*
X160239189Y-145771645D01*
X160112022Y-145737570D01*
X159980370Y-145737570D01*
X159853203Y-145771645D01*
X159796196Y-145804558D01*
X159796196Y-144910338D01*
X159796195Y-144910338D01*
X159730071Y-144920811D01*
X159527980Y-144986473D01*
X159338638Y-145082949D01*
X159166736Y-145207842D01*
X159166731Y-145207846D01*
X159016472Y-145358105D01*
X159016468Y-145358110D01*
X158891575Y-145530012D01*
X158795101Y-145719351D01*
X158740231Y-145888222D01*
X158700793Y-145945897D01*
X158636434Y-145973095D01*
X158567588Y-145961180D01*
X158516112Y-145913936D01*
X158507742Y-145897361D01*
X158451475Y-145761521D01*
X158441570Y-145737607D01*
X158441569Y-145737605D01*
X158436457Y-145729955D01*
X158326056Y-145564728D01*
X158326053Y-145564724D01*
X158179041Y-145417712D01*
X158179037Y-145417709D01*
X158006160Y-145302196D01*
X157814074Y-145222632D01*
X157814066Y-145222630D01*
X157610158Y-145182070D01*
X157610154Y-145182070D01*
X157402238Y-145182070D01*
X157402233Y-145182070D01*
X157198325Y-145222630D01*
X157198317Y-145222632D01*
X157006231Y-145302196D01*
X156833354Y-145417709D01*
X156833350Y-145417712D01*
X156686338Y-145564724D01*
X156686335Y-145564728D01*
X156570822Y-145737605D01*
X156491258Y-145929691D01*
X156491256Y-145929699D01*
X156450696Y-146133607D01*
X156021695Y-146133607D01*
X155981134Y-145929692D01*
X155904813Y-145745437D01*
X155901569Y-145737605D01*
X155896457Y-145729955D01*
X155786056Y-145564728D01*
X155786053Y-145564724D01*
X155639041Y-145417712D01*
X155639037Y-145417709D01*
X155466160Y-145302196D01*
X155274074Y-145222632D01*
X155274066Y-145222630D01*
X155070158Y-145182070D01*
X155070154Y-145182070D01*
X154862238Y-145182070D01*
X154862233Y-145182070D01*
X154658325Y-145222630D01*
X154658317Y-145222632D01*
X154466231Y-145302196D01*
X154293354Y-145417709D01*
X154293350Y-145417712D01*
X154146338Y-145564724D01*
X154146335Y-145564728D01*
X154030822Y-145737605D01*
X153951258Y-145929691D01*
X153951256Y-145929699D01*
X153910696Y-146133607D01*
X153481695Y-146133607D01*
X153441134Y-145929692D01*
X153364813Y-145745437D01*
X153361569Y-145737605D01*
X153356457Y-145729955D01*
X153246056Y-145564728D01*
X153246053Y-145564724D01*
X153099041Y-145417712D01*
X153099037Y-145417709D01*
X152926160Y-145302196D01*
X152734074Y-145222632D01*
X152734066Y-145222630D01*
X152530158Y-145182070D01*
X152530154Y-145182070D01*
X152322238Y-145182070D01*
X152322233Y-145182070D01*
X152118325Y-145222630D01*
X152118317Y-145222632D01*
X151926231Y-145302196D01*
X151753354Y-145417709D01*
X151753350Y-145417712D01*
X151606338Y-145564724D01*
X151606335Y-145564728D01*
X151490822Y-145737605D01*
X151411258Y-145929691D01*
X151411256Y-145929699D01*
X151370696Y-146133607D01*
X150941695Y-146133607D01*
X150901134Y-145929692D01*
X150852288Y-145811769D01*
X150844820Y-145742302D01*
X150876095Y-145679822D01*
X150879141Y-145676665D01*
X154332252Y-142223555D01*
X154393575Y-142190070D01*
X154463267Y-142195054D01*
X154507614Y-142223555D01*
X154587529Y-142303470D01*
X155304864Y-142303469D01*
X155812096Y-141796237D01*
X155812096Y-141796236D01*
X155828944Y-141779389D01*
X155890267Y-141745904D01*
X155916625Y-141743070D01*
X161366414Y-141743070D01*
X161366416Y-141743070D01*
X161444115Y-141722251D01*
X161513777Y-141682031D01*
X165316419Y-137879389D01*
X165377742Y-137845904D01*
X165404100Y-137843070D01*
X178412183Y-137843070D01*
X178479222Y-137862755D01*
X178524977Y-137915559D01*
X178536183Y-137967048D01*
X178536667Y-140668941D01*
X178516994Y-140735984D01*
X178464199Y-140781748D01*
X178444761Y-140788738D01*
X178341078Y-140816519D01*
X178341077Y-140816520D01*
X178225815Y-140883067D01*
X178225809Y-140883071D01*
X178131697Y-140977183D01*
X178131693Y-140977189D01*
X178065146Y-141092451D01*
X178065145Y-141092454D01*
X178030696Y-141221020D01*
X178030696Y-141354120D01*
X178065145Y-141482686D01*
X178131695Y-141597954D01*
X178225812Y-141692071D01*
X178341080Y-141758621D01*
X178444982Y-141786461D01*
X178504643Y-141822826D01*
X178535172Y-141885673D01*
X178536889Y-141906214D01*
X178539039Y-153898048D01*
X178519366Y-153965091D01*
X178466571Y-154010855D01*
X178415039Y-154022070D01*
X132734196Y-154022070D01*
X132667157Y-154002385D01*
X132621402Y-153949581D01*
X132610196Y-153898070D01*
X132610196Y-149332555D01*
X133011196Y-149332555D01*
X133021689Y-149435259D01*
X133021690Y-149435266D01*
X133076837Y-149601688D01*
X133076839Y-149601693D01*
X133168880Y-149750914D01*
X133292851Y-149874885D01*
X133442072Y-149966926D01*
X133442077Y-149966928D01*
X133608499Y-150022075D01*
X133608506Y-150022076D01*
X133711210Y-150032569D01*
X133711223Y-150032570D01*
X134961196Y-150032570D01*
X135461196Y-150032570D01*
X136711169Y-150032570D01*
X136711181Y-150032569D01*
X136813885Y-150022076D01*
X136813892Y-150022075D01*
X136980314Y-149966928D01*
X136980319Y-149966926D01*
X137129540Y-149874885D01*
X137253511Y-149750914D01*
X137345552Y-149601693D01*
X137345554Y-149601688D01*
X137400701Y-149435266D01*
X137400702Y-149435259D01*
X137411195Y-149332555D01*
X137411196Y-149332542D01*
X137411196Y-149032570D01*
X135461196Y-149032570D01*
X135461196Y-150032570D01*
X134961196Y-150032570D01*
X134961196Y-149032570D01*
X133011196Y-149032570D01*
X133011196Y-149332555D01*
X132610196Y-149332555D01*
X132610196Y-148232584D01*
X133011196Y-148232584D01*
X133011196Y-148532570D01*
X134961196Y-148532570D01*
X134961196Y-147532570D01*
X135461196Y-147532570D01*
X135461196Y-148532570D01*
X137411196Y-148532570D01*
X137411196Y-148232597D01*
X137411195Y-148232584D01*
X137400702Y-148129880D01*
X137400701Y-148129876D01*
X137397175Y-148119234D01*
X137394773Y-148049406D01*
X137430504Y-147989364D01*
X137493024Y-147958171D01*
X137562483Y-147965730D01*
X137616830Y-148009642D01*
X137621386Y-148016837D01*
X137621706Y-148017254D01*
X139806507Y-150202057D01*
X139806511Y-150202060D01*
X139806512Y-150202061D01*
X139888426Y-150249352D01*
X139888428Y-150249354D01*
X139888429Y-150249354D01*
X139910380Y-150262028D01*
X140026228Y-150293070D01*
X145730919Y-150293070D01*
X145782943Y-150307011D01*
X145783566Y-150305509D01*
X145791075Y-150308618D01*
X145791080Y-150308621D01*
X145919646Y-150343070D01*
X145919648Y-150343070D01*
X146052744Y-150343070D01*
X146052746Y-150343070D01*
X146181312Y-150308621D01*
X146296580Y-150242071D01*
X146390697Y-150147954D01*
X146457247Y-150032686D01*
X146491696Y-149904120D01*
X146491696Y-149771020D01*
X146457247Y-149642454D01*
X146390697Y-149527186D01*
X146296580Y-149433069D01*
X146181312Y-149366519D01*
X146052746Y-149332070D01*
X145919646Y-149332070D01*
X145791080Y-149366519D01*
X145791079Y-149366519D01*
X145791077Y-149366520D01*
X145783566Y-149369631D01*
X145782943Y-149368128D01*
X145730919Y-149382070D01*
X140326233Y-149382070D01*
X140259194Y-149362385D01*
X140238552Y-149345751D01*
X138478015Y-147585214D01*
X138444530Y-147523891D01*
X138441696Y-147497533D01*
X138441696Y-146127702D01*
X139005696Y-146127702D01*
X139005696Y-146737437D01*
X139008581Y-146768209D01*
X139008581Y-146768211D01*
X139053023Y-146895214D01*
X139053933Y-146897815D01*
X139135471Y-147008295D01*
X139245951Y-147089833D01*
X139289153Y-147104950D01*
X139375555Y-147135184D01*
X139406328Y-147138070D01*
X139406332Y-147138070D01*
X142516064Y-147138070D01*
X142546835Y-147135184D01*
X142546837Y-147135184D01*
X142625054Y-147107814D01*
X142676441Y-147089833D01*
X142786921Y-147008295D01*
X142868459Y-146897815D01*
X142896713Y-146817070D01*
X142913810Y-146768211D01*
X142913810Y-146768209D01*
X142916696Y-146737437D01*
X142916696Y-146390474D01*
X142936381Y-146323435D01*
X142953015Y-146302793D01*
X143122201Y-146133607D01*
X146290696Y-146133607D01*
X146290696Y-146341532D01*
X146331256Y-146545440D01*
X146331258Y-146545448D01*
X146410822Y-146737534D01*
X146526335Y-146910411D01*
X146526338Y-146910415D01*
X146673350Y-147057427D01*
X146673354Y-147057430D01*
X146846229Y-147172942D01*
X147038318Y-147252508D01*
X147182297Y-147281147D01*
X147242233Y-147293069D01*
X147242237Y-147293070D01*
X147242238Y-147293070D01*
X147450155Y-147293070D01*
X147450156Y-147293069D01*
X147654074Y-147252508D01*
X147846163Y-147172942D01*
X148019038Y-147057430D01*
X148166056Y-146910412D01*
X148281568Y-146737537D01*
X148361134Y-146545448D01*
X148401696Y-146341528D01*
X148401696Y-146133612D01*
X148361134Y-145929692D01*
X148284813Y-145745437D01*
X148281569Y-145737605D01*
X148276457Y-145729955D01*
X148166056Y-145564728D01*
X148166053Y-145564724D01*
X148019041Y-145417712D01*
X148019037Y-145417709D01*
X147846160Y-145302196D01*
X147654074Y-145222632D01*
X147654066Y-145222630D01*
X147450158Y-145182070D01*
X147450154Y-145182070D01*
X147242238Y-145182070D01*
X147242233Y-145182070D01*
X147038325Y-145222630D01*
X147038317Y-145222632D01*
X146846231Y-145302196D01*
X146673354Y-145417709D01*
X146673350Y-145417712D01*
X146526338Y-145564724D01*
X146526335Y-145564728D01*
X146410822Y-145737605D01*
X146331258Y-145929691D01*
X146331256Y-145929699D01*
X146290696Y-146133607D01*
X143122201Y-146133607D01*
X144371419Y-144884389D01*
X144432742Y-144850904D01*
X144459100Y-144848070D01*
X144547744Y-144848070D01*
X144547746Y-144848070D01*
X144676312Y-144813621D01*
X144791580Y-144747071D01*
X144885697Y-144652954D01*
X144952247Y-144537686D01*
X144986696Y-144409120D01*
X144986696Y-144276020D01*
X144952247Y-144147454D01*
X144885697Y-144032186D01*
X144791580Y-143938069D01*
X144676312Y-143871519D01*
X144547746Y-143837070D01*
X144414646Y-143837070D01*
X144286080Y-143871519D01*
X144286077Y-143871520D01*
X144170815Y-143938067D01*
X144170809Y-143938071D01*
X144076697Y-144032183D01*
X144076693Y-144032189D01*
X144010146Y-144147451D01*
X144010145Y-144147454D01*
X143975696Y-144276020D01*
X143975696Y-144364664D01*
X143956011Y-144431703D01*
X143939377Y-144452345D01*
X142687068Y-145704653D01*
X142625745Y-145738138D01*
X142558435Y-145734014D01*
X142546840Y-145729957D01*
X142546830Y-145729955D01*
X142516064Y-145727070D01*
X142516060Y-145727070D01*
X139406332Y-145727070D01*
X139406328Y-145727070D01*
X139375556Y-145729955D01*
X139375554Y-145729955D01*
X139245952Y-145775306D01*
X139135471Y-145856845D01*
X139053932Y-145967326D01*
X139008581Y-146096928D01*
X139008581Y-146096930D01*
X139005696Y-146127702D01*
X138441696Y-146127702D01*
X138441696Y-143477606D01*
X138461381Y-143410567D01*
X138478015Y-143389925D01*
X138690338Y-143177602D01*
X138916459Y-142951480D01*
X138977780Y-142917997D01*
X139047471Y-142922981D01*
X139103405Y-142964852D01*
X139103907Y-142965528D01*
X139119842Y-142987119D01*
X139135471Y-143008295D01*
X139245951Y-143089833D01*
X139289153Y-143104950D01*
X139375555Y-143135184D01*
X139406328Y-143138070D01*
X139406332Y-143138070D01*
X142516064Y-143138070D01*
X142546835Y-143135184D01*
X142546837Y-143135184D01*
X142611638Y-143112508D01*
X142676441Y-143089833D01*
X142786921Y-143008295D01*
X142868459Y-142897815D01*
X142891134Y-142833012D01*
X142913810Y-142768211D01*
X142913810Y-142768209D01*
X142916696Y-142737437D01*
X142916696Y-142127702D01*
X142913810Y-142096930D01*
X142913810Y-142096928D01*
X142879304Y-141998317D01*
X142868459Y-141967325D01*
X142786921Y-141856845D01*
X142676441Y-141775307D01*
X142676439Y-141775306D01*
X142546836Y-141729955D01*
X142516064Y-141727070D01*
X142516060Y-141727070D01*
X139406332Y-141727070D01*
X139406328Y-141727070D01*
X139375556Y-141729955D01*
X139375554Y-141729955D01*
X139245952Y-141775306D01*
X139245951Y-141775307D01*
X139135471Y-141856845D01*
X139095772Y-141910636D01*
X139083913Y-141926704D01*
X139028265Y-141968954D01*
X138984143Y-141977070D01*
X138731228Y-141977070D01*
X138653996Y-141997764D01*
X138615379Y-142008112D01*
X138511514Y-142068078D01*
X138511511Y-142068080D01*
X137621706Y-142957885D01*
X137621704Y-142957888D01*
X137561738Y-143061753D01*
X137530696Y-143177603D01*
X137530696Y-147797540D01*
X137532398Y-147803891D01*
X137530735Y-147873740D01*
X137491572Y-147931603D01*
X137427343Y-147959106D01*
X137358441Y-147947519D01*
X137307084Y-147901080D01*
X137253511Y-147814225D01*
X137129540Y-147690254D01*
X136980319Y-147598213D01*
X136980314Y-147598211D01*
X136813892Y-147543064D01*
X136813885Y-147543063D01*
X136711181Y-147532570D01*
X135461196Y-147532570D01*
X134961196Y-147532570D01*
X133711210Y-147532570D01*
X133608506Y-147543063D01*
X133608499Y-147543064D01*
X133442077Y-147598211D01*
X133442072Y-147598213D01*
X133292851Y-147690254D01*
X133168880Y-147814225D01*
X133076839Y-147963446D01*
X133076837Y-147963451D01*
X133021690Y-148129873D01*
X133021689Y-148129880D01*
X133011196Y-148232584D01*
X132610196Y-148232584D01*
X132610196Y-140732556D01*
X138711197Y-140732556D01*
X138721690Y-140835267D01*
X138776837Y-141001689D01*
X138776839Y-141001694D01*
X138868880Y-141150915D01*
X138992850Y-141274885D01*
X139142071Y-141366926D01*
X139142076Y-141366928D01*
X139308498Y-141422075D01*
X139308505Y-141422076D01*
X139411215Y-141432569D01*
X140711195Y-141432569D01*
X140711196Y-141432568D01*
X140711196Y-140682570D01*
X138711197Y-140682570D01*
X138711197Y-140732556D01*
X132610196Y-140732556D01*
X132610196Y-140132583D01*
X138711196Y-140132583D01*
X138711196Y-140182570D01*
X140711196Y-140182570D01*
X140711196Y-139432570D01*
X139411224Y-139432570D01*
X139411208Y-139432571D01*
X139308498Y-139443064D01*
X139142076Y-139498211D01*
X139142071Y-139498213D01*
X138992850Y-139590254D01*
X138868880Y-139714224D01*
X138776839Y-139863445D01*
X138776837Y-139863450D01*
X138721690Y-140029872D01*
X138721689Y-140029879D01*
X138711196Y-140132583D01*
X132610196Y-140132583D01*
X132610196Y-138632555D01*
X133011196Y-138632555D01*
X133021689Y-138735259D01*
X133021690Y-138735266D01*
X133076837Y-138901688D01*
X133076839Y-138901693D01*
X133168880Y-139050914D01*
X133292851Y-139174885D01*
X133442072Y-139266926D01*
X133442077Y-139266928D01*
X133608499Y-139322075D01*
X133608506Y-139322076D01*
X133711210Y-139332569D01*
X133711223Y-139332570D01*
X134961196Y-139332570D01*
X135461196Y-139332570D01*
X136711169Y-139332570D01*
X136711181Y-139332569D01*
X136813885Y-139322076D01*
X136813892Y-139322075D01*
X136980314Y-139266928D01*
X136980319Y-139266926D01*
X137129540Y-139174885D01*
X137253511Y-139050914D01*
X137345552Y-138901693D01*
X137345554Y-138901688D01*
X137400701Y-138735266D01*
X137400702Y-138735259D01*
X137411195Y-138632555D01*
X137411196Y-138632542D01*
X137411196Y-138332570D01*
X135461196Y-138332570D01*
X135461196Y-139332570D01*
X134961196Y-139332570D01*
X134961196Y-138332570D01*
X133011196Y-138332570D01*
X133011196Y-138632555D01*
X132610196Y-138632555D01*
X132610196Y-137532584D01*
X133011196Y-137532584D01*
X133011196Y-137832570D01*
X134961196Y-137832570D01*
X135461196Y-137832570D01*
X137411196Y-137832570D01*
X137411196Y-137532597D01*
X137411195Y-137532584D01*
X137400702Y-137429880D01*
X137400701Y-137429873D01*
X137345554Y-137263451D01*
X137345552Y-137263446D01*
X137253511Y-137114225D01*
X137129540Y-136990254D01*
X136980319Y-136898213D01*
X136980314Y-136898211D01*
X136813892Y-136843064D01*
X136813885Y-136843063D01*
X136711181Y-136832570D01*
X135461196Y-136832570D01*
X135461196Y-137832570D01*
X134961196Y-137832570D01*
X134961196Y-136832570D01*
X133711210Y-136832570D01*
X133608506Y-136843063D01*
X133608499Y-136843064D01*
X133442077Y-136898211D01*
X133442072Y-136898213D01*
X133292851Y-136990254D01*
X133168880Y-137114225D01*
X133076839Y-137263446D01*
X133076837Y-137263451D01*
X133021690Y-137429873D01*
X133021689Y-137429880D01*
X133011196Y-137532584D01*
X132610196Y-137532584D01*
X132610196Y-134182556D01*
X132911197Y-134182556D01*
X132921690Y-134285267D01*
X132976837Y-134451689D01*
X132976839Y-134451694D01*
X133068880Y-134600915D01*
X133192850Y-134724885D01*
X133342071Y-134816926D01*
X133342076Y-134816928D01*
X133508498Y-134872075D01*
X133508505Y-134872076D01*
X133611215Y-134882569D01*
X134061195Y-134882569D01*
X134561196Y-134882569D01*
X135011168Y-134882569D01*
X135011182Y-134882568D01*
X135113893Y-134872075D01*
X135280315Y-134816928D01*
X135280320Y-134816926D01*
X135429541Y-134724885D01*
X135553511Y-134600915D01*
X135645552Y-134451694D01*
X135645554Y-134451689D01*
X135700701Y-134285267D01*
X135700702Y-134285260D01*
X135711195Y-134182556D01*
X135711196Y-134182543D01*
X135711196Y-134032570D01*
X134561196Y-134032570D01*
X134561196Y-134882569D01*
X134061195Y-134882569D01*
X134061196Y-134882568D01*
X134061196Y-134032570D01*
X132911197Y-134032570D01*
X132911197Y-134182556D01*
X132610196Y-134182556D01*
X132610196Y-133382583D01*
X132911196Y-133382583D01*
X132911196Y-133532570D01*
X134061196Y-133532570D01*
X134561196Y-133532570D01*
X135711195Y-133532570D01*
X135711195Y-133382598D01*
X135711194Y-133382583D01*
X135700701Y-133279872D01*
X135645554Y-133113450D01*
X135645552Y-133113445D01*
X135553511Y-132964224D01*
X135429541Y-132840254D01*
X135280320Y-132748213D01*
X135280315Y-132748211D01*
X135113893Y-132693064D01*
X135113886Y-132693063D01*
X135011182Y-132682570D01*
X134561196Y-132682570D01*
X134561196Y-133532570D01*
X134061196Y-133532570D01*
X134061196Y-132682570D01*
X133611224Y-132682570D01*
X133611208Y-132682571D01*
X133508498Y-132693064D01*
X133342076Y-132748211D01*
X133342071Y-132748213D01*
X133192850Y-132840254D01*
X133068880Y-132964224D01*
X132976839Y-133113445D01*
X132976837Y-133113450D01*
X132921690Y-133279872D01*
X132921689Y-133279879D01*
X132911196Y-133382583D01*
X132610196Y-133382583D01*
X132610196Y-131897350D01*
X136180696Y-131897350D01*
X136180696Y-133077789D01*
X136201516Y-133155492D01*
X136201517Y-133155494D01*
X136239932Y-133222029D01*
X136241735Y-133225151D01*
X136741735Y-133725151D01*
X140841735Y-137825151D01*
X141821735Y-138805151D01*
X141878615Y-138862031D01*
X141913446Y-138882141D01*
X141948271Y-138902248D01*
X141948273Y-138902249D01*
X141948274Y-138902249D01*
X141948277Y-138902251D01*
X142025976Y-138923070D01*
X143186696Y-138923070D01*
X143253735Y-138942755D01*
X143299490Y-138995559D01*
X143310696Y-139047070D01*
X143310696Y-139693947D01*
X143291011Y-139760986D01*
X143238207Y-139806741D01*
X143169049Y-139816685D01*
X143105493Y-139787660D01*
X143081158Y-139759045D01*
X143053513Y-139714226D01*
X142929541Y-139590254D01*
X142780320Y-139498213D01*
X142780315Y-139498211D01*
X142613893Y-139443064D01*
X142613886Y-139443063D01*
X142511182Y-139432570D01*
X141211196Y-139432570D01*
X141211196Y-141432569D01*
X142511168Y-141432569D01*
X142511182Y-141432568D01*
X142613893Y-141422075D01*
X142780315Y-141366928D01*
X142780320Y-141366926D01*
X142929541Y-141274885D01*
X143053511Y-141150915D01*
X143081157Y-141106095D01*
X143133105Y-141059371D01*
X143202068Y-141048148D01*
X143266150Y-141075992D01*
X143305006Y-141134060D01*
X143310696Y-141171192D01*
X143310696Y-143429666D01*
X143291011Y-143496705D01*
X143274377Y-143517347D01*
X142947506Y-143844217D01*
X142886183Y-143877702D01*
X142816491Y-143872718D01*
X142786192Y-143856306D01*
X142676441Y-143775307D01*
X142546836Y-143729955D01*
X142516064Y-143727070D01*
X142516060Y-143727070D01*
X139406332Y-143727070D01*
X139406328Y-143727070D01*
X139375556Y-143729955D01*
X139375554Y-143729955D01*
X139245952Y-143775306D01*
X139135471Y-143856845D01*
X139053932Y-143967326D01*
X139008581Y-144096928D01*
X139008581Y-144096930D01*
X139005696Y-144127702D01*
X139005696Y-144737437D01*
X139008581Y-144768209D01*
X139008581Y-144768211D01*
X139049235Y-144884389D01*
X139053933Y-144897815D01*
X139135471Y-145008295D01*
X139245951Y-145089833D01*
X139289153Y-145104950D01*
X139375555Y-145135184D01*
X139406328Y-145138070D01*
X139406332Y-145138070D01*
X142516064Y-145138070D01*
X142546835Y-145135184D01*
X142546837Y-145135184D01*
X142611638Y-145112508D01*
X142676441Y-145089833D01*
X142786921Y-145008295D01*
X142868459Y-144897815D01*
X142897920Y-144813620D01*
X142913810Y-144768211D01*
X142915420Y-144760840D01*
X142918634Y-144761542D01*
X142938921Y-144710449D01*
X142974611Y-144679435D01*
X142978777Y-144677031D01*
X143345657Y-144310151D01*
X143860657Y-143795151D01*
X143900877Y-143725489D01*
X143921696Y-143647790D01*
X143921696Y-143567350D01*
X143921696Y-142096999D01*
X143941381Y-142029960D01*
X143994185Y-141984205D01*
X144063343Y-141974261D01*
X144126899Y-142003286D01*
X144133377Y-142009318D01*
X144427529Y-142303470D01*
X145144864Y-142303469D01*
X145652096Y-141796237D01*
X145652096Y-141796236D01*
X145668944Y-141779389D01*
X145730267Y-141745904D01*
X145756625Y-141743070D01*
X149676414Y-141743070D01*
X149676416Y-141743070D01*
X149754115Y-141722251D01*
X149823777Y-141682031D01*
X152546419Y-138959389D01*
X152607742Y-138925904D01*
X152634100Y-138923070D01*
X156435767Y-138923070D01*
X156502806Y-138942755D01*
X156523448Y-138959389D01*
X156540297Y-138976238D01*
X157047529Y-139483470D01*
X157764864Y-139483469D01*
X158272096Y-138976237D01*
X158272095Y-138258902D01*
X157764863Y-137751670D01*
X157748015Y-137734822D01*
X157714530Y-137673499D01*
X157711696Y-137647141D01*
X157711696Y-137017999D01*
X157731381Y-136950960D01*
X157748015Y-136930318D01*
X157764864Y-136913469D01*
X158272096Y-136406237D01*
X158272095Y-135688902D01*
X157764863Y-135181670D01*
X157047528Y-135181670D01*
X156540296Y-135688902D01*
X156540296Y-136406237D01*
X157064377Y-136930318D01*
X157097862Y-136991641D01*
X157100696Y-137017999D01*
X157100696Y-137647140D01*
X157081011Y-137714179D01*
X157064377Y-137734821D01*
X156523448Y-138275751D01*
X156462125Y-138309236D01*
X156435767Y-138312070D01*
X152415976Y-138312070D01*
X152338273Y-138332890D01*
X152338271Y-138332891D01*
X152268621Y-138373105D01*
X152268612Y-138373111D01*
X149545973Y-141095751D01*
X149484650Y-141129236D01*
X149458292Y-141132070D01*
X145756625Y-141132070D01*
X145689586Y-141112385D01*
X145668944Y-141095751D01*
X145144863Y-140571670D01*
X144427528Y-140571670D01*
X144427527Y-140571671D01*
X144133377Y-140865822D01*
X144072054Y-140899307D01*
X144002362Y-140894323D01*
X143946429Y-140852451D01*
X143922012Y-140786987D01*
X143921696Y-140778141D01*
X143921696Y-139215474D01*
X143941381Y-139148435D01*
X143958015Y-139127793D01*
X144126419Y-138959389D01*
X144187742Y-138925904D01*
X144214100Y-138923070D01*
X144345976Y-138923070D01*
X145345976Y-138923070D01*
X146275767Y-138923070D01*
X146342806Y-138942755D01*
X146363448Y-138959389D01*
X146380297Y-138976238D01*
X146887529Y-139483470D01*
X147604864Y-139483469D01*
X148112096Y-138976237D01*
X148112095Y-138258902D01*
X148112095Y-138235074D01*
X148131779Y-138168035D01*
X148148414Y-138147393D01*
X149889570Y-136406237D01*
X152670657Y-133625151D01*
X152710877Y-133555489D01*
X152731696Y-133477790D01*
X152731696Y-133397350D01*
X152731696Y-132096347D01*
X152751381Y-132029308D01*
X152804185Y-131983553D01*
X152808243Y-131981786D01*
X152926161Y-131932943D01*
X152926161Y-131932942D01*
X152926163Y-131932942D01*
X153099038Y-131817430D01*
X153246056Y-131670412D01*
X153361568Y-131497537D01*
X153441134Y-131305448D01*
X153481696Y-131101528D01*
X153481696Y-130893612D01*
X153481695Y-130893607D01*
X153910696Y-130893607D01*
X153910696Y-131101532D01*
X153951256Y-131305440D01*
X153951258Y-131305448D01*
X154030822Y-131497534D01*
X154146335Y-131670411D01*
X154146338Y-131670415D01*
X154293350Y-131817427D01*
X154293354Y-131817430D01*
X154466229Y-131932942D01*
X154658318Y-132012508D01*
X154792740Y-132039246D01*
X154862233Y-132053069D01*
X154862237Y-132053070D01*
X154862238Y-132053070D01*
X155070155Y-132053070D01*
X155070156Y-132053069D01*
X155274074Y-132012508D01*
X155466163Y-131932942D01*
X155639038Y-131817430D01*
X155786056Y-131670412D01*
X155901568Y-131497537D01*
X155981134Y-131305448D01*
X156021696Y-131101528D01*
X156021696Y-130893612D01*
X156021695Y-130893607D01*
X156450696Y-130893607D01*
X156450696Y-131101532D01*
X156491256Y-131305440D01*
X156491258Y-131305448D01*
X156570822Y-131497534D01*
X156686335Y-131670411D01*
X156686338Y-131670415D01*
X156833350Y-131817427D01*
X156833354Y-131817430D01*
X157006229Y-131932942D01*
X157198318Y-132012508D01*
X157332740Y-132039246D01*
X157402233Y-132053069D01*
X157402237Y-132053070D01*
X157402238Y-132053070D01*
X157610155Y-132053070D01*
X157610156Y-132053069D01*
X157814074Y-132012508D01*
X158006163Y-131932942D01*
X158179038Y-131817430D01*
X158326056Y-131670412D01*
X158441568Y-131497537D01*
X158521134Y-131305448D01*
X158561696Y-131101528D01*
X158561696Y-130893612D01*
X158521134Y-130689692D01*
X158441568Y-130497603D01*
X158326056Y-130324728D01*
X158326053Y-130324724D01*
X158179041Y-130177712D01*
X158179037Y-130177709D01*
X158006160Y-130062196D01*
X157814074Y-129982632D01*
X157814066Y-129982630D01*
X157610158Y-129942070D01*
X157610154Y-129942070D01*
X157402238Y-129942070D01*
X157402233Y-129942070D01*
X157198325Y-129982630D01*
X157198317Y-129982632D01*
X157006231Y-130062196D01*
X156833354Y-130177709D01*
X156833350Y-130177712D01*
X156686338Y-130324724D01*
X156686335Y-130324728D01*
X156570822Y-130497605D01*
X156491258Y-130689691D01*
X156491256Y-130689699D01*
X156450696Y-130893607D01*
X156021695Y-130893607D01*
X155981134Y-130689692D01*
X155901568Y-130497603D01*
X155786056Y-130324728D01*
X155786053Y-130324724D01*
X155639041Y-130177712D01*
X155639037Y-130177709D01*
X155466160Y-130062196D01*
X155274074Y-129982632D01*
X155274066Y-129982630D01*
X155070158Y-129942070D01*
X155070154Y-129942070D01*
X154862238Y-129942070D01*
X154862233Y-129942070D01*
X154658325Y-129982630D01*
X154658317Y-129982632D01*
X154466231Y-130062196D01*
X154293354Y-130177709D01*
X154293350Y-130177712D01*
X154146338Y-130324724D01*
X154146335Y-130324728D01*
X154030822Y-130497605D01*
X153951258Y-130689691D01*
X153951256Y-130689699D01*
X153910696Y-130893607D01*
X153481695Y-130893607D01*
X153441134Y-130689692D01*
X153361568Y-130497603D01*
X153246056Y-130324728D01*
X153246053Y-130324724D01*
X153099041Y-130177712D01*
X153099037Y-130177709D01*
X152926160Y-130062196D01*
X152734074Y-129982632D01*
X152734066Y-129982630D01*
X152530158Y-129942070D01*
X152530154Y-129942070D01*
X152322238Y-129942070D01*
X152322233Y-129942070D01*
X152118325Y-129982630D01*
X152118317Y-129982632D01*
X151926231Y-130062196D01*
X151753354Y-130177709D01*
X151753350Y-130177712D01*
X151606338Y-130324724D01*
X151606335Y-130324728D01*
X151490822Y-130497605D01*
X151411258Y-130689691D01*
X151411256Y-130689699D01*
X151370696Y-130893607D01*
X151370696Y-131101532D01*
X151411256Y-131305440D01*
X151411258Y-131305448D01*
X151490822Y-131497534D01*
X151606335Y-131670411D01*
X151606338Y-131670415D01*
X151753350Y-131817427D01*
X151753354Y-131817430D01*
X151926230Y-131932943D01*
X152044149Y-131981786D01*
X152098552Y-132025627D01*
X152120617Y-132091921D01*
X152120696Y-132096347D01*
X152120696Y-133259665D01*
X152101011Y-133326704D01*
X152084377Y-133347346D01*
X147716372Y-137715351D01*
X147655049Y-137748836D01*
X147628691Y-137751670D01*
X146887528Y-137751670D01*
X146887527Y-137751671D01*
X146363448Y-138275751D01*
X146302125Y-138309236D01*
X146275767Y-138312070D01*
X142244100Y-138312070D01*
X142177061Y-138292385D01*
X142156419Y-138275751D01*
X136828015Y-132947347D01*
X136794530Y-132886024D01*
X136791696Y-132859666D01*
X136791696Y-132115475D01*
X136811381Y-132048436D01*
X136828014Y-132027794D01*
X136830657Y-132025152D01*
X136830657Y-132025150D01*
X136840859Y-132014949D01*
X136840862Y-132014944D01*
X137031420Y-131824386D01*
X137092743Y-131790904D01*
X137119100Y-131788070D01*
X137165540Y-131788070D01*
X137232579Y-131807755D01*
X137266458Y-131840018D01*
X137267873Y-131842000D01*
X137320761Y-131894888D01*
X137354246Y-131956211D01*
X137349262Y-132025903D01*
X137320762Y-132070250D01*
X137267872Y-132123140D01*
X137215763Y-132229727D01*
X137215763Y-132229730D01*
X137205696Y-132298828D01*
X137205696Y-132666312D01*
X137209594Y-132693064D01*
X137215763Y-132735412D01*
X137267872Y-132842000D01*
X137351765Y-132925893D01*
X137458353Y-132978002D01*
X137458354Y-132978002D01*
X137458356Y-132978003D01*
X137527454Y-132988070D01*
X137527460Y-132988070D01*
X138844932Y-132988070D01*
X138844938Y-132988070D01*
X138914036Y-132978003D01*
X139020625Y-132925894D01*
X139104520Y-132841999D01*
X139104521Y-132841997D01*
X139105934Y-132840018D01*
X139108559Y-132837958D01*
X139111784Y-132834734D01*
X139112173Y-132835123D01*
X139160909Y-132796895D01*
X139206852Y-132788070D01*
X143503292Y-132788070D01*
X143570331Y-132807755D01*
X143590973Y-132824389D01*
X146343977Y-135577393D01*
X146377462Y-135638716D01*
X146380296Y-135665074D01*
X146380296Y-136406237D01*
X146380297Y-136406238D01*
X146887529Y-136913470D01*
X147604864Y-136913469D01*
X148112096Y-136406237D01*
X148112095Y-135688902D01*
X148112095Y-135665074D01*
X148131779Y-135598035D01*
X148148414Y-135577393D01*
X149000922Y-134724885D01*
X150130657Y-133595151D01*
X150137682Y-133582983D01*
X150170877Y-133525489D01*
X150191696Y-133447790D01*
X150191696Y-132096347D01*
X150211381Y-132029308D01*
X150264185Y-131983553D01*
X150268243Y-131981786D01*
X150386161Y-131932943D01*
X150386161Y-131932942D01*
X150386163Y-131932942D01*
X150559038Y-131817430D01*
X150706056Y-131670412D01*
X150821568Y-131497537D01*
X150901134Y-131305448D01*
X150941696Y-131101528D01*
X150941696Y-130893612D01*
X150901134Y-130689692D01*
X150821568Y-130497603D01*
X150706056Y-130324728D01*
X150706053Y-130324724D01*
X150559041Y-130177712D01*
X150559037Y-130177709D01*
X150386160Y-130062196D01*
X150194074Y-129982632D01*
X150194066Y-129982630D01*
X149990158Y-129942070D01*
X149990154Y-129942070D01*
X149782238Y-129942070D01*
X149782233Y-129942070D01*
X149578325Y-129982630D01*
X149578317Y-129982632D01*
X149386231Y-130062196D01*
X149213354Y-130177709D01*
X149213350Y-130177712D01*
X149066338Y-130324724D01*
X149066335Y-130324728D01*
X148950822Y-130497605D01*
X148871258Y-130689691D01*
X148871256Y-130689699D01*
X148830696Y-130893607D01*
X148830696Y-131101532D01*
X148871256Y-131305440D01*
X148871258Y-131305448D01*
X148950822Y-131497534D01*
X149066335Y-131670411D01*
X149066338Y-131670415D01*
X149213350Y-131817427D01*
X149213354Y-131817430D01*
X149386230Y-131932943D01*
X149504149Y-131981786D01*
X149558552Y-132025627D01*
X149580617Y-132091921D01*
X149580696Y-132096347D01*
X149580696Y-133229665D01*
X149561011Y-133296704D01*
X149544377Y-133317346D01*
X147716372Y-135145351D01*
X147655049Y-135178836D01*
X147628691Y-135181670D01*
X146863700Y-135181670D01*
X146796661Y-135161985D01*
X146776019Y-135145351D01*
X143868779Y-132238111D01*
X143868777Y-132238109D01*
X143865655Y-132236306D01*
X143799120Y-132197891D01*
X143799118Y-132197890D01*
X143799115Y-132197889D01*
X143721416Y-132177070D01*
X143721415Y-132177070D01*
X139206852Y-132177070D01*
X139139813Y-132157385D01*
X139105934Y-132125122D01*
X139104521Y-132123143D01*
X139104520Y-132123141D01*
X139051629Y-132070250D01*
X139018145Y-132008928D01*
X139023129Y-131939236D01*
X139051628Y-131894890D01*
X139104520Y-131841999D01*
X139156629Y-131735410D01*
X139166696Y-131666312D01*
X139166696Y-131298828D01*
X139156629Y-131229730D01*
X139104520Y-131123141D01*
X139104518Y-131123139D01*
X139101288Y-131116532D01*
X139089528Y-131047659D01*
X139116871Y-130983361D01*
X139174635Y-130944053D01*
X139212688Y-130938070D01*
X142891160Y-130938070D01*
X142958199Y-130957755D01*
X142978841Y-130974389D01*
X145913577Y-133909126D01*
X145913583Y-133909131D01*
X146106513Y-134102061D01*
X146199054Y-134155489D01*
X146210380Y-134162028D01*
X146326228Y-134193070D01*
X147030919Y-134193070D01*
X147082943Y-134207011D01*
X147083566Y-134205509D01*
X147091075Y-134208618D01*
X147091080Y-134208621D01*
X147219646Y-134243070D01*
X147219648Y-134243070D01*
X147352744Y-134243070D01*
X147352746Y-134243070D01*
X147481312Y-134208621D01*
X147596580Y-134142071D01*
X147690697Y-134047954D01*
X147757247Y-133932686D01*
X147791696Y-133804120D01*
X147791696Y-133671020D01*
X147757247Y-133542454D01*
X147690697Y-133427186D01*
X147596580Y-133333069D01*
X147481312Y-133266519D01*
X147352746Y-133232070D01*
X147219646Y-133232070D01*
X147091080Y-133266519D01*
X147091079Y-133266519D01*
X147091077Y-133266520D01*
X147083566Y-133269631D01*
X147082943Y-133268128D01*
X147030919Y-133282070D01*
X146626233Y-133282070D01*
X146559194Y-133262385D01*
X146538552Y-133245751D01*
X145408276Y-132115475D01*
X144186407Y-130893607D01*
X146290696Y-130893607D01*
X146290696Y-131101532D01*
X146331256Y-131305440D01*
X146331258Y-131305448D01*
X146410822Y-131497534D01*
X146526335Y-131670411D01*
X146526338Y-131670415D01*
X146673350Y-131817427D01*
X146673354Y-131817430D01*
X146846229Y-131932942D01*
X147038318Y-132012508D01*
X147172740Y-132039246D01*
X147242233Y-132053069D01*
X147242237Y-132053070D01*
X147242238Y-132053070D01*
X147450155Y-132053070D01*
X147450156Y-132053069D01*
X147654074Y-132012508D01*
X147846163Y-131932942D01*
X148019038Y-131817430D01*
X148166056Y-131670412D01*
X148281568Y-131497537D01*
X148361134Y-131305448D01*
X148401696Y-131101528D01*
X148401696Y-130893612D01*
X148361134Y-130689692D01*
X148281568Y-130497603D01*
X148166056Y-130324728D01*
X148166053Y-130324724D01*
X148019041Y-130177712D01*
X148019037Y-130177709D01*
X147846160Y-130062196D01*
X147654074Y-129982632D01*
X147654066Y-129982630D01*
X147450158Y-129942070D01*
X147450154Y-129942070D01*
X147242238Y-129942070D01*
X147242233Y-129942070D01*
X147038325Y-129982630D01*
X147038317Y-129982632D01*
X146846231Y-130062196D01*
X146673354Y-130177709D01*
X146673350Y-130177712D01*
X146526338Y-130324724D01*
X146526335Y-130324728D01*
X146410822Y-130497605D01*
X146331258Y-130689691D01*
X146331256Y-130689699D01*
X146290696Y-130893607D01*
X144186407Y-130893607D01*
X143530887Y-130238087D01*
X143511181Y-130212405D01*
X143505686Y-130202887D01*
X143420879Y-130118080D01*
X143317012Y-130058112D01*
X143201164Y-130027070D01*
X143201162Y-130027070D01*
X139538612Y-130027070D01*
X139471573Y-130007385D01*
X139425818Y-129954581D01*
X139415874Y-129885423D01*
X139419536Y-129868475D01*
X139458295Y-129735064D01*
X139458296Y-129735058D01*
X139458491Y-129732571D01*
X139458491Y-129732570D01*
X136913901Y-129732570D01*
X136913900Y-129732571D01*
X136914095Y-129735056D01*
X136959914Y-129892768D01*
X137043510Y-130034122D01*
X137043517Y-130034131D01*
X137159635Y-130150249D01*
X137163340Y-130153123D01*
X137204247Y-130209766D01*
X137210044Y-130268977D01*
X137205696Y-130298828D01*
X137205696Y-130666312D01*
X137209449Y-130692070D01*
X137215763Y-130735412D01*
X137267872Y-130842000D01*
X137320761Y-130894889D01*
X137354246Y-130956212D01*
X137349262Y-131025904D01*
X137320762Y-131070251D01*
X137267871Y-131123142D01*
X137266458Y-131125122D01*
X137263832Y-131127181D01*
X137260608Y-131130406D01*
X137260218Y-131130016D01*
X137211483Y-131168245D01*
X137165540Y-131177070D01*
X136900976Y-131177070D01*
X136823275Y-131197889D01*
X136791072Y-131216483D01*
X136791071Y-131216482D01*
X136753621Y-131238104D01*
X136753612Y-131238111D01*
X136398616Y-131593107D01*
X136298614Y-131693108D01*
X136298615Y-131693109D01*
X136241734Y-131749990D01*
X136241731Y-131749995D01*
X136201517Y-131819645D01*
X136201516Y-131819647D01*
X136180696Y-131897350D01*
X132610196Y-131897350D01*
X132610196Y-128582556D01*
X132911197Y-128582556D01*
X132921690Y-128685267D01*
X132976837Y-128851689D01*
X132976839Y-128851694D01*
X133068880Y-129000915D01*
X133192850Y-129124885D01*
X133342071Y-129216926D01*
X133342076Y-129216928D01*
X133508498Y-129272075D01*
X133508505Y-129272076D01*
X133611215Y-129282569D01*
X134061195Y-129282569D01*
X134561196Y-129282569D01*
X135011168Y-129282569D01*
X135011182Y-129282568D01*
X135113893Y-129272075D01*
X135233117Y-129232568D01*
X136913900Y-129232568D01*
X136913901Y-129232570D01*
X137936196Y-129232570D01*
X138436196Y-129232570D01*
X139458491Y-129232570D01*
X139458491Y-129232568D01*
X139458296Y-129230083D01*
X139412477Y-129072371D01*
X139328881Y-128931017D01*
X139328874Y-128931008D01*
X139212757Y-128814891D01*
X139212748Y-128814884D01*
X139071392Y-128731287D01*
X139071389Y-128731286D01*
X138913691Y-128685470D01*
X138913685Y-128685469D01*
X138876845Y-128682570D01*
X138436196Y-128682570D01*
X138436196Y-129232570D01*
X137936196Y-129232570D01*
X137936196Y-128682570D01*
X137495546Y-128682570D01*
X137458706Y-128685469D01*
X137458700Y-128685470D01*
X137301002Y-128731286D01*
X137300999Y-128731287D01*
X137159643Y-128814884D01*
X137159634Y-128814891D01*
X137043517Y-128931008D01*
X137043510Y-128931017D01*
X136959914Y-129072371D01*
X136914095Y-129230083D01*
X136913900Y-129232568D01*
X135233117Y-129232568D01*
X135280315Y-129216928D01*
X135280320Y-129216926D01*
X135354170Y-129171375D01*
X135429541Y-129124885D01*
X135553511Y-129000915D01*
X135645552Y-128851694D01*
X135645554Y-128851689D01*
X135700701Y-128685267D01*
X135700702Y-128685260D01*
X135711195Y-128582556D01*
X135711196Y-128582543D01*
X135711196Y-128432570D01*
X134561196Y-128432570D01*
X134561196Y-129282569D01*
X134061195Y-129282569D01*
X134061196Y-129282568D01*
X134061196Y-128432570D01*
X132911197Y-128432570D01*
X132911197Y-128582556D01*
X132610196Y-128582556D01*
X132610196Y-127782583D01*
X132911196Y-127782583D01*
X132911196Y-127932570D01*
X134061196Y-127932570D01*
X134561196Y-127932570D01*
X135711195Y-127932570D01*
X135711195Y-127782598D01*
X135711194Y-127782583D01*
X135700701Y-127679872D01*
X135645554Y-127513450D01*
X135645552Y-127513445D01*
X135553511Y-127364224D01*
X135429541Y-127240254D01*
X135280320Y-127148213D01*
X135280315Y-127148211D01*
X135113893Y-127093064D01*
X135113886Y-127093063D01*
X135011182Y-127082570D01*
X134561196Y-127082570D01*
X134561196Y-127932570D01*
X134061196Y-127932570D01*
X134061196Y-127082570D01*
X133611224Y-127082570D01*
X133611208Y-127082571D01*
X133508498Y-127093064D01*
X133342076Y-127148211D01*
X133342071Y-127148213D01*
X133192850Y-127240254D01*
X133068880Y-127364224D01*
X132976839Y-127513445D01*
X132976837Y-127513450D01*
X132921690Y-127679872D01*
X132921689Y-127679879D01*
X132911196Y-127782583D01*
X132610196Y-127782583D01*
X132610196Y-125044038D01*
X173869500Y-125044038D01*
X173869500Y-125295961D01*
X173908910Y-125544785D01*
X173986760Y-125784383D01*
X174101132Y-126008848D01*
X174249201Y-126212649D01*
X174249205Y-126212654D01*
X174427345Y-126390794D01*
X174427350Y-126390798D01*
X174552976Y-126482070D01*
X174631155Y-126538870D01*
X174774184Y-126611747D01*
X174855616Y-126653239D01*
X174855618Y-126653239D01*
X174855621Y-126653241D01*
X175095215Y-126731090D01*
X175344038Y-126770500D01*
X175344039Y-126770500D01*
X175595961Y-126770500D01*
X175595962Y-126770500D01*
X175844785Y-126731090D01*
X176084379Y-126653241D01*
X176308845Y-126538870D01*
X176512656Y-126390793D01*
X176690793Y-126212656D01*
X176838870Y-126008845D01*
X176953241Y-125784379D01*
X177031090Y-125544785D01*
X177070500Y-125295962D01*
X177070500Y-125044038D01*
X177031090Y-124795215D01*
X176953241Y-124555621D01*
X176953239Y-124555618D01*
X176953239Y-124555616D01*
X176911747Y-124474184D01*
X176838870Y-124331155D01*
X176819952Y-124305117D01*
X176690798Y-124127350D01*
X176690794Y-124127345D01*
X176512654Y-123949205D01*
X176512649Y-123949201D01*
X176308848Y-123801132D01*
X176308847Y-123801131D01*
X176308845Y-123801130D01*
X176238747Y-123765413D01*
X176084383Y-123686760D01*
X175844785Y-123608910D01*
X175595962Y-123569500D01*
X175344038Y-123569500D01*
X175219626Y-123589205D01*
X175095214Y-123608910D01*
X174855616Y-123686760D01*
X174631151Y-123801132D01*
X174427350Y-123949201D01*
X174427345Y-123949205D01*
X174249205Y-124127345D01*
X174249201Y-124127350D01*
X174101132Y-124331151D01*
X173986760Y-124555616D01*
X173908910Y-124795214D01*
X173869500Y-125044038D01*
X132610196Y-125044038D01*
X132610196Y-122255070D01*
X132629881Y-122188031D01*
X132682685Y-122142276D01*
X132734196Y-122131070D01*
X178409367Y-122131070D01*
X178476406Y-122150755D01*
G37*
%TD.AperFunction*%
%TD*%
M02*
