M48
; DRILL file KiCad 10.0.5 date 2026-08-13T11:11:19
; FORMAT={-:-/ absolute / metric / decimal}
; #@! TF.CreationDate,2026-08-13T11:11:19+05:00
; #@! TF.GenerationSoftware,Kicad,Pcbnew,10.0.5
; #@! TF.FileFunction,Plated,1,2,PTH
FMAT,2
METRIC
; #@! TA.AperFunction,Plated,PTH,ViaDrill
T1C0.300
; #@! TA.AperFunction,Plated,PTH,ComponentDrill
T2C0.813
; #@! TA.AperFunction,Plated,PTH,ComponentDrill
T3C0.900
; #@! TA.AperFunction,Plated,PTH,ComponentDrill
T4C1.000
; #@! TA.AperFunction,Plated,PTH,ComponentDrill
T5C1.016
; #@! TA.AperFunction,Plated,PTH,ComponentDrill
T6C1.118
; #@! TA.AperFunction,Plated,PTH,ComponentDrill
T7C1.600
%
G90
G05
T1
X133.986Y-123.038
X133.986Y-123.838
X133.986Y-124.638
X133.986Y-125.538
X134.036Y-130.538
X134.036Y-131.288
X134.036Y-151.188
X134.036Y-151.988
X134.036Y-152.788
X134.286Y-129.238
X134.286Y-132.738
X135.036Y-130.538
X135.036Y-131.288
X135.036Y-141.038
X135.036Y-141.788
X135.036Y-142.788
X135.036Y-143.538
X135.136Y-151.188
X135.136Y-151.988
X135.136Y-152.788
X135.186Y-139.338
X135.186Y-144.838
X135.186Y-145.538
X135.186Y-146.138
X135.186Y-146.738
X135.186Y-147.538
X136.036Y-141.038
X136.036Y-141.788
X136.036Y-142.788
X136.036Y-143.538
X136.186Y-123.188
X136.186Y-123.988
X136.186Y-124.788
X136.436Y-151.188
X136.436Y-151.988
X136.436Y-152.788
X136.986Y-129.538
X137.286Y-123.188
X137.286Y-123.988
X137.286Y-124.788
X137.536Y-151.188
X137.536Y-151.988
X137.536Y-152.788
X138.036Y-138.038
X138.036Y-138.788
X138.786Y-140.438
X138.936Y-123.138
X138.936Y-124.138
X138.936Y-124.938
X138.936Y-151.188
X138.936Y-151.988
X138.936Y-152.788
X139.036Y-138.038
X139.036Y-138.788
X140.036Y-123.138
X140.036Y-124.138
X140.036Y-124.938
X140.036Y-125.738
X140.036Y-133.788
X140.036Y-134.538
X140.036Y-151.188
X140.036Y-151.988
X140.036Y-152.788
X140.936Y-127.188
X140.936Y-127.988
X140.936Y-128.788
X141.036Y-133.788
X141.036Y-134.538
X141.136Y-123.138
X141.136Y-124.138
X141.136Y-124.938
X141.136Y-125.738
X141.186Y-151.188
X141.186Y-151.988
X141.186Y-152.788
X142.036Y-127.188
X142.036Y-127.988
X142.036Y-128.788
X142.136Y-123.138
X142.136Y-124.138
X142.136Y-124.938
X142.136Y-125.738
X142.286Y-151.188
X142.286Y-151.988
X142.286Y-152.788
X142.536Y-148.038
X142.536Y-148.788
X142.786Y-134.288
X142.786Y-135.038
X143.186Y-127.188
X143.186Y-127.988
X143.186Y-128.788
X143.286Y-123.138
X143.286Y-124.138
X143.286Y-124.938
X143.286Y-125.738
X143.286Y-148.038
X143.286Y-148.788
X143.686Y-151.188
X143.686Y-151.988
X143.686Y-152.788
X143.786Y-134.288
X143.786Y-135.038
X144.036Y-148.038
X144.036Y-148.788
X144.286Y-127.188
X144.286Y-127.988
X144.286Y-128.788
X144.481Y-144.343
X144.486Y-123.138
X144.486Y-124.138
X144.486Y-124.938
X144.486Y-125.738
X144.786Y-148.038
X144.786Y-148.788
X144.786Y-151.188
X144.786Y-151.988
X144.786Y-152.788
X145.586Y-123.138
X145.586Y-124.138
X145.586Y-124.938
X145.586Y-125.738
X145.986Y-149.838
X146.686Y-123.138
X146.686Y-124.138
X146.686Y-124.938
X146.686Y-125.738
X147.286Y-133.738
X147.286Y-143.038
X147.286Y-143.788
X147.536Y-148.038
X147.536Y-148.788
X147.686Y-123.138
X147.686Y-124.138
X147.686Y-124.938
X147.686Y-125.738
X147.886Y-152.338
X147.886Y-153.338
X148.286Y-143.038
X148.286Y-143.788
X148.286Y-148.038
X148.286Y-148.788
X148.686Y-126.688
X148.686Y-127.488
X148.686Y-128.288
X148.686Y-152.338
X148.686Y-153.338
X148.836Y-123.138
X148.836Y-124.138
X148.836Y-124.938
X148.836Y-125.738
X149.036Y-148.038
X149.036Y-148.788
X149.536Y-143.038
X149.536Y-143.788
X149.686Y-152.338
X149.686Y-153.338
X149.786Y-126.688
X149.786Y-127.488
X149.786Y-128.288
X149.786Y-148.038
X149.786Y-148.788
X149.936Y-123.138
X149.936Y-124.138
X149.936Y-124.938
X149.936Y-125.738
X150.286Y-137.788
X150.286Y-138.538
X150.536Y-143.038
X150.536Y-143.788
X150.936Y-126.688
X150.936Y-127.488
X150.936Y-128.288
X151.036Y-123.138
X151.036Y-124.138
X151.036Y-124.938
X151.036Y-125.738
X151.036Y-148.038
X151.036Y-148.788
X151.286Y-137.788
X151.286Y-138.538
X151.786Y-148.038
X151.786Y-148.788
X152.036Y-123.138
X152.036Y-124.138
X152.036Y-124.938
X152.036Y-125.738
X152.036Y-126.688
X152.036Y-127.488
X152.036Y-128.288
X152.536Y-148.038
X152.536Y-148.788
X153.086Y-123.138
X153.086Y-124.138
X153.086Y-124.938
X153.086Y-125.738
X153.136Y-126.688
X153.136Y-127.488
X153.136Y-128.288
X153.286Y-148.038
X153.286Y-148.788
X153.536Y-139.538
X153.536Y-140.288
X154.136Y-126.688
X154.136Y-127.488
X154.136Y-128.288
X154.186Y-123.138
X154.186Y-124.138
X154.186Y-124.938
X154.186Y-125.738
X154.286Y-148.038
X154.286Y-148.788
X154.536Y-139.538
X154.786Y-133.288
X154.786Y-134.038
X155.036Y-143.288
X155.036Y-144.038
X155.036Y-148.038
X155.036Y-148.788
X155.286Y-123.138
X155.286Y-124.138
X155.286Y-124.938
X155.286Y-125.738
X155.286Y-126.688
X155.286Y-127.488
X155.286Y-128.288
X155.536Y-139.538
X155.786Y-133.288
X155.786Y-134.038
X155.786Y-148.038
X155.786Y-148.788
X156.036Y-143.288
X156.036Y-144.038
X156.286Y-123.138
X156.286Y-124.138
X156.286Y-124.938
X156.286Y-125.738
X156.386Y-126.688
X156.386Y-127.488
X156.386Y-128.288
X156.536Y-139.538
X156.536Y-140.288
X156.536Y-142.288
X156.536Y-148.038
X156.536Y-148.788
X157.236Y-123.138
X157.236Y-124.138
X157.236Y-124.938
X157.236Y-125.738
X157.286Y-133.288
X157.286Y-134.038
X157.486Y-126.688
X157.486Y-127.488
X157.486Y-128.288
X157.536Y-148.038
X157.536Y-148.788
X158.286Y-133.288
X158.286Y-134.038
X158.286Y-148.038
X158.286Y-148.788
X158.336Y-123.138
X158.336Y-124.138
X158.336Y-124.938
X158.336Y-125.738
X158.486Y-126.688
X158.486Y-127.488
X158.486Y-128.288
X158.536Y-139.788
X158.536Y-140.538
X158.786Y-142.288
X158.786Y-143.038
X158.786Y-143.788
X158.786Y-144.538
X159.036Y-148.038
X159.036Y-148.788
X159.436Y-123.138
X159.436Y-124.138
X159.436Y-124.938
X159.436Y-125.738
X159.536Y-126.688
X159.536Y-127.488
X159.536Y-128.288
X159.536Y-135.038
X159.536Y-139.788
X159.536Y-140.538
X159.786Y-142.288
X159.786Y-143.038
X159.786Y-143.788
X159.786Y-144.538
X159.786Y-148.038
X159.786Y-148.788
X160.286Y-135.038
X160.436Y-123.138
X160.436Y-124.138
X160.436Y-124.938
X160.436Y-125.738
X160.636Y-126.688
X160.636Y-127.488
X160.636Y-128.288
X160.786Y-142.288
X160.786Y-143.038
X160.786Y-143.788
X160.786Y-144.538
X161.036Y-135.038
X161.036Y-136.038
X161.036Y-136.788
X161.036Y-137.788
X161.036Y-138.538
X161.586Y-123.138
X161.586Y-124.138
X161.586Y-124.938
X161.586Y-125.738
X161.736Y-126.688
X161.736Y-127.488
X161.736Y-128.288
X161.786Y-135.038
X161.786Y-142.288
X161.786Y-143.038
X161.786Y-143.788
X161.786Y-144.538
X162.036Y-136.038
X162.036Y-136.788
X162.036Y-137.788
X162.036Y-138.538
X162.536Y-135.038
X162.686Y-123.138
X162.686Y-124.138
X162.686Y-124.938
X162.686Y-125.738
X162.736Y-126.688
X162.736Y-127.488
X162.736Y-128.288
X163.036Y-136.038
X163.036Y-136.788
X163.286Y-135.038
X163.536Y-140.488
X163.536Y-141.288
X163.536Y-142.088
X163.536Y-149.038
X163.536Y-149.788
X163.686Y-126.688
X163.686Y-127.488
X163.686Y-128.288
X163.786Y-123.138
X163.786Y-124.138
X163.786Y-124.938
X163.786Y-125.738
X163.786Y-136.038
X163.786Y-136.788
X164.036Y-135.038
X164.286Y-149.038
X164.286Y-149.788
X164.636Y-140.488
X164.636Y-141.288
X164.636Y-142.088
X164.786Y-123.138
X164.786Y-124.138
X164.786Y-124.938
X164.786Y-125.738
X164.786Y-126.688
X164.786Y-127.488
X164.786Y-128.288
X164.786Y-135.038
X164.786Y-136.038
X164.786Y-136.788
X165.036Y-149.038
X165.036Y-149.788
X165.286Y-131.788
X165.286Y-132.788
X165.536Y-135.038
X165.786Y-136.038
X165.786Y-136.788
X165.786Y-149.038
X165.786Y-149.788
X165.836Y-123.138
X165.836Y-124.138
X165.836Y-124.938
X165.836Y-125.738
X165.886Y-126.688
X165.886Y-127.488
X165.886Y-128.288
X165.886Y-129.288
X165.886Y-130.288
X165.936Y-140.488
X165.936Y-141.288
X165.936Y-142.088
X166.286Y-131.788
X166.286Y-132.788
X166.286Y-135.038
X166.786Y-136.038
X166.786Y-136.788
X166.786Y-138.288
X166.786Y-139.038
X166.886Y-126.688
X166.886Y-127.488
X166.886Y-128.288
X166.886Y-129.288
X166.886Y-130.288
X166.936Y-123.138
X166.936Y-124.138
X166.936Y-124.938
X166.936Y-125.738
X167.036Y-135.038
X167.036Y-140.488
X167.036Y-141.288
X167.036Y-142.088
X167.536Y-131.788
X167.536Y-132.788
X167.786Y-135.038
X167.786Y-136.038
X167.786Y-136.788
X167.786Y-138.288
X167.786Y-139.038
X168.036Y-123.138
X168.036Y-124.138
X168.036Y-124.938
X168.036Y-125.738
X168.036Y-126.688
X168.036Y-127.488
X168.036Y-128.288
X168.036Y-129.288
X168.036Y-130.288
X168.786Y-148.538
X168.786Y-149.288
X169.036Y-123.188
X169.036Y-123.988
X169.036Y-124.788
X169.036Y-125.788
X169.036Y-128.038
X169.036Y-141.538
X169.536Y-148.538
X169.536Y-149.288
X170.036Y-123.188
X170.036Y-123.988
X170.036Y-124.788
X170.036Y-125.788
X170.036Y-132.038
X170.036Y-133.288
X170.036Y-135.038
X170.036Y-136.038
X170.036Y-136.788
X170.036Y-138.288
X170.036Y-139.288
X170.186Y-151.188
X170.186Y-151.988
X170.186Y-152.788
X170.286Y-128.538
X170.286Y-129.288
X170.286Y-130.288
X170.286Y-148.538
X170.286Y-149.288
X170.536Y-146.788
X170.536Y-147.538
X170.786Y-135.038
X170.786Y-136.038
X170.786Y-136.788
X170.786Y-138.288
X170.786Y-139.038
X170.786Y-140.538
X170.786Y-141.288
X171.036Y-123.188
X171.036Y-123.988
X171.036Y-124.788
X171.036Y-125.788
X171.036Y-132.288
X171.036Y-133.288
X171.286Y-128.538
X171.286Y-129.288
X171.286Y-130.288
X171.286Y-146.788
X171.286Y-147.538
X171.286Y-151.188
X171.286Y-151.988
X171.286Y-152.788
X171.536Y-135.038
X171.536Y-136.038
X171.536Y-136.788
X171.536Y-138.288
X171.536Y-139.038
X171.536Y-140.538
X171.536Y-141.288
X171.786Y-132.288
X171.786Y-133.288
X172.036Y-123.188
X172.036Y-123.988
X172.036Y-124.788
X172.036Y-125.788
X172.036Y-129.288
X172.036Y-130.288
X172.036Y-142.738
X172.036Y-143.538
X172.036Y-144.338
X172.036Y-146.788
X172.036Y-147.538
X172.286Y-135.038
X172.286Y-136.038
X172.286Y-136.788
X172.286Y-138.288
X172.286Y-139.038
X172.286Y-140.538
X172.286Y-141.288
X172.536Y-132.288
X172.536Y-133.288
X172.936Y-151.188
X172.936Y-151.988
X172.936Y-152.788
X173.036Y-130.288
X173.036Y-135.038
X173.036Y-136.038
X173.036Y-136.788
X173.036Y-138.288
X173.036Y-139.038
X173.036Y-140.538
X173.036Y-141.288
X173.136Y-142.738
X173.136Y-143.538
X173.136Y-144.338
X173.286Y-132.288
X173.286Y-133.288
X173.686Y-131.138
X174.036Y-151.188
X174.036Y-151.988
X174.036Y-152.788
X174.286Y-142.738
X174.286Y-143.538
X174.286Y-144.338
X175.286Y-129.788
X175.286Y-130.538
X175.286Y-131.538
X175.286Y-132.288
X175.286Y-133.038
X175.286Y-135.038
X175.286Y-135.788
X175.286Y-136.538
X175.286Y-138.288
X175.286Y-139.038
X175.286Y-139.788
X175.536Y-142.538
X175.536Y-143.288
X176.036Y-129.788
X176.036Y-130.538
X176.036Y-131.538
X176.036Y-132.288
X176.036Y-133.038
X176.036Y-135.038
X176.036Y-135.788
X176.036Y-136.538
X176.036Y-138.288
X176.036Y-139.038
X176.036Y-139.788
X176.286Y-142.538
X176.286Y-143.288
X176.786Y-129.788
X176.786Y-130.538
X176.786Y-131.538
X176.786Y-132.288
X176.786Y-133.038
X176.786Y-135.038
X176.786Y-135.788
X176.786Y-136.538
X176.786Y-138.288
X176.786Y-139.038
X176.786Y-139.788
X177.036Y-142.538
X177.036Y-143.288
X177.536Y-129.788
X177.536Y-130.538
X177.536Y-131.538
X177.536Y-132.288
X177.536Y-133.038
X177.536Y-135.038
X177.536Y-135.788
X177.536Y-136.538
X177.536Y-138.288
X177.536Y-139.038
X177.536Y-139.788
X178.536Y-141.288
X196.416Y-136.838
X213.516Y-123.538
T2
X144.786Y-141.438
X147.246Y-136.048
X147.246Y-138.618
X154.946Y-141.438
X157.406Y-136.048
X157.406Y-138.618
X167.256Y-144.112
X167.256Y-146.144
X180.536Y-150.638
X185.616Y-150.638
X188.866Y-140.558
X188.866Y-150.718
X192.216Y-131.998
X192.216Y-137.078
X215.436Y-137.938
X221.866Y-124.878
X221.866Y-135.038
X225.516Y-124.898
X225.516Y-135.058
X225.596Y-137.938
T3
X211.606Y-129.918
X216.006Y-127.378
T4
X147.346Y-130.998
X147.346Y-146.238
X149.886Y-130.998
X149.886Y-146.238
X152.426Y-130.998
X152.426Y-146.238
X154.966Y-130.998
X154.966Y-146.238
X157.506Y-130.998
X157.506Y-146.238
X160.046Y-130.998
X160.046Y-146.238
X162.586Y-130.998
X162.586Y-146.238
X222.646Y-150.138
T5
X190.523Y-126.938
X205.509Y-126.938
T6
X193.316Y-140.358
X193.316Y-150.518
X197.266Y-140.458
X197.266Y-150.618
X201.616Y-140.358
X201.616Y-150.518
X205.516Y-140.358
X205.516Y-150.518
X210.346Y-138.052
X210.346Y-148.212
T7
X218.606Y-143.738
X226.226Y-143.738
M30
