M48
; DRILL file {KiCad 9.0.0} date 2026-06-03T15:54:11+0500
; FORMAT={-:-/ absolute / metric / decimal}
; #@! TF.CreationDate,2026-06-03T15:54:11+05:00
; #@! TF.GenerationSoftware,Kicad,Pcbnew,9.0.0
; #@! TF.FileFunction,Plated,1,2,PTH
FMAT,2
METRIC
; #@! TA.AperFunction,Plated,PTH,ViaDrill
T1C0.300
; #@! TA.AperFunction,Plated,PTH,ComponentDrill
T2C0.813
; #@! TA.AperFunction,Plated,PTH,ComponentDrill
T3C0.900
; #@! TA.AperFunction,Plated,PTH,ComponentDrill
T4C1.000
; #@! TA.AperFunction,Plated,PTH,ComponentDrill
T5C1.016
; #@! TA.AperFunction,Plated,PTH,ComponentDrill
T6C1.118
; #@! TA.AperFunction,Plated,PTH,ComponentDrill
T7C1.600
%
G90
G05
T1
X144.761Y-146.403
X148.516Y-135.068
X182.546Y-142.348
X190.326Y-139.458
X197.541Y-132.203
T2
X156.196Y-136.738
X156.196Y-139.308
X166.356Y-136.738
X166.356Y-139.308
X177.526Y-139.246
X177.526Y-141.278
X180.716Y-123.348
X180.716Y-133.508
X186.176Y-132.948
X188.716Y-143.848
X188.716Y-148.928
X191.256Y-132.948
X193.116Y-139.168
X193.116Y-149.328
X212.636Y-137.248
X217.916Y-123.368
X217.916Y-133.528
X221.216Y-123.388
X221.216Y-133.548
X222.796Y-137.248
T3
X207.436Y-128.648
X212.516Y-128.648
T4
X153.706Y-131.058
X153.706Y-146.298
X156.246Y-131.058
X156.246Y-146.298
X158.786Y-131.058
X158.786Y-146.298
X161.326Y-131.058
X161.326Y-146.298
X163.866Y-131.058
X163.866Y-146.298
X166.406Y-131.058
X166.406Y-146.298
X168.946Y-131.058
X168.946Y-146.298
X218.816Y-149.648
T5
X186.623Y-126.548
X201.609Y-126.548
T6
X196.716Y-139.068
X196.716Y-149.228
X200.116Y-139.168
X200.116Y-149.328
X203.116Y-139.068
X203.116Y-149.228
X206.516Y-139.068
X206.516Y-149.228
X210.116Y-139.068
X210.116Y-149.228
T7
X214.506Y-142.248
X222.126Y-142.248
M30
