ISO-10303-21;
HEADER;
FILE_DESCRIPTION (( 'STEP AP214' ),
    '1' );
FILE_NAME ('bobina_100uH.STEP',
    '2013-07-03T22:25:02',
    ( '' ),
    ( '' ),
    'SwSTEP 2.0',
    'SolidWorks 2012',
    '' );
FILE_SCHEMA (( 'AUTOMOTIVE_DESIGN' ));
ENDSEC;

DATA;
#1 = ORIENTED_EDGE ( 'NONE', *, *, #630, .T. ) ;
#2 = PRESENTATION_STYLE_ASSIGNMENT (( #322 ) ) ;
#3 = UNCERTAINTY_MEASURE_WITH_UNIT (LENGTH_MEASURE( 1.000000000000000100E-005 ), #286, 'distance_accuracy_value', 'NONE');
#4 = MANIFOLD_SOLID_BREP ( 'Saliente-Extruir4', #543 ) ;
#5 = EDGE_LOOP ( 'NONE', ( #544, #542, #557, #551 ) ) ;
#6 = VERTEX_POINT ( 'NONE', #334 ) ;
#7 = EDGE_LOOP ( 'NONE', ( #90, #91, #92, #93 ) ) ;
#8 = ORIENTED_EDGE ( 'NONE', *, *, #596, .T. ) ;
#9 = VERTEX_POINT ( 'NONE', #315 ) ;
#10 = EDGE_LOOP ( 'NONE', ( #30, #8, #80, #55 ) ) ;
#11 = EDGE_LOOP ( 'NONE', ( #73, #76 ) ) ;
#12 = VERTEX_POINT ( 'NONE', #341 ) ;
#13 = EDGE_LOOP ( 'NONE', ( #814, #810, #809, #815 ) ) ;
#14 = ORIENTED_EDGE ( 'NONE', *, *, #605, .F. ) ;
#15 = EDGE_LOOP ( 'NONE', ( #79, #49 ) ) ;
#16 = VERTEX_POINT ( 'NONE', #284 ) ;
#17 = EDGE_LOOP ( 'NONE', ( #83, #61, #53, #64 ) ) ;
#18 = SURFACE_STYLE_FILL_AREA ( #314 ) ;
#19 = COLOUR_RGB ( '',0.7921568627450980000, 0.8196078431372548800, 0.9333333333333333500 ) ;
#20 = VERTEX_POINT ( 'NONE', #296 ) ;
#21 = VERTEX_POINT ( 'NONE', #319 ) ;
#22 = VERTEX_POINT ( 'NONE', #323 ) ;
#23 = EDGE_LOOP ( 'NONE', ( #813, #637, #633, #636 ) ) ;
#24 = EDGE_LOOP ( 'NONE', ( #166, #50 ) ) ;
#25 = EDGE_LOOP ( 'NONE', ( #60, #81, #65, #86 ) ) ;
#26 = ORIENTED_EDGE ( 'NONE', *, *, #604, .F. ) ;
#27 = EDGE_LOOP ( 'NONE', ( #87, #77, #85, #46 ) ) ;
#28 = EDGE_LOOP ( 'NONE', ( #63, #47, #36, #39 ) ) ;
#29 = EDGE_LOOP ( 'NONE', ( #172, #645, #167, #162 ) ) ;
#30 = ORIENTED_EDGE ( 'NONE', *, *, #588, .F. ) ;
#31 = VERTEX_POINT ( 'NONE', #306 ) ;
#32 = VERTEX_POINT ( 'NONE', #309 ) ;
#33 = EDGE_LOOP ( 'NONE', ( #553, #563 ) ) ;
#34 = EDGE_LOOP ( 'NONE', ( #555, #558, #548, #560 ) ) ;
#35 = EDGE_LOOP ( 'NONE', ( #635, #638, #641, #808 ) ) ;
#36 = ORIENTED_EDGE ( 'NONE', *, *, #592, .T. ) ;
#37 = EDGE_LOOP ( 'NONE', ( #158, #161, #160, #169 ) ) ;
#38 = VERTEX_POINT ( 'NONE', #338 ) ;
#39 = ORIENTED_EDGE ( 'NONE', *, *, #599, .F. ) ;
#40 = VERTEX_POINT ( 'NONE', #310 ) ;
#41 = VERTEX_POINT ( 'NONE', #299 ) ;
#42 = VERTEX_POINT ( 'NONE', #344 ) ;
#43 = EDGE_LOOP ( 'NONE', ( #26, #54, #88, #89 ) ) ;
#44 = EDGE_LOOP ( 'NONE', ( #171, #159, #644, #639 ) ) ;
#45 = ORIENTED_EDGE ( 'NONE', *, *, #584, .T. ) ;
#46 = ORIENTED_EDGE ( 'NONE', *, *, #620, .F. ) ;
#47 = ORIENTED_EDGE ( 'NONE', *, *, #614, .T. ) ;
#48 = EDGE_LOOP ( 'NONE', ( #643, #640, #547, #164 ) ) ;
#49 = ORIENTED_EDGE ( 'NONE', *, *, #603, .T. ) ;
#50 = ORIENTED_EDGE ( 'NONE', *, *, #612, .F. ) ;
#51 = EDGE_LOOP ( 'NONE', ( #546, #561 ) ) ;
#52 = ORIENTED_EDGE ( 'NONE', *, *, #623, .T. ) ;
#53 = ORIENTED_EDGE ( 'NONE', *, *, #590, .T. ) ;
#54 = ORIENTED_EDGE ( 'NONE', *, *, #618, .F. ) ;
#55 = ORIENTED_EDGE ( 'NONE', *, *, #624, .T. ) ;
#56 = EDGE_LOOP ( 'NONE', ( #45, #52 ) ) ;
#57 = EDGE_LOOP ( 'NONE', ( #59, #82, #70, #69 ) ) ;
#58 = VERTEX_POINT ( 'NONE', #312 ) ;
#59 = ORIENTED_EDGE ( 'NONE', *, *, #615, .F. ) ;
#60 = ORIENTED_EDGE ( 'NONE', *, *, #630, .F. ) ;
#61 = ORIENTED_EDGE ( 'NONE', *, *, #602, .T. ) ;
#62 = EDGE_LOOP ( 'NONE', ( #811, #1, #552, #173 ) ) ;
#63 = ORIENTED_EDGE ( 'NONE', *, *, #593, .F. ) ;
#64 = ORIENTED_EDGE ( 'NONE', *, *, #583, .F. ) ;
#65 = ORIENTED_EDGE ( 'NONE', *, *, #591, .T. ) ;
#66 = EDGE_LOOP ( 'NONE', ( #163, #165, #812, #168 ) ) ;
#67 = ORIENTED_EDGE ( 'NONE', *, *, #628, .F. ) ;
#68 = EDGE_LOOP ( 'NONE', ( #14, #78, #84, #67 ) ) ;
#69 = ORIENTED_EDGE ( 'NONE', *, *, #621, .T. ) ;
#70 = ORIENTED_EDGE ( 'NONE', *, *, #616, .T. ) ;
#71 = VERTEX_POINT ( 'NONE', #345 ) ;
#72 = EDGE_LOOP ( 'NONE', ( #632, #634, #642, #170 ) ) ;
#73 = ORIENTED_EDGE ( 'NONE', *, *, #619, .F. ) ;
#74 = VERTEX_POINT ( 'NONE', #294 ) ;
#75 = EDGE_LOOP ( 'NONE', ( #94, #95, #96, #97 ) ) ;
#76 = ORIENTED_EDGE ( 'NONE', *, *, #613, .F. ) ;
#77 = ORIENTED_EDGE ( 'NONE', *, *, #600, .F. ) ;
#78 = ORIENTED_EDGE ( 'NONE', *, *, #594, .F. ) ;
#79 = ORIENTED_EDGE ( 'NONE', *, *, #618, .T. ) ;
#80 = ORIENTED_EDGE ( 'NONE', *, *, #582, .T. ) ;
#81 = ORIENTED_EDGE ( 'NONE', *, *, #622, .T. ) ;
#82 = ORIENTED_EDGE ( 'NONE', *, *, #620, .T. ) ;
#83 = ORIENTED_EDGE ( 'NONE', *, *, #589, .F. ) ;
#84 = ORIENTED_EDGE ( 'NONE', *, *, #629, .T. ) ;
#85 = ORIENTED_EDGE ( 'NONE', *, *, #601, .T. ) ;
#86 = ORIENTED_EDGE ( 'NONE', *, *, #594, .T. ) ;
#87 = ORIENTED_EDGE ( 'NONE', *, *, #585, .F. ) ;
#88 = ORIENTED_EDGE ( 'NONE', *, *, #598, .T. ) ;
#89 = ORIENTED_EDGE ( 'NONE', *, *, #621, .F. ) ;
#90 = ORIENTED_EDGE ( 'NONE', *, *, #608, .F. ) ;
#91 = ORIENTED_EDGE ( 'NONE', *, *, #622, .F. ) ;
#92 = ORIENTED_EDGE ( 'NONE', *, *, #595, .T. ) ;
#93 = ORIENTED_EDGE ( 'NONE', *, *, #623, .F. ) ;
#94 = ORIENTED_EDGE ( 'NONE', *, *, #586, .F. ) ;
#95 = ORIENTED_EDGE ( 'NONE', *, *, #625, .F. ) ;
#96 = ORIENTED_EDGE ( 'NONE', *, *, #609, .T. ) ;
#97 = ORIENTED_EDGE ( 'NONE', *, *, #617, .T. ) ;
#98 = DIRECTION ( 'NONE',  ( 0.0000000000000000000, 1.000000000000000000, 0.0000000000000000000 ) ) ;
#99 = DIRECTION ( 'NONE',  ( -0.0000000000000000000, -1.000000000000000000, -0.0000000000000000000 ) ) ;
#100 = DIRECTION ( 'NONE',  ( 0.0000000000000000000, 0.0000000000000000000, -1.000000000000000000 ) ) ;
#101 = APPLICATION_PROTOCOL_DEFINITION ( 'draft international standard', 'automotive_design', 1998, #102 ) ;
#102 = APPLICATION_CONTEXT ( 'automotive_design' ) ;
#103 = PRODUCT_CONTEXT ( 'NONE', #112, 'mechanical' ) ;
#104 = DIRECTION ( 'NONE',  ( 1.000000000000000000, 0.0000000000000000000, 0.0000000000000000000 ) ) ;
#105 = DIRECTION ( 'NONE',  ( 0.0000000000000000000, 0.0000000000000000000, 1.000000000000000000 ) ) ;
#106 =( NAMED_UNIT ( * ) SI_UNIT ( $, .STERADIAN. ) SOLID_ANGLE_UNIT ( ) );
#107 =( NAMED_UNIT ( * ) PLANE_ANGLE_UNIT ( ) SI_UNIT ( $, .RADIAN. ) );
#108 =( LENGTH_UNIT ( ) NAMED_UNIT ( * ) SI_UNIT ( .MILLI., .METRE. ) );
#109 = SURFACE_STYLE_USAGE ( .BOTH. , #110 ) ;
#110 = SURFACE_SIDE_STYLE ('',( #804 ) ) ;
#111 = FILL_AREA_STYLE ('',( #120 ) ) ;
#112 = APPLICATION_CONTEXT ( 'automotive_design' ) ;
#113 = APPLICATION_PROTOCOL_DEFINITION ( 'draft international standard', 'automotive_design', 1998, #112 ) ;
#114 =( NAMED_UNIT ( * ) SI_UNIT ( $, .STERADIAN. ) SOLID_ANGLE_UNIT ( ) );
#115 =( NAMED_UNIT ( * ) PLANE_ANGLE_UNIT ( ) SI_UNIT ( $, .RADIAN. ) );
#116 = CARTESIAN_POINT ( 'NONE',  ( 0.0000000000000000000, 0.0000000000000000000, 0.0000000000000000000 ) ) ;
#117 = DIRECTION ( 'NONE',  ( 0.0000000000000000000, 0.0000000000000000000, -1.000000000000000000 ) ) ;
#118 =( LENGTH_UNIT ( ) NAMED_UNIT ( * ) SI_UNIT ( .MILLI., .METRE. ) );
#119 = CARTESIAN_POINT ( 'NONE',  ( 0.0000000000000000000, 2.643738103148410600, 0.0000000000000000000 ) ) ;
#120 = FILL_AREA_STYLE_COLOUR ( '', #803 ) ;
#121 = DIRECTION ( 'NONE',  ( 0.0000000000000000000, 0.0000000000000000000, 1.000000000000000000 ) ) ;
#122 = DIRECTION ( 'NONE',  ( -0.0000000000000000000, -1.000000000000000000, -0.0000000000000000000 ) ) ;
#123 = CARTESIAN_POINT ( 'NONE',  ( 0.0000000000000000000, 6.061405157418935400, 0.0000000000000000000 ) ) ;
#124 = DIRECTION ( 'NONE',  ( 0.0000000000000000000, 0.0000000000000000000, -1.000000000000000000 ) ) ;
#125 = DIRECTION ( 'NONE',  ( 0.0000000000000000000, 1.000000000000000000, 0.0000000000000000000 ) ) ;
#126 = DIRECTION ( 'NONE',  ( 0.0000000000000000000, -0.0000000000000000000, 1.000000000000000000 ) ) ;
#127 = PLANE ( 'NONE',  #255 ) ;
#128 = CARTESIAN_POINT ( 'NONE',  ( 0.0000000000000000000, 4.938594842581064600, 0.0000000000000000000 ) ) ;
#129 = DIRECTION ( 'NONE',  ( -0.0000000000000000000, -1.000000000000000000, -0.0000000000000000000 ) ) ;
#130 = DIRECTION ( 'NONE',  ( 0.0000000000000000000, 0.0000000000000000000, -1.000000000000000000 ) ) ;
#131 = DIRECTION ( 'NONE',  ( 0.0000000000000000000, 1.000000000000000000, 0.0000000000000000000 ) ) ;
#132 = CARTESIAN_POINT ( 'NONE',  ( 0.0000000000000000000, 8.356261896851590300, 0.0000000000000000000 ) ) ;
#133 = CARTESIAN_POINT ( 'NONE',  ( 0.0000000000000000000, 0.0000000000000000000, 0.0000000000000000000 ) ) ;
#134 = DIRECTION ( 'NONE',  ( -0.0000000000000000000, -1.000000000000000000, -0.0000000000000000000 ) ) ;
#135 = DIRECTION ( 'NONE',  ( -0.0000000000000000000, -1.000000000000000000, -0.0000000000000000000 ) ) ;
#136 = CARTESIAN_POINT ( 'NONE',  ( 0.0000000000000000000, 8.000000000000000000, 0.0000000000000000000 ) ) ;
#137 = DIRECTION ( 'NONE',  ( 0.0000000000000000000, 0.0000000000000000000, -1.000000000000000000 ) ) ;
#138 = CARTESIAN_POINT ( 'NONE',  ( 0.0000000000000000000, 11.00000000000000000, 0.0000000000000000000 ) ) ;
#139 = DIRECTION ( 'NONE',  ( 0.0000000000000000000, 0.0000000000000000000, 1.000000000000000000 ) ) ;
#140 =( NAMED_UNIT ( * ) PLANE_ANGLE_UNIT ( ) SI_UNIT ( $, .RADIAN. ) );
#141 =( NAMED_UNIT ( * ) SI_UNIT ( $, .STERADIAN. ) SOLID_ANGLE_UNIT ( ) );
#142 =( LENGTH_UNIT ( ) NAMED_UNIT ( * ) SI_UNIT ( .MILLI., .METRE. ) );
#143 = SURFACE_STYLE_USAGE ( .BOTH. , #144 ) ;
#144 = SURFACE_SIDE_STYLE ('',( #773 ) ) ;
#145 = DIRECTION ( 'NONE',  ( 0.0000000000000000000, 0.0000000000000000000, -1.000000000000000000 ) ) ;
#146 = FILL_AREA_STYLE ('',( #150 ) ) ;
#147 = DIRECTION ( 'NONE',  ( -0.0000000000000000000, 1.000000000000000000, -0.0000000000000000000 ) ) ;
#148 = DIRECTION ( 'NONE',  ( 0.0000000000000000000, 0.0000000000000000000, 1.000000000000000000 ) ) ;
#149 = CARTESIAN_POINT ( 'NONE',  ( 0.0000000000000000000, -3.000000000000000000, 2.500000000000000000 ) ) ;
#150 = FILL_AREA_STYLE_COLOUR ( '', #785 ) ;
#151 = CARTESIAN_POINT ( 'NONE',  ( 0.0000000000000000000, 10.49999999999999800, 0.0000000000000000000 ) ) ;
#152 = DIRECTION ( 'NONE',  ( 0.0000000000000000000, 0.0000000000000000000, 1.000000000000000000 ) ) ;
#153 = DIRECTION ( 'NONE',  ( 0.0000000000000000000, 1.000000000000000000, 0.0000000000000000000 ) ) ;
#154 = CARTESIAN_POINT ( 'NONE',  ( 0.0000000000000000000, 6.061405157418935400, 0.0000000000000000000 ) ) ;
#155 = DIRECTION ( 'NONE',  ( 0.0000000000000000000, 0.0000000000000000000, -1.000000000000000000 ) ) ;
#156 = CARTESIAN_POINT ( 'NONE',  ( 0.0000000000000000000, 4.938594842581064600, 0.0000000000000000000 ) ) ;
#157 = DIRECTION ( 'NONE',  ( -0.0000000000000000000, -1.000000000000000000, -0.0000000000000000000 ) ) ;
#158 = ORIENTED_EDGE ( 'NONE', *, *, #603, .F. ) ;
#159 = ORIENTED_EDGE ( 'NONE', *, *, #610, .T. ) ;
#160 = ORIENTED_EDGE ( 'NONE', *, *, #587, .F. ) ;
#161 = ORIENTED_EDGE ( 'NONE', *, *, #604, .T. ) ;
#162 = ORIENTED_EDGE ( 'NONE', *, *, #609, .F. ) ;
#163 = ORIENTED_EDGE ( 'NONE', *, *, #607, .F. ) ;
#164 = ORIENTED_EDGE ( 'NONE', *, *, #582, .F. ) ;
#165 = ORIENTED_EDGE ( 'NONE', *, *, #608, .T. ) ;
#166 = ORIENTED_EDGE ( 'NONE', *, *, #617, .F. ) ;
#167 = ORIENTED_EDGE ( 'NONE', *, *, #612, .T. ) ;
#168 = ORIENTED_EDGE ( 'NONE', *, *, #595, .F. ) ;
#169 = ORIENTED_EDGE ( 'NONE', *, *, #598, .F. ) ;
#170 = ORIENTED_EDGE ( 'NONE', *, *, #629, .F. ) ;
#171 = ORIENTED_EDGE ( 'NONE', *, *, #631, .F. ) ;
#172 = ORIENTED_EDGE ( 'NONE', *, *, #611, .F. ) ;
#173 = ORIENTED_EDGE ( 'NONE', *, *, #591, .F. ) ;
#174 = UNCERTAINTY_MEASURE_WITH_UNIT (LENGTH_MEASURE( 1.000000000000000100E-005 ), #376, 'distance_accuracy_value', 'NONE');
#175 = UNCERTAINTY_MEASURE_WITH_UNIT (LENGTH_MEASURE( 1.000000000000000100E-005 ), #388, 'distance_accuracy_value', 'NONE');
#176 = UNCERTAINTY_MEASURE_WITH_UNIT (LENGTH_MEASURE( 1.000000000000000100E-005 ), #108, 'distance_accuracy_value', 'NONE');
#177 = UNCERTAINTY_MEASURE_WITH_UNIT (LENGTH_MEASURE( 1.000000000000000100E-005 ), #399, 'distance_accuracy_value', 'NONE');
#178 = UNCERTAINTY_MEASURE_WITH_UNIT (LENGTH_MEASURE( 1.000000000000000100E-005 ), #412, 'distance_accuracy_value', 'NONE');
#179 = UNCERTAINTY_MEASURE_WITH_UNIT (LENGTH_MEASURE( 1.000000000000000100E-005 ), #118, 'distance_accuracy_value', 'NONE');
#180 = UNCERTAINTY_MEASURE_WITH_UNIT (LENGTH_MEASURE( 1.000000000000000100E-005 ), #142, 'distance_accuracy_value', 'NONE');
#181 = UNCERTAINTY_MEASURE_WITH_UNIT (LENGTH_MEASURE( 1.000000000000000100E-005 ), #368, 'distance_accuracy_value', 'NONE');
#182 = UNCERTAINTY_MEASURE_WITH_UNIT (LENGTH_MEASURE( 1.000000000000000100E-005 ), #349, 'distance_accuracy_value', 'NONE');
#183 = ADVANCED_BREP_SHAPE_REPRESENTATION ( 'bobina_100uH', ( #4, #199 ), #254 ) ;
#184 = AXIS2_PLACEMENT_3D ( 'NONE', #446, #445, #444 ) ;
#185 = AXIS2_PLACEMENT_3D ( 'NONE', #395, #394, #383 ) ;
#186 = AXIS2_PLACEMENT_3D ( 'NONE', #466, #496, #420 ) ;
#187 = AXIS2_PLACEMENT_3D ( 'NONE', #452, #454, #455 ) ;
#188 = STYLED_ITEM ( 'NONE', ( #747 ), #649 ) ;
#189 = STYLED_ITEM ( 'NONE', ( #805 ), #183 ) ;
#190 = STYLED_ITEM ( 'NONE', ( #761 ), #657 ) ;
#191 = PRODUCT_RELATED_PRODUCT_CATEGORY ( 'part', '', ( #807 ) ) ;
#192 = AXIS2_PLACEMENT_3D ( 'NONE', #516, #517, #518 ) ;
#193 = MECHANICAL_DESIGN_GEOMETRIC_PRESENTATION_REPRESENTATION (  '', ( #189 ), #273 ) ;
#194 = PRESENTATION_LAYER_ASSIGNMENT (  '', '', ( #210 ) ) ;
#195 = PRESENTATION_LAYER_ASSIGNMENT (  '', '', ( #190 ) ) ;
#196 = AXIS2_PLACEMENT_3D ( 'NONE', #365, #364, #363 ) ;
#197 = AXIS2_PLACEMENT_3D ( 'NONE', #481, #505, #507 ) ;
#198 = AXIS2_PLACEMENT_3D ( 'NONE', #520, #521, #522 ) ;
#199 = AXIS2_PLACEMENT_3D ( 'NONE', #116, #105, #104 ) ;
#200 = AXIS2_PLACEMENT_3D ( 'NONE', #424, #423, #422 ) ;
#201 =( GEOMETRIC_REPRESENTATION_CONTEXT ( 3 ) GLOBAL_UNCERTAINTY_ASSIGNED_CONTEXT ( ( #178 ) ) GLOBAL_UNIT_ASSIGNED_CONTEXT ( ( #412, #410, #409 ) ) REPRESENTATION_CONTEXT ( 'NONE', 'WORKASPACE' ) );
#202 = PRESENTATION_LAYER_ASSIGNMENT (  '', '', ( #269 ) ) ;
#203 = PRESENTATION_LAYER_ASSIGNMENT (  '', '', ( #204 ) ) ;
#204 = STYLED_ITEM ( 'NONE', ( #735 ), #646 ) ;
#205 = MECHANICAL_DESIGN_GEOMETRIC_PRESENTATION_REPRESENTATION (  '', ( #204 ), #201 ) ;
#206 = MECHANICAL_DESIGN_GEOMETRIC_PRESENTATION_REPRESENTATION (  '', ( #210 ), #229 ) ;
#207 = AXIS2_PLACEMENT_3D ( 'NONE', #439, #438, #437 ) ;
#208 = AXIS2_PLACEMENT_3D ( 'NONE', #453, #489, #486 ) ;
#209 = AXIS2_PLACEMENT_3D ( 'NONE', #431, #430, #429 ) ;
#210 = STYLED_ITEM ( 'NONE', ( #737 ), #647 ) ;
#211 = AXIS2_PLACEMENT_3D ( 'NONE', #418, #417, #416 ) ;
#212 = PRESENTATION_LAYER_ASSIGNMENT (  '', '', ( #188 ) ) ;
#213 = PRESENTATION_LAYER_ASSIGNMENT (  '', '', ( #189 ) ) ;
#214 = AXIS2_PLACEMENT_3D ( 'NONE', #362, #485, #372 ) ;
#215 = AXIS2_PLACEMENT_3D ( 'NONE', #456, #529, #392 ) ;
#216 = STYLED_ITEM ( 'NONE', ( #772 ), #664 ) ;
#217 = AXIS2_PLACEMENT_3D ( 'NONE', #443, #442, #440 ) ;
#218 = AXIS2_PLACEMENT_3D ( 'NONE', #538, #539, #515 ) ;
#219 = AXIS2_PLACEMENT_3D ( 'NONE', #493, #504, #503 ) ;
#220 = MECHANICAL_DESIGN_GEOMETRIC_PRESENTATION_REPRESENTATION (  '', ( #234 ), #251 ) ;
#221 =( GEOMETRIC_REPRESENTATION_CONTEXT ( 3 ) GLOBAL_UNCERTAINTY_ASSIGNED_CONTEXT ( ( #174 ) ) GLOBAL_UNIT_ASSIGNED_CONTEXT ( ( #376, #375, #374 ) ) REPRESENTATION_CONTEXT ( 'NONE', 'WORKASPACE' ) );
#222 = MECHANICAL_DESIGN_GEOMETRIC_PRESENTATION_REPRESENTATION (  '', ( #188 ), #221 ) ;
#223 = AXIS2_PLACEMENT_3D ( 'NONE', #532, #411, #405 ) ;
#224 = PRESENTATION_LAYER_ASSIGNMENT (  '', '', ( #234 ) ) ;
#225 = AXIS2_PLACEMENT_3D ( 'NONE', #156, #157, #155 ) ;
#226 = AXIS2_PLACEMENT_3D ( 'NONE', #435, #434, #433 ) ;
#227 = AXIS2_PLACEMENT_3D ( 'NONE', #536, #523, #525 ) ;
#228 = AXIS2_PLACEMENT_3D ( 'NONE', #404, #436, #396 ) ;
#229 =( GEOMETRIC_REPRESENTATION_CONTEXT ( 3 ) GLOBAL_UNCERTAINTY_ASSIGNED_CONTEXT ( ( #177 ) ) GLOBAL_UNIT_ASSIGNED_CONTEXT ( ( #399, #398, #397 ) ) REPRESENTATION_CONTEXT ( 'NONE', 'WORKASPACE' ) );
#230 = AXIS2_PLACEMENT_3D ( 'NONE', #354, #356, #460 ) ;
#231 = AXIS2_PLACEMENT_3D ( 'NONE', #408, #407, #406 ) ;
#232 = AXIS2_PLACEMENT_3D ( 'NONE', #450, #449, #448 ) ;
#233 = MECHANICAL_DESIGN_GEOMETRIC_PRESENTATION_REPRESENTATION (  '', ( #190 ), #272 ) ;
#234 = STYLED_ITEM ( 'NONE', ( #751 ), #653 ) ;
#235 = AXIS2_PLACEMENT_3D ( 'NONE', #138, #99, #145 ) ;
#236 = AXIS2_PLACEMENT_3D ( 'NONE', #530, #531, #535 ) ;
#237 = AXIS2_PLACEMENT_3D ( 'NONE', #500, #348, #501 ) ;
#238 = AXIS2_PLACEMENT_3D ( 'NONE', #467, #497, #464 ) ;
#239 = AXIS2_PLACEMENT_3D ( 'NONE', #463, #465, #519 ) ;
#240 = AXIS2_PLACEMENT_3D ( 'NONE', #487, #385, #137 ) ;
#241 = AXIS2_PLACEMENT_3D ( 'NONE', #357, #461, #358 ) ;
#242 = AXIS2_PLACEMENT_3D ( 'NONE', #488, #490, #491 ) ;
#243 =( GEOMETRIC_REPRESENTATION_CONTEXT ( 3 ) GLOBAL_UNCERTAINTY_ASSIGNED_CONTEXT ( ( #180 ) ) GLOBAL_UNIT_ASSIGNED_CONTEXT ( ( #142, #140, #141 ) ) REPRESENTATION_CONTEXT ( 'NONE', 'WORKASPACE' ) );
#244 = AXIS2_PLACEMENT_3D ( 'NONE', #132, #134, #130 ) ;
#245 = AXIS2_PLACEMENT_3D ( 'NONE', #384, #355, #533 ) ;
#246 = AXIS2_PLACEMENT_3D ( 'NONE', #360, #359, #361 ) ;
#247 = PRESENTATION_LAYER_ASSIGNMENT (  '', '', ( #216 ) ) ;
#248 = MECHANICAL_DESIGN_GEOMETRIC_PRESENTATION_REPRESENTATION (  '', ( #216 ), #243 ) ;
#249 = AXIS2_PLACEMENT_3D ( 'NONE', #151, #153, #148 ) ;
#250 = AXIS2_PLACEMENT_3D ( 'NONE', #154, #98, #152 ) ;
#251 =( GEOMETRIC_REPRESENTATION_CONTEXT ( 3 ) GLOBAL_UNCERTAINTY_ASSIGNED_CONTEXT ( ( #181 ) ) GLOBAL_UNIT_ASSIGNED_CONTEXT ( ( #368, #367, #366 ) ) REPRESENTATION_CONTEXT ( 'NONE', 'WORKASPACE' ) );
#252 = AXIS2_PLACEMENT_3D ( 'NONE', #149, #147, #139 ) ;
#253 = AXIS2_PLACEMENT_3D ( 'NONE', #136, #135, #100 ) ;
#254 =( GEOMETRIC_REPRESENTATION_CONTEXT ( 3 ) GLOBAL_UNCERTAINTY_ASSIGNED_CONTEXT ( ( #179 ) ) GLOBAL_UNIT_ASSIGNED_CONTEXT ( ( #118, #115, #114 ) ) REPRESENTATION_CONTEXT ( 'NONE', 'WORKASPACE' ) );
#255 = AXIS2_PLACEMENT_3D ( 'NONE', #133, #131, #126 ) ;
#256 = AXIS2_PLACEMENT_3D ( 'NONE', #128, #129, #124 ) ;
#257 = AXIS2_PLACEMENT_3D ( 'NONE', #123, #125, #121 ) ;
#258 = AXIS2_PLACEMENT_3D ( 'NONE', #119, #122, #117 ) ;
#259 = AXIS2_PLACEMENT_3D ( 'NONE', #382, #380, #482 ) ;
#260 =( GEOMETRIC_REPRESENTATION_CONTEXT ( 3 ) GLOBAL_UNCERTAINTY_ASSIGNED_CONTEXT ( ( #175 ) ) GLOBAL_UNIT_ASSIGNED_CONTEXT ( ( #388, #387, #386 ) ) REPRESENTATION_CONTEXT ( 'NONE', 'WORKASPACE' ) );
#261 = AXIS2_PLACEMENT_3D ( 'NONE', #477, #470, #484 ) ;
#262 = AXIS2_PLACEMENT_3D ( 'NONE', #492, #502, #499 ) ;
#263 = PRODUCT_DEFINITION_FORMATION_WITH_SPECIFIED_SOURCE ( 'ANY', '', #807, .NOT_KNOWN. ) ;
#264 = AXIS2_PLACEMENT_3D ( 'NONE', #471, #473, #472 ) ;
#265 = AXIS2_PLACEMENT_3D ( 'NONE', #514, #494, #451 ) ;
#266 = AXIS2_PLACEMENT_3D ( 'NONE', #506, #524, #495 ) ;
#267 = PRODUCT_DEFINITION ( 'UNKNOWN', '', #263, #816 ) ;
#268 = AXIS2_PLACEMENT_3D ( 'NONE', #510, #511, #508 ) ;
#269 = STYLED_ITEM ( 'NONE', ( #742 ), #648 ) ;
#270 = AXIS2_PLACEMENT_3D ( 'NONE', #469, #480, #459 ) ;
#271 = AXIS2_PLACEMENT_3D ( 'NONE', #458, #527, #528 ) ;
#272 =( GEOMETRIC_REPRESENTATION_CONTEXT ( 3 ) GLOBAL_UNCERTAINTY_ASSIGNED_CONTEXT ( ( #182 ) ) GLOBAL_UNIT_ASSIGNED_CONTEXT ( ( #349, #347, #441 ) ) REPRESENTATION_CONTEXT ( 'NONE', 'WORKASPACE' ) );
#273 =( GEOMETRIC_REPRESENTATION_CONTEXT ( 3 ) GLOBAL_UNCERTAINTY_ASSIGNED_CONTEXT ( ( #176 ) ) GLOBAL_UNIT_ASSIGNED_CONTEXT ( ( #108, #107, #106 ) ) REPRESENTATION_CONTEXT ( 'NONE', 'WORKASPACE' ) );
#274 = MECHANICAL_DESIGN_GEOMETRIC_PRESENTATION_REPRESENTATION (  '', ( #269 ), #260 ) ;
#275 = AXIS2_PLACEMENT_3D ( 'NONE', #478, #474, #475 ) ;
#276 = AXIS2_PLACEMENT_3D ( 'NONE', #426, #425, #447 ) ;
#277 = DIRECTION ( 'NONE',  ( 1.224646799147353500E-016, 0.0000000000000000000, -1.000000000000000000 ) ) ;
#278 = CARTESIAN_POINT ( 'NONE',  ( 3.735172737399426400E-017, -3.000000000000000000, 2.194999999999999800 ) ) ;
#279 = DIRECTION ( 'NONE',  ( 0.0000000000000000000, 0.0000000000000000000, 1.000000000000000000 ) ) ;
#280 = CARTESIAN_POINT ( 'NONE',  ( 0.0000000000000000000, 6.061405157418935400, 0.0000000000000000000 ) ) ;
#281 = CARTESIAN_POINT ( 'NONE',  ( 0.0000000000000000000, 8.000000000000000000, -2.741782509162431500 ) ) ;
#282 = DIRECTION ( 'NONE',  ( 0.0000000000000000000, 0.0000000000000000000, 1.000000000000000000 ) ) ;
#283 = DIRECTION ( 'NONE',  ( -0.0000000000000000000, -1.000000000000000000, -0.0000000000000000000 ) ) ;
#284 = CARTESIAN_POINT ( 'NONE',  ( 0.0000000000000000000, 7.897290548965059100, 3.948356501832486200 ) ) ;
#285 = CARTESIAN_POINT ( 'NONE',  ( 0.0000000000000000000, 11.00000000000000000, 0.0000000000000000000 ) ) ;
#286 =( LENGTH_UNIT ( ) NAMED_UNIT ( * ) SI_UNIT ( .MILLI., .METRE. ) );
#287 = SURFACE_SIDE_STYLE ('',( #18 ) ) ;
#288 = DIRECTION ( 'NONE',  ( -0.0000000000000000000, 1.000000000000000000, -0.0000000000000000000 ) ) ;
#289 = DIRECTION ( 'NONE',  ( 0.0000000000000000000, 1.000000000000000000, 0.0000000000000000000 ) ) ;
#290 = CARTESIAN_POINT ( 'NONE',  ( 0.0000000000000000000, 11.00000000000000000, -4.250000000000000000 ) ) ;
#291 = CARTESIAN_POINT ( 'NONE',  ( 0.0000000000000000000, 4.938594842581064600, -4.741782509162431000 ) ) ;
#292 = DIRECTION ( 'NONE',  ( -0.0000000000000000000, -1.000000000000000000, -0.0000000000000000000 ) ) ;
#293 = CARTESIAN_POINT ( 'NONE',  ( 0.0000000000000000000, 6.061405157418935400, 4.741782509162431000 ) ) ;
#294 = CARTESIAN_POINT ( 'NONE',  ( 5.204748896376250700E-016, 2.643738103148410600, 4.250000000000000000 ) ) ;
#295 = CARTESIAN_POINT ( 'NONE',  ( 0.0000000000000000000, 8.356261896851590300, 0.0000000000000000000 ) ) ;
#296 = CARTESIAN_POINT ( 'NONE',  ( 4.835342151861794800E-016, 3.102709451034941300, 3.948356501832486200 ) ) ;
#297 = CARTESIAN_POINT ( 'NONE',  ( 5.204748896376250700E-016, 10.49999999999999800, 4.250000000000000000 ) ) ;
#298 = DIRECTION ( 'NONE',  ( 0.0000000000000000000, 0.0000000000000000000, 1.000000000000000000 ) ) ;
#299 = CARTESIAN_POINT ( 'NONE',  ( 4.835342151861794800E-016, 7.897290548965059100, -3.948356501832486200 ) ) ;
#300 = CARTESIAN_POINT ( 'NONE',  ( 0.0000000000000000000, 0.0000000000000000000, 2.805000000000000200 ) ) ;
#301 = DIRECTION ( 'NONE',  ( 0.0000000000000000000, 1.000000000000000000, 0.0000000000000000000 ) ) ;
#302 = CARTESIAN_POINT ( 'NONE',  ( 0.0000000000000000000, 0.0000000000000000000, -2.194999999999999800 ) ) ;
#303 = CARTESIAN_POINT ( 'NONE',  ( 4.592425496802575000E-016, 2.643738103148410600, 3.750000000000000400 ) ) ;
#304 = DIRECTION ( 'NONE',  ( -1.224646799147353500E-016, 0.0000000000000000000, -1.000000000000000000 ) ) ;
#305 = DIRECTION ( 'NONE',  ( -0.0000000000000000000, -1.000000000000000000, -0.0000000000000000000 ) ) ;
#306 = CARTESIAN_POINT ( 'NONE',  ( 0.0000000000000000000, 2.643738103148410600, -4.250000000000000000 ) ) ;
#307 = CARTESIAN_POINT ( 'NONE',  ( 0.0000000000000000000, -3.000000000000000000, 2.805000000000000200 ) ) ;
#308 = CARTESIAN_POINT ( 'NONE',  ( 3.735172737399423900E-017, -3.000000000000000000, -2.805000000000000200 ) ) ;
#309 = CARTESIAN_POINT ( 'NONE',  ( 0.0000000000000000000, 8.356261896851590300, -4.250000000000000000 ) ) ;
#310 = CARTESIAN_POINT ( 'NONE',  ( 5.204748896376250700E-016, 8.356261896851590300, 4.250000000000000000 ) ) ;
#311 = CARTESIAN_POINT ( 'NONE',  ( 3.735172737399423900E-017, 0.0000000000000000000, 2.194999999999999800 ) ) ;
#312 = CARTESIAN_POINT ( 'NONE',  ( 5.204748896376250700E-016, 0.5000000000000000000, 4.250000000000000000 ) ) ;
#313 = CARTESIAN_POINT ( 'NONE',  ( 5.807008772098676000E-016, 6.061405157418935400, -4.741782509162431000 ) ) ;
#314 = FILL_AREA_STYLE ('',( #336 ) ) ;
#315 = CARTESIAN_POINT ( 'NONE',  ( 4.898587196589413800E-016, 11.00000000000000000, -3.750000000000000400 ) ) ;
#316 = CARTESIAN_POINT ( 'NONE',  ( 0.0000000000000000000, 10.49999999999999800, -4.250000000000000000 ) ) ;
#317 = DIRECTION ( 'NONE',  ( 1.000000000000000000, 0.0000000000000000000, -1.224646799147353200E-016 ) ) ;
#318 = DIRECTION ( 'NONE',  ( 1.000000000000000000, -0.0000000000000000000, 1.224646799147353200E-016 ) ) ;
#319 = CARTESIAN_POINT ( 'NONE',  ( 0.0000000000000000000, 4.938594842581064600, -2.741782509162431500 ) ) ;
#320 = CARTESIAN_POINT ( 'NONE',  ( 3.735172737399423900E-017, -3.000000000000000000, 2.194999999999999800 ) ) ;
#321 = CARTESIAN_POINT ( 'NONE',  ( 3.735172737399423900E-017, 0.0000000000000000000, -2.805000000000000200 ) ) ;
#322 = SURFACE_STYLE_USAGE ( .BOTH. , #287 ) ;
#323 = CARTESIAN_POINT ( 'NONE',  ( 3.357715173803970100E-016, 6.061405157418935400, 2.741782509162431500 ) ) ;
#324 =( NAMED_UNIT ( * ) PLANE_ANGLE_UNIT ( ) SI_UNIT ( $, .RADIAN. ) );
#325 = DIRECTION ( 'NONE',  ( -1.000000000000000000, 0.0000000000000000000, 0.0000000000000000000 ) ) ;
#326 =( NAMED_UNIT ( * ) SI_UNIT ( $, .STERADIAN. ) SOLID_ANGLE_UNIT ( ) );
#327 = DIRECTION ( 'NONE',  ( 0.0000000000000000000, 1.000000000000000000, 0.0000000000000000000 ) ) ;
#328 = DIRECTION ( 'NONE',  ( 1.000000000000000000, 0.0000000000000000000, -1.224646799147353200E-016 ) ) ;
#329 = DIRECTION ( 'NONE',  ( 0.0000000000000000000, 0.0000000000000000000, 1.000000000000000000 ) ) ;
#330 = CARTESIAN_POINT ( 'NONE',  ( 0.0000000000000000000, 0.5000000000000000000, 0.0000000000000000000 ) ) ;
#331 = DIRECTION ( 'NONE',  ( 0.0000000000000000000, 0.0000000000000000000, -1.000000000000000000 ) ) ;
#332 = DIRECTION ( 'NONE',  ( 0.0000000000000000000, 0.0000000000000000000, 1.000000000000000000 ) ) ;
#333 = CARTESIAN_POINT ( 'NONE',  ( 3.357715173803970100E-016, 8.000000000000000000, 2.741782509162431500 ) ) ;
#334 = CARTESIAN_POINT ( 'NONE',  ( 0.0000000000000000000, 6.061405157418935400, -2.741782509162431500 ) ) ;
#335 = CARTESIAN_POINT ( 'NONE',  ( 0.0000000000000000000, 11.00000000000000000, 3.750000000000000400 ) ) ;
#336 = FILL_AREA_STYLE_COLOUR ( '', #19 ) ;
#337 = DIRECTION ( 'NONE',  ( -1.224646799147353200E-016, 0.0000000000000000000, -1.000000000000000000 ) ) ;
#338 = CARTESIAN_POINT ( 'NONE',  ( 0.0000000000000000000, 0.5000000000000000000, -4.250000000000000000 ) ) ;
#339 = CARTESIAN_POINT ( 'NONE',  ( 4.898587196589413800E-016, 0.0000000000000000000, -3.750000000000000400 ) ) ;
#340 = DIRECTION ( 'NONE',  ( -0.0000000000000000000, -1.000000000000000000, -0.0000000000000000000 ) ) ;
#341 = CARTESIAN_POINT ( 'NONE',  ( 0.0000000000000000000, 3.102709451034941300, -3.948356501832486200 ) ) ;
#342 = CARTESIAN_POINT ( 'NONE',  ( 5.807008772098676000E-016, 4.938594842581064600, 4.741782509162431000 ) ) ;
#343 = CARTESIAN_POINT ( 'NONE',  ( 0.0000000000000000000, -3.000000000000000000, -2.194999999999999800 ) ) ;
#344 = CARTESIAN_POINT ( 'NONE',  ( 3.357715173803970100E-016, 4.938594842581064600, 2.741782509162431500 ) ) ;
#345 = CARTESIAN_POINT ( 'NONE',  ( 0.0000000000000000000, 0.0000000000000000000, 3.750000000000000400 ) ) ;
#346 = DIRECTION ( 'NONE',  ( -1.000000000000000000, 0.0000000000000000000, 0.0000000000000000000 ) ) ;
#347 =( NAMED_UNIT ( * ) PLANE_ANGLE_UNIT ( ) SI_UNIT ( $, .RADIAN. ) );
#348 = DIRECTION ( 'NONE',  ( -1.000000000000000000, 0.0000000000000000000, 0.0000000000000000000 ) ) ;
#349 =( LENGTH_UNIT ( ) NAMED_UNIT ( * ) SI_UNIT ( .MILLI., .METRE. ) );
#350 = SURFACE_STYLE_USAGE ( .BOTH. , #351 ) ;
#351 = SURFACE_SIDE_STYLE ('',( #768 ) ) ;
#352 = FILL_AREA_STYLE ('',( #462 ) ) ;
#353 = DIRECTION ( 'NONE',  ( -0.0000000000000000000, 1.000000000000000000, -0.0000000000000000000 ) ) ;
#354 = CARTESIAN_POINT ( 'NONE',  ( 0.0000000000000000000, 2.643738103148410600, 0.0000000000000000000 ) ) ;
#355 = DIRECTION ( 'NONE',  ( 0.0000000000000000000, 1.000000000000000000, 0.0000000000000000000 ) ) ;
#356 = DIRECTION ( 'NONE',  ( -0.0000000000000000000, -1.000000000000000000, -0.0000000000000000000 ) ) ;
#357 = CARTESIAN_POINT ( 'NONE',  ( 0.0000000000000000000, 3.000000000000000000, 0.0000000000000000000 ) ) ;
#358 = DIRECTION ( 'NONE',  ( 0.0000000000000000000, 0.0000000000000000000, -1.000000000000000000 ) ) ;
#359 = DIRECTION ( 'NONE',  ( -0.0000000000000000000, -1.000000000000000000, -0.0000000000000000000 ) ) ;
#360 = CARTESIAN_POINT ( 'NONE',  ( 0.0000000000000000000, 8.000000000000000000, 0.0000000000000000000 ) ) ;
#361 = DIRECTION ( 'NONE',  ( 0.0000000000000000000, 0.0000000000000000000, -1.000000000000000000 ) ) ;
#362 = CARTESIAN_POINT ( 'NONE',  ( 0.0000000000000000000, 11.00000000000000000, 0.0000000000000000000 ) ) ;
#363 = DIRECTION ( 'NONE',  ( 0.0000000000000000000, -0.0000000000000000000, 1.000000000000000000 ) ) ;
#364 = DIRECTION ( 'NONE',  ( 0.0000000000000000000, 1.000000000000000000, 0.0000000000000000000 ) ) ;
#365 = CARTESIAN_POINT ( 'NONE',  ( 0.0000000000000000000, 11.00000000000000000, 0.0000000000000000000 ) ) ;
#366 =( NAMED_UNIT ( * ) SI_UNIT ( $, .STERADIAN. ) SOLID_ANGLE_UNIT ( ) );
#367 =( NAMED_UNIT ( * ) PLANE_ANGLE_UNIT ( ) SI_UNIT ( $, .RADIAN. ) );
#368 =( LENGTH_UNIT ( ) NAMED_UNIT ( * ) SI_UNIT ( .MILLI., .METRE. ) );
#369 = SURFACE_STYLE_USAGE ( .BOTH. , #370 ) ;
#370 = SURFACE_SIDE_STYLE ('',( #758 ) ) ;
#371 = FILL_AREA_STYLE ('',( #483 ) ) ;
#372 = DIRECTION ( 'NONE',  ( 0.0000000000000000000, 0.0000000000000000000, -1.000000000000000000 ) ) ;
#373 = PLANE ( 'NONE',  #196 ) ;
#374 =( NAMED_UNIT ( * ) SI_UNIT ( $, .STERADIAN. ) SOLID_ANGLE_UNIT ( ) );
#375 =( NAMED_UNIT ( * ) PLANE_ANGLE_UNIT ( ) SI_UNIT ( $, .RADIAN. ) );
#376 =( LENGTH_UNIT ( ) NAMED_UNIT ( * ) SI_UNIT ( .MILLI., .METRE. ) );
#377 = SURFACE_STYLE_USAGE ( .BOTH. , #378 ) ;
#378 = SURFACE_SIDE_STYLE ('',( #748 ) ) ;
#379 = FILL_AREA_STYLE ('',( #393 ) ) ;
#380 = DIRECTION ( 'NONE',  ( 0.0000000000000000000, 1.000000000000000000, 0.0000000000000000000 ) ) ;
#381 = PLANE ( 'NONE',  #266 ) ;
#382 = CARTESIAN_POINT ( 'NONE',  ( 0.0000000000000000000, 0.5000000000000000000, 0.0000000000000000000 ) ) ;
#383 = DIRECTION ( 'NONE',  ( 0.0000000000000000000, 0.0000000000000000000, 1.000000000000000000 ) ) ;
#384 = CARTESIAN_POINT ( 'NONE',  ( 0.0000000000000000000, 0.5000000000000000000, 0.0000000000000000000 ) ) ;
#385 = DIRECTION ( 'NONE',  ( -0.0000000000000000000, -1.000000000000000000, -0.0000000000000000000 ) ) ;
#386 =( NAMED_UNIT ( * ) SI_UNIT ( $, .STERADIAN. ) SOLID_ANGLE_UNIT ( ) );
#387 =( NAMED_UNIT ( * ) PLANE_ANGLE_UNIT ( ) SI_UNIT ( $, .RADIAN. ) );
#388 =( LENGTH_UNIT ( ) NAMED_UNIT ( * ) SI_UNIT ( .MILLI., .METRE. ) );
#389 = SURFACE_STYLE_USAGE ( .BOTH. , #390 ) ;
#390 = SURFACE_SIDE_STYLE ('',( #743 ) ) ;
#391 = FILL_AREA_STYLE ('',( #403 ) ) ;
#392 = DIRECTION ( 'NONE',  ( 0.0000000000000000000, 0.0000000000000000000, -1.000000000000000000 ) ) ;
#393 = FILL_AREA_STYLE_COLOUR ( '', #745 ) ;
#394 = DIRECTION ( 'NONE',  ( -0.0000000000000000000, 1.000000000000000000, -0.0000000000000000000 ) ) ;
#395 = CARTESIAN_POINT ( 'NONE',  ( 0.0000000000000000000, -3.000000000000000000, -2.500000000000000000 ) ) ;
#396 = DIRECTION ( 'NONE',  ( 0.0000000000000000000, 0.0000000000000000000, 1.000000000000000000 ) ) ;
#397 =( NAMED_UNIT ( * ) SI_UNIT ( $, .STERADIAN. ) SOLID_ANGLE_UNIT ( ) );
#398 =( NAMED_UNIT ( * ) PLANE_ANGLE_UNIT ( ) SI_UNIT ( $, .RADIAN. ) );
#399 =( LENGTH_UNIT ( ) NAMED_UNIT ( * ) SI_UNIT ( .MILLI., .METRE. ) );
#400 = SURFACE_STYLE_USAGE ( .BOTH. , #401 ) ;
#401 = SURFACE_SIDE_STYLE ('',( #738 ) ) ;
#402 = FILL_AREA_STYLE ('',( #419 ) ) ;
#403 = FILL_AREA_STYLE_COLOUR ( '', #740 ) ;
#404 = CARTESIAN_POINT ( 'NONE',  ( 0.0000000000000000000, -3.000000000000000000, 2.500000000000000000 ) ) ;
#405 = DIRECTION ( 'NONE',  ( -1.224646799147353500E-016, 0.0000000000000000000, -1.000000000000000000 ) ) ;
#406 = DIRECTION ( 'NONE',  ( 0.0000000000000000000, -0.0000000000000000000, -1.000000000000000000 ) ) ;
#407 = DIRECTION ( 'NONE',  ( 0.0000000000000000000, -1.000000000000000000, 0.0000000000000000000 ) ) ;
#408 = CARTESIAN_POINT ( 'NONE',  ( 0.0000000000000000000, -3.000000000000000000, -2.500000000000000000 ) ) ;
#409 =( NAMED_UNIT ( * ) SI_UNIT ( $, .STERADIAN. ) SOLID_ANGLE_UNIT ( ) );
#410 =( NAMED_UNIT ( * ) PLANE_ANGLE_UNIT ( ) SI_UNIT ( $, .RADIAN. ) );
#411 = DIRECTION ( 'NONE',  ( 1.000000000000000000, 0.0000000000000000000, -1.224646799147353200E-016 ) ) ;
#412 =( LENGTH_UNIT ( ) NAMED_UNIT ( * ) SI_UNIT ( .MILLI., .METRE. ) );
#413 = SURFACE_STYLE_USAGE ( .BOTH. , #414 ) ;
#414 = SURFACE_SIDE_STYLE ('',( #730 ) ) ;
#415 = FILL_AREA_STYLE ('',( #428 ) ) ;
#416 = DIRECTION ( 'NONE',  ( 0.0000000000000000000, 0.0000000000000000000, -1.000000000000000000 ) ) ;
#417 = DIRECTION ( 'NONE',  ( 0.0000000000000000000, -1.000000000000000000, 0.0000000000000000000 ) ) ;
#418 = CARTESIAN_POINT ( 'NONE',  ( 0.0000000000000000000, -3.000000000000000000, -2.500000000000000000 ) ) ;
#419 = FILL_AREA_STYLE_COLOUR ( '', #739 ) ;
#420 = DIRECTION ( 'NONE',  ( 0.0000000000000000000, 0.0000000000000000000, -1.000000000000000000 ) ) ;
#421 = PLANE ( 'NONE',  #231 ) ;
#422 = DIRECTION ( 'NONE',  ( 0.0000000000000000000, 0.0000000000000000000, 1.000000000000000000 ) ) ;
#423 = DIRECTION ( 'NONE',  ( -1.000000000000000000, 0.0000000000000000000, 0.0000000000000000000 ) ) ;
#424 = CARTESIAN_POINT ( 'NONE',  ( 0.0000000000000000000, 8.356261896851590300, -3.750000000000000400 ) ) ;
#425 = DIRECTION ( 'NONE',  ( -0.0000000000000000000, -1.000000000000000000, -0.0000000000000000000 ) ) ;
#426 = CARTESIAN_POINT ( 'NONE',  ( 0.0000000000000000000, 0.0000000000000000000, 0.0000000000000000000 ) ) ;
#427 = CARTESIAN_POINT ( 'NONE',  ( 5.204748896376250700E-016, 11.00000000000000000, 4.250000000000000000 ) ) ;
#428 = FILL_AREA_STYLE_COLOUR ( '', #733 ) ;
#429 = DIRECTION ( 'NONE',  ( 0.0000000000000000000, 0.0000000000000000000, -1.000000000000000000 ) ) ;
#430 = DIRECTION ( 'NONE',  ( -0.0000000000000000000, -1.000000000000000000, -0.0000000000000000000 ) ) ;
#431 = CARTESIAN_POINT ( 'NONE',  ( 0.0000000000000000000, 7.897290548965059100, 0.0000000000000000000 ) ) ;
#432 = DIRECTION ( 'NONE',  ( -0.0000000000000000000, -1.000000000000000000, -0.0000000000000000000 ) ) ;
#433 = DIRECTION ( 'NONE',  ( 0.0000000000000000000, 0.0000000000000000000, -1.000000000000000000 ) ) ;
#434 = DIRECTION ( 'NONE',  ( -0.0000000000000000000, -1.000000000000000000, -0.0000000000000000000 ) ) ;
#435 = CARTESIAN_POINT ( 'NONE',  ( 0.0000000000000000000, 2.643738103148410600, 0.0000000000000000000 ) ) ;
#436 = DIRECTION ( 'NONE',  ( -0.0000000000000000000, 1.000000000000000000, -0.0000000000000000000 ) ) ;
#437 = DIRECTION ( 'NONE',  ( 0.0000000000000000000, 0.0000000000000000000, -1.000000000000000000 ) ) ;
#438 = DIRECTION ( 'NONE',  ( 0.0000000000000000000, -1.000000000000000000, 0.0000000000000000000 ) ) ;
#439 = CARTESIAN_POINT ( 'NONE',  ( 0.0000000000000000000, -3.000000000000000000, -2.500000000000000000 ) ) ;
#440 = DIRECTION ( 'NONE',  ( 0.0000000000000000000, 0.0000000000000000000, -1.000000000000000000 ) ) ;
#441 =( NAMED_UNIT ( * ) SI_UNIT ( $, .STERADIAN. ) SOLID_ANGLE_UNIT ( ) );
#442 = DIRECTION ( 'NONE',  ( 0.0000000000000000000, -1.000000000000000000, 0.0000000000000000000 ) ) ;
#443 = CARTESIAN_POINT ( 'NONE',  ( 0.0000000000000000000, -3.000000000000000000, 2.500000000000000000 ) ) ;
#444 = DIRECTION ( 'NONE',  ( 0.0000000000000000000, 0.0000000000000000000, -1.000000000000000000 ) ) ;
#445 = DIRECTION ( 'NONE',  ( 0.0000000000000000000, 1.000000000000000000, 0.0000000000000000000 ) ) ;
#446 = CARTESIAN_POINT ( 'NONE',  ( 0.0000000000000000000, 4.938594842581064600, 0.0000000000000000000 ) ) ;
#447 = DIRECTION ( 'NONE',  ( 0.0000000000000000000, 0.0000000000000000000, 1.000000000000000000 ) ) ;
#448 = DIRECTION ( 'NONE',  ( 0.0000000000000000000, 0.0000000000000000000, 1.000000000000000000 ) ) ;
#449 = DIRECTION ( 'NONE',  ( 0.0000000000000000000, 1.000000000000000000, 0.0000000000000000000 ) ) ;
#450 = CARTESIAN_POINT ( 'NONE',  ( 0.0000000000000000000, 11.00000000000000000, 0.0000000000000000000 ) ) ;
#451 = DIRECTION ( 'NONE',  ( 0.0000000000000000000, 0.0000000000000000000, 1.000000000000000000 ) ) ;
#452 = CARTESIAN_POINT ( 'NONE',  ( 0.0000000000000000000, 8.356261896851590300, 0.0000000000000000000 ) ) ;
#453 = CARTESIAN_POINT ( 'NONE',  ( 0.0000000000000000000, 0.5000000000000000000, 3.750000000000000400 ) ) ;
#454 = DIRECTION ( 'NONE',  ( 0.0000000000000000000, 1.000000000000000000, 0.0000000000000000000 ) ) ;
#455 = DIRECTION ( 'NONE',  ( 0.0000000000000000000, 0.0000000000000000000, -1.000000000000000000 ) ) ;
#456 = CARTESIAN_POINT ( 'NONE',  ( 0.0000000000000000000, 2.643738103148410600, 0.0000000000000000000 ) ) ;
#457 = DIRECTION ( 'NONE',  ( -0.0000000000000000000, -1.000000000000000000, -0.0000000000000000000 ) ) ;
#458 = CARTESIAN_POINT ( 'NONE',  ( 0.0000000000000000000, 0.0000000000000000000, 2.500000000000000000 ) ) ;
#459 = DIRECTION ( 'NONE',  ( 0.0000000000000000000, 0.0000000000000000000, -1.000000000000000000 ) ) ;
#460 = DIRECTION ( 'NONE',  ( 0.0000000000000000000, 0.0000000000000000000, -1.000000000000000000 ) ) ;
#461 = DIRECTION ( 'NONE',  ( -0.0000000000000000000, -1.000000000000000000, -0.0000000000000000000 ) ) ;
#462 = FILL_AREA_STYLE_COLOUR ( '', #763 ) ;
#463 = CARTESIAN_POINT ( 'NONE',  ( 0.0000000000000000000, -3.000000000000000000, -2.500000000000000000 ) ) ;
#464 = DIRECTION ( 'NONE',  ( 0.0000000000000000000, 0.0000000000000000000, 1.000000000000000000 ) ) ;
#465 = DIRECTION ( 'NONE',  ( -0.0000000000000000000, 1.000000000000000000, -0.0000000000000000000 ) ) ;
#466 = CARTESIAN_POINT ( 'NONE',  ( 0.0000000000000000000, 7.897290548965059100, 0.0000000000000000000 ) ) ;
#467 = CARTESIAN_POINT ( 'NONE',  ( 0.0000000000000000000, 6.061405157418935400, 0.0000000000000000000 ) ) ;
#468 = CARTESIAN_POINT ( 'NONE',  ( 0.0000000000000000000, 10.49999999999999800, 3.750000000000000400 ) ) ;
#469 = CARTESIAN_POINT ( 'NONE',  ( 0.0000000000000000000, -3.000000000000000000, 2.500000000000000000 ) ) ;
#470 = DIRECTION ( 'NONE',  ( -0.0000000000000000000, -1.000000000000000000, -0.0000000000000000000 ) ) ;
#471 = CARTESIAN_POINT ( 'NONE',  ( 0.0000000000000000000, 0.0000000000000000000, 2.500000000000000000 ) ) ;
#472 = DIRECTION ( 'NONE',  ( 0.0000000000000000000, 0.0000000000000000000, 1.000000000000000000 ) ) ;
#473 = DIRECTION ( 'NONE',  ( -0.0000000000000000000, -1.000000000000000000, -0.0000000000000000000 ) ) ;
#474 = DIRECTION ( 'NONE',  ( -0.0000000000000000000, -1.000000000000000000, -0.0000000000000000000 ) ) ;
#475 = DIRECTION ( 'NONE',  ( 0.0000000000000000000, 0.0000000000000000000, 1.000000000000000000 ) ) ;
#476 = CARTESIAN_POINT ( 'NONE',  ( 5.204748896376250700E-016, 3.000000000000000000, 4.250000000000000000 ) ) ;
#477 = CARTESIAN_POINT ( 'NONE',  ( 0.0000000000000000000, 3.000000000000000000, 0.0000000000000000000 ) ) ;
#478 = CARTESIAN_POINT ( 'NONE',  ( 0.0000000000000000000, 0.0000000000000000000, -2.500000000000000000 ) ) ;
#479 = DIRECTION ( 'NONE',  ( -0.0000000000000000000, -1.000000000000000000, -0.0000000000000000000 ) ) ;
#480 = DIRECTION ( 'NONE',  ( 0.0000000000000000000, -1.000000000000000000, 0.0000000000000000000 ) ) ;
#481 = CARTESIAN_POINT ( 'NONE',  ( 0.0000000000000000000, 10.49999999999999800, 0.0000000000000000000 ) ) ;
#482 = DIRECTION ( 'NONE',  ( 0.0000000000000000000, 0.0000000000000000000, 1.000000000000000000 ) ) ;
#483 = FILL_AREA_STYLE_COLOUR ( '', #756 ) ;
#484 = DIRECTION ( 'NONE',  ( 0.0000000000000000000, 0.0000000000000000000, -1.000000000000000000 ) ) ;
#485 = DIRECTION ( 'NONE',  ( -0.0000000000000000000, -1.000000000000000000, -0.0000000000000000000 ) ) ;
#486 = DIRECTION ( 'NONE',  ( 0.0000000000000000000, 0.0000000000000000000, 1.000000000000000000 ) ) ;
#487 = CARTESIAN_POINT ( 'NONE',  ( 0.0000000000000000000, 8.356261896851590300, 0.0000000000000000000 ) ) ;
#488 = CARTESIAN_POINT ( 'NONE',  ( 0.0000000000000000000, 4.938594842581064600, 0.0000000000000000000 ) ) ;
#489 = DIRECTION ( 'NONE',  ( -1.000000000000000000, 0.0000000000000000000, 0.0000000000000000000 ) ) ;
#490 = DIRECTION ( 'NONE',  ( 0.0000000000000000000, 1.000000000000000000, 0.0000000000000000000 ) ) ;
#491 = DIRECTION ( 'NONE',  ( 0.0000000000000000000, 0.0000000000000000000, -1.000000000000000000 ) ) ;
#492 = CARTESIAN_POINT ( 'NONE',  ( 0.0000000000000000000, 3.102709451034941300, 0.0000000000000000000 ) ) ;
#493 = CARTESIAN_POINT ( 'NONE',  ( 0.0000000000000000000, 0.5000000000000000000, 0.0000000000000000000 ) ) ;
#494 = DIRECTION ( 'NONE',  ( -0.0000000000000000000, -1.000000000000000000, -0.0000000000000000000 ) ) ;
#495 = DIRECTION ( 'NONE',  ( 0.0000000000000000000, -0.0000000000000000000, -1.000000000000000000 ) ) ;
#496 = DIRECTION ( 'NONE',  ( -0.0000000000000000000, -1.000000000000000000, -0.0000000000000000000 ) ) ;
#497 = DIRECTION ( 'NONE',  ( -0.0000000000000000000, -1.000000000000000000, -0.0000000000000000000 ) ) ;
#498 = DIRECTION ( 'NONE',  ( -1.000000000000000000, 0.0000000000000000000, 0.0000000000000000000 ) ) ;
#499 = DIRECTION ( 'NONE',  ( 0.0000000000000000000, 0.0000000000000000000, 1.000000000000000000 ) ) ;
#500 = CARTESIAN_POINT ( 'NONE',  ( 0.0000000000000000000, 2.643738103148410600, -3.750000000000000400 ) ) ;
#501 = DIRECTION ( 'NONE',  ( 0.0000000000000000000, 0.0000000000000000000, 1.000000000000000000 ) ) ;
#502 = DIRECTION ( 'NONE',  ( 0.0000000000000000000, 1.000000000000000000, 0.0000000000000000000 ) ) ;
#503 = DIRECTION ( 'NONE',  ( 0.0000000000000000000, 0.0000000000000000000, 1.000000000000000000 ) ) ;
#504 = DIRECTION ( 'NONE',  ( 0.0000000000000000000, 1.000000000000000000, 0.0000000000000000000 ) ) ;
#505 = DIRECTION ( 'NONE',  ( 0.0000000000000000000, 1.000000000000000000, 0.0000000000000000000 ) ) ;
#506 = CARTESIAN_POINT ( 'NONE',  ( 0.0000000000000000000, -3.000000000000000000, 2.500000000000000000 ) ) ;
#507 = DIRECTION ( 'NONE',  ( 0.0000000000000000000, 0.0000000000000000000, 1.000000000000000000 ) ) ;
#508 = DIRECTION ( 'NONE',  ( 1.224646799147352500E-016, 0.0000000000000000000, -1.000000000000000000 ) ) ;
#509 = DIRECTION ( 'NONE',  ( -0.0000000000000000000, 1.000000000000000000, -0.0000000000000000000 ) ) ;
#510 = CARTESIAN_POINT ( 'NONE',  ( 4.592425496802575000E-016, 10.49999999999999800, -3.750000000000000400 ) ) ;
#511 = DIRECTION ( 'NONE',  ( 1.000000000000000000, -0.0000000000000000000, 1.224646799147353200E-016 ) ) ;
#512 = CARTESIAN_POINT ( 'NONE',  ( 0.0000000000000000000, -3.000000000000000000, 2.805000000000000200 ) ) ;
#513 = CARTESIAN_POINT ( 'NONE',  ( 3.735172737399426400E-017, -3.000000000000000000, -2.805000000000000200 ) ) ;
#514 = CARTESIAN_POINT ( 'NONE',  ( 0.0000000000000000000, 10.49999999999999800, 0.0000000000000000000 ) ) ;
#515 = DIRECTION ( 'NONE',  ( 0.0000000000000000000, 0.0000000000000000000, 1.000000000000000000 ) ) ;
#516 = CARTESIAN_POINT ( 'NONE',  ( 0.0000000000000000000, 0.0000000000000000000, -2.500000000000000000 ) ) ;
#517 = DIRECTION ( 'NONE',  ( -0.0000000000000000000, -1.000000000000000000, -0.0000000000000000000 ) ) ;
#518 = DIRECTION ( 'NONE',  ( 0.0000000000000000000, 0.0000000000000000000, 1.000000000000000000 ) ) ;
#519 = DIRECTION ( 'NONE',  ( 0.0000000000000000000, 0.0000000000000000000, 1.000000000000000000 ) ) ;
#520 = CARTESIAN_POINT ( 'NONE',  ( 0.0000000000000000000, 0.0000000000000000000, 0.0000000000000000000 ) ) ;
#521 = DIRECTION ( 'NONE',  ( -0.0000000000000000000, -1.000000000000000000, -0.0000000000000000000 ) ) ;
#522 = DIRECTION ( 'NONE',  ( 0.0000000000000000000, 0.0000000000000000000, 1.000000000000000000 ) ) ;
#523 = DIRECTION ( 'NONE',  ( 0.0000000000000000000, 1.000000000000000000, 0.0000000000000000000 ) ) ;
#524 = DIRECTION ( 'NONE',  ( 0.0000000000000000000, -1.000000000000000000, 0.0000000000000000000 ) ) ;
#525 = DIRECTION ( 'NONE',  ( 0.0000000000000000000, 0.0000000000000000000, 1.000000000000000000 ) ) ;
#526 = CARTESIAN_POINT ( 'NONE',  ( 0.0000000000000000000, 3.000000000000000000, -4.250000000000000000 ) ) ;
#527 = DIRECTION ( 'NONE',  ( -0.0000000000000000000, -1.000000000000000000, -0.0000000000000000000 ) ) ;
#528 = DIRECTION ( 'NONE',  ( 0.0000000000000000000, 0.0000000000000000000, 1.000000000000000000 ) ) ;
#529 = DIRECTION ( 'NONE',  ( -0.0000000000000000000, -1.000000000000000000, -0.0000000000000000000 ) ) ;
#530 = CARTESIAN_POINT ( 'NONE',  ( 4.592425496802575000E-016, 0.5000000000000000000, -3.750000000000000400 ) ) ;
#531 = DIRECTION ( 'NONE',  ( 1.000000000000000000, -0.0000000000000000000, 1.224646799147353200E-016 ) ) ;
#532 = CARTESIAN_POINT ( 'NONE',  ( 4.592425496802575000E-016, 8.356261896851590300, 3.750000000000000400 ) ) ;
#533 = DIRECTION ( 'NONE',  ( 0.0000000000000000000, 0.0000000000000000000, 1.000000000000000000 ) ) ;
#534 = CARTESIAN_POINT ( 'NONE',  ( 0.0000000000000000000, -3.000000000000000000, -2.194999999999999800 ) ) ;
#535 = DIRECTION ( 'NONE',  ( 1.224646799147352500E-016, 0.0000000000000000000, -1.000000000000000000 ) ) ;
#536 = CARTESIAN_POINT ( 'NONE',  ( 0.0000000000000000000, 3.102709451034941300, 0.0000000000000000000 ) ) ;
#537 = DIRECTION ( 'NONE',  ( 0.0000000000000000000, 0.0000000000000000000, 1.000000000000000000 ) ) ;
#538 = CARTESIAN_POINT ( 'NONE',  ( 0.0000000000000000000, 10.49999999999999800, 0.0000000000000000000 ) ) ;
#539 = DIRECTION ( 'NONE',  ( -0.0000000000000000000, -1.000000000000000000, -0.0000000000000000000 ) ) ;
#540 = DIRECTION ( 'NONE',  ( -0.0000000000000000000, 1.000000000000000000, -0.0000000000000000000 ) ) ;
#541 = VERTEX_POINT ( 'NONE', #297 ) ;
#542 = ORIENTED_EDGE ( 'NONE', *, *, #626, .F. ) ;
#543 = CLOSED_SHELL ( 'NONE', ( #657, #664, #663, #658, #660, #659, #662, #661, #665, #666, #652, #668, #656, #655, #654, #653, #669, #670, #671, #667, #650, #651, #647, #649, #648, #646 ) ) ;
#544 = ORIENTED_EDGE ( 'NONE', *, *, #610, .F. ) ;
#545 = VERTEX_POINT ( 'NONE', #302 ) ;
#546 = ORIENTED_EDGE ( 'NONE', *, *, #626, .T. ) ;
#547 = ORIENTED_EDGE ( 'NONE', *, *, #599, .T. ) ;
#548 = ORIENTED_EDGE ( 'NONE', *, *, #587, .T. ) ;
#549 = VERTEX_POINT ( 'NONE', #320 ) ;
#550 = VERTEX_POINT ( 'NONE', #321 ) ;
#551 = ORIENTED_EDGE ( 'NONE', *, *, #619, .T. ) ;
#552 = ORIENTED_EDGE ( 'NONE', *, *, #597, .T. ) ;
#553 = ORIENTED_EDGE ( 'NONE', *, *, #625, .T. ) ;
#554 = VERTEX_POINT ( 'NONE', #343 ) ;
#555 = ORIENTED_EDGE ( 'NONE', *, *, #627, .T. ) ;
#556 = VERTEX_POINT ( 'NONE', #339 ) ;
#557 = ORIENTED_EDGE ( 'NONE', *, *, #606, .T. ) ;
#558 = ORIENTED_EDGE ( 'NONE', *, *, #615, .T. ) ;
#559 = VERTEX_POINT ( 'NONE', #300 ) ;
#560 = ORIENTED_EDGE ( 'NONE', *, *, #616, .F. ) ;
#561 = ORIENTED_EDGE ( 'NONE', *, *, #631, .T. ) ;
#562 = VERTEX_POINT ( 'NONE', #316 ) ;
#563 = ORIENTED_EDGE ( 'NONE', *, *, #611, .T. ) ;
#564 = VERTEX_POINT ( 'NONE', #307 ) ;
#565 = VERTEX_POINT ( 'NONE', #335 ) ;
#566 = VERTEX_POINT ( 'NONE', #311 ) ;
#567 = VERTEX_POINT ( 'NONE', #308 ) ;
#568 = AXIS2_PLACEMENT_3D ( 'NONE', #468, #498, #537 ) ;
#569 = AXIS2_PLACEMENT_3D ( 'NONE', #295, #327, #331 ) ;
#570 = AXIS2_PLACEMENT_3D ( 'NONE', #342, #328, #337 ) ;
#571 = AXIS2_PLACEMENT_3D ( 'NONE', #291, #325, #329 ) ;
#572 = AXIS2_PLACEMENT_3D ( 'NONE', #293, #346, #298 ) ;
#573 = AXIS2_PLACEMENT_3D ( 'NONE', #313, #318, #277 ) ;
#574 = AXIS2_PLACEMENT_3D ( 'NONE', #330, #289, #332 ) ;
#575 = AXIS2_PLACEMENT_3D ( 'NONE', #303, #317, #304 ) ;
#576 = AXIS2_PLACEMENT_3D ( 'NONE', #285, #301, #279 ) ;
#577 = AXIS2_PLACEMENT_3D ( 'NONE', #280, #283, #282 ) ;
#578 =( GEOMETRIC_REPRESENTATION_CONTEXT ( 3 ) GLOBAL_UNCERTAINTY_ASSIGNED_CONTEXT ( ( #3 ) ) GLOBAL_UNIT_ASSIGNED_CONTEXT ( ( #286, #324, #326 ) ) REPRESENTATION_CONTEXT ( 'NONE', 'WORKASPACE' ) );
#579 = MECHANICAL_DESIGN_GEOMETRIC_PRESENTATION_REPRESENTATION (  '', ( #581 ), #578 ) ;
#580 = PRESENTATION_LAYER_ASSIGNMENT (  '', '', ( #581 ) ) ;
#581 = STYLED_ITEM ( 'NONE', ( #2 ), #4 ) ;
#582 = EDGE_CURVE ( 'NONE', #6, #21, #675, .T. ) ;
#583 = EDGE_CURVE ( 'NONE', #6, #22, #674, .T. ) ;
#584 = EDGE_CURVE ( 'NONE', #565, #9, #672, .T. ) ;
#585 = EDGE_CURVE ( 'NONE', #20, #74, #679, .T. ) ;
#586 = EDGE_CURVE ( 'NONE', #549, #566, #673, .T. ) ;
#587 = EDGE_CURVE ( 'NONE', #58, #38, #676, .T. ) ;
#588 = EDGE_CURVE ( 'NONE', #22, #42, #677, .T. ) ;
#589 = EDGE_CURVE ( 'NONE', #41, #6, #682, .T. ) ;
#590 = EDGE_CURVE ( 'NONE', #16, #22, #681, .T. ) ;
#591 = EDGE_CURVE ( 'NONE', #562, #32, #684, .T. ) ;
#592 = EDGE_CURVE ( 'NONE', #12, #21, #685, .T. ) ;
#593 = EDGE_CURVE ( 'NONE', #20, #42, #686, .T. ) ;
#594 = EDGE_CURVE ( 'NONE', #32, #40, #688, .T. ) ;
#595 = EDGE_CURVE ( 'NONE', #541, #565, #690, .T. ) ;
#596 = EDGE_CURVE ( 'NONE', #22, #6, #689, .T. ) ;
#597 = EDGE_CURVE ( 'NONE', #40, #32, #692, .T. ) ;
#598 = EDGE_CURVE ( 'NONE', #71, #58, #691, .T. ) ;
#599 = EDGE_CURVE ( 'NONE', #42, #21, #693, .T. ) ;
#600 = EDGE_CURVE ( 'NONE', #12, #20, #695, .T. ) ;
#601 = EDGE_CURVE ( 'NONE', #12, #31, #696, .T. ) ;
#602 = EDGE_CURVE ( 'NONE', #41, #16, #694, .T. ) ;
#603 = EDGE_CURVE ( 'NONE', #556, #71, #698, .T. ) ;
#604 = EDGE_CURVE ( 'NONE', #556, #38, #697, .T. ) ;
#605 = EDGE_CURVE ( 'NONE', #40, #16, #699, .T. ) ;
#606 = EDGE_CURVE ( 'NONE', #554, #545, #700, .T. ) ;
#607 = EDGE_CURVE ( 'NONE', #562, #541, #701, .T. ) ;
#608 = EDGE_CURVE ( 'NONE', #562, #9, #704, .T. ) ;
#609 = EDGE_CURVE ( 'NONE', #564, #559, #702, .T. ) ;
#610 = EDGE_CURVE ( 'NONE', #567, #550, #705, .T. ) ;
#611 = EDGE_CURVE ( 'NONE', #549, #564, #706, .T. ) ;
#612 = EDGE_CURVE ( 'NONE', #566, #559, #708, .T. ) ;
#613 = EDGE_CURVE ( 'NONE', #550, #545, #711, .T. ) ;
#614 = EDGE_CURVE ( 'NONE', #20, #12, #712, .T. ) ;
#615 = EDGE_CURVE ( 'NONE', #74, #58, #713, .T. ) ;
#616 = EDGE_CURVE ( 'NONE', #31, #38, #714, .T. ) ;
#617 = EDGE_CURVE ( 'NONE', #559, #566, #710, .T. ) ;
#618 = EDGE_CURVE ( 'NONE', #71, #556, #718, .T. ) ;
#619 = EDGE_CURVE ( 'NONE', #545, #550, #719, .T. ) ;
#620 = EDGE_CURVE ( 'NONE', #74, #31, #720, .T. ) ;
#621 = EDGE_CURVE ( 'NONE', #38, #58, #721, .T. ) ;
#622 = EDGE_CURVE ( 'NONE', #541, #562, #722, .T. ) ;
#623 = EDGE_CURVE ( 'NONE', #9, #565, #723, .T. ) ;
#624 = EDGE_CURVE ( 'NONE', #21, #42, #724, .T. ) ;
#625 = EDGE_CURVE ( 'NONE', #564, #549, #725, .T. ) ;
#626 = EDGE_CURVE ( 'NONE', #554, #567, #726, .T. ) ;
#627 = EDGE_CURVE ( 'NONE', #31, #74, #716, .T. ) ;
#628 = EDGE_CURVE ( 'NONE', #16, #41, #728, .T. ) ;
#629 = EDGE_CURVE ( 'NONE', #32, #41, #729, .T. ) ;
#630 = EDGE_CURVE ( 'NONE', #541, #40, #727, .T. ) ;
#631 = EDGE_CURVE ( 'NONE', #567, #554, #731, .T. ) ;
#632 = ORIENTED_EDGE ( 'NONE', *, *, #597, .F. ) ;
#633 = ORIENTED_EDGE ( 'NONE', *, *, #627, .F. ) ;
#634 = ORIENTED_EDGE ( 'NONE', *, *, #605, .T. ) ;
#635 = ORIENTED_EDGE ( 'NONE', *, *, #628, .T. ) ;
#636 = ORIENTED_EDGE ( 'NONE', *, *, #601, .F. ) ;
#637 = ORIENTED_EDGE ( 'NONE', *, *, #585, .T. ) ;
#638 = ORIENTED_EDGE ( 'NONE', *, *, #589, .T. ) ;
#639 = ORIENTED_EDGE ( 'NONE', *, *, #606, .F. ) ;
#640 = ORIENTED_EDGE ( 'NONE', *, *, #588, .T. ) ;
#641 = ORIENTED_EDGE ( 'NONE', *, *, #596, .F. ) ;
#642 = ORIENTED_EDGE ( 'NONE', *, *, #602, .F. ) ;
#643 = ORIENTED_EDGE ( 'NONE', *, *, #583, .T. ) ;
#644 = ORIENTED_EDGE ( 'NONE', *, *, #613, .T. ) ;
#645 = ORIENTED_EDGE ( 'NONE', *, *, #586, .T. ) ;
#646 = ADVANCED_FACE ( 'NONE', ( #734 ), #421, .T. ) ;
#647 = ADVANCED_FACE ( 'NONE', ( #736 ), #744, .T. ) ;
#648 = ADVANCED_FACE ( 'NONE', ( #741 ), #749, .T. ) ;
#649 = ADVANCED_FACE ( 'NONE', ( #746 ), #381, .T. ) ;
#650 = ADVANCED_FACE ( 'NONE', ( #750 ), #753, .T. ) ;
#651 = ADVANCED_FACE ( 'NONE', ( #755 ), #754, .T. ) ;
#652 = ADVANCED_FACE ( 'NONE', ( #757 ), #759, .T. ) ;
#653 = ADVANCED_FACE ( 'NONE', ( #752 ), #373, .T. ) ;
#654 = ADVANCED_FACE ( 'NONE', ( #760 ), #765, .T. ) ;
#655 = ADVANCED_FACE ( 'NONE', ( #762 ), #767, .T. ) ;
#656 = ADVANCED_FACE ( 'NONE', ( #764 ), #769, .T. ) ;
#657 = ADVANCED_FACE ( 'NONE', ( #766 ), #774, .T. ) ;
#658 = ADVANCED_FACE ( 'NONE', ( #771 ), #770, .T. ) ;
#659 = ADVANCED_FACE ( 'NONE', ( #776 ), #775, .T. ) ;
#660 = ADVANCED_FACE ( 'NONE', ( #778 ), #777, .T. ) ;
#661 = ADVANCED_FACE ( 'NONE', ( #780 ), #779, .F. ) ;
#662 = ADVANCED_FACE ( 'NONE', ( #782 ), #781, .F. ) ;
#663 = ADVANCED_FACE ( 'NONE', ( #784 ), #783, .T. ) ;
#664 = ADVANCED_FACE ( 'NONE', ( #786 ), #790, .T. ) ;
#665 = ADVANCED_FACE ( 'NONE', ( #788 ), #792, .T. ) ;
#666 = ADVANCED_FACE ( 'NONE', ( #789 ), #794, .T. ) ;
#667 = ADVANCED_FACE ( 'NONE', ( #791 ), #787, .T. ) ;
#668 = ADVANCED_FACE ( 'NONE', ( #796, #793, #797 ), #127, .F. ) ;
#669 = ADVANCED_FACE ( 'NONE', ( #795 ), #798, .F. ) ;
#670 = ADVANCED_FACE ( 'NONE', ( #800 ), #799, .F. ) ;
#671 = ADVANCED_FACE ( 'NONE', ( #802 ), #801, .T. ) ;
#672 = CIRCLE ( 'NONE', #576, 3.750000000000000400 ) ;
#673 = LINE ( 'NONE', #278, #680 ) ;
#674 = CIRCLE ( 'NONE', #577, 2.741782509162431500 ) ;
#675 = LINE ( 'NONE', #281, #678 ) ;
#676 = CIRCLE ( 'NONE', #574, 4.250000000000000000 ) ;
#677 = LINE ( 'NONE', #333, #683 ) ;
#678 = VECTOR ( 'NONE', #340, 1000.000000000000000 ) ;
#679 = CIRCLE ( 'NONE', #575, 0.5000000000000000000 ) ;
#680 = VECTOR ( 'NONE', #288, 1000.000000000000000 ) ;
#681 = CIRCLE ( 'NONE', #572, 2.000000000000000000 ) ;
#682 = CIRCLE ( 'NONE', #573, 2.000000000000000000 ) ;
#683 = VECTOR ( 'NONE', #305, 1000.000000000000000 ) ;
#684 = LINE ( 'NONE', #290, #687 ) ;
#685 = CIRCLE ( 'NONE', #571, 2.000000000000000000 ) ;
#686 = CIRCLE ( 'NONE', #570, 2.000000000000000000 ) ;
#687 = VECTOR ( 'NONE', #292, 1000.000000000000000 ) ;
#688 = CIRCLE ( 'NONE', #569, 4.250000000000000000 ) ;
#689 = CIRCLE ( 'NONE', #238, 2.741782509162431500 ) ;
#690 = CIRCLE ( 'NONE', #568, 0.5000000000000000000 ) ;
#691 = CIRCLE ( 'NONE', #208, 0.5000000000000000000 ) ;
#692 = CIRCLE ( 'NONE', #187, 4.250000000000000000 ) ;
#693 = CIRCLE ( 'NONE', #242, 2.741782509162431500 ) ;
#694 = CIRCLE ( 'NONE', #186, 3.948356501832486200 ) ;
#695 = CIRCLE ( 'NONE', #262, 3.948356501832486200 ) ;
#696 = CIRCLE ( 'NONE', #237, 0.5000000000000000000 ) ;
#697 = CIRCLE ( 'NONE', #236, 0.5000000000000000000 ) ;
#698 = CIRCLE ( 'NONE', #276, 3.750000000000000400 ) ;
#699 = CIRCLE ( 'NONE', #223, 0.5000000000000000000 ) ;
#700 = LINE ( 'NONE', #534, #703 ) ;
#701 = CIRCLE ( 'NONE', #218, 4.250000000000000000 ) ;
#702 = LINE ( 'NONE', #512, #707 ) ;
#703 = VECTOR ( 'NONE', #540, 1000.000000000000000 ) ;
#704 = CIRCLE ( 'NONE', #268, 0.5000000000000000000 ) ;
#705 = LINE ( 'NONE', #513, #709 ) ;
#706 = CIRCLE ( 'NONE', #270, 0.3050000000000001600 ) ;
#707 = VECTOR ( 'NONE', #353, 1000.000000000000000 ) ;
#708 = CIRCLE ( 'NONE', #264, 0.3050000000000001600 ) ;
#709 = VECTOR ( 'NONE', #509, 1000.000000000000000 ) ;
#710 = CIRCLE ( 'NONE', #271, 0.3050000000000001600 ) ;
#711 = CIRCLE ( 'NONE', #275, 0.3050000000000001600 ) ;
#712 = CIRCLE ( 'NONE', #227, 3.948356501832486200 ) ;
#713 = LINE ( 'NONE', #476, #715 ) ;
#714 = LINE ( 'NONE', #526, #717 ) ;
#715 = VECTOR ( 'NONE', #479, 1000.000000000000000 ) ;
#716 = CIRCLE ( 'NONE', #226, 4.250000000000000000 ) ;
#717 = VECTOR ( 'NONE', #457, 1000.000000000000000 ) ;
#718 = CIRCLE ( 'NONE', #198, 3.750000000000000400 ) ;
#719 = CIRCLE ( 'NONE', #192, 0.3050000000000001600 ) ;
#720 = CIRCLE ( 'NONE', #230, 4.250000000000000000 ) ;
#721 = CIRCLE ( 'NONE', #219, 4.250000000000000000 ) ;
#722 = CIRCLE ( 'NONE', #265, 4.250000000000000000 ) ;
#723 = CIRCLE ( 'NONE', #232, 3.750000000000000400 ) ;
#724 = CIRCLE ( 'NONE', #184, 2.741782509162431500 ) ;
#725 = CIRCLE ( 'NONE', #217, 0.3050000000000001600 ) ;
#726 = CIRCLE ( 'NONE', #207, 0.3050000000000001600 ) ;
#727 = LINE ( 'NONE', #427, #732 ) ;
#728 = CIRCLE ( 'NONE', #209, 3.948356501832486200 ) ;
#729 = CIRCLE ( 'NONE', #200, 0.5000000000000000000 ) ;
#730 = SURFACE_STYLE_FILL_AREA ( #415 ) ;
#731 = CIRCLE ( 'NONE', #211, 0.3050000000000001600 ) ;
#732 = VECTOR ( 'NONE', #432, 1000.000000000000000 ) ;
#733 = COLOUR_RGB ( '',1.000000000000000000, 1.000000000000000000, 1.000000000000000000 ) ;
#734 = FACE_OUTER_BOUND ( 'NONE', #51, .T. ) ;
#735 = PRESENTATION_STYLE_ASSIGNMENT (( #413 ) ) ;
#736 = FACE_OUTER_BOUND ( 'NONE', #75, .T. ) ;
#737 = PRESENTATION_STYLE_ASSIGNMENT (( #400 ) ) ;
#738 = SURFACE_STYLE_FILL_AREA ( #402 ) ;
#739 = COLOUR_RGB ( '',1.000000000000000000, 1.000000000000000000, 1.000000000000000000 ) ;
#740 = COLOUR_RGB ( '',1.000000000000000000, 1.000000000000000000, 1.000000000000000000 ) ;
#741 = FACE_OUTER_BOUND ( 'NONE', #5, .T. ) ;
#742 = PRESENTATION_STYLE_ASSIGNMENT (( #389 ) ) ;
#743 = SURFACE_STYLE_FILL_AREA ( #391 ) ;
#744 = CYLINDRICAL_SURFACE ( 'NONE', #228, 0.3050000000000001600 ) ;
#745 = COLOUR_RGB ( '',1.000000000000000000, 1.000000000000000000, 1.000000000000000000 ) ;
#746 = FACE_OUTER_BOUND ( 'NONE', #33, .T. ) ;
#747 = PRESENTATION_STYLE_ASSIGNMENT (( #377 ) ) ;
#748 = SURFACE_STYLE_FILL_AREA ( #379 ) ;
#749 = CYLINDRICAL_SURFACE ( 'NONE', #185, 0.3050000000000001600 ) ;
#750 = FACE_OUTER_BOUND ( 'NONE', #43, .T. ) ;
#751 = PRESENTATION_STYLE_ASSIGNMENT (( #369 ) ) ;
#752 = FACE_OUTER_BOUND ( 'NONE', #56, .T. ) ;
#753 = TOROIDAL_SURFACE ( 'NONE', #259, 3.750000000000000400, 0.5000000000000000000 ) ;
#754 = TOROIDAL_SURFACE ( 'NONE', #197, 3.750000000000000400, 0.5000000000000000000 ) ;
#755 = FACE_OUTER_BOUND ( 'NONE', #7, .T. ) ;
#756 = COLOUR_RGB ( '',0.7529411764705882200, 0.7529411764705882200, 0.7529411764705882200 ) ;
#757 = FACE_OUTER_BOUND ( 'NONE', #34, .T. ) ;
#758 = SURFACE_STYLE_FILL_AREA ( #371 ) ;
#759 = CYLINDRICAL_SURFACE ( 'NONE', #261, 4.250000000000000000 ) ;
#760 = FACE_OUTER_BOUND ( 'NONE', #25, .T. ) ;
#761 = PRESENTATION_STYLE_ASSIGNMENT (( #350 ) ) ;
#762 = FACE_OUTER_BOUND ( 'NONE', #10, .T. ) ;
#763 = COLOUR_RGB ( '',1.000000000000000000, 1.000000000000000000, 1.000000000000000000 ) ;
#764 = FACE_OUTER_BOUND ( 'NONE', #57, .T. ) ;
#765 = CYLINDRICAL_SURFACE ( 'NONE', #214, 4.250000000000000000 ) ;
#766 = FACE_OUTER_BOUND ( 'NONE', #44, .T. ) ;
#767 = CYLINDRICAL_SURFACE ( 'NONE', #246, 2.741782509162431500 ) ;
#768 = SURFACE_STYLE_FILL_AREA ( #352 ) ;
#769 = CYLINDRICAL_SURFACE ( 'NONE', #241, 4.250000000000000000 ) ;
#770 = TOROIDAL_SURFACE ( 'NONE', #245, 3.750000000000000400, 0.5000000000000000000 ) ;
#771 = FACE_OUTER_BOUND ( 'NONE', #37, .T. ) ;
#772 = PRESENTATION_STYLE_ASSIGNMENT (( #143 ) ) ;
#773 = SURFACE_STYLE_FILL_AREA ( #146 ) ;
#774 = CYLINDRICAL_SURFACE ( 'NONE', #239, 0.3050000000000001600 ) ;
#775 = TOROIDAL_SURFACE ( 'NONE', #215, 3.750000000000000400, 0.5000000000000000000 ) ;
#776 = FACE_OUTER_BOUND ( 'NONE', #23, .T. ) ;
#777 = TOROIDAL_SURFACE ( 'NONE', #240, 3.750000000000000400, 0.5000000000000000000 ) ;
#778 = FACE_OUTER_BOUND ( 'NONE', #72, .T. ) ;
#779 = TOROIDAL_SURFACE ( 'NONE', #225, 4.741782509162431000, 2.000000000000000000 ) ;
#780 = FACE_OUTER_BOUND ( 'NONE', #13, .T. ) ;
#781 = TOROIDAL_SURFACE ( 'NONE', #250, 4.741782509162431000, 2.000000000000000000 ) ;
#782 = FACE_OUTER_BOUND ( 'NONE', #35, .T. ) ;
#783 = TOROIDAL_SURFACE ( 'NONE', #249, 3.750000000000000400, 0.5000000000000000000 ) ;
#784 = FACE_OUTER_BOUND ( 'NONE', #66, .T. ) ;
#785 = COLOUR_RGB ( '',1.000000000000000000, 1.000000000000000000, 1.000000000000000000 ) ;
#786 = FACE_OUTER_BOUND ( 'NONE', #29, .T. ) ;
#787 = TOROIDAL_SURFACE ( 'NONE', #244, 3.750000000000000400, 0.5000000000000000000 ) ;
#788 = FACE_OUTER_BOUND ( 'NONE', #62, .T. ) ;
#789 = FACE_OUTER_BOUND ( 'NONE', #48, .T. ) ;
#790 = CYLINDRICAL_SURFACE ( 'NONE', #252, 0.3050000000000001600 ) ;
#791 = FACE_OUTER_BOUND ( 'NONE', #68, .T. ) ;
#792 = CYLINDRICAL_SURFACE ( 'NONE', #235, 4.250000000000000000 ) ;
#793 = FACE_OUTER_BOUND ( 'NONE', #15, .T. ) ;
#794 = CYLINDRICAL_SURFACE ( 'NONE', #253, 2.741782509162431500 ) ;
#795 = FACE_OUTER_BOUND ( 'NONE', #28, .T. ) ;
#796 = FACE_BOUND ( 'NONE', #24, .T. ) ;
#797 = FACE_BOUND ( 'NONE', #11, .T. ) ;
#798 = TOROIDAL_SURFACE ( 'NONE', #256, 4.741782509162431000, 2.000000000000000000 ) ;
#799 = TOROIDAL_SURFACE ( 'NONE', #257, 4.741782509162431000, 2.000000000000000000 ) ;
#800 = FACE_OUTER_BOUND ( 'NONE', #17, .T. ) ;
#801 = TOROIDAL_SURFACE ( 'NONE', #258, 3.750000000000000400, 0.5000000000000000000 ) ;
#802 = FACE_OUTER_BOUND ( 'NONE', #27, .T. ) ;
#803 = COLOUR_RGB ( '',0.7921568627450980000, 0.8196078431372548800, 0.9333333333333333500 ) ;
#804 = SURFACE_STYLE_FILL_AREA ( #111 ) ;
#805 = PRESENTATION_STYLE_ASSIGNMENT (( #109 ) ) ;
#806 = SHAPE_DEFINITION_REPRESENTATION ( #817, #183 ) ;
#807 = PRODUCT ( 'bobina_100uH', 'bobina_100uH', '', ( #103 ) ) ;
#808 = ORIENTED_EDGE ( 'NONE', *, *, #590, .F. ) ;
#809 = ORIENTED_EDGE ( 'NONE', *, *, #624, .F. ) ;
#810 = ORIENTED_EDGE ( 'NONE', *, *, #593, .T. ) ;
#811 = ORIENTED_EDGE ( 'NONE', *, *, #607, .T. ) ;
#812 = ORIENTED_EDGE ( 'NONE', *, *, #584, .F. ) ;
#813 = ORIENTED_EDGE ( 'NONE', *, *, #614, .F. ) ;
#814 = ORIENTED_EDGE ( 'NONE', *, *, #600, .T. ) ;
#815 = ORIENTED_EDGE ( 'NONE', *, *, #592, .F. ) ;
#816 = PRODUCT_DEFINITION_CONTEXT ( 'detailed design', #102, 'design' ) ;
#817 = PRODUCT_DEFINITION_SHAPE ( 'NONE', 'NONE',  #267 ) ;
ENDSEC;
END-ISO-10303-21;
