G04 EAGLE Gerber RS-274X export*
G75*
%MOMM*%
%FSLAX34Y34*%
%LPD*%
%INBottom Copper*%
%IPPOS*%
%AMOC8*
5,1,8,0,0,1.08239X$1,22.5*%
G01*
%ADD10P,1.429621X8X112.500000*%
%ADD11C,1.320800*%
%ADD12P,1.649562X8X202.500000*%
%ADD13P,1.429621X8X292.500000*%
%ADD14C,1.676400*%
%ADD15P,1.429621X8X22.500000*%
%ADD16P,1.429621X8X202.500000*%
%ADD17R,1.508000X1.508000*%
%ADD18C,1.208000*%
%ADD19R,2.400000X2.400000*%
%ADD20P,1.524005X8X247.500000*%
%ADD21C,1.524000*%
%ADD22R,1.500000X1.500000*%
%ADD23C,1.500000*%
%ADD24C,0.756400*%
%ADD25C,0.152400*%
%ADD26C,0.254000*%

G36*
X635019Y30450D02*
X635019Y30450D01*
X635039Y30448D01*
X635140Y30470D01*
X635242Y30487D01*
X635260Y30496D01*
X635280Y30500D01*
X635368Y30553D01*
X635460Y30602D01*
X635474Y30616D01*
X635491Y30627D01*
X635558Y30705D01*
X635629Y30780D01*
X635638Y30798D01*
X635651Y30813D01*
X635690Y30909D01*
X635733Y31003D01*
X635735Y31023D01*
X635743Y31042D01*
X635761Y31208D01*
X635761Y32987D01*
X710114Y32932D01*
X710185Y32944D01*
X710257Y32946D01*
X710306Y32963D01*
X710357Y32972D01*
X710420Y33005D01*
X710488Y33030D01*
X710528Y33063D01*
X710574Y33087D01*
X710624Y33139D01*
X710680Y33184D01*
X710708Y33227D01*
X710744Y33265D01*
X710774Y33330D01*
X710813Y33391D01*
X710826Y33441D01*
X710847Y33488D01*
X710855Y33559D01*
X710873Y33629D01*
X710869Y33681D01*
X710875Y33732D01*
X710859Y33803D01*
X710854Y33874D01*
X710834Y33922D01*
X710823Y33973D01*
X710786Y34035D01*
X710758Y34101D01*
X710713Y34156D01*
X710697Y34184D01*
X710679Y34199D01*
X710653Y34232D01*
X706027Y38858D01*
X702817Y46606D01*
X702817Y54994D01*
X706027Y62742D01*
X711958Y68673D01*
X719706Y71883D01*
X728094Y71883D01*
X735842Y68673D01*
X741773Y62742D01*
X742247Y61599D01*
X742284Y61538D01*
X742314Y61473D01*
X742349Y61434D01*
X742376Y61390D01*
X742432Y61344D01*
X742480Y61291D01*
X742526Y61266D01*
X742566Y61233D01*
X742633Y61207D01*
X742696Y61173D01*
X742747Y61164D01*
X742795Y61145D01*
X742867Y61142D01*
X742938Y61129D01*
X742989Y61137D01*
X743041Y61135D01*
X743110Y61155D01*
X743181Y61165D01*
X743227Y61189D01*
X743277Y61203D01*
X743336Y61244D01*
X743400Y61276D01*
X743437Y61314D01*
X743479Y61343D01*
X743522Y61401D01*
X743572Y61452D01*
X743607Y61515D01*
X743626Y61541D01*
X743633Y61563D01*
X743653Y61599D01*
X744127Y62742D01*
X750058Y68673D01*
X757806Y71883D01*
X766194Y71883D01*
X773942Y68673D01*
X779873Y62742D01*
X780347Y61599D01*
X780384Y61538D01*
X780414Y61473D01*
X780449Y61434D01*
X780476Y61390D01*
X780531Y61344D01*
X780580Y61291D01*
X780626Y61266D01*
X780666Y61233D01*
X780733Y61207D01*
X780796Y61173D01*
X780847Y61164D01*
X780895Y61145D01*
X780967Y61142D01*
X781038Y61129D01*
X781089Y61137D01*
X781141Y61135D01*
X781210Y61155D01*
X781281Y61165D01*
X781327Y61189D01*
X781377Y61203D01*
X781436Y61244D01*
X781500Y61276D01*
X781537Y61314D01*
X781579Y61343D01*
X781622Y61401D01*
X781672Y61452D01*
X781707Y61515D01*
X781726Y61541D01*
X781733Y61563D01*
X781753Y61599D01*
X782227Y62742D01*
X788158Y68673D01*
X795906Y71883D01*
X804294Y71883D01*
X812042Y68673D01*
X817973Y62742D01*
X821183Y54994D01*
X821183Y46606D01*
X817973Y38858D01*
X813272Y34156D01*
X813230Y34098D01*
X813181Y34046D01*
X813159Y33999D01*
X813128Y33956D01*
X813107Y33888D01*
X813077Y33823D01*
X813071Y33771D01*
X813056Y33721D01*
X813058Y33650D01*
X813050Y33579D01*
X813061Y33528D01*
X813062Y33475D01*
X813087Y33408D01*
X813102Y33338D01*
X813128Y33294D01*
X813146Y33244D01*
X813191Y33188D01*
X813228Y33127D01*
X813267Y33093D01*
X813300Y33052D01*
X813360Y33014D01*
X813415Y32967D01*
X813463Y32948D01*
X813507Y32919D01*
X813576Y32902D01*
X813643Y32875D01*
X813714Y32867D01*
X813746Y32859D01*
X813769Y32861D01*
X813809Y32857D01*
X986367Y32731D01*
X986387Y32734D01*
X986407Y32732D01*
X986508Y32754D01*
X986610Y32770D01*
X986628Y32780D01*
X986648Y32784D01*
X986736Y32837D01*
X986828Y32885D01*
X986842Y32900D01*
X986859Y32910D01*
X986926Y32988D01*
X986997Y33063D01*
X987006Y33082D01*
X987019Y33097D01*
X987058Y33193D01*
X987101Y33286D01*
X987103Y33306D01*
X987111Y33325D01*
X987129Y33492D01*
X987129Y43427D01*
X987122Y43474D01*
X987123Y43522D01*
X987102Y43595D01*
X987090Y43670D01*
X987067Y43712D01*
X987053Y43758D01*
X987010Y43820D01*
X986974Y43887D01*
X986940Y43920D01*
X986912Y43960D01*
X986851Y44004D01*
X986796Y44057D01*
X986753Y44077D01*
X986714Y44105D01*
X986642Y44128D01*
X986573Y44160D01*
X986525Y44165D01*
X986480Y44180D01*
X986404Y44179D01*
X986329Y44187D01*
X986282Y44177D01*
X986234Y44176D01*
X986162Y44151D01*
X986088Y44135D01*
X986047Y44110D01*
X986002Y44094D01*
X985942Y44048D01*
X985877Y44009D01*
X985846Y43972D01*
X985808Y43943D01*
X985732Y43839D01*
X985717Y43822D01*
X985715Y43816D01*
X985709Y43808D01*
X985583Y43590D01*
X985110Y43117D01*
X984531Y42782D01*
X983884Y42609D01*
X973073Y42609D01*
X973073Y56388D01*
X973070Y56408D01*
X973072Y56427D01*
X973050Y56529D01*
X973033Y56631D01*
X973024Y56648D01*
X973020Y56668D01*
X972967Y56757D01*
X972918Y56848D01*
X972904Y56862D01*
X972894Y56879D01*
X972815Y56946D01*
X972740Y57017D01*
X972722Y57026D01*
X972707Y57039D01*
X972611Y57077D01*
X972517Y57121D01*
X972497Y57123D01*
X972479Y57131D01*
X972312Y57149D01*
X971549Y57149D01*
X971549Y57912D01*
X971546Y57932D01*
X971548Y57951D01*
X971526Y58053D01*
X971509Y58155D01*
X971500Y58172D01*
X971496Y58192D01*
X971443Y58281D01*
X971394Y58372D01*
X971380Y58386D01*
X971370Y58403D01*
X971291Y58470D01*
X971216Y58541D01*
X971198Y58550D01*
X971183Y58563D01*
X971087Y58602D01*
X970993Y58645D01*
X970973Y58647D01*
X970955Y58655D01*
X970788Y58673D01*
X957009Y58673D01*
X957009Y63500D01*
X957006Y63520D01*
X957008Y63539D01*
X956986Y63641D01*
X956970Y63743D01*
X956960Y63760D01*
X956956Y63780D01*
X956903Y63869D01*
X956854Y63960D01*
X956840Y63974D01*
X956830Y63991D01*
X956751Y64058D01*
X956676Y64130D01*
X956658Y64138D01*
X956643Y64151D01*
X956547Y64190D01*
X956453Y64233D01*
X956433Y64235D01*
X956415Y64243D01*
X956248Y64261D01*
X889315Y64261D01*
X864361Y89215D01*
X864361Y162122D01*
X864347Y162213D01*
X864339Y162303D01*
X864327Y162333D01*
X864322Y162365D01*
X864279Y162446D01*
X864243Y162530D01*
X864217Y162562D01*
X864206Y162583D01*
X864183Y162605D01*
X864166Y162627D01*
X864161Y162634D01*
X864156Y162638D01*
X864138Y162661D01*
X858305Y168494D01*
X858267Y168521D01*
X858236Y168555D01*
X858168Y168593D01*
X858105Y168638D01*
X858061Y168651D01*
X858021Y168674D01*
X857944Y168687D01*
X857870Y168710D01*
X857824Y168709D01*
X857779Y168717D01*
X857702Y168706D01*
X857624Y168704D01*
X857581Y168688D01*
X857535Y168682D01*
X857466Y168646D01*
X857393Y168620D01*
X857357Y168591D01*
X857316Y168570D01*
X857262Y168514D01*
X857201Y168466D01*
X857176Y168427D01*
X857144Y168394D01*
X857078Y168275D01*
X857068Y168259D01*
X857067Y168254D01*
X857063Y168247D01*
X856073Y165858D01*
X850142Y159927D01*
X842394Y156717D01*
X834006Y156717D01*
X826258Y159927D01*
X820327Y165858D01*
X817117Y173606D01*
X817117Y181994D01*
X820327Y189742D01*
X826258Y195673D01*
X834006Y198883D01*
X842394Y198883D01*
X850142Y195673D01*
X856073Y189742D01*
X857063Y187353D01*
X857087Y187313D01*
X857103Y187270D01*
X857151Y187210D01*
X857193Y187143D01*
X857228Y187114D01*
X857257Y187078D01*
X857322Y187036D01*
X857382Y186987D01*
X857425Y186970D01*
X857464Y186945D01*
X857539Y186926D01*
X857612Y186898D01*
X857658Y186897D01*
X857702Y186885D01*
X857780Y186891D01*
X857857Y186888D01*
X857902Y186901D01*
X857947Y186904D01*
X858019Y186935D01*
X858094Y186957D01*
X858131Y186983D01*
X858174Y187001D01*
X858280Y187086D01*
X858296Y187097D01*
X858299Y187101D01*
X858305Y187106D01*
X868304Y197105D01*
X870966Y197105D01*
X871056Y197119D01*
X871147Y197127D01*
X871177Y197139D01*
X871209Y197144D01*
X871289Y197187D01*
X871373Y197223D01*
X871405Y197249D01*
X871426Y197260D01*
X871448Y197283D01*
X871504Y197328D01*
X902015Y227839D01*
X965200Y227839D01*
X965290Y227854D01*
X965381Y227861D01*
X965411Y227873D01*
X965443Y227879D01*
X965523Y227921D01*
X965607Y227957D01*
X965639Y227983D01*
X965660Y227994D01*
X965682Y228017D01*
X965738Y228062D01*
X986906Y249230D01*
X986959Y249304D01*
X987019Y249373D01*
X987031Y249403D01*
X987050Y249429D01*
X987077Y249516D01*
X987111Y249601D01*
X987115Y249642D01*
X987122Y249665D01*
X987121Y249697D01*
X987129Y249768D01*
X987129Y284890D01*
X987118Y284961D01*
X987116Y285033D01*
X987098Y285082D01*
X987090Y285133D01*
X987056Y285197D01*
X987031Y285264D01*
X986999Y285305D01*
X986974Y285351D01*
X986922Y285400D01*
X986878Y285456D01*
X986834Y285484D01*
X986796Y285520D01*
X986731Y285550D01*
X986671Y285589D01*
X986620Y285602D01*
X986573Y285624D01*
X986502Y285631D01*
X986432Y285649D01*
X986380Y285645D01*
X986329Y285651D01*
X986258Y285635D01*
X986187Y285630D01*
X986139Y285609D01*
X986088Y285598D01*
X986027Y285562D01*
X985961Y285534D01*
X985913Y285495D01*
X969904Y285495D01*
X959388Y296011D01*
X959372Y296022D01*
X959360Y296038D01*
X959272Y296094D01*
X959189Y296154D01*
X959170Y296160D01*
X959153Y296171D01*
X959052Y296196D01*
X958953Y296227D01*
X958934Y296226D01*
X958914Y296231D01*
X958811Y296223D01*
X958708Y296220D01*
X958689Y296213D01*
X958669Y296212D01*
X958574Y296172D01*
X958477Y296136D01*
X958461Y296123D01*
X958443Y296116D01*
X958312Y296011D01*
X947796Y285495D01*
X931804Y285495D01*
X920495Y296804D01*
X920495Y312796D01*
X931804Y324105D01*
X947796Y324105D01*
X958312Y313589D01*
X958328Y313578D01*
X958340Y313562D01*
X958428Y313506D01*
X958511Y313446D01*
X958530Y313440D01*
X958547Y313429D01*
X958648Y313404D01*
X958747Y313373D01*
X958766Y313374D01*
X958786Y313369D01*
X958889Y313377D01*
X958992Y313380D01*
X959011Y313387D01*
X959031Y313388D01*
X959126Y313429D01*
X959223Y313464D01*
X959239Y313477D01*
X959257Y313484D01*
X959388Y313589D01*
X969904Y324105D01*
X985914Y324105D01*
X985940Y324080D01*
X985987Y324058D01*
X986029Y324028D01*
X986098Y324007D01*
X986163Y323976D01*
X986215Y323971D01*
X986264Y323955D01*
X986336Y323957D01*
X986407Y323949D01*
X986458Y323960D01*
X986510Y323962D01*
X986578Y323986D01*
X986648Y324002D01*
X986693Y324028D01*
X986741Y324046D01*
X986797Y324091D01*
X986859Y324128D01*
X986893Y324167D01*
X986933Y324200D01*
X986972Y324260D01*
X987019Y324315D01*
X987038Y324363D01*
X987066Y324407D01*
X987084Y324476D01*
X987111Y324543D01*
X987119Y324614D01*
X987127Y324645D01*
X987125Y324669D01*
X987129Y324710D01*
X987129Y325978D01*
X987126Y325998D01*
X987128Y326017D01*
X987106Y326119D01*
X987090Y326221D01*
X987080Y326238D01*
X987076Y326258D01*
X987023Y326347D01*
X986974Y326438D01*
X986960Y326452D01*
X986950Y326469D01*
X986871Y326536D01*
X986796Y326608D01*
X986778Y326616D01*
X986763Y326629D01*
X986667Y326668D01*
X986573Y326711D01*
X986553Y326713D01*
X986535Y326721D01*
X986368Y326739D01*
X902461Y326739D01*
X902461Y328518D01*
X902458Y328538D01*
X902460Y328557D01*
X902438Y328659D01*
X902421Y328761D01*
X902412Y328778D01*
X902408Y328798D01*
X902355Y328887D01*
X902306Y328978D01*
X902292Y328992D01*
X902282Y329009D01*
X902203Y329076D01*
X902128Y329148D01*
X902110Y329156D01*
X902095Y329169D01*
X901999Y329208D01*
X901905Y329251D01*
X901885Y329253D01*
X901867Y329261D01*
X901700Y329279D01*
X517968Y329279D01*
X517872Y329264D01*
X517775Y329254D01*
X517751Y329244D01*
X517725Y329240D01*
X517639Y329194D01*
X517550Y329154D01*
X517531Y329137D01*
X517508Y329124D01*
X517441Y329054D01*
X517369Y328988D01*
X517357Y328965D01*
X517339Y328946D01*
X517298Y328858D01*
X517251Y328772D01*
X517246Y328747D01*
X517235Y328723D01*
X517224Y328626D01*
X517207Y328530D01*
X517211Y328504D01*
X517208Y328479D01*
X517228Y328383D01*
X517243Y328287D01*
X517254Y328264D01*
X517260Y328238D01*
X517310Y328155D01*
X517354Y328068D01*
X517373Y328049D01*
X517386Y328027D01*
X517460Y327964D01*
X517530Y327896D01*
X517558Y327880D01*
X517573Y327867D01*
X517604Y327855D01*
X517677Y327815D01*
X522466Y325831D01*
X528841Y319456D01*
X532291Y311127D01*
X532291Y302113D01*
X528841Y293784D01*
X522466Y287409D01*
X514137Y283959D01*
X505123Y283959D01*
X496794Y287409D01*
X490419Y293784D01*
X486969Y302113D01*
X486969Y311127D01*
X490419Y319456D01*
X496794Y325831D01*
X501583Y327815D01*
X501666Y327866D01*
X501752Y327912D01*
X501770Y327930D01*
X501792Y327944D01*
X501855Y328020D01*
X501921Y328090D01*
X501932Y328114D01*
X501949Y328134D01*
X501984Y328225D01*
X502025Y328313D01*
X502028Y328339D01*
X502037Y328363D01*
X502041Y328461D01*
X502052Y328557D01*
X502047Y328583D01*
X502048Y328609D01*
X502021Y328703D01*
X502000Y328798D01*
X501987Y328820D01*
X501979Y328845D01*
X501924Y328925D01*
X501874Y329009D01*
X501854Y329026D01*
X501839Y329047D01*
X501761Y329106D01*
X501687Y329169D01*
X501663Y329179D01*
X501642Y329194D01*
X501549Y329224D01*
X501459Y329261D01*
X501426Y329264D01*
X501408Y329270D01*
X501375Y329270D01*
X501292Y329279D01*
X10922Y329279D01*
X10902Y329276D01*
X10883Y329278D01*
X10781Y329256D01*
X10679Y329240D01*
X10662Y329230D01*
X10642Y329226D01*
X10553Y329173D01*
X10462Y329124D01*
X10448Y329110D01*
X10431Y329100D01*
X10364Y329021D01*
X10292Y328946D01*
X10284Y328928D01*
X10271Y328913D01*
X10232Y328817D01*
X10189Y328723D01*
X10187Y328703D01*
X10179Y328685D01*
X10161Y328518D01*
X10161Y31664D01*
X10164Y31645D01*
X10162Y31625D01*
X10184Y31524D01*
X10200Y31421D01*
X10210Y31404D01*
X10214Y31385D01*
X10267Y31295D01*
X10316Y31204D01*
X10330Y31190D01*
X10340Y31173D01*
X10419Y31106D01*
X10494Y31035D01*
X10512Y31026D01*
X10527Y31013D01*
X10623Y30975D01*
X10717Y30931D01*
X10736Y30929D01*
X10755Y30921D01*
X10921Y30903D01*
X242850Y30733D01*
X242921Y30745D01*
X242993Y30747D01*
X243042Y30765D01*
X243093Y30773D01*
X243157Y30807D01*
X243224Y30831D01*
X243265Y30864D01*
X243311Y30888D01*
X243360Y30940D01*
X243416Y30985D01*
X243444Y31029D01*
X243480Y31066D01*
X243511Y31131D01*
X243549Y31192D01*
X243562Y31242D01*
X243584Y31289D01*
X243592Y31361D01*
X243610Y31430D01*
X243605Y31482D01*
X243611Y31534D01*
X243596Y31604D01*
X243590Y31676D01*
X243570Y31723D01*
X243559Y31774D01*
X243522Y31836D01*
X243494Y31902D01*
X243450Y31958D01*
X243433Y31985D01*
X243415Y32001D01*
X243389Y32033D01*
X240718Y34704D01*
X240644Y34757D01*
X240575Y34817D01*
X240544Y34829D01*
X240518Y34848D01*
X240431Y34875D01*
X240346Y34909D01*
X240307Y34913D01*
X238645Y36575D01*
X238645Y71667D01*
X238630Y71763D01*
X238620Y71860D01*
X238610Y71884D01*
X238606Y71910D01*
X238560Y71996D01*
X238520Y72085D01*
X238503Y72104D01*
X238490Y72127D01*
X238420Y72194D01*
X238354Y72266D01*
X238331Y72279D01*
X238312Y72297D01*
X238224Y72338D01*
X238138Y72385D01*
X238113Y72389D01*
X238089Y72400D01*
X237992Y72411D01*
X237896Y72428D01*
X237870Y72424D01*
X237845Y72427D01*
X237749Y72407D01*
X237653Y72393D01*
X237630Y72381D01*
X237604Y72375D01*
X237521Y72325D01*
X237434Y72281D01*
X237415Y72262D01*
X237393Y72249D01*
X237330Y72175D01*
X237262Y72105D01*
X237246Y72077D01*
X237233Y72062D01*
X237221Y72031D01*
X237181Y71958D01*
X236697Y70790D01*
X234010Y68103D01*
X230500Y66649D01*
X226700Y66649D01*
X223190Y68103D01*
X220503Y70790D01*
X219049Y74300D01*
X219049Y78100D01*
X220503Y81610D01*
X223190Y84297D01*
X226700Y85751D01*
X230500Y85751D01*
X234010Y84297D01*
X236697Y81610D01*
X237181Y80442D01*
X237232Y80359D01*
X237278Y80273D01*
X237296Y80255D01*
X237310Y80232D01*
X237386Y80170D01*
X237456Y80103D01*
X237480Y80092D01*
X237500Y80076D01*
X237591Y80041D01*
X237679Y80000D01*
X237705Y79997D01*
X237729Y79987D01*
X237827Y79983D01*
X237923Y79973D01*
X237949Y79978D01*
X237975Y79977D01*
X238069Y80004D01*
X238164Y80025D01*
X238186Y80038D01*
X238211Y80046D01*
X238291Y80101D01*
X238375Y80151D01*
X238392Y80171D01*
X238413Y80186D01*
X238472Y80264D01*
X238535Y80338D01*
X238545Y80362D01*
X238560Y80383D01*
X238590Y80476D01*
X238627Y80566D01*
X238630Y80599D01*
X238636Y80617D01*
X238636Y80650D01*
X238645Y80733D01*
X238645Y152517D01*
X238631Y190312D01*
X238628Y190331D01*
X238630Y190349D01*
X238615Y190418D01*
X238609Y190493D01*
X238596Y190523D01*
X238591Y190555D01*
X238581Y190573D01*
X238578Y190589D01*
X238544Y190646D01*
X238513Y190719D01*
X238487Y190751D01*
X238476Y190772D01*
X238459Y190788D01*
X238452Y190801D01*
X238439Y190811D01*
X238408Y190850D01*
X237941Y191317D01*
X236709Y194291D01*
X236709Y197509D01*
X237941Y200483D01*
X240217Y202759D01*
X241517Y203298D01*
X241617Y203360D01*
X241717Y203419D01*
X241721Y203424D01*
X241726Y203427D01*
X241801Y203518D01*
X241877Y203606D01*
X241879Y203612D01*
X241883Y203617D01*
X241925Y203725D01*
X241950Y203786D01*
X241959Y203807D01*
X241960Y203811D01*
X241969Y203834D01*
X241970Y203842D01*
X241971Y203846D01*
X241972Y203865D01*
X241987Y204001D01*
X241987Y208965D01*
X249835Y216813D01*
X303865Y216813D01*
X305736Y214942D01*
X312888Y207790D01*
X312946Y207748D01*
X312998Y207699D01*
X313045Y207677D01*
X313087Y207647D01*
X313156Y207625D01*
X313221Y207595D01*
X313273Y207589D01*
X313323Y207574D01*
X313394Y207576D01*
X313465Y207568D01*
X313516Y207579D01*
X313568Y207581D01*
X313636Y207605D01*
X313706Y207620D01*
X313751Y207647D01*
X313799Y207665D01*
X313855Y207710D01*
X313917Y207747D01*
X313951Y207786D01*
X313991Y207819D01*
X314030Y207879D01*
X314077Y207933D01*
X314096Y207982D01*
X314124Y208026D01*
X314142Y208095D01*
X314169Y208162D01*
X314177Y208233D01*
X314185Y208264D01*
X314183Y208287D01*
X314187Y208328D01*
X314187Y261343D01*
X314168Y261458D01*
X314151Y261574D01*
X314149Y261580D01*
X314148Y261586D01*
X314093Y261688D01*
X314040Y261793D01*
X314035Y261798D01*
X314032Y261803D01*
X313948Y261884D01*
X313864Y261966D01*
X313858Y261969D01*
X313854Y261973D01*
X313837Y261981D01*
X313717Y262046D01*
X313696Y262055D01*
X312055Y263696D01*
X311167Y265840D01*
X311167Y268160D01*
X312055Y270304D01*
X313696Y271945D01*
X315840Y272833D01*
X318160Y272833D01*
X320304Y271945D01*
X321945Y270304D01*
X322833Y268160D01*
X322833Y265840D01*
X321945Y263696D01*
X320304Y262055D01*
X320283Y262046D01*
X320183Y261985D01*
X320083Y261925D01*
X320079Y261920D01*
X320074Y261917D01*
X319999Y261827D01*
X319923Y261738D01*
X319921Y261732D01*
X319917Y261727D01*
X319875Y261619D01*
X319831Y261510D01*
X319830Y261502D01*
X319829Y261498D01*
X319828Y261479D01*
X319813Y261343D01*
X319813Y208116D01*
X319816Y208096D01*
X319814Y208077D01*
X319836Y207975D01*
X319852Y207873D01*
X319862Y207856D01*
X319866Y207836D01*
X319919Y207747D01*
X319968Y207656D01*
X319982Y207642D01*
X319992Y207625D01*
X320071Y207558D01*
X320146Y207486D01*
X320164Y207478D01*
X320179Y207465D01*
X320275Y207426D01*
X320369Y207383D01*
X320389Y207381D01*
X320407Y207373D01*
X320574Y207355D01*
X321585Y207355D01*
X326655Y202285D01*
X326655Y195115D01*
X321585Y190045D01*
X314415Y190045D01*
X309345Y195115D01*
X309345Y202285D01*
X309353Y202293D01*
X309365Y202309D01*
X309380Y202321D01*
X309436Y202408D01*
X309497Y202492D01*
X309502Y202511D01*
X309513Y202528D01*
X309538Y202628D01*
X309569Y202727D01*
X309568Y202747D01*
X309573Y202767D01*
X309565Y202870D01*
X309563Y202973D01*
X309556Y202992D01*
X309554Y203012D01*
X309514Y203107D01*
X309478Y203204D01*
X309466Y203220D01*
X309458Y203238D01*
X309353Y203369D01*
X301758Y210964D01*
X301684Y211017D01*
X301614Y211077D01*
X301584Y211089D01*
X301558Y211108D01*
X301471Y211135D01*
X301386Y211169D01*
X301345Y211173D01*
X301323Y211180D01*
X301291Y211179D01*
X301220Y211187D01*
X252480Y211187D01*
X252390Y211173D01*
X252299Y211165D01*
X252270Y211153D01*
X252238Y211148D01*
X252157Y211105D01*
X252073Y211069D01*
X252041Y211043D01*
X252020Y211032D01*
X251998Y211009D01*
X251942Y210964D01*
X247836Y206858D01*
X247783Y206784D01*
X247723Y206714D01*
X247711Y206684D01*
X247692Y206658D01*
X247665Y206571D01*
X247631Y206486D01*
X247627Y206445D01*
X247620Y206423D01*
X247621Y206391D01*
X247613Y206320D01*
X247613Y204001D01*
X247615Y203986D01*
X247614Y203973D01*
X247628Y203905D01*
X247632Y203886D01*
X247649Y203770D01*
X247651Y203764D01*
X247652Y203758D01*
X247666Y203733D01*
X247666Y203732D01*
X247668Y203730D01*
X247707Y203656D01*
X247760Y203551D01*
X247765Y203546D01*
X247768Y203541D01*
X247852Y203461D01*
X247936Y203378D01*
X247942Y203375D01*
X247946Y203371D01*
X247963Y203364D01*
X248083Y203298D01*
X249383Y202759D01*
X251533Y200609D01*
X251609Y200554D01*
X251681Y200494D01*
X251709Y200483D01*
X251732Y200466D01*
X251822Y200438D01*
X251910Y200404D01*
X251939Y200402D01*
X251967Y200394D01*
X252062Y200396D01*
X252156Y200391D01*
X252184Y200399D01*
X252213Y200400D01*
X252302Y200432D01*
X252393Y200458D01*
X252417Y200474D01*
X252444Y200484D01*
X252518Y200543D01*
X252596Y200596D01*
X252620Y200625D01*
X252636Y200638D01*
X252654Y200666D01*
X252704Y200725D01*
X253135Y201370D01*
X254330Y202565D01*
X255735Y203504D01*
X257297Y204151D01*
X258277Y204346D01*
X258277Y196662D01*
X258280Y196642D01*
X258278Y196623D01*
X258300Y196521D01*
X258317Y196419D01*
X258326Y196402D01*
X258330Y196382D01*
X258383Y196293D01*
X258432Y196202D01*
X258446Y196188D01*
X258456Y196171D01*
X258535Y196104D01*
X258610Y196033D01*
X258628Y196024D01*
X258643Y196011D01*
X258739Y195973D01*
X258833Y195929D01*
X258853Y195927D01*
X258871Y195919D01*
X259038Y195901D01*
X260562Y195901D01*
X260582Y195904D01*
X260601Y195902D01*
X260703Y195924D01*
X260805Y195941D01*
X260822Y195950D01*
X260842Y195954D01*
X260931Y196007D01*
X261022Y196056D01*
X261036Y196070D01*
X261053Y196080D01*
X261120Y196159D01*
X261191Y196234D01*
X261200Y196252D01*
X261213Y196267D01*
X261252Y196363D01*
X261295Y196457D01*
X261297Y196477D01*
X261305Y196495D01*
X261323Y196662D01*
X261323Y204346D01*
X262303Y204151D01*
X263865Y203504D01*
X265270Y202565D01*
X266465Y201370D01*
X266896Y200725D01*
X266961Y200656D01*
X267019Y200582D01*
X267044Y200566D01*
X267064Y200545D01*
X267147Y200500D01*
X267226Y200449D01*
X267255Y200442D01*
X267281Y200428D01*
X267373Y200412D01*
X267465Y200389D01*
X267494Y200391D01*
X267523Y200386D01*
X267616Y200401D01*
X267710Y200408D01*
X267737Y200420D01*
X267766Y200424D01*
X267850Y200468D01*
X267936Y200505D01*
X267965Y200528D01*
X267984Y200538D01*
X268007Y200561D01*
X268067Y200609D01*
X270217Y202759D01*
X273191Y203991D01*
X276409Y203991D01*
X279383Y202759D01*
X281762Y200380D01*
X281778Y200369D01*
X281790Y200353D01*
X281878Y200297D01*
X281961Y200237D01*
X281980Y200231D01*
X281997Y200220D01*
X282098Y200195D01*
X282197Y200164D01*
X282216Y200165D01*
X282236Y200160D01*
X282339Y200168D01*
X282442Y200171D01*
X282461Y200178D01*
X282481Y200179D01*
X282576Y200220D01*
X282673Y200255D01*
X282689Y200268D01*
X282707Y200276D01*
X282838Y200380D01*
X285217Y202759D01*
X288191Y203991D01*
X291409Y203991D01*
X294383Y202759D01*
X296659Y200483D01*
X297891Y197509D01*
X297891Y194291D01*
X296659Y191317D01*
X294383Y189041D01*
X291409Y187809D01*
X288191Y187809D01*
X285217Y189041D01*
X282838Y191420D01*
X282822Y191431D01*
X282810Y191447D01*
X282722Y191503D01*
X282639Y191563D01*
X282620Y191569D01*
X282603Y191580D01*
X282502Y191605D01*
X282403Y191636D01*
X282384Y191635D01*
X282364Y191640D01*
X282261Y191632D01*
X282158Y191629D01*
X282139Y191622D01*
X282119Y191621D01*
X282024Y191580D01*
X281927Y191545D01*
X281911Y191532D01*
X281893Y191524D01*
X281762Y191420D01*
X279383Y189041D01*
X276409Y187809D01*
X273191Y187809D01*
X270217Y189041D01*
X268067Y191191D01*
X267991Y191246D01*
X267919Y191306D01*
X267891Y191317D01*
X267868Y191334D01*
X267778Y191362D01*
X267690Y191396D01*
X267661Y191398D01*
X267633Y191406D01*
X267538Y191404D01*
X267444Y191409D01*
X267416Y191401D01*
X267387Y191400D01*
X267298Y191368D01*
X267207Y191342D01*
X267183Y191326D01*
X267156Y191316D01*
X267082Y191257D01*
X267004Y191204D01*
X266980Y191175D01*
X266964Y191162D01*
X266946Y191134D01*
X266896Y191075D01*
X266465Y190430D01*
X265270Y189235D01*
X263865Y188296D01*
X262303Y187649D01*
X261323Y187454D01*
X261323Y195138D01*
X261320Y195158D01*
X261322Y195177D01*
X261300Y195279D01*
X261283Y195381D01*
X261274Y195398D01*
X261270Y195418D01*
X261217Y195507D01*
X261168Y195598D01*
X261154Y195612D01*
X261144Y195629D01*
X261065Y195696D01*
X260990Y195767D01*
X260972Y195776D01*
X260957Y195789D01*
X260861Y195827D01*
X260767Y195871D01*
X260747Y195873D01*
X260729Y195881D01*
X260562Y195899D01*
X259038Y195899D01*
X259018Y195896D01*
X258999Y195898D01*
X258897Y195876D01*
X258795Y195859D01*
X258778Y195850D01*
X258758Y195846D01*
X258669Y195793D01*
X258578Y195744D01*
X258564Y195730D01*
X258547Y195720D01*
X258480Y195641D01*
X258409Y195566D01*
X258400Y195548D01*
X258387Y195533D01*
X258348Y195437D01*
X258305Y195343D01*
X258303Y195323D01*
X258295Y195305D01*
X258277Y195138D01*
X258277Y187454D01*
X257297Y187649D01*
X255735Y188296D01*
X254330Y189235D01*
X253135Y190430D01*
X252704Y191075D01*
X252639Y191144D01*
X252581Y191218D01*
X252556Y191234D01*
X252536Y191255D01*
X252453Y191300D01*
X252374Y191351D01*
X252345Y191358D01*
X252319Y191372D01*
X252227Y191388D01*
X252135Y191411D01*
X252106Y191409D01*
X252077Y191414D01*
X251984Y191399D01*
X251890Y191392D01*
X251863Y191380D01*
X251834Y191376D01*
X251750Y191332D01*
X251664Y191295D01*
X251635Y191272D01*
X251616Y191262D01*
X251593Y191239D01*
X251533Y191191D01*
X249383Y189041D01*
X246409Y187809D01*
X245019Y187809D01*
X244999Y187806D01*
X244979Y187808D01*
X244878Y187786D01*
X244776Y187770D01*
X244759Y187760D01*
X244739Y187756D01*
X244650Y187703D01*
X244559Y187654D01*
X244545Y187640D01*
X244528Y187630D01*
X244461Y187551D01*
X244389Y187476D01*
X244381Y187458D01*
X244368Y187443D01*
X244329Y187347D01*
X244286Y187253D01*
X244284Y187233D01*
X244276Y187214D01*
X244258Y187048D01*
X244270Y153981D01*
X244271Y153977D01*
X244271Y152511D01*
X244271Y151025D01*
X244271Y151020D01*
X244271Y81496D01*
X244286Y81400D01*
X244296Y81303D01*
X244306Y81279D01*
X244310Y81253D01*
X244356Y81167D01*
X244396Y81078D01*
X244413Y81059D01*
X244426Y81036D01*
X244496Y80969D01*
X244562Y80897D01*
X244585Y80884D01*
X244604Y80866D01*
X244692Y80825D01*
X244778Y80778D01*
X244803Y80774D01*
X244827Y80763D01*
X244924Y80752D01*
X245020Y80735D01*
X245046Y80738D01*
X245071Y80736D01*
X245166Y80756D01*
X245263Y80770D01*
X245286Y80782D01*
X245312Y80788D01*
X245395Y80838D01*
X245482Y80882D01*
X245501Y80901D01*
X245523Y80914D01*
X245586Y80988D01*
X245654Y81057D01*
X245670Y81086D01*
X245683Y81101D01*
X245695Y81132D01*
X245735Y81204D01*
X245903Y81610D01*
X248590Y84297D01*
X252100Y85751D01*
X255900Y85751D01*
X259410Y84297D01*
X262097Y81610D01*
X263551Y78100D01*
X263551Y74300D01*
X262097Y70790D01*
X259410Y68103D01*
X255900Y66649D01*
X252100Y66649D01*
X248590Y68103D01*
X245903Y70790D01*
X245735Y71196D01*
X245684Y71278D01*
X245638Y71364D01*
X245619Y71382D01*
X245606Y71405D01*
X245531Y71467D01*
X245460Y71534D01*
X245436Y71545D01*
X245416Y71561D01*
X245325Y71596D01*
X245237Y71637D01*
X245211Y71640D01*
X245187Y71650D01*
X245089Y71654D01*
X244993Y71664D01*
X244967Y71659D01*
X244941Y71660D01*
X244847Y71633D01*
X244752Y71612D01*
X244730Y71599D01*
X244705Y71592D01*
X244625Y71536D01*
X244541Y71486D01*
X244524Y71466D01*
X244503Y71451D01*
X244445Y71373D01*
X244381Y71299D01*
X244371Y71275D01*
X244356Y71254D01*
X244326Y71161D01*
X244289Y71071D01*
X244286Y71039D01*
X244280Y71020D01*
X244280Y70987D01*
X244271Y70904D01*
X244271Y39422D01*
X244285Y39332D01*
X244293Y39241D01*
X244305Y39212D01*
X244310Y39180D01*
X244353Y39099D01*
X244389Y39015D01*
X244415Y38983D01*
X244426Y38962D01*
X244449Y38940D01*
X244494Y38884D01*
X244595Y38783D01*
X247601Y35777D01*
X247675Y35724D01*
X247744Y35665D01*
X247774Y35652D01*
X247801Y35633D01*
X247888Y35607D01*
X247972Y35573D01*
X248013Y35568D01*
X248036Y35561D01*
X248068Y35562D01*
X248139Y35554D01*
X279401Y35551D01*
X383297Y35551D01*
X383387Y35565D01*
X383478Y35573D01*
X383507Y35585D01*
X383539Y35590D01*
X383620Y35633D01*
X383704Y35669D01*
X383736Y35695D01*
X383757Y35706D01*
X383779Y35729D01*
X383835Y35774D01*
X422026Y73965D01*
X422079Y74039D01*
X422139Y74109D01*
X422151Y74139D01*
X422170Y74165D01*
X422197Y74252D01*
X422231Y74337D01*
X422235Y74378D01*
X422242Y74400D01*
X422241Y74432D01*
X422249Y74503D01*
X422249Y78100D01*
X423703Y81610D01*
X426390Y84297D01*
X429900Y85751D01*
X433700Y85751D01*
X437210Y84297D01*
X439897Y81610D01*
X441351Y78100D01*
X441351Y74300D01*
X439897Y70790D01*
X437210Y68103D01*
X433700Y66649D01*
X429900Y66649D01*
X426390Y68103D01*
X425793Y68700D01*
X425777Y68712D01*
X425765Y68727D01*
X425678Y68783D01*
X425594Y68843D01*
X425575Y68849D01*
X425558Y68860D01*
X425457Y68885D01*
X425358Y68916D01*
X425339Y68915D01*
X425319Y68920D01*
X425216Y68912D01*
X425113Y68909D01*
X425094Y68903D01*
X425074Y68901D01*
X424979Y68861D01*
X424882Y68825D01*
X424866Y68813D01*
X424848Y68805D01*
X424717Y68700D01*
X387943Y31927D01*
X387902Y31869D01*
X387852Y31817D01*
X387830Y31769D01*
X387800Y31727D01*
X387779Y31659D01*
X387749Y31594D01*
X387743Y31542D01*
X387727Y31492D01*
X387729Y31420D01*
X387721Y31349D01*
X387733Y31298D01*
X387734Y31246D01*
X387758Y31179D01*
X387774Y31109D01*
X387800Y31064D01*
X387818Y31015D01*
X387863Y30959D01*
X387900Y30898D01*
X387939Y30864D01*
X387972Y30823D01*
X388032Y30784D01*
X388086Y30738D01*
X388135Y30718D01*
X388179Y30690D01*
X388248Y30672D01*
X388314Y30646D01*
X388386Y30638D01*
X388417Y30630D01*
X388441Y30632D01*
X388481Y30627D01*
X499879Y30546D01*
X499975Y30561D01*
X500073Y30571D01*
X500096Y30581D01*
X500122Y30585D01*
X500208Y30631D01*
X500297Y30671D01*
X500316Y30688D01*
X500339Y30700D01*
X500407Y30771D01*
X500478Y30837D01*
X500491Y30860D01*
X500509Y30878D01*
X500550Y30967D01*
X500597Y31053D01*
X500602Y31078D01*
X500613Y31101D01*
X500623Y31198D01*
X500641Y31295D01*
X500637Y31320D01*
X500640Y31346D01*
X500619Y31441D01*
X500605Y31538D01*
X500593Y31561D01*
X500588Y31586D01*
X500538Y31670D01*
X500493Y31757D01*
X500475Y31775D01*
X500462Y31798D01*
X500388Y31861D01*
X500318Y31929D01*
X500290Y31945D01*
X500275Y31958D01*
X500244Y31970D01*
X500171Y32010D01*
X496794Y33409D01*
X490419Y39784D01*
X486969Y48113D01*
X486969Y57127D01*
X490419Y65456D01*
X496794Y71831D01*
X505123Y75281D01*
X514137Y75281D01*
X522466Y71831D01*
X528841Y65456D01*
X532291Y57127D01*
X532291Y48113D01*
X528841Y39784D01*
X522466Y33409D01*
X519055Y31996D01*
X518972Y31945D01*
X518886Y31900D01*
X518868Y31880D01*
X518846Y31866D01*
X518784Y31792D01*
X518717Y31721D01*
X518706Y31697D01*
X518689Y31677D01*
X518654Y31586D01*
X518613Y31498D01*
X518610Y31472D01*
X518601Y31447D01*
X518597Y31350D01*
X518586Y31254D01*
X518591Y31228D01*
X518590Y31202D01*
X518617Y31108D01*
X518638Y31013D01*
X518652Y30991D01*
X518659Y30965D01*
X518714Y30886D01*
X518764Y30802D01*
X518784Y30785D01*
X518799Y30763D01*
X518877Y30705D01*
X518951Y30642D01*
X518975Y30632D01*
X518996Y30617D01*
X519089Y30586D01*
X519179Y30550D01*
X519212Y30546D01*
X519230Y30540D01*
X519263Y30541D01*
X519346Y30532D01*
X634999Y30447D01*
X635019Y30450D01*
G37*
%LPC*%
G36*
X719706Y131317D02*
X719706Y131317D01*
X711958Y134527D01*
X706027Y140458D01*
X704591Y143924D01*
X704553Y143985D01*
X704524Y144051D01*
X704489Y144089D01*
X704461Y144133D01*
X704406Y144179D01*
X704358Y144232D01*
X704312Y144257D01*
X704272Y144290D01*
X704205Y144316D01*
X704142Y144350D01*
X704091Y144359D01*
X704042Y144378D01*
X703971Y144381D01*
X703900Y144394D01*
X703849Y144386D01*
X703797Y144389D01*
X703728Y144369D01*
X703657Y144358D01*
X703610Y144335D01*
X703560Y144320D01*
X703502Y144279D01*
X703438Y144247D01*
X703401Y144209D01*
X703358Y144180D01*
X703316Y144122D01*
X703265Y144071D01*
X703231Y144008D01*
X703212Y143982D01*
X703204Y143960D01*
X703184Y143924D01*
X702166Y141465D01*
X696735Y136034D01*
X689640Y133095D01*
X681960Y133095D01*
X674865Y136034D01*
X669434Y141465D01*
X668298Y144208D01*
X668274Y144247D01*
X668258Y144290D01*
X668209Y144351D01*
X668168Y144417D01*
X668133Y144447D01*
X668104Y144482D01*
X668039Y144524D01*
X667979Y144574D01*
X667936Y144591D01*
X667897Y144615D01*
X667822Y144634D01*
X667749Y144662D01*
X667703Y144664D01*
X667659Y144675D01*
X667581Y144669D01*
X667503Y144673D01*
X667459Y144660D01*
X667414Y144656D01*
X667342Y144626D01*
X667267Y144604D01*
X667229Y144578D01*
X667187Y144560D01*
X667081Y144475D01*
X667065Y144464D01*
X667062Y144460D01*
X667056Y144455D01*
X655696Y133095D01*
X639704Y133095D01*
X635761Y137038D01*
X635761Y167762D01*
X639704Y171705D01*
X653034Y171705D01*
X653054Y171708D01*
X653073Y171706D01*
X653175Y171728D01*
X653277Y171744D01*
X653294Y171754D01*
X653314Y171758D01*
X653403Y171811D01*
X653494Y171860D01*
X653508Y171874D01*
X653525Y171884D01*
X653592Y171963D01*
X653664Y172038D01*
X653672Y172056D01*
X653685Y172071D01*
X653724Y172167D01*
X653767Y172261D01*
X653769Y172281D01*
X653777Y172299D01*
X653795Y172466D01*
X653795Y185796D01*
X665104Y197105D01*
X681096Y197105D01*
X692405Y185796D01*
X692405Y171068D01*
X692424Y170953D01*
X692441Y170837D01*
X692443Y170832D01*
X692444Y170825D01*
X692499Y170722D01*
X692552Y170618D01*
X692557Y170614D01*
X692560Y170608D01*
X692644Y170528D01*
X692728Y170446D01*
X692734Y170442D01*
X692738Y170439D01*
X692755Y170431D01*
X692875Y170365D01*
X696735Y168766D01*
X702166Y163335D01*
X703184Y160876D01*
X703222Y160815D01*
X703251Y160749D01*
X703287Y160711D01*
X703314Y160667D01*
X703369Y160621D01*
X703418Y160568D01*
X703463Y160543D01*
X703504Y160510D01*
X703570Y160484D01*
X703633Y160450D01*
X703685Y160441D01*
X703733Y160422D01*
X703805Y160419D01*
X703875Y160406D01*
X703927Y160414D01*
X703979Y160411D01*
X704048Y160431D01*
X704119Y160442D01*
X704165Y160465D01*
X704215Y160480D01*
X704274Y160521D01*
X704338Y160553D01*
X704374Y160591D01*
X704417Y160620D01*
X704460Y160678D01*
X704510Y160729D01*
X704545Y160792D01*
X704564Y160818D01*
X704571Y160840D01*
X704591Y160876D01*
X706027Y164342D01*
X711958Y170273D01*
X719706Y173483D01*
X728094Y173483D01*
X735842Y170273D01*
X741773Y164342D01*
X742247Y163199D01*
X742284Y163138D01*
X742314Y163073D01*
X742349Y163034D01*
X742376Y162990D01*
X742432Y162944D01*
X742480Y162891D01*
X742526Y162866D01*
X742566Y162833D01*
X742633Y162807D01*
X742696Y162773D01*
X742747Y162764D01*
X742795Y162745D01*
X742867Y162742D01*
X742938Y162729D01*
X742989Y162737D01*
X743041Y162735D01*
X743110Y162755D01*
X743181Y162765D01*
X743227Y162789D01*
X743277Y162803D01*
X743336Y162844D01*
X743400Y162876D01*
X743437Y162914D01*
X743479Y162943D01*
X743522Y163001D01*
X743572Y163052D01*
X743607Y163115D01*
X743626Y163141D01*
X743633Y163163D01*
X743653Y163199D01*
X744127Y164342D01*
X750058Y170273D01*
X757806Y173483D01*
X766194Y173483D01*
X773942Y170273D01*
X779873Y164342D01*
X780347Y163199D01*
X780384Y163138D01*
X780414Y163073D01*
X780449Y163034D01*
X780476Y162990D01*
X780531Y162944D01*
X780580Y162891D01*
X780626Y162866D01*
X780666Y162833D01*
X780733Y162807D01*
X780796Y162773D01*
X780847Y162764D01*
X780895Y162745D01*
X780967Y162742D01*
X781038Y162729D01*
X781089Y162737D01*
X781141Y162735D01*
X781210Y162755D01*
X781281Y162765D01*
X781327Y162789D01*
X781377Y162803D01*
X781436Y162844D01*
X781500Y162876D01*
X781537Y162914D01*
X781579Y162943D01*
X781622Y163001D01*
X781672Y163052D01*
X781707Y163115D01*
X781726Y163141D01*
X781733Y163163D01*
X781753Y163199D01*
X782227Y164342D01*
X788158Y170273D01*
X795906Y173483D01*
X804294Y173483D01*
X812042Y170273D01*
X817973Y164342D01*
X821183Y156594D01*
X821183Y148206D01*
X817973Y140458D01*
X812042Y134527D01*
X804294Y131317D01*
X795906Y131317D01*
X788158Y134527D01*
X782227Y140458D01*
X781753Y141601D01*
X781716Y141662D01*
X781686Y141727D01*
X781651Y141766D01*
X781624Y141810D01*
X781568Y141856D01*
X781520Y141909D01*
X781474Y141934D01*
X781434Y141967D01*
X781367Y141993D01*
X781304Y142027D01*
X781253Y142036D01*
X781205Y142055D01*
X781133Y142058D01*
X781062Y142071D01*
X781011Y142063D01*
X780959Y142065D01*
X780890Y142045D01*
X780819Y142035D01*
X780773Y142011D01*
X780723Y141997D01*
X780664Y141956D01*
X780600Y141924D01*
X780563Y141886D01*
X780521Y141857D01*
X780478Y141799D01*
X780428Y141748D01*
X780393Y141685D01*
X780374Y141659D01*
X780367Y141637D01*
X780347Y141601D01*
X779873Y140458D01*
X773942Y134527D01*
X766194Y131317D01*
X757806Y131317D01*
X750058Y134527D01*
X744127Y140458D01*
X743653Y141601D01*
X743616Y141662D01*
X743586Y141727D01*
X743551Y141766D01*
X743524Y141810D01*
X743469Y141856D01*
X743420Y141909D01*
X743374Y141934D01*
X743334Y141967D01*
X743267Y141993D01*
X743204Y142027D01*
X743153Y142036D01*
X743105Y142055D01*
X743033Y142058D01*
X742962Y142071D01*
X742911Y142063D01*
X742859Y142065D01*
X742790Y142045D01*
X742719Y142035D01*
X742673Y142011D01*
X742623Y141997D01*
X742564Y141956D01*
X742500Y141924D01*
X742463Y141886D01*
X742421Y141857D01*
X742378Y141799D01*
X742328Y141748D01*
X742293Y141685D01*
X742274Y141659D01*
X742267Y141637D01*
X742247Y141601D01*
X741773Y140458D01*
X735842Y134527D01*
X728094Y131317D01*
X719706Y131317D01*
G37*
%LPD*%
%LPC*%
G36*
X555940Y125767D02*
X555940Y125767D01*
X553796Y126655D01*
X552155Y128296D01*
X551267Y130440D01*
X551267Y132760D01*
X552155Y134904D01*
X553556Y136305D01*
X553609Y136379D01*
X553669Y136448D01*
X553681Y136479D01*
X553700Y136505D01*
X553727Y136592D01*
X553761Y136677D01*
X553765Y136718D01*
X553772Y136740D01*
X553771Y136772D01*
X553779Y136843D01*
X553779Y237476D01*
X558025Y241721D01*
X558036Y241737D01*
X558052Y241750D01*
X558108Y241837D01*
X558168Y241921D01*
X558174Y241940D01*
X558185Y241956D01*
X558210Y242057D01*
X558241Y242156D01*
X558240Y242176D01*
X558245Y242195D01*
X558237Y242298D01*
X558234Y242402D01*
X558227Y242420D01*
X558226Y242440D01*
X558186Y242535D01*
X558150Y242633D01*
X558137Y242648D01*
X558130Y242667D01*
X558025Y242798D01*
X532312Y268510D01*
X532238Y268563D01*
X532169Y268623D01*
X532138Y268635D01*
X532112Y268654D01*
X532025Y268681D01*
X531940Y268715D01*
X531899Y268719D01*
X531877Y268726D01*
X531845Y268725D01*
X531774Y268733D01*
X441653Y268733D01*
X441538Y268714D01*
X441422Y268697D01*
X441416Y268695D01*
X441410Y268694D01*
X441308Y268639D01*
X441202Y268586D01*
X441198Y268581D01*
X441192Y268578D01*
X441113Y268494D01*
X441030Y268410D01*
X441027Y268404D01*
X441023Y268400D01*
X441015Y268383D01*
X440990Y268337D01*
X439332Y266679D01*
X437188Y265791D01*
X434868Y265791D01*
X432724Y266679D01*
X431083Y268320D01*
X430195Y270464D01*
X430195Y272784D01*
X431083Y274928D01*
X432724Y276569D01*
X432745Y276578D01*
X432845Y276639D01*
X432945Y276699D01*
X432949Y276704D01*
X432954Y276707D01*
X433029Y276797D01*
X433105Y276886D01*
X433107Y276892D01*
X433111Y276897D01*
X433153Y277005D01*
X433197Y277114D01*
X433198Y277122D01*
X433199Y277126D01*
X433200Y277145D01*
X433215Y277281D01*
X433215Y282050D01*
X433196Y282165D01*
X433179Y282281D01*
X433177Y282287D01*
X433176Y282293D01*
X433121Y282395D01*
X433068Y282500D01*
X433063Y282505D01*
X433060Y282510D01*
X432976Y282590D01*
X432892Y282673D01*
X432886Y282676D01*
X432882Y282680D01*
X432865Y282687D01*
X432745Y282753D01*
X432724Y282762D01*
X431083Y284403D01*
X430195Y286547D01*
X430195Y288867D01*
X431083Y291011D01*
X432724Y292652D01*
X434868Y293540D01*
X437188Y293540D01*
X439332Y292652D01*
X440973Y291011D01*
X441861Y288867D01*
X441861Y286547D01*
X440973Y284403D01*
X439332Y282762D01*
X439311Y282753D01*
X439211Y282692D01*
X439111Y282632D01*
X439107Y282627D01*
X439102Y282624D01*
X439027Y282534D01*
X438951Y282445D01*
X438949Y282439D01*
X438945Y282434D01*
X438903Y282325D01*
X438859Y282217D01*
X438858Y282209D01*
X438857Y282205D01*
X438856Y282186D01*
X438841Y282050D01*
X438841Y277281D01*
X438860Y277166D01*
X438877Y277050D01*
X438879Y277044D01*
X438880Y277038D01*
X438935Y276936D01*
X438988Y276831D01*
X438993Y276826D01*
X438996Y276821D01*
X439080Y276740D01*
X439164Y276658D01*
X439170Y276655D01*
X439174Y276651D01*
X439191Y276643D01*
X439311Y276578D01*
X439332Y276569D01*
X440973Y274928D01*
X441014Y274829D01*
X441076Y274729D01*
X441135Y274629D01*
X441140Y274625D01*
X441144Y274620D01*
X441233Y274545D01*
X441322Y274469D01*
X441328Y274467D01*
X441333Y274463D01*
X441442Y274421D01*
X441550Y274377D01*
X441558Y274376D01*
X441563Y274375D01*
X441581Y274374D01*
X441717Y274359D01*
X534419Y274359D01*
X536290Y272488D01*
X563934Y244844D01*
X564008Y244791D01*
X564077Y244731D01*
X564108Y244719D01*
X564134Y244700D01*
X564221Y244673D01*
X564306Y244639D01*
X564347Y244635D01*
X564369Y244628D01*
X564401Y244629D01*
X564472Y244621D01*
X579679Y244621D01*
X579794Y244640D01*
X579910Y244657D01*
X579916Y244659D01*
X579922Y244660D01*
X580025Y244715D01*
X580130Y244768D01*
X580134Y244773D01*
X580139Y244776D01*
X580219Y244860D01*
X580302Y244944D01*
X580305Y244950D01*
X580309Y244954D01*
X580317Y244971D01*
X580383Y245091D01*
X581082Y246778D01*
X583802Y249498D01*
X587356Y250971D01*
X606444Y250971D01*
X609998Y249498D01*
X612718Y246778D01*
X614191Y243224D01*
X614191Y239376D01*
X612718Y235822D01*
X609998Y233102D01*
X606444Y231629D01*
X587356Y231629D01*
X583802Y233102D01*
X581082Y235822D01*
X580383Y237509D01*
X580321Y237609D01*
X580261Y237709D01*
X580256Y237713D01*
X580253Y237718D01*
X580163Y237793D01*
X580074Y237869D01*
X580068Y237871D01*
X580064Y237875D01*
X579955Y237917D01*
X579846Y237961D01*
X579838Y237962D01*
X579834Y237963D01*
X579816Y237964D01*
X579679Y237979D01*
X563991Y237979D01*
X563901Y237965D01*
X563810Y237957D01*
X563780Y237945D01*
X563748Y237940D01*
X563667Y237897D01*
X563584Y237861D01*
X563551Y237835D01*
X563531Y237824D01*
X563509Y237801D01*
X563453Y237756D01*
X560644Y234947D01*
X560591Y234874D01*
X560531Y234804D01*
X560519Y234774D01*
X560500Y234748D01*
X560473Y234661D01*
X560439Y234576D01*
X560435Y234535D01*
X560428Y234513D01*
X560429Y234480D01*
X560421Y234409D01*
X560421Y136843D01*
X560435Y136753D01*
X560443Y136662D01*
X560455Y136633D01*
X560460Y136601D01*
X560503Y136520D01*
X560539Y136436D01*
X560565Y136404D01*
X560576Y136383D01*
X560599Y136361D01*
X560644Y136305D01*
X562045Y134904D01*
X562933Y132760D01*
X562933Y130440D01*
X562045Y128296D01*
X560404Y126655D01*
X558260Y125767D01*
X555940Y125767D01*
G37*
%LPD*%
%LPC*%
G36*
X35223Y156959D02*
X35223Y156959D01*
X26894Y160409D01*
X20519Y166784D01*
X17069Y175113D01*
X17069Y184127D01*
X20519Y192456D01*
X26894Y198831D01*
X35223Y202281D01*
X44237Y202281D01*
X52566Y198831D01*
X58941Y192456D01*
X62391Y184127D01*
X62391Y175113D01*
X58941Y166784D01*
X52566Y160409D01*
X44237Y156959D01*
X35223Y156959D01*
G37*
%LPD*%
%LPC*%
G36*
X834006Y55117D02*
X834006Y55117D01*
X826258Y58327D01*
X820327Y64258D01*
X817117Y72006D01*
X817117Y80394D01*
X820327Y88142D01*
X826258Y94073D01*
X834006Y97283D01*
X842394Y97283D01*
X850142Y94073D01*
X856073Y88142D01*
X859283Y80394D01*
X859283Y72006D01*
X856073Y64258D01*
X850142Y58327D01*
X842394Y55117D01*
X834006Y55117D01*
G37*
%LPD*%
%LPC*%
G36*
X777713Y259079D02*
X777713Y259079D01*
X765809Y270983D01*
X765809Y287817D01*
X777713Y299721D01*
X794547Y299721D01*
X806451Y287817D01*
X806451Y270983D01*
X794547Y259079D01*
X777713Y259079D01*
G37*
%LPD*%
%LPC*%
G36*
X836193Y228999D02*
X836193Y228999D01*
X824629Y240563D01*
X824629Y256916D01*
X836193Y268480D01*
X852546Y268480D01*
X864110Y256916D01*
X864110Y240563D01*
X852546Y228999D01*
X836193Y228999D01*
G37*
%LPD*%
%LPC*%
G36*
X222067Y176394D02*
X222067Y176394D01*
X219923Y177282D01*
X218282Y178923D01*
X217394Y181067D01*
X217394Y183387D01*
X218282Y185531D01*
X219923Y187172D01*
X219944Y187181D01*
X220044Y187242D01*
X220144Y187302D01*
X220148Y187307D01*
X220153Y187310D01*
X220228Y187400D01*
X220304Y187489D01*
X220306Y187495D01*
X220310Y187500D01*
X220352Y187608D01*
X220396Y187717D01*
X220397Y187725D01*
X220398Y187729D01*
X220399Y187748D01*
X220414Y187884D01*
X220414Y259793D01*
X220400Y259883D01*
X220392Y259974D01*
X220380Y260003D01*
X220375Y260035D01*
X220332Y260116D01*
X220296Y260200D01*
X220270Y260232D01*
X220259Y260253D01*
X220236Y260275D01*
X220191Y260331D01*
X212058Y268464D01*
X211984Y268517D01*
X211915Y268577D01*
X211884Y268589D01*
X211858Y268608D01*
X211771Y268635D01*
X211686Y268669D01*
X211645Y268673D01*
X211623Y268680D01*
X211591Y268679D01*
X211520Y268687D01*
X175872Y268687D01*
X152740Y291819D01*
X150869Y293690D01*
X150869Y294588D01*
X150850Y294703D01*
X150833Y294819D01*
X150831Y294824D01*
X150830Y294831D01*
X150775Y294933D01*
X150722Y295038D01*
X150717Y295042D01*
X150714Y295048D01*
X150630Y295128D01*
X150546Y295210D01*
X150540Y295214D01*
X150536Y295217D01*
X150519Y295225D01*
X150472Y295251D01*
X150471Y295252D01*
X150470Y295252D01*
X150399Y295291D01*
X146990Y296703D01*
X144303Y299390D01*
X142849Y302900D01*
X142849Y306700D01*
X144303Y310210D01*
X146990Y312897D01*
X150500Y314351D01*
X154300Y314351D01*
X157810Y312897D01*
X160497Y310210D01*
X161951Y306700D01*
X161951Y302900D01*
X160497Y299390D01*
X157810Y296703D01*
X157449Y296554D01*
X157410Y296530D01*
X157367Y296514D01*
X157307Y296465D01*
X157240Y296424D01*
X157211Y296389D01*
X157175Y296360D01*
X157133Y296295D01*
X157084Y296235D01*
X157067Y296192D01*
X157042Y296153D01*
X157023Y296078D01*
X156995Y296005D01*
X156993Y295959D01*
X156982Y295915D01*
X156988Y295837D01*
X156985Y295759D01*
X156998Y295715D01*
X157001Y295670D01*
X157032Y295598D01*
X157053Y295523D01*
X157080Y295485D01*
X157098Y295443D01*
X157183Y295336D01*
X157194Y295321D01*
X157198Y295318D01*
X157202Y295312D01*
X177979Y274536D01*
X178053Y274483D01*
X178123Y274423D01*
X178153Y274411D01*
X178179Y274392D01*
X178266Y274365D01*
X178351Y274331D01*
X178392Y274327D01*
X178414Y274320D01*
X178446Y274321D01*
X178517Y274313D01*
X214165Y274313D01*
X216036Y272442D01*
X226040Y262438D01*
X226040Y187884D01*
X226059Y187769D01*
X226076Y187653D01*
X226078Y187647D01*
X226079Y187641D01*
X226134Y187539D01*
X226187Y187434D01*
X226192Y187429D01*
X226195Y187424D01*
X226279Y187343D01*
X226363Y187261D01*
X226369Y187258D01*
X226373Y187254D01*
X226390Y187246D01*
X226510Y187181D01*
X226531Y187172D01*
X228172Y185531D01*
X229060Y183387D01*
X229060Y181067D01*
X228172Y178923D01*
X226531Y177282D01*
X224387Y176394D01*
X222067Y176394D01*
G37*
%LPD*%
%LPC*%
G36*
X665104Y209295D02*
X665104Y209295D01*
X653795Y220604D01*
X653795Y236596D01*
X665104Y247905D01*
X681096Y247905D01*
X692405Y236596D01*
X692405Y220604D01*
X681096Y209295D01*
X665104Y209295D01*
G37*
%LPD*%
%LPC*%
G36*
X183132Y194255D02*
X183132Y194255D01*
X180988Y195143D01*
X179347Y196784D01*
X178459Y198928D01*
X178459Y201248D01*
X178468Y201270D01*
X178495Y201383D01*
X178523Y201497D01*
X178523Y201503D01*
X178524Y201509D01*
X178513Y201626D01*
X178504Y201742D01*
X178502Y201748D01*
X178501Y201754D01*
X178454Y201861D01*
X178408Y201968D01*
X178403Y201974D01*
X178401Y201979D01*
X178388Y201992D01*
X178303Y202099D01*
X125851Y254551D01*
X125851Y294488D01*
X125848Y294508D01*
X125850Y294527D01*
X125828Y294628D01*
X125812Y294731D01*
X125802Y294748D01*
X125798Y294768D01*
X125745Y294857D01*
X125696Y294948D01*
X125682Y294962D01*
X125672Y294979D01*
X125593Y295046D01*
X125518Y295118D01*
X125500Y295126D01*
X125485Y295139D01*
X125389Y295178D01*
X125295Y295221D01*
X125275Y295223D01*
X125257Y295231D01*
X125104Y295248D01*
X121590Y296703D01*
X118903Y299390D01*
X117449Y302900D01*
X117449Y306700D01*
X118903Y310210D01*
X121590Y312897D01*
X125100Y314351D01*
X128900Y314351D01*
X132410Y312897D01*
X135097Y310210D01*
X136551Y306700D01*
X136551Y302900D01*
X135097Y299390D01*
X132410Y296703D01*
X131947Y296511D01*
X131847Y296449D01*
X131747Y296390D01*
X131743Y296385D01*
X131738Y296382D01*
X131663Y296291D01*
X131587Y296203D01*
X131585Y296197D01*
X131581Y296192D01*
X131539Y296084D01*
X131495Y295975D01*
X131494Y295967D01*
X131493Y295963D01*
X131492Y295944D01*
X131477Y295808D01*
X131477Y257196D01*
X131491Y257106D01*
X131499Y257015D01*
X131511Y256986D01*
X131516Y256954D01*
X131559Y256873D01*
X131595Y256789D01*
X131621Y256757D01*
X131632Y256736D01*
X131655Y256714D01*
X131700Y256658D01*
X182281Y206077D01*
X182376Y206009D01*
X182470Y205939D01*
X182476Y205937D01*
X182481Y205933D01*
X182592Y205899D01*
X182703Y205863D01*
X182710Y205863D01*
X182716Y205861D01*
X182832Y205864D01*
X182949Y205865D01*
X182957Y205867D01*
X182962Y205867D01*
X182979Y205874D01*
X183110Y205912D01*
X183132Y205921D01*
X185452Y205921D01*
X187596Y205033D01*
X189237Y203392D01*
X190125Y201248D01*
X190125Y198928D01*
X189237Y196784D01*
X187596Y195143D01*
X185452Y194255D01*
X183132Y194255D01*
G37*
%LPD*%
%LPC*%
G36*
X416015Y190045D02*
X416015Y190045D01*
X410945Y195115D01*
X410945Y202285D01*
X416015Y207355D01*
X416026Y207355D01*
X416046Y207358D01*
X416065Y207356D01*
X416167Y207378D01*
X416269Y207394D01*
X416286Y207404D01*
X416306Y207408D01*
X416395Y207461D01*
X416486Y207510D01*
X416500Y207524D01*
X416517Y207534D01*
X416584Y207613D01*
X416656Y207688D01*
X416664Y207706D01*
X416677Y207721D01*
X416716Y207817D01*
X416759Y207911D01*
X416761Y207931D01*
X416769Y207949D01*
X416787Y208116D01*
X416787Y235720D01*
X416773Y235810D01*
X416765Y235901D01*
X416753Y235930D01*
X416748Y235962D01*
X416705Y236043D01*
X416669Y236127D01*
X416643Y236159D01*
X416632Y236180D01*
X416609Y236202D01*
X416564Y236258D01*
X412358Y240464D01*
X412284Y240517D01*
X412214Y240577D01*
X412184Y240589D01*
X412158Y240608D01*
X412071Y240635D01*
X411986Y240669D01*
X411945Y240673D01*
X411923Y240680D01*
X411891Y240679D01*
X411820Y240687D01*
X351157Y240687D01*
X351042Y240668D01*
X350926Y240651D01*
X350920Y240649D01*
X350914Y240648D01*
X350812Y240593D01*
X350707Y240540D01*
X350702Y240535D01*
X350697Y240532D01*
X350616Y240448D01*
X350534Y240364D01*
X350531Y240358D01*
X350527Y240354D01*
X350519Y240337D01*
X350454Y240217D01*
X350445Y240196D01*
X348804Y238555D01*
X346660Y237667D01*
X344340Y237667D01*
X342196Y238555D01*
X340555Y240196D01*
X339667Y242340D01*
X339667Y244660D01*
X340555Y246804D01*
X342196Y248445D01*
X344340Y249333D01*
X346660Y249333D01*
X348804Y248445D01*
X350445Y246804D01*
X350454Y246783D01*
X350515Y246683D01*
X350575Y246583D01*
X350580Y246579D01*
X350583Y246574D01*
X350673Y246499D01*
X350762Y246423D01*
X350768Y246421D01*
X350773Y246417D01*
X350881Y246375D01*
X350990Y246331D01*
X350998Y246330D01*
X351002Y246329D01*
X351021Y246328D01*
X351157Y246313D01*
X414465Y246313D01*
X422413Y238365D01*
X422413Y208116D01*
X422416Y208096D01*
X422414Y208077D01*
X422436Y207975D01*
X422452Y207873D01*
X422462Y207856D01*
X422466Y207836D01*
X422519Y207747D01*
X422568Y207656D01*
X422582Y207642D01*
X422592Y207625D01*
X422671Y207558D01*
X422746Y207486D01*
X422764Y207478D01*
X422779Y207465D01*
X422875Y207426D01*
X422969Y207383D01*
X422989Y207381D01*
X423007Y207373D01*
X423174Y207355D01*
X423185Y207355D01*
X428255Y202285D01*
X428255Y195115D01*
X423185Y190045D01*
X416015Y190045D01*
G37*
%LPD*%
%LPC*%
G36*
X493840Y79167D02*
X493840Y79167D01*
X491696Y80055D01*
X490055Y81696D01*
X489167Y83840D01*
X489167Y86160D01*
X490055Y88304D01*
X491696Y89945D01*
X493840Y90833D01*
X496160Y90833D01*
X496181Y90824D01*
X496295Y90797D01*
X496409Y90769D01*
X496415Y90769D01*
X496421Y90768D01*
X496537Y90779D01*
X496654Y90788D01*
X496660Y90790D01*
X496666Y90791D01*
X496773Y90839D01*
X496880Y90884D01*
X496886Y90889D01*
X496891Y90891D01*
X496904Y90904D01*
X497011Y90989D01*
X504964Y98942D01*
X505017Y99016D01*
X505077Y99086D01*
X505089Y99116D01*
X505108Y99142D01*
X505135Y99229D01*
X505169Y99314D01*
X505173Y99355D01*
X505180Y99377D01*
X505179Y99409D01*
X505187Y99480D01*
X505187Y128078D01*
X505184Y128098D01*
X505186Y128117D01*
X505164Y128219D01*
X505148Y128321D01*
X505138Y128338D01*
X505134Y128358D01*
X505081Y128447D01*
X505032Y128538D01*
X505018Y128552D01*
X505008Y128569D01*
X504929Y128636D01*
X504854Y128708D01*
X504836Y128716D01*
X504821Y128729D01*
X504725Y128768D01*
X504631Y128811D01*
X504611Y128813D01*
X504593Y128821D01*
X504426Y128839D01*
X499611Y128839D01*
X498409Y130041D01*
X498409Y146819D01*
X499611Y148021D01*
X516389Y148021D01*
X517591Y146819D01*
X517591Y130041D01*
X516389Y128839D01*
X511574Y128839D01*
X511554Y128836D01*
X511535Y128838D01*
X511433Y128816D01*
X511331Y128800D01*
X511314Y128790D01*
X511294Y128786D01*
X511205Y128733D01*
X511114Y128684D01*
X511100Y128670D01*
X511083Y128660D01*
X511016Y128581D01*
X510944Y128506D01*
X510936Y128488D01*
X510923Y128473D01*
X510884Y128377D01*
X510841Y128283D01*
X510839Y128263D01*
X510831Y128245D01*
X510813Y128078D01*
X510813Y96835D01*
X500989Y87011D01*
X500921Y86917D01*
X500851Y86822D01*
X500849Y86816D01*
X500845Y86811D01*
X500811Y86700D01*
X500775Y86589D01*
X500775Y86582D01*
X500773Y86576D01*
X500776Y86460D01*
X500777Y86343D01*
X500779Y86335D01*
X500779Y86330D01*
X500786Y86313D01*
X500824Y86181D01*
X500833Y86160D01*
X500833Y83840D01*
X499945Y81696D01*
X498304Y80055D01*
X496160Y79167D01*
X493840Y79167D01*
G37*
%LPD*%
%LPC*%
G36*
X587356Y206229D02*
X587356Y206229D01*
X583802Y207702D01*
X581082Y210422D01*
X579609Y213976D01*
X579609Y217824D01*
X581082Y221378D01*
X583802Y224098D01*
X587356Y225571D01*
X606444Y225571D01*
X609998Y224098D01*
X612718Y221378D01*
X614191Y217824D01*
X614191Y213976D01*
X612718Y210422D01*
X609998Y207702D01*
X606444Y206229D01*
X587356Y206229D01*
G37*
%LPD*%
%LPC*%
G36*
X587356Y155429D02*
X587356Y155429D01*
X583802Y156902D01*
X581082Y159622D01*
X579609Y163176D01*
X579609Y167024D01*
X581082Y170578D01*
X583802Y173298D01*
X587356Y174771D01*
X606444Y174771D01*
X609998Y173298D01*
X612718Y170578D01*
X614191Y167024D01*
X614191Y163176D01*
X612718Y159622D01*
X609998Y156902D01*
X606444Y155429D01*
X587356Y155429D01*
G37*
%LPD*%
%LPC*%
G36*
X587356Y180829D02*
X587356Y180829D01*
X583802Y182302D01*
X581082Y185022D01*
X579609Y188576D01*
X579609Y192424D01*
X581082Y195978D01*
X583802Y198698D01*
X587356Y200171D01*
X606444Y200171D01*
X609998Y198698D01*
X612718Y195978D01*
X614191Y192424D01*
X614191Y188576D01*
X612718Y185022D01*
X609998Y182302D01*
X606444Y180829D01*
X587356Y180829D01*
G37*
%LPD*%
%LPC*%
G36*
X876525Y275570D02*
X876525Y275570D01*
X871200Y280895D01*
X871200Y288426D01*
X876747Y293973D01*
X876800Y294047D01*
X876859Y294116D01*
X876872Y294147D01*
X876890Y294173D01*
X876917Y294260D01*
X876951Y294345D01*
X876956Y294386D01*
X876963Y294408D01*
X876962Y294440D01*
X876970Y294511D01*
X876970Y299119D01*
X876955Y299209D01*
X876948Y299300D01*
X876935Y299329D01*
X876930Y299361D01*
X876887Y299442D01*
X876852Y299526D01*
X876826Y299558D01*
X876815Y299579D01*
X876792Y299601D01*
X876747Y299657D01*
X864959Y311444D01*
X864886Y311497D01*
X864816Y311557D01*
X864786Y311569D01*
X864760Y311588D01*
X864673Y311615D01*
X864588Y311649D01*
X864547Y311653D01*
X864525Y311660D01*
X864492Y311659D01*
X864421Y311667D01*
X862440Y311667D01*
X860296Y312555D01*
X858655Y314196D01*
X857767Y316340D01*
X857767Y318660D01*
X858655Y320804D01*
X860296Y322445D01*
X862440Y323333D01*
X864760Y323333D01*
X866904Y322445D01*
X868545Y320804D01*
X869433Y318660D01*
X869433Y316679D01*
X869437Y316652D01*
X869436Y316638D01*
X869448Y316579D01*
X869455Y316498D01*
X869467Y316468D01*
X869472Y316436D01*
X869484Y316414D01*
X869488Y316397D01*
X869521Y316341D01*
X869551Y316272D01*
X869577Y316239D01*
X869588Y316219D01*
X869604Y316203D01*
X869614Y316186D01*
X869631Y316172D01*
X869656Y316141D01*
X883611Y302185D01*
X883611Y294511D01*
X883626Y294421D01*
X883633Y294330D01*
X883646Y294301D01*
X883651Y294269D01*
X883694Y294188D01*
X883729Y294104D01*
X883755Y294072D01*
X883766Y294051D01*
X883789Y294029D01*
X883834Y293973D01*
X889381Y288426D01*
X889381Y280895D01*
X884056Y275570D01*
X876525Y275570D01*
G37*
%LPD*%
%LPC*%
G36*
X525011Y118209D02*
X525011Y118209D01*
X523809Y119411D01*
X523809Y136189D01*
X525011Y137391D01*
X541789Y137391D01*
X542991Y136189D01*
X542991Y119411D01*
X541789Y118209D01*
X525011Y118209D01*
G37*
%LPD*%
%LPC*%
G36*
X525011Y218209D02*
X525011Y218209D01*
X523809Y219411D01*
X523809Y236189D01*
X525011Y237391D01*
X541789Y237391D01*
X542991Y236189D01*
X542991Y219411D01*
X541789Y218209D01*
X525011Y218209D01*
G37*
%LPD*%
%LPC*%
G36*
X499611Y205039D02*
X499611Y205039D01*
X498409Y206241D01*
X498409Y223019D01*
X499611Y224221D01*
X516389Y224221D01*
X517591Y223019D01*
X517591Y206241D01*
X516389Y205039D01*
X499611Y205039D01*
G37*
%LPD*%
%LPC*%
G36*
X175900Y295249D02*
X175900Y295249D01*
X172390Y296703D01*
X169703Y299390D01*
X168249Y302900D01*
X168249Y306700D01*
X169703Y310210D01*
X172390Y312897D01*
X175900Y314351D01*
X179700Y314351D01*
X183210Y312897D01*
X185897Y310210D01*
X187351Y306700D01*
X187351Y302900D01*
X185897Y299390D01*
X183210Y296703D01*
X179700Y295249D01*
X175900Y295249D01*
G37*
%LPD*%
%LPC*%
G36*
X226700Y295249D02*
X226700Y295249D01*
X223190Y296703D01*
X220503Y299390D01*
X219049Y302900D01*
X219049Y306700D01*
X220503Y310210D01*
X223190Y312897D01*
X226700Y314351D01*
X230500Y314351D01*
X234010Y312897D01*
X236697Y310210D01*
X238151Y306700D01*
X238151Y302900D01*
X236697Y299390D01*
X234010Y296703D01*
X230500Y295249D01*
X226700Y295249D01*
G37*
%LPD*%
%LPC*%
G36*
X252100Y295249D02*
X252100Y295249D01*
X248590Y296703D01*
X245903Y299390D01*
X244449Y302900D01*
X244449Y306700D01*
X245903Y310210D01*
X248590Y312897D01*
X252100Y314351D01*
X255900Y314351D01*
X259410Y312897D01*
X262097Y310210D01*
X263551Y306700D01*
X263551Y302900D01*
X262097Y299390D01*
X259410Y296703D01*
X255900Y295249D01*
X252100Y295249D01*
G37*
%LPD*%
%LPC*%
G36*
X277500Y295249D02*
X277500Y295249D01*
X273990Y296703D01*
X271303Y299390D01*
X269849Y302900D01*
X269849Y306700D01*
X271303Y310210D01*
X273990Y312897D01*
X277500Y314351D01*
X281300Y314351D01*
X284810Y312897D01*
X287497Y310210D01*
X288951Y306700D01*
X288951Y302900D01*
X287497Y299390D01*
X284810Y296703D01*
X281300Y295249D01*
X277500Y295249D01*
G37*
%LPD*%
%LPC*%
G36*
X99700Y295249D02*
X99700Y295249D01*
X96190Y296703D01*
X93503Y299390D01*
X92049Y302900D01*
X92049Y306700D01*
X93503Y310210D01*
X96190Y312897D01*
X99700Y314351D01*
X103500Y314351D01*
X107010Y312897D01*
X109697Y310210D01*
X111151Y306700D01*
X111151Y302900D01*
X109697Y299390D01*
X107010Y296703D01*
X103500Y295249D01*
X99700Y295249D01*
G37*
%LPD*%
%LPC*%
G36*
X429900Y295249D02*
X429900Y295249D01*
X426390Y296703D01*
X423703Y299390D01*
X422249Y302900D01*
X422249Y306700D01*
X423703Y310210D01*
X426390Y312897D01*
X429900Y314351D01*
X433700Y314351D01*
X437210Y312897D01*
X439897Y310210D01*
X441351Y306700D01*
X441351Y302900D01*
X439897Y299390D01*
X437210Y296703D01*
X433700Y295249D01*
X429900Y295249D01*
G37*
%LPD*%
%LPC*%
G36*
X48900Y295249D02*
X48900Y295249D01*
X45390Y296703D01*
X42703Y299390D01*
X41249Y302900D01*
X41249Y306700D01*
X42703Y310210D01*
X45390Y312897D01*
X48900Y314351D01*
X52700Y314351D01*
X56210Y312897D01*
X58897Y310210D01*
X60351Y306700D01*
X60351Y302900D01*
X58897Y299390D01*
X56210Y296703D01*
X52700Y295249D01*
X48900Y295249D01*
G37*
%LPD*%
%LPC*%
G36*
X353700Y295249D02*
X353700Y295249D01*
X350190Y296703D01*
X347503Y299390D01*
X346049Y302900D01*
X346049Y306700D01*
X347503Y310210D01*
X350190Y312897D01*
X353700Y314351D01*
X357500Y314351D01*
X361010Y312897D01*
X363697Y310210D01*
X365151Y306700D01*
X365151Y302900D01*
X363697Y299390D01*
X361010Y296703D01*
X357500Y295249D01*
X353700Y295249D01*
G37*
%LPD*%
%LPC*%
G36*
X379100Y295249D02*
X379100Y295249D01*
X375590Y296703D01*
X372903Y299390D01*
X371449Y302900D01*
X371449Y306700D01*
X372903Y310210D01*
X375590Y312897D01*
X379100Y314351D01*
X382900Y314351D01*
X386410Y312897D01*
X389097Y310210D01*
X390551Y306700D01*
X390551Y302900D01*
X389097Y299390D01*
X386410Y296703D01*
X382900Y295249D01*
X379100Y295249D01*
G37*
%LPD*%
%LPC*%
G36*
X74300Y295249D02*
X74300Y295249D01*
X70790Y296703D01*
X68103Y299390D01*
X66649Y302900D01*
X66649Y306700D01*
X68103Y310210D01*
X70790Y312897D01*
X74300Y314351D01*
X78100Y314351D01*
X81610Y312897D01*
X84297Y310210D01*
X85751Y306700D01*
X85751Y302900D01*
X84297Y299390D01*
X81610Y296703D01*
X78100Y295249D01*
X74300Y295249D01*
G37*
%LPD*%
%LPC*%
G36*
X201300Y66649D02*
X201300Y66649D01*
X197790Y68103D01*
X195103Y70790D01*
X193649Y74300D01*
X193649Y78100D01*
X195103Y81610D01*
X197790Y84297D01*
X201300Y85751D01*
X205100Y85751D01*
X208610Y84297D01*
X211297Y81610D01*
X212751Y78100D01*
X212751Y74300D01*
X211297Y70790D01*
X208610Y68103D01*
X205100Y66649D01*
X201300Y66649D01*
G37*
%LPD*%
%LPC*%
G36*
X175900Y66649D02*
X175900Y66649D01*
X172390Y68103D01*
X169703Y70790D01*
X168249Y74300D01*
X168249Y78100D01*
X169703Y81610D01*
X172390Y84297D01*
X175900Y85751D01*
X179700Y85751D01*
X183210Y84297D01*
X185897Y81610D01*
X187351Y78100D01*
X187351Y74300D01*
X185897Y70790D01*
X183210Y68103D01*
X179700Y66649D01*
X175900Y66649D01*
G37*
%LPD*%
%LPC*%
G36*
X23500Y295249D02*
X23500Y295249D01*
X19990Y296703D01*
X17303Y299390D01*
X15849Y302900D01*
X15849Y306700D01*
X17303Y310210D01*
X19990Y312897D01*
X23500Y314351D01*
X27300Y314351D01*
X30810Y312897D01*
X33497Y310210D01*
X34951Y306700D01*
X34951Y302900D01*
X33497Y299390D01*
X30810Y296703D01*
X27300Y295249D01*
X23500Y295249D01*
G37*
%LPD*%
%LPC*%
G36*
X150500Y66649D02*
X150500Y66649D01*
X146990Y68103D01*
X144303Y70790D01*
X142849Y74300D01*
X142849Y78100D01*
X144303Y81610D01*
X146990Y84297D01*
X150500Y85751D01*
X154300Y85751D01*
X157810Y84297D01*
X160497Y81610D01*
X161951Y78100D01*
X161951Y74300D01*
X160497Y70790D01*
X157810Y68103D01*
X154300Y66649D01*
X150500Y66649D01*
G37*
%LPD*%
%LPC*%
G36*
X125100Y66649D02*
X125100Y66649D01*
X121590Y68103D01*
X118903Y70790D01*
X117449Y74300D01*
X117449Y78100D01*
X118903Y81610D01*
X121590Y84297D01*
X125100Y85751D01*
X128900Y85751D01*
X132410Y84297D01*
X135097Y81610D01*
X136551Y78100D01*
X136551Y74300D01*
X135097Y70790D01*
X132410Y68103D01*
X128900Y66649D01*
X125100Y66649D01*
G37*
%LPD*%
%LPC*%
G36*
X99700Y66649D02*
X99700Y66649D01*
X96190Y68103D01*
X93503Y70790D01*
X92049Y74300D01*
X92049Y78100D01*
X93503Y81610D01*
X96190Y84297D01*
X99700Y85751D01*
X103500Y85751D01*
X107010Y84297D01*
X109697Y81610D01*
X111151Y78100D01*
X111151Y74300D01*
X109697Y70790D01*
X107010Y68103D01*
X103500Y66649D01*
X99700Y66649D01*
G37*
%LPD*%
%LPC*%
G36*
X353700Y66649D02*
X353700Y66649D01*
X350190Y68103D01*
X347503Y70790D01*
X346049Y74300D01*
X346049Y78100D01*
X347503Y81610D01*
X350190Y84297D01*
X353700Y85751D01*
X357500Y85751D01*
X361010Y84297D01*
X363697Y81610D01*
X365151Y78100D01*
X365151Y74300D01*
X363697Y70790D01*
X361010Y68103D01*
X357500Y66649D01*
X353700Y66649D01*
G37*
%LPD*%
%LPC*%
G36*
X48900Y66649D02*
X48900Y66649D01*
X45390Y68103D01*
X42703Y70790D01*
X41249Y74300D01*
X41249Y78100D01*
X42703Y81610D01*
X45390Y84297D01*
X48900Y85751D01*
X52700Y85751D01*
X56210Y84297D01*
X58897Y81610D01*
X60351Y78100D01*
X60351Y74300D01*
X58897Y70790D01*
X56210Y68103D01*
X52700Y66649D01*
X48900Y66649D01*
G37*
%LPD*%
%LPC*%
G36*
X379100Y66649D02*
X379100Y66649D01*
X375590Y68103D01*
X372903Y70790D01*
X371449Y74300D01*
X371449Y78100D01*
X372903Y81610D01*
X375590Y84297D01*
X379100Y85751D01*
X382900Y85751D01*
X386410Y84297D01*
X389097Y81610D01*
X390551Y78100D01*
X390551Y74300D01*
X389097Y70790D01*
X386410Y68103D01*
X382900Y66649D01*
X379100Y66649D01*
G37*
%LPD*%
%LPC*%
G36*
X404500Y66649D02*
X404500Y66649D01*
X400990Y68103D01*
X398303Y70790D01*
X396849Y74300D01*
X396849Y78100D01*
X398303Y81610D01*
X400990Y84297D01*
X404500Y85751D01*
X408300Y85751D01*
X411810Y84297D01*
X414497Y81610D01*
X415951Y78100D01*
X415951Y74300D01*
X414497Y70790D01*
X411810Y68103D01*
X408300Y66649D01*
X404500Y66649D01*
G37*
%LPD*%
%LPC*%
G36*
X74300Y66649D02*
X74300Y66649D01*
X70790Y68103D01*
X68103Y70790D01*
X66649Y74300D01*
X66649Y78100D01*
X68103Y81610D01*
X70790Y84297D01*
X74300Y85751D01*
X78100Y85751D01*
X81610Y84297D01*
X84297Y81610D01*
X85751Y78100D01*
X85751Y74300D01*
X84297Y70790D01*
X81610Y68103D01*
X78100Y66649D01*
X74300Y66649D01*
G37*
%LPD*%
%LPC*%
G36*
X302900Y66649D02*
X302900Y66649D01*
X299390Y68103D01*
X296703Y70790D01*
X295249Y74300D01*
X295249Y78100D01*
X296703Y81610D01*
X299390Y84297D01*
X302900Y85751D01*
X306700Y85751D01*
X310210Y84297D01*
X312897Y81610D01*
X314351Y78100D01*
X314351Y74300D01*
X312897Y70790D01*
X310210Y68103D01*
X306700Y66649D01*
X302900Y66649D01*
G37*
%LPD*%
%LPC*%
G36*
X404500Y295249D02*
X404500Y295249D01*
X400990Y296703D01*
X398303Y299390D01*
X396849Y302900D01*
X396849Y306700D01*
X398303Y310210D01*
X400990Y312897D01*
X404500Y314351D01*
X408300Y314351D01*
X411810Y312897D01*
X414497Y310210D01*
X415951Y306700D01*
X415951Y302900D01*
X414497Y299390D01*
X411810Y296703D01*
X408300Y295249D01*
X404500Y295249D01*
G37*
%LPD*%
%LPC*%
G36*
X302900Y295249D02*
X302900Y295249D01*
X299390Y296703D01*
X296703Y299390D01*
X295249Y302900D01*
X295249Y306700D01*
X296703Y310210D01*
X299390Y312897D01*
X302900Y314351D01*
X306700Y314351D01*
X310210Y312897D01*
X312897Y310210D01*
X314351Y306700D01*
X314351Y302900D01*
X312897Y299390D01*
X310210Y296703D01*
X306700Y295249D01*
X302900Y295249D01*
G37*
%LPD*%
%LPC*%
G36*
X328300Y66649D02*
X328300Y66649D01*
X324790Y68103D01*
X322103Y70790D01*
X320649Y74300D01*
X320649Y78100D01*
X322103Y81610D01*
X324790Y84297D01*
X328300Y85751D01*
X332100Y85751D01*
X335610Y84297D01*
X338297Y81610D01*
X339751Y78100D01*
X339751Y74300D01*
X338297Y70790D01*
X335610Y68103D01*
X332100Y66649D01*
X328300Y66649D01*
G37*
%LPD*%
%LPC*%
G36*
X201300Y295249D02*
X201300Y295249D01*
X197790Y296703D01*
X195103Y299390D01*
X193649Y302900D01*
X193649Y306700D01*
X195103Y310210D01*
X197790Y312897D01*
X201300Y314351D01*
X205100Y314351D01*
X208610Y312897D01*
X211297Y310210D01*
X212751Y306700D01*
X212751Y302900D01*
X211297Y299390D01*
X208610Y296703D01*
X205100Y295249D01*
X201300Y295249D01*
G37*
%LPD*%
%LPC*%
G36*
X277500Y66649D02*
X277500Y66649D01*
X273990Y68103D01*
X271303Y70790D01*
X269849Y74300D01*
X269849Y78100D01*
X271303Y81610D01*
X273990Y84297D01*
X277500Y85751D01*
X281300Y85751D01*
X284810Y84297D01*
X287497Y81610D01*
X288951Y78100D01*
X288951Y74300D01*
X287497Y70790D01*
X284810Y68103D01*
X281300Y66649D01*
X277500Y66649D01*
G37*
%LPD*%
%LPC*%
G36*
X328300Y295249D02*
X328300Y295249D01*
X324790Y296703D01*
X322103Y299390D01*
X320649Y302900D01*
X320649Y306700D01*
X322103Y310210D01*
X324790Y312897D01*
X328300Y314351D01*
X332100Y314351D01*
X335610Y312897D01*
X338297Y310210D01*
X339751Y306700D01*
X339751Y302900D01*
X338297Y299390D01*
X335610Y296703D01*
X332100Y295249D01*
X328300Y295249D01*
G37*
%LPD*%
%LPC*%
G36*
X23500Y66649D02*
X23500Y66649D01*
X19990Y68103D01*
X17303Y70790D01*
X15849Y74300D01*
X15849Y78100D01*
X17303Y81610D01*
X19990Y84297D01*
X23500Y85751D01*
X27300Y85751D01*
X30810Y84297D01*
X33497Y81610D01*
X34951Y78100D01*
X34951Y74300D01*
X33497Y70790D01*
X30810Y68103D01*
X27300Y66649D01*
X23500Y66649D01*
G37*
%LPD*%
%LPC*%
G36*
X164215Y248845D02*
X164215Y248845D01*
X159145Y253915D01*
X159145Y261085D01*
X164215Y266155D01*
X171385Y266155D01*
X176455Y261085D01*
X176455Y253915D01*
X171385Y248845D01*
X164215Y248845D01*
G37*
%LPD*%
%LPC*%
G36*
X606015Y42145D02*
X606015Y42145D01*
X600945Y47215D01*
X600945Y54385D01*
X606015Y59455D01*
X613185Y59455D01*
X618255Y54385D01*
X618255Y47215D01*
X613185Y42145D01*
X606015Y42145D01*
G37*
%LPD*%
%LPC*%
G36*
X404678Y105645D02*
X404678Y105645D01*
X401497Y106963D01*
X399063Y109397D01*
X397745Y112578D01*
X397745Y116022D01*
X399063Y119203D01*
X401497Y121637D01*
X404678Y122955D01*
X408122Y122955D01*
X411303Y121637D01*
X413737Y119203D01*
X415055Y116022D01*
X415055Y112578D01*
X413737Y109397D01*
X411303Y106963D01*
X408122Y105645D01*
X404678Y105645D01*
G37*
%LPD*%
%LPC*%
G36*
X959216Y42609D02*
X959216Y42609D01*
X958569Y42782D01*
X957990Y43117D01*
X957517Y43590D01*
X957182Y44169D01*
X957009Y44816D01*
X957009Y55627D01*
X970027Y55627D01*
X970027Y42609D01*
X959216Y42609D01*
G37*
%LPD*%
%LPC*%
G36*
X598423Y149861D02*
X598423Y149861D01*
X605320Y149861D01*
X606899Y149611D01*
X608420Y149116D01*
X609845Y148390D01*
X611139Y147450D01*
X612270Y146319D01*
X612840Y145535D01*
X613210Y145025D01*
X613936Y143600D01*
X614431Y142079D01*
X614566Y141223D01*
X598423Y141223D01*
X598423Y149861D01*
G37*
%LPD*%
%LPC*%
G36*
X579234Y141223D02*
X579234Y141223D01*
X579369Y142079D01*
X579864Y143600D01*
X580590Y145025D01*
X581530Y146319D01*
X582661Y147450D01*
X583955Y148390D01*
X585380Y149116D01*
X586901Y149611D01*
X588480Y149861D01*
X595377Y149861D01*
X595377Y141223D01*
X579234Y141223D01*
G37*
%LPD*%
%LPC*%
G36*
X598423Y129539D02*
X598423Y129539D01*
X598423Y138177D01*
X614566Y138177D01*
X614431Y137321D01*
X613936Y135800D01*
X613210Y134375D01*
X612270Y133081D01*
X611139Y131950D01*
X609845Y131010D01*
X609254Y130709D01*
X608420Y130284D01*
X606899Y129789D01*
X605320Y129539D01*
X598423Y129539D01*
G37*
%LPD*%
%LPC*%
G36*
X588480Y129539D02*
X588480Y129539D01*
X586901Y129789D01*
X585380Y130284D01*
X583955Y131010D01*
X582661Y131950D01*
X581530Y133081D01*
X580590Y134375D01*
X579864Y135800D01*
X579369Y137321D01*
X579234Y138177D01*
X595377Y138177D01*
X595377Y129539D01*
X588480Y129539D01*
G37*
%LPD*%
%LPC*%
G36*
X458723Y77723D02*
X458723Y77723D01*
X458723Y86241D01*
X465034Y86241D01*
X465681Y86068D01*
X466260Y85733D01*
X466733Y85260D01*
X467068Y84681D01*
X467241Y84034D01*
X467241Y77723D01*
X458723Y77723D01*
G37*
%LPD*%
%LPC*%
G36*
X458723Y306323D02*
X458723Y306323D01*
X458723Y314841D01*
X465034Y314841D01*
X465681Y314668D01*
X466260Y314333D01*
X466733Y313860D01*
X467068Y313281D01*
X467241Y312634D01*
X467241Y306323D01*
X458723Y306323D01*
G37*
%LPD*%
%LPC*%
G36*
X447159Y77723D02*
X447159Y77723D01*
X447159Y84034D01*
X447332Y84681D01*
X447667Y85260D01*
X448140Y85733D01*
X448719Y86068D01*
X449366Y86241D01*
X455677Y86241D01*
X455677Y77723D01*
X447159Y77723D01*
G37*
%LPD*%
%LPC*%
G36*
X447159Y306323D02*
X447159Y306323D01*
X447159Y312634D01*
X447332Y313281D01*
X447667Y313860D01*
X448140Y314333D01*
X448719Y314668D01*
X449366Y314841D01*
X455677Y314841D01*
X455677Y306323D01*
X447159Y306323D01*
G37*
%LPD*%
%LPC*%
G36*
X458723Y66159D02*
X458723Y66159D01*
X458723Y74677D01*
X467241Y74677D01*
X467241Y68366D01*
X467068Y67719D01*
X466733Y67140D01*
X466260Y66667D01*
X465681Y66332D01*
X465034Y66159D01*
X458723Y66159D01*
G37*
%LPD*%
%LPC*%
G36*
X458723Y294759D02*
X458723Y294759D01*
X458723Y303277D01*
X467241Y303277D01*
X467241Y296966D01*
X467068Y296319D01*
X466733Y295740D01*
X466260Y295267D01*
X465681Y294932D01*
X465034Y294759D01*
X458723Y294759D01*
G37*
%LPD*%
%LPC*%
G36*
X449366Y66159D02*
X449366Y66159D01*
X448719Y66332D01*
X448140Y66667D01*
X447667Y67140D01*
X447332Y67719D01*
X447159Y68366D01*
X447159Y74677D01*
X455677Y74677D01*
X455677Y66159D01*
X449366Y66159D01*
G37*
%LPD*%
%LPC*%
G36*
X449366Y294759D02*
X449366Y294759D01*
X448719Y294932D01*
X448140Y295267D01*
X447667Y295740D01*
X447332Y296319D01*
X447159Y296966D01*
X447159Y303277D01*
X455677Y303277D01*
X455677Y294759D01*
X449366Y294759D01*
G37*
%LPD*%
%LPC*%
G36*
X637793Y280923D02*
X637793Y280923D01*
X637793Y289561D01*
X640479Y289561D01*
X646431Y283609D01*
X646431Y280923D01*
X637793Y280923D01*
G37*
%LPD*%
%LPC*%
G36*
X626109Y280923D02*
X626109Y280923D01*
X626109Y283609D01*
X632061Y289561D01*
X634747Y289561D01*
X634747Y280923D01*
X626109Y280923D01*
G37*
%LPD*%
%LPC*%
G36*
X637793Y269239D02*
X637793Y269239D01*
X637793Y277877D01*
X646431Y277877D01*
X646431Y275191D01*
X640479Y269239D01*
X637793Y269239D01*
G37*
%LPD*%
%LPC*%
G36*
X632061Y269239D02*
X632061Y269239D01*
X626109Y275191D01*
X626109Y277877D01*
X634747Y277877D01*
X634747Y269239D01*
X632061Y269239D01*
G37*
%LPD*%
%LPC*%
G36*
X407923Y136143D02*
X407923Y136143D01*
X407923Y143765D01*
X410188Y143765D01*
X415545Y138408D01*
X415545Y136143D01*
X407923Y136143D01*
G37*
%LPD*%
%LPC*%
G36*
X560323Y52323D02*
X560323Y52323D01*
X560323Y59945D01*
X562588Y59945D01*
X567945Y54588D01*
X567945Y52323D01*
X560323Y52323D01*
G37*
%LPD*%
%LPC*%
G36*
X649223Y52323D02*
X649223Y52323D01*
X649223Y59945D01*
X651488Y59945D01*
X656845Y54588D01*
X656845Y52323D01*
X649223Y52323D01*
G37*
%LPD*%
%LPC*%
G36*
X67723Y259023D02*
X67723Y259023D01*
X67723Y266645D01*
X69988Y266645D01*
X75345Y261288D01*
X75345Y259023D01*
X67723Y259023D01*
G37*
%LPD*%
%LPC*%
G36*
X549655Y52323D02*
X549655Y52323D01*
X549655Y54588D01*
X555012Y59945D01*
X557277Y59945D01*
X557277Y52323D01*
X549655Y52323D01*
G37*
%LPD*%
%LPC*%
G36*
X57055Y259023D02*
X57055Y259023D01*
X57055Y261288D01*
X62412Y266645D01*
X64677Y266645D01*
X64677Y259023D01*
X57055Y259023D01*
G37*
%LPD*%
%LPC*%
G36*
X67723Y248355D02*
X67723Y248355D01*
X67723Y255977D01*
X75345Y255977D01*
X75345Y253712D01*
X69988Y248355D01*
X67723Y248355D01*
G37*
%LPD*%
%LPC*%
G36*
X407923Y125475D02*
X407923Y125475D01*
X407923Y133097D01*
X415545Y133097D01*
X415545Y130832D01*
X410188Y125475D01*
X407923Y125475D01*
G37*
%LPD*%
%LPC*%
G36*
X638555Y52323D02*
X638555Y52323D01*
X638555Y54588D01*
X643912Y59945D01*
X646177Y59945D01*
X646177Y52323D01*
X638555Y52323D01*
G37*
%LPD*%
%LPC*%
G36*
X397255Y136143D02*
X397255Y136143D01*
X397255Y138408D01*
X402612Y143765D01*
X404877Y143765D01*
X404877Y136143D01*
X397255Y136143D01*
G37*
%LPD*%
%LPC*%
G36*
X649223Y41655D02*
X649223Y41655D01*
X649223Y49277D01*
X656845Y49277D01*
X656845Y47012D01*
X651488Y41655D01*
X649223Y41655D01*
G37*
%LPD*%
%LPC*%
G36*
X560323Y41655D02*
X560323Y41655D01*
X560323Y49277D01*
X567945Y49277D01*
X567945Y47012D01*
X562588Y41655D01*
X560323Y41655D01*
G37*
%LPD*%
%LPC*%
G36*
X402612Y125475D02*
X402612Y125475D01*
X397255Y130832D01*
X397255Y133097D01*
X404877Y133097D01*
X404877Y125475D01*
X402612Y125475D01*
G37*
%LPD*%
%LPC*%
G36*
X643912Y41655D02*
X643912Y41655D01*
X638555Y47012D01*
X638555Y49277D01*
X646177Y49277D01*
X646177Y41655D01*
X643912Y41655D01*
G37*
%LPD*%
%LPC*%
G36*
X62412Y248355D02*
X62412Y248355D01*
X57055Y253712D01*
X57055Y255977D01*
X64677Y255977D01*
X64677Y248355D01*
X62412Y248355D01*
G37*
%LPD*%
%LPC*%
G36*
X555012Y41655D02*
X555012Y41655D01*
X549655Y47012D01*
X549655Y49277D01*
X557277Y49277D01*
X557277Y41655D01*
X555012Y41655D01*
G37*
%LPD*%
%LPC*%
G36*
X687323Y52323D02*
X687323Y52323D01*
X687323Y59821D01*
X688467Y59593D01*
X690132Y58904D01*
X691630Y57903D01*
X692903Y56630D01*
X693904Y55132D01*
X694593Y53467D01*
X694821Y52323D01*
X687323Y52323D01*
G37*
%LPD*%
%LPC*%
G36*
X676779Y52323D02*
X676779Y52323D01*
X677007Y53467D01*
X677696Y55132D01*
X678697Y56630D01*
X679970Y57903D01*
X681468Y58904D01*
X683133Y59593D01*
X684277Y59821D01*
X684277Y52323D01*
X676779Y52323D01*
G37*
%LPD*%
%LPC*%
G36*
X687323Y49277D02*
X687323Y49277D01*
X694821Y49277D01*
X694593Y48133D01*
X693904Y46468D01*
X692903Y44970D01*
X691630Y43697D01*
X690132Y42696D01*
X688467Y42007D01*
X687323Y41779D01*
X687323Y49277D01*
G37*
%LPD*%
%LPC*%
G36*
X683133Y42007D02*
X683133Y42007D01*
X681468Y42696D01*
X679970Y43697D01*
X678697Y44970D01*
X677696Y46468D01*
X677007Y48133D01*
X676779Y49277D01*
X684277Y49277D01*
X684277Y41779D01*
X683133Y42007D01*
G37*
%LPD*%
%LPC*%
G36*
X872114Y264920D02*
X872114Y264920D01*
X871095Y265939D01*
X889486Y265939D01*
X888467Y264920D01*
X872114Y264920D01*
G37*
%LPD*%
%LPC*%
G36*
X596899Y139699D02*
X596899Y139699D01*
X596899Y139701D01*
X596901Y139701D01*
X596901Y139699D01*
X596899Y139699D01*
G37*
%LPD*%
%LPC*%
G36*
X66199Y257499D02*
X66199Y257499D01*
X66199Y257501D01*
X66201Y257501D01*
X66201Y257499D01*
X66199Y257499D01*
G37*
%LPD*%
%LPC*%
G36*
X457199Y304799D02*
X457199Y304799D01*
X457199Y304801D01*
X457201Y304801D01*
X457201Y304799D01*
X457199Y304799D01*
G37*
%LPD*%
%LPC*%
G36*
X636269Y279399D02*
X636269Y279399D01*
X636269Y279401D01*
X636271Y279401D01*
X636271Y279399D01*
X636269Y279399D01*
G37*
%LPD*%
%LPC*%
G36*
X406399Y134619D02*
X406399Y134619D01*
X406399Y134621D01*
X406401Y134621D01*
X406401Y134619D01*
X406399Y134619D01*
G37*
%LPD*%
%LPC*%
G36*
X647699Y50799D02*
X647699Y50799D01*
X647699Y50801D01*
X647701Y50801D01*
X647701Y50799D01*
X647699Y50799D01*
G37*
%LPD*%
%LPC*%
G36*
X685799Y50799D02*
X685799Y50799D01*
X685799Y50801D01*
X685801Y50801D01*
X685801Y50799D01*
X685799Y50799D01*
G37*
%LPD*%
%LPC*%
G36*
X558799Y50799D02*
X558799Y50799D01*
X558799Y50801D01*
X558801Y50801D01*
X558801Y50799D01*
X558799Y50799D01*
G37*
%LPD*%
%LPC*%
G36*
X457199Y76199D02*
X457199Y76199D01*
X457199Y76201D01*
X457201Y76201D01*
X457201Y76199D01*
X457199Y76199D01*
G37*
%LPD*%
D10*
X406400Y134620D03*
D11*
X406400Y114300D03*
D12*
X786130Y279400D03*
X636270Y279400D03*
D13*
X673100Y228600D03*
X673100Y177800D03*
D14*
X762000Y152400D03*
X762000Y50800D03*
X723900Y50800D03*
X723900Y152400D03*
X800100Y152400D03*
X800100Y50800D03*
D13*
X939800Y304800D03*
X939800Y203200D03*
D10*
X977900Y203200D03*
X977900Y304800D03*
D15*
X876300Y177800D03*
X977900Y177800D03*
D16*
X609600Y50800D03*
X558800Y50800D03*
D17*
X508000Y138430D03*
X508000Y214630D03*
D18*
X289800Y195900D03*
X274800Y195900D03*
X259800Y195900D03*
X244800Y195900D03*
D19*
X971550Y57150D03*
D17*
X533400Y127800D03*
X533400Y227800D03*
D14*
X838200Y76200D03*
X838200Y177800D03*
D11*
X685800Y152400D03*
X685800Y50800D03*
D16*
X419600Y198700D03*
X318000Y198700D03*
D10*
X647700Y50800D03*
X647700Y152400D03*
D20*
X880291Y284661D03*
X844369Y248739D03*
D21*
X604520Y241300D02*
X589280Y241300D01*
X589280Y215900D02*
X604520Y215900D01*
X604520Y190500D02*
X589280Y190500D01*
X589280Y165100D02*
X604520Y165100D01*
X604520Y139700D02*
X589280Y139700D01*
D19*
X896000Y120650D03*
X972200Y120650D03*
D22*
X457200Y304800D03*
D23*
X431800Y304800D03*
X406400Y304800D03*
X381000Y304800D03*
X355600Y304800D03*
X330200Y304800D03*
X304800Y304800D03*
X279400Y304800D03*
X254000Y304800D03*
X228600Y304800D03*
X203200Y304800D03*
X177800Y304800D03*
X152400Y304800D03*
X127000Y304800D03*
X101600Y304800D03*
X76200Y304800D03*
X50800Y304800D03*
X25400Y304800D03*
D22*
X457200Y76200D03*
D23*
X431800Y76200D03*
X406400Y76200D03*
X381000Y76200D03*
X355600Y76200D03*
X330200Y76200D03*
X304800Y76200D03*
X279400Y76200D03*
X254000Y76200D03*
X228600Y76200D03*
X203200Y76200D03*
X177800Y76200D03*
X152400Y76200D03*
X127000Y76200D03*
X101600Y76200D03*
X76200Y76200D03*
X50800Y76200D03*
X25400Y76200D03*
D15*
X66200Y257500D03*
X167800Y257500D03*
D24*
X345500Y243500D03*
D25*
X413300Y243500D01*
X419600Y237200D02*
X419600Y198700D01*
X419600Y237200D02*
X413300Y243500D01*
X508000Y138430D02*
X508000Y98000D01*
X495000Y85000D01*
D24*
X495000Y85000D03*
D25*
X153682Y294855D02*
X153682Y303790D01*
X152400Y304800D01*
D24*
X223227Y182227D03*
D25*
X223227Y261273D01*
X213000Y271500D01*
X177037Y271500D01*
X153682Y294855D01*
X128664Y303790D02*
X128664Y255716D01*
X184292Y200088D01*
X128664Y303790D02*
X127000Y304800D01*
D24*
X184292Y200088D03*
X711200Y177800D03*
X43000Y280000D03*
X43500Y260000D03*
X43500Y240000D03*
X43500Y220000D03*
X64000Y220000D03*
X84500Y220000D03*
X104500Y220000D03*
X125000Y220000D03*
X145000Y220000D03*
X184500Y218000D03*
X205500Y217500D03*
X237500Y221500D03*
X205000Y245000D03*
X236500Y249000D03*
X165500Y197000D03*
X155000Y186000D03*
X143500Y175000D03*
X125500Y170500D03*
X105000Y169500D03*
X90500Y163000D03*
X79000Y152000D03*
X68000Y140500D03*
X64000Y123500D03*
X64000Y102500D03*
X37500Y101500D03*
X37500Y120500D03*
X37500Y140000D03*
X27000Y49000D03*
X49500Y49000D03*
X74000Y49000D03*
X121500Y53500D03*
X152500Y53000D03*
X179500Y53000D03*
X204500Y52500D03*
X160000Y97500D03*
X184500Y97500D03*
X207000Y97500D03*
X228500Y97500D03*
X257500Y96500D03*
X279500Y96500D03*
X304500Y98000D03*
X328000Y98000D03*
X349500Y107500D03*
X364000Y122000D03*
X376500Y134500D03*
X389000Y147500D03*
X418000Y152500D03*
X438000Y152500D03*
X457500Y152000D03*
X478000Y152000D03*
X515000Y177500D03*
X494000Y177500D03*
X475000Y177500D03*
X455500Y177500D03*
X436000Y177500D03*
X413000Y178000D03*
X393500Y178500D03*
X376500Y171500D03*
X362500Y155500D03*
X350000Y143000D03*
X336500Y129000D03*
X315500Y125500D03*
X292500Y125500D03*
X270500Y125500D03*
X255000Y126000D03*
X228000Y126500D03*
X206500Y126500D03*
X187000Y126000D03*
X167000Y126000D03*
X143500Y125000D03*
X124500Y120500D03*
X110500Y110000D03*
X92500Y102500D03*
X195000Y176500D03*
X263000Y166500D03*
X298000Y170500D03*
X285500Y228500D03*
X338000Y217500D03*
X361000Y226000D03*
X276000Y260500D03*
X439000Y242500D03*
X467500Y246000D03*
X496000Y246000D03*
X479500Y294500D03*
X342500Y290500D03*
X240500Y290500D03*
X139000Y320000D03*
X87500Y286000D03*
D25*
X241559Y37841D02*
X246659Y32742D01*
X279404Y32738D01*
X427093Y75054D02*
X430667Y75054D01*
X431800Y76200D01*
X241458Y152500D02*
X241443Y192543D01*
X244800Y195900D01*
X241559Y37841D02*
X241458Y37740D01*
X384777Y32738D02*
X427093Y75054D01*
X384777Y32738D02*
X279404Y32738D01*
X241458Y37740D02*
X241458Y152500D01*
X244800Y195900D02*
X244800Y207800D01*
X251000Y214000D01*
X302700Y214000D02*
X316350Y200350D01*
X318000Y198700D01*
X302700Y214000D02*
X251000Y214000D01*
D24*
X317000Y267000D03*
D25*
X317000Y201000D01*
X316350Y200350D01*
D24*
X557100Y131600D03*
D26*
X563500Y241300D02*
X596900Y241300D01*
X563500Y241300D02*
X562300Y241300D01*
X557100Y236100D01*
X557100Y131600D01*
D24*
X863600Y317500D03*
D26*
X880291Y300810D02*
X880291Y284661D01*
X880291Y300810D02*
X863600Y317500D01*
D25*
X436028Y287707D02*
X436028Y271624D01*
D24*
X436028Y271624D03*
X436028Y287707D03*
D25*
X533254Y271546D02*
X563500Y241300D01*
X533254Y271546D02*
X436106Y271546D01*
X436028Y271624D01*
M02*
