M48
;GenerationSoftware,Autodesk,EAGLE,9.6.2*%
;CreationDate,2026-08-18T12:39:20Z*%
FMAT,2
ICI,OFF
METRIC,TZ,000.000
T9C0.350
T8C0.700
T7C0.813
T6C0.900
T5C1.000
T4C1.016
T3C1.118
T2C1.600
T1C2.500
%
G90
M71
T1
X3973Y17962
X50963Y30662
X50963Y5262
T2
X97155Y5715
X97220Y12065
X89600Y12065
T3
X76200Y15240
X76200Y5080
X72390Y5080
X72390Y15240
X80010Y15240
X80010Y5080
X83820Y7620
X83820Y17780
T4
X59690Y13970
X59690Y16510
X59690Y19050
X78613Y27940
X63627Y27940
X59690Y21590
X59690Y24130
T5
X50800Y21463
X53340Y12780
X53340Y22780
X50800Y13843
T6
X40640Y7620
X10160Y30480
X38100Y7620
X35560Y7620
X33020Y7620
X30480Y7620
X27940Y7620
X25400Y7620
X20320Y7620
X17780Y7620
X15240Y7620
X12700Y7620
X10160Y7620
X7620Y7620
X5080Y7620
X2540Y7620
X88029Y28466
X84437Y24874
X22860Y7620
X45720Y30480
X43180Y30480
X40640Y30480
X38100Y30480
X35560Y30480
X33020Y30480
X30480Y30480
X27940Y30480
X25400Y30480
X22860Y30480
X20320Y30480
X17780Y30480
X15240Y30480
X12700Y30480
X7620Y30480
X5080Y30480
X2540Y30480
X45720Y7620
X43180Y7620
T7
X97790Y20320
X40640Y13462
X40640Y11430
X67310Y22860
X93980Y30480
X93980Y20320
X97790Y30480
X87630Y17780
X97790Y17780
X60960Y5080
X55880Y5080
X41960Y19870
X68580Y5080
X68580Y15240
X64770Y15240
X64770Y5080
X67310Y17780
X31800Y19870
X6620Y25750
X16780Y25750
T8
X28980Y19590
X27480Y19590
X25980Y19590
X24480Y19590
T9
X49600Y24600
X47950Y29450
X34250Y29050
X24050Y29050
X13900Y32000
X10500Y16950
X31700Y26700
X55710Y13160
X86360Y31750
X43603Y27162
X43603Y28771
X34550Y24350
X49500Y8500
X22323Y18223
X18429Y20009
X71120Y17780
X4300Y28000
X4350Y26000
X4350Y24000
X4350Y22000
X6400Y22000
X8450Y22000
X10450Y22000
X12500Y22000
X14500Y22000
X18450Y21800
X20550Y21750
X23750Y22150
X8750Y28600
X20500Y24500
X23650Y24900
X16550Y19700
X15500Y18600
X14350Y17500
X12550Y17050
X9050Y16300
X7900Y15200
X6800Y14050
X6400Y12350
X6400Y10250
X3750Y10150
X3750Y12050
X3750Y14000
X2700Y4900
X4950Y4900
X7400Y4900
X12150Y5350
X15250Y5300
X17950Y5300
X20450Y5250
X16000Y9750
X18450Y9750
X20700Y9750
X22850Y9750
X25750Y9650
X27950Y9650
X30450Y9800
X32800Y9800
X34950Y10750
X36400Y12200
X37650Y13450
X38900Y14750
X41800Y15250
X43800Y15250
X45750Y15200
X47800Y15200
X51500Y17750
X49400Y17750
X47500Y17750
X45550Y17750
X43600Y17750
X41300Y17800
X39350Y17850
X37650Y17150
X25500Y12600
X36250Y15550
X35000Y14300
X33650Y12900
X31550Y12550
X29250Y12550
X27050Y12550
X22800Y12650
X20650Y12650
X18700Y12600
X16700Y12600
X14350Y12500
X12450Y12050
X11050Y11000
X9250Y10250
X19500Y17650
X26300Y16650
X29800Y17050
X28550Y22850
X33800Y21750
X36100Y22600
X27600Y26050
X43900Y24250
X46750Y24600
M30