G04 EAGLE Gerber RS-274X export*
G75*
%MOMM*%
%FSLAX34Y34*%
%LPD*%
%INSilkscreen Bottom*%
%IPPOS*%
%AMOC8*
5,1,8,0,0,1.08239X$1,22.5*%
G01*
%ADD10C,0.152400*%
%ADD11C,0.101600*%


D10*
X798068Y96012D02*
X798068Y113792D01*
X792141Y103914D01*
X786215Y113792D01*
X786215Y96012D01*
X778225Y98975D02*
X778225Y107865D01*
X778225Y98975D02*
X778223Y98869D01*
X778217Y98764D01*
X778208Y98658D01*
X778195Y98553D01*
X778178Y98449D01*
X778157Y98345D01*
X778133Y98242D01*
X778105Y98140D01*
X778073Y98039D01*
X778038Y97940D01*
X777999Y97841D01*
X777957Y97744D01*
X777912Y97649D01*
X777863Y97555D01*
X777810Y97463D01*
X777755Y97373D01*
X777696Y97285D01*
X777634Y97199D01*
X777569Y97116D01*
X777501Y97035D01*
X777431Y96956D01*
X777357Y96880D01*
X777281Y96806D01*
X777202Y96736D01*
X777121Y96668D01*
X777038Y96603D01*
X776952Y96541D01*
X776864Y96482D01*
X776774Y96427D01*
X776682Y96374D01*
X776588Y96325D01*
X776493Y96280D01*
X776396Y96238D01*
X776297Y96199D01*
X776198Y96164D01*
X776097Y96132D01*
X775995Y96104D01*
X775892Y96080D01*
X775788Y96059D01*
X775684Y96042D01*
X775579Y96029D01*
X775473Y96020D01*
X775368Y96014D01*
X775262Y96012D01*
X770323Y96012D01*
X770323Y107865D01*
X762855Y113792D02*
X762855Y98975D01*
X762854Y98975D02*
X762852Y98869D01*
X762846Y98764D01*
X762837Y98658D01*
X762824Y98553D01*
X762807Y98449D01*
X762786Y98345D01*
X762762Y98242D01*
X762734Y98140D01*
X762702Y98039D01*
X762667Y97940D01*
X762628Y97841D01*
X762586Y97744D01*
X762541Y97649D01*
X762492Y97555D01*
X762439Y97463D01*
X762384Y97373D01*
X762325Y97285D01*
X762263Y97199D01*
X762198Y97116D01*
X762130Y97035D01*
X762060Y96956D01*
X761986Y96880D01*
X761910Y96806D01*
X761831Y96736D01*
X761750Y96668D01*
X761667Y96603D01*
X761581Y96541D01*
X761493Y96482D01*
X761403Y96427D01*
X761311Y96374D01*
X761217Y96325D01*
X761122Y96280D01*
X761025Y96238D01*
X760926Y96199D01*
X760827Y96164D01*
X760726Y96132D01*
X760624Y96104D01*
X760521Y96080D01*
X760417Y96059D01*
X760313Y96042D01*
X760208Y96029D01*
X760102Y96020D01*
X759997Y96014D01*
X759891Y96012D01*
X755571Y107865D02*
X749644Y107865D01*
X753596Y113792D02*
X753596Y98975D01*
X753595Y98975D02*
X753593Y98869D01*
X753587Y98764D01*
X753578Y98658D01*
X753565Y98553D01*
X753548Y98449D01*
X753527Y98345D01*
X753503Y98242D01*
X753475Y98140D01*
X753443Y98039D01*
X753408Y97940D01*
X753369Y97841D01*
X753327Y97744D01*
X753282Y97649D01*
X753233Y97555D01*
X753180Y97463D01*
X753125Y97373D01*
X753066Y97285D01*
X753004Y97199D01*
X752939Y97116D01*
X752871Y97035D01*
X752801Y96956D01*
X752727Y96880D01*
X752651Y96806D01*
X752572Y96736D01*
X752491Y96668D01*
X752408Y96603D01*
X752322Y96541D01*
X752234Y96482D01*
X752144Y96427D01*
X752052Y96374D01*
X751958Y96325D01*
X751863Y96280D01*
X751766Y96238D01*
X751667Y96199D01*
X751568Y96164D01*
X751467Y96132D01*
X751365Y96104D01*
X751262Y96080D01*
X751158Y96059D01*
X751054Y96042D01*
X750949Y96029D01*
X750843Y96020D01*
X750738Y96014D01*
X750632Y96012D01*
X749644Y96012D01*
X743565Y96012D02*
X743565Y107865D01*
X744059Y112804D02*
X744059Y113792D01*
X743071Y113792D01*
X743071Y112804D01*
X744059Y112804D01*
X734013Y96012D02*
X729074Y96012D01*
X734013Y96012D02*
X734119Y96014D01*
X734224Y96020D01*
X734330Y96029D01*
X734435Y96042D01*
X734539Y96059D01*
X734643Y96080D01*
X734746Y96104D01*
X734848Y96132D01*
X734949Y96164D01*
X735048Y96199D01*
X735147Y96238D01*
X735244Y96280D01*
X735339Y96325D01*
X735433Y96374D01*
X735525Y96427D01*
X735615Y96482D01*
X735703Y96541D01*
X735789Y96603D01*
X735872Y96668D01*
X735953Y96736D01*
X736032Y96806D01*
X736108Y96880D01*
X736182Y96956D01*
X736252Y97035D01*
X736320Y97116D01*
X736385Y97199D01*
X736447Y97285D01*
X736506Y97373D01*
X736561Y97463D01*
X736614Y97555D01*
X736663Y97649D01*
X736708Y97744D01*
X736750Y97841D01*
X736789Y97940D01*
X736824Y98039D01*
X736856Y98140D01*
X736884Y98242D01*
X736908Y98345D01*
X736929Y98449D01*
X736946Y98553D01*
X736959Y98658D01*
X736968Y98764D01*
X736974Y98869D01*
X736976Y98975D01*
X736976Y104902D01*
X736974Y105008D01*
X736968Y105113D01*
X736959Y105219D01*
X736946Y105324D01*
X736929Y105428D01*
X736908Y105532D01*
X736884Y105635D01*
X736856Y105737D01*
X736824Y105838D01*
X736789Y105937D01*
X736750Y106036D01*
X736708Y106133D01*
X736663Y106228D01*
X736614Y106322D01*
X736561Y106414D01*
X736506Y106504D01*
X736447Y106592D01*
X736385Y106678D01*
X736320Y106761D01*
X736252Y106842D01*
X736182Y106921D01*
X736108Y106997D01*
X736032Y107071D01*
X735953Y107141D01*
X735872Y107209D01*
X735789Y107274D01*
X735703Y107336D01*
X735615Y107395D01*
X735525Y107450D01*
X735433Y107503D01*
X735339Y107552D01*
X735244Y107597D01*
X735147Y107639D01*
X735048Y107678D01*
X734949Y107713D01*
X734848Y107745D01*
X734746Y107773D01*
X734643Y107797D01*
X734539Y107818D01*
X734435Y107835D01*
X734330Y107848D01*
X734224Y107857D01*
X734119Y107863D01*
X734013Y107865D01*
X729074Y107865D01*
X729074Y93049D01*
X729076Y92943D01*
X729082Y92838D01*
X729091Y92732D01*
X729104Y92627D01*
X729121Y92523D01*
X729142Y92419D01*
X729166Y92316D01*
X729194Y92214D01*
X729226Y92113D01*
X729261Y92014D01*
X729300Y91915D01*
X729342Y91818D01*
X729387Y91723D01*
X729436Y91629D01*
X729489Y91537D01*
X729544Y91447D01*
X729603Y91359D01*
X729665Y91273D01*
X729730Y91190D01*
X729798Y91109D01*
X729868Y91030D01*
X729942Y90954D01*
X730018Y90880D01*
X730097Y90810D01*
X730178Y90742D01*
X730261Y90677D01*
X730347Y90615D01*
X730435Y90556D01*
X730525Y90501D01*
X730617Y90448D01*
X730711Y90399D01*
X730806Y90354D01*
X730903Y90312D01*
X731002Y90273D01*
X731101Y90238D01*
X731202Y90206D01*
X731304Y90178D01*
X731407Y90154D01*
X731511Y90133D01*
X731615Y90116D01*
X731720Y90103D01*
X731826Y90094D01*
X731931Y90088D01*
X732037Y90086D01*
X732037Y90085D02*
X735988Y90085D01*
X718869Y96012D02*
X713930Y96012D01*
X718869Y96012D02*
X718975Y96014D01*
X719080Y96020D01*
X719186Y96029D01*
X719291Y96042D01*
X719395Y96059D01*
X719499Y96080D01*
X719602Y96104D01*
X719704Y96132D01*
X719805Y96164D01*
X719904Y96199D01*
X720003Y96238D01*
X720100Y96280D01*
X720195Y96325D01*
X720289Y96374D01*
X720381Y96427D01*
X720471Y96482D01*
X720559Y96541D01*
X720645Y96603D01*
X720728Y96668D01*
X720809Y96736D01*
X720888Y96806D01*
X720964Y96880D01*
X721038Y96956D01*
X721108Y97035D01*
X721176Y97116D01*
X721241Y97199D01*
X721303Y97285D01*
X721362Y97373D01*
X721417Y97463D01*
X721470Y97555D01*
X721519Y97649D01*
X721564Y97744D01*
X721606Y97841D01*
X721645Y97940D01*
X721680Y98039D01*
X721712Y98140D01*
X721740Y98242D01*
X721764Y98345D01*
X721785Y98449D01*
X721802Y98553D01*
X721815Y98658D01*
X721824Y98764D01*
X721830Y98869D01*
X721832Y98975D01*
X721832Y103914D01*
X721830Y104038D01*
X721824Y104162D01*
X721814Y104286D01*
X721801Y104409D01*
X721783Y104532D01*
X721762Y104654D01*
X721737Y104776D01*
X721708Y104897D01*
X721675Y105016D01*
X721639Y105135D01*
X721598Y105252D01*
X721555Y105368D01*
X721507Y105483D01*
X721456Y105596D01*
X721401Y105708D01*
X721343Y105817D01*
X721282Y105925D01*
X721217Y106031D01*
X721149Y106135D01*
X721077Y106236D01*
X721003Y106336D01*
X720925Y106432D01*
X720845Y106527D01*
X720761Y106619D01*
X720675Y106708D01*
X720586Y106794D01*
X720494Y106878D01*
X720399Y106958D01*
X720303Y107036D01*
X720203Y107110D01*
X720102Y107182D01*
X719998Y107250D01*
X719892Y107315D01*
X719784Y107376D01*
X719675Y107434D01*
X719563Y107489D01*
X719450Y107540D01*
X719335Y107588D01*
X719219Y107631D01*
X719102Y107672D01*
X718983Y107708D01*
X718864Y107741D01*
X718743Y107770D01*
X718621Y107795D01*
X718499Y107816D01*
X718376Y107834D01*
X718253Y107847D01*
X718129Y107857D01*
X718005Y107863D01*
X717881Y107865D01*
X717757Y107863D01*
X717633Y107857D01*
X717509Y107847D01*
X717386Y107834D01*
X717263Y107816D01*
X717141Y107795D01*
X717019Y107770D01*
X716898Y107741D01*
X716779Y107708D01*
X716660Y107672D01*
X716543Y107631D01*
X716427Y107588D01*
X716312Y107540D01*
X716199Y107489D01*
X716087Y107434D01*
X715978Y107376D01*
X715870Y107315D01*
X715764Y107250D01*
X715660Y107182D01*
X715559Y107110D01*
X715459Y107036D01*
X715363Y106958D01*
X715268Y106878D01*
X715176Y106794D01*
X715087Y106708D01*
X715001Y106619D01*
X714917Y106527D01*
X714837Y106432D01*
X714759Y106336D01*
X714685Y106236D01*
X714613Y106135D01*
X714545Y106031D01*
X714480Y105925D01*
X714419Y105817D01*
X714361Y105708D01*
X714306Y105596D01*
X714255Y105483D01*
X714207Y105368D01*
X714164Y105252D01*
X714123Y105135D01*
X714087Y105016D01*
X714054Y104897D01*
X714025Y104776D01*
X714000Y104654D01*
X713979Y104532D01*
X713961Y104409D01*
X713948Y104286D01*
X713938Y104162D01*
X713932Y104038D01*
X713930Y103914D01*
X713930Y101939D01*
X721832Y101939D01*
X707272Y107865D02*
X707272Y96012D01*
X707766Y112804D02*
X707766Y113792D01*
X706779Y113792D01*
X706779Y112804D01*
X707766Y112804D01*
X697720Y96012D02*
X692781Y96012D01*
X697720Y96012D02*
X697826Y96014D01*
X697931Y96020D01*
X698037Y96029D01*
X698142Y96042D01*
X698246Y96059D01*
X698350Y96080D01*
X698453Y96104D01*
X698555Y96132D01*
X698656Y96164D01*
X698755Y96199D01*
X698854Y96238D01*
X698951Y96280D01*
X699046Y96325D01*
X699140Y96374D01*
X699232Y96427D01*
X699322Y96482D01*
X699410Y96541D01*
X699496Y96603D01*
X699579Y96668D01*
X699660Y96736D01*
X699739Y96806D01*
X699815Y96880D01*
X699889Y96956D01*
X699959Y97035D01*
X700027Y97116D01*
X700092Y97199D01*
X700154Y97285D01*
X700213Y97373D01*
X700268Y97463D01*
X700321Y97555D01*
X700370Y97649D01*
X700415Y97744D01*
X700457Y97841D01*
X700496Y97940D01*
X700531Y98039D01*
X700563Y98140D01*
X700591Y98242D01*
X700615Y98345D01*
X700636Y98449D01*
X700653Y98553D01*
X700666Y98658D01*
X700675Y98764D01*
X700681Y98869D01*
X700683Y98975D01*
X700683Y104902D01*
X700681Y105008D01*
X700675Y105113D01*
X700666Y105219D01*
X700653Y105324D01*
X700636Y105428D01*
X700615Y105532D01*
X700591Y105635D01*
X700563Y105737D01*
X700531Y105838D01*
X700496Y105937D01*
X700457Y106036D01*
X700415Y106133D01*
X700370Y106228D01*
X700321Y106322D01*
X700268Y106414D01*
X700213Y106504D01*
X700154Y106592D01*
X700092Y106678D01*
X700027Y106761D01*
X699959Y106842D01*
X699889Y106921D01*
X699815Y106997D01*
X699739Y107071D01*
X699660Y107141D01*
X699579Y107209D01*
X699496Y107274D01*
X699410Y107336D01*
X699322Y107395D01*
X699232Y107450D01*
X699140Y107503D01*
X699046Y107552D01*
X698951Y107597D01*
X698854Y107639D01*
X698755Y107678D01*
X698656Y107713D01*
X698555Y107745D01*
X698453Y107773D01*
X698350Y107797D01*
X698246Y107818D01*
X698142Y107835D01*
X698037Y107848D01*
X697931Y107857D01*
X697826Y107863D01*
X697720Y107865D01*
X692781Y107865D01*
X692781Y93049D01*
X692783Y92943D01*
X692789Y92838D01*
X692798Y92732D01*
X692811Y92627D01*
X692828Y92523D01*
X692849Y92419D01*
X692873Y92316D01*
X692901Y92214D01*
X692933Y92113D01*
X692968Y92014D01*
X693007Y91915D01*
X693049Y91818D01*
X693094Y91723D01*
X693143Y91629D01*
X693196Y91537D01*
X693251Y91447D01*
X693310Y91359D01*
X693372Y91273D01*
X693437Y91190D01*
X693505Y91109D01*
X693575Y91030D01*
X693649Y90954D01*
X693725Y90880D01*
X693804Y90810D01*
X693885Y90742D01*
X693968Y90677D01*
X694054Y90615D01*
X694142Y90556D01*
X694232Y90501D01*
X694324Y90448D01*
X694418Y90399D01*
X694513Y90354D01*
X694610Y90312D01*
X694709Y90273D01*
X694808Y90238D01*
X694909Y90206D01*
X695011Y90178D01*
X695114Y90154D01*
X695218Y90133D01*
X695322Y90116D01*
X695427Y90103D01*
X695533Y90094D01*
X695638Y90088D01*
X695744Y90086D01*
X695744Y90085D02*
X699696Y90085D01*
X682576Y96012D02*
X677637Y96012D01*
X682576Y96012D02*
X682682Y96014D01*
X682787Y96020D01*
X682893Y96029D01*
X682998Y96042D01*
X683102Y96059D01*
X683206Y96080D01*
X683309Y96104D01*
X683411Y96132D01*
X683512Y96164D01*
X683611Y96199D01*
X683710Y96238D01*
X683807Y96280D01*
X683902Y96325D01*
X683996Y96374D01*
X684088Y96427D01*
X684178Y96482D01*
X684266Y96541D01*
X684352Y96603D01*
X684435Y96668D01*
X684516Y96736D01*
X684595Y96806D01*
X684671Y96880D01*
X684745Y96956D01*
X684815Y97035D01*
X684883Y97116D01*
X684948Y97199D01*
X685010Y97285D01*
X685069Y97373D01*
X685124Y97463D01*
X685177Y97555D01*
X685226Y97649D01*
X685271Y97744D01*
X685313Y97841D01*
X685352Y97940D01*
X685387Y98039D01*
X685419Y98140D01*
X685447Y98242D01*
X685471Y98345D01*
X685492Y98449D01*
X685509Y98553D01*
X685522Y98658D01*
X685531Y98764D01*
X685537Y98869D01*
X685539Y98975D01*
X685540Y98975D02*
X685540Y103914D01*
X685539Y103914D02*
X685537Y104038D01*
X685531Y104162D01*
X685521Y104286D01*
X685508Y104409D01*
X685490Y104532D01*
X685469Y104654D01*
X685444Y104776D01*
X685415Y104897D01*
X685382Y105016D01*
X685346Y105135D01*
X685305Y105252D01*
X685262Y105368D01*
X685214Y105483D01*
X685163Y105596D01*
X685108Y105708D01*
X685050Y105817D01*
X684989Y105925D01*
X684924Y106031D01*
X684856Y106135D01*
X684784Y106236D01*
X684710Y106336D01*
X684632Y106432D01*
X684552Y106527D01*
X684468Y106619D01*
X684382Y106708D01*
X684293Y106794D01*
X684201Y106878D01*
X684106Y106958D01*
X684010Y107036D01*
X683910Y107110D01*
X683809Y107182D01*
X683705Y107250D01*
X683599Y107315D01*
X683491Y107376D01*
X683382Y107434D01*
X683270Y107489D01*
X683157Y107540D01*
X683042Y107588D01*
X682926Y107631D01*
X682809Y107672D01*
X682690Y107708D01*
X682571Y107741D01*
X682450Y107770D01*
X682328Y107795D01*
X682206Y107816D01*
X682083Y107834D01*
X681960Y107847D01*
X681836Y107857D01*
X681712Y107863D01*
X681588Y107865D01*
X681464Y107863D01*
X681340Y107857D01*
X681216Y107847D01*
X681093Y107834D01*
X680970Y107816D01*
X680848Y107795D01*
X680726Y107770D01*
X680605Y107741D01*
X680486Y107708D01*
X680367Y107672D01*
X680250Y107631D01*
X680134Y107588D01*
X680019Y107540D01*
X679906Y107489D01*
X679794Y107434D01*
X679685Y107376D01*
X679577Y107315D01*
X679471Y107250D01*
X679367Y107182D01*
X679266Y107110D01*
X679166Y107036D01*
X679070Y106958D01*
X678975Y106878D01*
X678883Y106794D01*
X678794Y106708D01*
X678708Y106619D01*
X678624Y106527D01*
X678544Y106432D01*
X678466Y106336D01*
X678392Y106236D01*
X678320Y106135D01*
X678252Y106031D01*
X678187Y105925D01*
X678126Y105817D01*
X678068Y105708D01*
X678013Y105596D01*
X677962Y105483D01*
X677914Y105368D01*
X677871Y105252D01*
X677830Y105135D01*
X677794Y105016D01*
X677761Y104897D01*
X677732Y104776D01*
X677707Y104654D01*
X677686Y104532D01*
X677668Y104409D01*
X677655Y104286D01*
X677645Y104162D01*
X677639Y104038D01*
X677637Y103914D01*
X677637Y101939D01*
X685540Y101939D01*
X670384Y96012D02*
X670384Y107865D01*
X664457Y107865D01*
X664457Y105890D01*
D11*
X793919Y71628D02*
X798322Y84836D01*
X789517Y84836D02*
X793919Y71628D01*
X777959Y81901D02*
X774290Y84836D01*
X774290Y71628D01*
X777959Y71628D02*
X770621Y71628D01*
X765696Y71628D02*
X765696Y72362D01*
X764962Y72362D01*
X764962Y71628D01*
X765696Y71628D01*
X760037Y81901D02*
X756368Y84836D01*
X756368Y71628D01*
X760037Y71628D02*
X752699Y71628D01*
X747235Y78232D02*
X747232Y78492D01*
X747223Y78751D01*
X747207Y79011D01*
X747185Y79270D01*
X747158Y79528D01*
X747124Y79786D01*
X747083Y80042D01*
X747037Y80298D01*
X746985Y80553D01*
X746926Y80806D01*
X746862Y81057D01*
X746791Y81308D01*
X746715Y81556D01*
X746633Y81802D01*
X746545Y82047D01*
X746451Y82289D01*
X746351Y82529D01*
X746245Y82766D01*
X746134Y83001D01*
X746135Y83002D02*
X746100Y83097D01*
X746062Y83192D01*
X746020Y83285D01*
X745974Y83376D01*
X745925Y83466D01*
X745873Y83554D01*
X745818Y83639D01*
X745759Y83723D01*
X745697Y83804D01*
X745633Y83883D01*
X745565Y83959D01*
X745494Y84033D01*
X745421Y84104D01*
X745345Y84172D01*
X745267Y84238D01*
X745186Y84300D01*
X745103Y84360D01*
X745018Y84416D01*
X744931Y84469D01*
X744842Y84518D01*
X744751Y84564D01*
X744658Y84607D01*
X744564Y84646D01*
X744468Y84682D01*
X744371Y84714D01*
X744273Y84743D01*
X744174Y84767D01*
X744074Y84788D01*
X743974Y84805D01*
X743873Y84819D01*
X743771Y84828D01*
X743669Y84834D01*
X743567Y84836D01*
X743465Y84834D01*
X743363Y84828D01*
X743261Y84819D01*
X743160Y84805D01*
X743060Y84788D01*
X742960Y84767D01*
X742861Y84743D01*
X742763Y84714D01*
X742666Y84682D01*
X742570Y84646D01*
X742476Y84607D01*
X742383Y84564D01*
X742292Y84518D01*
X742203Y84469D01*
X742116Y84416D01*
X742031Y84360D01*
X741948Y84300D01*
X741867Y84238D01*
X741789Y84172D01*
X741713Y84104D01*
X741640Y84033D01*
X741569Y83959D01*
X741501Y83883D01*
X741437Y83804D01*
X741375Y83723D01*
X741316Y83639D01*
X741261Y83554D01*
X741209Y83466D01*
X741160Y83376D01*
X741114Y83285D01*
X741072Y83192D01*
X741034Y83097D01*
X740999Y83002D01*
X740999Y83001D02*
X740888Y82767D01*
X740782Y82529D01*
X740682Y82289D01*
X740588Y82047D01*
X740500Y81802D01*
X740418Y81556D01*
X740342Y81308D01*
X740271Y81058D01*
X740207Y80806D01*
X740148Y80553D01*
X740096Y80298D01*
X740050Y80042D01*
X740009Y79786D01*
X739975Y79528D01*
X739948Y79270D01*
X739926Y79011D01*
X739910Y78751D01*
X739901Y78492D01*
X739898Y78232D01*
X747236Y78232D02*
X747233Y77972D01*
X747224Y77712D01*
X747208Y77453D01*
X747186Y77194D01*
X747159Y76936D01*
X747125Y76678D01*
X747084Y76421D01*
X747038Y76166D01*
X746986Y75911D01*
X746927Y75658D01*
X746863Y75406D01*
X746792Y75156D01*
X746716Y74908D01*
X746634Y74661D01*
X746546Y74417D01*
X746452Y74175D01*
X746352Y73935D01*
X746246Y73697D01*
X746135Y73462D01*
X746100Y73367D01*
X746062Y73272D01*
X746020Y73179D01*
X745974Y73088D01*
X745925Y72998D01*
X745873Y72910D01*
X745818Y72825D01*
X745759Y72741D01*
X745697Y72660D01*
X745633Y72581D01*
X745565Y72505D01*
X745494Y72431D01*
X745421Y72360D01*
X745345Y72292D01*
X745267Y72226D01*
X745186Y72164D01*
X745103Y72104D01*
X745018Y72048D01*
X744931Y71995D01*
X744842Y71946D01*
X744751Y71900D01*
X744658Y71857D01*
X744564Y71818D01*
X744468Y71782D01*
X744371Y71750D01*
X744273Y71721D01*
X744174Y71697D01*
X744074Y71676D01*
X743974Y71659D01*
X743873Y71645D01*
X743771Y71636D01*
X743669Y71630D01*
X743567Y71628D01*
X740999Y73463D02*
X740888Y73698D01*
X740782Y73935D01*
X740682Y74175D01*
X740588Y74417D01*
X740500Y74662D01*
X740418Y74908D01*
X740342Y75156D01*
X740271Y75407D01*
X740207Y75658D01*
X740148Y75911D01*
X740096Y76166D01*
X740050Y76422D01*
X740009Y76678D01*
X739975Y76936D01*
X739948Y77194D01*
X739926Y77453D01*
X739910Y77713D01*
X739901Y77972D01*
X739898Y78232D01*
X740999Y73462D02*
X741034Y73367D01*
X741072Y73272D01*
X741114Y73179D01*
X741160Y73088D01*
X741209Y72998D01*
X741261Y72910D01*
X741316Y72825D01*
X741375Y72741D01*
X741437Y72660D01*
X741501Y72581D01*
X741569Y72505D01*
X741640Y72431D01*
X741713Y72360D01*
X741789Y72292D01*
X741867Y72226D01*
X741948Y72164D01*
X742031Y72104D01*
X742116Y72048D01*
X742203Y71995D01*
X742292Y71946D01*
X742383Y71900D01*
X742476Y71857D01*
X742570Y71818D01*
X742666Y71782D01*
X742763Y71750D01*
X742861Y71721D01*
X742960Y71697D01*
X743060Y71676D01*
X743160Y71659D01*
X743261Y71645D01*
X743363Y71636D01*
X743465Y71630D01*
X743567Y71628D01*
X746502Y74563D02*
X740631Y81901D01*
X723571Y84836D02*
X723458Y84834D01*
X723346Y84828D01*
X723233Y84819D01*
X723121Y84805D01*
X723010Y84788D01*
X722899Y84767D01*
X722789Y84742D01*
X722680Y84714D01*
X722572Y84681D01*
X722465Y84645D01*
X722360Y84606D01*
X722255Y84563D01*
X722153Y84516D01*
X722052Y84466D01*
X721953Y84412D01*
X721855Y84355D01*
X721760Y84295D01*
X721667Y84232D01*
X721576Y84165D01*
X721487Y84095D01*
X721401Y84023D01*
X721317Y83947D01*
X721236Y83869D01*
X721158Y83788D01*
X721082Y83704D01*
X721010Y83618D01*
X720940Y83529D01*
X720873Y83438D01*
X720810Y83345D01*
X720750Y83250D01*
X720693Y83152D01*
X720639Y83053D01*
X720589Y82952D01*
X720542Y82850D01*
X720499Y82745D01*
X720460Y82640D01*
X720424Y82533D01*
X720391Y82425D01*
X720363Y82316D01*
X720338Y82206D01*
X720317Y82095D01*
X720300Y81984D01*
X720286Y81872D01*
X720277Y81759D01*
X720271Y81647D01*
X720269Y81534D01*
X723571Y84836D02*
X723698Y84834D01*
X723825Y84828D01*
X723952Y84819D01*
X724078Y84806D01*
X724204Y84789D01*
X724329Y84768D01*
X724454Y84743D01*
X724577Y84715D01*
X724700Y84683D01*
X724822Y84647D01*
X724943Y84608D01*
X725063Y84565D01*
X725181Y84519D01*
X725298Y84469D01*
X725413Y84415D01*
X725526Y84358D01*
X725638Y84298D01*
X725748Y84235D01*
X725856Y84168D01*
X725962Y84098D01*
X726066Y84025D01*
X726168Y83948D01*
X726267Y83869D01*
X726364Y83787D01*
X726458Y83702D01*
X726550Y83614D01*
X726639Y83524D01*
X726725Y83430D01*
X726809Y83335D01*
X726889Y83237D01*
X726967Y83136D01*
X727042Y83033D01*
X727113Y82928D01*
X727181Y82821D01*
X727246Y82712D01*
X727308Y82601D01*
X727367Y82488D01*
X727422Y82374D01*
X727473Y82258D01*
X727521Y82140D01*
X727566Y82021D01*
X727607Y81901D01*
X721369Y78966D02*
X721287Y79046D01*
X721208Y79129D01*
X721131Y79215D01*
X721057Y79303D01*
X720987Y79394D01*
X720919Y79486D01*
X720854Y79581D01*
X720792Y79678D01*
X720734Y79777D01*
X720678Y79878D01*
X720626Y79980D01*
X720578Y80084D01*
X720533Y80190D01*
X720491Y80297D01*
X720452Y80405D01*
X720418Y80515D01*
X720386Y80625D01*
X720359Y80737D01*
X720335Y80849D01*
X720314Y80962D01*
X720298Y81076D01*
X720285Y81190D01*
X720275Y81304D01*
X720270Y81419D01*
X720268Y81534D01*
X721369Y78966D02*
X727606Y71628D01*
X720269Y71628D01*
X714804Y78232D02*
X714801Y78492D01*
X714792Y78751D01*
X714776Y79011D01*
X714754Y79270D01*
X714727Y79528D01*
X714693Y79786D01*
X714652Y80042D01*
X714606Y80298D01*
X714554Y80553D01*
X714495Y80806D01*
X714431Y81057D01*
X714360Y81308D01*
X714284Y81556D01*
X714202Y81802D01*
X714114Y82047D01*
X714020Y82289D01*
X713920Y82529D01*
X713814Y82766D01*
X713703Y83001D01*
X713704Y83002D02*
X713669Y83097D01*
X713631Y83192D01*
X713589Y83285D01*
X713543Y83376D01*
X713494Y83466D01*
X713442Y83554D01*
X713387Y83639D01*
X713328Y83723D01*
X713266Y83804D01*
X713202Y83883D01*
X713134Y83959D01*
X713063Y84033D01*
X712990Y84104D01*
X712914Y84172D01*
X712836Y84238D01*
X712755Y84300D01*
X712672Y84360D01*
X712587Y84416D01*
X712500Y84469D01*
X712411Y84518D01*
X712320Y84564D01*
X712227Y84607D01*
X712133Y84646D01*
X712037Y84682D01*
X711940Y84714D01*
X711842Y84743D01*
X711743Y84767D01*
X711643Y84788D01*
X711543Y84805D01*
X711442Y84819D01*
X711340Y84828D01*
X711238Y84834D01*
X711136Y84836D01*
X711034Y84834D01*
X710932Y84828D01*
X710830Y84819D01*
X710729Y84805D01*
X710629Y84788D01*
X710529Y84767D01*
X710430Y84743D01*
X710332Y84714D01*
X710235Y84682D01*
X710139Y84646D01*
X710045Y84607D01*
X709952Y84564D01*
X709861Y84518D01*
X709772Y84469D01*
X709685Y84416D01*
X709600Y84360D01*
X709517Y84300D01*
X709436Y84238D01*
X709358Y84172D01*
X709282Y84104D01*
X709209Y84033D01*
X709138Y83959D01*
X709070Y83883D01*
X709006Y83804D01*
X708944Y83723D01*
X708885Y83639D01*
X708830Y83554D01*
X708778Y83466D01*
X708729Y83376D01*
X708683Y83285D01*
X708641Y83192D01*
X708603Y83097D01*
X708568Y83002D01*
X708568Y83001D02*
X708457Y82767D01*
X708351Y82529D01*
X708251Y82289D01*
X708157Y82047D01*
X708069Y81802D01*
X707987Y81556D01*
X707911Y81308D01*
X707840Y81058D01*
X707776Y80806D01*
X707717Y80553D01*
X707665Y80298D01*
X707619Y80042D01*
X707578Y79786D01*
X707544Y79528D01*
X707517Y79270D01*
X707495Y79011D01*
X707479Y78751D01*
X707470Y78492D01*
X707467Y78232D01*
X714805Y78232D02*
X714802Y77972D01*
X714793Y77712D01*
X714777Y77453D01*
X714755Y77194D01*
X714728Y76936D01*
X714694Y76678D01*
X714653Y76421D01*
X714607Y76166D01*
X714555Y75911D01*
X714496Y75658D01*
X714432Y75406D01*
X714361Y75156D01*
X714285Y74908D01*
X714203Y74661D01*
X714115Y74417D01*
X714021Y74175D01*
X713921Y73935D01*
X713815Y73697D01*
X713704Y73462D01*
X713669Y73367D01*
X713631Y73272D01*
X713589Y73179D01*
X713543Y73088D01*
X713494Y72998D01*
X713442Y72910D01*
X713387Y72825D01*
X713328Y72741D01*
X713266Y72660D01*
X713202Y72581D01*
X713134Y72505D01*
X713063Y72431D01*
X712990Y72360D01*
X712914Y72292D01*
X712836Y72226D01*
X712755Y72164D01*
X712672Y72104D01*
X712587Y72048D01*
X712500Y71995D01*
X712411Y71946D01*
X712320Y71900D01*
X712227Y71857D01*
X712133Y71818D01*
X712037Y71782D01*
X711940Y71750D01*
X711842Y71721D01*
X711743Y71697D01*
X711643Y71676D01*
X711543Y71659D01*
X711442Y71645D01*
X711340Y71636D01*
X711238Y71630D01*
X711136Y71628D01*
X708568Y73463D02*
X708457Y73698D01*
X708351Y73935D01*
X708251Y74175D01*
X708157Y74417D01*
X708069Y74662D01*
X707987Y74908D01*
X707911Y75156D01*
X707840Y75407D01*
X707776Y75658D01*
X707717Y75911D01*
X707665Y76166D01*
X707619Y76422D01*
X707578Y76678D01*
X707544Y76936D01*
X707517Y77194D01*
X707495Y77453D01*
X707479Y77713D01*
X707470Y77972D01*
X707467Y78232D01*
X708568Y73462D02*
X708603Y73367D01*
X708641Y73272D01*
X708683Y73179D01*
X708729Y73088D01*
X708778Y72998D01*
X708830Y72910D01*
X708885Y72825D01*
X708944Y72741D01*
X709006Y72660D01*
X709070Y72581D01*
X709138Y72505D01*
X709209Y72431D01*
X709282Y72360D01*
X709358Y72292D01*
X709436Y72226D01*
X709517Y72164D01*
X709600Y72104D01*
X709685Y72048D01*
X709772Y71995D01*
X709861Y71946D01*
X709952Y71900D01*
X710045Y71857D01*
X710139Y71818D01*
X710235Y71782D01*
X710332Y71750D01*
X710430Y71721D01*
X710529Y71697D01*
X710629Y71676D01*
X710729Y71659D01*
X710830Y71645D01*
X710932Y71636D01*
X711034Y71630D01*
X711136Y71628D01*
X714071Y74563D02*
X708201Y81901D01*
X697967Y84836D02*
X697854Y84834D01*
X697742Y84828D01*
X697629Y84819D01*
X697517Y84805D01*
X697406Y84788D01*
X697295Y84767D01*
X697185Y84742D01*
X697076Y84714D01*
X696968Y84681D01*
X696861Y84645D01*
X696756Y84606D01*
X696651Y84563D01*
X696549Y84516D01*
X696448Y84466D01*
X696349Y84412D01*
X696251Y84355D01*
X696156Y84295D01*
X696063Y84232D01*
X695972Y84165D01*
X695883Y84095D01*
X695797Y84023D01*
X695713Y83947D01*
X695632Y83869D01*
X695554Y83788D01*
X695478Y83704D01*
X695406Y83618D01*
X695336Y83529D01*
X695269Y83438D01*
X695206Y83345D01*
X695146Y83250D01*
X695089Y83152D01*
X695035Y83053D01*
X694985Y82952D01*
X694938Y82850D01*
X694895Y82745D01*
X694856Y82640D01*
X694820Y82533D01*
X694787Y82425D01*
X694759Y82316D01*
X694734Y82206D01*
X694713Y82095D01*
X694696Y81984D01*
X694682Y81872D01*
X694673Y81759D01*
X694667Y81647D01*
X694665Y81534D01*
X697967Y84836D02*
X698094Y84834D01*
X698221Y84828D01*
X698348Y84819D01*
X698474Y84806D01*
X698600Y84789D01*
X698725Y84768D01*
X698850Y84743D01*
X698973Y84715D01*
X699096Y84683D01*
X699218Y84647D01*
X699339Y84608D01*
X699459Y84565D01*
X699577Y84519D01*
X699694Y84469D01*
X699809Y84415D01*
X699922Y84358D01*
X700034Y84298D01*
X700144Y84235D01*
X700252Y84168D01*
X700358Y84098D01*
X700462Y84025D01*
X700564Y83948D01*
X700663Y83869D01*
X700760Y83787D01*
X700854Y83702D01*
X700946Y83614D01*
X701035Y83524D01*
X701121Y83430D01*
X701205Y83335D01*
X701285Y83237D01*
X701363Y83136D01*
X701438Y83033D01*
X701509Y82928D01*
X701577Y82821D01*
X701642Y82712D01*
X701704Y82601D01*
X701763Y82488D01*
X701818Y82374D01*
X701869Y82258D01*
X701917Y82140D01*
X701962Y82021D01*
X702003Y81901D01*
X695766Y78966D02*
X695684Y79046D01*
X695605Y79129D01*
X695528Y79215D01*
X695454Y79303D01*
X695384Y79394D01*
X695316Y79486D01*
X695251Y79581D01*
X695189Y79678D01*
X695131Y79777D01*
X695075Y79878D01*
X695023Y79980D01*
X694975Y80084D01*
X694930Y80190D01*
X694888Y80297D01*
X694849Y80405D01*
X694815Y80515D01*
X694783Y80625D01*
X694756Y80737D01*
X694732Y80849D01*
X694711Y80962D01*
X694695Y81076D01*
X694682Y81190D01*
X694672Y81304D01*
X694667Y81419D01*
X694665Y81534D01*
X695766Y78966D02*
X702003Y71628D01*
X694665Y71628D01*
X689202Y78966D02*
X684799Y78966D01*
X684692Y78964D01*
X684585Y78958D01*
X684478Y78948D01*
X684372Y78935D01*
X684266Y78917D01*
X684161Y78896D01*
X684057Y78871D01*
X683953Y78842D01*
X683851Y78809D01*
X683751Y78772D01*
X683651Y78732D01*
X683553Y78688D01*
X683457Y78641D01*
X683363Y78590D01*
X683270Y78536D01*
X683180Y78479D01*
X683091Y78418D01*
X683005Y78354D01*
X682922Y78287D01*
X682840Y78217D01*
X682762Y78144D01*
X682686Y78068D01*
X682613Y77990D01*
X682543Y77908D01*
X682476Y77825D01*
X682412Y77739D01*
X682351Y77650D01*
X682294Y77560D01*
X682240Y77467D01*
X682189Y77373D01*
X682142Y77277D01*
X682098Y77179D01*
X682058Y77079D01*
X682021Y76979D01*
X681988Y76877D01*
X681959Y76773D01*
X681934Y76669D01*
X681913Y76564D01*
X681895Y76458D01*
X681882Y76352D01*
X681872Y76245D01*
X681866Y76138D01*
X681864Y76031D01*
X681864Y75297D01*
X681866Y75177D01*
X681872Y75057D01*
X681882Y74937D01*
X681895Y74818D01*
X681913Y74699D01*
X681934Y74581D01*
X681960Y74464D01*
X681989Y74347D01*
X682022Y74232D01*
X682059Y74118D01*
X682099Y74005D01*
X682143Y73893D01*
X682191Y73783D01*
X682242Y73674D01*
X682297Y73567D01*
X682356Y73462D01*
X682417Y73360D01*
X682482Y73259D01*
X682551Y73160D01*
X682622Y73063D01*
X682697Y72969D01*
X682774Y72878D01*
X682855Y72789D01*
X682939Y72703D01*
X683025Y72619D01*
X683114Y72538D01*
X683205Y72461D01*
X683299Y72386D01*
X683396Y72315D01*
X683495Y72246D01*
X683596Y72181D01*
X683699Y72120D01*
X683803Y72061D01*
X683910Y72006D01*
X684019Y71955D01*
X684129Y71907D01*
X684241Y71863D01*
X684354Y71823D01*
X684468Y71786D01*
X684583Y71753D01*
X684700Y71724D01*
X684817Y71698D01*
X684935Y71677D01*
X685054Y71659D01*
X685173Y71646D01*
X685293Y71636D01*
X685413Y71630D01*
X685533Y71628D01*
X685653Y71630D01*
X685773Y71636D01*
X685893Y71646D01*
X686012Y71659D01*
X686131Y71677D01*
X686249Y71698D01*
X686366Y71724D01*
X686483Y71753D01*
X686598Y71786D01*
X686712Y71823D01*
X686825Y71863D01*
X686937Y71907D01*
X687047Y71955D01*
X687156Y72006D01*
X687263Y72061D01*
X687368Y72120D01*
X687470Y72181D01*
X687571Y72246D01*
X687670Y72315D01*
X687767Y72386D01*
X687861Y72461D01*
X687952Y72538D01*
X688041Y72619D01*
X688127Y72703D01*
X688211Y72789D01*
X688292Y72878D01*
X688369Y72969D01*
X688444Y73063D01*
X688515Y73160D01*
X688584Y73259D01*
X688649Y73360D01*
X688710Y73463D01*
X688769Y73567D01*
X688824Y73674D01*
X688875Y73783D01*
X688923Y73893D01*
X688967Y74005D01*
X689007Y74118D01*
X689044Y74232D01*
X689077Y74347D01*
X689106Y74464D01*
X689132Y74581D01*
X689153Y74699D01*
X689171Y74818D01*
X689184Y74937D01*
X689194Y75057D01*
X689200Y75177D01*
X689202Y75297D01*
X689202Y78966D01*
X689201Y78966D02*
X689199Y79117D01*
X689193Y79268D01*
X689183Y79419D01*
X689170Y79570D01*
X689152Y79720D01*
X689131Y79869D01*
X689106Y80018D01*
X689077Y80167D01*
X689044Y80314D01*
X689007Y80461D01*
X688967Y80607D01*
X688923Y80751D01*
X688875Y80895D01*
X688824Y81037D01*
X688769Y81177D01*
X688710Y81317D01*
X688647Y81454D01*
X688582Y81590D01*
X688512Y81725D01*
X688440Y81857D01*
X688363Y81988D01*
X688284Y82116D01*
X688201Y82243D01*
X688115Y82367D01*
X688026Y82489D01*
X687934Y82609D01*
X687838Y82726D01*
X687740Y82841D01*
X687639Y82953D01*
X687535Y83063D01*
X687428Y83170D01*
X687318Y83274D01*
X687206Y83375D01*
X687091Y83473D01*
X686974Y83569D01*
X686854Y83661D01*
X686732Y83750D01*
X686608Y83836D01*
X686481Y83919D01*
X686353Y83998D01*
X686222Y84075D01*
X686090Y84147D01*
X685955Y84217D01*
X685819Y84282D01*
X685682Y84345D01*
X685542Y84404D01*
X685402Y84459D01*
X685260Y84510D01*
X685116Y84558D01*
X684972Y84602D01*
X684826Y84642D01*
X684679Y84679D01*
X684532Y84712D01*
X684383Y84741D01*
X684234Y84766D01*
X684085Y84787D01*
X683935Y84805D01*
X683784Y84818D01*
X683633Y84828D01*
X683482Y84834D01*
X683331Y84836D01*
X676280Y76764D02*
X667475Y76764D01*
X661891Y78232D02*
X661888Y78492D01*
X661879Y78751D01*
X661863Y79011D01*
X661841Y79270D01*
X661814Y79528D01*
X661780Y79786D01*
X661739Y80042D01*
X661693Y80298D01*
X661641Y80553D01*
X661582Y80806D01*
X661518Y81057D01*
X661447Y81308D01*
X661371Y81556D01*
X661289Y81802D01*
X661201Y82047D01*
X661107Y82289D01*
X661007Y82529D01*
X660901Y82766D01*
X660790Y83001D01*
X660791Y83002D02*
X660756Y83097D01*
X660718Y83192D01*
X660676Y83285D01*
X660630Y83376D01*
X660581Y83466D01*
X660529Y83554D01*
X660474Y83639D01*
X660415Y83723D01*
X660353Y83804D01*
X660289Y83883D01*
X660221Y83959D01*
X660150Y84033D01*
X660077Y84104D01*
X660001Y84172D01*
X659923Y84238D01*
X659842Y84300D01*
X659759Y84360D01*
X659674Y84416D01*
X659587Y84469D01*
X659498Y84518D01*
X659407Y84564D01*
X659314Y84607D01*
X659220Y84646D01*
X659124Y84682D01*
X659027Y84714D01*
X658929Y84743D01*
X658830Y84767D01*
X658730Y84788D01*
X658630Y84805D01*
X658529Y84819D01*
X658427Y84828D01*
X658325Y84834D01*
X658223Y84836D01*
X658121Y84834D01*
X658019Y84828D01*
X657917Y84819D01*
X657816Y84805D01*
X657716Y84788D01*
X657616Y84767D01*
X657517Y84743D01*
X657419Y84714D01*
X657322Y84682D01*
X657226Y84646D01*
X657132Y84607D01*
X657039Y84564D01*
X656948Y84518D01*
X656859Y84469D01*
X656772Y84416D01*
X656687Y84360D01*
X656604Y84300D01*
X656523Y84238D01*
X656445Y84172D01*
X656369Y84104D01*
X656296Y84033D01*
X656225Y83959D01*
X656157Y83883D01*
X656093Y83804D01*
X656031Y83723D01*
X655972Y83639D01*
X655917Y83554D01*
X655865Y83466D01*
X655816Y83376D01*
X655770Y83285D01*
X655728Y83192D01*
X655690Y83097D01*
X655655Y83002D01*
X655655Y83001D02*
X655544Y82767D01*
X655438Y82529D01*
X655338Y82289D01*
X655244Y82047D01*
X655156Y81802D01*
X655074Y81556D01*
X654998Y81308D01*
X654927Y81058D01*
X654863Y80806D01*
X654804Y80553D01*
X654752Y80298D01*
X654706Y80042D01*
X654665Y79786D01*
X654631Y79528D01*
X654604Y79270D01*
X654582Y79011D01*
X654566Y78751D01*
X654557Y78492D01*
X654554Y78232D01*
X661892Y78232D02*
X661889Y77972D01*
X661880Y77712D01*
X661864Y77453D01*
X661842Y77194D01*
X661815Y76936D01*
X661781Y76678D01*
X661740Y76421D01*
X661694Y76166D01*
X661642Y75911D01*
X661583Y75658D01*
X661519Y75406D01*
X661448Y75156D01*
X661372Y74908D01*
X661290Y74661D01*
X661202Y74417D01*
X661108Y74175D01*
X661008Y73935D01*
X660902Y73697D01*
X660791Y73462D01*
X660756Y73367D01*
X660718Y73272D01*
X660676Y73179D01*
X660630Y73088D01*
X660581Y72998D01*
X660529Y72910D01*
X660474Y72825D01*
X660415Y72741D01*
X660353Y72660D01*
X660289Y72581D01*
X660221Y72505D01*
X660150Y72431D01*
X660077Y72360D01*
X660001Y72292D01*
X659923Y72226D01*
X659842Y72164D01*
X659759Y72104D01*
X659674Y72048D01*
X659587Y71995D01*
X659498Y71946D01*
X659407Y71900D01*
X659314Y71857D01*
X659220Y71818D01*
X659124Y71782D01*
X659027Y71750D01*
X658929Y71721D01*
X658830Y71697D01*
X658730Y71676D01*
X658630Y71659D01*
X658529Y71645D01*
X658427Y71636D01*
X658325Y71630D01*
X658223Y71628D01*
X655655Y73463D02*
X655544Y73698D01*
X655438Y73935D01*
X655338Y74175D01*
X655244Y74417D01*
X655156Y74662D01*
X655074Y74908D01*
X654998Y75156D01*
X654927Y75407D01*
X654863Y75658D01*
X654804Y75911D01*
X654752Y76166D01*
X654706Y76422D01*
X654665Y76678D01*
X654631Y76936D01*
X654604Y77194D01*
X654582Y77453D01*
X654566Y77713D01*
X654557Y77972D01*
X654554Y78232D01*
X655655Y73462D02*
X655690Y73367D01*
X655728Y73272D01*
X655770Y73179D01*
X655816Y73088D01*
X655865Y72998D01*
X655917Y72910D01*
X655972Y72825D01*
X656031Y72741D01*
X656093Y72660D01*
X656157Y72581D01*
X656225Y72505D01*
X656296Y72431D01*
X656369Y72360D01*
X656445Y72292D01*
X656523Y72226D01*
X656604Y72164D01*
X656687Y72104D01*
X656772Y72048D01*
X656859Y71995D01*
X656948Y71946D01*
X657039Y71900D01*
X657132Y71857D01*
X657226Y71818D01*
X657322Y71782D01*
X657419Y71750D01*
X657517Y71721D01*
X657616Y71697D01*
X657716Y71676D01*
X657816Y71659D01*
X657917Y71645D01*
X658019Y71636D01*
X658121Y71630D01*
X658223Y71628D01*
X661158Y74563D02*
X655288Y81901D01*
X649090Y75297D02*
X649088Y75417D01*
X649082Y75537D01*
X649072Y75657D01*
X649059Y75776D01*
X649041Y75895D01*
X649020Y76013D01*
X648994Y76130D01*
X648965Y76247D01*
X648932Y76362D01*
X648895Y76476D01*
X648855Y76589D01*
X648811Y76701D01*
X648763Y76811D01*
X648712Y76920D01*
X648657Y77027D01*
X648598Y77132D01*
X648537Y77234D01*
X648472Y77335D01*
X648403Y77434D01*
X648332Y77531D01*
X648257Y77625D01*
X648180Y77716D01*
X648099Y77805D01*
X648015Y77891D01*
X647929Y77975D01*
X647840Y78056D01*
X647749Y78133D01*
X647655Y78208D01*
X647558Y78279D01*
X647459Y78348D01*
X647358Y78413D01*
X647256Y78474D01*
X647151Y78533D01*
X647044Y78588D01*
X646935Y78639D01*
X646825Y78687D01*
X646713Y78731D01*
X646600Y78771D01*
X646486Y78808D01*
X646371Y78841D01*
X646254Y78870D01*
X646137Y78896D01*
X646019Y78917D01*
X645900Y78935D01*
X645781Y78948D01*
X645661Y78958D01*
X645541Y78964D01*
X645421Y78966D01*
X645301Y78964D01*
X645181Y78958D01*
X645061Y78948D01*
X644942Y78935D01*
X644823Y78917D01*
X644705Y78896D01*
X644588Y78870D01*
X644471Y78841D01*
X644356Y78808D01*
X644242Y78771D01*
X644129Y78731D01*
X644017Y78687D01*
X643907Y78639D01*
X643798Y78588D01*
X643691Y78533D01*
X643587Y78474D01*
X643484Y78413D01*
X643383Y78348D01*
X643284Y78279D01*
X643187Y78208D01*
X643093Y78133D01*
X643002Y78056D01*
X642913Y77975D01*
X642827Y77891D01*
X642743Y77805D01*
X642662Y77716D01*
X642585Y77625D01*
X642510Y77531D01*
X642439Y77434D01*
X642370Y77335D01*
X642305Y77234D01*
X642244Y77132D01*
X642185Y77027D01*
X642130Y76920D01*
X642079Y76811D01*
X642031Y76701D01*
X641987Y76589D01*
X641947Y76476D01*
X641910Y76362D01*
X641877Y76247D01*
X641848Y76130D01*
X641822Y76013D01*
X641801Y75895D01*
X641783Y75776D01*
X641770Y75657D01*
X641760Y75537D01*
X641754Y75417D01*
X641752Y75297D01*
X641754Y75177D01*
X641760Y75057D01*
X641770Y74937D01*
X641783Y74818D01*
X641801Y74699D01*
X641822Y74581D01*
X641848Y74464D01*
X641877Y74347D01*
X641910Y74232D01*
X641947Y74118D01*
X641987Y74005D01*
X642031Y73893D01*
X642079Y73783D01*
X642130Y73674D01*
X642185Y73567D01*
X642244Y73462D01*
X642305Y73360D01*
X642370Y73259D01*
X642439Y73160D01*
X642510Y73063D01*
X642585Y72969D01*
X642662Y72878D01*
X642743Y72789D01*
X642827Y72703D01*
X642913Y72619D01*
X643002Y72538D01*
X643093Y72461D01*
X643187Y72386D01*
X643284Y72315D01*
X643383Y72246D01*
X643484Y72181D01*
X643587Y72120D01*
X643691Y72061D01*
X643798Y72006D01*
X643907Y71955D01*
X644017Y71907D01*
X644129Y71863D01*
X644242Y71823D01*
X644356Y71786D01*
X644471Y71753D01*
X644588Y71724D01*
X644705Y71698D01*
X644823Y71677D01*
X644942Y71659D01*
X645061Y71646D01*
X645181Y71636D01*
X645301Y71630D01*
X645421Y71628D01*
X645541Y71630D01*
X645661Y71636D01*
X645781Y71646D01*
X645900Y71659D01*
X646019Y71677D01*
X646137Y71698D01*
X646254Y71724D01*
X646371Y71753D01*
X646486Y71786D01*
X646600Y71823D01*
X646713Y71863D01*
X646825Y71907D01*
X646935Y71955D01*
X647044Y72006D01*
X647151Y72061D01*
X647256Y72120D01*
X647358Y72181D01*
X647459Y72246D01*
X647558Y72315D01*
X647655Y72386D01*
X647749Y72461D01*
X647840Y72538D01*
X647929Y72619D01*
X648015Y72703D01*
X648099Y72789D01*
X648180Y72878D01*
X648257Y72969D01*
X648332Y73063D01*
X648403Y73160D01*
X648472Y73259D01*
X648537Y73360D01*
X648598Y73463D01*
X648657Y73567D01*
X648712Y73674D01*
X648763Y73783D01*
X648811Y73893D01*
X648855Y74005D01*
X648895Y74118D01*
X648932Y74232D01*
X648965Y74347D01*
X648994Y74464D01*
X649020Y74581D01*
X649041Y74699D01*
X649059Y74818D01*
X649072Y74937D01*
X649082Y75057D01*
X649088Y75177D01*
X649090Y75297D01*
X648356Y81901D02*
X648354Y82008D01*
X648348Y82115D01*
X648338Y82222D01*
X648325Y82328D01*
X648307Y82434D01*
X648286Y82539D01*
X648261Y82643D01*
X648232Y82747D01*
X648199Y82849D01*
X648162Y82949D01*
X648122Y83049D01*
X648078Y83147D01*
X648031Y83243D01*
X647980Y83337D01*
X647926Y83430D01*
X647869Y83520D01*
X647808Y83609D01*
X647744Y83695D01*
X647677Y83778D01*
X647607Y83860D01*
X647534Y83938D01*
X647458Y84014D01*
X647380Y84087D01*
X647298Y84157D01*
X647215Y84224D01*
X647129Y84288D01*
X647040Y84349D01*
X646950Y84406D01*
X646857Y84460D01*
X646763Y84511D01*
X646667Y84558D01*
X646569Y84602D01*
X646469Y84642D01*
X646369Y84679D01*
X646267Y84712D01*
X646163Y84741D01*
X646059Y84766D01*
X645954Y84787D01*
X645848Y84805D01*
X645742Y84818D01*
X645635Y84828D01*
X645528Y84834D01*
X645421Y84836D01*
X645314Y84834D01*
X645207Y84828D01*
X645100Y84818D01*
X644994Y84805D01*
X644888Y84787D01*
X644783Y84766D01*
X644679Y84741D01*
X644575Y84712D01*
X644473Y84679D01*
X644373Y84642D01*
X644273Y84602D01*
X644175Y84558D01*
X644079Y84511D01*
X643985Y84460D01*
X643892Y84406D01*
X643802Y84349D01*
X643713Y84288D01*
X643627Y84224D01*
X643544Y84157D01*
X643462Y84087D01*
X643384Y84014D01*
X643308Y83938D01*
X643235Y83860D01*
X643165Y83778D01*
X643098Y83695D01*
X643034Y83609D01*
X642973Y83520D01*
X642916Y83430D01*
X642862Y83337D01*
X642811Y83243D01*
X642764Y83147D01*
X642720Y83049D01*
X642680Y82949D01*
X642643Y82849D01*
X642610Y82747D01*
X642581Y82643D01*
X642556Y82539D01*
X642535Y82434D01*
X642517Y82328D01*
X642504Y82222D01*
X642494Y82115D01*
X642488Y82008D01*
X642486Y81901D01*
X642488Y81794D01*
X642494Y81687D01*
X642504Y81580D01*
X642517Y81474D01*
X642535Y81368D01*
X642556Y81263D01*
X642581Y81159D01*
X642610Y81055D01*
X642643Y80953D01*
X642680Y80853D01*
X642720Y80753D01*
X642764Y80655D01*
X642811Y80559D01*
X642862Y80465D01*
X642916Y80372D01*
X642973Y80282D01*
X643034Y80193D01*
X643098Y80107D01*
X643165Y80024D01*
X643235Y79942D01*
X643308Y79864D01*
X643384Y79788D01*
X643462Y79715D01*
X643544Y79645D01*
X643627Y79578D01*
X643713Y79514D01*
X643802Y79453D01*
X643892Y79396D01*
X643985Y79342D01*
X644079Y79291D01*
X644175Y79244D01*
X644273Y79200D01*
X644373Y79160D01*
X644473Y79123D01*
X644575Y79090D01*
X644679Y79061D01*
X644783Y79036D01*
X644888Y79015D01*
X644994Y78997D01*
X645100Y78984D01*
X645207Y78974D01*
X645314Y78968D01*
X645421Y78966D01*
X645528Y78968D01*
X645635Y78974D01*
X645742Y78984D01*
X645848Y78997D01*
X645954Y79015D01*
X646059Y79036D01*
X646163Y79061D01*
X646267Y79090D01*
X646369Y79123D01*
X646469Y79160D01*
X646569Y79200D01*
X646667Y79244D01*
X646763Y79291D01*
X646857Y79342D01*
X646950Y79396D01*
X647040Y79453D01*
X647129Y79514D01*
X647215Y79578D01*
X647298Y79645D01*
X647380Y79715D01*
X647458Y79788D01*
X647534Y79864D01*
X647607Y79942D01*
X647677Y80024D01*
X647744Y80107D01*
X647808Y80193D01*
X647869Y80282D01*
X647926Y80372D01*
X647980Y80465D01*
X648031Y80559D01*
X648078Y80655D01*
X648122Y80753D01*
X648162Y80853D01*
X648199Y80953D01*
X648232Y81055D01*
X648261Y81159D01*
X648286Y81263D01*
X648307Y81368D01*
X648325Y81474D01*
X648338Y81580D01*
X648348Y81687D01*
X648354Y81794D01*
X648356Y81901D01*
M02*
