G04 EAGLE Gerber RS-274X export*
G75*
%MOMM*%
%FSLAX34Y34*%
%LPD*%
%INSilkscreen Top*%
%IPPOS*%
%AMOC8*
5,1,8,0,0,1.08239X$1,22.5*%
G01*
%ADD10C,0.101600*%
%ADD11C,0.152400*%
%ADD12C,0.127000*%
%ADD13C,0.406400*%
%ADD14C,0.304800*%
%ADD15R,2.540000X0.508000*%
%ADD16R,0.762000X1.905000*%
%ADD17C,0.203200*%
%ADD18R,0.609600X0.863600*%
%ADD19R,0.863600X0.609600*%
%ADD20R,2.032000X0.508000*%
%ADD21R,0.508000X1.905000*%
%ADD22C,1.524000*%
%ADD23C,0.355600*%


D10*
X880703Y140208D02*
X880802Y140210D01*
X880902Y140216D01*
X881001Y140225D01*
X881099Y140238D01*
X881197Y140255D01*
X881295Y140276D01*
X881391Y140301D01*
X881486Y140329D01*
X881580Y140361D01*
X881673Y140396D01*
X881765Y140435D01*
X881855Y140478D01*
X881943Y140523D01*
X882030Y140573D01*
X882114Y140625D01*
X882197Y140681D01*
X882277Y140739D01*
X882355Y140801D01*
X882430Y140866D01*
X882503Y140934D01*
X882573Y141004D01*
X882641Y141077D01*
X882706Y141152D01*
X882768Y141230D01*
X882826Y141310D01*
X882882Y141393D01*
X882934Y141477D01*
X882984Y141564D01*
X883029Y141652D01*
X883072Y141742D01*
X883111Y141834D01*
X883146Y141927D01*
X883178Y142021D01*
X883206Y142116D01*
X883231Y142212D01*
X883252Y142310D01*
X883269Y142408D01*
X883282Y142506D01*
X883291Y142605D01*
X883297Y142705D01*
X883299Y142804D01*
X880703Y140208D02*
X880559Y140210D01*
X880414Y140216D01*
X880270Y140225D01*
X880127Y140238D01*
X879983Y140255D01*
X879840Y140276D01*
X879698Y140301D01*
X879557Y140329D01*
X879416Y140361D01*
X879276Y140397D01*
X879137Y140436D01*
X878999Y140479D01*
X878863Y140526D01*
X878727Y140576D01*
X878593Y140630D01*
X878461Y140687D01*
X878330Y140748D01*
X878201Y140812D01*
X878073Y140880D01*
X877947Y140950D01*
X877823Y141025D01*
X877702Y141102D01*
X877582Y141183D01*
X877464Y141266D01*
X877349Y141353D01*
X877236Y141443D01*
X877125Y141536D01*
X877017Y141631D01*
X876911Y141730D01*
X876808Y141831D01*
X877133Y149296D02*
X877135Y149395D01*
X877141Y149495D01*
X877150Y149594D01*
X877163Y149692D01*
X877180Y149790D01*
X877201Y149888D01*
X877226Y149984D01*
X877254Y150079D01*
X877286Y150173D01*
X877321Y150266D01*
X877360Y150358D01*
X877403Y150448D01*
X877448Y150536D01*
X877498Y150623D01*
X877550Y150707D01*
X877606Y150790D01*
X877664Y150870D01*
X877726Y150948D01*
X877791Y151023D01*
X877859Y151096D01*
X877929Y151166D01*
X878002Y151234D01*
X878077Y151299D01*
X878155Y151361D01*
X878235Y151419D01*
X878318Y151475D01*
X878402Y151527D01*
X878489Y151577D01*
X878577Y151622D01*
X878667Y151665D01*
X878759Y151704D01*
X878852Y151739D01*
X878946Y151771D01*
X879041Y151799D01*
X879138Y151824D01*
X879235Y151845D01*
X879333Y151862D01*
X879431Y151875D01*
X879530Y151884D01*
X879630Y151890D01*
X879729Y151892D01*
X879865Y151890D01*
X880001Y151884D01*
X880137Y151875D01*
X880273Y151862D01*
X880408Y151844D01*
X880542Y151824D01*
X880676Y151799D01*
X880810Y151771D01*
X880942Y151738D01*
X881073Y151703D01*
X881204Y151663D01*
X881333Y151620D01*
X881461Y151574D01*
X881587Y151523D01*
X881713Y151470D01*
X881836Y151412D01*
X881958Y151352D01*
X882078Y151288D01*
X882197Y151220D01*
X882313Y151150D01*
X882427Y151076D01*
X882540Y150999D01*
X882650Y150918D01*
X878431Y147024D02*
X878345Y147077D01*
X878261Y147134D01*
X878179Y147193D01*
X878099Y147256D01*
X878022Y147322D01*
X877947Y147390D01*
X877875Y147462D01*
X877806Y147536D01*
X877740Y147613D01*
X877677Y147692D01*
X877617Y147774D01*
X877560Y147858D01*
X877506Y147944D01*
X877456Y148032D01*
X877409Y148122D01*
X877365Y148213D01*
X877326Y148307D01*
X877289Y148401D01*
X877257Y148497D01*
X877228Y148595D01*
X877203Y148693D01*
X877182Y148792D01*
X877164Y148892D01*
X877151Y148992D01*
X877141Y149093D01*
X877135Y149195D01*
X877133Y149296D01*
X882001Y145076D02*
X882087Y145023D01*
X882171Y144966D01*
X882253Y144907D01*
X882333Y144844D01*
X882410Y144778D01*
X882485Y144710D01*
X882557Y144638D01*
X882626Y144564D01*
X882692Y144487D01*
X882755Y144408D01*
X882815Y144326D01*
X882872Y144242D01*
X882926Y144156D01*
X882976Y144068D01*
X883023Y143978D01*
X883067Y143887D01*
X883106Y143793D01*
X883143Y143699D01*
X883175Y143603D01*
X883204Y143505D01*
X883229Y143407D01*
X883250Y143308D01*
X883268Y143208D01*
X883281Y143108D01*
X883291Y143007D01*
X883297Y142905D01*
X883299Y142804D01*
X882001Y145076D02*
X878431Y147024D01*
X888407Y146699D02*
X891653Y146699D01*
X891653Y146700D02*
X891766Y146698D01*
X891879Y146692D01*
X891992Y146682D01*
X892105Y146668D01*
X892217Y146651D01*
X892328Y146629D01*
X892438Y146604D01*
X892548Y146574D01*
X892656Y146541D01*
X892763Y146504D01*
X892869Y146464D01*
X892973Y146419D01*
X893076Y146371D01*
X893177Y146320D01*
X893276Y146265D01*
X893373Y146207D01*
X893468Y146145D01*
X893561Y146080D01*
X893651Y146012D01*
X893739Y145941D01*
X893825Y145866D01*
X893908Y145789D01*
X893988Y145709D01*
X894065Y145626D01*
X894140Y145540D01*
X894211Y145452D01*
X894279Y145362D01*
X894344Y145269D01*
X894406Y145174D01*
X894464Y145077D01*
X894519Y144978D01*
X894570Y144877D01*
X894618Y144774D01*
X894663Y144670D01*
X894703Y144564D01*
X894740Y144457D01*
X894773Y144349D01*
X894803Y144239D01*
X894828Y144129D01*
X894850Y144018D01*
X894867Y143906D01*
X894881Y143793D01*
X894891Y143680D01*
X894897Y143567D01*
X894899Y143454D01*
X894897Y143341D01*
X894891Y143228D01*
X894881Y143115D01*
X894867Y143002D01*
X894850Y142890D01*
X894828Y142779D01*
X894803Y142669D01*
X894773Y142559D01*
X894740Y142451D01*
X894703Y142344D01*
X894663Y142238D01*
X894618Y142134D01*
X894570Y142031D01*
X894519Y141930D01*
X894464Y141831D01*
X894406Y141734D01*
X894344Y141639D01*
X894279Y141546D01*
X894211Y141456D01*
X894140Y141368D01*
X894065Y141282D01*
X893988Y141199D01*
X893908Y141119D01*
X893825Y141042D01*
X893739Y140967D01*
X893651Y140896D01*
X893561Y140828D01*
X893468Y140763D01*
X893373Y140701D01*
X893276Y140643D01*
X893177Y140588D01*
X893076Y140537D01*
X892973Y140489D01*
X892869Y140444D01*
X892763Y140404D01*
X892656Y140367D01*
X892548Y140334D01*
X892438Y140304D01*
X892328Y140279D01*
X892217Y140257D01*
X892105Y140240D01*
X891992Y140226D01*
X891879Y140216D01*
X891766Y140210D01*
X891653Y140208D01*
X888407Y140208D01*
X888407Y151892D01*
X891653Y151892D01*
X891754Y151890D01*
X891854Y151884D01*
X891954Y151874D01*
X892054Y151861D01*
X892153Y151843D01*
X892252Y151822D01*
X892349Y151797D01*
X892446Y151768D01*
X892541Y151735D01*
X892635Y151699D01*
X892727Y151659D01*
X892818Y151616D01*
X892907Y151569D01*
X892994Y151519D01*
X893080Y151465D01*
X893163Y151408D01*
X893243Y151348D01*
X893322Y151285D01*
X893398Y151218D01*
X893471Y151149D01*
X893541Y151077D01*
X893609Y151003D01*
X893674Y150926D01*
X893735Y150846D01*
X893794Y150764D01*
X893849Y150680D01*
X893901Y150594D01*
X893950Y150506D01*
X893995Y150416D01*
X894037Y150324D01*
X894075Y150231D01*
X894109Y150136D01*
X894140Y150041D01*
X894167Y149944D01*
X894190Y149846D01*
X894210Y149747D01*
X894225Y149647D01*
X894237Y149547D01*
X894245Y149447D01*
X894249Y149346D01*
X894249Y149246D01*
X894245Y149145D01*
X894237Y149045D01*
X894225Y148945D01*
X894210Y148845D01*
X894190Y148746D01*
X894167Y148648D01*
X894140Y148551D01*
X894109Y148456D01*
X894075Y148361D01*
X894037Y148268D01*
X893995Y148176D01*
X893950Y148086D01*
X893901Y147998D01*
X893849Y147912D01*
X893794Y147828D01*
X893735Y147746D01*
X893674Y147666D01*
X893609Y147589D01*
X893541Y147515D01*
X893471Y147443D01*
X893398Y147374D01*
X893322Y147307D01*
X893243Y147244D01*
X893163Y147184D01*
X893080Y147127D01*
X892994Y147073D01*
X892907Y147023D01*
X892818Y146976D01*
X892727Y146933D01*
X892635Y146893D01*
X892541Y146857D01*
X892446Y146824D01*
X892349Y146795D01*
X892252Y146770D01*
X892153Y146749D01*
X892054Y146731D01*
X891954Y146718D01*
X891854Y146708D01*
X891754Y146702D01*
X891653Y146700D01*
X899781Y151892D02*
X899781Y140208D01*
X903676Y145401D02*
X899781Y151892D01*
X903676Y145401D02*
X907570Y151892D01*
X907570Y140208D01*
X913116Y144752D02*
X920905Y144752D01*
X925957Y149296D02*
X929202Y151892D01*
X929202Y140208D01*
X925957Y140208D02*
X932448Y140208D01*
X939983Y145401D02*
X943878Y145401D01*
X939983Y145401D02*
X939884Y145403D01*
X939784Y145409D01*
X939685Y145418D01*
X939587Y145431D01*
X939489Y145448D01*
X939391Y145469D01*
X939295Y145494D01*
X939200Y145522D01*
X939106Y145554D01*
X939013Y145589D01*
X938921Y145628D01*
X938831Y145671D01*
X938743Y145716D01*
X938656Y145766D01*
X938572Y145818D01*
X938489Y145874D01*
X938409Y145932D01*
X938331Y145994D01*
X938256Y146059D01*
X938183Y146127D01*
X938113Y146197D01*
X938045Y146270D01*
X937980Y146345D01*
X937918Y146423D01*
X937860Y146503D01*
X937804Y146586D01*
X937752Y146670D01*
X937702Y146757D01*
X937657Y146845D01*
X937614Y146935D01*
X937575Y147027D01*
X937540Y147120D01*
X937508Y147214D01*
X937480Y147309D01*
X937455Y147405D01*
X937434Y147503D01*
X937417Y147601D01*
X937404Y147699D01*
X937395Y147798D01*
X937389Y147898D01*
X937387Y147997D01*
X937387Y148646D01*
X937386Y148646D02*
X937388Y148759D01*
X937394Y148872D01*
X937404Y148985D01*
X937418Y149098D01*
X937435Y149210D01*
X937457Y149321D01*
X937482Y149431D01*
X937512Y149541D01*
X937545Y149649D01*
X937582Y149756D01*
X937622Y149862D01*
X937667Y149966D01*
X937715Y150069D01*
X937766Y150170D01*
X937821Y150269D01*
X937879Y150366D01*
X937941Y150461D01*
X938006Y150554D01*
X938074Y150644D01*
X938145Y150732D01*
X938220Y150818D01*
X938297Y150901D01*
X938377Y150981D01*
X938460Y151058D01*
X938546Y151133D01*
X938634Y151204D01*
X938724Y151272D01*
X938817Y151337D01*
X938912Y151399D01*
X939009Y151457D01*
X939108Y151512D01*
X939209Y151563D01*
X939312Y151611D01*
X939416Y151656D01*
X939522Y151696D01*
X939629Y151733D01*
X939737Y151766D01*
X939847Y151796D01*
X939957Y151821D01*
X940068Y151843D01*
X940180Y151860D01*
X940293Y151874D01*
X940406Y151884D01*
X940519Y151890D01*
X940632Y151892D01*
X940745Y151890D01*
X940858Y151884D01*
X940971Y151874D01*
X941084Y151860D01*
X941196Y151843D01*
X941307Y151821D01*
X941417Y151796D01*
X941527Y151766D01*
X941635Y151733D01*
X941742Y151696D01*
X941848Y151656D01*
X941952Y151611D01*
X942055Y151563D01*
X942156Y151512D01*
X942255Y151457D01*
X942352Y151399D01*
X942447Y151337D01*
X942540Y151272D01*
X942630Y151204D01*
X942718Y151133D01*
X942804Y151058D01*
X942887Y150981D01*
X942967Y150901D01*
X943044Y150818D01*
X943119Y150732D01*
X943190Y150644D01*
X943258Y150554D01*
X943323Y150461D01*
X943385Y150366D01*
X943443Y150269D01*
X943498Y150170D01*
X943549Y150069D01*
X943597Y149966D01*
X943642Y149862D01*
X943682Y149756D01*
X943719Y149649D01*
X943752Y149541D01*
X943782Y149431D01*
X943807Y149321D01*
X943829Y149210D01*
X943846Y149098D01*
X943860Y148985D01*
X943870Y148872D01*
X943876Y148759D01*
X943878Y148646D01*
X943878Y145401D01*
X943876Y145258D01*
X943870Y145115D01*
X943860Y144972D01*
X943846Y144830D01*
X943829Y144688D01*
X943807Y144546D01*
X943782Y144405D01*
X943752Y144265D01*
X943719Y144126D01*
X943682Y143988D01*
X943641Y143851D01*
X943597Y143715D01*
X943548Y143580D01*
X943496Y143447D01*
X943441Y143315D01*
X943381Y143185D01*
X943318Y143056D01*
X943252Y142929D01*
X943182Y142804D01*
X943109Y142682D01*
X943032Y142561D01*
X942952Y142442D01*
X942869Y142326D01*
X942783Y142211D01*
X942694Y142100D01*
X942601Y141990D01*
X942506Y141884D01*
X942407Y141780D01*
X942306Y141679D01*
X942202Y141580D01*
X942096Y141485D01*
X941986Y141392D01*
X941875Y141303D01*
X941760Y141217D01*
X941644Y141134D01*
X941525Y141054D01*
X941404Y140977D01*
X941282Y140904D01*
X941157Y140834D01*
X941030Y140768D01*
X940901Y140705D01*
X940771Y140645D01*
X940639Y140590D01*
X940506Y140538D01*
X940371Y140489D01*
X940235Y140445D01*
X940098Y140404D01*
X939960Y140367D01*
X939821Y140334D01*
X939681Y140304D01*
X939540Y140279D01*
X939398Y140257D01*
X939256Y140240D01*
X939114Y140226D01*
X938971Y140216D01*
X938828Y140210D01*
X938685Y140208D01*
X948323Y138910D02*
X953516Y153190D01*
X961531Y151892D02*
X961638Y151890D01*
X961744Y151884D01*
X961850Y151874D01*
X961956Y151861D01*
X962062Y151843D01*
X962166Y151822D01*
X962270Y151797D01*
X962373Y151768D01*
X962474Y151736D01*
X962574Y151699D01*
X962673Y151659D01*
X962771Y151616D01*
X962867Y151569D01*
X962961Y151518D01*
X963053Y151464D01*
X963143Y151407D01*
X963231Y151347D01*
X963316Y151283D01*
X963399Y151216D01*
X963480Y151146D01*
X963558Y151074D01*
X963634Y150998D01*
X963706Y150920D01*
X963776Y150839D01*
X963843Y150756D01*
X963907Y150671D01*
X963967Y150583D01*
X964024Y150493D01*
X964078Y150401D01*
X964129Y150307D01*
X964176Y150211D01*
X964219Y150113D01*
X964259Y150014D01*
X964296Y149914D01*
X964328Y149813D01*
X964357Y149710D01*
X964382Y149606D01*
X964403Y149502D01*
X964421Y149396D01*
X964434Y149290D01*
X964444Y149184D01*
X964450Y149078D01*
X964452Y148971D01*
X961531Y151892D02*
X961410Y151890D01*
X961289Y151884D01*
X961169Y151874D01*
X961048Y151861D01*
X960929Y151843D01*
X960809Y151822D01*
X960691Y151797D01*
X960574Y151768D01*
X960457Y151735D01*
X960342Y151699D01*
X960228Y151658D01*
X960115Y151615D01*
X960003Y151567D01*
X959894Y151516D01*
X959786Y151461D01*
X959679Y151403D01*
X959575Y151342D01*
X959473Y151277D01*
X959373Y151209D01*
X959275Y151138D01*
X959179Y151064D01*
X959086Y150987D01*
X958996Y150906D01*
X958908Y150823D01*
X958823Y150737D01*
X958740Y150648D01*
X958661Y150557D01*
X958584Y150463D01*
X958511Y150367D01*
X958441Y150269D01*
X958374Y150168D01*
X958310Y150065D01*
X958250Y149960D01*
X958193Y149853D01*
X958139Y149745D01*
X958089Y149635D01*
X958043Y149523D01*
X958000Y149410D01*
X957961Y149295D01*
X963478Y146699D02*
X963557Y146776D01*
X963633Y146857D01*
X963706Y146940D01*
X963776Y147025D01*
X963843Y147113D01*
X963907Y147203D01*
X963967Y147295D01*
X964024Y147390D01*
X964078Y147486D01*
X964129Y147584D01*
X964176Y147684D01*
X964220Y147786D01*
X964260Y147889D01*
X964296Y147993D01*
X964328Y148099D01*
X964357Y148205D01*
X964382Y148313D01*
X964404Y148421D01*
X964421Y148531D01*
X964435Y148640D01*
X964444Y148750D01*
X964450Y148861D01*
X964452Y148971D01*
X963478Y146699D02*
X957961Y140208D01*
X964452Y140208D01*
X969391Y146050D02*
X969394Y146280D01*
X969402Y146510D01*
X969416Y146739D01*
X969435Y146968D01*
X969460Y147197D01*
X969490Y147424D01*
X969525Y147652D01*
X969566Y147878D01*
X969612Y148103D01*
X969664Y148327D01*
X969721Y148549D01*
X969783Y148771D01*
X969851Y148990D01*
X969924Y149208D01*
X970002Y149425D01*
X970085Y149639D01*
X970173Y149851D01*
X970266Y150061D01*
X970365Y150269D01*
X970364Y150269D02*
X970397Y150359D01*
X970433Y150448D01*
X970473Y150536D01*
X970517Y150621D01*
X970564Y150705D01*
X970614Y150787D01*
X970668Y150867D01*
X970724Y150944D01*
X970784Y151020D01*
X970847Y151093D01*
X970912Y151163D01*
X970981Y151231D01*
X971052Y151295D01*
X971125Y151357D01*
X971201Y151416D01*
X971279Y151472D01*
X971360Y151525D01*
X971442Y151574D01*
X971526Y151620D01*
X971613Y151663D01*
X971700Y151702D01*
X971790Y151738D01*
X971880Y151770D01*
X971972Y151798D01*
X972065Y151823D01*
X972159Y151844D01*
X972253Y151861D01*
X972348Y151875D01*
X972444Y151884D01*
X972540Y151890D01*
X972636Y151892D01*
X972732Y151890D01*
X972828Y151884D01*
X972924Y151875D01*
X973019Y151861D01*
X973113Y151844D01*
X973207Y151823D01*
X973300Y151798D01*
X973392Y151770D01*
X973482Y151738D01*
X973572Y151702D01*
X973659Y151663D01*
X973746Y151620D01*
X973830Y151574D01*
X973912Y151525D01*
X973993Y151472D01*
X974071Y151416D01*
X974147Y151357D01*
X974220Y151295D01*
X974291Y151231D01*
X974360Y151163D01*
X974425Y151093D01*
X974488Y151020D01*
X974548Y150944D01*
X974604Y150867D01*
X974658Y150787D01*
X974708Y150705D01*
X974755Y150621D01*
X974799Y150536D01*
X974839Y150448D01*
X974875Y150359D01*
X974908Y150269D01*
X975007Y150062D01*
X975100Y149852D01*
X975188Y149639D01*
X975271Y149425D01*
X975349Y149209D01*
X975422Y148991D01*
X975490Y148771D01*
X975552Y148550D01*
X975609Y148327D01*
X975661Y148103D01*
X975707Y147878D01*
X975748Y147652D01*
X975783Y147425D01*
X975813Y147197D01*
X975838Y146968D01*
X975857Y146739D01*
X975871Y146510D01*
X975879Y146280D01*
X975882Y146050D01*
X969391Y146050D02*
X969394Y145820D01*
X969402Y145590D01*
X969416Y145361D01*
X969435Y145132D01*
X969460Y144903D01*
X969490Y144675D01*
X969525Y144448D01*
X969566Y144222D01*
X969612Y143997D01*
X969664Y143773D01*
X969721Y143550D01*
X969783Y143329D01*
X969851Y143109D01*
X969924Y142891D01*
X970002Y142675D01*
X970085Y142461D01*
X970173Y142249D01*
X970266Y142038D01*
X970365Y141831D01*
X970364Y141831D02*
X970397Y141741D01*
X970433Y141652D01*
X970474Y141564D01*
X970517Y141479D01*
X970564Y141395D01*
X970614Y141313D01*
X970668Y141233D01*
X970724Y141156D01*
X970784Y141080D01*
X970847Y141007D01*
X970912Y140937D01*
X970981Y140869D01*
X971052Y140805D01*
X971125Y140743D01*
X971201Y140684D01*
X971279Y140628D01*
X971360Y140575D01*
X971442Y140526D01*
X971526Y140480D01*
X971613Y140437D01*
X971700Y140398D01*
X971790Y140362D01*
X971880Y140330D01*
X971972Y140302D01*
X972065Y140277D01*
X972159Y140256D01*
X972253Y140239D01*
X972348Y140225D01*
X972444Y140216D01*
X972540Y140210D01*
X972636Y140208D01*
X974908Y141831D02*
X975007Y142038D01*
X975100Y142249D01*
X975188Y142461D01*
X975271Y142675D01*
X975349Y142891D01*
X975422Y143109D01*
X975490Y143329D01*
X975552Y143550D01*
X975609Y143773D01*
X975661Y143997D01*
X975707Y144222D01*
X975748Y144448D01*
X975783Y144675D01*
X975813Y144903D01*
X975838Y145132D01*
X975857Y145361D01*
X975871Y145590D01*
X975879Y145820D01*
X975882Y146050D01*
X974908Y141831D02*
X974875Y141741D01*
X974839Y141652D01*
X974799Y141564D01*
X974755Y141479D01*
X974708Y141395D01*
X974658Y141313D01*
X974604Y141233D01*
X974548Y141156D01*
X974488Y141080D01*
X974425Y141007D01*
X974360Y140937D01*
X974291Y140869D01*
X974220Y140805D01*
X974147Y140743D01*
X974071Y140684D01*
X973993Y140628D01*
X973912Y140575D01*
X973830Y140526D01*
X973746Y140480D01*
X973659Y140437D01*
X973572Y140398D01*
X973482Y140362D01*
X973392Y140330D01*
X973300Y140302D01*
X973207Y140277D01*
X973113Y140256D01*
X973019Y140239D01*
X972924Y140225D01*
X972828Y140216D01*
X972732Y140210D01*
X972636Y140208D01*
X970040Y142804D02*
X975233Y149296D01*
D11*
X916573Y51703D02*
X913864Y51703D01*
X916573Y51703D02*
X916573Y42672D01*
X911154Y42672D01*
X911036Y42674D01*
X910918Y42680D01*
X910800Y42689D01*
X910683Y42703D01*
X910566Y42720D01*
X910449Y42741D01*
X910334Y42766D01*
X910219Y42795D01*
X910105Y42828D01*
X909993Y42864D01*
X909882Y42904D01*
X909772Y42947D01*
X909663Y42994D01*
X909556Y43044D01*
X909451Y43099D01*
X909348Y43156D01*
X909247Y43217D01*
X909147Y43281D01*
X909050Y43348D01*
X908955Y43418D01*
X908863Y43492D01*
X908772Y43568D01*
X908685Y43648D01*
X908600Y43730D01*
X908518Y43815D01*
X908438Y43902D01*
X908362Y43993D01*
X908288Y44085D01*
X908218Y44180D01*
X908151Y44277D01*
X908087Y44377D01*
X908026Y44478D01*
X907969Y44581D01*
X907914Y44686D01*
X907864Y44793D01*
X907817Y44902D01*
X907774Y45012D01*
X907734Y45123D01*
X907698Y45235D01*
X907665Y45349D01*
X907636Y45464D01*
X907611Y45579D01*
X907590Y45696D01*
X907573Y45813D01*
X907559Y45930D01*
X907550Y46048D01*
X907544Y46166D01*
X907542Y46284D01*
X907542Y55316D01*
X907544Y55434D01*
X907550Y55552D01*
X907559Y55670D01*
X907573Y55787D01*
X907590Y55904D01*
X907611Y56021D01*
X907636Y56136D01*
X907665Y56251D01*
X907698Y56365D01*
X907734Y56477D01*
X907774Y56588D01*
X907817Y56698D01*
X907864Y56807D01*
X907914Y56914D01*
X907968Y57019D01*
X908026Y57122D01*
X908087Y57223D01*
X908151Y57323D01*
X908218Y57420D01*
X908288Y57515D01*
X908362Y57607D01*
X908438Y57698D01*
X908518Y57785D01*
X908600Y57870D01*
X908685Y57952D01*
X908772Y58032D01*
X908863Y58108D01*
X908955Y58182D01*
X909050Y58252D01*
X909147Y58319D01*
X909247Y58383D01*
X909348Y58444D01*
X909451Y58501D01*
X909556Y58555D01*
X909663Y58606D01*
X909772Y58653D01*
X909882Y58696D01*
X909993Y58736D01*
X910105Y58772D01*
X910219Y58805D01*
X910334Y58834D01*
X910449Y58859D01*
X910566Y58880D01*
X910683Y58897D01*
X910800Y58911D01*
X910918Y58920D01*
X911036Y58926D01*
X911154Y58928D01*
X916573Y58928D01*
X924215Y58928D02*
X924215Y42672D01*
X933246Y42672D02*
X924215Y58928D01*
X933246Y58928D02*
X933246Y42672D01*
X940889Y42672D02*
X940889Y58928D01*
X945404Y58928D01*
X945535Y58926D01*
X945667Y58920D01*
X945798Y58911D01*
X945928Y58897D01*
X946059Y58880D01*
X946188Y58859D01*
X946317Y58835D01*
X946445Y58806D01*
X946573Y58774D01*
X946699Y58738D01*
X946824Y58699D01*
X946949Y58656D01*
X947071Y58609D01*
X947193Y58559D01*
X947313Y58505D01*
X947431Y58448D01*
X947547Y58387D01*
X947662Y58323D01*
X947775Y58256D01*
X947886Y58185D01*
X947994Y58111D01*
X948101Y58034D01*
X948205Y57954D01*
X948307Y57871D01*
X948406Y57786D01*
X948503Y57697D01*
X948597Y57605D01*
X948689Y57511D01*
X948778Y57414D01*
X948863Y57315D01*
X948946Y57213D01*
X949026Y57109D01*
X949103Y57002D01*
X949177Y56894D01*
X949248Y56783D01*
X949315Y56670D01*
X949379Y56555D01*
X949440Y56439D01*
X949497Y56321D01*
X949551Y56201D01*
X949601Y56079D01*
X949648Y55957D01*
X949691Y55832D01*
X949730Y55707D01*
X949766Y55581D01*
X949798Y55453D01*
X949827Y55325D01*
X949851Y55196D01*
X949872Y55067D01*
X949889Y54936D01*
X949903Y54806D01*
X949912Y54675D01*
X949918Y54543D01*
X949920Y54412D01*
X949920Y47188D01*
X949918Y47057D01*
X949912Y46925D01*
X949903Y46794D01*
X949889Y46664D01*
X949872Y46533D01*
X949851Y46404D01*
X949827Y46275D01*
X949798Y46147D01*
X949766Y46019D01*
X949730Y45893D01*
X949691Y45768D01*
X949648Y45643D01*
X949601Y45521D01*
X949551Y45399D01*
X949497Y45279D01*
X949440Y45161D01*
X949379Y45045D01*
X949315Y44930D01*
X949248Y44817D01*
X949177Y44706D01*
X949103Y44598D01*
X949026Y44491D01*
X948946Y44387D01*
X948863Y44285D01*
X948778Y44186D01*
X948689Y44089D01*
X948597Y43995D01*
X948503Y43903D01*
X948406Y43814D01*
X948307Y43729D01*
X948205Y43646D01*
X948101Y43566D01*
X947994Y43489D01*
X947886Y43415D01*
X947775Y43344D01*
X947662Y43277D01*
X947547Y43213D01*
X947431Y43152D01*
X947313Y43095D01*
X947193Y43041D01*
X947071Y42991D01*
X946949Y42944D01*
X946824Y42901D01*
X946699Y42862D01*
X946573Y42826D01*
X946445Y42794D01*
X946317Y42765D01*
X946188Y42741D01*
X946058Y42720D01*
X945928Y42703D01*
X945798Y42689D01*
X945667Y42680D01*
X945535Y42674D01*
X945404Y42672D01*
X940889Y42672D01*
X388620Y111760D02*
X388620Y116840D01*
X391160Y114300D02*
X386080Y114300D01*
X381000Y124460D02*
X381008Y125083D01*
X381031Y125706D01*
X381069Y126329D01*
X381122Y126950D01*
X381191Y127569D01*
X381275Y128187D01*
X381374Y128802D01*
X381488Y129415D01*
X381617Y130025D01*
X381761Y130632D01*
X381920Y131235D01*
X382094Y131833D01*
X382282Y132428D01*
X382485Y133017D01*
X382702Y133601D01*
X382933Y134180D01*
X383179Y134753D01*
X383439Y135320D01*
X383712Y135880D01*
X383999Y136433D01*
X384300Y136980D01*
X384614Y137518D01*
X384941Y138049D01*
X385281Y138571D01*
X385633Y139086D01*
X385999Y139591D01*
X386376Y140087D01*
X386766Y140574D01*
X387167Y141051D01*
X387580Y141518D01*
X388004Y141974D01*
X388439Y142421D01*
X388886Y142856D01*
X389342Y143280D01*
X389809Y143693D01*
X390286Y144094D01*
X390773Y144484D01*
X391269Y144861D01*
X391774Y145227D01*
X392289Y145579D01*
X392811Y145919D01*
X393342Y146246D01*
X393880Y146560D01*
X394427Y146861D01*
X394980Y147148D01*
X395540Y147421D01*
X396107Y147681D01*
X396680Y147927D01*
X397259Y148158D01*
X397843Y148375D01*
X398432Y148578D01*
X399027Y148766D01*
X399625Y148940D01*
X400228Y149099D01*
X400835Y149243D01*
X401445Y149372D01*
X402058Y149486D01*
X402673Y149585D01*
X403291Y149669D01*
X403910Y149738D01*
X404531Y149791D01*
X405154Y149829D01*
X405777Y149852D01*
X406400Y149860D01*
X407023Y149852D01*
X407646Y149829D01*
X408269Y149791D01*
X408890Y149738D01*
X409509Y149669D01*
X410127Y149585D01*
X410742Y149486D01*
X411355Y149372D01*
X411965Y149243D01*
X412572Y149099D01*
X413175Y148940D01*
X413773Y148766D01*
X414368Y148578D01*
X414957Y148375D01*
X415541Y148158D01*
X416120Y147927D01*
X416693Y147681D01*
X417260Y147421D01*
X417820Y147148D01*
X418373Y146861D01*
X418920Y146560D01*
X419458Y146246D01*
X419989Y145919D01*
X420511Y145579D01*
X421026Y145227D01*
X421531Y144861D01*
X422027Y144484D01*
X422514Y144094D01*
X422991Y143693D01*
X423458Y143280D01*
X423914Y142856D01*
X424361Y142421D01*
X424796Y141974D01*
X425220Y141518D01*
X425633Y141051D01*
X426034Y140574D01*
X426424Y140087D01*
X426801Y139591D01*
X427167Y139086D01*
X427519Y138571D01*
X427859Y138049D01*
X428186Y137518D01*
X428500Y136980D01*
X428801Y136433D01*
X429088Y135880D01*
X429361Y135320D01*
X429621Y134753D01*
X429867Y134180D01*
X430098Y133601D01*
X430315Y133017D01*
X430518Y132428D01*
X430706Y131833D01*
X430880Y131235D01*
X431039Y130632D01*
X431183Y130025D01*
X431312Y129415D01*
X431426Y128802D01*
X431525Y128187D01*
X431609Y127569D01*
X431678Y126950D01*
X431731Y126329D01*
X431769Y125706D01*
X431792Y125083D01*
X431800Y124460D01*
X431792Y123837D01*
X431769Y123214D01*
X431731Y122591D01*
X431678Y121970D01*
X431609Y121351D01*
X431525Y120733D01*
X431426Y120118D01*
X431312Y119505D01*
X431183Y118895D01*
X431039Y118288D01*
X430880Y117685D01*
X430706Y117087D01*
X430518Y116492D01*
X430315Y115903D01*
X430098Y115319D01*
X429867Y114740D01*
X429621Y114167D01*
X429361Y113600D01*
X429088Y113040D01*
X428801Y112487D01*
X428500Y111940D01*
X428186Y111402D01*
X427859Y110871D01*
X427519Y110349D01*
X427167Y109834D01*
X426801Y109329D01*
X426424Y108833D01*
X426034Y108346D01*
X425633Y107869D01*
X425220Y107402D01*
X424796Y106946D01*
X424361Y106499D01*
X423914Y106064D01*
X423458Y105640D01*
X422991Y105227D01*
X422514Y104826D01*
X422027Y104436D01*
X421531Y104059D01*
X421026Y103693D01*
X420511Y103341D01*
X419989Y103001D01*
X419458Y102674D01*
X418920Y102360D01*
X418373Y102059D01*
X417820Y101772D01*
X417260Y101499D01*
X416693Y101239D01*
X416120Y100993D01*
X415541Y100762D01*
X414957Y100545D01*
X414368Y100342D01*
X413773Y100154D01*
X413175Y99980D01*
X412572Y99821D01*
X411965Y99677D01*
X411355Y99548D01*
X410742Y99434D01*
X410127Y99335D01*
X409509Y99251D01*
X408890Y99182D01*
X408269Y99129D01*
X407646Y99091D01*
X407023Y99068D01*
X406400Y99060D01*
X405777Y99068D01*
X405154Y99091D01*
X404531Y99129D01*
X403910Y99182D01*
X403291Y99251D01*
X402673Y99335D01*
X402058Y99434D01*
X401445Y99548D01*
X400835Y99677D01*
X400228Y99821D01*
X399625Y99980D01*
X399027Y100154D01*
X398432Y100342D01*
X397843Y100545D01*
X397259Y100762D01*
X396680Y100993D01*
X396107Y101239D01*
X395540Y101499D01*
X394980Y101772D01*
X394427Y102059D01*
X393880Y102360D01*
X393342Y102674D01*
X392811Y103001D01*
X392289Y103341D01*
X391774Y103693D01*
X391269Y104059D01*
X390773Y104436D01*
X390286Y104826D01*
X389809Y105227D01*
X389342Y105640D01*
X388886Y106064D01*
X388439Y106499D01*
X388004Y106946D01*
X387580Y107402D01*
X387167Y107869D01*
X386766Y108346D01*
X386376Y108833D01*
X385999Y109329D01*
X385633Y109834D01*
X385281Y110349D01*
X384941Y110871D01*
X384614Y111402D01*
X384300Y111940D01*
X383999Y112487D01*
X383712Y113040D01*
X383439Y113600D01*
X383179Y114167D01*
X382933Y114740D01*
X382702Y115319D01*
X382485Y115903D01*
X382282Y116492D01*
X382094Y117087D01*
X381920Y117685D01*
X381761Y118288D01*
X381617Y118895D01*
X381488Y119505D01*
X381374Y120118D01*
X381275Y120733D01*
X381191Y121351D01*
X381122Y121970D01*
X381069Y122591D01*
X381031Y123214D01*
X381008Y123837D01*
X381000Y124460D01*
D12*
X359373Y117475D02*
X356833Y117475D01*
X356733Y117477D01*
X356634Y117483D01*
X356534Y117493D01*
X356436Y117506D01*
X356337Y117524D01*
X356240Y117545D01*
X356144Y117570D01*
X356048Y117599D01*
X355954Y117632D01*
X355861Y117668D01*
X355770Y117708D01*
X355680Y117752D01*
X355592Y117799D01*
X355506Y117849D01*
X355422Y117903D01*
X355340Y117960D01*
X355261Y118020D01*
X355183Y118084D01*
X355109Y118150D01*
X355037Y118219D01*
X354968Y118291D01*
X354902Y118365D01*
X354838Y118443D01*
X354778Y118522D01*
X354721Y118604D01*
X354667Y118688D01*
X354617Y118774D01*
X354570Y118862D01*
X354526Y118952D01*
X354486Y119043D01*
X354450Y119136D01*
X354417Y119230D01*
X354388Y119326D01*
X354363Y119422D01*
X354342Y119519D01*
X354324Y119618D01*
X354311Y119716D01*
X354301Y119816D01*
X354295Y119915D01*
X354293Y120015D01*
X354293Y126365D01*
X354295Y126465D01*
X354301Y126564D01*
X354311Y126664D01*
X354324Y126762D01*
X354342Y126861D01*
X354363Y126958D01*
X354388Y127054D01*
X354417Y127150D01*
X354450Y127244D01*
X354486Y127337D01*
X354526Y127428D01*
X354570Y127518D01*
X354617Y127606D01*
X354667Y127692D01*
X354721Y127776D01*
X354778Y127858D01*
X354838Y127937D01*
X354902Y128015D01*
X354968Y128089D01*
X355037Y128161D01*
X355109Y128230D01*
X355183Y128296D01*
X355261Y128360D01*
X355340Y128420D01*
X355422Y128477D01*
X355506Y128531D01*
X355592Y128581D01*
X355680Y128628D01*
X355770Y128672D01*
X355861Y128712D01*
X355954Y128748D01*
X356048Y128781D01*
X356144Y128810D01*
X356240Y128835D01*
X356337Y128856D01*
X356436Y128874D01*
X356534Y128887D01*
X356634Y128897D01*
X356733Y128903D01*
X356833Y128905D01*
X359373Y128905D01*
X363855Y126365D02*
X367030Y128905D01*
X367030Y117475D01*
X363855Y117475D02*
X370205Y117475D01*
D13*
X762000Y266700D02*
X762000Y279400D01*
X762000Y292100D01*
X753110Y279400D02*
X753110Y266700D01*
X753110Y279400D02*
X753110Y292100D01*
D11*
X753110Y279400D02*
X650240Y279400D01*
X762000Y279400D02*
X772160Y279400D01*
X621030Y248920D02*
X621030Y309880D01*
X626110Y314960D02*
X796290Y314960D01*
X801370Y309880D02*
X801370Y248920D01*
X796290Y243840D02*
X626110Y243840D01*
X625970Y243842D01*
X625830Y243848D01*
X625690Y243857D01*
X625551Y243871D01*
X625412Y243888D01*
X625274Y243909D01*
X625136Y243934D01*
X624999Y243963D01*
X624863Y243995D01*
X624728Y244032D01*
X624594Y244072D01*
X624461Y244115D01*
X624329Y244163D01*
X624198Y244213D01*
X624069Y244268D01*
X623942Y244326D01*
X623816Y244387D01*
X623692Y244452D01*
X623570Y244521D01*
X623450Y244592D01*
X623332Y244667D01*
X623215Y244745D01*
X623101Y244827D01*
X622990Y244911D01*
X622881Y244999D01*
X622774Y245089D01*
X622669Y245183D01*
X622568Y245279D01*
X622469Y245378D01*
X622373Y245479D01*
X622279Y245584D01*
X622189Y245691D01*
X622101Y245800D01*
X622017Y245911D01*
X621935Y246025D01*
X621857Y246142D01*
X621782Y246260D01*
X621711Y246380D01*
X621642Y246502D01*
X621577Y246626D01*
X621516Y246752D01*
X621458Y246879D01*
X621403Y247008D01*
X621353Y247139D01*
X621305Y247271D01*
X621262Y247404D01*
X621222Y247538D01*
X621185Y247673D01*
X621153Y247809D01*
X621124Y247946D01*
X621099Y248084D01*
X621078Y248222D01*
X621061Y248361D01*
X621047Y248500D01*
X621038Y248640D01*
X621032Y248780D01*
X621030Y248920D01*
X621030Y309880D02*
X621032Y310020D01*
X621038Y310160D01*
X621047Y310300D01*
X621061Y310439D01*
X621078Y310578D01*
X621099Y310716D01*
X621124Y310854D01*
X621153Y310991D01*
X621185Y311127D01*
X621222Y311262D01*
X621262Y311396D01*
X621305Y311529D01*
X621353Y311661D01*
X621403Y311792D01*
X621458Y311921D01*
X621516Y312048D01*
X621577Y312174D01*
X621642Y312298D01*
X621711Y312420D01*
X621782Y312540D01*
X621857Y312658D01*
X621935Y312775D01*
X622017Y312889D01*
X622101Y313000D01*
X622189Y313109D01*
X622279Y313216D01*
X622373Y313321D01*
X622469Y313422D01*
X622568Y313521D01*
X622669Y313617D01*
X622774Y313711D01*
X622881Y313801D01*
X622990Y313889D01*
X623101Y313973D01*
X623215Y314055D01*
X623332Y314133D01*
X623450Y314208D01*
X623570Y314279D01*
X623692Y314348D01*
X623816Y314413D01*
X623942Y314474D01*
X624069Y314532D01*
X624198Y314587D01*
X624329Y314637D01*
X624461Y314685D01*
X624594Y314728D01*
X624728Y314768D01*
X624863Y314805D01*
X624999Y314837D01*
X625136Y314866D01*
X625274Y314891D01*
X625412Y314912D01*
X625551Y314929D01*
X625690Y314943D01*
X625830Y314952D01*
X625970Y314958D01*
X626110Y314960D01*
X796290Y314960D02*
X796430Y314958D01*
X796570Y314952D01*
X796710Y314943D01*
X796849Y314929D01*
X796988Y314912D01*
X797126Y314891D01*
X797264Y314866D01*
X797401Y314837D01*
X797537Y314805D01*
X797672Y314768D01*
X797806Y314728D01*
X797939Y314685D01*
X798071Y314637D01*
X798202Y314587D01*
X798331Y314532D01*
X798458Y314474D01*
X798584Y314413D01*
X798708Y314348D01*
X798830Y314279D01*
X798950Y314208D01*
X799068Y314133D01*
X799185Y314055D01*
X799299Y313973D01*
X799410Y313889D01*
X799519Y313801D01*
X799626Y313711D01*
X799731Y313617D01*
X799832Y313521D01*
X799931Y313422D01*
X800027Y313321D01*
X800121Y313216D01*
X800211Y313109D01*
X800299Y313000D01*
X800383Y312889D01*
X800465Y312775D01*
X800543Y312658D01*
X800618Y312540D01*
X800689Y312420D01*
X800758Y312298D01*
X800823Y312174D01*
X800884Y312048D01*
X800942Y311921D01*
X800997Y311792D01*
X801047Y311661D01*
X801095Y311529D01*
X801138Y311396D01*
X801178Y311262D01*
X801215Y311127D01*
X801247Y310991D01*
X801276Y310854D01*
X801301Y310716D01*
X801322Y310578D01*
X801339Y310439D01*
X801353Y310300D01*
X801362Y310160D01*
X801368Y310020D01*
X801370Y309880D01*
X801370Y248920D02*
X801368Y248780D01*
X801362Y248640D01*
X801353Y248500D01*
X801339Y248361D01*
X801322Y248222D01*
X801301Y248084D01*
X801276Y247946D01*
X801247Y247809D01*
X801215Y247673D01*
X801178Y247538D01*
X801138Y247404D01*
X801095Y247271D01*
X801047Y247139D01*
X800997Y247008D01*
X800942Y246879D01*
X800884Y246752D01*
X800823Y246626D01*
X800758Y246502D01*
X800689Y246380D01*
X800618Y246260D01*
X800543Y246142D01*
X800465Y246025D01*
X800383Y245911D01*
X800299Y245800D01*
X800211Y245691D01*
X800121Y245584D01*
X800027Y245479D01*
X799931Y245378D01*
X799832Y245279D01*
X799731Y245183D01*
X799626Y245089D01*
X799519Y244999D01*
X799410Y244911D01*
X799299Y244827D01*
X799185Y244745D01*
X799068Y244667D01*
X798950Y244592D01*
X798830Y244521D01*
X798708Y244452D01*
X798584Y244387D01*
X798458Y244326D01*
X798331Y244268D01*
X798202Y244213D01*
X798071Y244163D01*
X797939Y244115D01*
X797806Y244072D01*
X797672Y244032D01*
X797537Y243995D01*
X797401Y243963D01*
X797264Y243934D01*
X797126Y243909D01*
X796988Y243888D01*
X796849Y243871D01*
X796710Y243857D01*
X796570Y243848D01*
X796430Y243842D01*
X796290Y243840D01*
D12*
X784225Y319405D02*
X781685Y319405D01*
X781585Y319407D01*
X781486Y319413D01*
X781386Y319423D01*
X781288Y319436D01*
X781189Y319454D01*
X781092Y319475D01*
X780996Y319500D01*
X780900Y319529D01*
X780806Y319562D01*
X780713Y319598D01*
X780622Y319638D01*
X780532Y319682D01*
X780444Y319729D01*
X780358Y319779D01*
X780274Y319833D01*
X780192Y319890D01*
X780113Y319950D01*
X780035Y320014D01*
X779961Y320080D01*
X779889Y320149D01*
X779820Y320221D01*
X779754Y320295D01*
X779690Y320373D01*
X779630Y320452D01*
X779573Y320534D01*
X779519Y320618D01*
X779469Y320704D01*
X779422Y320792D01*
X779378Y320882D01*
X779338Y320973D01*
X779302Y321066D01*
X779269Y321160D01*
X779240Y321256D01*
X779215Y321352D01*
X779194Y321449D01*
X779176Y321548D01*
X779163Y321646D01*
X779153Y321746D01*
X779147Y321845D01*
X779145Y321945D01*
X779145Y328295D01*
X779147Y328395D01*
X779153Y328494D01*
X779163Y328594D01*
X779176Y328692D01*
X779194Y328791D01*
X779215Y328888D01*
X779240Y328984D01*
X779269Y329080D01*
X779302Y329174D01*
X779338Y329267D01*
X779378Y329358D01*
X779422Y329448D01*
X779469Y329536D01*
X779519Y329622D01*
X779573Y329706D01*
X779630Y329788D01*
X779690Y329867D01*
X779754Y329945D01*
X779820Y330019D01*
X779889Y330091D01*
X779961Y330160D01*
X780035Y330226D01*
X780113Y330290D01*
X780192Y330350D01*
X780274Y330407D01*
X780358Y330461D01*
X780444Y330511D01*
X780532Y330558D01*
X780622Y330602D01*
X780713Y330642D01*
X780806Y330678D01*
X780900Y330711D01*
X780996Y330740D01*
X781092Y330765D01*
X781189Y330786D01*
X781288Y330804D01*
X781386Y330817D01*
X781486Y330827D01*
X781585Y330833D01*
X781685Y330835D01*
X784225Y330835D01*
X788707Y319405D02*
X791882Y319405D01*
X791993Y319407D01*
X792103Y319413D01*
X792214Y319422D01*
X792324Y319436D01*
X792433Y319453D01*
X792542Y319474D01*
X792650Y319499D01*
X792757Y319528D01*
X792863Y319560D01*
X792968Y319596D01*
X793071Y319636D01*
X793173Y319679D01*
X793274Y319726D01*
X793373Y319777D01*
X793470Y319830D01*
X793564Y319887D01*
X793657Y319948D01*
X793748Y320011D01*
X793837Y320078D01*
X793923Y320148D01*
X794006Y320221D01*
X794088Y320296D01*
X794166Y320374D01*
X794241Y320456D01*
X794314Y320539D01*
X794384Y320625D01*
X794451Y320714D01*
X794514Y320805D01*
X794575Y320898D01*
X794632Y320992D01*
X794685Y321089D01*
X794736Y321188D01*
X794783Y321289D01*
X794826Y321391D01*
X794866Y321494D01*
X794902Y321599D01*
X794934Y321705D01*
X794963Y321812D01*
X794988Y321920D01*
X795009Y322029D01*
X795026Y322138D01*
X795040Y322248D01*
X795049Y322359D01*
X795055Y322469D01*
X795057Y322580D01*
X795055Y322691D01*
X795049Y322801D01*
X795040Y322912D01*
X795026Y323022D01*
X795009Y323131D01*
X794988Y323240D01*
X794963Y323348D01*
X794934Y323455D01*
X794902Y323561D01*
X794866Y323666D01*
X794826Y323769D01*
X794783Y323871D01*
X794736Y323972D01*
X794685Y324071D01*
X794632Y324167D01*
X794575Y324262D01*
X794514Y324355D01*
X794451Y324446D01*
X794384Y324535D01*
X794314Y324621D01*
X794241Y324704D01*
X794166Y324786D01*
X794088Y324864D01*
X794006Y324939D01*
X793923Y325012D01*
X793837Y325082D01*
X793748Y325149D01*
X793657Y325212D01*
X793564Y325273D01*
X793470Y325330D01*
X793373Y325383D01*
X793274Y325434D01*
X793173Y325481D01*
X793071Y325524D01*
X792968Y325564D01*
X792863Y325600D01*
X792757Y325632D01*
X792650Y325661D01*
X792542Y325686D01*
X792433Y325707D01*
X792324Y325724D01*
X792214Y325738D01*
X792103Y325747D01*
X791993Y325753D01*
X791882Y325755D01*
X792517Y330835D02*
X788707Y330835D01*
X792517Y330835D02*
X792617Y330833D01*
X792716Y330827D01*
X792816Y330817D01*
X792914Y330804D01*
X793013Y330786D01*
X793110Y330765D01*
X793206Y330740D01*
X793302Y330711D01*
X793396Y330678D01*
X793489Y330642D01*
X793580Y330602D01*
X793670Y330558D01*
X793758Y330511D01*
X793844Y330461D01*
X793928Y330407D01*
X794010Y330350D01*
X794089Y330290D01*
X794167Y330226D01*
X794241Y330160D01*
X794313Y330091D01*
X794382Y330019D01*
X794448Y329945D01*
X794512Y329867D01*
X794572Y329788D01*
X794629Y329706D01*
X794683Y329622D01*
X794733Y329536D01*
X794780Y329448D01*
X794824Y329358D01*
X794864Y329267D01*
X794900Y329174D01*
X794933Y329080D01*
X794962Y328984D01*
X794987Y328888D01*
X795008Y328791D01*
X795026Y328692D01*
X795039Y328594D01*
X795049Y328494D01*
X795055Y328395D01*
X795057Y328295D01*
X795055Y328195D01*
X795049Y328096D01*
X795039Y327996D01*
X795026Y327898D01*
X795008Y327799D01*
X794987Y327702D01*
X794962Y327606D01*
X794933Y327510D01*
X794900Y327416D01*
X794864Y327323D01*
X794824Y327232D01*
X794780Y327142D01*
X794733Y327054D01*
X794683Y326968D01*
X794629Y326884D01*
X794572Y326802D01*
X794512Y326723D01*
X794448Y326645D01*
X794382Y326571D01*
X794313Y326499D01*
X794241Y326430D01*
X794167Y326364D01*
X794089Y326300D01*
X794010Y326240D01*
X793928Y326183D01*
X793844Y326129D01*
X793758Y326079D01*
X793670Y326032D01*
X793580Y325988D01*
X793489Y325948D01*
X793396Y325912D01*
X793302Y325879D01*
X793206Y325850D01*
X793110Y325825D01*
X793013Y325804D01*
X792914Y325786D01*
X792816Y325773D01*
X792716Y325763D01*
X792617Y325757D01*
X792517Y325755D01*
X789977Y325755D01*
D14*
X679450Y206248D02*
X673100Y206248D01*
X666750Y206248D01*
D11*
X673100Y206248D02*
X673100Y218440D01*
D14*
X673100Y199898D02*
X679450Y199898D01*
X673100Y199898D02*
X666750Y199898D01*
D11*
X673100Y199898D02*
X673100Y187960D01*
X693420Y240030D02*
X652780Y240030D01*
X650240Y237490D02*
X650240Y168910D01*
X652780Y166370D02*
X693420Y166370D01*
X695960Y168910D02*
X695960Y237490D01*
X695960Y168910D02*
X695958Y168810D01*
X695952Y168711D01*
X695942Y168611D01*
X695929Y168513D01*
X695911Y168414D01*
X695890Y168317D01*
X695865Y168221D01*
X695836Y168125D01*
X695803Y168031D01*
X695767Y167938D01*
X695727Y167847D01*
X695683Y167757D01*
X695636Y167669D01*
X695586Y167583D01*
X695532Y167499D01*
X695475Y167417D01*
X695415Y167338D01*
X695351Y167260D01*
X695285Y167186D01*
X695216Y167114D01*
X695144Y167045D01*
X695070Y166979D01*
X694992Y166915D01*
X694913Y166855D01*
X694831Y166798D01*
X694747Y166744D01*
X694661Y166694D01*
X694573Y166647D01*
X694483Y166603D01*
X694392Y166563D01*
X694299Y166527D01*
X694205Y166494D01*
X694109Y166465D01*
X694013Y166440D01*
X693916Y166419D01*
X693817Y166401D01*
X693719Y166388D01*
X693619Y166378D01*
X693520Y166372D01*
X693420Y166370D01*
X652780Y166370D02*
X652680Y166372D01*
X652581Y166378D01*
X652481Y166388D01*
X652383Y166401D01*
X652284Y166419D01*
X652187Y166440D01*
X652091Y166465D01*
X651995Y166494D01*
X651901Y166527D01*
X651808Y166563D01*
X651717Y166603D01*
X651627Y166647D01*
X651539Y166694D01*
X651453Y166744D01*
X651369Y166798D01*
X651287Y166855D01*
X651208Y166915D01*
X651130Y166979D01*
X651056Y167045D01*
X650984Y167114D01*
X650915Y167186D01*
X650849Y167260D01*
X650785Y167338D01*
X650725Y167417D01*
X650668Y167499D01*
X650614Y167583D01*
X650564Y167669D01*
X650517Y167757D01*
X650473Y167847D01*
X650433Y167938D01*
X650397Y168031D01*
X650364Y168125D01*
X650335Y168221D01*
X650310Y168317D01*
X650289Y168414D01*
X650271Y168513D01*
X650258Y168611D01*
X650248Y168711D01*
X650242Y168810D01*
X650240Y168910D01*
X650240Y237490D02*
X650242Y237590D01*
X650248Y237689D01*
X650258Y237789D01*
X650271Y237887D01*
X650289Y237986D01*
X650310Y238083D01*
X650335Y238179D01*
X650364Y238275D01*
X650397Y238369D01*
X650433Y238462D01*
X650473Y238553D01*
X650517Y238643D01*
X650564Y238731D01*
X650614Y238817D01*
X650668Y238901D01*
X650725Y238983D01*
X650785Y239062D01*
X650849Y239140D01*
X650915Y239214D01*
X650984Y239286D01*
X651056Y239355D01*
X651130Y239421D01*
X651208Y239485D01*
X651287Y239545D01*
X651369Y239602D01*
X651453Y239656D01*
X651539Y239706D01*
X651627Y239753D01*
X651717Y239797D01*
X651808Y239837D01*
X651901Y239873D01*
X651995Y239906D01*
X652091Y239935D01*
X652187Y239960D01*
X652284Y239981D01*
X652383Y239999D01*
X652481Y240012D01*
X652581Y240022D01*
X652680Y240028D01*
X652780Y240030D01*
X693420Y240030D02*
X693520Y240028D01*
X693619Y240022D01*
X693719Y240012D01*
X693817Y239999D01*
X693916Y239981D01*
X694013Y239960D01*
X694109Y239935D01*
X694205Y239906D01*
X694299Y239873D01*
X694392Y239837D01*
X694483Y239797D01*
X694573Y239753D01*
X694661Y239706D01*
X694747Y239656D01*
X694831Y239602D01*
X694913Y239545D01*
X694992Y239485D01*
X695070Y239421D01*
X695144Y239355D01*
X695216Y239286D01*
X695285Y239214D01*
X695351Y239140D01*
X695415Y239062D01*
X695475Y238983D01*
X695532Y238901D01*
X695586Y238817D01*
X695636Y238731D01*
X695683Y238643D01*
X695727Y238553D01*
X695767Y238462D01*
X695803Y238369D01*
X695836Y238275D01*
X695865Y238179D01*
X695890Y238083D01*
X695911Y237986D01*
X695929Y237887D01*
X695942Y237789D01*
X695952Y237689D01*
X695958Y237590D01*
X695960Y237490D01*
D12*
X650875Y229235D02*
X650875Y226695D01*
X650873Y226595D01*
X650867Y226496D01*
X650857Y226396D01*
X650844Y226298D01*
X650826Y226199D01*
X650805Y226102D01*
X650780Y226006D01*
X650751Y225910D01*
X650718Y225816D01*
X650682Y225723D01*
X650642Y225632D01*
X650598Y225542D01*
X650551Y225454D01*
X650501Y225368D01*
X650447Y225284D01*
X650390Y225202D01*
X650330Y225123D01*
X650266Y225045D01*
X650200Y224971D01*
X650131Y224899D01*
X650059Y224830D01*
X649985Y224764D01*
X649907Y224700D01*
X649828Y224640D01*
X649746Y224583D01*
X649662Y224529D01*
X649576Y224479D01*
X649488Y224432D01*
X649398Y224388D01*
X649307Y224348D01*
X649214Y224312D01*
X649120Y224279D01*
X649024Y224250D01*
X648928Y224225D01*
X648831Y224204D01*
X648732Y224186D01*
X648634Y224173D01*
X648534Y224163D01*
X648435Y224157D01*
X648335Y224155D01*
X641985Y224155D01*
X641885Y224157D01*
X641786Y224163D01*
X641686Y224173D01*
X641588Y224186D01*
X641489Y224204D01*
X641392Y224225D01*
X641296Y224250D01*
X641200Y224279D01*
X641106Y224312D01*
X641013Y224348D01*
X640922Y224388D01*
X640832Y224432D01*
X640744Y224479D01*
X640658Y224529D01*
X640574Y224583D01*
X640492Y224640D01*
X640413Y224700D01*
X640335Y224764D01*
X640261Y224830D01*
X640189Y224899D01*
X640120Y224971D01*
X640054Y225045D01*
X639990Y225123D01*
X639930Y225202D01*
X639873Y225284D01*
X639819Y225368D01*
X639769Y225454D01*
X639722Y225542D01*
X639678Y225632D01*
X639638Y225723D01*
X639602Y225816D01*
X639569Y225910D01*
X639540Y226006D01*
X639515Y226102D01*
X639494Y226199D01*
X639476Y226298D01*
X639463Y226396D01*
X639453Y226496D01*
X639447Y226595D01*
X639445Y226695D01*
X639445Y229235D01*
X639445Y236257D02*
X648335Y233717D01*
X648335Y240067D01*
X645795Y238162D02*
X650875Y238162D01*
D11*
X749300Y121920D02*
X749300Y81280D01*
X774700Y81280D01*
X774700Y121920D01*
X749300Y121920D01*
X762000Y107950D02*
X762000Y101600D01*
X768350Y91440D02*
X755650Y91440D01*
X762000Y101600D01*
X762000Y86360D01*
X768350Y91440D02*
X762000Y101600D01*
X755650Y101600D01*
X768350Y101600D02*
X768350Y99060D01*
X768350Y101600D02*
X762000Y101600D01*
D15*
X762000Y115570D03*
D16*
X762000Y71755D03*
X762000Y131445D03*
D12*
X751205Y131445D02*
X739775Y131445D01*
X739775Y134620D01*
X739777Y134731D01*
X739783Y134841D01*
X739792Y134952D01*
X739806Y135062D01*
X739823Y135171D01*
X739844Y135280D01*
X739869Y135388D01*
X739898Y135495D01*
X739930Y135601D01*
X739966Y135706D01*
X740006Y135809D01*
X740049Y135911D01*
X740096Y136012D01*
X740147Y136111D01*
X740200Y136208D01*
X740257Y136302D01*
X740318Y136395D01*
X740381Y136486D01*
X740448Y136575D01*
X740518Y136661D01*
X740591Y136744D01*
X740666Y136826D01*
X740744Y136904D01*
X740826Y136979D01*
X740909Y137052D01*
X740995Y137122D01*
X741084Y137189D01*
X741175Y137252D01*
X741268Y137313D01*
X741363Y137370D01*
X741459Y137423D01*
X741558Y137474D01*
X741659Y137521D01*
X741761Y137564D01*
X741864Y137604D01*
X741969Y137640D01*
X742075Y137672D01*
X742182Y137701D01*
X742290Y137726D01*
X742399Y137747D01*
X742508Y137764D01*
X742618Y137778D01*
X742729Y137787D01*
X742839Y137793D01*
X742950Y137795D01*
X748030Y137795D01*
X748141Y137793D01*
X748251Y137787D01*
X748362Y137778D01*
X748472Y137764D01*
X748581Y137747D01*
X748690Y137726D01*
X748798Y137701D01*
X748905Y137672D01*
X749011Y137640D01*
X749116Y137604D01*
X749219Y137564D01*
X749321Y137521D01*
X749422Y137474D01*
X749521Y137423D01*
X749618Y137370D01*
X749712Y137313D01*
X749805Y137252D01*
X749896Y137189D01*
X749985Y137122D01*
X750071Y137052D01*
X750154Y136979D01*
X750236Y136904D01*
X750314Y136826D01*
X750389Y136744D01*
X750462Y136661D01*
X750532Y136575D01*
X750599Y136486D01*
X750662Y136395D01*
X750723Y136302D01*
X750780Y136208D01*
X750833Y136111D01*
X750884Y136012D01*
X750931Y135911D01*
X750974Y135809D01*
X751014Y135706D01*
X751050Y135601D01*
X751082Y135495D01*
X751111Y135388D01*
X751136Y135280D01*
X751157Y135171D01*
X751174Y135062D01*
X751188Y134952D01*
X751197Y134841D01*
X751203Y134731D01*
X751205Y134620D01*
X751205Y131445D01*
X742315Y143256D02*
X739775Y146431D01*
X751205Y146431D01*
X751205Y143256D02*
X751205Y149606D01*
D11*
X736600Y121920D02*
X736600Y81280D01*
X736600Y121920D02*
X711200Y121920D01*
X711200Y81280D01*
X736600Y81280D01*
X723900Y95250D02*
X723900Y101600D01*
X717550Y111760D02*
X730250Y111760D01*
X723900Y101600D01*
X723900Y116840D01*
X717550Y111760D02*
X723900Y101600D01*
X730250Y101600D01*
X717550Y101600D02*
X717550Y104140D01*
X717550Y101600D02*
X723900Y101600D01*
D15*
X723900Y87630D03*
D16*
X723900Y131445D03*
X723900Y71755D03*
D12*
X711835Y131445D02*
X700405Y131445D01*
X700405Y134620D01*
X700407Y134731D01*
X700413Y134841D01*
X700422Y134952D01*
X700436Y135062D01*
X700453Y135171D01*
X700474Y135280D01*
X700499Y135388D01*
X700528Y135495D01*
X700560Y135601D01*
X700596Y135706D01*
X700636Y135809D01*
X700679Y135911D01*
X700726Y136012D01*
X700777Y136111D01*
X700830Y136208D01*
X700887Y136302D01*
X700948Y136395D01*
X701011Y136486D01*
X701078Y136575D01*
X701148Y136661D01*
X701221Y136744D01*
X701296Y136826D01*
X701374Y136904D01*
X701456Y136979D01*
X701539Y137052D01*
X701625Y137122D01*
X701714Y137189D01*
X701805Y137252D01*
X701898Y137313D01*
X701993Y137370D01*
X702089Y137423D01*
X702188Y137474D01*
X702289Y137521D01*
X702391Y137564D01*
X702494Y137604D01*
X702599Y137640D01*
X702705Y137672D01*
X702812Y137701D01*
X702920Y137726D01*
X703029Y137747D01*
X703138Y137764D01*
X703248Y137778D01*
X703359Y137787D01*
X703469Y137793D01*
X703580Y137795D01*
X708660Y137795D01*
X708771Y137793D01*
X708881Y137787D01*
X708992Y137778D01*
X709102Y137764D01*
X709211Y137747D01*
X709320Y137726D01*
X709428Y137701D01*
X709535Y137672D01*
X709641Y137640D01*
X709746Y137604D01*
X709849Y137564D01*
X709951Y137521D01*
X710052Y137474D01*
X710151Y137423D01*
X710248Y137370D01*
X710342Y137313D01*
X710435Y137252D01*
X710526Y137189D01*
X710615Y137122D01*
X710701Y137052D01*
X710784Y136979D01*
X710866Y136904D01*
X710944Y136826D01*
X711019Y136744D01*
X711092Y136661D01*
X711162Y136575D01*
X711229Y136486D01*
X711292Y136395D01*
X711353Y136302D01*
X711410Y136208D01*
X711463Y136111D01*
X711514Y136012D01*
X711561Y135911D01*
X711604Y135809D01*
X711644Y135706D01*
X711680Y135601D01*
X711712Y135495D01*
X711741Y135388D01*
X711766Y135280D01*
X711787Y135171D01*
X711804Y135062D01*
X711818Y134952D01*
X711827Y134841D01*
X711833Y134731D01*
X711835Y134620D01*
X711835Y131445D01*
X700405Y146749D02*
X700407Y146853D01*
X700413Y146958D01*
X700422Y147062D01*
X700435Y147165D01*
X700453Y147268D01*
X700473Y147370D01*
X700498Y147472D01*
X700526Y147572D01*
X700558Y147672D01*
X700594Y147770D01*
X700633Y147867D01*
X700675Y147962D01*
X700721Y148056D01*
X700771Y148148D01*
X700823Y148238D01*
X700879Y148326D01*
X700939Y148412D01*
X701001Y148496D01*
X701066Y148577D01*
X701134Y148656D01*
X701206Y148733D01*
X701279Y148806D01*
X701356Y148878D01*
X701435Y148946D01*
X701516Y149011D01*
X701600Y149073D01*
X701686Y149133D01*
X701774Y149189D01*
X701864Y149241D01*
X701956Y149291D01*
X702050Y149337D01*
X702145Y149379D01*
X702242Y149418D01*
X702340Y149454D01*
X702440Y149486D01*
X702540Y149514D01*
X702642Y149539D01*
X702744Y149559D01*
X702847Y149577D01*
X702950Y149590D01*
X703054Y149599D01*
X703159Y149605D01*
X703263Y149607D01*
X700405Y146749D02*
X700407Y146631D01*
X700413Y146512D01*
X700422Y146394D01*
X700435Y146277D01*
X700453Y146160D01*
X700473Y146043D01*
X700498Y145927D01*
X700526Y145812D01*
X700559Y145699D01*
X700594Y145586D01*
X700634Y145474D01*
X700676Y145364D01*
X700723Y145255D01*
X700773Y145147D01*
X700826Y145042D01*
X700883Y144938D01*
X700943Y144836D01*
X701006Y144736D01*
X701073Y144638D01*
X701142Y144542D01*
X701215Y144449D01*
X701291Y144358D01*
X701369Y144269D01*
X701451Y144183D01*
X701535Y144100D01*
X701621Y144019D01*
X701711Y143942D01*
X701802Y143867D01*
X701896Y143795D01*
X701993Y143726D01*
X702091Y143661D01*
X702192Y143598D01*
X702295Y143539D01*
X702399Y143483D01*
X702505Y143431D01*
X702613Y143382D01*
X702722Y143337D01*
X702833Y143295D01*
X702945Y143257D01*
X705485Y148654D02*
X705410Y148730D01*
X705331Y148805D01*
X705250Y148876D01*
X705166Y148945D01*
X705080Y149010D01*
X704992Y149072D01*
X704902Y149132D01*
X704810Y149188D01*
X704715Y149241D01*
X704619Y149290D01*
X704521Y149336D01*
X704422Y149379D01*
X704321Y149418D01*
X704219Y149453D01*
X704116Y149485D01*
X704012Y149513D01*
X703907Y149538D01*
X703800Y149559D01*
X703694Y149576D01*
X703587Y149589D01*
X703479Y149598D01*
X703371Y149604D01*
X703263Y149606D01*
X705485Y148654D02*
X711835Y143256D01*
X711835Y149606D01*
D11*
X812800Y121920D02*
X812800Y81280D01*
X812800Y121920D02*
X787400Y121920D01*
X787400Y81280D01*
X812800Y81280D01*
X800100Y95250D02*
X800100Y101600D01*
X793750Y111760D02*
X806450Y111760D01*
X800100Y101600D01*
X800100Y116840D01*
X793750Y111760D02*
X800100Y101600D01*
X793750Y101600D01*
X800100Y101600D02*
X806450Y101600D01*
D15*
X800100Y87630D03*
D16*
X800100Y131445D03*
X800100Y71755D03*
D12*
X789305Y131445D02*
X777875Y131445D01*
X777875Y134620D01*
X777877Y134731D01*
X777883Y134841D01*
X777892Y134952D01*
X777906Y135062D01*
X777923Y135171D01*
X777944Y135280D01*
X777969Y135388D01*
X777998Y135495D01*
X778030Y135601D01*
X778066Y135706D01*
X778106Y135809D01*
X778149Y135911D01*
X778196Y136012D01*
X778247Y136111D01*
X778300Y136208D01*
X778357Y136302D01*
X778418Y136395D01*
X778481Y136486D01*
X778548Y136575D01*
X778618Y136661D01*
X778691Y136744D01*
X778766Y136826D01*
X778844Y136904D01*
X778926Y136979D01*
X779009Y137052D01*
X779095Y137122D01*
X779184Y137189D01*
X779275Y137252D01*
X779368Y137313D01*
X779463Y137370D01*
X779559Y137423D01*
X779658Y137474D01*
X779759Y137521D01*
X779861Y137564D01*
X779964Y137604D01*
X780069Y137640D01*
X780175Y137672D01*
X780282Y137701D01*
X780390Y137726D01*
X780499Y137747D01*
X780608Y137764D01*
X780718Y137778D01*
X780829Y137787D01*
X780939Y137793D01*
X781050Y137795D01*
X786130Y137795D01*
X786241Y137793D01*
X786351Y137787D01*
X786462Y137778D01*
X786572Y137764D01*
X786681Y137747D01*
X786790Y137726D01*
X786898Y137701D01*
X787005Y137672D01*
X787111Y137640D01*
X787216Y137604D01*
X787319Y137564D01*
X787421Y137521D01*
X787522Y137474D01*
X787621Y137423D01*
X787718Y137370D01*
X787812Y137313D01*
X787905Y137252D01*
X787996Y137189D01*
X788085Y137122D01*
X788171Y137052D01*
X788254Y136979D01*
X788336Y136904D01*
X788414Y136826D01*
X788489Y136744D01*
X788562Y136661D01*
X788632Y136575D01*
X788699Y136486D01*
X788762Y136395D01*
X788823Y136302D01*
X788880Y136208D01*
X788933Y136111D01*
X788984Y136012D01*
X789031Y135911D01*
X789074Y135809D01*
X789114Y135706D01*
X789150Y135601D01*
X789182Y135495D01*
X789211Y135388D01*
X789236Y135280D01*
X789257Y135171D01*
X789274Y135062D01*
X789288Y134952D01*
X789297Y134841D01*
X789303Y134731D01*
X789305Y134620D01*
X789305Y131445D01*
X786765Y143256D02*
X777875Y145796D01*
X786765Y143256D02*
X786765Y149606D01*
X784225Y147701D02*
X789305Y147701D01*
D17*
X779780Y170430D02*
X744220Y170430D01*
X744220Y235970D01*
X779780Y235970D01*
X779780Y170430D01*
D10*
X787908Y232862D02*
X787908Y241300D01*
X787908Y232862D02*
X787910Y232749D01*
X787916Y232636D01*
X787926Y232523D01*
X787940Y232410D01*
X787957Y232298D01*
X787979Y232187D01*
X788004Y232077D01*
X788034Y231967D01*
X788067Y231859D01*
X788104Y231752D01*
X788144Y231646D01*
X788189Y231542D01*
X788237Y231439D01*
X788288Y231338D01*
X788343Y231239D01*
X788401Y231142D01*
X788463Y231047D01*
X788528Y230954D01*
X788596Y230864D01*
X788667Y230776D01*
X788742Y230690D01*
X788819Y230607D01*
X788899Y230527D01*
X788982Y230450D01*
X789068Y230375D01*
X789156Y230304D01*
X789246Y230236D01*
X789339Y230171D01*
X789434Y230109D01*
X789531Y230051D01*
X789630Y229996D01*
X789731Y229945D01*
X789834Y229897D01*
X789938Y229852D01*
X790044Y229812D01*
X790151Y229775D01*
X790259Y229742D01*
X790369Y229712D01*
X790479Y229687D01*
X790590Y229665D01*
X790702Y229648D01*
X790815Y229634D01*
X790928Y229624D01*
X791041Y229618D01*
X791154Y229616D01*
X791267Y229618D01*
X791380Y229624D01*
X791493Y229634D01*
X791606Y229648D01*
X791718Y229665D01*
X791829Y229687D01*
X791939Y229712D01*
X792049Y229742D01*
X792157Y229775D01*
X792264Y229812D01*
X792370Y229852D01*
X792474Y229897D01*
X792577Y229945D01*
X792678Y229996D01*
X792777Y230051D01*
X792874Y230109D01*
X792969Y230171D01*
X793062Y230236D01*
X793152Y230304D01*
X793240Y230375D01*
X793326Y230450D01*
X793409Y230527D01*
X793489Y230607D01*
X793566Y230690D01*
X793641Y230776D01*
X793712Y230864D01*
X793780Y230954D01*
X793845Y231047D01*
X793907Y231142D01*
X793965Y231239D01*
X794020Y231338D01*
X794071Y231439D01*
X794119Y231542D01*
X794164Y231646D01*
X794204Y231752D01*
X794241Y231859D01*
X794274Y231967D01*
X794304Y232077D01*
X794329Y232187D01*
X794351Y232298D01*
X794368Y232410D01*
X794382Y232523D01*
X794392Y232636D01*
X794398Y232749D01*
X794400Y232862D01*
X794399Y232862D02*
X794399Y241300D01*
X802315Y241300D02*
X799719Y232212D01*
X806210Y232212D01*
X804263Y234809D02*
X804263Y229616D01*
D11*
X948690Y285750D02*
X948790Y285748D01*
X948889Y285742D01*
X948989Y285732D01*
X949087Y285719D01*
X949186Y285701D01*
X949283Y285680D01*
X949379Y285655D01*
X949475Y285626D01*
X949569Y285593D01*
X949662Y285557D01*
X949753Y285517D01*
X949843Y285473D01*
X949931Y285426D01*
X950017Y285376D01*
X950101Y285322D01*
X950183Y285265D01*
X950262Y285205D01*
X950340Y285141D01*
X950414Y285075D01*
X950486Y285006D01*
X950555Y284934D01*
X950621Y284860D01*
X950685Y284782D01*
X950745Y284703D01*
X950802Y284621D01*
X950856Y284537D01*
X950906Y284451D01*
X950953Y284363D01*
X950997Y284273D01*
X951037Y284182D01*
X951073Y284089D01*
X951106Y283995D01*
X951135Y283899D01*
X951160Y283803D01*
X951181Y283706D01*
X951199Y283607D01*
X951212Y283509D01*
X951222Y283409D01*
X951228Y283310D01*
X951230Y283210D01*
X930910Y285750D02*
X930810Y285748D01*
X930711Y285742D01*
X930611Y285732D01*
X930513Y285719D01*
X930414Y285701D01*
X930317Y285680D01*
X930221Y285655D01*
X930125Y285626D01*
X930031Y285593D01*
X929938Y285557D01*
X929847Y285517D01*
X929757Y285473D01*
X929669Y285426D01*
X929583Y285376D01*
X929499Y285322D01*
X929417Y285265D01*
X929338Y285205D01*
X929260Y285141D01*
X929186Y285075D01*
X929114Y285006D01*
X929045Y284934D01*
X928979Y284860D01*
X928915Y284782D01*
X928855Y284703D01*
X928798Y284621D01*
X928744Y284537D01*
X928694Y284451D01*
X928647Y284363D01*
X928603Y284273D01*
X928563Y284182D01*
X928527Y284089D01*
X928494Y283995D01*
X928465Y283899D01*
X928440Y283803D01*
X928419Y283706D01*
X928401Y283607D01*
X928388Y283509D01*
X928378Y283409D01*
X928372Y283310D01*
X928370Y283210D01*
X928370Y224790D02*
X928372Y224690D01*
X928378Y224591D01*
X928388Y224491D01*
X928401Y224393D01*
X928419Y224294D01*
X928440Y224197D01*
X928465Y224101D01*
X928494Y224005D01*
X928527Y223911D01*
X928563Y223818D01*
X928603Y223727D01*
X928647Y223637D01*
X928694Y223549D01*
X928744Y223463D01*
X928798Y223379D01*
X928855Y223297D01*
X928915Y223218D01*
X928979Y223140D01*
X929045Y223066D01*
X929114Y222994D01*
X929186Y222925D01*
X929260Y222859D01*
X929338Y222795D01*
X929417Y222735D01*
X929499Y222678D01*
X929583Y222624D01*
X929669Y222574D01*
X929757Y222527D01*
X929847Y222483D01*
X929938Y222443D01*
X930031Y222407D01*
X930125Y222374D01*
X930221Y222345D01*
X930317Y222320D01*
X930414Y222299D01*
X930513Y222281D01*
X930611Y222268D01*
X930711Y222258D01*
X930810Y222252D01*
X930910Y222250D01*
X948690Y222250D02*
X948790Y222252D01*
X948889Y222258D01*
X948989Y222268D01*
X949087Y222281D01*
X949186Y222299D01*
X949283Y222320D01*
X949379Y222345D01*
X949475Y222374D01*
X949569Y222407D01*
X949662Y222443D01*
X949753Y222483D01*
X949843Y222527D01*
X949931Y222574D01*
X950017Y222624D01*
X950101Y222678D01*
X950183Y222735D01*
X950262Y222795D01*
X950340Y222859D01*
X950414Y222925D01*
X950486Y222994D01*
X950555Y223066D01*
X950621Y223140D01*
X950685Y223218D01*
X950745Y223297D01*
X950802Y223379D01*
X950856Y223463D01*
X950906Y223549D01*
X950953Y223637D01*
X950997Y223727D01*
X951037Y223818D01*
X951073Y223911D01*
X951106Y224005D01*
X951135Y224101D01*
X951160Y224197D01*
X951181Y224294D01*
X951199Y224393D01*
X951212Y224491D01*
X951222Y224591D01*
X951228Y224690D01*
X951230Y224790D01*
X948690Y285750D02*
X930910Y285750D01*
X951230Y283210D02*
X951230Y279400D01*
X949960Y278130D01*
X928370Y279400D02*
X928370Y283210D01*
X928370Y279400D02*
X929640Y278130D01*
X949960Y229870D02*
X951230Y228600D01*
X949960Y229870D02*
X949960Y278130D01*
X929640Y229870D02*
X928370Y228600D01*
X929640Y229870D02*
X929640Y278130D01*
X951230Y228600D02*
X951230Y224790D01*
X928370Y224790D02*
X928370Y228600D01*
X930910Y222250D02*
X948690Y222250D01*
D18*
X939800Y217932D03*
X939800Y290068D03*
D12*
X930275Y318135D02*
X930275Y329565D01*
X933450Y329565D01*
X933561Y329563D01*
X933671Y329557D01*
X933782Y329548D01*
X933892Y329534D01*
X934001Y329517D01*
X934110Y329496D01*
X934218Y329471D01*
X934325Y329442D01*
X934431Y329410D01*
X934536Y329374D01*
X934639Y329334D01*
X934741Y329291D01*
X934842Y329244D01*
X934941Y329193D01*
X935038Y329140D01*
X935132Y329083D01*
X935225Y329022D01*
X935316Y328959D01*
X935405Y328892D01*
X935491Y328822D01*
X935574Y328749D01*
X935656Y328674D01*
X935734Y328596D01*
X935809Y328514D01*
X935882Y328431D01*
X935952Y328345D01*
X936019Y328256D01*
X936082Y328165D01*
X936143Y328072D01*
X936200Y327977D01*
X936253Y327881D01*
X936304Y327782D01*
X936351Y327681D01*
X936394Y327579D01*
X936434Y327476D01*
X936470Y327371D01*
X936502Y327265D01*
X936531Y327158D01*
X936556Y327050D01*
X936577Y326941D01*
X936594Y326832D01*
X936608Y326722D01*
X936617Y326611D01*
X936623Y326501D01*
X936625Y326390D01*
X936623Y326279D01*
X936617Y326169D01*
X936608Y326058D01*
X936594Y325948D01*
X936577Y325839D01*
X936556Y325730D01*
X936531Y325622D01*
X936502Y325515D01*
X936470Y325409D01*
X936434Y325304D01*
X936394Y325201D01*
X936351Y325099D01*
X936304Y324998D01*
X936253Y324899D01*
X936200Y324802D01*
X936143Y324708D01*
X936082Y324615D01*
X936019Y324524D01*
X935952Y324435D01*
X935882Y324349D01*
X935809Y324266D01*
X935734Y324184D01*
X935656Y324106D01*
X935574Y324031D01*
X935491Y323958D01*
X935405Y323888D01*
X935316Y323821D01*
X935225Y323758D01*
X935132Y323697D01*
X935038Y323640D01*
X934941Y323587D01*
X934842Y323536D01*
X934741Y323489D01*
X934639Y323446D01*
X934536Y323406D01*
X934431Y323370D01*
X934325Y323338D01*
X934218Y323309D01*
X934110Y323284D01*
X934001Y323263D01*
X933892Y323246D01*
X933782Y323232D01*
X933671Y323223D01*
X933561Y323217D01*
X933450Y323215D01*
X930275Y323215D01*
X934085Y323215D02*
X936625Y318135D01*
X947973Y326708D02*
X947971Y326812D01*
X947965Y326917D01*
X947956Y327021D01*
X947943Y327124D01*
X947925Y327227D01*
X947905Y327329D01*
X947880Y327431D01*
X947852Y327531D01*
X947820Y327631D01*
X947784Y327729D01*
X947745Y327826D01*
X947703Y327921D01*
X947657Y328015D01*
X947607Y328107D01*
X947555Y328197D01*
X947499Y328285D01*
X947439Y328371D01*
X947377Y328455D01*
X947312Y328536D01*
X947244Y328615D01*
X947172Y328692D01*
X947099Y328765D01*
X947022Y328837D01*
X946943Y328905D01*
X946862Y328970D01*
X946778Y329032D01*
X946692Y329092D01*
X946604Y329148D01*
X946514Y329200D01*
X946422Y329250D01*
X946328Y329296D01*
X946233Y329338D01*
X946136Y329377D01*
X946038Y329413D01*
X945938Y329445D01*
X945838Y329473D01*
X945736Y329498D01*
X945634Y329518D01*
X945531Y329536D01*
X945428Y329549D01*
X945324Y329558D01*
X945219Y329564D01*
X945115Y329566D01*
X945115Y329565D02*
X944997Y329563D01*
X944878Y329557D01*
X944760Y329548D01*
X944643Y329535D01*
X944526Y329517D01*
X944409Y329497D01*
X944293Y329472D01*
X944178Y329444D01*
X944065Y329411D01*
X943952Y329376D01*
X943840Y329336D01*
X943730Y329294D01*
X943621Y329247D01*
X943513Y329197D01*
X943408Y329144D01*
X943304Y329087D01*
X943202Y329027D01*
X943102Y328964D01*
X943004Y328897D01*
X942908Y328828D01*
X942815Y328755D01*
X942724Y328679D01*
X942635Y328601D01*
X942549Y328519D01*
X942466Y328435D01*
X942385Y328349D01*
X942308Y328259D01*
X942233Y328168D01*
X942161Y328074D01*
X942092Y327977D01*
X942027Y327879D01*
X941964Y327778D01*
X941905Y327675D01*
X941849Y327571D01*
X941797Y327465D01*
X941748Y327357D01*
X941703Y327248D01*
X941661Y327137D01*
X941623Y327025D01*
X947020Y324486D02*
X947096Y324561D01*
X947171Y324640D01*
X947242Y324721D01*
X947311Y324805D01*
X947376Y324891D01*
X947438Y324979D01*
X947498Y325069D01*
X947554Y325161D01*
X947607Y325256D01*
X947656Y325352D01*
X947702Y325450D01*
X947745Y325549D01*
X947784Y325650D01*
X947819Y325752D01*
X947851Y325855D01*
X947879Y325959D01*
X947904Y326064D01*
X947925Y326171D01*
X947942Y326277D01*
X947955Y326384D01*
X947964Y326492D01*
X947970Y326600D01*
X947972Y326708D01*
X947020Y324485D02*
X941622Y318135D01*
X947972Y318135D01*
D11*
X966470Y224790D02*
X966472Y224690D01*
X966478Y224591D01*
X966488Y224491D01*
X966501Y224393D01*
X966519Y224294D01*
X966540Y224197D01*
X966565Y224101D01*
X966594Y224005D01*
X966627Y223911D01*
X966663Y223818D01*
X966703Y223727D01*
X966747Y223637D01*
X966794Y223549D01*
X966844Y223463D01*
X966898Y223379D01*
X966955Y223297D01*
X967015Y223218D01*
X967079Y223140D01*
X967145Y223066D01*
X967214Y222994D01*
X967286Y222925D01*
X967360Y222859D01*
X967438Y222795D01*
X967517Y222735D01*
X967599Y222678D01*
X967683Y222624D01*
X967769Y222574D01*
X967857Y222527D01*
X967947Y222483D01*
X968038Y222443D01*
X968131Y222407D01*
X968225Y222374D01*
X968321Y222345D01*
X968417Y222320D01*
X968514Y222299D01*
X968613Y222281D01*
X968711Y222268D01*
X968811Y222258D01*
X968910Y222252D01*
X969010Y222250D01*
X986790Y222250D02*
X986890Y222252D01*
X986989Y222258D01*
X987089Y222268D01*
X987187Y222281D01*
X987286Y222299D01*
X987383Y222320D01*
X987479Y222345D01*
X987575Y222374D01*
X987669Y222407D01*
X987762Y222443D01*
X987853Y222483D01*
X987943Y222527D01*
X988031Y222574D01*
X988117Y222624D01*
X988201Y222678D01*
X988283Y222735D01*
X988362Y222795D01*
X988440Y222859D01*
X988514Y222925D01*
X988586Y222994D01*
X988655Y223066D01*
X988721Y223140D01*
X988785Y223218D01*
X988845Y223297D01*
X988902Y223379D01*
X988956Y223463D01*
X989006Y223549D01*
X989053Y223637D01*
X989097Y223727D01*
X989137Y223818D01*
X989173Y223911D01*
X989206Y224005D01*
X989235Y224101D01*
X989260Y224197D01*
X989281Y224294D01*
X989299Y224393D01*
X989312Y224491D01*
X989322Y224591D01*
X989328Y224690D01*
X989330Y224790D01*
X989330Y283210D02*
X989328Y283310D01*
X989322Y283409D01*
X989312Y283509D01*
X989299Y283607D01*
X989281Y283706D01*
X989260Y283803D01*
X989235Y283899D01*
X989206Y283995D01*
X989173Y284089D01*
X989137Y284182D01*
X989097Y284273D01*
X989053Y284363D01*
X989006Y284451D01*
X988956Y284537D01*
X988902Y284621D01*
X988845Y284703D01*
X988785Y284782D01*
X988721Y284860D01*
X988655Y284934D01*
X988586Y285006D01*
X988514Y285075D01*
X988440Y285141D01*
X988362Y285205D01*
X988283Y285265D01*
X988201Y285322D01*
X988117Y285376D01*
X988031Y285426D01*
X987943Y285473D01*
X987853Y285517D01*
X987762Y285557D01*
X987669Y285593D01*
X987575Y285626D01*
X987479Y285655D01*
X987383Y285680D01*
X987286Y285701D01*
X987187Y285719D01*
X987089Y285732D01*
X986989Y285742D01*
X986890Y285748D01*
X986790Y285750D01*
X969010Y285750D02*
X968910Y285748D01*
X968811Y285742D01*
X968711Y285732D01*
X968613Y285719D01*
X968514Y285701D01*
X968417Y285680D01*
X968321Y285655D01*
X968225Y285626D01*
X968131Y285593D01*
X968038Y285557D01*
X967947Y285517D01*
X967857Y285473D01*
X967769Y285426D01*
X967683Y285376D01*
X967599Y285322D01*
X967517Y285265D01*
X967438Y285205D01*
X967360Y285141D01*
X967286Y285075D01*
X967214Y285006D01*
X967145Y284934D01*
X967079Y284860D01*
X967015Y284782D01*
X966955Y284703D01*
X966898Y284621D01*
X966844Y284537D01*
X966794Y284451D01*
X966747Y284363D01*
X966703Y284273D01*
X966663Y284182D01*
X966627Y284089D01*
X966594Y283995D01*
X966565Y283899D01*
X966540Y283803D01*
X966519Y283706D01*
X966501Y283607D01*
X966488Y283509D01*
X966478Y283409D01*
X966472Y283310D01*
X966470Y283210D01*
X969010Y222250D02*
X986790Y222250D01*
X966470Y224790D02*
X966470Y228600D01*
X967740Y229870D01*
X989330Y228600D02*
X989330Y224790D01*
X989330Y228600D02*
X988060Y229870D01*
X967740Y278130D02*
X966470Y279400D01*
X967740Y278130D02*
X967740Y229870D01*
X988060Y278130D02*
X989330Y279400D01*
X988060Y278130D02*
X988060Y229870D01*
X966470Y279400D02*
X966470Y283210D01*
X989330Y283210D02*
X989330Y279400D01*
X986790Y285750D02*
X969010Y285750D01*
D18*
X977900Y290068D03*
X977900Y217932D03*
D12*
X968375Y318135D02*
X968375Y329565D01*
X971550Y329565D01*
X971661Y329563D01*
X971771Y329557D01*
X971882Y329548D01*
X971992Y329534D01*
X972101Y329517D01*
X972210Y329496D01*
X972318Y329471D01*
X972425Y329442D01*
X972531Y329410D01*
X972636Y329374D01*
X972739Y329334D01*
X972841Y329291D01*
X972942Y329244D01*
X973041Y329193D01*
X973138Y329140D01*
X973232Y329083D01*
X973325Y329022D01*
X973416Y328959D01*
X973505Y328892D01*
X973591Y328822D01*
X973674Y328749D01*
X973756Y328674D01*
X973834Y328596D01*
X973909Y328514D01*
X973982Y328431D01*
X974052Y328345D01*
X974119Y328256D01*
X974182Y328165D01*
X974243Y328072D01*
X974300Y327977D01*
X974353Y327881D01*
X974404Y327782D01*
X974451Y327681D01*
X974494Y327579D01*
X974534Y327476D01*
X974570Y327371D01*
X974602Y327265D01*
X974631Y327158D01*
X974656Y327050D01*
X974677Y326941D01*
X974694Y326832D01*
X974708Y326722D01*
X974717Y326611D01*
X974723Y326501D01*
X974725Y326390D01*
X974723Y326279D01*
X974717Y326169D01*
X974708Y326058D01*
X974694Y325948D01*
X974677Y325839D01*
X974656Y325730D01*
X974631Y325622D01*
X974602Y325515D01*
X974570Y325409D01*
X974534Y325304D01*
X974494Y325201D01*
X974451Y325099D01*
X974404Y324998D01*
X974353Y324899D01*
X974300Y324802D01*
X974243Y324708D01*
X974182Y324615D01*
X974119Y324524D01*
X974052Y324435D01*
X973982Y324349D01*
X973909Y324266D01*
X973834Y324184D01*
X973756Y324106D01*
X973674Y324031D01*
X973591Y323958D01*
X973505Y323888D01*
X973416Y323821D01*
X973325Y323758D01*
X973232Y323697D01*
X973138Y323640D01*
X973041Y323587D01*
X972942Y323536D01*
X972841Y323489D01*
X972739Y323446D01*
X972636Y323406D01*
X972531Y323370D01*
X972425Y323338D01*
X972318Y323309D01*
X972210Y323284D01*
X972101Y323263D01*
X971992Y323246D01*
X971882Y323232D01*
X971771Y323223D01*
X971661Y323217D01*
X971550Y323215D01*
X968375Y323215D01*
X972185Y323215D02*
X974725Y318135D01*
X979722Y318135D02*
X982897Y318135D01*
X983008Y318137D01*
X983118Y318143D01*
X983229Y318152D01*
X983339Y318166D01*
X983448Y318183D01*
X983557Y318204D01*
X983665Y318229D01*
X983772Y318258D01*
X983878Y318290D01*
X983983Y318326D01*
X984086Y318366D01*
X984188Y318409D01*
X984289Y318456D01*
X984388Y318507D01*
X984485Y318560D01*
X984579Y318617D01*
X984672Y318678D01*
X984763Y318741D01*
X984852Y318808D01*
X984938Y318878D01*
X985021Y318951D01*
X985103Y319026D01*
X985181Y319104D01*
X985256Y319186D01*
X985329Y319269D01*
X985399Y319355D01*
X985466Y319444D01*
X985529Y319535D01*
X985590Y319628D01*
X985647Y319722D01*
X985700Y319819D01*
X985751Y319918D01*
X985798Y320019D01*
X985841Y320121D01*
X985881Y320224D01*
X985917Y320329D01*
X985949Y320435D01*
X985978Y320542D01*
X986003Y320650D01*
X986024Y320759D01*
X986041Y320868D01*
X986055Y320978D01*
X986064Y321089D01*
X986070Y321199D01*
X986072Y321310D01*
X986070Y321421D01*
X986064Y321531D01*
X986055Y321642D01*
X986041Y321752D01*
X986024Y321861D01*
X986003Y321970D01*
X985978Y322078D01*
X985949Y322185D01*
X985917Y322291D01*
X985881Y322396D01*
X985841Y322499D01*
X985798Y322601D01*
X985751Y322702D01*
X985700Y322801D01*
X985647Y322897D01*
X985590Y322992D01*
X985529Y323085D01*
X985466Y323176D01*
X985399Y323265D01*
X985329Y323351D01*
X985256Y323434D01*
X985181Y323516D01*
X985103Y323594D01*
X985021Y323669D01*
X984938Y323742D01*
X984852Y323812D01*
X984763Y323879D01*
X984672Y323942D01*
X984579Y324003D01*
X984485Y324060D01*
X984388Y324113D01*
X984289Y324164D01*
X984188Y324211D01*
X984086Y324254D01*
X983983Y324294D01*
X983878Y324330D01*
X983772Y324362D01*
X983665Y324391D01*
X983557Y324416D01*
X983448Y324437D01*
X983339Y324454D01*
X983229Y324468D01*
X983118Y324477D01*
X983008Y324483D01*
X982897Y324485D01*
X983532Y329565D02*
X979722Y329565D01*
X983532Y329565D02*
X983632Y329563D01*
X983731Y329557D01*
X983831Y329547D01*
X983929Y329534D01*
X984028Y329516D01*
X984125Y329495D01*
X984221Y329470D01*
X984317Y329441D01*
X984411Y329408D01*
X984504Y329372D01*
X984595Y329332D01*
X984685Y329288D01*
X984773Y329241D01*
X984859Y329191D01*
X984943Y329137D01*
X985025Y329080D01*
X985104Y329020D01*
X985182Y328956D01*
X985256Y328890D01*
X985328Y328821D01*
X985397Y328749D01*
X985463Y328675D01*
X985527Y328597D01*
X985587Y328518D01*
X985644Y328436D01*
X985698Y328352D01*
X985748Y328266D01*
X985795Y328178D01*
X985839Y328088D01*
X985879Y327997D01*
X985915Y327904D01*
X985948Y327810D01*
X985977Y327714D01*
X986002Y327618D01*
X986023Y327521D01*
X986041Y327422D01*
X986054Y327324D01*
X986064Y327224D01*
X986070Y327125D01*
X986072Y327025D01*
X986070Y326925D01*
X986064Y326826D01*
X986054Y326726D01*
X986041Y326628D01*
X986023Y326529D01*
X986002Y326432D01*
X985977Y326336D01*
X985948Y326240D01*
X985915Y326146D01*
X985879Y326053D01*
X985839Y325962D01*
X985795Y325872D01*
X985748Y325784D01*
X985698Y325698D01*
X985644Y325614D01*
X985587Y325532D01*
X985527Y325453D01*
X985463Y325375D01*
X985397Y325301D01*
X985328Y325229D01*
X985256Y325160D01*
X985182Y325094D01*
X985104Y325030D01*
X985025Y324970D01*
X984943Y324913D01*
X984859Y324859D01*
X984773Y324809D01*
X984685Y324762D01*
X984595Y324718D01*
X984504Y324678D01*
X984411Y324642D01*
X984317Y324609D01*
X984221Y324580D01*
X984125Y324555D01*
X984028Y324534D01*
X983929Y324516D01*
X983831Y324503D01*
X983731Y324493D01*
X983632Y324487D01*
X983532Y324485D01*
X980992Y324485D01*
D11*
X897890Y189230D02*
X897790Y189228D01*
X897691Y189222D01*
X897591Y189212D01*
X897493Y189199D01*
X897394Y189181D01*
X897297Y189160D01*
X897201Y189135D01*
X897105Y189106D01*
X897011Y189073D01*
X896918Y189037D01*
X896827Y188997D01*
X896737Y188953D01*
X896649Y188906D01*
X896563Y188856D01*
X896479Y188802D01*
X896397Y188745D01*
X896318Y188685D01*
X896240Y188621D01*
X896166Y188555D01*
X896094Y188486D01*
X896025Y188414D01*
X895959Y188340D01*
X895895Y188262D01*
X895835Y188183D01*
X895778Y188101D01*
X895724Y188017D01*
X895674Y187931D01*
X895627Y187843D01*
X895583Y187753D01*
X895543Y187662D01*
X895507Y187569D01*
X895474Y187475D01*
X895445Y187379D01*
X895420Y187283D01*
X895399Y187186D01*
X895381Y187087D01*
X895368Y186989D01*
X895358Y186889D01*
X895352Y186790D01*
X895350Y186690D01*
X895350Y168910D02*
X895352Y168810D01*
X895358Y168711D01*
X895368Y168611D01*
X895381Y168513D01*
X895399Y168414D01*
X895420Y168317D01*
X895445Y168221D01*
X895474Y168125D01*
X895507Y168031D01*
X895543Y167938D01*
X895583Y167847D01*
X895627Y167757D01*
X895674Y167669D01*
X895724Y167583D01*
X895778Y167499D01*
X895835Y167417D01*
X895895Y167338D01*
X895959Y167260D01*
X896025Y167186D01*
X896094Y167114D01*
X896166Y167045D01*
X896240Y166979D01*
X896318Y166915D01*
X896397Y166855D01*
X896479Y166798D01*
X896563Y166744D01*
X896649Y166694D01*
X896737Y166647D01*
X896827Y166603D01*
X896918Y166563D01*
X897011Y166527D01*
X897105Y166494D01*
X897201Y166465D01*
X897297Y166440D01*
X897394Y166419D01*
X897493Y166401D01*
X897591Y166388D01*
X897691Y166378D01*
X897790Y166372D01*
X897890Y166370D01*
X956310Y166370D02*
X956410Y166372D01*
X956509Y166378D01*
X956609Y166388D01*
X956707Y166401D01*
X956806Y166419D01*
X956903Y166440D01*
X956999Y166465D01*
X957095Y166494D01*
X957189Y166527D01*
X957282Y166563D01*
X957373Y166603D01*
X957463Y166647D01*
X957551Y166694D01*
X957637Y166744D01*
X957721Y166798D01*
X957803Y166855D01*
X957882Y166915D01*
X957960Y166979D01*
X958034Y167045D01*
X958106Y167114D01*
X958175Y167186D01*
X958241Y167260D01*
X958305Y167338D01*
X958365Y167417D01*
X958422Y167499D01*
X958476Y167583D01*
X958526Y167669D01*
X958573Y167757D01*
X958617Y167847D01*
X958657Y167938D01*
X958693Y168031D01*
X958726Y168125D01*
X958755Y168221D01*
X958780Y168317D01*
X958801Y168414D01*
X958819Y168513D01*
X958832Y168611D01*
X958842Y168711D01*
X958848Y168810D01*
X958850Y168910D01*
X958850Y186690D02*
X958848Y186790D01*
X958842Y186889D01*
X958832Y186989D01*
X958819Y187087D01*
X958801Y187186D01*
X958780Y187283D01*
X958755Y187379D01*
X958726Y187475D01*
X958693Y187569D01*
X958657Y187662D01*
X958617Y187753D01*
X958573Y187843D01*
X958526Y187931D01*
X958476Y188017D01*
X958422Y188101D01*
X958365Y188183D01*
X958305Y188262D01*
X958241Y188340D01*
X958175Y188414D01*
X958106Y188486D01*
X958034Y188555D01*
X957960Y188621D01*
X957882Y188685D01*
X957803Y188745D01*
X957721Y188802D01*
X957637Y188856D01*
X957551Y188906D01*
X957463Y188953D01*
X957373Y188997D01*
X957282Y189037D01*
X957189Y189073D01*
X957095Y189106D01*
X956999Y189135D01*
X956903Y189160D01*
X956806Y189181D01*
X956707Y189199D01*
X956609Y189212D01*
X956509Y189222D01*
X956410Y189228D01*
X956310Y189230D01*
X895350Y186690D02*
X895350Y168910D01*
X897890Y189230D02*
X901700Y189230D01*
X902970Y187960D01*
X901700Y166370D02*
X897890Y166370D01*
X901700Y166370D02*
X902970Y167640D01*
X951230Y187960D02*
X952500Y189230D01*
X951230Y187960D02*
X902970Y187960D01*
X951230Y167640D02*
X952500Y166370D01*
X951230Y167640D02*
X902970Y167640D01*
X952500Y189230D02*
X956310Y189230D01*
X956310Y166370D02*
X952500Y166370D01*
X958850Y168910D02*
X958850Y186690D01*
D19*
X963168Y177800D03*
X891032Y177800D03*
D12*
X911225Y193675D02*
X911225Y205105D01*
X914400Y205105D01*
X914511Y205103D01*
X914621Y205097D01*
X914732Y205088D01*
X914842Y205074D01*
X914951Y205057D01*
X915060Y205036D01*
X915168Y205011D01*
X915275Y204982D01*
X915381Y204950D01*
X915486Y204914D01*
X915589Y204874D01*
X915691Y204831D01*
X915792Y204784D01*
X915891Y204733D01*
X915988Y204680D01*
X916082Y204623D01*
X916175Y204562D01*
X916266Y204499D01*
X916355Y204432D01*
X916441Y204362D01*
X916524Y204289D01*
X916606Y204214D01*
X916684Y204136D01*
X916759Y204054D01*
X916832Y203971D01*
X916902Y203885D01*
X916969Y203796D01*
X917032Y203705D01*
X917093Y203612D01*
X917150Y203517D01*
X917203Y203421D01*
X917254Y203322D01*
X917301Y203221D01*
X917344Y203119D01*
X917384Y203016D01*
X917420Y202911D01*
X917452Y202805D01*
X917481Y202698D01*
X917506Y202590D01*
X917527Y202481D01*
X917544Y202372D01*
X917558Y202262D01*
X917567Y202151D01*
X917573Y202041D01*
X917575Y201930D01*
X917573Y201819D01*
X917567Y201709D01*
X917558Y201598D01*
X917544Y201488D01*
X917527Y201379D01*
X917506Y201270D01*
X917481Y201162D01*
X917452Y201055D01*
X917420Y200949D01*
X917384Y200844D01*
X917344Y200741D01*
X917301Y200639D01*
X917254Y200538D01*
X917203Y200439D01*
X917150Y200342D01*
X917093Y200248D01*
X917032Y200155D01*
X916969Y200064D01*
X916902Y199975D01*
X916832Y199889D01*
X916759Y199806D01*
X916684Y199724D01*
X916606Y199646D01*
X916524Y199571D01*
X916441Y199498D01*
X916355Y199428D01*
X916266Y199361D01*
X916175Y199298D01*
X916082Y199237D01*
X915988Y199180D01*
X915891Y199127D01*
X915792Y199076D01*
X915691Y199029D01*
X915589Y198986D01*
X915486Y198946D01*
X915381Y198910D01*
X915275Y198878D01*
X915168Y198849D01*
X915060Y198824D01*
X914951Y198803D01*
X914842Y198786D01*
X914732Y198772D01*
X914621Y198763D01*
X914511Y198757D01*
X914400Y198755D01*
X911225Y198755D01*
X915035Y198755D02*
X917575Y193675D01*
X922572Y196215D02*
X925112Y205105D01*
X922572Y196215D02*
X928922Y196215D01*
X927017Y198755D02*
X927017Y193675D01*
D14*
X587248Y50800D02*
X587248Y44450D01*
X587248Y50800D02*
X587248Y57150D01*
D11*
X587248Y50800D02*
X599440Y50800D01*
D14*
X580898Y50800D02*
X580898Y44450D01*
X580898Y50800D02*
X580898Y57150D01*
D11*
X580898Y50800D02*
X568960Y50800D01*
X621030Y35560D02*
X621030Y66040D01*
X618490Y68580D02*
X549910Y68580D01*
X547370Y66040D02*
X547370Y35560D01*
X549910Y33020D02*
X618490Y33020D01*
X549910Y33020D02*
X549810Y33022D01*
X549711Y33028D01*
X549611Y33038D01*
X549513Y33051D01*
X549414Y33069D01*
X549317Y33090D01*
X549221Y33115D01*
X549125Y33144D01*
X549031Y33177D01*
X548938Y33213D01*
X548847Y33253D01*
X548757Y33297D01*
X548669Y33344D01*
X548583Y33394D01*
X548499Y33448D01*
X548417Y33505D01*
X548338Y33565D01*
X548260Y33629D01*
X548186Y33695D01*
X548114Y33764D01*
X548045Y33836D01*
X547979Y33910D01*
X547915Y33988D01*
X547855Y34067D01*
X547798Y34149D01*
X547744Y34233D01*
X547694Y34319D01*
X547647Y34407D01*
X547603Y34497D01*
X547563Y34588D01*
X547527Y34681D01*
X547494Y34775D01*
X547465Y34871D01*
X547440Y34967D01*
X547419Y35064D01*
X547401Y35163D01*
X547388Y35261D01*
X547378Y35361D01*
X547372Y35460D01*
X547370Y35560D01*
X547370Y66040D02*
X547372Y66140D01*
X547378Y66239D01*
X547388Y66339D01*
X547401Y66437D01*
X547419Y66536D01*
X547440Y66633D01*
X547465Y66729D01*
X547494Y66825D01*
X547527Y66919D01*
X547563Y67012D01*
X547603Y67103D01*
X547647Y67193D01*
X547694Y67281D01*
X547744Y67367D01*
X547798Y67451D01*
X547855Y67533D01*
X547915Y67612D01*
X547979Y67690D01*
X548045Y67764D01*
X548114Y67836D01*
X548186Y67905D01*
X548260Y67971D01*
X548338Y68035D01*
X548417Y68095D01*
X548499Y68152D01*
X548583Y68206D01*
X548669Y68256D01*
X548757Y68303D01*
X548847Y68347D01*
X548938Y68387D01*
X549031Y68423D01*
X549125Y68456D01*
X549221Y68485D01*
X549317Y68510D01*
X549414Y68531D01*
X549513Y68549D01*
X549611Y68562D01*
X549711Y68572D01*
X549810Y68578D01*
X549910Y68580D01*
X618490Y68580D02*
X618590Y68578D01*
X618689Y68572D01*
X618789Y68562D01*
X618887Y68549D01*
X618986Y68531D01*
X619083Y68510D01*
X619179Y68485D01*
X619275Y68456D01*
X619369Y68423D01*
X619462Y68387D01*
X619553Y68347D01*
X619643Y68303D01*
X619731Y68256D01*
X619817Y68206D01*
X619901Y68152D01*
X619983Y68095D01*
X620062Y68035D01*
X620140Y67971D01*
X620214Y67905D01*
X620286Y67836D01*
X620355Y67764D01*
X620421Y67690D01*
X620485Y67612D01*
X620545Y67533D01*
X620602Y67451D01*
X620656Y67367D01*
X620706Y67281D01*
X620753Y67193D01*
X620797Y67103D01*
X620837Y67012D01*
X620873Y66919D01*
X620906Y66825D01*
X620935Y66729D01*
X620960Y66633D01*
X620981Y66536D01*
X620999Y66437D01*
X621012Y66339D01*
X621022Y66239D01*
X621028Y66140D01*
X621030Y66040D01*
X621030Y35560D02*
X621028Y35460D01*
X621022Y35361D01*
X621012Y35261D01*
X620999Y35163D01*
X620981Y35064D01*
X620960Y34967D01*
X620935Y34871D01*
X620906Y34775D01*
X620873Y34681D01*
X620837Y34588D01*
X620797Y34497D01*
X620753Y34407D01*
X620706Y34319D01*
X620656Y34233D01*
X620602Y34149D01*
X620545Y34067D01*
X620485Y33988D01*
X620421Y33910D01*
X620355Y33836D01*
X620286Y33764D01*
X620214Y33695D01*
X620140Y33629D01*
X620062Y33565D01*
X619983Y33505D01*
X619901Y33448D01*
X619817Y33394D01*
X619731Y33344D01*
X619643Y33297D01*
X619553Y33253D01*
X619462Y33213D01*
X619369Y33177D01*
X619275Y33144D01*
X619179Y33115D01*
X619083Y33090D01*
X618986Y33069D01*
X618887Y33051D01*
X618789Y33038D01*
X618689Y33028D01*
X618590Y33022D01*
X618490Y33020D01*
D12*
X628613Y28575D02*
X631153Y28575D01*
X628613Y28575D02*
X628513Y28577D01*
X628414Y28583D01*
X628314Y28593D01*
X628216Y28606D01*
X628117Y28624D01*
X628020Y28645D01*
X627924Y28670D01*
X627828Y28699D01*
X627734Y28732D01*
X627641Y28768D01*
X627550Y28808D01*
X627460Y28852D01*
X627372Y28899D01*
X627286Y28949D01*
X627202Y29003D01*
X627120Y29060D01*
X627041Y29120D01*
X626963Y29184D01*
X626889Y29250D01*
X626817Y29319D01*
X626748Y29391D01*
X626682Y29465D01*
X626618Y29543D01*
X626558Y29622D01*
X626501Y29704D01*
X626447Y29788D01*
X626397Y29874D01*
X626350Y29962D01*
X626306Y30052D01*
X626266Y30143D01*
X626230Y30236D01*
X626197Y30330D01*
X626168Y30426D01*
X626143Y30522D01*
X626122Y30619D01*
X626104Y30718D01*
X626091Y30816D01*
X626081Y30916D01*
X626075Y31015D01*
X626073Y31115D01*
X626073Y37465D01*
X626075Y37565D01*
X626081Y37664D01*
X626091Y37764D01*
X626104Y37862D01*
X626122Y37961D01*
X626143Y38058D01*
X626168Y38154D01*
X626197Y38250D01*
X626230Y38344D01*
X626266Y38437D01*
X626306Y38528D01*
X626350Y38618D01*
X626397Y38706D01*
X626447Y38792D01*
X626501Y38876D01*
X626558Y38958D01*
X626618Y39037D01*
X626682Y39115D01*
X626748Y39189D01*
X626817Y39261D01*
X626889Y39330D01*
X626963Y39396D01*
X627041Y39460D01*
X627120Y39520D01*
X627202Y39577D01*
X627286Y39631D01*
X627372Y39681D01*
X627460Y39728D01*
X627550Y39772D01*
X627641Y39812D01*
X627734Y39848D01*
X627828Y39881D01*
X627924Y39910D01*
X628020Y39935D01*
X628117Y39956D01*
X628216Y39974D01*
X628314Y39987D01*
X628414Y39997D01*
X628513Y40003D01*
X628613Y40005D01*
X631153Y40005D01*
X639128Y40006D02*
X639232Y40004D01*
X639337Y39998D01*
X639441Y39989D01*
X639544Y39976D01*
X639647Y39958D01*
X639749Y39938D01*
X639851Y39913D01*
X639951Y39885D01*
X640051Y39853D01*
X640149Y39817D01*
X640246Y39778D01*
X640341Y39736D01*
X640435Y39690D01*
X640527Y39640D01*
X640617Y39588D01*
X640705Y39532D01*
X640791Y39472D01*
X640875Y39410D01*
X640956Y39345D01*
X641035Y39277D01*
X641112Y39205D01*
X641185Y39132D01*
X641257Y39055D01*
X641325Y38976D01*
X641390Y38895D01*
X641452Y38811D01*
X641512Y38725D01*
X641568Y38637D01*
X641620Y38547D01*
X641670Y38455D01*
X641716Y38361D01*
X641758Y38266D01*
X641797Y38169D01*
X641833Y38071D01*
X641865Y37971D01*
X641893Y37871D01*
X641918Y37769D01*
X641938Y37667D01*
X641956Y37564D01*
X641969Y37461D01*
X641978Y37357D01*
X641984Y37252D01*
X641986Y37148D01*
X639128Y40005D02*
X639010Y40003D01*
X638891Y39997D01*
X638773Y39988D01*
X638656Y39975D01*
X638539Y39957D01*
X638422Y39937D01*
X638306Y39912D01*
X638191Y39884D01*
X638078Y39851D01*
X637965Y39816D01*
X637853Y39776D01*
X637743Y39734D01*
X637634Y39687D01*
X637526Y39637D01*
X637421Y39584D01*
X637317Y39527D01*
X637215Y39467D01*
X637115Y39404D01*
X637017Y39337D01*
X636921Y39268D01*
X636828Y39195D01*
X636737Y39119D01*
X636648Y39041D01*
X636562Y38959D01*
X636479Y38875D01*
X636398Y38789D01*
X636321Y38699D01*
X636246Y38608D01*
X636174Y38514D01*
X636105Y38417D01*
X636040Y38319D01*
X635977Y38218D01*
X635918Y38115D01*
X635862Y38011D01*
X635810Y37905D01*
X635761Y37797D01*
X635716Y37688D01*
X635674Y37577D01*
X635636Y37465D01*
X641033Y34926D02*
X641109Y35001D01*
X641184Y35080D01*
X641255Y35161D01*
X641324Y35245D01*
X641389Y35331D01*
X641451Y35419D01*
X641511Y35509D01*
X641567Y35601D01*
X641620Y35696D01*
X641669Y35792D01*
X641715Y35890D01*
X641758Y35989D01*
X641797Y36090D01*
X641832Y36192D01*
X641864Y36295D01*
X641892Y36399D01*
X641917Y36504D01*
X641938Y36611D01*
X641955Y36717D01*
X641968Y36824D01*
X641977Y36932D01*
X641983Y37040D01*
X641985Y37148D01*
X641033Y34925D02*
X635635Y28575D01*
X641985Y28575D01*
X438000Y176530D02*
X438021Y178248D01*
X438084Y179965D01*
X438190Y181680D01*
X438337Y183391D01*
X438526Y185099D01*
X438758Y186801D01*
X439031Y188497D01*
X439345Y190186D01*
X439701Y191867D01*
X440098Y193539D01*
X440536Y195200D01*
X441014Y196850D01*
X441533Y198488D01*
X442092Y200112D01*
X442691Y201723D01*
X443328Y203318D01*
X444005Y204897D01*
X444721Y206459D01*
X445474Y208003D01*
X446266Y209528D01*
X447094Y211033D01*
X447959Y212517D01*
X448860Y213980D01*
X449797Y215420D01*
X450769Y216837D01*
X451775Y218229D01*
X452816Y219596D01*
X453889Y220938D01*
X454995Y222252D01*
X456133Y223539D01*
X457303Y224798D01*
X458503Y226027D01*
X459732Y227227D01*
X460991Y228397D01*
X462278Y229535D01*
X463592Y230641D01*
X464934Y231714D01*
X466301Y232755D01*
X467693Y233761D01*
X469110Y234733D01*
X470550Y235670D01*
X472013Y236571D01*
X473497Y237436D01*
X475002Y238264D01*
X476527Y239056D01*
X478071Y239809D01*
X479633Y240525D01*
X481212Y241202D01*
X482807Y241839D01*
X484418Y242438D01*
X486042Y242997D01*
X487680Y243516D01*
X489330Y243994D01*
X490991Y244432D01*
X492663Y244829D01*
X494344Y245185D01*
X496033Y245499D01*
X497729Y245772D01*
X499431Y246004D01*
X501139Y246193D01*
X502850Y246340D01*
X504565Y246446D01*
X506282Y246509D01*
X508000Y246530D01*
X509718Y246509D01*
X511435Y246446D01*
X513150Y246340D01*
X514861Y246193D01*
X516569Y246004D01*
X518271Y245772D01*
X519967Y245499D01*
X521656Y245185D01*
X523337Y244829D01*
X525009Y244432D01*
X526670Y243994D01*
X528320Y243516D01*
X529958Y242997D01*
X531582Y242438D01*
X533193Y241839D01*
X534788Y241202D01*
X536367Y240525D01*
X537929Y239809D01*
X539473Y239056D01*
X540998Y238264D01*
X542503Y237436D01*
X543987Y236571D01*
X545450Y235670D01*
X546890Y234733D01*
X548307Y233761D01*
X549699Y232755D01*
X551066Y231714D01*
X552408Y230641D01*
X553722Y229535D01*
X555009Y228397D01*
X556268Y227227D01*
X557497Y226027D01*
X558697Y224798D01*
X559867Y223539D01*
X561005Y222252D01*
X562111Y220938D01*
X563184Y219596D01*
X564225Y218229D01*
X565231Y216837D01*
X566203Y215420D01*
X567140Y213980D01*
X568041Y212517D01*
X568906Y211033D01*
X569734Y209528D01*
X570526Y208003D01*
X571279Y206459D01*
X571995Y204897D01*
X572672Y203318D01*
X573309Y201723D01*
X573908Y200112D01*
X574467Y198488D01*
X574986Y196850D01*
X575464Y195200D01*
X575902Y193539D01*
X576299Y191867D01*
X576655Y190186D01*
X576969Y188497D01*
X577242Y186801D01*
X577474Y185099D01*
X577663Y183391D01*
X577810Y181680D01*
X577916Y179965D01*
X577979Y178248D01*
X578000Y176530D01*
X577979Y174812D01*
X577916Y173095D01*
X577810Y171380D01*
X577663Y169669D01*
X577474Y167961D01*
X577242Y166259D01*
X576969Y164563D01*
X576655Y162874D01*
X576299Y161193D01*
X575902Y159521D01*
X575464Y157860D01*
X574986Y156210D01*
X574467Y154572D01*
X573908Y152948D01*
X573309Y151337D01*
X572672Y149742D01*
X571995Y148163D01*
X571279Y146601D01*
X570526Y145057D01*
X569734Y143532D01*
X568906Y142027D01*
X568041Y140543D01*
X567140Y139080D01*
X566203Y137640D01*
X565231Y136223D01*
X564225Y134831D01*
X563184Y133464D01*
X562111Y132122D01*
X561005Y130808D01*
X559867Y129521D01*
X558697Y128262D01*
X557497Y127033D01*
X556268Y125833D01*
X555009Y124663D01*
X553722Y123525D01*
X552408Y122419D01*
X551066Y121346D01*
X549699Y120305D01*
X548307Y119299D01*
X546890Y118327D01*
X545450Y117390D01*
X543987Y116489D01*
X542503Y115624D01*
X540998Y114796D01*
X539473Y114004D01*
X537929Y113251D01*
X536367Y112535D01*
X534788Y111858D01*
X533193Y111221D01*
X531582Y110622D01*
X529958Y110063D01*
X528320Y109544D01*
X526670Y109066D01*
X525009Y108628D01*
X523337Y108231D01*
X521656Y107875D01*
X519967Y107561D01*
X518271Y107288D01*
X516569Y107056D01*
X514861Y106867D01*
X513150Y106720D01*
X511435Y106614D01*
X509718Y106551D01*
X508000Y106530D01*
X506282Y106551D01*
X504565Y106614D01*
X502850Y106720D01*
X501139Y106867D01*
X499431Y107056D01*
X497729Y107288D01*
X496033Y107561D01*
X494344Y107875D01*
X492663Y108231D01*
X490991Y108628D01*
X489330Y109066D01*
X487680Y109544D01*
X486042Y110063D01*
X484418Y110622D01*
X482807Y111221D01*
X481212Y111858D01*
X479633Y112535D01*
X478071Y113251D01*
X476527Y114004D01*
X475002Y114796D01*
X473497Y115624D01*
X472013Y116489D01*
X470550Y117390D01*
X469110Y118327D01*
X467693Y119299D01*
X466301Y120305D01*
X464934Y121346D01*
X463592Y122419D01*
X462278Y123525D01*
X460991Y124663D01*
X459732Y125833D01*
X458503Y127033D01*
X457303Y128262D01*
X456133Y129521D01*
X454995Y130808D01*
X453889Y132122D01*
X452816Y133464D01*
X451775Y134831D01*
X450769Y136223D01*
X449797Y137640D01*
X448860Y139080D01*
X447959Y140543D01*
X447094Y142027D01*
X446266Y143532D01*
X445474Y145057D01*
X444721Y146601D01*
X444005Y148163D01*
X443328Y149742D01*
X442691Y151337D01*
X442092Y152948D01*
X441533Y154572D01*
X441014Y156210D01*
X440536Y157860D01*
X440098Y159521D01*
X439701Y161193D01*
X439345Y162874D01*
X439031Y164563D01*
X438758Y166259D01*
X438526Y167961D01*
X438337Y169669D01*
X438190Y171380D01*
X438084Y173095D01*
X438021Y174812D01*
X438000Y176530D01*
X495300Y176530D02*
X495304Y176842D01*
X495315Y177153D01*
X495334Y177464D01*
X495361Y177775D01*
X495396Y178085D01*
X495437Y178393D01*
X495487Y178701D01*
X495544Y179008D01*
X495609Y179313D01*
X495681Y179616D01*
X495760Y179917D01*
X495847Y180217D01*
X495941Y180514D01*
X496042Y180809D01*
X496151Y181101D01*
X496267Y181390D01*
X496390Y181677D01*
X496519Y181960D01*
X496656Y182240D01*
X496800Y182517D01*
X496950Y182790D01*
X497107Y183059D01*
X497270Y183324D01*
X497440Y183586D01*
X497617Y183843D01*
X497799Y184095D01*
X497988Y184343D01*
X498183Y184587D01*
X498383Y184825D01*
X498590Y185059D01*
X498802Y185287D01*
X499020Y185510D01*
X499243Y185728D01*
X499471Y185940D01*
X499705Y186147D01*
X499943Y186347D01*
X500187Y186542D01*
X500435Y186731D01*
X500687Y186913D01*
X500944Y187090D01*
X501206Y187260D01*
X501471Y187423D01*
X501740Y187580D01*
X502013Y187730D01*
X502290Y187874D01*
X502570Y188011D01*
X502853Y188140D01*
X503140Y188263D01*
X503429Y188379D01*
X503721Y188488D01*
X504016Y188589D01*
X504313Y188683D01*
X504613Y188770D01*
X504914Y188849D01*
X505217Y188921D01*
X505522Y188986D01*
X505829Y189043D01*
X506137Y189093D01*
X506445Y189134D01*
X506755Y189169D01*
X507066Y189196D01*
X507377Y189215D01*
X507688Y189226D01*
X508000Y189230D01*
X508312Y189226D01*
X508623Y189215D01*
X508934Y189196D01*
X509245Y189169D01*
X509555Y189134D01*
X509863Y189093D01*
X510171Y189043D01*
X510478Y188986D01*
X510783Y188921D01*
X511086Y188849D01*
X511387Y188770D01*
X511687Y188683D01*
X511984Y188589D01*
X512279Y188488D01*
X512571Y188379D01*
X512860Y188263D01*
X513147Y188140D01*
X513430Y188011D01*
X513710Y187874D01*
X513987Y187730D01*
X514260Y187580D01*
X514529Y187423D01*
X514794Y187260D01*
X515056Y187090D01*
X515313Y186913D01*
X515565Y186731D01*
X515813Y186542D01*
X516057Y186347D01*
X516295Y186147D01*
X516529Y185940D01*
X516757Y185728D01*
X516980Y185510D01*
X517198Y185287D01*
X517410Y185059D01*
X517617Y184825D01*
X517817Y184587D01*
X518012Y184343D01*
X518201Y184095D01*
X518383Y183843D01*
X518560Y183586D01*
X518730Y183324D01*
X518893Y183059D01*
X519050Y182790D01*
X519200Y182517D01*
X519344Y182240D01*
X519481Y181960D01*
X519610Y181677D01*
X519733Y181390D01*
X519849Y181101D01*
X519958Y180809D01*
X520059Y180514D01*
X520153Y180217D01*
X520240Y179917D01*
X520319Y179616D01*
X520391Y179313D01*
X520456Y179008D01*
X520513Y178701D01*
X520563Y178393D01*
X520604Y178085D01*
X520639Y177775D01*
X520666Y177464D01*
X520685Y177153D01*
X520696Y176842D01*
X520700Y176530D01*
X520696Y176218D01*
X520685Y175907D01*
X520666Y175596D01*
X520639Y175285D01*
X520604Y174975D01*
X520563Y174667D01*
X520513Y174359D01*
X520456Y174052D01*
X520391Y173747D01*
X520319Y173444D01*
X520240Y173143D01*
X520153Y172843D01*
X520059Y172546D01*
X519958Y172251D01*
X519849Y171959D01*
X519733Y171670D01*
X519610Y171383D01*
X519481Y171100D01*
X519344Y170820D01*
X519200Y170543D01*
X519050Y170270D01*
X518893Y170001D01*
X518730Y169736D01*
X518560Y169474D01*
X518383Y169217D01*
X518201Y168965D01*
X518012Y168717D01*
X517817Y168473D01*
X517617Y168235D01*
X517410Y168001D01*
X517198Y167773D01*
X516980Y167550D01*
X516757Y167332D01*
X516529Y167120D01*
X516295Y166913D01*
X516057Y166713D01*
X515813Y166518D01*
X515565Y166329D01*
X515313Y166147D01*
X515056Y165970D01*
X514794Y165800D01*
X514529Y165637D01*
X514260Y165480D01*
X513987Y165330D01*
X513710Y165186D01*
X513430Y165049D01*
X513147Y164920D01*
X512860Y164797D01*
X512571Y164681D01*
X512279Y164572D01*
X511984Y164471D01*
X511687Y164377D01*
X511387Y164290D01*
X511086Y164211D01*
X510783Y164139D01*
X510478Y164074D01*
X510171Y164017D01*
X509863Y163967D01*
X509555Y163926D01*
X509245Y163891D01*
X508934Y163864D01*
X508623Y163845D01*
X508312Y163834D01*
X508000Y163830D01*
X507688Y163834D01*
X507377Y163845D01*
X507066Y163864D01*
X506755Y163891D01*
X506445Y163926D01*
X506137Y163967D01*
X505829Y164017D01*
X505522Y164074D01*
X505217Y164139D01*
X504914Y164211D01*
X504613Y164290D01*
X504313Y164377D01*
X504016Y164471D01*
X503721Y164572D01*
X503429Y164681D01*
X503140Y164797D01*
X502853Y164920D01*
X502570Y165049D01*
X502290Y165186D01*
X502013Y165330D01*
X501740Y165480D01*
X501471Y165637D01*
X501206Y165800D01*
X500944Y165970D01*
X500687Y166147D01*
X500435Y166329D01*
X500187Y166518D01*
X499943Y166713D01*
X499705Y166913D01*
X499471Y167120D01*
X499243Y167332D01*
X499020Y167550D01*
X498802Y167773D01*
X498590Y168001D01*
X498383Y168235D01*
X498183Y168473D01*
X497988Y168717D01*
X497799Y168965D01*
X497617Y169217D01*
X497440Y169474D01*
X497270Y169736D01*
X497107Y170001D01*
X496950Y170270D01*
X496800Y170543D01*
X496656Y170820D01*
X496519Y171100D01*
X496390Y171383D01*
X496267Y171670D01*
X496151Y171959D01*
X496042Y172251D01*
X495941Y172546D01*
X495847Y172843D01*
X495760Y173143D01*
X495681Y173444D01*
X495609Y173747D01*
X495544Y174052D01*
X495487Y174359D01*
X495437Y174667D01*
X495396Y174975D01*
X495361Y175285D01*
X495334Y175596D01*
X495315Y175907D01*
X495304Y176218D01*
X495300Y176530D01*
D10*
X533180Y112522D02*
X533180Y100838D01*
X533180Y112522D02*
X536426Y112522D01*
X536539Y112520D01*
X536652Y112514D01*
X536765Y112504D01*
X536878Y112490D01*
X536990Y112473D01*
X537101Y112451D01*
X537211Y112426D01*
X537321Y112396D01*
X537429Y112363D01*
X537536Y112326D01*
X537642Y112286D01*
X537746Y112241D01*
X537849Y112193D01*
X537950Y112142D01*
X538049Y112087D01*
X538146Y112029D01*
X538241Y111967D01*
X538334Y111902D01*
X538424Y111834D01*
X538512Y111763D01*
X538598Y111688D01*
X538681Y111611D01*
X538761Y111531D01*
X538838Y111448D01*
X538913Y111362D01*
X538984Y111274D01*
X539052Y111184D01*
X539117Y111091D01*
X539179Y110996D01*
X539237Y110899D01*
X539292Y110800D01*
X539343Y110699D01*
X539391Y110596D01*
X539436Y110492D01*
X539476Y110386D01*
X539513Y110279D01*
X539546Y110171D01*
X539576Y110061D01*
X539601Y109951D01*
X539623Y109840D01*
X539640Y109728D01*
X539654Y109615D01*
X539664Y109502D01*
X539670Y109389D01*
X539672Y109276D01*
X539670Y109163D01*
X539664Y109050D01*
X539654Y108937D01*
X539640Y108824D01*
X539623Y108712D01*
X539601Y108601D01*
X539576Y108491D01*
X539546Y108381D01*
X539513Y108273D01*
X539476Y108166D01*
X539436Y108060D01*
X539391Y107956D01*
X539343Y107853D01*
X539292Y107752D01*
X539237Y107653D01*
X539179Y107556D01*
X539117Y107461D01*
X539052Y107368D01*
X538984Y107278D01*
X538913Y107190D01*
X538838Y107104D01*
X538761Y107021D01*
X538681Y106941D01*
X538598Y106864D01*
X538512Y106789D01*
X538424Y106718D01*
X538334Y106650D01*
X538241Y106585D01*
X538146Y106523D01*
X538049Y106465D01*
X537950Y106410D01*
X537849Y106359D01*
X537746Y106311D01*
X537642Y106266D01*
X537536Y106226D01*
X537429Y106189D01*
X537321Y106156D01*
X537211Y106126D01*
X537101Y106101D01*
X536990Y106079D01*
X536878Y106062D01*
X536765Y106048D01*
X536652Y106038D01*
X536539Y106032D01*
X536426Y106030D01*
X536426Y106031D02*
X533180Y106031D01*
X545019Y100838D02*
X545019Y112522D01*
X543721Y100838D02*
X546317Y100838D01*
X546317Y112522D02*
X543721Y112522D01*
X551321Y100838D02*
X556514Y100838D01*
X551321Y100838D02*
X551321Y112522D01*
X556514Y112522D01*
X555216Y107329D02*
X551321Y107329D01*
X560443Y112522D02*
X566934Y112522D01*
X560443Y100838D01*
X566934Y100838D01*
X571492Y104084D02*
X571492Y109276D01*
X571491Y109276D02*
X571493Y109389D01*
X571499Y109502D01*
X571509Y109615D01*
X571523Y109728D01*
X571540Y109840D01*
X571562Y109951D01*
X571587Y110061D01*
X571617Y110171D01*
X571650Y110279D01*
X571687Y110386D01*
X571727Y110492D01*
X571772Y110596D01*
X571820Y110699D01*
X571871Y110800D01*
X571926Y110899D01*
X571984Y110996D01*
X572046Y111091D01*
X572111Y111184D01*
X572179Y111274D01*
X572250Y111362D01*
X572325Y111448D01*
X572402Y111531D01*
X572482Y111611D01*
X572565Y111688D01*
X572651Y111763D01*
X572739Y111834D01*
X572829Y111902D01*
X572922Y111967D01*
X573017Y112029D01*
X573114Y112087D01*
X573213Y112142D01*
X573314Y112193D01*
X573417Y112241D01*
X573521Y112286D01*
X573627Y112326D01*
X573734Y112363D01*
X573842Y112396D01*
X573952Y112426D01*
X574062Y112451D01*
X574173Y112473D01*
X574285Y112490D01*
X574398Y112504D01*
X574511Y112514D01*
X574624Y112520D01*
X574737Y112522D01*
X574850Y112520D01*
X574963Y112514D01*
X575076Y112504D01*
X575189Y112490D01*
X575301Y112473D01*
X575412Y112451D01*
X575522Y112426D01*
X575632Y112396D01*
X575740Y112363D01*
X575847Y112326D01*
X575953Y112286D01*
X576057Y112241D01*
X576160Y112193D01*
X576261Y112142D01*
X576360Y112087D01*
X576457Y112029D01*
X576552Y111967D01*
X576645Y111902D01*
X576735Y111834D01*
X576823Y111763D01*
X576909Y111688D01*
X576992Y111611D01*
X577072Y111531D01*
X577149Y111448D01*
X577224Y111362D01*
X577295Y111274D01*
X577363Y111184D01*
X577428Y111091D01*
X577490Y110996D01*
X577548Y110899D01*
X577603Y110800D01*
X577654Y110699D01*
X577702Y110596D01*
X577747Y110492D01*
X577787Y110386D01*
X577824Y110279D01*
X577857Y110171D01*
X577887Y110061D01*
X577912Y109951D01*
X577934Y109840D01*
X577951Y109728D01*
X577965Y109615D01*
X577975Y109502D01*
X577981Y109389D01*
X577983Y109276D01*
X577983Y104084D01*
X577981Y103971D01*
X577975Y103858D01*
X577965Y103745D01*
X577951Y103632D01*
X577934Y103520D01*
X577912Y103409D01*
X577887Y103299D01*
X577857Y103189D01*
X577824Y103081D01*
X577787Y102974D01*
X577747Y102868D01*
X577702Y102764D01*
X577654Y102661D01*
X577603Y102560D01*
X577548Y102461D01*
X577490Y102364D01*
X577428Y102269D01*
X577363Y102176D01*
X577295Y102086D01*
X577224Y101998D01*
X577149Y101912D01*
X577072Y101829D01*
X576992Y101749D01*
X576909Y101672D01*
X576823Y101597D01*
X576735Y101526D01*
X576645Y101458D01*
X576552Y101393D01*
X576457Y101331D01*
X576360Y101273D01*
X576261Y101218D01*
X576160Y101167D01*
X576057Y101119D01*
X575953Y101074D01*
X575847Y101034D01*
X575740Y100997D01*
X575632Y100964D01*
X575522Y100934D01*
X575412Y100909D01*
X575301Y100887D01*
X575189Y100870D01*
X575076Y100856D01*
X574963Y100846D01*
X574850Y100840D01*
X574737Y100838D01*
X574624Y100840D01*
X574511Y100846D01*
X574398Y100856D01*
X574285Y100870D01*
X574173Y100887D01*
X574062Y100909D01*
X573952Y100934D01*
X573842Y100964D01*
X573734Y100997D01*
X573627Y101034D01*
X573521Y101074D01*
X573417Y101119D01*
X573314Y101167D01*
X573213Y101218D01*
X573114Y101273D01*
X573017Y101331D01*
X572922Y101393D01*
X572829Y101458D01*
X572739Y101526D01*
X572651Y101597D01*
X572565Y101672D01*
X572482Y101749D01*
X572402Y101829D01*
X572325Y101912D01*
X572250Y101998D01*
X572179Y102086D01*
X572111Y102176D01*
X572046Y102269D01*
X571984Y102364D01*
X571926Y102461D01*
X571871Y102560D01*
X571820Y102661D01*
X571772Y102764D01*
X571727Y102868D01*
X571687Y102974D01*
X571650Y103081D01*
X571617Y103189D01*
X571587Y103299D01*
X571562Y103409D01*
X571540Y103520D01*
X571523Y103632D01*
X571509Y103745D01*
X571499Y103858D01*
X571493Y103971D01*
X571491Y104084D01*
X582428Y99540D02*
X587621Y99540D01*
X592616Y100838D02*
X592616Y112522D01*
X599107Y112522D02*
X592616Y105382D01*
X595212Y107978D02*
X599107Y100838D01*
X603899Y100838D02*
X603899Y112522D01*
X603899Y100838D02*
X609092Y100838D01*
D12*
X304800Y180200D02*
X229800Y180200D01*
X229800Y215200D01*
X304800Y215200D02*
X304800Y180200D01*
X304800Y215900D02*
X304800Y241900D01*
X229800Y241900D01*
X229800Y215900D01*
D10*
X258006Y230708D02*
X258006Y242392D01*
X256708Y230708D02*
X259304Y230708D01*
X259304Y242392D02*
X256708Y242392D01*
X267475Y242392D02*
X267582Y242390D01*
X267688Y242384D01*
X267794Y242374D01*
X267900Y242361D01*
X268006Y242343D01*
X268110Y242322D01*
X268214Y242297D01*
X268317Y242268D01*
X268418Y242236D01*
X268518Y242199D01*
X268617Y242159D01*
X268715Y242116D01*
X268811Y242069D01*
X268905Y242018D01*
X268997Y241964D01*
X269087Y241907D01*
X269175Y241847D01*
X269260Y241783D01*
X269343Y241716D01*
X269424Y241646D01*
X269502Y241574D01*
X269578Y241498D01*
X269650Y241420D01*
X269720Y241339D01*
X269787Y241256D01*
X269851Y241171D01*
X269911Y241083D01*
X269968Y240993D01*
X270022Y240901D01*
X270073Y240807D01*
X270120Y240711D01*
X270163Y240613D01*
X270203Y240514D01*
X270240Y240414D01*
X270272Y240313D01*
X270301Y240210D01*
X270326Y240106D01*
X270347Y240002D01*
X270365Y239896D01*
X270378Y239790D01*
X270388Y239684D01*
X270394Y239578D01*
X270396Y239471D01*
X267475Y242392D02*
X267354Y242390D01*
X267233Y242384D01*
X267113Y242374D01*
X266992Y242361D01*
X266873Y242343D01*
X266753Y242322D01*
X266635Y242297D01*
X266518Y242268D01*
X266401Y242235D01*
X266286Y242199D01*
X266172Y242158D01*
X266059Y242115D01*
X265947Y242067D01*
X265838Y242016D01*
X265730Y241961D01*
X265623Y241903D01*
X265519Y241842D01*
X265417Y241777D01*
X265317Y241709D01*
X265219Y241638D01*
X265123Y241564D01*
X265030Y241487D01*
X264940Y241406D01*
X264852Y241323D01*
X264767Y241237D01*
X264684Y241148D01*
X264605Y241057D01*
X264528Y240963D01*
X264455Y240867D01*
X264385Y240769D01*
X264318Y240668D01*
X264254Y240565D01*
X264194Y240460D01*
X264137Y240353D01*
X264083Y240245D01*
X264033Y240135D01*
X263987Y240023D01*
X263944Y239910D01*
X263905Y239795D01*
X269422Y237199D02*
X269501Y237276D01*
X269577Y237357D01*
X269650Y237440D01*
X269720Y237525D01*
X269787Y237613D01*
X269851Y237703D01*
X269911Y237795D01*
X269968Y237890D01*
X270022Y237986D01*
X270073Y238084D01*
X270120Y238184D01*
X270164Y238286D01*
X270204Y238389D01*
X270240Y238493D01*
X270272Y238599D01*
X270301Y238705D01*
X270326Y238813D01*
X270348Y238921D01*
X270365Y239031D01*
X270379Y239140D01*
X270388Y239250D01*
X270394Y239361D01*
X270396Y239471D01*
X269422Y237199D02*
X263905Y230708D01*
X270396Y230708D01*
X277898Y230708D02*
X280494Y230708D01*
X277898Y230708D02*
X277799Y230710D01*
X277699Y230716D01*
X277600Y230725D01*
X277502Y230738D01*
X277404Y230755D01*
X277306Y230776D01*
X277210Y230801D01*
X277115Y230829D01*
X277021Y230861D01*
X276928Y230896D01*
X276836Y230935D01*
X276746Y230978D01*
X276658Y231023D01*
X276571Y231073D01*
X276487Y231125D01*
X276404Y231181D01*
X276324Y231239D01*
X276246Y231301D01*
X276171Y231366D01*
X276098Y231434D01*
X276028Y231504D01*
X275960Y231577D01*
X275895Y231652D01*
X275833Y231730D01*
X275775Y231810D01*
X275719Y231893D01*
X275667Y231977D01*
X275617Y232064D01*
X275572Y232152D01*
X275529Y232242D01*
X275490Y232334D01*
X275455Y232427D01*
X275423Y232521D01*
X275395Y232616D01*
X275370Y232712D01*
X275349Y232810D01*
X275332Y232908D01*
X275319Y233006D01*
X275310Y233105D01*
X275304Y233205D01*
X275302Y233304D01*
X275301Y233304D02*
X275301Y239796D01*
X275302Y239796D02*
X275304Y239895D01*
X275310Y239995D01*
X275319Y240094D01*
X275332Y240192D01*
X275349Y240290D01*
X275370Y240388D01*
X275395Y240484D01*
X275423Y240579D01*
X275455Y240673D01*
X275490Y240766D01*
X275529Y240858D01*
X275572Y240948D01*
X275617Y241036D01*
X275667Y241123D01*
X275719Y241207D01*
X275775Y241290D01*
X275833Y241370D01*
X275895Y241448D01*
X275960Y241523D01*
X276028Y241596D01*
X276098Y241666D01*
X276171Y241734D01*
X276246Y241799D01*
X276324Y241861D01*
X276404Y241919D01*
X276487Y241975D01*
X276571Y242027D01*
X276658Y242077D01*
X276746Y242122D01*
X276836Y242165D01*
X276928Y242204D01*
X277020Y242239D01*
X277115Y242271D01*
X277210Y242299D01*
X277306Y242324D01*
X277404Y242345D01*
X277502Y242362D01*
X277600Y242375D01*
X277699Y242384D01*
X277799Y242390D01*
X277898Y242392D01*
X280494Y242392D01*
D12*
X423400Y177800D02*
X423433Y180500D01*
X423532Y183197D01*
X423698Y185892D01*
X423930Y188582D01*
X424227Y191265D01*
X424591Y193940D01*
X425019Y196606D01*
X425514Y199260D01*
X426073Y201901D01*
X426697Y204528D01*
X427385Y207138D01*
X428137Y209731D01*
X428952Y212305D01*
X429830Y214858D01*
X430771Y217388D01*
X431773Y219895D01*
X432837Y222377D01*
X433961Y224831D01*
X435145Y227257D01*
X436389Y229654D01*
X437690Y232019D01*
X439050Y234351D01*
X440466Y236650D01*
X441938Y238913D01*
X443466Y241139D01*
X445047Y243327D01*
X446682Y245475D01*
X448369Y247583D01*
X450107Y249649D01*
X451895Y251671D01*
X453733Y253649D01*
X455618Y255582D01*
X457551Y257467D01*
X459529Y259305D01*
X461551Y261093D01*
X463617Y262831D01*
X465725Y264518D01*
X467873Y266153D01*
X470061Y267734D01*
X472287Y269262D01*
X474550Y270734D01*
X476849Y272150D01*
X479181Y273510D01*
X481546Y274811D01*
X483943Y276055D01*
X486369Y277239D01*
X488823Y278363D01*
X491305Y279427D01*
X493812Y280429D01*
X496342Y281370D01*
X498895Y282248D01*
X501469Y283063D01*
X504062Y283815D01*
X506672Y284503D01*
X509299Y285127D01*
X511940Y285686D01*
X514594Y286181D01*
X517260Y286609D01*
X519935Y286973D01*
X522618Y287270D01*
X525308Y287502D01*
X528003Y287668D01*
X530700Y287767D01*
X533400Y287800D01*
X536100Y287767D01*
X538797Y287668D01*
X541492Y287502D01*
X544182Y287270D01*
X546865Y286973D01*
X549540Y286609D01*
X552206Y286181D01*
X554860Y285686D01*
X557501Y285127D01*
X560128Y284503D01*
X562738Y283815D01*
X565331Y283063D01*
X567905Y282248D01*
X570458Y281370D01*
X572988Y280429D01*
X575495Y279427D01*
X577977Y278363D01*
X580431Y277239D01*
X582857Y276055D01*
X585254Y274811D01*
X587619Y273510D01*
X589951Y272150D01*
X592250Y270734D01*
X594513Y269262D01*
X596739Y267734D01*
X598927Y266153D01*
X601075Y264518D01*
X603183Y262831D01*
X605249Y261093D01*
X607271Y259305D01*
X609249Y257467D01*
X611182Y255582D01*
X613067Y253649D01*
X614905Y251671D01*
X616693Y249649D01*
X618431Y247583D01*
X620118Y245475D01*
X621753Y243327D01*
X623334Y241139D01*
X624862Y238913D01*
X626334Y236650D01*
X627750Y234351D01*
X629110Y232019D01*
X630411Y229654D01*
X631655Y227257D01*
X632839Y224831D01*
X633963Y222377D01*
X635027Y219895D01*
X636029Y217388D01*
X636970Y214858D01*
X637848Y212305D01*
X638663Y209731D01*
X639415Y207138D01*
X640103Y204528D01*
X640727Y201901D01*
X641286Y199260D01*
X641781Y196606D01*
X642209Y193940D01*
X642573Y191265D01*
X642870Y188582D01*
X643102Y185892D01*
X643268Y183197D01*
X643367Y180500D01*
X643400Y177800D01*
X643367Y175100D01*
X643268Y172403D01*
X643102Y169708D01*
X642870Y167018D01*
X642573Y164335D01*
X642209Y161660D01*
X641781Y158994D01*
X641286Y156340D01*
X640727Y153699D01*
X640103Y151072D01*
X639415Y148462D01*
X638663Y145869D01*
X637848Y143295D01*
X636970Y140742D01*
X636029Y138212D01*
X635027Y135705D01*
X633963Y133223D01*
X632839Y130769D01*
X631655Y128343D01*
X630411Y125946D01*
X629110Y123581D01*
X627750Y121249D01*
X626334Y118950D01*
X624862Y116687D01*
X623334Y114461D01*
X621753Y112273D01*
X620118Y110125D01*
X618431Y108017D01*
X616693Y105951D01*
X614905Y103929D01*
X613067Y101951D01*
X611182Y100018D01*
X609249Y98133D01*
X607271Y96295D01*
X605249Y94507D01*
X603183Y92769D01*
X601075Y91082D01*
X598927Y89447D01*
X596739Y87866D01*
X594513Y86338D01*
X592250Y84866D01*
X589951Y83450D01*
X587619Y82090D01*
X585254Y80789D01*
X582857Y79545D01*
X580431Y78361D01*
X577977Y77237D01*
X575495Y76173D01*
X572988Y75171D01*
X570458Y74230D01*
X567905Y73352D01*
X565331Y72537D01*
X562738Y71785D01*
X560128Y71097D01*
X557501Y70473D01*
X554860Y69914D01*
X552206Y69419D01*
X549540Y68991D01*
X546865Y68627D01*
X544182Y68330D01*
X541492Y68098D01*
X538797Y67932D01*
X536100Y67833D01*
X533400Y67800D01*
X530700Y67833D01*
X528003Y67932D01*
X525308Y68098D01*
X522618Y68330D01*
X519935Y68627D01*
X517260Y68991D01*
X514594Y69419D01*
X511940Y69914D01*
X509299Y70473D01*
X506672Y71097D01*
X504062Y71785D01*
X501469Y72537D01*
X498895Y73352D01*
X496342Y74230D01*
X493812Y75171D01*
X491305Y76173D01*
X488823Y77237D01*
X486369Y78361D01*
X483943Y79545D01*
X481546Y80789D01*
X479181Y82090D01*
X476849Y83450D01*
X474550Y84866D01*
X472287Y86338D01*
X470061Y87866D01*
X467873Y89447D01*
X465725Y91082D01*
X463617Y92769D01*
X461551Y94507D01*
X459529Y96295D01*
X457551Y98133D01*
X455618Y100018D01*
X453733Y101951D01*
X451895Y103929D01*
X450107Y105951D01*
X448369Y108017D01*
X446682Y110125D01*
X445047Y112273D01*
X443466Y114461D01*
X441938Y116687D01*
X440466Y118950D01*
X439050Y121249D01*
X437690Y123581D01*
X436389Y125946D01*
X435145Y128343D01*
X433961Y130769D01*
X432837Y133223D01*
X431773Y135705D01*
X430771Y138212D01*
X429830Y140742D01*
X428952Y143295D01*
X428137Y145869D01*
X427385Y148462D01*
X426697Y151072D01*
X426073Y153699D01*
X425514Y156340D01*
X425019Y158994D01*
X424591Y161660D01*
X424227Y164335D01*
X423930Y167018D01*
X423698Y169708D01*
X423532Y172403D01*
X423433Y175100D01*
X423400Y177800D01*
X520700Y177800D02*
X520704Y178112D01*
X520715Y178423D01*
X520734Y178734D01*
X520761Y179045D01*
X520796Y179355D01*
X520837Y179663D01*
X520887Y179971D01*
X520944Y180278D01*
X521009Y180583D01*
X521081Y180886D01*
X521160Y181187D01*
X521247Y181487D01*
X521341Y181784D01*
X521442Y182079D01*
X521551Y182371D01*
X521667Y182660D01*
X521790Y182947D01*
X521919Y183230D01*
X522056Y183510D01*
X522200Y183787D01*
X522350Y184060D01*
X522507Y184329D01*
X522670Y184594D01*
X522840Y184856D01*
X523017Y185113D01*
X523199Y185365D01*
X523388Y185613D01*
X523583Y185857D01*
X523783Y186095D01*
X523990Y186329D01*
X524202Y186557D01*
X524420Y186780D01*
X524643Y186998D01*
X524871Y187210D01*
X525105Y187417D01*
X525343Y187617D01*
X525587Y187812D01*
X525835Y188001D01*
X526087Y188183D01*
X526344Y188360D01*
X526606Y188530D01*
X526871Y188693D01*
X527140Y188850D01*
X527413Y189000D01*
X527690Y189144D01*
X527970Y189281D01*
X528253Y189410D01*
X528540Y189533D01*
X528829Y189649D01*
X529121Y189758D01*
X529416Y189859D01*
X529713Y189953D01*
X530013Y190040D01*
X530314Y190119D01*
X530617Y190191D01*
X530922Y190256D01*
X531229Y190313D01*
X531537Y190363D01*
X531845Y190404D01*
X532155Y190439D01*
X532466Y190466D01*
X532777Y190485D01*
X533088Y190496D01*
X533400Y190500D01*
X533712Y190496D01*
X534023Y190485D01*
X534334Y190466D01*
X534645Y190439D01*
X534955Y190404D01*
X535263Y190363D01*
X535571Y190313D01*
X535878Y190256D01*
X536183Y190191D01*
X536486Y190119D01*
X536787Y190040D01*
X537087Y189953D01*
X537384Y189859D01*
X537679Y189758D01*
X537971Y189649D01*
X538260Y189533D01*
X538547Y189410D01*
X538830Y189281D01*
X539110Y189144D01*
X539387Y189000D01*
X539660Y188850D01*
X539929Y188693D01*
X540194Y188530D01*
X540456Y188360D01*
X540713Y188183D01*
X540965Y188001D01*
X541213Y187812D01*
X541457Y187617D01*
X541695Y187417D01*
X541929Y187210D01*
X542157Y186998D01*
X542380Y186780D01*
X542598Y186557D01*
X542810Y186329D01*
X543017Y186095D01*
X543217Y185857D01*
X543412Y185613D01*
X543601Y185365D01*
X543783Y185113D01*
X543960Y184856D01*
X544130Y184594D01*
X544293Y184329D01*
X544450Y184060D01*
X544600Y183787D01*
X544744Y183510D01*
X544881Y183230D01*
X545010Y182947D01*
X545133Y182660D01*
X545249Y182371D01*
X545358Y182079D01*
X545459Y181784D01*
X545553Y181487D01*
X545640Y181187D01*
X545719Y180886D01*
X545791Y180583D01*
X545856Y180278D01*
X545913Y179971D01*
X545963Y179663D01*
X546004Y179355D01*
X546039Y179045D01*
X546066Y178734D01*
X546085Y178423D01*
X546096Y178112D01*
X546100Y177800D01*
X546096Y177488D01*
X546085Y177177D01*
X546066Y176866D01*
X546039Y176555D01*
X546004Y176245D01*
X545963Y175937D01*
X545913Y175629D01*
X545856Y175322D01*
X545791Y175017D01*
X545719Y174714D01*
X545640Y174413D01*
X545553Y174113D01*
X545459Y173816D01*
X545358Y173521D01*
X545249Y173229D01*
X545133Y172940D01*
X545010Y172653D01*
X544881Y172370D01*
X544744Y172090D01*
X544600Y171813D01*
X544450Y171540D01*
X544293Y171271D01*
X544130Y171006D01*
X543960Y170744D01*
X543783Y170487D01*
X543601Y170235D01*
X543412Y169987D01*
X543217Y169743D01*
X543017Y169505D01*
X542810Y169271D01*
X542598Y169043D01*
X542380Y168820D01*
X542157Y168602D01*
X541929Y168390D01*
X541695Y168183D01*
X541457Y167983D01*
X541213Y167788D01*
X540965Y167599D01*
X540713Y167417D01*
X540456Y167240D01*
X540194Y167070D01*
X539929Y166907D01*
X539660Y166750D01*
X539387Y166600D01*
X539110Y166456D01*
X538830Y166319D01*
X538547Y166190D01*
X538260Y166067D01*
X537971Y165951D01*
X537679Y165842D01*
X537384Y165741D01*
X537087Y165647D01*
X536787Y165560D01*
X536486Y165481D01*
X536183Y165409D01*
X535878Y165344D01*
X535571Y165287D01*
X535263Y165237D01*
X534955Y165196D01*
X534645Y165161D01*
X534334Y165134D01*
X534023Y165115D01*
X533712Y165104D01*
X533400Y165100D01*
X533088Y165104D01*
X532777Y165115D01*
X532466Y165134D01*
X532155Y165161D01*
X531845Y165196D01*
X531537Y165237D01*
X531229Y165287D01*
X530922Y165344D01*
X530617Y165409D01*
X530314Y165481D01*
X530013Y165560D01*
X529713Y165647D01*
X529416Y165741D01*
X529121Y165842D01*
X528829Y165951D01*
X528540Y166067D01*
X528253Y166190D01*
X527970Y166319D01*
X527690Y166456D01*
X527413Y166600D01*
X527140Y166750D01*
X526871Y166907D01*
X526606Y167070D01*
X526344Y167240D01*
X526087Y167417D01*
X525835Y167599D01*
X525587Y167788D01*
X525343Y167983D01*
X525105Y168183D01*
X524871Y168390D01*
X524643Y168602D01*
X524420Y168820D01*
X524202Y169043D01*
X523990Y169271D01*
X523783Y169505D01*
X523583Y169743D01*
X523388Y169987D01*
X523199Y170235D01*
X523017Y170487D01*
X522840Y170744D01*
X522670Y171006D01*
X522507Y171271D01*
X522350Y171540D01*
X522200Y171813D01*
X522056Y172090D01*
X521919Y172370D01*
X521790Y172653D01*
X521667Y172940D01*
X521551Y173229D01*
X521442Y173521D01*
X521341Y173816D01*
X521247Y174113D01*
X521160Y174413D01*
X521081Y174714D01*
X521009Y175017D01*
X520944Y175322D01*
X520887Y175629D01*
X520837Y175937D01*
X520796Y176245D01*
X520761Y176555D01*
X520734Y176866D01*
X520715Y177177D01*
X520704Y177488D01*
X520700Y177800D01*
D10*
X505669Y292608D02*
X505669Y304292D01*
X508914Y304292D01*
X509027Y304290D01*
X509140Y304284D01*
X509253Y304274D01*
X509366Y304260D01*
X509478Y304243D01*
X509589Y304221D01*
X509699Y304196D01*
X509809Y304166D01*
X509917Y304133D01*
X510024Y304096D01*
X510130Y304056D01*
X510234Y304011D01*
X510337Y303963D01*
X510438Y303912D01*
X510537Y303857D01*
X510634Y303799D01*
X510729Y303737D01*
X510822Y303672D01*
X510912Y303604D01*
X511000Y303533D01*
X511086Y303458D01*
X511169Y303381D01*
X511249Y303301D01*
X511326Y303218D01*
X511401Y303132D01*
X511472Y303044D01*
X511540Y302954D01*
X511605Y302861D01*
X511667Y302766D01*
X511725Y302669D01*
X511780Y302570D01*
X511831Y302469D01*
X511879Y302366D01*
X511924Y302262D01*
X511964Y302156D01*
X512001Y302049D01*
X512034Y301941D01*
X512064Y301831D01*
X512089Y301721D01*
X512111Y301610D01*
X512128Y301498D01*
X512142Y301385D01*
X512152Y301272D01*
X512158Y301159D01*
X512160Y301046D01*
X512158Y300933D01*
X512152Y300820D01*
X512142Y300707D01*
X512128Y300594D01*
X512111Y300482D01*
X512089Y300371D01*
X512064Y300261D01*
X512034Y300151D01*
X512001Y300043D01*
X511964Y299936D01*
X511924Y299830D01*
X511879Y299726D01*
X511831Y299623D01*
X511780Y299522D01*
X511725Y299423D01*
X511667Y299326D01*
X511605Y299231D01*
X511540Y299138D01*
X511472Y299048D01*
X511401Y298960D01*
X511326Y298874D01*
X511249Y298791D01*
X511169Y298711D01*
X511086Y298634D01*
X511000Y298559D01*
X510912Y298488D01*
X510822Y298420D01*
X510729Y298355D01*
X510634Y298293D01*
X510537Y298235D01*
X510438Y298180D01*
X510337Y298129D01*
X510234Y298081D01*
X510130Y298036D01*
X510024Y297996D01*
X509917Y297959D01*
X509809Y297926D01*
X509699Y297896D01*
X509589Y297871D01*
X509478Y297849D01*
X509366Y297832D01*
X509253Y297818D01*
X509140Y297808D01*
X509027Y297802D01*
X508914Y297800D01*
X508914Y297801D02*
X505669Y297801D01*
X517508Y292608D02*
X517508Y304292D01*
X516210Y292608D02*
X518806Y292608D01*
X518806Y304292D02*
X516210Y304292D01*
X523810Y292608D02*
X529003Y292608D01*
X523810Y292608D02*
X523810Y304292D01*
X529003Y304292D01*
X527705Y299099D02*
X523810Y299099D01*
X532931Y304292D02*
X539422Y304292D01*
X532931Y292608D01*
X539422Y292608D01*
X543980Y295854D02*
X543980Y301046D01*
X543982Y301159D01*
X543988Y301272D01*
X543998Y301385D01*
X544012Y301498D01*
X544029Y301610D01*
X544051Y301721D01*
X544076Y301831D01*
X544106Y301941D01*
X544139Y302049D01*
X544176Y302156D01*
X544216Y302262D01*
X544261Y302366D01*
X544309Y302469D01*
X544360Y302570D01*
X544415Y302669D01*
X544473Y302766D01*
X544535Y302861D01*
X544600Y302954D01*
X544668Y303044D01*
X544739Y303132D01*
X544814Y303218D01*
X544891Y303301D01*
X544971Y303381D01*
X545054Y303458D01*
X545140Y303533D01*
X545228Y303604D01*
X545318Y303672D01*
X545411Y303737D01*
X545506Y303799D01*
X545603Y303857D01*
X545702Y303912D01*
X545803Y303963D01*
X545906Y304011D01*
X546010Y304056D01*
X546116Y304096D01*
X546223Y304133D01*
X546331Y304166D01*
X546441Y304196D01*
X546551Y304221D01*
X546662Y304243D01*
X546774Y304260D01*
X546887Y304274D01*
X547000Y304284D01*
X547113Y304290D01*
X547226Y304292D01*
X547339Y304290D01*
X547452Y304284D01*
X547565Y304274D01*
X547678Y304260D01*
X547790Y304243D01*
X547901Y304221D01*
X548011Y304196D01*
X548121Y304166D01*
X548229Y304133D01*
X548336Y304096D01*
X548442Y304056D01*
X548546Y304011D01*
X548649Y303963D01*
X548750Y303912D01*
X548849Y303857D01*
X548946Y303799D01*
X549041Y303737D01*
X549134Y303672D01*
X549224Y303604D01*
X549312Y303533D01*
X549398Y303458D01*
X549481Y303381D01*
X549561Y303301D01*
X549638Y303218D01*
X549713Y303132D01*
X549784Y303044D01*
X549852Y302954D01*
X549917Y302861D01*
X549979Y302766D01*
X550037Y302669D01*
X550092Y302570D01*
X550143Y302469D01*
X550191Y302366D01*
X550236Y302262D01*
X550276Y302156D01*
X550313Y302049D01*
X550346Y301941D01*
X550376Y301831D01*
X550401Y301721D01*
X550423Y301610D01*
X550440Y301498D01*
X550454Y301385D01*
X550464Y301272D01*
X550470Y301159D01*
X550472Y301046D01*
X550471Y301046D02*
X550471Y295854D01*
X550472Y295854D02*
X550470Y295741D01*
X550464Y295628D01*
X550454Y295515D01*
X550440Y295402D01*
X550423Y295290D01*
X550401Y295179D01*
X550376Y295069D01*
X550346Y294959D01*
X550313Y294851D01*
X550276Y294744D01*
X550236Y294638D01*
X550191Y294534D01*
X550143Y294431D01*
X550092Y294330D01*
X550037Y294231D01*
X549979Y294134D01*
X549917Y294039D01*
X549852Y293946D01*
X549784Y293856D01*
X549713Y293768D01*
X549638Y293682D01*
X549561Y293599D01*
X549481Y293519D01*
X549398Y293442D01*
X549312Y293367D01*
X549224Y293296D01*
X549134Y293228D01*
X549041Y293163D01*
X548946Y293101D01*
X548849Y293043D01*
X548750Y292988D01*
X548649Y292937D01*
X548546Y292889D01*
X548442Y292844D01*
X548336Y292804D01*
X548229Y292767D01*
X548121Y292734D01*
X548011Y292704D01*
X547901Y292679D01*
X547790Y292657D01*
X547678Y292640D01*
X547565Y292626D01*
X547452Y292616D01*
X547339Y292610D01*
X547226Y292608D01*
X547113Y292610D01*
X547000Y292616D01*
X546887Y292626D01*
X546774Y292640D01*
X546662Y292657D01*
X546551Y292679D01*
X546441Y292704D01*
X546331Y292734D01*
X546223Y292767D01*
X546116Y292804D01*
X546010Y292844D01*
X545906Y292889D01*
X545803Y292937D01*
X545702Y292988D01*
X545603Y293043D01*
X545506Y293101D01*
X545411Y293163D01*
X545318Y293228D01*
X545228Y293296D01*
X545140Y293367D01*
X545054Y293442D01*
X544971Y293519D01*
X544891Y293599D01*
X544814Y293682D01*
X544739Y293768D01*
X544668Y293856D01*
X544600Y293946D01*
X544535Y294039D01*
X544473Y294134D01*
X544415Y294231D01*
X544360Y294330D01*
X544309Y294431D01*
X544261Y294534D01*
X544216Y294638D01*
X544176Y294744D01*
X544139Y294851D01*
X544106Y294959D01*
X544076Y295069D01*
X544051Y295179D01*
X544029Y295290D01*
X544012Y295402D01*
X543998Y295515D01*
X543988Y295628D01*
X543982Y295741D01*
X543980Y295854D01*
X554916Y291310D02*
X560109Y291310D01*
X569479Y299099D02*
X571426Y299099D01*
X571426Y292608D01*
X567532Y292608D01*
X567433Y292610D01*
X567333Y292616D01*
X567234Y292625D01*
X567136Y292638D01*
X567038Y292655D01*
X566940Y292676D01*
X566844Y292701D01*
X566749Y292729D01*
X566655Y292761D01*
X566562Y292796D01*
X566470Y292835D01*
X566380Y292878D01*
X566292Y292923D01*
X566205Y292973D01*
X566121Y293025D01*
X566038Y293081D01*
X565958Y293139D01*
X565880Y293201D01*
X565805Y293266D01*
X565732Y293334D01*
X565662Y293404D01*
X565594Y293477D01*
X565529Y293552D01*
X565467Y293630D01*
X565409Y293710D01*
X565353Y293793D01*
X565301Y293877D01*
X565251Y293964D01*
X565206Y294052D01*
X565163Y294142D01*
X565124Y294234D01*
X565089Y294327D01*
X565057Y294421D01*
X565029Y294516D01*
X565004Y294612D01*
X564983Y294710D01*
X564966Y294808D01*
X564953Y294906D01*
X564944Y295005D01*
X564938Y295105D01*
X564936Y295204D01*
X564935Y295204D02*
X564935Y301696D01*
X564936Y301696D02*
X564938Y301795D01*
X564944Y301895D01*
X564953Y301994D01*
X564966Y302092D01*
X564983Y302190D01*
X565004Y302288D01*
X565029Y302384D01*
X565057Y302479D01*
X565089Y302573D01*
X565124Y302666D01*
X565163Y302758D01*
X565206Y302848D01*
X565251Y302936D01*
X565301Y303023D01*
X565353Y303107D01*
X565409Y303190D01*
X565467Y303270D01*
X565529Y303348D01*
X565594Y303423D01*
X565662Y303496D01*
X565732Y303566D01*
X565805Y303634D01*
X565880Y303699D01*
X565958Y303761D01*
X566038Y303819D01*
X566121Y303875D01*
X566205Y303927D01*
X566292Y303977D01*
X566380Y304022D01*
X566470Y304065D01*
X566562Y304104D01*
X566654Y304139D01*
X566749Y304171D01*
X566844Y304199D01*
X566940Y304224D01*
X567038Y304245D01*
X567136Y304262D01*
X567234Y304275D01*
X567333Y304284D01*
X567433Y304290D01*
X567532Y304292D01*
X571426Y304292D01*
X577201Y304292D02*
X577201Y292608D01*
X577201Y304292D02*
X580446Y304292D01*
X580559Y304290D01*
X580672Y304284D01*
X580785Y304274D01*
X580898Y304260D01*
X581010Y304243D01*
X581121Y304221D01*
X581231Y304196D01*
X581341Y304166D01*
X581449Y304133D01*
X581556Y304096D01*
X581662Y304056D01*
X581766Y304011D01*
X581869Y303963D01*
X581970Y303912D01*
X582069Y303857D01*
X582166Y303799D01*
X582261Y303737D01*
X582354Y303672D01*
X582444Y303604D01*
X582532Y303533D01*
X582618Y303458D01*
X582701Y303381D01*
X582781Y303301D01*
X582858Y303218D01*
X582933Y303132D01*
X583004Y303044D01*
X583072Y302954D01*
X583137Y302861D01*
X583199Y302766D01*
X583257Y302669D01*
X583312Y302570D01*
X583363Y302469D01*
X583411Y302366D01*
X583456Y302262D01*
X583496Y302156D01*
X583533Y302049D01*
X583566Y301941D01*
X583596Y301831D01*
X583621Y301721D01*
X583643Y301610D01*
X583660Y301498D01*
X583674Y301385D01*
X583684Y301272D01*
X583690Y301159D01*
X583692Y301046D01*
X583690Y300933D01*
X583684Y300820D01*
X583674Y300707D01*
X583660Y300594D01*
X583643Y300482D01*
X583621Y300371D01*
X583596Y300261D01*
X583566Y300151D01*
X583533Y300043D01*
X583496Y299936D01*
X583456Y299830D01*
X583411Y299726D01*
X583363Y299623D01*
X583312Y299522D01*
X583257Y299423D01*
X583199Y299326D01*
X583137Y299231D01*
X583072Y299138D01*
X583004Y299048D01*
X582933Y298960D01*
X582858Y298874D01*
X582781Y298791D01*
X582701Y298711D01*
X582618Y298634D01*
X582532Y298559D01*
X582444Y298488D01*
X582354Y298420D01*
X582261Y298355D01*
X582166Y298293D01*
X582069Y298235D01*
X581970Y298180D01*
X581869Y298129D01*
X581766Y298081D01*
X581662Y298036D01*
X581556Y297996D01*
X581449Y297959D01*
X581341Y297926D01*
X581231Y297896D01*
X581121Y297871D01*
X581010Y297849D01*
X580898Y297832D01*
X580785Y297818D01*
X580672Y297808D01*
X580559Y297802D01*
X580446Y297800D01*
X580446Y297801D02*
X577201Y297801D01*
X581096Y297801D02*
X583692Y292608D01*
D11*
X825500Y147320D02*
X825500Y106680D01*
X850900Y106680D01*
X850900Y147320D01*
X825500Y147320D01*
X838200Y133350D02*
X838200Y127000D01*
X844550Y116840D02*
X831850Y116840D01*
X838200Y127000D01*
X838200Y111760D01*
X844550Y116840D02*
X838200Y127000D01*
X844550Y127000D01*
X838200Y127000D02*
X831850Y127000D01*
D15*
X838200Y140970D03*
D16*
X838200Y97155D03*
X838200Y156845D03*
D12*
X827405Y156845D02*
X815975Y156845D01*
X815975Y160020D01*
X815977Y160131D01*
X815983Y160241D01*
X815992Y160352D01*
X816006Y160462D01*
X816023Y160571D01*
X816044Y160680D01*
X816069Y160788D01*
X816098Y160895D01*
X816130Y161001D01*
X816166Y161106D01*
X816206Y161209D01*
X816249Y161311D01*
X816296Y161412D01*
X816347Y161511D01*
X816400Y161608D01*
X816457Y161702D01*
X816518Y161795D01*
X816581Y161886D01*
X816648Y161975D01*
X816718Y162061D01*
X816791Y162144D01*
X816866Y162226D01*
X816944Y162304D01*
X817026Y162379D01*
X817109Y162452D01*
X817195Y162522D01*
X817284Y162589D01*
X817375Y162652D01*
X817468Y162713D01*
X817563Y162770D01*
X817659Y162823D01*
X817758Y162874D01*
X817859Y162921D01*
X817961Y162964D01*
X818064Y163004D01*
X818169Y163040D01*
X818275Y163072D01*
X818382Y163101D01*
X818490Y163126D01*
X818599Y163147D01*
X818708Y163164D01*
X818818Y163178D01*
X818929Y163187D01*
X819039Y163193D01*
X819150Y163195D01*
X824230Y163195D01*
X824341Y163193D01*
X824451Y163187D01*
X824562Y163178D01*
X824672Y163164D01*
X824781Y163147D01*
X824890Y163126D01*
X824998Y163101D01*
X825105Y163072D01*
X825211Y163040D01*
X825316Y163004D01*
X825419Y162964D01*
X825521Y162921D01*
X825622Y162874D01*
X825721Y162823D01*
X825818Y162770D01*
X825912Y162713D01*
X826005Y162652D01*
X826096Y162589D01*
X826185Y162522D01*
X826271Y162452D01*
X826354Y162379D01*
X826436Y162304D01*
X826514Y162226D01*
X826589Y162144D01*
X826662Y162061D01*
X826732Y161975D01*
X826799Y161886D01*
X826862Y161795D01*
X826923Y161702D01*
X826980Y161608D01*
X827033Y161511D01*
X827084Y161412D01*
X827131Y161311D01*
X827174Y161209D01*
X827214Y161106D01*
X827250Y161001D01*
X827282Y160895D01*
X827311Y160788D01*
X827336Y160680D01*
X827357Y160571D01*
X827374Y160462D01*
X827388Y160352D01*
X827397Y160241D01*
X827403Y160131D01*
X827405Y160020D01*
X827405Y156845D01*
X821055Y168656D02*
X821055Y172466D01*
X821057Y172566D01*
X821063Y172665D01*
X821073Y172765D01*
X821086Y172863D01*
X821104Y172962D01*
X821125Y173059D01*
X821150Y173155D01*
X821179Y173251D01*
X821212Y173345D01*
X821248Y173438D01*
X821288Y173529D01*
X821332Y173619D01*
X821379Y173707D01*
X821429Y173793D01*
X821483Y173877D01*
X821540Y173959D01*
X821600Y174038D01*
X821664Y174116D01*
X821730Y174190D01*
X821799Y174262D01*
X821871Y174331D01*
X821945Y174397D01*
X822023Y174461D01*
X822102Y174521D01*
X822184Y174578D01*
X822268Y174632D01*
X822354Y174682D01*
X822442Y174729D01*
X822532Y174773D01*
X822623Y174813D01*
X822716Y174849D01*
X822810Y174882D01*
X822906Y174911D01*
X823002Y174936D01*
X823099Y174957D01*
X823198Y174975D01*
X823296Y174988D01*
X823396Y174998D01*
X823495Y175004D01*
X823595Y175006D01*
X824230Y175006D01*
X824341Y175004D01*
X824451Y174998D01*
X824562Y174989D01*
X824672Y174975D01*
X824781Y174958D01*
X824890Y174937D01*
X824998Y174912D01*
X825105Y174883D01*
X825211Y174851D01*
X825316Y174815D01*
X825419Y174775D01*
X825521Y174732D01*
X825622Y174685D01*
X825721Y174634D01*
X825818Y174581D01*
X825912Y174524D01*
X826005Y174463D01*
X826096Y174400D01*
X826185Y174333D01*
X826271Y174263D01*
X826354Y174190D01*
X826436Y174115D01*
X826514Y174037D01*
X826589Y173955D01*
X826662Y173872D01*
X826732Y173786D01*
X826799Y173697D01*
X826862Y173606D01*
X826923Y173513D01*
X826980Y173418D01*
X827033Y173322D01*
X827084Y173223D01*
X827131Y173122D01*
X827174Y173020D01*
X827214Y172917D01*
X827250Y172812D01*
X827282Y172706D01*
X827311Y172599D01*
X827336Y172491D01*
X827357Y172382D01*
X827374Y172273D01*
X827388Y172163D01*
X827397Y172052D01*
X827403Y171942D01*
X827405Y171831D01*
X827403Y171720D01*
X827397Y171610D01*
X827388Y171499D01*
X827374Y171389D01*
X827357Y171280D01*
X827336Y171171D01*
X827311Y171063D01*
X827282Y170956D01*
X827250Y170850D01*
X827214Y170745D01*
X827174Y170642D01*
X827131Y170540D01*
X827084Y170439D01*
X827033Y170340D01*
X826980Y170243D01*
X826923Y170149D01*
X826862Y170056D01*
X826799Y169965D01*
X826732Y169876D01*
X826662Y169790D01*
X826589Y169707D01*
X826514Y169625D01*
X826436Y169547D01*
X826354Y169472D01*
X826271Y169399D01*
X826185Y169329D01*
X826096Y169262D01*
X826005Y169199D01*
X825912Y169138D01*
X825818Y169081D01*
X825721Y169028D01*
X825622Y168977D01*
X825521Y168930D01*
X825419Y168887D01*
X825316Y168847D01*
X825211Y168811D01*
X825105Y168779D01*
X824998Y168750D01*
X824890Y168725D01*
X824781Y168704D01*
X824672Y168687D01*
X824562Y168673D01*
X824451Y168664D01*
X824341Y168658D01*
X824230Y168656D01*
X821055Y168656D01*
X820915Y168658D01*
X820775Y168664D01*
X820635Y168673D01*
X820496Y168687D01*
X820357Y168704D01*
X820219Y168725D01*
X820081Y168750D01*
X819944Y168779D01*
X819808Y168811D01*
X819673Y168848D01*
X819539Y168888D01*
X819406Y168931D01*
X819274Y168979D01*
X819143Y169029D01*
X819014Y169084D01*
X818887Y169142D01*
X818761Y169203D01*
X818637Y169268D01*
X818515Y169337D01*
X818395Y169408D01*
X818277Y169483D01*
X818160Y169561D01*
X818046Y169643D01*
X817935Y169727D01*
X817826Y169815D01*
X817719Y169905D01*
X817614Y169999D01*
X817513Y170095D01*
X817414Y170194D01*
X817318Y170295D01*
X817224Y170400D01*
X817134Y170507D01*
X817046Y170616D01*
X816962Y170727D01*
X816880Y170841D01*
X816802Y170958D01*
X816727Y171076D01*
X816656Y171196D01*
X816587Y171318D01*
X816522Y171442D01*
X816461Y171568D01*
X816403Y171695D01*
X816348Y171824D01*
X816298Y171955D01*
X816250Y172087D01*
X816207Y172220D01*
X816167Y172354D01*
X816130Y172489D01*
X816098Y172625D01*
X816069Y172762D01*
X816044Y172900D01*
X816023Y173038D01*
X816006Y173177D01*
X815992Y173316D01*
X815983Y173456D01*
X815977Y173596D01*
X815975Y173736D01*
D11*
X685800Y107950D02*
X685800Y101600D01*
X692150Y91440D02*
X679450Y91440D01*
X685800Y101600D01*
X685800Y86360D01*
X692150Y91440D02*
X685800Y101600D01*
X679450Y101600D01*
X692150Y101600D02*
X692150Y99060D01*
X692150Y101600D02*
X685800Y101600D01*
X695960Y81280D02*
X695958Y81180D01*
X695952Y81081D01*
X695942Y80981D01*
X695929Y80883D01*
X695911Y80784D01*
X695890Y80687D01*
X695865Y80591D01*
X695836Y80495D01*
X695803Y80401D01*
X695767Y80308D01*
X695727Y80217D01*
X695683Y80127D01*
X695636Y80039D01*
X695586Y79953D01*
X695532Y79869D01*
X695475Y79787D01*
X695415Y79708D01*
X695351Y79630D01*
X695285Y79556D01*
X695216Y79484D01*
X695144Y79415D01*
X695070Y79349D01*
X694992Y79285D01*
X694913Y79225D01*
X694831Y79168D01*
X694747Y79114D01*
X694661Y79064D01*
X694573Y79017D01*
X694483Y78973D01*
X694392Y78933D01*
X694299Y78897D01*
X694205Y78864D01*
X694109Y78835D01*
X694013Y78810D01*
X693916Y78789D01*
X693817Y78771D01*
X693719Y78758D01*
X693619Y78748D01*
X693520Y78742D01*
X693420Y78740D01*
X695960Y121920D02*
X695958Y122020D01*
X695952Y122119D01*
X695942Y122219D01*
X695929Y122317D01*
X695911Y122416D01*
X695890Y122513D01*
X695865Y122609D01*
X695836Y122705D01*
X695803Y122799D01*
X695767Y122892D01*
X695727Y122983D01*
X695683Y123073D01*
X695636Y123161D01*
X695586Y123247D01*
X695532Y123331D01*
X695475Y123413D01*
X695415Y123492D01*
X695351Y123570D01*
X695285Y123644D01*
X695216Y123716D01*
X695144Y123785D01*
X695070Y123851D01*
X694992Y123915D01*
X694913Y123975D01*
X694831Y124032D01*
X694747Y124086D01*
X694661Y124136D01*
X694573Y124183D01*
X694483Y124227D01*
X694392Y124267D01*
X694299Y124303D01*
X694205Y124336D01*
X694109Y124365D01*
X694013Y124390D01*
X693916Y124411D01*
X693817Y124429D01*
X693719Y124442D01*
X693619Y124452D01*
X693520Y124458D01*
X693420Y124460D01*
X678180Y124460D02*
X678080Y124458D01*
X677981Y124452D01*
X677881Y124442D01*
X677783Y124429D01*
X677684Y124411D01*
X677587Y124390D01*
X677491Y124365D01*
X677395Y124336D01*
X677301Y124303D01*
X677208Y124267D01*
X677117Y124227D01*
X677027Y124183D01*
X676939Y124136D01*
X676853Y124086D01*
X676769Y124032D01*
X676687Y123975D01*
X676608Y123915D01*
X676530Y123851D01*
X676456Y123785D01*
X676384Y123716D01*
X676315Y123644D01*
X676249Y123570D01*
X676185Y123492D01*
X676125Y123413D01*
X676068Y123331D01*
X676014Y123247D01*
X675964Y123161D01*
X675917Y123073D01*
X675873Y122983D01*
X675833Y122892D01*
X675797Y122799D01*
X675764Y122705D01*
X675735Y122609D01*
X675710Y122513D01*
X675689Y122416D01*
X675671Y122317D01*
X675658Y122219D01*
X675648Y122119D01*
X675642Y122020D01*
X675640Y121920D01*
X675640Y81280D02*
X675642Y81180D01*
X675648Y81081D01*
X675658Y80981D01*
X675671Y80883D01*
X675689Y80784D01*
X675710Y80687D01*
X675735Y80591D01*
X675764Y80495D01*
X675797Y80401D01*
X675833Y80308D01*
X675873Y80217D01*
X675917Y80127D01*
X675964Y80039D01*
X676014Y79953D01*
X676068Y79869D01*
X676125Y79787D01*
X676185Y79708D01*
X676249Y79630D01*
X676315Y79556D01*
X676384Y79484D01*
X676456Y79415D01*
X676530Y79349D01*
X676608Y79285D01*
X676687Y79225D01*
X676769Y79168D01*
X676853Y79114D01*
X676939Y79064D01*
X677027Y79017D01*
X677117Y78973D01*
X677208Y78933D01*
X677301Y78897D01*
X677395Y78864D01*
X677491Y78835D01*
X677587Y78810D01*
X677684Y78789D01*
X677783Y78771D01*
X677881Y78758D01*
X677981Y78748D01*
X678080Y78742D01*
X678180Y78740D01*
X693420Y78740D01*
X693420Y124460D02*
X678180Y124460D01*
X695960Y121920D02*
X695960Y81280D01*
X675640Y81280D02*
X675640Y121920D01*
D20*
X685800Y118110D03*
D21*
X685800Y69215D03*
X685800Y133985D03*
D12*
X672465Y130175D02*
X661035Y130175D01*
X661035Y133350D01*
X661037Y133461D01*
X661043Y133571D01*
X661052Y133682D01*
X661066Y133792D01*
X661083Y133901D01*
X661104Y134010D01*
X661129Y134118D01*
X661158Y134225D01*
X661190Y134331D01*
X661226Y134436D01*
X661266Y134539D01*
X661309Y134641D01*
X661356Y134742D01*
X661407Y134841D01*
X661460Y134938D01*
X661517Y135032D01*
X661578Y135125D01*
X661641Y135216D01*
X661708Y135305D01*
X661778Y135391D01*
X661851Y135474D01*
X661926Y135556D01*
X662004Y135634D01*
X662086Y135709D01*
X662169Y135782D01*
X662255Y135852D01*
X662344Y135919D01*
X662435Y135982D01*
X662528Y136043D01*
X662623Y136100D01*
X662719Y136153D01*
X662818Y136204D01*
X662919Y136251D01*
X663021Y136294D01*
X663124Y136334D01*
X663229Y136370D01*
X663335Y136402D01*
X663442Y136431D01*
X663550Y136456D01*
X663659Y136477D01*
X663768Y136494D01*
X663878Y136508D01*
X663989Y136517D01*
X664099Y136523D01*
X664210Y136525D01*
X669290Y136525D01*
X669401Y136523D01*
X669511Y136517D01*
X669622Y136508D01*
X669732Y136494D01*
X669841Y136477D01*
X669950Y136456D01*
X670058Y136431D01*
X670165Y136402D01*
X670271Y136370D01*
X670376Y136334D01*
X670479Y136294D01*
X670581Y136251D01*
X670682Y136204D01*
X670781Y136153D01*
X670878Y136100D01*
X670972Y136043D01*
X671065Y135982D01*
X671156Y135919D01*
X671245Y135852D01*
X671331Y135782D01*
X671414Y135709D01*
X671496Y135634D01*
X671574Y135556D01*
X671649Y135474D01*
X671722Y135391D01*
X671792Y135305D01*
X671859Y135216D01*
X671922Y135125D01*
X671983Y135032D01*
X672040Y134938D01*
X672093Y134841D01*
X672144Y134742D01*
X672191Y134641D01*
X672234Y134539D01*
X672274Y134436D01*
X672310Y134331D01*
X672342Y134225D01*
X672371Y134118D01*
X672396Y134010D01*
X672417Y133901D01*
X672434Y133792D01*
X672448Y133682D01*
X672457Y133571D01*
X672463Y133461D01*
X672465Y133350D01*
X672465Y130175D01*
X672465Y141986D02*
X672465Y145161D01*
X672463Y145272D01*
X672457Y145382D01*
X672448Y145493D01*
X672434Y145603D01*
X672417Y145712D01*
X672396Y145821D01*
X672371Y145929D01*
X672342Y146036D01*
X672310Y146142D01*
X672274Y146247D01*
X672234Y146350D01*
X672191Y146452D01*
X672144Y146553D01*
X672093Y146652D01*
X672040Y146749D01*
X671983Y146843D01*
X671922Y146936D01*
X671859Y147027D01*
X671792Y147116D01*
X671722Y147202D01*
X671649Y147285D01*
X671574Y147367D01*
X671496Y147445D01*
X671414Y147520D01*
X671331Y147593D01*
X671245Y147663D01*
X671156Y147730D01*
X671065Y147793D01*
X670972Y147854D01*
X670878Y147911D01*
X670781Y147964D01*
X670682Y148015D01*
X670581Y148062D01*
X670479Y148105D01*
X670376Y148145D01*
X670271Y148181D01*
X670165Y148213D01*
X670058Y148242D01*
X669950Y148267D01*
X669841Y148288D01*
X669732Y148305D01*
X669622Y148319D01*
X669511Y148328D01*
X669401Y148334D01*
X669290Y148336D01*
X669179Y148334D01*
X669069Y148328D01*
X668958Y148319D01*
X668848Y148305D01*
X668739Y148288D01*
X668630Y148267D01*
X668522Y148242D01*
X668415Y148213D01*
X668309Y148181D01*
X668204Y148145D01*
X668101Y148105D01*
X667999Y148062D01*
X667898Y148015D01*
X667799Y147964D01*
X667703Y147911D01*
X667608Y147854D01*
X667515Y147793D01*
X667424Y147730D01*
X667335Y147663D01*
X667249Y147593D01*
X667166Y147520D01*
X667084Y147445D01*
X667006Y147367D01*
X666931Y147285D01*
X666858Y147202D01*
X666788Y147116D01*
X666721Y147027D01*
X666658Y146936D01*
X666597Y146843D01*
X666540Y146749D01*
X666487Y146652D01*
X666436Y146553D01*
X666389Y146452D01*
X666346Y146350D01*
X666306Y146247D01*
X666270Y146142D01*
X666238Y146036D01*
X666209Y145929D01*
X666184Y145821D01*
X666163Y145712D01*
X666146Y145603D01*
X666132Y145493D01*
X666123Y145382D01*
X666117Y145272D01*
X666115Y145161D01*
X661035Y145796D02*
X661035Y141986D01*
X661035Y145796D02*
X661037Y145896D01*
X661043Y145995D01*
X661053Y146095D01*
X661066Y146193D01*
X661084Y146292D01*
X661105Y146389D01*
X661130Y146485D01*
X661159Y146581D01*
X661192Y146675D01*
X661228Y146768D01*
X661268Y146859D01*
X661312Y146949D01*
X661359Y147037D01*
X661409Y147123D01*
X661463Y147207D01*
X661520Y147289D01*
X661580Y147368D01*
X661644Y147446D01*
X661710Y147520D01*
X661779Y147592D01*
X661851Y147661D01*
X661925Y147727D01*
X662003Y147791D01*
X662082Y147851D01*
X662164Y147908D01*
X662248Y147962D01*
X662334Y148012D01*
X662422Y148059D01*
X662512Y148103D01*
X662603Y148143D01*
X662696Y148179D01*
X662790Y148212D01*
X662886Y148241D01*
X662982Y148266D01*
X663079Y148287D01*
X663178Y148305D01*
X663276Y148318D01*
X663376Y148328D01*
X663475Y148334D01*
X663575Y148336D01*
X663675Y148334D01*
X663774Y148328D01*
X663874Y148318D01*
X663972Y148305D01*
X664071Y148287D01*
X664168Y148266D01*
X664264Y148241D01*
X664360Y148212D01*
X664454Y148179D01*
X664547Y148143D01*
X664638Y148103D01*
X664728Y148059D01*
X664816Y148012D01*
X664902Y147962D01*
X664986Y147908D01*
X665068Y147851D01*
X665147Y147791D01*
X665225Y147727D01*
X665299Y147661D01*
X665371Y147592D01*
X665440Y147520D01*
X665506Y147446D01*
X665570Y147368D01*
X665630Y147289D01*
X665687Y147207D01*
X665741Y147123D01*
X665791Y147037D01*
X665838Y146949D01*
X665882Y146859D01*
X665922Y146768D01*
X665958Y146675D01*
X665991Y146581D01*
X666020Y146485D01*
X666045Y146389D01*
X666066Y146292D01*
X666084Y146193D01*
X666097Y146095D01*
X666107Y145995D01*
X666113Y145896D01*
X666115Y145796D01*
X666115Y143256D01*
D11*
X400550Y189810D02*
X400548Y189710D01*
X400542Y189611D01*
X400532Y189511D01*
X400519Y189413D01*
X400501Y189314D01*
X400480Y189217D01*
X400455Y189121D01*
X400426Y189025D01*
X400393Y188931D01*
X400357Y188838D01*
X400317Y188747D01*
X400273Y188657D01*
X400226Y188569D01*
X400176Y188483D01*
X400122Y188399D01*
X400065Y188317D01*
X400005Y188238D01*
X399941Y188160D01*
X399875Y188086D01*
X399806Y188014D01*
X399734Y187945D01*
X399660Y187879D01*
X399582Y187815D01*
X399503Y187755D01*
X399421Y187698D01*
X399337Y187644D01*
X399251Y187594D01*
X399163Y187547D01*
X399073Y187503D01*
X398982Y187463D01*
X398889Y187427D01*
X398795Y187394D01*
X398699Y187365D01*
X398603Y187340D01*
X398506Y187319D01*
X398407Y187301D01*
X398309Y187288D01*
X398209Y187278D01*
X398110Y187272D01*
X398010Y187270D01*
X400550Y207590D02*
X400548Y207690D01*
X400542Y207789D01*
X400532Y207889D01*
X400519Y207987D01*
X400501Y208086D01*
X400480Y208183D01*
X400455Y208279D01*
X400426Y208375D01*
X400393Y208469D01*
X400357Y208562D01*
X400317Y208653D01*
X400273Y208743D01*
X400226Y208831D01*
X400176Y208917D01*
X400122Y209001D01*
X400065Y209083D01*
X400005Y209162D01*
X399941Y209240D01*
X399875Y209314D01*
X399806Y209386D01*
X399734Y209455D01*
X399660Y209521D01*
X399582Y209585D01*
X399503Y209645D01*
X399421Y209702D01*
X399337Y209756D01*
X399251Y209806D01*
X399163Y209853D01*
X399073Y209897D01*
X398982Y209937D01*
X398889Y209973D01*
X398795Y210006D01*
X398699Y210035D01*
X398603Y210060D01*
X398506Y210081D01*
X398407Y210099D01*
X398309Y210112D01*
X398209Y210122D01*
X398110Y210128D01*
X398010Y210130D01*
X339590Y210130D02*
X339490Y210128D01*
X339391Y210122D01*
X339291Y210112D01*
X339193Y210099D01*
X339094Y210081D01*
X338997Y210060D01*
X338901Y210035D01*
X338805Y210006D01*
X338711Y209973D01*
X338618Y209937D01*
X338527Y209897D01*
X338437Y209853D01*
X338349Y209806D01*
X338263Y209756D01*
X338179Y209702D01*
X338097Y209645D01*
X338018Y209585D01*
X337940Y209521D01*
X337866Y209455D01*
X337794Y209386D01*
X337725Y209314D01*
X337659Y209240D01*
X337595Y209162D01*
X337535Y209083D01*
X337478Y209001D01*
X337424Y208917D01*
X337374Y208831D01*
X337327Y208743D01*
X337283Y208653D01*
X337243Y208562D01*
X337207Y208469D01*
X337174Y208375D01*
X337145Y208279D01*
X337120Y208183D01*
X337099Y208086D01*
X337081Y207987D01*
X337068Y207889D01*
X337058Y207789D01*
X337052Y207690D01*
X337050Y207590D01*
X337050Y189810D02*
X337052Y189710D01*
X337058Y189611D01*
X337068Y189511D01*
X337081Y189413D01*
X337099Y189314D01*
X337120Y189217D01*
X337145Y189121D01*
X337174Y189025D01*
X337207Y188931D01*
X337243Y188838D01*
X337283Y188747D01*
X337327Y188657D01*
X337374Y188569D01*
X337424Y188483D01*
X337478Y188399D01*
X337535Y188317D01*
X337595Y188238D01*
X337659Y188160D01*
X337725Y188086D01*
X337794Y188014D01*
X337866Y187945D01*
X337940Y187879D01*
X338018Y187815D01*
X338097Y187755D01*
X338179Y187698D01*
X338263Y187644D01*
X338349Y187594D01*
X338437Y187547D01*
X338527Y187503D01*
X338618Y187463D01*
X338711Y187427D01*
X338805Y187394D01*
X338901Y187365D01*
X338997Y187340D01*
X339094Y187319D01*
X339193Y187301D01*
X339291Y187288D01*
X339391Y187278D01*
X339490Y187272D01*
X339590Y187270D01*
X400550Y189810D02*
X400550Y207590D01*
X398010Y187270D02*
X394200Y187270D01*
X392930Y188540D01*
X394200Y210130D02*
X398010Y210130D01*
X394200Y210130D02*
X392930Y208860D01*
X344670Y188540D02*
X343400Y187270D01*
X344670Y188540D02*
X392930Y188540D01*
X344670Y208860D02*
X343400Y210130D01*
X344670Y208860D02*
X392930Y208860D01*
X343400Y187270D02*
X339590Y187270D01*
X339590Y210130D02*
X343400Y210130D01*
X337050Y207590D02*
X337050Y189810D01*
D19*
X332732Y198700D03*
X404868Y198700D03*
D12*
X388568Y212035D02*
X388568Y223465D01*
X391743Y223465D01*
X391854Y223463D01*
X391964Y223457D01*
X392075Y223448D01*
X392185Y223434D01*
X392294Y223417D01*
X392403Y223396D01*
X392511Y223371D01*
X392618Y223342D01*
X392724Y223310D01*
X392829Y223274D01*
X392932Y223234D01*
X393034Y223191D01*
X393135Y223144D01*
X393234Y223093D01*
X393331Y223040D01*
X393425Y222983D01*
X393518Y222922D01*
X393609Y222859D01*
X393698Y222792D01*
X393784Y222722D01*
X393867Y222649D01*
X393949Y222574D01*
X394027Y222496D01*
X394102Y222414D01*
X394175Y222331D01*
X394245Y222245D01*
X394312Y222156D01*
X394375Y222065D01*
X394436Y221972D01*
X394493Y221877D01*
X394546Y221781D01*
X394597Y221682D01*
X394644Y221581D01*
X394687Y221479D01*
X394727Y221376D01*
X394763Y221271D01*
X394795Y221165D01*
X394824Y221058D01*
X394849Y220950D01*
X394870Y220841D01*
X394887Y220732D01*
X394901Y220622D01*
X394910Y220511D01*
X394916Y220401D01*
X394918Y220290D01*
X394916Y220179D01*
X394910Y220069D01*
X394901Y219958D01*
X394887Y219848D01*
X394870Y219739D01*
X394849Y219630D01*
X394824Y219522D01*
X394795Y219415D01*
X394763Y219309D01*
X394727Y219204D01*
X394687Y219101D01*
X394644Y218999D01*
X394597Y218898D01*
X394546Y218799D01*
X394493Y218702D01*
X394436Y218608D01*
X394375Y218515D01*
X394312Y218424D01*
X394245Y218335D01*
X394175Y218249D01*
X394102Y218166D01*
X394027Y218084D01*
X393949Y218006D01*
X393867Y217931D01*
X393784Y217858D01*
X393698Y217788D01*
X393609Y217721D01*
X393518Y217658D01*
X393425Y217597D01*
X393331Y217540D01*
X393234Y217487D01*
X393135Y217436D01*
X393034Y217389D01*
X392932Y217346D01*
X392829Y217306D01*
X392724Y217270D01*
X392618Y217238D01*
X392511Y217209D01*
X392403Y217184D01*
X392294Y217163D01*
X392185Y217146D01*
X392075Y217132D01*
X391964Y217123D01*
X391854Y217117D01*
X391743Y217115D01*
X388568Y217115D01*
X392378Y217115D02*
X394918Y212035D01*
X399915Y212035D02*
X403725Y212035D01*
X403825Y212037D01*
X403924Y212043D01*
X404024Y212053D01*
X404122Y212066D01*
X404221Y212084D01*
X404318Y212105D01*
X404414Y212130D01*
X404510Y212159D01*
X404604Y212192D01*
X404697Y212228D01*
X404788Y212268D01*
X404878Y212312D01*
X404966Y212359D01*
X405052Y212409D01*
X405136Y212463D01*
X405218Y212520D01*
X405297Y212580D01*
X405375Y212644D01*
X405449Y212710D01*
X405521Y212779D01*
X405590Y212851D01*
X405656Y212925D01*
X405720Y213003D01*
X405780Y213082D01*
X405837Y213164D01*
X405891Y213248D01*
X405941Y213334D01*
X405988Y213422D01*
X406032Y213512D01*
X406072Y213603D01*
X406108Y213696D01*
X406141Y213790D01*
X406170Y213886D01*
X406195Y213982D01*
X406216Y214079D01*
X406234Y214178D01*
X406247Y214276D01*
X406257Y214376D01*
X406263Y214475D01*
X406265Y214575D01*
X406265Y215845D01*
X406263Y215945D01*
X406257Y216044D01*
X406247Y216144D01*
X406234Y216242D01*
X406216Y216341D01*
X406195Y216438D01*
X406170Y216534D01*
X406141Y216630D01*
X406108Y216724D01*
X406072Y216817D01*
X406032Y216908D01*
X405988Y216998D01*
X405941Y217086D01*
X405891Y217172D01*
X405837Y217256D01*
X405780Y217338D01*
X405720Y217417D01*
X405656Y217495D01*
X405590Y217569D01*
X405521Y217641D01*
X405449Y217710D01*
X405375Y217776D01*
X405297Y217840D01*
X405218Y217900D01*
X405136Y217957D01*
X405052Y218011D01*
X404966Y218061D01*
X404878Y218108D01*
X404788Y218152D01*
X404697Y218192D01*
X404604Y218228D01*
X404510Y218261D01*
X404414Y218290D01*
X404318Y218315D01*
X404221Y218336D01*
X404122Y218354D01*
X404024Y218367D01*
X403924Y218377D01*
X403825Y218383D01*
X403725Y218385D01*
X399915Y218385D01*
X399915Y223465D01*
X406265Y223465D01*
D11*
X636270Y72390D02*
X636272Y72290D01*
X636278Y72191D01*
X636288Y72091D01*
X636301Y71993D01*
X636319Y71894D01*
X636340Y71797D01*
X636365Y71701D01*
X636394Y71605D01*
X636427Y71511D01*
X636463Y71418D01*
X636503Y71327D01*
X636547Y71237D01*
X636594Y71149D01*
X636644Y71063D01*
X636698Y70979D01*
X636755Y70897D01*
X636815Y70818D01*
X636879Y70740D01*
X636945Y70666D01*
X637014Y70594D01*
X637086Y70525D01*
X637160Y70459D01*
X637238Y70395D01*
X637317Y70335D01*
X637399Y70278D01*
X637483Y70224D01*
X637569Y70174D01*
X637657Y70127D01*
X637747Y70083D01*
X637838Y70043D01*
X637931Y70007D01*
X638025Y69974D01*
X638121Y69945D01*
X638217Y69920D01*
X638314Y69899D01*
X638413Y69881D01*
X638511Y69868D01*
X638611Y69858D01*
X638710Y69852D01*
X638810Y69850D01*
X656590Y69850D02*
X656690Y69852D01*
X656789Y69858D01*
X656889Y69868D01*
X656987Y69881D01*
X657086Y69899D01*
X657183Y69920D01*
X657279Y69945D01*
X657375Y69974D01*
X657469Y70007D01*
X657562Y70043D01*
X657653Y70083D01*
X657743Y70127D01*
X657831Y70174D01*
X657917Y70224D01*
X658001Y70278D01*
X658083Y70335D01*
X658162Y70395D01*
X658240Y70459D01*
X658314Y70525D01*
X658386Y70594D01*
X658455Y70666D01*
X658521Y70740D01*
X658585Y70818D01*
X658645Y70897D01*
X658702Y70979D01*
X658756Y71063D01*
X658806Y71149D01*
X658853Y71237D01*
X658897Y71327D01*
X658937Y71418D01*
X658973Y71511D01*
X659006Y71605D01*
X659035Y71701D01*
X659060Y71797D01*
X659081Y71894D01*
X659099Y71993D01*
X659112Y72091D01*
X659122Y72191D01*
X659128Y72290D01*
X659130Y72390D01*
X659130Y130810D02*
X659128Y130910D01*
X659122Y131009D01*
X659112Y131109D01*
X659099Y131207D01*
X659081Y131306D01*
X659060Y131403D01*
X659035Y131499D01*
X659006Y131595D01*
X658973Y131689D01*
X658937Y131782D01*
X658897Y131873D01*
X658853Y131963D01*
X658806Y132051D01*
X658756Y132137D01*
X658702Y132221D01*
X658645Y132303D01*
X658585Y132382D01*
X658521Y132460D01*
X658455Y132534D01*
X658386Y132606D01*
X658314Y132675D01*
X658240Y132741D01*
X658162Y132805D01*
X658083Y132865D01*
X658001Y132922D01*
X657917Y132976D01*
X657831Y133026D01*
X657743Y133073D01*
X657653Y133117D01*
X657562Y133157D01*
X657469Y133193D01*
X657375Y133226D01*
X657279Y133255D01*
X657183Y133280D01*
X657086Y133301D01*
X656987Y133319D01*
X656889Y133332D01*
X656789Y133342D01*
X656690Y133348D01*
X656590Y133350D01*
X638810Y133350D02*
X638710Y133348D01*
X638611Y133342D01*
X638511Y133332D01*
X638413Y133319D01*
X638314Y133301D01*
X638217Y133280D01*
X638121Y133255D01*
X638025Y133226D01*
X637931Y133193D01*
X637838Y133157D01*
X637747Y133117D01*
X637657Y133073D01*
X637569Y133026D01*
X637483Y132976D01*
X637399Y132922D01*
X637317Y132865D01*
X637238Y132805D01*
X637160Y132741D01*
X637086Y132675D01*
X637014Y132606D01*
X636945Y132534D01*
X636879Y132460D01*
X636815Y132382D01*
X636755Y132303D01*
X636698Y132221D01*
X636644Y132137D01*
X636594Y132051D01*
X636547Y131963D01*
X636503Y131873D01*
X636463Y131782D01*
X636427Y131689D01*
X636394Y131595D01*
X636365Y131499D01*
X636340Y131403D01*
X636319Y131306D01*
X636301Y131207D01*
X636288Y131109D01*
X636278Y131009D01*
X636272Y130910D01*
X636270Y130810D01*
X638810Y69850D02*
X656590Y69850D01*
X636270Y72390D02*
X636270Y76200D01*
X637540Y77470D01*
X659130Y76200D02*
X659130Y72390D01*
X659130Y76200D02*
X657860Y77470D01*
X637540Y125730D02*
X636270Y127000D01*
X637540Y125730D02*
X637540Y77470D01*
X657860Y125730D02*
X659130Y127000D01*
X657860Y125730D02*
X657860Y77470D01*
X636270Y127000D02*
X636270Y130810D01*
X659130Y130810D02*
X659130Y127000D01*
X656590Y133350D02*
X638810Y133350D01*
D18*
X647700Y137668D03*
X647700Y65532D03*
D12*
X631825Y71755D02*
X620395Y71755D01*
X620395Y74930D01*
X620397Y75041D01*
X620403Y75151D01*
X620412Y75262D01*
X620426Y75372D01*
X620443Y75481D01*
X620464Y75590D01*
X620489Y75698D01*
X620518Y75805D01*
X620550Y75911D01*
X620586Y76016D01*
X620626Y76119D01*
X620669Y76221D01*
X620716Y76322D01*
X620767Y76421D01*
X620820Y76517D01*
X620877Y76612D01*
X620938Y76705D01*
X621001Y76796D01*
X621068Y76885D01*
X621138Y76971D01*
X621211Y77054D01*
X621286Y77136D01*
X621364Y77214D01*
X621446Y77289D01*
X621529Y77362D01*
X621615Y77432D01*
X621704Y77499D01*
X621795Y77562D01*
X621888Y77623D01*
X621983Y77680D01*
X622079Y77733D01*
X622178Y77784D01*
X622279Y77831D01*
X622381Y77874D01*
X622484Y77914D01*
X622589Y77950D01*
X622695Y77982D01*
X622802Y78011D01*
X622910Y78036D01*
X623019Y78057D01*
X623128Y78074D01*
X623238Y78088D01*
X623349Y78097D01*
X623459Y78103D01*
X623570Y78105D01*
X623681Y78103D01*
X623791Y78097D01*
X623902Y78088D01*
X624012Y78074D01*
X624121Y78057D01*
X624230Y78036D01*
X624338Y78011D01*
X624445Y77982D01*
X624551Y77950D01*
X624656Y77914D01*
X624759Y77874D01*
X624861Y77831D01*
X624962Y77784D01*
X625061Y77733D01*
X625158Y77680D01*
X625252Y77623D01*
X625345Y77562D01*
X625436Y77499D01*
X625525Y77432D01*
X625611Y77362D01*
X625694Y77289D01*
X625776Y77214D01*
X625854Y77136D01*
X625929Y77054D01*
X626002Y76971D01*
X626072Y76885D01*
X626139Y76796D01*
X626202Y76705D01*
X626263Y76612D01*
X626320Y76518D01*
X626373Y76421D01*
X626424Y76322D01*
X626471Y76221D01*
X626514Y76119D01*
X626554Y76016D01*
X626590Y75911D01*
X626622Y75805D01*
X626651Y75698D01*
X626676Y75590D01*
X626697Y75481D01*
X626714Y75372D01*
X626728Y75262D01*
X626737Y75151D01*
X626743Y75041D01*
X626745Y74930D01*
X626745Y71755D01*
X626745Y75565D02*
X631825Y78105D01*
X622935Y83102D02*
X620395Y86277D01*
X631825Y86277D01*
X631825Y83102D02*
X631825Y89452D01*
X802330Y266700D02*
X802348Y268172D01*
X802402Y269644D01*
X802493Y271114D01*
X802619Y272581D01*
X802781Y274045D01*
X802979Y275504D01*
X803213Y276958D01*
X803483Y278405D01*
X803788Y279846D01*
X804128Y281279D01*
X804503Y282703D01*
X804914Y284117D01*
X805358Y285521D01*
X805837Y286913D01*
X806350Y288294D01*
X806897Y289661D01*
X807477Y291014D01*
X808091Y292353D01*
X808737Y293677D01*
X809415Y294984D01*
X810125Y296274D01*
X810866Y297546D01*
X811639Y298800D01*
X812442Y300034D01*
X813275Y301248D01*
X814138Y302442D01*
X815029Y303614D01*
X815949Y304764D01*
X816897Y305890D01*
X817873Y306994D01*
X818875Y308072D01*
X819904Y309126D01*
X820958Y310155D01*
X822036Y311157D01*
X823140Y312133D01*
X824266Y313081D01*
X825416Y314001D01*
X826588Y314892D01*
X827782Y315755D01*
X828996Y316588D01*
X830230Y317391D01*
X831484Y318164D01*
X832756Y318905D01*
X834046Y319615D01*
X835353Y320293D01*
X836677Y320939D01*
X838016Y321553D01*
X839369Y322133D01*
X840736Y322680D01*
X842117Y323193D01*
X843509Y323672D01*
X844913Y324116D01*
X846327Y324527D01*
X847751Y324902D01*
X849184Y325242D01*
X850625Y325547D01*
X852072Y325817D01*
X853526Y326051D01*
X854985Y326249D01*
X856449Y326411D01*
X857916Y326537D01*
X859386Y326628D01*
X860858Y326682D01*
X862330Y326700D01*
X863802Y326682D01*
X865274Y326628D01*
X866744Y326537D01*
X868211Y326411D01*
X869675Y326249D01*
X871134Y326051D01*
X872588Y325817D01*
X874035Y325547D01*
X875476Y325242D01*
X876909Y324902D01*
X878333Y324527D01*
X879747Y324116D01*
X881151Y323672D01*
X882543Y323193D01*
X883924Y322680D01*
X885291Y322133D01*
X886644Y321553D01*
X887983Y320939D01*
X889307Y320293D01*
X890614Y319615D01*
X891904Y318905D01*
X893176Y318164D01*
X894430Y317391D01*
X895664Y316588D01*
X896878Y315755D01*
X898072Y314892D01*
X899244Y314001D01*
X900394Y313081D01*
X901520Y312133D01*
X902624Y311157D01*
X903702Y310155D01*
X904756Y309126D01*
X905785Y308072D01*
X906787Y306994D01*
X907763Y305890D01*
X908711Y304764D01*
X909631Y303614D01*
X910522Y302442D01*
X911385Y301248D01*
X912218Y300034D01*
X913021Y298800D01*
X913794Y297546D01*
X914535Y296274D01*
X915245Y294984D01*
X915923Y293677D01*
X916569Y292353D01*
X917183Y291014D01*
X917763Y289661D01*
X918310Y288294D01*
X918823Y286913D01*
X919302Y285521D01*
X919746Y284117D01*
X920157Y282703D01*
X920532Y281279D01*
X920872Y279846D01*
X921177Y278405D01*
X921447Y276958D01*
X921681Y275504D01*
X921879Y274045D01*
X922041Y272581D01*
X922167Y271114D01*
X922258Y269644D01*
X922312Y268172D01*
X922330Y266700D01*
X922312Y265228D01*
X922258Y263756D01*
X922167Y262286D01*
X922041Y260819D01*
X921879Y259355D01*
X921681Y257896D01*
X921447Y256442D01*
X921177Y254995D01*
X920872Y253554D01*
X920532Y252121D01*
X920157Y250697D01*
X919746Y249283D01*
X919302Y247879D01*
X918823Y246487D01*
X918310Y245106D01*
X917763Y243739D01*
X917183Y242386D01*
X916569Y241047D01*
X915923Y239723D01*
X915245Y238416D01*
X914535Y237126D01*
X913794Y235854D01*
X913021Y234600D01*
X912218Y233366D01*
X911385Y232152D01*
X910522Y230958D01*
X909631Y229786D01*
X908711Y228636D01*
X907763Y227510D01*
X906787Y226406D01*
X905785Y225328D01*
X904756Y224274D01*
X903702Y223245D01*
X902624Y222243D01*
X901520Y221267D01*
X900394Y220319D01*
X899244Y219399D01*
X898072Y218508D01*
X896878Y217645D01*
X895664Y216812D01*
X894430Y216009D01*
X893176Y215236D01*
X891904Y214495D01*
X890614Y213785D01*
X889307Y213107D01*
X887983Y212461D01*
X886644Y211847D01*
X885291Y211267D01*
X883924Y210720D01*
X882543Y210207D01*
X881151Y209728D01*
X879747Y209284D01*
X878333Y208873D01*
X876909Y208498D01*
X875476Y208158D01*
X874035Y207853D01*
X872588Y207583D01*
X871134Y207349D01*
X869675Y207151D01*
X868211Y206989D01*
X866744Y206863D01*
X865274Y206772D01*
X863802Y206718D01*
X862330Y206700D01*
X860858Y206718D01*
X859386Y206772D01*
X857916Y206863D01*
X856449Y206989D01*
X854985Y207151D01*
X853526Y207349D01*
X852072Y207583D01*
X850625Y207853D01*
X849184Y208158D01*
X847751Y208498D01*
X846327Y208873D01*
X844913Y209284D01*
X843509Y209728D01*
X842117Y210207D01*
X840736Y210720D01*
X839369Y211267D01*
X838016Y211847D01*
X836677Y212461D01*
X835353Y213107D01*
X834046Y213785D01*
X832756Y214495D01*
X831484Y215236D01*
X830230Y216009D01*
X828996Y216812D01*
X827782Y217645D01*
X826588Y218508D01*
X825416Y219399D01*
X824266Y220319D01*
X823140Y221267D01*
X822036Y222243D01*
X820958Y223245D01*
X819904Y224274D01*
X818875Y225328D01*
X817873Y226406D01*
X816897Y227510D01*
X815949Y228636D01*
X815029Y229786D01*
X814138Y230958D01*
X813275Y232152D01*
X812442Y233366D01*
X811639Y234600D01*
X810866Y235854D01*
X810125Y237126D01*
X809415Y238416D01*
X808737Y239723D01*
X808091Y241047D01*
X807477Y242386D01*
X806897Y243739D01*
X806350Y245106D01*
X805837Y246487D01*
X805358Y247879D01*
X804914Y249283D01*
X804503Y250697D01*
X804128Y252121D01*
X803788Y253554D01*
X803483Y254995D01*
X803213Y256442D01*
X802979Y257896D01*
X802781Y259355D01*
X802619Y260819D01*
X802493Y262286D01*
X802402Y263756D01*
X802348Y265228D01*
X802330Y266700D01*
D10*
X904387Y317641D02*
X904387Y329325D01*
X904387Y317641D02*
X909580Y317641D01*
X913889Y326728D02*
X917135Y329325D01*
X917135Y317641D01*
X920380Y317641D02*
X913889Y317641D01*
D11*
X609600Y171450D02*
X609600Y158750D01*
X603250Y152400D01*
X590550Y152400D01*
X584200Y158750D01*
X609600Y196850D02*
X603250Y203200D01*
X609600Y196850D02*
X609600Y184150D01*
X603250Y177800D01*
X590550Y177800D01*
X584200Y184150D01*
X584200Y196850D01*
X590550Y203200D01*
X603250Y177800D02*
X609600Y171450D01*
X590550Y177800D02*
X584200Y171450D01*
X584200Y158750D01*
X609600Y234950D02*
X609600Y247650D01*
X609600Y234950D02*
X603250Y228600D01*
X590550Y228600D01*
X584200Y234950D01*
X603250Y228600D02*
X609600Y222250D01*
X609600Y209550D01*
X603250Y203200D01*
X590550Y203200D01*
X584200Y209550D01*
X584200Y222250D01*
X590550Y228600D01*
X590550Y254000D02*
X603250Y254000D01*
X609600Y247650D01*
X590550Y254000D02*
X584200Y247650D01*
X584200Y234950D01*
X609600Y146050D02*
X609600Y133350D01*
X603250Y127000D01*
X590550Y127000D01*
X584200Y133350D01*
X603250Y152400D02*
X609600Y146050D01*
X590550Y152400D02*
X584200Y146050D01*
X584200Y133350D01*
D12*
X896000Y152400D02*
X972200Y152400D01*
X972200Y88900D01*
X896000Y88900D01*
X896000Y152400D01*
X896000Y139700D02*
X972200Y139700D01*
X896000Y139700D02*
X896000Y101600D01*
X972200Y101600D01*
X5200Y112800D02*
X-17800Y139800D01*
X-18006Y179145D01*
X-18006Y190052D01*
X-17800Y240800D01*
X5200Y267800D01*
X5200Y317800D01*
X471200Y317800D01*
X485200Y294800D01*
X485200Y244800D01*
X471200Y230800D01*
X470548Y190052D01*
X471200Y150800D01*
X484200Y135800D01*
X484200Y85800D01*
X470200Y61800D01*
X5200Y61800D01*
X5200Y112800D01*
X34994Y277552D02*
X337794Y277552D01*
D22*
X495440Y305952D03*
D12*
X3794Y200946D02*
X-18006Y200946D01*
X3794Y200946D02*
X3794Y179145D01*
X-18006Y179145D01*
X-15073Y190052D02*
X-15070Y190262D01*
X-15063Y190472D01*
X-15050Y190682D01*
X-15032Y190892D01*
X-15009Y191101D01*
X-14980Y191309D01*
X-14947Y191517D01*
X-14908Y191723D01*
X-14865Y191929D01*
X-14816Y192134D01*
X-14763Y192337D01*
X-14704Y192539D01*
X-14641Y192739D01*
X-14572Y192938D01*
X-14499Y193135D01*
X-14421Y193330D01*
X-14338Y193524D01*
X-14250Y193715D01*
X-14158Y193904D01*
X-14061Y194090D01*
X-13960Y194275D01*
X-13854Y194456D01*
X-13744Y194635D01*
X-13629Y194812D01*
X-13510Y194985D01*
X-13387Y195155D01*
X-13260Y195323D01*
X-13128Y195487D01*
X-12993Y195648D01*
X-12854Y195805D01*
X-12711Y195959D01*
X-12564Y196110D01*
X-12413Y196257D01*
X-12259Y196400D01*
X-12102Y196539D01*
X-11941Y196674D01*
X-11777Y196806D01*
X-11609Y196933D01*
X-11439Y197056D01*
X-11266Y197175D01*
X-11089Y197290D01*
X-10910Y197400D01*
X-10729Y197506D01*
X-10544Y197607D01*
X-10358Y197704D01*
X-10169Y197796D01*
X-9978Y197884D01*
X-9784Y197967D01*
X-9589Y198045D01*
X-9392Y198118D01*
X-9193Y198187D01*
X-8993Y198250D01*
X-8791Y198309D01*
X-8588Y198362D01*
X-8383Y198411D01*
X-8177Y198454D01*
X-7971Y198493D01*
X-7763Y198526D01*
X-7555Y198555D01*
X-7346Y198578D01*
X-7136Y198596D01*
X-6926Y198609D01*
X-6716Y198616D01*
X-6506Y198619D01*
X-6296Y198616D01*
X-6086Y198609D01*
X-5876Y198596D01*
X-5666Y198578D01*
X-5457Y198555D01*
X-5249Y198526D01*
X-5041Y198493D01*
X-4835Y198454D01*
X-4629Y198411D01*
X-4424Y198362D01*
X-4221Y198309D01*
X-4019Y198250D01*
X-3819Y198187D01*
X-3620Y198118D01*
X-3423Y198045D01*
X-3228Y197967D01*
X-3034Y197884D01*
X-2843Y197796D01*
X-2654Y197704D01*
X-2468Y197607D01*
X-2283Y197506D01*
X-2102Y197400D01*
X-1923Y197290D01*
X-1746Y197175D01*
X-1573Y197056D01*
X-1403Y196933D01*
X-1235Y196806D01*
X-1071Y196674D01*
X-910Y196539D01*
X-753Y196400D01*
X-599Y196257D01*
X-448Y196110D01*
X-301Y195959D01*
X-158Y195805D01*
X-19Y195648D01*
X116Y195487D01*
X248Y195323D01*
X375Y195155D01*
X498Y194985D01*
X617Y194812D01*
X732Y194635D01*
X842Y194456D01*
X948Y194275D01*
X1049Y194090D01*
X1146Y193904D01*
X1238Y193715D01*
X1326Y193524D01*
X1409Y193330D01*
X1487Y193135D01*
X1560Y192938D01*
X1629Y192739D01*
X1692Y192539D01*
X1751Y192337D01*
X1804Y192134D01*
X1853Y191929D01*
X1896Y191723D01*
X1935Y191517D01*
X1968Y191309D01*
X1997Y191101D01*
X2020Y190892D01*
X2038Y190682D01*
X2051Y190472D01*
X2058Y190262D01*
X2061Y190052D01*
X2058Y189842D01*
X2051Y189632D01*
X2038Y189422D01*
X2020Y189212D01*
X1997Y189003D01*
X1968Y188795D01*
X1935Y188587D01*
X1896Y188381D01*
X1853Y188175D01*
X1804Y187970D01*
X1751Y187767D01*
X1692Y187565D01*
X1629Y187365D01*
X1560Y187166D01*
X1487Y186969D01*
X1409Y186774D01*
X1326Y186580D01*
X1238Y186389D01*
X1146Y186200D01*
X1049Y186014D01*
X948Y185829D01*
X842Y185648D01*
X732Y185469D01*
X617Y185292D01*
X498Y185119D01*
X375Y184949D01*
X248Y184781D01*
X116Y184617D01*
X-19Y184456D01*
X-158Y184299D01*
X-301Y184145D01*
X-448Y183994D01*
X-599Y183847D01*
X-753Y183704D01*
X-910Y183565D01*
X-1071Y183430D01*
X-1235Y183298D01*
X-1403Y183171D01*
X-1573Y183048D01*
X-1746Y182929D01*
X-1923Y182814D01*
X-2102Y182704D01*
X-2283Y182598D01*
X-2468Y182497D01*
X-2654Y182400D01*
X-2843Y182308D01*
X-3034Y182220D01*
X-3228Y182137D01*
X-3423Y182059D01*
X-3620Y181986D01*
X-3819Y181917D01*
X-4019Y181854D01*
X-4221Y181795D01*
X-4424Y181742D01*
X-4629Y181693D01*
X-4835Y181650D01*
X-5041Y181611D01*
X-5249Y181578D01*
X-5457Y181549D01*
X-5666Y181526D01*
X-5876Y181508D01*
X-6086Y181495D01*
X-6296Y181488D01*
X-6506Y181485D01*
X-6716Y181488D01*
X-6926Y181495D01*
X-7136Y181508D01*
X-7346Y181526D01*
X-7555Y181549D01*
X-7763Y181578D01*
X-7971Y181611D01*
X-8177Y181650D01*
X-8383Y181693D01*
X-8588Y181742D01*
X-8791Y181795D01*
X-8993Y181854D01*
X-9193Y181917D01*
X-9392Y181986D01*
X-9589Y182059D01*
X-9784Y182137D01*
X-9978Y182220D01*
X-10169Y182308D01*
X-10358Y182400D01*
X-10544Y182497D01*
X-10729Y182598D01*
X-10910Y182704D01*
X-11089Y182814D01*
X-11266Y182929D01*
X-11439Y183048D01*
X-11609Y183171D01*
X-11777Y183298D01*
X-11941Y183430D01*
X-12102Y183565D01*
X-12259Y183704D01*
X-12413Y183847D01*
X-12564Y183994D01*
X-12711Y184145D01*
X-12854Y184299D01*
X-12993Y184456D01*
X-13128Y184617D01*
X-13260Y184781D01*
X-13387Y184949D01*
X-13510Y185119D01*
X-13629Y185292D01*
X-13744Y185469D01*
X-13854Y185648D01*
X-13960Y185829D01*
X-14061Y186014D01*
X-14158Y186200D01*
X-14250Y186389D01*
X-14338Y186580D01*
X-14421Y186774D01*
X-14499Y186969D01*
X-14572Y187166D01*
X-14641Y187365D01*
X-14704Y187565D01*
X-14763Y187767D01*
X-14816Y187970D01*
X-14865Y188175D01*
X-14908Y188381D01*
X-14947Y188587D01*
X-14980Y188795D01*
X-15009Y189003D01*
X-15032Y189212D01*
X-15050Y189422D01*
X-15063Y189632D01*
X-15070Y189842D01*
X-15073Y190052D01*
X-11586Y190052D02*
X-11584Y190194D01*
X-11578Y190337D01*
X-11568Y190479D01*
X-11554Y190621D01*
X-11536Y190762D01*
X-11514Y190903D01*
X-11488Y191043D01*
X-11459Y191182D01*
X-11425Y191321D01*
X-11387Y191458D01*
X-11346Y191595D01*
X-11301Y191730D01*
X-11252Y191864D01*
X-11199Y191996D01*
X-11143Y192127D01*
X-11083Y192256D01*
X-11019Y192384D01*
X-10952Y192509D01*
X-10881Y192633D01*
X-10807Y192755D01*
X-10730Y192874D01*
X-10649Y192992D01*
X-10565Y193107D01*
X-10478Y193219D01*
X-10387Y193329D01*
X-10294Y193437D01*
X-10197Y193542D01*
X-10098Y193644D01*
X-9996Y193743D01*
X-9891Y193840D01*
X-9783Y193933D01*
X-9673Y194024D01*
X-9561Y194111D01*
X-9446Y194195D01*
X-9328Y194276D01*
X-9209Y194353D01*
X-9087Y194427D01*
X-8963Y194498D01*
X-8838Y194565D01*
X-8710Y194629D01*
X-8581Y194689D01*
X-8450Y194745D01*
X-8318Y194798D01*
X-8184Y194847D01*
X-8049Y194892D01*
X-7912Y194933D01*
X-7775Y194971D01*
X-7636Y195005D01*
X-7497Y195034D01*
X-7357Y195060D01*
X-7216Y195082D01*
X-7075Y195100D01*
X-6933Y195114D01*
X-6791Y195124D01*
X-6648Y195130D01*
X-6506Y195132D01*
X-6364Y195130D01*
X-6221Y195124D01*
X-6079Y195114D01*
X-5937Y195100D01*
X-5796Y195082D01*
X-5655Y195060D01*
X-5515Y195034D01*
X-5376Y195005D01*
X-5237Y194971D01*
X-5100Y194933D01*
X-4963Y194892D01*
X-4828Y194847D01*
X-4694Y194798D01*
X-4562Y194745D01*
X-4431Y194689D01*
X-4302Y194629D01*
X-4174Y194565D01*
X-4049Y194498D01*
X-3925Y194427D01*
X-3803Y194353D01*
X-3684Y194276D01*
X-3566Y194195D01*
X-3451Y194111D01*
X-3339Y194024D01*
X-3229Y193933D01*
X-3121Y193840D01*
X-3016Y193743D01*
X-2914Y193644D01*
X-2815Y193542D01*
X-2718Y193437D01*
X-2625Y193329D01*
X-2534Y193219D01*
X-2447Y193107D01*
X-2363Y192992D01*
X-2282Y192874D01*
X-2205Y192755D01*
X-2131Y192633D01*
X-2060Y192509D01*
X-1993Y192384D01*
X-1929Y192256D01*
X-1869Y192127D01*
X-1813Y191996D01*
X-1760Y191864D01*
X-1711Y191730D01*
X-1666Y191595D01*
X-1625Y191458D01*
X-1587Y191321D01*
X-1553Y191182D01*
X-1524Y191043D01*
X-1498Y190903D01*
X-1476Y190762D01*
X-1458Y190621D01*
X-1444Y190479D01*
X-1434Y190337D01*
X-1428Y190194D01*
X-1426Y190052D01*
X-1428Y189910D01*
X-1434Y189767D01*
X-1444Y189625D01*
X-1458Y189483D01*
X-1476Y189342D01*
X-1498Y189201D01*
X-1524Y189061D01*
X-1553Y188922D01*
X-1587Y188783D01*
X-1625Y188646D01*
X-1666Y188509D01*
X-1711Y188374D01*
X-1760Y188240D01*
X-1813Y188108D01*
X-1869Y187977D01*
X-1929Y187848D01*
X-1993Y187720D01*
X-2060Y187595D01*
X-2131Y187471D01*
X-2205Y187349D01*
X-2282Y187230D01*
X-2363Y187112D01*
X-2447Y186997D01*
X-2534Y186885D01*
X-2625Y186775D01*
X-2718Y186667D01*
X-2815Y186562D01*
X-2914Y186460D01*
X-3016Y186361D01*
X-3121Y186264D01*
X-3229Y186171D01*
X-3339Y186080D01*
X-3451Y185993D01*
X-3566Y185909D01*
X-3684Y185828D01*
X-3803Y185751D01*
X-3925Y185677D01*
X-4049Y185606D01*
X-4174Y185539D01*
X-4302Y185475D01*
X-4431Y185415D01*
X-4562Y185359D01*
X-4694Y185306D01*
X-4828Y185257D01*
X-4963Y185212D01*
X-5100Y185171D01*
X-5237Y185133D01*
X-5376Y185099D01*
X-5515Y185070D01*
X-5655Y185044D01*
X-5796Y185022D01*
X-5937Y185004D01*
X-6079Y184990D01*
X-6221Y184980D01*
X-6364Y184974D01*
X-6506Y184972D01*
X-6648Y184974D01*
X-6791Y184980D01*
X-6933Y184990D01*
X-7075Y185004D01*
X-7216Y185022D01*
X-7357Y185044D01*
X-7497Y185070D01*
X-7636Y185099D01*
X-7775Y185133D01*
X-7912Y185171D01*
X-8049Y185212D01*
X-8184Y185257D01*
X-8318Y185306D01*
X-8450Y185359D01*
X-8581Y185415D01*
X-8710Y185475D01*
X-8838Y185539D01*
X-8963Y185606D01*
X-9087Y185677D01*
X-9209Y185751D01*
X-9328Y185828D01*
X-9446Y185909D01*
X-9561Y185993D01*
X-9673Y186080D01*
X-9783Y186171D01*
X-9891Y186264D01*
X-9996Y186361D01*
X-10098Y186460D01*
X-10197Y186562D01*
X-10294Y186667D01*
X-10387Y186775D01*
X-10478Y186885D01*
X-10565Y186997D01*
X-10649Y187112D01*
X-10730Y187230D01*
X-10807Y187349D01*
X-10881Y187471D01*
X-10952Y187595D01*
X-11019Y187720D01*
X-11083Y187848D01*
X-11143Y187977D01*
X-11199Y188108D01*
X-11252Y188240D01*
X-11301Y188374D01*
X-11346Y188509D01*
X-11387Y188646D01*
X-11425Y188783D01*
X-11459Y188922D01*
X-11488Y189061D01*
X-11514Y189201D01*
X-11536Y189342D01*
X-11554Y189483D01*
X-11568Y189625D01*
X-11578Y189767D01*
X-11584Y189910D01*
X-11586Y190052D01*
D10*
X155376Y120202D02*
X155376Y108518D01*
X152130Y120202D02*
X158621Y120202D01*
X162798Y116956D02*
X162798Y111764D01*
X162798Y116956D02*
X162800Y117069D01*
X162806Y117182D01*
X162816Y117295D01*
X162830Y117408D01*
X162847Y117520D01*
X162869Y117631D01*
X162894Y117741D01*
X162924Y117851D01*
X162957Y117959D01*
X162994Y118066D01*
X163034Y118172D01*
X163079Y118276D01*
X163127Y118379D01*
X163178Y118480D01*
X163233Y118579D01*
X163291Y118676D01*
X163353Y118771D01*
X163418Y118864D01*
X163486Y118954D01*
X163557Y119042D01*
X163632Y119128D01*
X163709Y119211D01*
X163789Y119291D01*
X163872Y119368D01*
X163958Y119443D01*
X164046Y119514D01*
X164136Y119582D01*
X164229Y119647D01*
X164324Y119709D01*
X164421Y119767D01*
X164520Y119822D01*
X164621Y119873D01*
X164724Y119921D01*
X164828Y119966D01*
X164934Y120006D01*
X165041Y120043D01*
X165149Y120076D01*
X165259Y120106D01*
X165369Y120131D01*
X165480Y120153D01*
X165592Y120170D01*
X165705Y120184D01*
X165818Y120194D01*
X165931Y120200D01*
X166044Y120202D01*
X166157Y120200D01*
X166270Y120194D01*
X166383Y120184D01*
X166496Y120170D01*
X166608Y120153D01*
X166719Y120131D01*
X166829Y120106D01*
X166939Y120076D01*
X167047Y120043D01*
X167154Y120006D01*
X167260Y119966D01*
X167364Y119921D01*
X167467Y119873D01*
X167568Y119822D01*
X167667Y119767D01*
X167764Y119709D01*
X167859Y119647D01*
X167952Y119582D01*
X168042Y119514D01*
X168130Y119443D01*
X168216Y119368D01*
X168299Y119291D01*
X168379Y119211D01*
X168456Y119128D01*
X168531Y119042D01*
X168602Y118954D01*
X168670Y118864D01*
X168735Y118771D01*
X168797Y118676D01*
X168855Y118579D01*
X168910Y118480D01*
X168961Y118379D01*
X169009Y118276D01*
X169054Y118172D01*
X169094Y118066D01*
X169131Y117959D01*
X169164Y117851D01*
X169194Y117741D01*
X169219Y117631D01*
X169241Y117520D01*
X169258Y117408D01*
X169272Y117295D01*
X169282Y117182D01*
X169288Y117069D01*
X169290Y116956D01*
X169289Y116956D02*
X169289Y111764D01*
X169290Y111764D02*
X169288Y111651D01*
X169282Y111538D01*
X169272Y111425D01*
X169258Y111312D01*
X169241Y111200D01*
X169219Y111089D01*
X169194Y110979D01*
X169164Y110869D01*
X169131Y110761D01*
X169094Y110654D01*
X169054Y110548D01*
X169009Y110444D01*
X168961Y110341D01*
X168910Y110240D01*
X168855Y110141D01*
X168797Y110044D01*
X168735Y109949D01*
X168670Y109856D01*
X168602Y109766D01*
X168531Y109678D01*
X168456Y109592D01*
X168379Y109509D01*
X168299Y109429D01*
X168216Y109352D01*
X168130Y109277D01*
X168042Y109206D01*
X167952Y109138D01*
X167859Y109073D01*
X167764Y109011D01*
X167667Y108953D01*
X167568Y108898D01*
X167467Y108847D01*
X167364Y108799D01*
X167260Y108754D01*
X167154Y108714D01*
X167047Y108677D01*
X166939Y108644D01*
X166829Y108614D01*
X166719Y108589D01*
X166608Y108567D01*
X166496Y108550D01*
X166383Y108536D01*
X166270Y108526D01*
X166157Y108520D01*
X166044Y108518D01*
X165931Y108520D01*
X165818Y108526D01*
X165705Y108536D01*
X165592Y108550D01*
X165480Y108567D01*
X165369Y108589D01*
X165259Y108614D01*
X165149Y108644D01*
X165041Y108677D01*
X164934Y108714D01*
X164828Y108754D01*
X164724Y108799D01*
X164621Y108847D01*
X164520Y108898D01*
X164421Y108953D01*
X164324Y109011D01*
X164229Y109073D01*
X164136Y109138D01*
X164046Y109206D01*
X163958Y109277D01*
X163872Y109352D01*
X163789Y109429D01*
X163709Y109509D01*
X163632Y109592D01*
X163557Y109678D01*
X163486Y109766D01*
X163418Y109856D01*
X163353Y109949D01*
X163291Y110044D01*
X163233Y110141D01*
X163178Y110240D01*
X163127Y110341D01*
X163079Y110444D01*
X163034Y110548D01*
X162994Y110654D01*
X162957Y110761D01*
X162924Y110869D01*
X162894Y110979D01*
X162869Y111089D01*
X162847Y111200D01*
X162830Y111312D01*
X162816Y111425D01*
X162806Y111538D01*
X162800Y111651D01*
X162798Y111764D01*
X174779Y108518D02*
X174779Y120202D01*
X178024Y120202D01*
X178137Y120200D01*
X178250Y120194D01*
X178363Y120184D01*
X178476Y120170D01*
X178588Y120153D01*
X178699Y120131D01*
X178809Y120106D01*
X178919Y120076D01*
X179027Y120043D01*
X179134Y120006D01*
X179240Y119966D01*
X179344Y119921D01*
X179447Y119873D01*
X179548Y119822D01*
X179647Y119767D01*
X179744Y119709D01*
X179839Y119647D01*
X179932Y119582D01*
X180022Y119514D01*
X180110Y119443D01*
X180196Y119368D01*
X180279Y119291D01*
X180359Y119211D01*
X180436Y119128D01*
X180511Y119042D01*
X180582Y118954D01*
X180650Y118864D01*
X180715Y118771D01*
X180777Y118676D01*
X180835Y118579D01*
X180890Y118480D01*
X180941Y118379D01*
X180989Y118276D01*
X181034Y118172D01*
X181074Y118066D01*
X181111Y117959D01*
X181144Y117851D01*
X181174Y117741D01*
X181199Y117631D01*
X181221Y117520D01*
X181238Y117408D01*
X181252Y117295D01*
X181262Y117182D01*
X181268Y117069D01*
X181270Y116956D01*
X181268Y116843D01*
X181262Y116730D01*
X181252Y116617D01*
X181238Y116504D01*
X181221Y116392D01*
X181199Y116281D01*
X181174Y116171D01*
X181144Y116061D01*
X181111Y115953D01*
X181074Y115846D01*
X181034Y115740D01*
X180989Y115636D01*
X180941Y115533D01*
X180890Y115432D01*
X180835Y115333D01*
X180777Y115236D01*
X180715Y115141D01*
X180650Y115048D01*
X180582Y114958D01*
X180511Y114870D01*
X180436Y114784D01*
X180359Y114701D01*
X180279Y114621D01*
X180196Y114544D01*
X180110Y114469D01*
X180022Y114398D01*
X179932Y114330D01*
X179839Y114265D01*
X179744Y114203D01*
X179647Y114145D01*
X179548Y114090D01*
X179447Y114039D01*
X179344Y113991D01*
X179240Y113946D01*
X179134Y113906D01*
X179027Y113869D01*
X178919Y113836D01*
X178809Y113806D01*
X178699Y113781D01*
X178588Y113759D01*
X178476Y113742D01*
X178363Y113728D01*
X178250Y113718D01*
X178137Y113712D01*
X178024Y113710D01*
X178024Y113711D02*
X174779Y113711D01*
X155926Y254709D02*
X152681Y254709D01*
X155926Y254710D02*
X156039Y254708D01*
X156152Y254702D01*
X156265Y254692D01*
X156378Y254678D01*
X156490Y254661D01*
X156601Y254639D01*
X156711Y254614D01*
X156821Y254584D01*
X156929Y254551D01*
X157036Y254514D01*
X157142Y254474D01*
X157246Y254429D01*
X157349Y254381D01*
X157450Y254330D01*
X157549Y254275D01*
X157646Y254217D01*
X157741Y254155D01*
X157834Y254090D01*
X157924Y254022D01*
X158012Y253951D01*
X158098Y253876D01*
X158181Y253799D01*
X158261Y253719D01*
X158338Y253636D01*
X158413Y253550D01*
X158484Y253462D01*
X158552Y253372D01*
X158617Y253279D01*
X158679Y253184D01*
X158737Y253087D01*
X158792Y252988D01*
X158843Y252887D01*
X158891Y252784D01*
X158936Y252680D01*
X158976Y252574D01*
X159013Y252467D01*
X159046Y252359D01*
X159076Y252249D01*
X159101Y252139D01*
X159123Y252028D01*
X159140Y251916D01*
X159154Y251803D01*
X159164Y251690D01*
X159170Y251577D01*
X159172Y251464D01*
X159170Y251351D01*
X159164Y251238D01*
X159154Y251125D01*
X159140Y251012D01*
X159123Y250900D01*
X159101Y250789D01*
X159076Y250679D01*
X159046Y250569D01*
X159013Y250461D01*
X158976Y250354D01*
X158936Y250248D01*
X158891Y250144D01*
X158843Y250041D01*
X158792Y249940D01*
X158737Y249841D01*
X158679Y249744D01*
X158617Y249649D01*
X158552Y249556D01*
X158484Y249466D01*
X158413Y249378D01*
X158338Y249292D01*
X158261Y249209D01*
X158181Y249129D01*
X158098Y249052D01*
X158012Y248977D01*
X157924Y248906D01*
X157834Y248838D01*
X157741Y248773D01*
X157646Y248711D01*
X157549Y248653D01*
X157450Y248598D01*
X157349Y248547D01*
X157246Y248499D01*
X157142Y248454D01*
X157036Y248414D01*
X156929Y248377D01*
X156821Y248344D01*
X156711Y248314D01*
X156601Y248289D01*
X156490Y248267D01*
X156378Y248250D01*
X156265Y248236D01*
X156152Y248226D01*
X156039Y248220D01*
X155926Y248218D01*
X152681Y248218D01*
X152681Y259902D01*
X155926Y259902D01*
X156027Y259900D01*
X156127Y259894D01*
X156227Y259884D01*
X156327Y259871D01*
X156426Y259853D01*
X156525Y259832D01*
X156622Y259807D01*
X156719Y259778D01*
X156814Y259745D01*
X156908Y259709D01*
X157000Y259669D01*
X157091Y259626D01*
X157180Y259579D01*
X157267Y259529D01*
X157353Y259475D01*
X157436Y259418D01*
X157516Y259358D01*
X157595Y259295D01*
X157671Y259228D01*
X157744Y259159D01*
X157814Y259087D01*
X157882Y259013D01*
X157947Y258936D01*
X158008Y258856D01*
X158067Y258774D01*
X158122Y258690D01*
X158174Y258604D01*
X158223Y258516D01*
X158268Y258426D01*
X158310Y258334D01*
X158348Y258241D01*
X158382Y258146D01*
X158413Y258051D01*
X158440Y257954D01*
X158463Y257856D01*
X158483Y257757D01*
X158498Y257657D01*
X158510Y257557D01*
X158518Y257457D01*
X158522Y257356D01*
X158522Y257256D01*
X158518Y257155D01*
X158510Y257055D01*
X158498Y256955D01*
X158483Y256855D01*
X158463Y256756D01*
X158440Y256658D01*
X158413Y256561D01*
X158382Y256466D01*
X158348Y256371D01*
X158310Y256278D01*
X158268Y256186D01*
X158223Y256096D01*
X158174Y256008D01*
X158122Y255922D01*
X158067Y255838D01*
X158008Y255756D01*
X157947Y255676D01*
X157882Y255599D01*
X157814Y255525D01*
X157744Y255453D01*
X157671Y255384D01*
X157595Y255317D01*
X157516Y255254D01*
X157436Y255194D01*
X157353Y255137D01*
X157267Y255083D01*
X157180Y255033D01*
X157091Y254986D01*
X157000Y254943D01*
X156908Y254903D01*
X156814Y254867D01*
X156719Y254834D01*
X156622Y254805D01*
X156525Y254780D01*
X156426Y254759D01*
X156327Y254741D01*
X156227Y254728D01*
X156127Y254718D01*
X156027Y254712D01*
X155926Y254710D01*
X163560Y256656D02*
X163560Y251464D01*
X163560Y256656D02*
X163562Y256769D01*
X163568Y256882D01*
X163578Y256995D01*
X163592Y257108D01*
X163609Y257220D01*
X163631Y257331D01*
X163656Y257441D01*
X163686Y257551D01*
X163719Y257659D01*
X163756Y257766D01*
X163796Y257872D01*
X163841Y257976D01*
X163889Y258079D01*
X163940Y258180D01*
X163995Y258279D01*
X164053Y258376D01*
X164115Y258471D01*
X164180Y258564D01*
X164248Y258654D01*
X164319Y258742D01*
X164394Y258828D01*
X164471Y258911D01*
X164551Y258991D01*
X164634Y259068D01*
X164720Y259143D01*
X164808Y259214D01*
X164898Y259282D01*
X164991Y259347D01*
X165086Y259409D01*
X165183Y259467D01*
X165282Y259522D01*
X165383Y259573D01*
X165486Y259621D01*
X165590Y259666D01*
X165696Y259706D01*
X165803Y259743D01*
X165911Y259776D01*
X166021Y259806D01*
X166131Y259831D01*
X166242Y259853D01*
X166354Y259870D01*
X166467Y259884D01*
X166580Y259894D01*
X166693Y259900D01*
X166806Y259902D01*
X166919Y259900D01*
X167032Y259894D01*
X167145Y259884D01*
X167258Y259870D01*
X167370Y259853D01*
X167481Y259831D01*
X167591Y259806D01*
X167701Y259776D01*
X167809Y259743D01*
X167916Y259706D01*
X168022Y259666D01*
X168126Y259621D01*
X168229Y259573D01*
X168330Y259522D01*
X168429Y259467D01*
X168526Y259409D01*
X168621Y259347D01*
X168714Y259282D01*
X168804Y259214D01*
X168892Y259143D01*
X168978Y259068D01*
X169061Y258991D01*
X169141Y258911D01*
X169218Y258828D01*
X169293Y258742D01*
X169364Y258654D01*
X169432Y258564D01*
X169497Y258471D01*
X169559Y258376D01*
X169617Y258279D01*
X169672Y258180D01*
X169723Y258079D01*
X169771Y257976D01*
X169816Y257872D01*
X169856Y257766D01*
X169893Y257659D01*
X169926Y257551D01*
X169956Y257441D01*
X169981Y257331D01*
X170003Y257220D01*
X170020Y257108D01*
X170034Y256995D01*
X170044Y256882D01*
X170050Y256769D01*
X170052Y256656D01*
X170051Y256656D02*
X170051Y251464D01*
X170052Y251464D02*
X170050Y251351D01*
X170044Y251238D01*
X170034Y251125D01*
X170020Y251012D01*
X170003Y250900D01*
X169981Y250789D01*
X169956Y250679D01*
X169926Y250569D01*
X169893Y250461D01*
X169856Y250354D01*
X169816Y250248D01*
X169771Y250144D01*
X169723Y250041D01*
X169672Y249940D01*
X169617Y249841D01*
X169559Y249744D01*
X169497Y249649D01*
X169432Y249556D01*
X169364Y249466D01*
X169293Y249378D01*
X169218Y249292D01*
X169141Y249209D01*
X169061Y249129D01*
X168978Y249052D01*
X168892Y248977D01*
X168804Y248906D01*
X168714Y248838D01*
X168621Y248773D01*
X168526Y248711D01*
X168429Y248653D01*
X168330Y248598D01*
X168229Y248547D01*
X168126Y248499D01*
X168022Y248454D01*
X167916Y248414D01*
X167809Y248377D01*
X167701Y248344D01*
X167591Y248314D01*
X167481Y248289D01*
X167370Y248267D01*
X167258Y248250D01*
X167145Y248236D01*
X167032Y248226D01*
X166919Y248220D01*
X166806Y248218D01*
X166693Y248220D01*
X166580Y248226D01*
X166467Y248236D01*
X166354Y248250D01*
X166242Y248267D01*
X166131Y248289D01*
X166021Y248314D01*
X165911Y248344D01*
X165803Y248377D01*
X165696Y248414D01*
X165590Y248454D01*
X165486Y248499D01*
X165383Y248547D01*
X165282Y248598D01*
X165183Y248653D01*
X165086Y248711D01*
X164991Y248773D01*
X164898Y248838D01*
X164808Y248906D01*
X164720Y248977D01*
X164634Y249052D01*
X164551Y249129D01*
X164471Y249209D01*
X164394Y249292D01*
X164319Y249378D01*
X164248Y249466D01*
X164180Y249556D01*
X164115Y249649D01*
X164053Y249744D01*
X163995Y249841D01*
X163940Y249940D01*
X163889Y250041D01*
X163841Y250144D01*
X163796Y250248D01*
X163756Y250354D01*
X163719Y250461D01*
X163686Y250569D01*
X163656Y250679D01*
X163631Y250789D01*
X163609Y250900D01*
X163592Y251012D01*
X163578Y251125D01*
X163568Y251238D01*
X163562Y251351D01*
X163560Y251464D01*
X177474Y248218D02*
X177474Y259902D01*
X180719Y259902D02*
X174228Y259902D01*
D12*
X34994Y91952D02*
X337794Y91952D01*
X337794Y277552D01*
X34994Y277552D02*
X34994Y91952D01*
D23*
X429552Y47812D02*
X429552Y25968D01*
X427125Y25968D02*
X431979Y25968D01*
X431979Y47812D02*
X427125Y47812D01*
X444997Y25968D02*
X449851Y25968D01*
X444997Y25968D02*
X444858Y25970D01*
X444720Y25976D01*
X444582Y25986D01*
X444444Y26000D01*
X444306Y26017D01*
X444169Y26039D01*
X444033Y26065D01*
X443898Y26094D01*
X443763Y26127D01*
X443629Y26165D01*
X443497Y26206D01*
X443366Y26250D01*
X443236Y26299D01*
X443107Y26351D01*
X442981Y26407D01*
X442855Y26466D01*
X442732Y26529D01*
X442610Y26595D01*
X442490Y26665D01*
X442373Y26739D01*
X442257Y26815D01*
X442144Y26895D01*
X442033Y26978D01*
X441924Y27064D01*
X441818Y27154D01*
X441715Y27246D01*
X441614Y27341D01*
X441516Y27439D01*
X441421Y27540D01*
X441329Y27643D01*
X441239Y27749D01*
X441153Y27858D01*
X441070Y27969D01*
X440990Y28082D01*
X440914Y28198D01*
X440840Y28315D01*
X440770Y28435D01*
X440704Y28557D01*
X440641Y28680D01*
X440582Y28806D01*
X440526Y28932D01*
X440474Y29061D01*
X440425Y29191D01*
X440381Y29322D01*
X440340Y29454D01*
X440302Y29588D01*
X440269Y29723D01*
X440240Y29858D01*
X440214Y29994D01*
X440192Y30131D01*
X440175Y30269D01*
X440161Y30407D01*
X440151Y30545D01*
X440145Y30683D01*
X440143Y30822D01*
X440142Y30822D02*
X440142Y42958D01*
X440143Y42958D02*
X440145Y43097D01*
X440151Y43235D01*
X440161Y43373D01*
X440175Y43511D01*
X440192Y43649D01*
X440214Y43786D01*
X440240Y43922D01*
X440269Y44057D01*
X440302Y44192D01*
X440340Y44326D01*
X440381Y44458D01*
X440425Y44589D01*
X440474Y44719D01*
X440526Y44848D01*
X440582Y44974D01*
X440641Y45100D01*
X440704Y45223D01*
X440770Y45345D01*
X440840Y45465D01*
X440914Y45582D01*
X440990Y45698D01*
X441070Y45811D01*
X441153Y45922D01*
X441239Y46031D01*
X441329Y46137D01*
X441421Y46240D01*
X441516Y46341D01*
X441614Y46439D01*
X441715Y46534D01*
X441818Y46626D01*
X441924Y46716D01*
X442033Y46802D01*
X442144Y46885D01*
X442257Y46965D01*
X442373Y47041D01*
X442490Y47115D01*
X442610Y47185D01*
X442732Y47251D01*
X442855Y47314D01*
X442981Y47373D01*
X443107Y47429D01*
X443236Y47481D01*
X443366Y47530D01*
X443497Y47574D01*
X443629Y47615D01*
X443763Y47653D01*
X443898Y47686D01*
X444033Y47715D01*
X444169Y47741D01*
X444306Y47763D01*
X444444Y47780D01*
X444582Y47794D01*
X444720Y47804D01*
X444858Y47810D01*
X444997Y47812D01*
X449851Y47812D01*
X457586Y42958D02*
X463654Y47812D01*
X463654Y25968D01*
X457586Y25968D02*
X469722Y25968D01*
D10*
X376136Y250783D02*
X367048Y250783D01*
X376136Y250782D02*
X376235Y250780D01*
X376335Y250774D01*
X376434Y250765D01*
X376532Y250752D01*
X376630Y250735D01*
X376728Y250714D01*
X376824Y250689D01*
X376919Y250661D01*
X377013Y250629D01*
X377106Y250594D01*
X377198Y250555D01*
X377288Y250512D01*
X377376Y250467D01*
X377463Y250417D01*
X377547Y250365D01*
X377630Y250309D01*
X377710Y250251D01*
X377788Y250189D01*
X377863Y250124D01*
X377936Y250056D01*
X378006Y249986D01*
X378074Y249913D01*
X378139Y249838D01*
X378201Y249760D01*
X378259Y249680D01*
X378315Y249597D01*
X378367Y249513D01*
X378417Y249426D01*
X378462Y249338D01*
X378505Y249248D01*
X378544Y249156D01*
X378579Y249063D01*
X378611Y248969D01*
X378639Y248874D01*
X378664Y248778D01*
X378685Y248680D01*
X378702Y248582D01*
X378715Y248484D01*
X378724Y248385D01*
X378730Y248285D01*
X378732Y248186D01*
X378732Y246888D01*
X378732Y256550D02*
X367048Y256550D01*
X373539Y260445D01*
X367048Y264339D01*
X378732Y264339D01*
X378732Y270322D02*
X367048Y270322D01*
X367048Y273568D01*
X367050Y273681D01*
X367056Y273794D01*
X367066Y273907D01*
X367080Y274020D01*
X367097Y274132D01*
X367119Y274243D01*
X367144Y274353D01*
X367174Y274463D01*
X367207Y274571D01*
X367244Y274678D01*
X367284Y274784D01*
X367329Y274888D01*
X367377Y274991D01*
X367428Y275092D01*
X367483Y275191D01*
X367541Y275288D01*
X367603Y275383D01*
X367668Y275476D01*
X367736Y275566D01*
X367807Y275654D01*
X367882Y275740D01*
X367959Y275823D01*
X368039Y275903D01*
X368122Y275980D01*
X368208Y276055D01*
X368296Y276126D01*
X368386Y276194D01*
X368479Y276259D01*
X368574Y276321D01*
X368671Y276379D01*
X368770Y276434D01*
X368871Y276485D01*
X368974Y276533D01*
X369078Y276578D01*
X369184Y276618D01*
X369291Y276655D01*
X369399Y276688D01*
X369509Y276718D01*
X369619Y276743D01*
X369730Y276765D01*
X369842Y276782D01*
X369955Y276796D01*
X370068Y276806D01*
X370181Y276812D01*
X370294Y276814D01*
X370407Y276812D01*
X370520Y276806D01*
X370633Y276796D01*
X370746Y276782D01*
X370858Y276765D01*
X370969Y276743D01*
X371079Y276718D01*
X371189Y276688D01*
X371297Y276655D01*
X371404Y276618D01*
X371510Y276578D01*
X371614Y276533D01*
X371717Y276485D01*
X371818Y276434D01*
X371917Y276379D01*
X372014Y276321D01*
X372109Y276259D01*
X372202Y276194D01*
X372292Y276126D01*
X372380Y276055D01*
X372466Y275980D01*
X372549Y275903D01*
X372629Y275823D01*
X372706Y275740D01*
X372781Y275654D01*
X372852Y275566D01*
X372920Y275476D01*
X372985Y275383D01*
X373047Y275288D01*
X373105Y275191D01*
X373160Y275092D01*
X373211Y274991D01*
X373259Y274888D01*
X373304Y274784D01*
X373344Y274678D01*
X373381Y274571D01*
X373414Y274463D01*
X373444Y274353D01*
X373469Y274243D01*
X373491Y274132D01*
X373508Y274020D01*
X373522Y273907D01*
X373532Y273794D01*
X373538Y273681D01*
X373540Y273568D01*
X373539Y273568D02*
X373539Y270322D01*
X369644Y281202D02*
X367048Y284448D01*
X378732Y284448D01*
X378732Y287693D02*
X378732Y281202D01*
D11*
X87790Y268930D02*
X87690Y268928D01*
X87591Y268922D01*
X87491Y268912D01*
X87393Y268899D01*
X87294Y268881D01*
X87197Y268860D01*
X87101Y268835D01*
X87005Y268806D01*
X86911Y268773D01*
X86818Y268737D01*
X86727Y268697D01*
X86637Y268653D01*
X86549Y268606D01*
X86463Y268556D01*
X86379Y268502D01*
X86297Y268445D01*
X86218Y268385D01*
X86140Y268321D01*
X86066Y268255D01*
X85994Y268186D01*
X85925Y268114D01*
X85859Y268040D01*
X85795Y267962D01*
X85735Y267883D01*
X85678Y267801D01*
X85624Y267717D01*
X85574Y267631D01*
X85527Y267543D01*
X85483Y267453D01*
X85443Y267362D01*
X85407Y267269D01*
X85374Y267175D01*
X85345Y267079D01*
X85320Y266983D01*
X85299Y266886D01*
X85281Y266787D01*
X85268Y266689D01*
X85258Y266589D01*
X85252Y266490D01*
X85250Y266390D01*
X85250Y248610D02*
X85252Y248510D01*
X85258Y248411D01*
X85268Y248311D01*
X85281Y248213D01*
X85299Y248114D01*
X85320Y248017D01*
X85345Y247921D01*
X85374Y247825D01*
X85407Y247731D01*
X85443Y247638D01*
X85483Y247547D01*
X85527Y247457D01*
X85574Y247369D01*
X85624Y247283D01*
X85678Y247199D01*
X85735Y247117D01*
X85795Y247038D01*
X85859Y246960D01*
X85925Y246886D01*
X85994Y246814D01*
X86066Y246745D01*
X86140Y246679D01*
X86218Y246615D01*
X86297Y246555D01*
X86379Y246498D01*
X86463Y246444D01*
X86549Y246394D01*
X86637Y246347D01*
X86727Y246303D01*
X86818Y246263D01*
X86911Y246227D01*
X87005Y246194D01*
X87101Y246165D01*
X87197Y246140D01*
X87294Y246119D01*
X87393Y246101D01*
X87491Y246088D01*
X87591Y246078D01*
X87690Y246072D01*
X87790Y246070D01*
X146210Y246070D02*
X146310Y246072D01*
X146409Y246078D01*
X146509Y246088D01*
X146607Y246101D01*
X146706Y246119D01*
X146803Y246140D01*
X146899Y246165D01*
X146995Y246194D01*
X147089Y246227D01*
X147182Y246263D01*
X147273Y246303D01*
X147363Y246347D01*
X147451Y246394D01*
X147537Y246444D01*
X147621Y246498D01*
X147703Y246555D01*
X147782Y246615D01*
X147860Y246679D01*
X147934Y246745D01*
X148006Y246814D01*
X148075Y246886D01*
X148141Y246960D01*
X148205Y247038D01*
X148265Y247117D01*
X148322Y247199D01*
X148376Y247283D01*
X148426Y247369D01*
X148473Y247457D01*
X148517Y247547D01*
X148557Y247638D01*
X148593Y247731D01*
X148626Y247825D01*
X148655Y247921D01*
X148680Y248017D01*
X148701Y248114D01*
X148719Y248213D01*
X148732Y248311D01*
X148742Y248411D01*
X148748Y248510D01*
X148750Y248610D01*
X148750Y266390D02*
X148748Y266490D01*
X148742Y266589D01*
X148732Y266689D01*
X148719Y266787D01*
X148701Y266886D01*
X148680Y266983D01*
X148655Y267079D01*
X148626Y267175D01*
X148593Y267269D01*
X148557Y267362D01*
X148517Y267453D01*
X148473Y267543D01*
X148426Y267631D01*
X148376Y267717D01*
X148322Y267801D01*
X148265Y267883D01*
X148205Y267962D01*
X148141Y268040D01*
X148075Y268114D01*
X148006Y268186D01*
X147934Y268255D01*
X147860Y268321D01*
X147782Y268385D01*
X147703Y268445D01*
X147621Y268502D01*
X147537Y268556D01*
X147451Y268606D01*
X147363Y268653D01*
X147273Y268697D01*
X147182Y268737D01*
X147089Y268773D01*
X146995Y268806D01*
X146899Y268835D01*
X146803Y268860D01*
X146706Y268881D01*
X146607Y268899D01*
X146509Y268912D01*
X146409Y268922D01*
X146310Y268928D01*
X146210Y268930D01*
X85250Y266390D02*
X85250Y248610D01*
X87790Y268930D02*
X91600Y268930D01*
X92870Y267660D01*
X91600Y246070D02*
X87790Y246070D01*
X91600Y246070D02*
X92870Y247340D01*
X141130Y267660D02*
X142400Y268930D01*
X141130Y267660D02*
X92870Y267660D01*
X141130Y247340D02*
X142400Y246070D01*
X141130Y247340D02*
X92870Y247340D01*
X142400Y268930D02*
X146210Y268930D01*
X146210Y246070D02*
X142400Y246070D01*
X148750Y248610D02*
X148750Y266390D01*
D19*
X153068Y257500D03*
X80932Y257500D03*
D12*
X85155Y240305D02*
X85155Y228875D01*
X85155Y240305D02*
X88330Y240305D01*
X88441Y240303D01*
X88551Y240297D01*
X88662Y240288D01*
X88772Y240274D01*
X88881Y240257D01*
X88990Y240236D01*
X89098Y240211D01*
X89205Y240182D01*
X89311Y240150D01*
X89416Y240114D01*
X89519Y240074D01*
X89621Y240031D01*
X89722Y239984D01*
X89821Y239933D01*
X89918Y239880D01*
X90012Y239823D01*
X90105Y239762D01*
X90196Y239699D01*
X90285Y239632D01*
X90371Y239562D01*
X90454Y239489D01*
X90536Y239414D01*
X90614Y239336D01*
X90689Y239254D01*
X90762Y239171D01*
X90832Y239085D01*
X90899Y238996D01*
X90962Y238905D01*
X91023Y238812D01*
X91080Y238717D01*
X91133Y238621D01*
X91184Y238522D01*
X91231Y238421D01*
X91274Y238319D01*
X91314Y238216D01*
X91350Y238111D01*
X91382Y238005D01*
X91411Y237898D01*
X91436Y237790D01*
X91457Y237681D01*
X91474Y237572D01*
X91488Y237462D01*
X91497Y237351D01*
X91503Y237241D01*
X91505Y237130D01*
X91503Y237019D01*
X91497Y236909D01*
X91488Y236798D01*
X91474Y236688D01*
X91457Y236579D01*
X91436Y236470D01*
X91411Y236362D01*
X91382Y236255D01*
X91350Y236149D01*
X91314Y236044D01*
X91274Y235941D01*
X91231Y235839D01*
X91184Y235738D01*
X91133Y235639D01*
X91080Y235542D01*
X91023Y235448D01*
X90962Y235355D01*
X90899Y235264D01*
X90832Y235175D01*
X90762Y235089D01*
X90689Y235006D01*
X90614Y234924D01*
X90536Y234846D01*
X90454Y234771D01*
X90371Y234698D01*
X90285Y234628D01*
X90196Y234561D01*
X90105Y234498D01*
X90012Y234437D01*
X89917Y234380D01*
X89821Y234327D01*
X89722Y234276D01*
X89621Y234229D01*
X89519Y234186D01*
X89416Y234146D01*
X89311Y234110D01*
X89205Y234078D01*
X89098Y234049D01*
X88990Y234024D01*
X88881Y234003D01*
X88772Y233986D01*
X88662Y233972D01*
X88551Y233963D01*
X88441Y233957D01*
X88330Y233955D01*
X85155Y233955D01*
X88965Y233955D02*
X91505Y228875D01*
X96502Y235225D02*
X100312Y235225D01*
X100412Y235223D01*
X100511Y235217D01*
X100611Y235207D01*
X100709Y235194D01*
X100808Y235176D01*
X100905Y235155D01*
X101001Y235130D01*
X101097Y235101D01*
X101191Y235068D01*
X101284Y235032D01*
X101375Y234992D01*
X101465Y234948D01*
X101553Y234901D01*
X101639Y234851D01*
X101723Y234797D01*
X101805Y234740D01*
X101884Y234680D01*
X101962Y234616D01*
X102036Y234550D01*
X102108Y234481D01*
X102177Y234409D01*
X102243Y234335D01*
X102307Y234257D01*
X102367Y234178D01*
X102424Y234096D01*
X102478Y234012D01*
X102528Y233926D01*
X102575Y233838D01*
X102619Y233748D01*
X102659Y233657D01*
X102695Y233564D01*
X102728Y233470D01*
X102757Y233374D01*
X102782Y233278D01*
X102803Y233181D01*
X102821Y233082D01*
X102834Y232984D01*
X102844Y232884D01*
X102850Y232785D01*
X102852Y232685D01*
X102852Y232050D01*
X102850Y231939D01*
X102844Y231829D01*
X102835Y231718D01*
X102821Y231608D01*
X102804Y231499D01*
X102783Y231390D01*
X102758Y231282D01*
X102729Y231175D01*
X102697Y231069D01*
X102661Y230964D01*
X102621Y230861D01*
X102578Y230759D01*
X102531Y230658D01*
X102480Y230559D01*
X102427Y230462D01*
X102370Y230368D01*
X102309Y230275D01*
X102246Y230184D01*
X102179Y230095D01*
X102109Y230009D01*
X102036Y229926D01*
X101961Y229844D01*
X101883Y229766D01*
X101801Y229691D01*
X101718Y229618D01*
X101632Y229548D01*
X101543Y229481D01*
X101452Y229418D01*
X101359Y229357D01*
X101264Y229300D01*
X101168Y229247D01*
X101069Y229196D01*
X100968Y229149D01*
X100866Y229106D01*
X100763Y229066D01*
X100658Y229030D01*
X100552Y228998D01*
X100445Y228969D01*
X100337Y228944D01*
X100228Y228923D01*
X100119Y228906D01*
X100009Y228892D01*
X99898Y228883D01*
X99788Y228877D01*
X99677Y228875D01*
X99566Y228877D01*
X99456Y228883D01*
X99345Y228892D01*
X99235Y228906D01*
X99126Y228923D01*
X99017Y228944D01*
X98909Y228969D01*
X98802Y228998D01*
X98696Y229030D01*
X98591Y229066D01*
X98488Y229106D01*
X98386Y229149D01*
X98285Y229196D01*
X98186Y229247D01*
X98090Y229300D01*
X97995Y229357D01*
X97902Y229418D01*
X97811Y229481D01*
X97722Y229548D01*
X97636Y229618D01*
X97553Y229691D01*
X97471Y229766D01*
X97393Y229844D01*
X97318Y229926D01*
X97245Y230009D01*
X97175Y230095D01*
X97108Y230184D01*
X97045Y230275D01*
X96984Y230368D01*
X96927Y230463D01*
X96874Y230559D01*
X96823Y230658D01*
X96776Y230759D01*
X96733Y230861D01*
X96693Y230964D01*
X96657Y231069D01*
X96625Y231175D01*
X96596Y231282D01*
X96571Y231390D01*
X96550Y231499D01*
X96533Y231608D01*
X96519Y231718D01*
X96510Y231829D01*
X96504Y231939D01*
X96502Y232050D01*
X96502Y235225D01*
X96504Y235365D01*
X96510Y235505D01*
X96519Y235645D01*
X96533Y235784D01*
X96550Y235923D01*
X96571Y236061D01*
X96596Y236199D01*
X96625Y236336D01*
X96657Y236472D01*
X96694Y236607D01*
X96734Y236741D01*
X96777Y236874D01*
X96825Y237006D01*
X96875Y237137D01*
X96930Y237266D01*
X96988Y237393D01*
X97049Y237519D01*
X97114Y237643D01*
X97183Y237765D01*
X97254Y237885D01*
X97329Y238003D01*
X97407Y238120D01*
X97489Y238234D01*
X97573Y238345D01*
X97661Y238454D01*
X97751Y238561D01*
X97845Y238666D01*
X97941Y238767D01*
X98040Y238866D01*
X98141Y238962D01*
X98246Y239056D01*
X98353Y239146D01*
X98462Y239234D01*
X98573Y239318D01*
X98687Y239400D01*
X98804Y239478D01*
X98922Y239553D01*
X99042Y239624D01*
X99164Y239693D01*
X99288Y239758D01*
X99414Y239819D01*
X99541Y239877D01*
X99670Y239932D01*
X99801Y239982D01*
X99933Y240030D01*
X100066Y240073D01*
X100200Y240113D01*
X100335Y240150D01*
X100471Y240182D01*
X100608Y240211D01*
X100746Y240236D01*
X100884Y240257D01*
X101023Y240274D01*
X101162Y240288D01*
X101302Y240297D01*
X101442Y240303D01*
X101582Y240305D01*
M02*
