G04 EAGLE Gerber RS-274X export*
G75*
%MOMM*%
%FSLAX34Y34*%
%LPD*%
%INSoldermask Top*%
%IPPOS*%
%AMOC8*
5,1,8,0,0,1.08239X$1,22.5*%
G01*
%ADD10C,2.703200*%
%ADD11P,1.649562X8X112.500000*%
%ADD12C,1.524000*%
%ADD13P,1.869504X8X202.500000*%
%ADD14P,1.649562X8X292.500000*%
%ADD15C,1.879600*%
%ADD16R,2.438200X1.422200*%
%ADD17R,2.403200X3.803200*%
%ADD18P,1.649562X8X22.500000*%
%ADD19P,1.649562X8X202.500000*%
%ADD20R,1.711200X1.711200*%
%ADD21C,1.411200*%
%ADD22R,2.603200X2.603200*%
%ADD23P,1.743947X8X247.500000*%
%ADD24C,1.727200*%
%ADD25R,1.703200X1.703200*%
%ADD26C,1.703200*%
%ADD27R,1.503200X1.703200*%
%ADD28C,0.959600*%


D10*
X39730Y179620D03*
X509630Y306620D03*
X509630Y52620D03*
D11*
X406400Y134620D03*
D12*
X406400Y114300D03*
D13*
X786130Y279400D03*
X636270Y279400D03*
D14*
X673100Y228600D03*
X673100Y177800D03*
D15*
X762000Y152400D03*
X762000Y50800D03*
X723900Y50800D03*
X723900Y152400D03*
X800100Y152400D03*
X800100Y50800D03*
D16*
X731010Y226310D03*
X731010Y203200D03*
X731010Y180090D03*
D17*
X792990Y203200D03*
D14*
X939800Y304800D03*
X939800Y203200D03*
D11*
X977900Y203200D03*
X977900Y304800D03*
D18*
X876300Y177800D03*
X977900Y177800D03*
D19*
X609600Y50800D03*
X558800Y50800D03*
D20*
X508000Y138430D03*
X508000Y214630D03*
D21*
X289800Y195900D03*
X274800Y195900D03*
X259800Y195900D03*
X244800Y195900D03*
D22*
X971550Y57150D03*
D20*
X533400Y127800D03*
X533400Y227800D03*
D15*
X838200Y76200D03*
X838200Y177800D03*
D12*
X685800Y152400D03*
X685800Y50800D03*
D19*
X419600Y198700D03*
X318000Y198700D03*
D11*
X647700Y50800D03*
X647700Y152400D03*
D23*
X880291Y284661D03*
X844369Y248739D03*
D24*
X604520Y241300D02*
X589280Y241300D01*
X589280Y215900D02*
X604520Y215900D01*
X604520Y190500D02*
X589280Y190500D01*
X589280Y165100D02*
X604520Y165100D01*
X604520Y139700D02*
X589280Y139700D01*
D22*
X896000Y120650D03*
X972200Y120650D03*
D25*
X457200Y304800D03*
D26*
X431800Y304800D03*
X406400Y304800D03*
X381000Y304800D03*
X355600Y304800D03*
X330200Y304800D03*
X304800Y304800D03*
X279400Y304800D03*
X254000Y304800D03*
X228600Y304800D03*
X203200Y304800D03*
X177800Y304800D03*
X152400Y304800D03*
X127000Y304800D03*
X101600Y304800D03*
X76200Y304800D03*
X50800Y304800D03*
X25400Y304800D03*
D25*
X457200Y76200D03*
D26*
X431800Y76200D03*
X406400Y76200D03*
X381000Y76200D03*
X355600Y76200D03*
X330200Y76200D03*
X304800Y76200D03*
X279400Y76200D03*
X254000Y76200D03*
X228600Y76200D03*
X203200Y76200D03*
X177800Y76200D03*
X152400Y76200D03*
X127000Y76200D03*
X101600Y76200D03*
X76200Y76200D03*
X50800Y76200D03*
X25400Y76200D03*
D27*
X389400Y266700D03*
X406400Y266700D03*
X423400Y266700D03*
D18*
X66200Y257500D03*
X167800Y257500D03*
D28*
X345500Y243500D03*
X495000Y85000D03*
X223227Y182227D03*
X184292Y200088D03*
X711200Y177800D03*
X43000Y280000D03*
X43500Y260000D03*
X43500Y240000D03*
X43500Y220000D03*
X64000Y220000D03*
X84500Y220000D03*
X104500Y220000D03*
X125000Y220000D03*
X145000Y220000D03*
X184500Y218000D03*
X205500Y217500D03*
X237500Y221500D03*
X205000Y245000D03*
X236500Y249000D03*
X165500Y197000D03*
X155000Y186000D03*
X143500Y175000D03*
X125500Y170500D03*
X105000Y169500D03*
X90500Y163000D03*
X79000Y152000D03*
X68000Y140500D03*
X64000Y123500D03*
X64000Y102500D03*
X37500Y101500D03*
X37500Y120500D03*
X37500Y140000D03*
X27000Y49000D03*
X49500Y49000D03*
X74000Y49000D03*
X121500Y53500D03*
X152500Y53000D03*
X179500Y53000D03*
X204500Y52500D03*
X160000Y97500D03*
X184500Y97500D03*
X207000Y97500D03*
X228500Y97500D03*
X257500Y96500D03*
X279500Y96500D03*
X304500Y98000D03*
X328000Y98000D03*
X349500Y107500D03*
X364000Y122000D03*
X376500Y134500D03*
X389000Y147500D03*
X418000Y152500D03*
X438000Y152500D03*
X457500Y152000D03*
X478000Y152000D03*
X515000Y177500D03*
X494000Y177500D03*
X475000Y177500D03*
X455500Y177500D03*
X436000Y177500D03*
X413000Y178000D03*
X393500Y178500D03*
X376500Y171500D03*
X362500Y155500D03*
X350000Y143000D03*
X336500Y129000D03*
X315500Y125500D03*
X292500Y125500D03*
X270500Y125500D03*
X255000Y126000D03*
X228000Y126500D03*
X206500Y126500D03*
X187000Y126000D03*
X167000Y126000D03*
X143500Y125000D03*
X124500Y120500D03*
X110500Y110000D03*
X92500Y102500D03*
X195000Y176500D03*
X263000Y166500D03*
X298000Y170500D03*
X285500Y228500D03*
X338000Y217500D03*
X361000Y226000D03*
X276000Y260500D03*
X439000Y242500D03*
X467500Y246000D03*
X496000Y246000D03*
X479500Y294500D03*
X342500Y290500D03*
X240500Y290500D03*
X139000Y320000D03*
X87500Y286000D03*
X317000Y267000D03*
X557100Y131600D03*
X863600Y317500D03*
X436028Y271624D03*
X436028Y287707D03*
M02*
