M48
; DRILL file {KiCad 9.0.0} date 2026-06-09T10:53:48+0500
; FORMAT={-:-/ absolute / metric / decimal}
; #@! TF.CreationDate,2026-06-09T10:53:48+05:00
; #@! TF.GenerationSoftware,Kicad,Pcbnew,9.0.0
; #@! TF.FileFunction,Plated,1,2,PTH
FMAT,2
METRIC
; #@! TA.AperFunction,Plated,PTH,ViaDrill
T1C0.300
; #@! TA.AperFunction,Plated,PTH,ComponentDrill
T2C0.813
; #@! TA.AperFunction,Plated,PTH,ComponentDrill
T3C0.900
; #@! TA.AperFunction,Plated,PTH,ComponentDrill
T4C1.000
; #@! TA.AperFunction,Plated,PTH,ComponentDrill
T5C1.016
; #@! TA.AperFunction,Plated,PTH,ComponentDrill
T6C1.040
; #@! TA.AperFunction,Plated,PTH,ComponentDrill
T7C1.118
; #@! TA.AperFunction,Plated,PTH,ComponentDrill
T8C1.600
%
G90
G05
T1
X130.416Y-124.148
X152.716Y-136.248
X169.916Y-130.148
T2
X124.316Y-137.248
X124.316Y-139.848
X134.476Y-137.248
X134.476Y-139.848
X146.916Y-141.132
X146.916Y-143.164
X180.716Y-123.348
X180.716Y-133.508
X186.176Y-132.948
X188.716Y-143.848
X188.716Y-148.928
X191.256Y-132.948
X193.116Y-139.168
X193.116Y-149.328
X212.636Y-137.248
X217.916Y-123.368
X217.916Y-133.528
X221.216Y-123.388
X221.216Y-133.548
X222.796Y-137.248
T3
X207.436Y-128.648
X212.516Y-128.648
T4
X166.716Y-133.648
X166.716Y-141.268
X218.816Y-149.648
T5
X176.916Y-135.708
X176.916Y-138.248
X176.916Y-140.788
X176.916Y-143.328
X176.916Y-145.868
X186.623Y-126.548
X201.609Y-126.548
T6
X113.696Y-127.888
X113.696Y-148.208
X116.236Y-127.888
X116.236Y-148.208
X118.776Y-127.888
X118.776Y-148.208
X121.316Y-127.888
X121.316Y-148.208
X123.856Y-127.888
X123.856Y-148.208
X126.396Y-127.888
X126.396Y-148.208
X128.936Y-127.888
X128.936Y-148.208
X131.476Y-127.888
X131.476Y-148.208
X134.016Y-127.888
X134.016Y-148.208
X136.556Y-127.888
X136.556Y-148.208
X139.096Y-127.888
X139.096Y-148.208
X141.636Y-127.888
X141.636Y-148.208
X144.176Y-127.888
X146.716Y-127.888
X149.256Y-127.888
X151.796Y-127.888
T7
X196.716Y-139.068
X196.716Y-149.228
X200.116Y-139.168
X200.116Y-149.328
X203.116Y-139.068
X203.116Y-149.228
X206.516Y-139.068
X206.516Y-149.228
X210.116Y-139.068
X210.116Y-149.228
T8
X214.506Y-142.248
X222.126Y-142.248
M30
