%TF.GenerationSoftware,KiCad,Pcbnew,9.0.0*%
%TF.CreationDate,2026-06-09T10:53:49+05:00*%
%TF.ProjectId,geiger,67656967-6572-42e6-9b69-6361645f7063,rev?*%
%TF.SameCoordinates,Original*%
%TF.FileFunction,Copper,L2,Bot*%
%TF.FilePolarity,Positive*%
%FSLAX46Y46*%
G04 Gerber Fmt 4.6, Leading zero omitted, Abs format (unit mm)*
G04 Created by KiCad (PCBNEW 9.0.0) date 2026-06-09 10:53:49*
%MOMM*%
%LPD*%
G01*
G04 APERTURE LIST*
G04 Aperture macros list*
%AMOutline5P*
0 Free polygon, 5 corners , with rotation*
0 The origin of the aperture is its center*
0 number of corners: always 5*
0 $1 to $10 corner X, Y*
0 $11 Rotation angle, in degrees counterclockwise*
0 create outline with 5 corners*
4,1,5,$1,$2,$3,$4,$5,$6,$7,$8,$9,$10,$1,$2,$11*%
%AMOutline6P*
0 Free polygon, 6 corners , with rotation*
0 The origin of the aperture is its center*
0 number of corners: always 6*
0 $1 to $12 corner X, Y*
0 $13 Rotation angle, in degrees counterclockwise*
0 create outline with 6 corners*
4,1,6,$1,$2,$3,$4,$5,$6,$7,$8,$9,$10,$11,$12,$1,$2,$13*%
%AMOutline7P*
0 Free polygon, 7 corners , with rotation*
0 The origin of the aperture is its center*
0 number of corners: always 7*
0 $1 to $14 corner X, Y*
0 $15 Rotation angle, in degrees counterclockwise*
0 create outline with 7 corners*
4,1,7,$1,$2,$3,$4,$5,$6,$7,$8,$9,$10,$11,$12,$13,$14,$1,$2,$15*%
%AMOutline8P*
0 Free polygon, 8 corners , with rotation*
0 The origin of the aperture is its center*
0 number of corners: always 8*
0 $1 to $16 corner X, Y*
0 $17 Rotation angle, in degrees counterclockwise*
0 create outline with 8 corners*
4,1,8,$1,$2,$3,$4,$5,$6,$7,$8,$9,$10,$11,$12,$13,$14,$15,$16,$1,$2,$17*%
G04 Aperture macros list end*
%TA.AperFunction,ComponentPad*%
%ADD10Outline8P,-0.704000X0.291606X-0.291606X0.704000X0.291606X0.704000X0.704000X0.291606X0.704000X-0.291606X0.291606X-0.704000X-0.291606X-0.704000X-0.704000X-0.291606X0.000000*%
%TD*%
%TA.AperFunction,ComponentPad*%
%ADD11Outline8P,-0.660400X0.273547X-0.273547X0.660400X0.273547X0.660400X0.660400X0.273547X0.660400X-0.273547X0.273547X-0.660400X-0.273547X-0.660400X-0.660400X-0.273547X0.000000*%
%TD*%
%TA.AperFunction,ComponentPad*%
%ADD12Outline8P,-0.660400X0.273547X-0.273547X0.660400X0.273547X0.660400X0.660400X0.273547X0.660400X-0.273547X0.273547X-0.660400X-0.273547X-0.660400X-0.660400X-0.273547X270.000000*%
%TD*%
%TA.AperFunction,ComponentPad*%
%ADD13R,2.400000X2.400000*%
%TD*%
%TA.AperFunction,ComponentPad*%
%ADD14C,2.000000*%
%TD*%
%TA.AperFunction,ComponentPad*%
%ADD15Outline8P,-0.660400X0.273547X-0.273547X0.660400X0.273547X0.660400X0.660400X0.273547X0.660400X-0.273547X0.273547X-0.660400X-0.273547X-0.660400X-0.660400X-0.273547X180.000000*%
%TD*%
%TA.AperFunction,ComponentPad*%
%ADD16C,1.676400*%
%TD*%
%TA.AperFunction,ComponentPad*%
%ADD17O,3.048000X1.524000*%
%TD*%
%TA.AperFunction,ComponentPad*%
%ADD18R,1.508000X1.508000*%
%TD*%
%TA.AperFunction,ComponentPad*%
%ADD19Outline8P,-0.660400X0.273547X-0.273547X0.660400X0.273547X0.660400X0.660400X0.273547X0.660400X-0.273547X0.273547X-0.660400X-0.273547X-0.660400X-0.660400X-0.273547X90.000000*%
%TD*%
%TA.AperFunction,ComponentPad*%
%ADD20C,1.270000*%
%TD*%
%TA.AperFunction,ComponentPad*%
%ADD21Outline8P,-0.635000X0.263026X-0.263026X0.635000X0.263026X0.635000X0.635000X0.263026X0.635000X-0.263026X0.263026X-0.635000X-0.263026X-0.635000X-0.635000X-0.263026X270.000000*%
%TD*%
%TA.AperFunction,ComponentPad*%
%ADD22Outline8P,-0.762000X0.315631X-0.315631X0.762000X0.315631X0.762000X0.762000X0.315631X0.762000X-0.315631X0.315631X-0.762000X-0.315631X-0.762000X-0.762000X-0.315631X180.000000*%
%TD*%
%TA.AperFunction,ViaPad*%
%ADD23C,0.600000*%
%TD*%
%TA.AperFunction,Conductor*%
%ADD24C,0.200000*%
%TD*%
%TA.AperFunction,Conductor*%
%ADD25C,0.500000*%
%TD*%
G04 APERTURE END LIST*
D10*
%TO.P,L1,1,1*%
%TO.N,+5V*%
X207436196Y-128647570D03*
%TO.P,L1,2,2*%
%TO.N,Net-(D1-K)*%
X212516196Y-128647570D03*
%TD*%
D11*
%TO.P,R7,1*%
%TO.N,/SCL*%
X124316196Y-139847570D03*
%TO.P,R7,2*%
%TO.N,+3V3*%
X134476196Y-139847570D03*
%TD*%
D12*
%TO.P,R1,1*%
%TO.N,/HV_CAP_FUL*%
X193116196Y-139167570D03*
%TO.P,R1,2*%
%TO.N,GND*%
X193116196Y-149327570D03*
%TD*%
D13*
%TO.P,SBM-19/20,P1,1*%
%TO.N,Net-(SBM-19/20-1)*%
X214506196Y-142247570D03*
%TO.P,SBM-19/20,P2,2*%
%TO.N,unconnected-(SBM-19/20-2-PadP2)*%
X222126196Y-142247570D03*
%TD*%
D14*
%TO.P,U2,1,BAT*%
%TO.N,unconnected-(U2-BAT-Pad1)*%
X141636196Y-148207570D03*
%TO.P,U2,2,EN*%
%TO.N,unconnected-(U2-EN-Pad2)*%
X139096196Y-148207570D03*
%TO.P,U2,3,5V*%
%TO.N,+5V*%
X136556196Y-148207570D03*
%TO.P,U2,4,13*%
%TO.N,unconnected-(U2-13-Pad4)*%
X134016196Y-148207570D03*
%TO.P,U2,5,12*%
%TO.N,unconnected-(U2-12-Pad5)*%
X131476196Y-148207570D03*
%TO.P,U2,6,11*%
%TO.N,unconnected-(U2-11-Pad6)*%
X128936196Y-148207570D03*
%TO.P,U2,7,1O*%
%TO.N,/SPEAKER_P*%
X126396196Y-148207570D03*
%TO.P,U2,8,9*%
%TO.N,/SPEAKER_N*%
X123856196Y-148207570D03*
%TO.P,U2,9,6*%
%TO.N,unconnected-(U2-6-Pad9)*%
X121316196Y-148207570D03*
%TO.P,U2,10,5*%
%TO.N,unconnected-(U2-5-Pad10)*%
X118776196Y-148207570D03*
%TO.P,U2,11,SCL*%
%TO.N,/SCL*%
X116236196Y-148207570D03*
%TO.P,U2,12,SDA*%
%TO.N,/SDA*%
X113696196Y-148207570D03*
%TO.P,U2,13,DB*%
%TO.N,unconnected-(U2-DB-Pad13)*%
X113696196Y-127887570D03*
%TO.P,U2,14,TX*%
%TO.N,unconnected-(U2-TX-Pad14)*%
X116236196Y-127887570D03*
%TO.P,U2,15,RX*%
%TO.N,unconnected-(U2-RX-Pad15)*%
X118776196Y-127887570D03*
%TO.P,U2,16*%
%TO.N,N/C*%
X121316196Y-127887570D03*
%TO.P,U2,17,MO*%
%TO.N,unconnected-(U2-MO-Pad17)*%
X123856196Y-127887570D03*
%TO.P,U2,18,SCK*%
%TO.N,unconnected-(U2-SCK-Pad18)*%
X126396196Y-127887570D03*
%TO.P,U2,19,A5*%
%TO.N,/HV_FET_OUT*%
X128936196Y-127887570D03*
%TO.P,U2,20,A4*%
%TO.N,unconnected-(U2-A4-Pad20)*%
X131476196Y-127887570D03*
%TO.P,U2,21,A3*%
%TO.N,unconnected-(U2-A3-Pad21)*%
X134016196Y-127887570D03*
%TO.P,U2,22,A2*%
%TO.N,unconnected-(U2-A2-Pad22)*%
X136556196Y-127887570D03*
%TO.P,U2,23,A1*%
%TO.N,/GMZ_COUNT*%
X139096196Y-127887570D03*
%TO.P,U2,24,A0*%
%TO.N,/HV_CAP_FUL*%
X141636196Y-127887570D03*
%TO.P,U2,25,GND*%
%TO.N,GND*%
X144176196Y-127887570D03*
%TO.P,U2,26,3V3*%
%TO.N,unconnected-(U2-3V3-Pad26)*%
X146716196Y-127887570D03*
%TO.P,U2,27,3V3*%
%TO.N,+3V3*%
X149256196Y-127887570D03*
%TO.P,U2,28,RST*%
%TO.N,unconnected-(U2-RST-Pad28)*%
X151796196Y-127887570D03*
%TD*%
D12*
%TO.P,C2,1*%
%TO.N,/HV_CAP_FUL*%
X188716196Y-143847570D03*
%TO.P,C2,2*%
%TO.N,GND*%
X188716196Y-148927570D03*
%TD*%
D15*
%TO.P,R6,1*%
%TO.N,+3V3*%
X134476196Y-137247570D03*
%TO.P,R6,2*%
%TO.N,/SDA*%
X124316196Y-137247570D03*
%TD*%
D12*
%TO.P,R5,1*%
%TO.N,+3V3*%
X180716196Y-123347570D03*
%TO.P,R5,2*%
%TO.N,/GMZ_COUNT*%
X180716196Y-133507570D03*
%TD*%
D16*
%TO.P,D3,A,A*%
%TO.N,GND*%
X196716196Y-149227570D03*
%TO.P,D3,C,K*%
%TO.N,/HV_CAP_FUL*%
X196716196Y-139067570D03*
%TD*%
%TO.P,D2,A,A*%
%TO.N,/HV_CAP_FUL*%
X200116196Y-139167570D03*
%TO.P,D2,C,K*%
%TO.N,Net-(D2-K)*%
X200116196Y-149327570D03*
%TD*%
D12*
%TO.P,R3,1*%
%TO.N,Net-(C4-Pad1)*%
X221216196Y-123387570D03*
%TO.P,R3,2*%
%TO.N,Net-(R3-Pad2)*%
X221216196Y-133547570D03*
%TD*%
D16*
%TO.P,D6,A,A*%
%TO.N,Net-(D4-K)*%
X210116196Y-149227570D03*
%TO.P,D6,C,C*%
%TO.N,Net-(C3-Pad1)*%
X210116196Y-139067570D03*
%TD*%
D17*
%TO.P,JP1,1*%
%TO.N,+5V*%
X176916196Y-135707570D03*
%TO.P,JP1,2*%
%TO.N,/HV_FET_OUT*%
X176916196Y-138247570D03*
%TO.P,JP1,3*%
%TO.N,/GMZ_COUNT*%
X176916196Y-140787570D03*
%TO.P,JP1,4*%
%TO.N,/HV_CAP_FUL*%
X176916196Y-143327570D03*
%TO.P,JP1,5*%
%TO.N,GND*%
X176916196Y-145867570D03*
%TD*%
D15*
%TO.P,C4,1*%
%TO.N,Net-(C4-Pad1)*%
X191256196Y-132947570D03*
%TO.P,C4,2*%
%TO.N,/GMZ_COUNT*%
X186176196Y-132947570D03*
%TD*%
D16*
%TO.P,D1,A,A*%
%TO.N,Net-(D2-K)*%
X203116196Y-149227570D03*
%TO.P,D1,C,K*%
%TO.N,Net-(D1-K)*%
X203116196Y-139067570D03*
%TD*%
%TO.P,D4,A,A*%
%TO.N,Net-(D1-K)*%
X206516196Y-139067570D03*
%TO.P,D4,C,K*%
%TO.N,Net-(D4-K)*%
X206516196Y-149227570D03*
%TD*%
D18*
%TO.P,PIEZO_KL1,P1,P1*%
%TO.N,/SPEAKER_P*%
X166716196Y-141267570D03*
%TO.P,PIEZO_KL1,P2,P2*%
%TO.N,/SPEAKER_N*%
X166716196Y-133647570D03*
%TD*%
D11*
%TO.P,R4,1*%
%TO.N,Net-(SBM-19/20-1)*%
X212636196Y-137247570D03*
%TO.P,R4,2*%
%TO.N,Net-(R3-Pad2)*%
X222796196Y-137247570D03*
%TD*%
D19*
%TO.P,R2,1*%
%TO.N,Net-(C3-Pad1)*%
X217916196Y-133527570D03*
%TO.P,R2,2*%
%TO.N,Net-(C4-Pad1)*%
X217916196Y-123367570D03*
%TD*%
D14*
%TO.P,J3,1,Pin_1*%
%TO.N,GND*%
X218816196Y-149647570D03*
%TD*%
D20*
%TO.P,C1,+*%
%TO.N,+5V*%
X146916196Y-141131570D03*
D21*
%TO.P,C1,-*%
%TO.N,GND*%
X146916196Y-143163570D03*
%TD*%
D22*
%TO.P,C3,1*%
%TO.N,Net-(C3-Pad1)*%
X201609196Y-126547570D03*
%TO.P,C3,2*%
%TO.N,GND*%
X186623196Y-126547570D03*
%TD*%
D23*
%TO.N,/HV_FET_OUT*%
X169916196Y-130147570D03*
%TO.N,/SPEAKER_N*%
X152716196Y-136247570D03*
%TO.N,+3V3*%
X130416196Y-124147570D03*
%TD*%
D24*
%TO.N,/HV_CAP_FUL*%
X143466196Y-129717570D02*
X141636196Y-127887570D01*
X176916196Y-143327570D02*
X169916196Y-143327570D01*
X141636196Y-127887570D02*
X157076196Y-143327570D01*
X157076196Y-143327570D02*
X169916196Y-143327570D01*
%TO.N,/HV_FET_OUT*%
X130116196Y-123047570D02*
X128936196Y-124227570D01*
X128936196Y-124227570D02*
X128936196Y-127887570D01*
X162816196Y-123047570D02*
X130116196Y-123047570D01*
X169916196Y-130147570D02*
X162816196Y-123047570D01*
%TO.N,/GMZ_COUNT*%
X138916196Y-128067570D02*
X139096196Y-127887570D01*
%TO.N,/SPEAKER_N*%
X155316196Y-133647570D02*
X152716196Y-136247570D01*
X166716196Y-133647570D02*
X155316196Y-133647570D01*
D25*
%TO.N,+3V3*%
X174516196Y-129547570D02*
X180716196Y-123347570D01*
X150616196Y-131447570D02*
X172616196Y-131447570D01*
X172616196Y-131447570D02*
X174516196Y-129547570D01*
X149256196Y-127887570D02*
X149256196Y-130087570D01*
X174516196Y-129547570D02*
X174531189Y-129532577D01*
X130416196Y-124147570D02*
X147016196Y-124147570D01*
X149256196Y-130087570D02*
X150616196Y-131447570D01*
X149256196Y-126387570D02*
X149256196Y-127887570D01*
X147016196Y-124147570D02*
X149256196Y-126387570D01*
%TO.N,+5V*%
X206736196Y-129347570D02*
X188616196Y-129347570D01*
X183316196Y-144147570D02*
X183316196Y-139047570D01*
X183316196Y-139047570D02*
X188616196Y-133747570D01*
X143632196Y-141131570D02*
X146916196Y-141131570D01*
X178916196Y-151647570D02*
X138316196Y-151647570D01*
X177526196Y-135097570D02*
X176916196Y-135707570D01*
X138316196Y-151647570D02*
X136556196Y-149887570D01*
X136556196Y-149887570D02*
X136556196Y-148207570D01*
X183316196Y-144147570D02*
X183316196Y-147247570D01*
X177526196Y-133037570D02*
X177526196Y-135097570D01*
X207436196Y-128647570D02*
X206736196Y-129347570D01*
X188616196Y-133747570D02*
X188616196Y-129347570D01*
X188616196Y-129347570D02*
X181216196Y-129347570D01*
X181216196Y-129347570D02*
X177526196Y-133037570D01*
X183316196Y-147247570D02*
X178916196Y-151647570D01*
X136556196Y-148207570D02*
X143632196Y-141131570D01*
%TD*%
%TA.AperFunction,Conductor*%
%TO.N,GND*%
G36*
X187492241Y-122147525D02*
G01*
X187559273Y-122167234D01*
X187605009Y-122220054D01*
X187616196Y-122271525D01*
X187616196Y-128768070D01*
X187596511Y-128835109D01*
X187543707Y-128880864D01*
X187492196Y-128892070D01*
X181156228Y-128892070D01*
X181078996Y-128912764D01*
X181040379Y-128923112D01*
X180936514Y-128983078D01*
X180936511Y-128983080D01*
X177161704Y-132757887D01*
X177129663Y-132813387D01*
X177129662Y-132813388D01*
X177101739Y-132861751D01*
X177101738Y-132861752D01*
X177070696Y-132977603D01*
X177070696Y-134616070D01*
X177051011Y-134683109D01*
X176998207Y-134728864D01*
X176946696Y-134740070D01*
X176058904Y-134740070D01*
X175871992Y-134777249D01*
X175871982Y-134777252D01*
X175695919Y-134850179D01*
X175695906Y-134850186D01*
X175537451Y-134956063D01*
X175537447Y-134956066D01*
X175402692Y-135090821D01*
X175402689Y-135090825D01*
X175296812Y-135249280D01*
X175296805Y-135249293D01*
X175223878Y-135425356D01*
X175223875Y-135425366D01*
X175186696Y-135612277D01*
X175186696Y-135612280D01*
X175186696Y-135802860D01*
X175186696Y-135802862D01*
X175186695Y-135802862D01*
X175223875Y-135989773D01*
X175223878Y-135989783D01*
X175296805Y-136165846D01*
X175296812Y-136165859D01*
X175402689Y-136324314D01*
X175402692Y-136324318D01*
X175537447Y-136459073D01*
X175537451Y-136459076D01*
X175695906Y-136564953D01*
X175695919Y-136564960D01*
X175871982Y-136637887D01*
X175871987Y-136637889D01*
X175871991Y-136637889D01*
X175871992Y-136637890D01*
X176058903Y-136675070D01*
X176058906Y-136675070D01*
X177773488Y-136675070D01*
X177899238Y-136650055D01*
X177960405Y-136637889D01*
X178136479Y-136564957D01*
X178294941Y-136459076D01*
X178429702Y-136324315D01*
X178535583Y-136165853D01*
X178608515Y-135989779D01*
X178635768Y-135852773D01*
X178645696Y-135802862D01*
X178645696Y-135612277D01*
X178608516Y-135425366D01*
X178608515Y-135425365D01*
X178608515Y-135425361D01*
X178608513Y-135425356D01*
X178535586Y-135249293D01*
X178535579Y-135249280D01*
X178429702Y-135090825D01*
X178429699Y-135090821D01*
X178294944Y-134956066D01*
X178294940Y-134956063D01*
X178136485Y-134850186D01*
X178136475Y-134850181D01*
X178058243Y-134817776D01*
X178003840Y-134773935D01*
X177981775Y-134707640D01*
X177981696Y-134703215D01*
X177981696Y-133277606D01*
X177990340Y-133248165D01*
X177996864Y-133218179D01*
X178000618Y-133213163D01*
X178001381Y-133210567D01*
X178018015Y-133189925D01*
X178059038Y-133148902D01*
X179850296Y-133148902D01*
X179850296Y-133866237D01*
X179850297Y-133866238D01*
X180357529Y-134373470D01*
X181074864Y-134373469D01*
X181582096Y-133866237D01*
X181582095Y-133148902D01*
X181074863Y-132641670D01*
X180357528Y-132641670D01*
X179850296Y-133148902D01*
X178059038Y-133148902D01*
X181368551Y-129839389D01*
X181429874Y-129805904D01*
X181456232Y-129803070D01*
X183361334Y-129803070D01*
X183428373Y-129822755D01*
X183474128Y-129875559D01*
X183484072Y-129944717D01*
X183455047Y-130008273D01*
X183449015Y-130014751D01*
X183416196Y-130047570D01*
X183416196Y-135647570D01*
X185772660Y-135647570D01*
X185839699Y-135667255D01*
X185885454Y-135720059D01*
X185895398Y-135789217D01*
X185866373Y-135852773D01*
X185860341Y-135859251D01*
X182951706Y-138767885D01*
X182951702Y-138767890D01*
X182928026Y-138808901D01*
X182928025Y-138808903D01*
X182891738Y-138871754D01*
X182860696Y-138987602D01*
X182860696Y-138987603D01*
X182860696Y-147007534D01*
X182841011Y-147074573D01*
X182824377Y-147095215D01*
X178763841Y-151155751D01*
X178702518Y-151189236D01*
X178676160Y-151192070D01*
X138556232Y-151192070D01*
X138489193Y-151172385D01*
X138468551Y-151155751D01*
X137048015Y-149735215D01*
X137033311Y-149708287D01*
X137016719Y-149682469D01*
X137015827Y-149676268D01*
X137014530Y-149673892D01*
X137011696Y-149647534D01*
X137011696Y-149404433D01*
X137031381Y-149337394D01*
X137079399Y-149293949D01*
X137188016Y-149238606D01*
X137341527Y-149127074D01*
X137475700Y-148992901D01*
X137587232Y-148839390D01*
X137673377Y-148670322D01*
X137708265Y-148562948D01*
X137747703Y-148505272D01*
X137812061Y-148478074D01*
X137880908Y-148489989D01*
X137932383Y-148537233D01*
X137944127Y-148562948D01*
X137979015Y-148670322D01*
X138062002Y-148833193D01*
X138065162Y-148839393D01*
X138176686Y-148992894D01*
X138176690Y-148992899D01*
X138310866Y-149127075D01*
X138310871Y-149127079D01*
X138444763Y-149224356D01*
X138464376Y-149238606D01*
X138572103Y-149293495D01*
X138633439Y-149324749D01*
X138633441Y-149324749D01*
X138633444Y-149324751D01*
X138686294Y-149341923D01*
X138813906Y-149383387D01*
X139001316Y-149413070D01*
X139001321Y-149413070D01*
X139191076Y-149413070D01*
X139378485Y-149383387D01*
X139558948Y-149324751D01*
X139728016Y-149238606D01*
X139881527Y-149127074D01*
X140015700Y-148992901D01*
X140127232Y-148839390D01*
X140213377Y-148670322D01*
X140248265Y-148562948D01*
X140287703Y-148505272D01*
X140352061Y-148478074D01*
X140420908Y-148489989D01*
X140472383Y-148537233D01*
X140484127Y-148562948D01*
X140519015Y-148670322D01*
X140602002Y-148833193D01*
X140605162Y-148839393D01*
X140716686Y-148992894D01*
X140716690Y-148992899D01*
X140850866Y-149127075D01*
X140850871Y-149127079D01*
X140984763Y-149224356D01*
X141004376Y-149238606D01*
X141112103Y-149293495D01*
X141173439Y-149324749D01*
X141173441Y-149324749D01*
X141173444Y-149324751D01*
X141226294Y-149341923D01*
X141353906Y-149383387D01*
X141541316Y-149413070D01*
X141541321Y-149413070D01*
X141731076Y-149413070D01*
X141918485Y-149383387D01*
X142098948Y-149324751D01*
X142268016Y-149238606D01*
X142421527Y-149127074D01*
X142555700Y-148992901D01*
X142667232Y-148839390D01*
X142753377Y-148670322D01*
X142812013Y-148489859D01*
X142813880Y-148478074D01*
X142841696Y-148302450D01*
X142841696Y-148112689D01*
X142812013Y-147925280D01*
X142753375Y-147744813D01*
X142722121Y-147683477D01*
X142667232Y-147575750D01*
X142631997Y-147527253D01*
X142555705Y-147422245D01*
X142555701Y-147422240D01*
X142455069Y-147321608D01*
X170499500Y-147321608D01*
X170499500Y-147573532D01*
X170526629Y-147744818D01*
X170538910Y-147822355D01*
X170616760Y-148061953D01*
X170642612Y-148112689D01*
X170729833Y-148283870D01*
X170731132Y-148286418D01*
X170879201Y-148490219D01*
X170879205Y-148490224D01*
X171057345Y-148668364D01*
X171057350Y-148668368D01*
X171146575Y-148733193D01*
X171261155Y-148816440D01*
X171404184Y-148889317D01*
X171485616Y-148930809D01*
X171485618Y-148930809D01*
X171485621Y-148930811D01*
X171725215Y-149008660D01*
X171974038Y-149048070D01*
X171974039Y-149048070D01*
X172225961Y-149048070D01*
X172225962Y-149048070D01*
X172474785Y-149008660D01*
X172714379Y-148930811D01*
X172938845Y-148816440D01*
X173142656Y-148668363D01*
X173320793Y-148490226D01*
X173468870Y-148286415D01*
X173583241Y-148061949D01*
X173661090Y-147822355D01*
X173700500Y-147573532D01*
X173700500Y-147321608D01*
X173661090Y-147072785D01*
X173583241Y-146833191D01*
X173583239Y-146833188D01*
X173583239Y-146833186D01*
X173541747Y-146751754D01*
X173468870Y-146608725D01*
X173449952Y-146582687D01*
X173320798Y-146404920D01*
X173320794Y-146404915D01*
X173142654Y-146226775D01*
X173142649Y-146226771D01*
X172938848Y-146078702D01*
X172938847Y-146078701D01*
X172938845Y-146078700D01*
X172868747Y-146042983D01*
X172714383Y-145964330D01*
X172474785Y-145886480D01*
X172225962Y-145847070D01*
X171974038Y-145847070D01*
X171849626Y-145866775D01*
X171725214Y-145886480D01*
X171485616Y-145964330D01*
X171261151Y-146078702D01*
X171057350Y-146226771D01*
X171057345Y-146226775D01*
X170879205Y-146404915D01*
X170879201Y-146404920D01*
X170731132Y-146608721D01*
X170616760Y-146833186D01*
X170538910Y-147072784D01*
X170535357Y-147095215D01*
X170499500Y-147321608D01*
X142455069Y-147321608D01*
X142421525Y-147288064D01*
X142421520Y-147288060D01*
X142268019Y-147176536D01*
X142268018Y-147176535D01*
X142268016Y-147176534D01*
X142215220Y-147149633D01*
X142098952Y-147090390D01*
X141918485Y-147031752D01*
X141731076Y-147002070D01*
X141731071Y-147002070D01*
X141541321Y-147002070D01*
X141541316Y-147002070D01*
X141353906Y-147031752D01*
X141173439Y-147090390D01*
X141004372Y-147176536D01*
X140850871Y-147288060D01*
X140850866Y-147288064D01*
X140716690Y-147422240D01*
X140716686Y-147422245D01*
X140605162Y-147575746D01*
X140519016Y-147744813D01*
X140484127Y-147852192D01*
X140444689Y-147909867D01*
X140380330Y-147937065D01*
X140311484Y-147925150D01*
X140260008Y-147877906D01*
X140248265Y-147852192D01*
X140213375Y-147744813D01*
X140182121Y-147683477D01*
X140127232Y-147575750D01*
X140091997Y-147527253D01*
X140015705Y-147422245D01*
X140015701Y-147422240D01*
X139881525Y-147288064D01*
X139881520Y-147288060D01*
X139728019Y-147176536D01*
X139728018Y-147176535D01*
X139728016Y-147176534D01*
X139675220Y-147149633D01*
X139558952Y-147090390D01*
X139378485Y-147031752D01*
X139191076Y-147002070D01*
X139191071Y-147002070D01*
X139001321Y-147002070D01*
X139001316Y-147002070D01*
X138813905Y-147031753D01*
X138813902Y-147031753D01*
X138656725Y-147082824D01*
X138586884Y-147084819D01*
X138527051Y-147048739D01*
X138496223Y-146986038D01*
X138504188Y-146916624D01*
X138530723Y-146877215D01*
X143784551Y-141623389D01*
X143845874Y-141589904D01*
X143872232Y-141587070D01*
X146143411Y-141587070D01*
X146210450Y-141606755D01*
X146246512Y-141642178D01*
X146248369Y-141644957D01*
X146263338Y-141667360D01*
X146380404Y-141784426D01*
X146380408Y-141784429D01*
X146518063Y-141876408D01*
X146518076Y-141876415D01*
X146632790Y-141923930D01*
X146671031Y-141939770D01*
X146671033Y-141939770D01*
X146671038Y-141939772D01*
X146833409Y-141972069D01*
X146833412Y-141972070D01*
X146833414Y-141972070D01*
X146998980Y-141972070D01*
X146998981Y-141972069D01*
X147053105Y-141961303D01*
X147161353Y-141939772D01*
X147161356Y-141939770D01*
X147161361Y-141939770D01*
X147314322Y-141876412D01*
X147451984Y-141784429D01*
X147569055Y-141667358D01*
X147661038Y-141529696D01*
X147724396Y-141376735D01*
X147756696Y-141214352D01*
X147756696Y-141048788D01*
X147756696Y-141048785D01*
X147756695Y-141048783D01*
X147724398Y-140886412D01*
X147724395Y-140886403D01*
X147722927Y-140882860D01*
X147674970Y-140767079D01*
X147661041Y-140733450D01*
X147661034Y-140733437D01*
X147569055Y-140595782D01*
X147569052Y-140595778D01*
X147451987Y-140478713D01*
X147451983Y-140478710D01*
X147314328Y-140386731D01*
X147314315Y-140386724D01*
X147161362Y-140323370D01*
X147161353Y-140323367D01*
X146998981Y-140291070D01*
X146998978Y-140291070D01*
X146833414Y-140291070D01*
X146833411Y-140291070D01*
X146671038Y-140323367D01*
X146671029Y-140323370D01*
X146518076Y-140386724D01*
X146518063Y-140386731D01*
X146380408Y-140478710D01*
X146380404Y-140478713D01*
X146263338Y-140595779D01*
X146246514Y-140620960D01*
X146192902Y-140665765D01*
X146143411Y-140676070D01*
X143572228Y-140676070D01*
X143480860Y-140700552D01*
X143480859Y-140700551D01*
X143456379Y-140707111D01*
X143352510Y-140767081D01*
X137080418Y-147039172D01*
X137019095Y-147072657D01*
X136954419Y-147069422D01*
X136838487Y-147031753D01*
X136651076Y-147002070D01*
X136651071Y-147002070D01*
X136461321Y-147002070D01*
X136461316Y-147002070D01*
X136273906Y-147031752D01*
X136093439Y-147090390D01*
X135924372Y-147176536D01*
X135770871Y-147288060D01*
X135770866Y-147288064D01*
X135636690Y-147422240D01*
X135636686Y-147422245D01*
X135525162Y-147575746D01*
X135439016Y-147744813D01*
X135404127Y-147852192D01*
X135364689Y-147909867D01*
X135300330Y-147937065D01*
X135231484Y-147925150D01*
X135180008Y-147877906D01*
X135168265Y-147852192D01*
X135133375Y-147744813D01*
X135102121Y-147683477D01*
X135047232Y-147575750D01*
X135011997Y-147527253D01*
X134935705Y-147422245D01*
X134935701Y-147422240D01*
X134801525Y-147288064D01*
X134801520Y-147288060D01*
X134648019Y-147176536D01*
X134648018Y-147176535D01*
X134648016Y-147176534D01*
X134595220Y-147149633D01*
X134478952Y-147090390D01*
X134298485Y-147031752D01*
X134111076Y-147002070D01*
X134111071Y-147002070D01*
X133921321Y-147002070D01*
X133921316Y-147002070D01*
X133733906Y-147031752D01*
X133553439Y-147090390D01*
X133384372Y-147176536D01*
X133230871Y-147288060D01*
X133230866Y-147288064D01*
X133096690Y-147422240D01*
X133096686Y-147422245D01*
X132985162Y-147575746D01*
X132899016Y-147744813D01*
X132864127Y-147852192D01*
X132824689Y-147909867D01*
X132760330Y-147937065D01*
X132691484Y-147925150D01*
X132640008Y-147877906D01*
X132628265Y-147852192D01*
X132593375Y-147744813D01*
X132562121Y-147683477D01*
X132507232Y-147575750D01*
X132471997Y-147527253D01*
X132395705Y-147422245D01*
X132395701Y-147422240D01*
X132261525Y-147288064D01*
X132261520Y-147288060D01*
X132108019Y-147176536D01*
X132108018Y-147176535D01*
X132108016Y-147176534D01*
X132055220Y-147149633D01*
X131938952Y-147090390D01*
X131758485Y-147031752D01*
X131571076Y-147002070D01*
X131571071Y-147002070D01*
X131381321Y-147002070D01*
X131381316Y-147002070D01*
X131193906Y-147031752D01*
X131013439Y-147090390D01*
X130844372Y-147176536D01*
X130690871Y-147288060D01*
X130690866Y-147288064D01*
X130556690Y-147422240D01*
X130556686Y-147422245D01*
X130445162Y-147575746D01*
X130359016Y-147744813D01*
X130324127Y-147852192D01*
X130284689Y-147909867D01*
X130220330Y-147937065D01*
X130151484Y-147925150D01*
X130100008Y-147877906D01*
X130088265Y-147852192D01*
X130053375Y-147744813D01*
X130022121Y-147683477D01*
X129967232Y-147575750D01*
X129931997Y-147527253D01*
X129855705Y-147422245D01*
X129855701Y-147422240D01*
X129721525Y-147288064D01*
X129721520Y-147288060D01*
X129568019Y-147176536D01*
X129568018Y-147176535D01*
X129568016Y-147176534D01*
X129515220Y-147149633D01*
X129398952Y-147090390D01*
X129218485Y-147031752D01*
X129031076Y-147002070D01*
X129031071Y-147002070D01*
X128841321Y-147002070D01*
X128841316Y-147002070D01*
X128653906Y-147031752D01*
X128473439Y-147090390D01*
X128304372Y-147176536D01*
X128150871Y-147288060D01*
X128150866Y-147288064D01*
X128016690Y-147422240D01*
X128016686Y-147422245D01*
X127905162Y-147575746D01*
X127819016Y-147744813D01*
X127784127Y-147852192D01*
X127744689Y-147909867D01*
X127680330Y-147937065D01*
X127611484Y-147925150D01*
X127560008Y-147877906D01*
X127548265Y-147852192D01*
X127513375Y-147744813D01*
X127482121Y-147683477D01*
X127427232Y-147575750D01*
X127391997Y-147527253D01*
X127315705Y-147422245D01*
X127315701Y-147422240D01*
X127181525Y-147288064D01*
X127181520Y-147288060D01*
X127028019Y-147176536D01*
X127028018Y-147176535D01*
X127028016Y-147176534D01*
X126975220Y-147149633D01*
X126858952Y-147090390D01*
X126678485Y-147031752D01*
X126491076Y-147002070D01*
X126491071Y-147002070D01*
X126301321Y-147002070D01*
X126301316Y-147002070D01*
X126113906Y-147031752D01*
X125933439Y-147090390D01*
X125764372Y-147176536D01*
X125610871Y-147288060D01*
X125610866Y-147288064D01*
X125476690Y-147422240D01*
X125476686Y-147422245D01*
X125365162Y-147575746D01*
X125279016Y-147744813D01*
X125244127Y-147852192D01*
X125204689Y-147909867D01*
X125140330Y-147937065D01*
X125071484Y-147925150D01*
X125020008Y-147877906D01*
X125008265Y-147852192D01*
X124973375Y-147744813D01*
X124942121Y-147683477D01*
X124887232Y-147575750D01*
X124851997Y-147527253D01*
X124775705Y-147422245D01*
X124775701Y-147422240D01*
X124641525Y-147288064D01*
X124641520Y-147288060D01*
X124488019Y-147176536D01*
X124488018Y-147176535D01*
X124488016Y-147176534D01*
X124435220Y-147149633D01*
X124318952Y-147090390D01*
X124138485Y-147031752D01*
X123951076Y-147002070D01*
X123951071Y-147002070D01*
X123761321Y-147002070D01*
X123761316Y-147002070D01*
X123573906Y-147031752D01*
X123393439Y-147090390D01*
X123224372Y-147176536D01*
X123070871Y-147288060D01*
X123070866Y-147288064D01*
X122936690Y-147422240D01*
X122936686Y-147422245D01*
X122825162Y-147575746D01*
X122739016Y-147744813D01*
X122704127Y-147852192D01*
X122664689Y-147909867D01*
X122600330Y-147937065D01*
X122531484Y-147925150D01*
X122480008Y-147877906D01*
X122468265Y-147852192D01*
X122433375Y-147744813D01*
X122402121Y-147683477D01*
X122347232Y-147575750D01*
X122311997Y-147527253D01*
X122235705Y-147422245D01*
X122235701Y-147422240D01*
X122101525Y-147288064D01*
X122101520Y-147288060D01*
X121948019Y-147176536D01*
X121948018Y-147176535D01*
X121948016Y-147176534D01*
X121895220Y-147149633D01*
X121778952Y-147090390D01*
X121598485Y-147031752D01*
X121411076Y-147002070D01*
X121411071Y-147002070D01*
X121221321Y-147002070D01*
X121221316Y-147002070D01*
X121033906Y-147031752D01*
X120853439Y-147090390D01*
X120684372Y-147176536D01*
X120530871Y-147288060D01*
X120530866Y-147288064D01*
X120396690Y-147422240D01*
X120396686Y-147422245D01*
X120285162Y-147575746D01*
X120199016Y-147744813D01*
X120164127Y-147852192D01*
X120124689Y-147909867D01*
X120060330Y-147937065D01*
X119991484Y-147925150D01*
X119940008Y-147877906D01*
X119928265Y-147852192D01*
X119893375Y-147744813D01*
X119862121Y-147683477D01*
X119807232Y-147575750D01*
X119771997Y-147527253D01*
X119695705Y-147422245D01*
X119695701Y-147422240D01*
X119561525Y-147288064D01*
X119561520Y-147288060D01*
X119408019Y-147176536D01*
X119408018Y-147176535D01*
X119408016Y-147176534D01*
X119355220Y-147149633D01*
X119238952Y-147090390D01*
X119058485Y-147031752D01*
X118871076Y-147002070D01*
X118871071Y-147002070D01*
X118681321Y-147002070D01*
X118681316Y-147002070D01*
X118493906Y-147031752D01*
X118313439Y-147090390D01*
X118144372Y-147176536D01*
X117990871Y-147288060D01*
X117990866Y-147288064D01*
X117856690Y-147422240D01*
X117856686Y-147422245D01*
X117745162Y-147575746D01*
X117659016Y-147744813D01*
X117624127Y-147852192D01*
X117584689Y-147909867D01*
X117520330Y-147937065D01*
X117451484Y-147925150D01*
X117400008Y-147877906D01*
X117388265Y-147852192D01*
X117353375Y-147744813D01*
X117322121Y-147683477D01*
X117267232Y-147575750D01*
X117231997Y-147527253D01*
X117155705Y-147422245D01*
X117155701Y-147422240D01*
X117021525Y-147288064D01*
X117021520Y-147288060D01*
X116868019Y-147176536D01*
X116868018Y-147176535D01*
X116868016Y-147176534D01*
X116815220Y-147149633D01*
X116698952Y-147090390D01*
X116518485Y-147031752D01*
X116331076Y-147002070D01*
X116331071Y-147002070D01*
X116141321Y-147002070D01*
X116141316Y-147002070D01*
X115953906Y-147031752D01*
X115773439Y-147090390D01*
X115604372Y-147176536D01*
X115450871Y-147288060D01*
X115450866Y-147288064D01*
X115316690Y-147422240D01*
X115316686Y-147422245D01*
X115205162Y-147575746D01*
X115119016Y-147744813D01*
X115084127Y-147852192D01*
X115044689Y-147909867D01*
X114980330Y-147937065D01*
X114911484Y-147925150D01*
X114860008Y-147877906D01*
X114848265Y-147852192D01*
X114813375Y-147744813D01*
X114782121Y-147683477D01*
X114727232Y-147575750D01*
X114691997Y-147527253D01*
X114615705Y-147422245D01*
X114615701Y-147422240D01*
X114481525Y-147288064D01*
X114481520Y-147288060D01*
X114328019Y-147176536D01*
X114328018Y-147176535D01*
X114328016Y-147176534D01*
X114275220Y-147149633D01*
X114158952Y-147090390D01*
X113978485Y-147031752D01*
X113791076Y-147002070D01*
X113791071Y-147002070D01*
X113601321Y-147002070D01*
X113601316Y-147002070D01*
X113413906Y-147031752D01*
X113233439Y-147090390D01*
X113064372Y-147176536D01*
X112910871Y-147288060D01*
X112910866Y-147288064D01*
X112776690Y-147422240D01*
X112776686Y-147422245D01*
X112665162Y-147575746D01*
X112579016Y-147744813D01*
X112520378Y-147925280D01*
X112490696Y-148112689D01*
X112490696Y-148302450D01*
X112520378Y-148489859D01*
X112579016Y-148670326D01*
X112638259Y-148786594D01*
X112662002Y-148833193D01*
X112665162Y-148839393D01*
X112776686Y-148992894D01*
X112776690Y-148992899D01*
X112910866Y-149127075D01*
X112910871Y-149127079D01*
X113044763Y-149224356D01*
X113064376Y-149238606D01*
X113172103Y-149293495D01*
X113233439Y-149324749D01*
X113233441Y-149324749D01*
X113233444Y-149324751D01*
X113286294Y-149341923D01*
X113413906Y-149383387D01*
X113601316Y-149413070D01*
X113601321Y-149413070D01*
X113791076Y-149413070D01*
X113978485Y-149383387D01*
X114158948Y-149324751D01*
X114328016Y-149238606D01*
X114481527Y-149127074D01*
X114615700Y-148992901D01*
X114727232Y-148839390D01*
X114813377Y-148670322D01*
X114848265Y-148562948D01*
X114887703Y-148505272D01*
X114952061Y-148478074D01*
X115020908Y-148489989D01*
X115072383Y-148537233D01*
X115084127Y-148562948D01*
X115119015Y-148670322D01*
X115202002Y-148833193D01*
X115205162Y-148839393D01*
X115316686Y-148992894D01*
X115316690Y-148992899D01*
X115450866Y-149127075D01*
X115450871Y-149127079D01*
X115584763Y-149224356D01*
X115604376Y-149238606D01*
X115712103Y-149293495D01*
X115773439Y-149324749D01*
X115773441Y-149324749D01*
X115773444Y-149324751D01*
X115826294Y-149341923D01*
X115953906Y-149383387D01*
X116141316Y-149413070D01*
X116141321Y-149413070D01*
X116331076Y-149413070D01*
X116518485Y-149383387D01*
X116698948Y-149324751D01*
X116868016Y-149238606D01*
X117021527Y-149127074D01*
X117155700Y-148992901D01*
X117267232Y-148839390D01*
X117353377Y-148670322D01*
X117388265Y-148562948D01*
X117427703Y-148505272D01*
X117492061Y-148478074D01*
X117560908Y-148489989D01*
X117612383Y-148537233D01*
X117624127Y-148562948D01*
X117659015Y-148670322D01*
X117742002Y-148833193D01*
X117745162Y-148839393D01*
X117856686Y-148992894D01*
X117856690Y-148992899D01*
X117990866Y-149127075D01*
X117990871Y-149127079D01*
X118124763Y-149224356D01*
X118144376Y-149238606D01*
X118252103Y-149293495D01*
X118313439Y-149324749D01*
X118313441Y-149324749D01*
X118313444Y-149324751D01*
X118366294Y-149341923D01*
X118493906Y-149383387D01*
X118681316Y-149413070D01*
X118681321Y-149413070D01*
X118871076Y-149413070D01*
X119058485Y-149383387D01*
X119238948Y-149324751D01*
X119408016Y-149238606D01*
X119561527Y-149127074D01*
X119695700Y-148992901D01*
X119807232Y-148839390D01*
X119893377Y-148670322D01*
X119928265Y-148562948D01*
X119967703Y-148505272D01*
X120032061Y-148478074D01*
X120100908Y-148489989D01*
X120152383Y-148537233D01*
X120164127Y-148562948D01*
X120199015Y-148670322D01*
X120282002Y-148833193D01*
X120285162Y-148839393D01*
X120396686Y-148992894D01*
X120396690Y-148992899D01*
X120530866Y-149127075D01*
X120530871Y-149127079D01*
X120664763Y-149224356D01*
X120684376Y-149238606D01*
X120792103Y-149293495D01*
X120853439Y-149324749D01*
X120853441Y-149324749D01*
X120853444Y-149324751D01*
X120906294Y-149341923D01*
X121033906Y-149383387D01*
X121221316Y-149413070D01*
X121221321Y-149413070D01*
X121411076Y-149413070D01*
X121598485Y-149383387D01*
X121778948Y-149324751D01*
X121948016Y-149238606D01*
X122101527Y-149127074D01*
X122235700Y-148992901D01*
X122347232Y-148839390D01*
X122433377Y-148670322D01*
X122468265Y-148562948D01*
X122507703Y-148505272D01*
X122572061Y-148478074D01*
X122640908Y-148489989D01*
X122692383Y-148537233D01*
X122704127Y-148562948D01*
X122739015Y-148670322D01*
X122822002Y-148833193D01*
X122825162Y-148839393D01*
X122936686Y-148992894D01*
X122936690Y-148992899D01*
X123070866Y-149127075D01*
X123070871Y-149127079D01*
X123204763Y-149224356D01*
X123224376Y-149238606D01*
X123332103Y-149293495D01*
X123393439Y-149324749D01*
X123393441Y-149324749D01*
X123393444Y-149324751D01*
X123446294Y-149341923D01*
X123573906Y-149383387D01*
X123761316Y-149413070D01*
X123761321Y-149413070D01*
X123951076Y-149413070D01*
X124138485Y-149383387D01*
X124318948Y-149324751D01*
X124488016Y-149238606D01*
X124641527Y-149127074D01*
X124775700Y-148992901D01*
X124887232Y-148839390D01*
X124973377Y-148670322D01*
X125008265Y-148562948D01*
X125047703Y-148505272D01*
X125112061Y-148478074D01*
X125180908Y-148489989D01*
X125232383Y-148537233D01*
X125244127Y-148562948D01*
X125279015Y-148670322D01*
X125362002Y-148833193D01*
X125365162Y-148839393D01*
X125476686Y-148992894D01*
X125476690Y-148992899D01*
X125610866Y-149127075D01*
X125610871Y-149127079D01*
X125744763Y-149224356D01*
X125764376Y-149238606D01*
X125872103Y-149293495D01*
X125933439Y-149324749D01*
X125933441Y-149324749D01*
X125933444Y-149324751D01*
X125986294Y-149341923D01*
X126113906Y-149383387D01*
X126301316Y-149413070D01*
X126301321Y-149413070D01*
X126491076Y-149413070D01*
X126678485Y-149383387D01*
X126858948Y-149324751D01*
X127028016Y-149238606D01*
X127181527Y-149127074D01*
X127315700Y-148992901D01*
X127427232Y-148839390D01*
X127513377Y-148670322D01*
X127548265Y-148562948D01*
X127587703Y-148505272D01*
X127652061Y-148478074D01*
X127720908Y-148489989D01*
X127772383Y-148537233D01*
X127784127Y-148562948D01*
X127819015Y-148670322D01*
X127902002Y-148833193D01*
X127905162Y-148839393D01*
X128016686Y-148992894D01*
X128016690Y-148992899D01*
X128150866Y-149127075D01*
X128150871Y-149127079D01*
X128284763Y-149224356D01*
X128304376Y-149238606D01*
X128412103Y-149293495D01*
X128473439Y-149324749D01*
X128473441Y-149324749D01*
X128473444Y-149324751D01*
X128526294Y-149341923D01*
X128653906Y-149383387D01*
X128841316Y-149413070D01*
X128841321Y-149413070D01*
X129031076Y-149413070D01*
X129218485Y-149383387D01*
X129398948Y-149324751D01*
X129568016Y-149238606D01*
X129721527Y-149127074D01*
X129855700Y-148992901D01*
X129967232Y-148839390D01*
X130053377Y-148670322D01*
X130088265Y-148562948D01*
X130127703Y-148505272D01*
X130192061Y-148478074D01*
X130260908Y-148489989D01*
X130312383Y-148537233D01*
X130324127Y-148562948D01*
X130359015Y-148670322D01*
X130442002Y-148833193D01*
X130445162Y-148839393D01*
X130556686Y-148992894D01*
X130556690Y-148992899D01*
X130690866Y-149127075D01*
X130690871Y-149127079D01*
X130824763Y-149224356D01*
X130844376Y-149238606D01*
X130952103Y-149293495D01*
X131013439Y-149324749D01*
X131013441Y-149324749D01*
X131013444Y-149324751D01*
X131066294Y-149341923D01*
X131193906Y-149383387D01*
X131381316Y-149413070D01*
X131381321Y-149413070D01*
X131571076Y-149413070D01*
X131758485Y-149383387D01*
X131938948Y-149324751D01*
X132108016Y-149238606D01*
X132261527Y-149127074D01*
X132395700Y-148992901D01*
X132507232Y-148839390D01*
X132593377Y-148670322D01*
X132628265Y-148562948D01*
X132667703Y-148505272D01*
X132732061Y-148478074D01*
X132800908Y-148489989D01*
X132852383Y-148537233D01*
X132864127Y-148562948D01*
X132899015Y-148670322D01*
X132982002Y-148833193D01*
X132985162Y-148839393D01*
X133096686Y-148992894D01*
X133096690Y-148992899D01*
X133230866Y-149127075D01*
X133230871Y-149127079D01*
X133364763Y-149224356D01*
X133384376Y-149238606D01*
X133492103Y-149293495D01*
X133553439Y-149324749D01*
X133553441Y-149324749D01*
X133553444Y-149324751D01*
X133606294Y-149341923D01*
X133733906Y-149383387D01*
X133921316Y-149413070D01*
X133921321Y-149413070D01*
X134111076Y-149413070D01*
X134298485Y-149383387D01*
X134478948Y-149324751D01*
X134648016Y-149238606D01*
X134801527Y-149127074D01*
X134935700Y-148992901D01*
X135047232Y-148839390D01*
X135133377Y-148670322D01*
X135168265Y-148562948D01*
X135207703Y-148505272D01*
X135272061Y-148478074D01*
X135340908Y-148489989D01*
X135392383Y-148537233D01*
X135404127Y-148562948D01*
X135439015Y-148670322D01*
X135522002Y-148833193D01*
X135525162Y-148839393D01*
X135636686Y-148992894D01*
X135636690Y-148992899D01*
X135770866Y-149127075D01*
X135770871Y-149127079D01*
X135904763Y-149224356D01*
X135924376Y-149238606D01*
X136032992Y-149293949D01*
X136083787Y-149341923D01*
X136100696Y-149404433D01*
X136100696Y-149947538D01*
X136112848Y-149992890D01*
X136124632Y-150036868D01*
X136131737Y-150063383D01*
X136131738Y-150063386D01*
X136191705Y-150167253D01*
X138036513Y-152012061D01*
X138140380Y-152072028D01*
X138256228Y-152103070D01*
X138256230Y-152103070D01*
X178976162Y-152103070D01*
X178976164Y-152103070D01*
X179092012Y-152072028D01*
X179195879Y-152012061D01*
X179441778Y-151766162D01*
X221589696Y-151766162D01*
X221589696Y-151928977D01*
X221621455Y-152088643D01*
X221621458Y-152088652D01*
X221683758Y-152239060D01*
X221683759Y-152239062D01*
X221774211Y-152374432D01*
X221774214Y-152374436D01*
X221889329Y-152489551D01*
X221889333Y-152489554D01*
X222024701Y-152580005D01*
X222024702Y-152580005D01*
X222024703Y-152580006D01*
X222024705Y-152580007D01*
X222124977Y-152621540D01*
X222175115Y-152642308D01*
X222175117Y-152642308D01*
X222175122Y-152642310D01*
X222334788Y-152674069D01*
X222334791Y-152674070D01*
X222334793Y-152674070D01*
X222497601Y-152674070D01*
X222497602Y-152674069D01*
X222550825Y-152663482D01*
X222657269Y-152642310D01*
X222657272Y-152642308D01*
X222657277Y-152642308D01*
X222807691Y-152580005D01*
X222943059Y-152489554D01*
X223058180Y-152374433D01*
X223148631Y-152239065D01*
X223210934Y-152088651D01*
X223242696Y-151928973D01*
X223242696Y-151766167D01*
X223242696Y-151766164D01*
X223242695Y-151766162D01*
X223210936Y-151606496D01*
X223210933Y-151606487D01*
X223148633Y-151456079D01*
X223148632Y-151456077D01*
X223058180Y-151320707D01*
X223058177Y-151320703D01*
X222943062Y-151205588D01*
X222943058Y-151205585D01*
X222807688Y-151115133D01*
X222807686Y-151115132D01*
X222657278Y-151052832D01*
X222657269Y-151052829D01*
X222497602Y-151021070D01*
X222497599Y-151021070D01*
X222334793Y-151021070D01*
X222334790Y-151021070D01*
X222175122Y-151052829D01*
X222175113Y-151052832D01*
X222024705Y-151115132D01*
X222024703Y-151115133D01*
X221889333Y-151205585D01*
X221889329Y-151205588D01*
X221774214Y-151320703D01*
X221774211Y-151320707D01*
X221683759Y-151456077D01*
X221683758Y-151456079D01*
X221621458Y-151606487D01*
X221621455Y-151606496D01*
X221589696Y-151766162D01*
X179441778Y-151766162D01*
X183680687Y-147527253D01*
X183740654Y-147423386D01*
X183740861Y-147422611D01*
X183740963Y-147422233D01*
X183740969Y-147422234D01*
X183740970Y-147422204D01*
X183771696Y-147307538D01*
X183771696Y-144087602D01*
X183771696Y-139287606D01*
X183791381Y-139220567D01*
X183808015Y-139199925D01*
X186204515Y-136803425D01*
X186265838Y-136769940D01*
X186335530Y-136774924D01*
X186391463Y-136816796D01*
X186415880Y-136882260D01*
X186416196Y-136891106D01*
X186416196Y-147947570D01*
X198392196Y-147947570D01*
X198459235Y-147967255D01*
X198504990Y-148020059D01*
X198516196Y-148071570D01*
X198516196Y-151247570D01*
X212916196Y-151247570D01*
X212916196Y-148070457D01*
X212935881Y-148003418D01*
X212988685Y-147957663D01*
X213039074Y-147946462D01*
X223857082Y-147849002D01*
X223924293Y-147868082D01*
X223970522Y-147920471D01*
X223982196Y-147972997D01*
X223982196Y-153898070D01*
X223962511Y-153965109D01*
X223909707Y-154010864D01*
X223858196Y-154022070D01*
X101074196Y-154022070D01*
X101007157Y-154002385D01*
X100961402Y-153949581D01*
X100950196Y-153898070D01*
X100950196Y-151766162D01*
X102389696Y-151766162D01*
X102389696Y-151928977D01*
X102421455Y-152088643D01*
X102421458Y-152088652D01*
X102483758Y-152239060D01*
X102483759Y-152239062D01*
X102574211Y-152374432D01*
X102574214Y-152374436D01*
X102689329Y-152489551D01*
X102689333Y-152489554D01*
X102824701Y-152580005D01*
X102824702Y-152580005D01*
X102824703Y-152580006D01*
X102824705Y-152580007D01*
X102924977Y-152621540D01*
X102975115Y-152642308D01*
X102975117Y-152642308D01*
X102975122Y-152642310D01*
X103134788Y-152674069D01*
X103134791Y-152674070D01*
X103134793Y-152674070D01*
X103297601Y-152674070D01*
X103297602Y-152674069D01*
X103350825Y-152663482D01*
X103457269Y-152642310D01*
X103457272Y-152642308D01*
X103457277Y-152642308D01*
X103607691Y-152580005D01*
X103743059Y-152489554D01*
X103858180Y-152374433D01*
X103948631Y-152239065D01*
X104010934Y-152088651D01*
X104042696Y-151928973D01*
X104042696Y-151766167D01*
X104042696Y-151766164D01*
X104042695Y-151766162D01*
X104010936Y-151606496D01*
X104010933Y-151606487D01*
X103948633Y-151456079D01*
X103948632Y-151456077D01*
X103858180Y-151320707D01*
X103858177Y-151320703D01*
X103743062Y-151205588D01*
X103743058Y-151205585D01*
X103607688Y-151115133D01*
X103607686Y-151115132D01*
X103457278Y-151052832D01*
X103457269Y-151052829D01*
X103297602Y-151021070D01*
X103297599Y-151021070D01*
X103134793Y-151021070D01*
X103134790Y-151021070D01*
X102975122Y-151052829D01*
X102975113Y-151052832D01*
X102824705Y-151115132D01*
X102824703Y-151115133D01*
X102689333Y-151205585D01*
X102689329Y-151205588D01*
X102574214Y-151320703D01*
X102574211Y-151320707D01*
X102483759Y-151456077D01*
X102483758Y-151456079D01*
X102421458Y-151606487D01*
X102421455Y-151606496D01*
X102389696Y-151766162D01*
X100950196Y-151766162D01*
X100950196Y-139488902D01*
X123450296Y-139488902D01*
X123450296Y-140206237D01*
X123450297Y-140206238D01*
X123957529Y-140713470D01*
X124674864Y-140713469D01*
X125182096Y-140206237D01*
X125182095Y-139488902D01*
X133610296Y-139488902D01*
X133610296Y-140206237D01*
X133610297Y-140206238D01*
X134117529Y-140713470D01*
X134834864Y-140713469D01*
X135342096Y-140206237D01*
X135342095Y-139488902D01*
X134834863Y-138981670D01*
X134117528Y-138981670D01*
X133610296Y-139488902D01*
X125182095Y-139488902D01*
X124674863Y-138981670D01*
X123957528Y-138981670D01*
X123450296Y-139488902D01*
X100950196Y-139488902D01*
X100950196Y-136888902D01*
X123450296Y-136888902D01*
X123450296Y-137606237D01*
X123450297Y-137606238D01*
X123957529Y-138113470D01*
X124674864Y-138113469D01*
X125182096Y-137606237D01*
X125182095Y-136888902D01*
X133610296Y-136888902D01*
X133610296Y-137606237D01*
X133610297Y-137606238D01*
X134117529Y-138113470D01*
X134834864Y-138113469D01*
X135342096Y-137606237D01*
X135342095Y-136888902D01*
X134834863Y-136381670D01*
X134117528Y-136381670D01*
X133610296Y-136888902D01*
X125182095Y-136888902D01*
X124674863Y-136381670D01*
X123957528Y-136381670D01*
X123450296Y-136888902D01*
X100950196Y-136888902D01*
X100950196Y-127792689D01*
X112490696Y-127792689D01*
X112490696Y-127982450D01*
X112520378Y-128169859D01*
X112579016Y-128350326D01*
X112665162Y-128519393D01*
X112776686Y-128672894D01*
X112776690Y-128672899D01*
X112910866Y-128807075D01*
X112910871Y-128807079D01*
X113012428Y-128880864D01*
X113064376Y-128918606D01*
X113144470Y-128959416D01*
X113233439Y-129004749D01*
X113233441Y-129004749D01*
X113233444Y-129004751D01*
X113278400Y-129019358D01*
X113413906Y-129063387D01*
X113601316Y-129093070D01*
X113601321Y-129093070D01*
X113791076Y-129093070D01*
X113978485Y-129063387D01*
X114158948Y-129004751D01*
X114328016Y-128918606D01*
X114481527Y-128807074D01*
X114615700Y-128672901D01*
X114727232Y-128519390D01*
X114813377Y-128350322D01*
X114848265Y-128242948D01*
X114887703Y-128185272D01*
X114952061Y-128158074D01*
X115020908Y-128169989D01*
X115072383Y-128217233D01*
X115084127Y-128242948D01*
X115119014Y-128350320D01*
X115119016Y-128350324D01*
X115205162Y-128519393D01*
X115316686Y-128672894D01*
X115316690Y-128672899D01*
X115450866Y-128807075D01*
X115450871Y-128807079D01*
X115552428Y-128880864D01*
X115604376Y-128918606D01*
X115684470Y-128959416D01*
X115773439Y-129004749D01*
X115773441Y-129004749D01*
X115773444Y-129004751D01*
X115818400Y-129019358D01*
X115953906Y-129063387D01*
X116141316Y-129093070D01*
X116141321Y-129093070D01*
X116331076Y-129093070D01*
X116518485Y-129063387D01*
X116698948Y-129004751D01*
X116868016Y-128918606D01*
X117021527Y-128807074D01*
X117155700Y-128672901D01*
X117267232Y-128519390D01*
X117353377Y-128350322D01*
X117388265Y-128242948D01*
X117427703Y-128185272D01*
X117492061Y-128158074D01*
X117560908Y-128169989D01*
X117612383Y-128217233D01*
X117624127Y-128242948D01*
X117659014Y-128350320D01*
X117659016Y-128350324D01*
X117745162Y-128519393D01*
X117856686Y-128672894D01*
X117856690Y-128672899D01*
X117990866Y-128807075D01*
X117990871Y-128807079D01*
X118092428Y-128880864D01*
X118144376Y-128918606D01*
X118224470Y-128959416D01*
X118313439Y-129004749D01*
X118313441Y-129004749D01*
X118313444Y-129004751D01*
X118358400Y-129019358D01*
X118493906Y-129063387D01*
X118681316Y-129093070D01*
X118681321Y-129093070D01*
X118871076Y-129093070D01*
X119058485Y-129063387D01*
X119238948Y-129004751D01*
X119408016Y-128918606D01*
X119561527Y-128807074D01*
X119695700Y-128672901D01*
X119807232Y-128519390D01*
X119893377Y-128350322D01*
X119928265Y-128242948D01*
X119967703Y-128185272D01*
X120032061Y-128158074D01*
X120100908Y-128169989D01*
X120152383Y-128217233D01*
X120164127Y-128242948D01*
X120199014Y-128350320D01*
X120199016Y-128350324D01*
X120285162Y-128519393D01*
X120396686Y-128672894D01*
X120396690Y-128672899D01*
X120530866Y-128807075D01*
X120530871Y-128807079D01*
X120632428Y-128880864D01*
X120684376Y-128918606D01*
X120764470Y-128959416D01*
X120853439Y-129004749D01*
X120853441Y-129004749D01*
X120853444Y-129004751D01*
X120898400Y-129019358D01*
X121033906Y-129063387D01*
X121221316Y-129093070D01*
X121221321Y-129093070D01*
X121411076Y-129093070D01*
X121598485Y-129063387D01*
X121778948Y-129004751D01*
X121948016Y-128918606D01*
X122101527Y-128807074D01*
X122235700Y-128672901D01*
X122347232Y-128519390D01*
X122433377Y-128350322D01*
X122468265Y-128242948D01*
X122507703Y-128185272D01*
X122572061Y-128158074D01*
X122640908Y-128169989D01*
X122692383Y-128217233D01*
X122704127Y-128242948D01*
X122739014Y-128350320D01*
X122739016Y-128350324D01*
X122825162Y-128519393D01*
X122936686Y-128672894D01*
X122936690Y-128672899D01*
X123070866Y-128807075D01*
X123070871Y-128807079D01*
X123172428Y-128880864D01*
X123224376Y-128918606D01*
X123304470Y-128959416D01*
X123393439Y-129004749D01*
X123393441Y-129004749D01*
X123393444Y-129004751D01*
X123438400Y-129019358D01*
X123573906Y-129063387D01*
X123761316Y-129093070D01*
X123761321Y-129093070D01*
X123951076Y-129093070D01*
X124138485Y-129063387D01*
X124318948Y-129004751D01*
X124488016Y-128918606D01*
X124641527Y-128807074D01*
X124775700Y-128672901D01*
X124887232Y-128519390D01*
X124973377Y-128350322D01*
X125008265Y-128242948D01*
X125047703Y-128185272D01*
X125112061Y-128158074D01*
X125180908Y-128169989D01*
X125232383Y-128217233D01*
X125244127Y-128242948D01*
X125279014Y-128350320D01*
X125279016Y-128350324D01*
X125365162Y-128519393D01*
X125476686Y-128672894D01*
X125476690Y-128672899D01*
X125610866Y-128807075D01*
X125610871Y-128807079D01*
X125712428Y-128880864D01*
X125764376Y-128918606D01*
X125844470Y-128959416D01*
X125933439Y-129004749D01*
X125933441Y-129004749D01*
X125933444Y-129004751D01*
X125978400Y-129019358D01*
X126113906Y-129063387D01*
X126301316Y-129093070D01*
X126301321Y-129093070D01*
X126491076Y-129093070D01*
X126678485Y-129063387D01*
X126858948Y-129004751D01*
X127028016Y-128918606D01*
X127181527Y-128807074D01*
X127315700Y-128672901D01*
X127427232Y-128519390D01*
X127513377Y-128350322D01*
X127548265Y-128242948D01*
X127587703Y-128185272D01*
X127652061Y-128158074D01*
X127720908Y-128169989D01*
X127772383Y-128217233D01*
X127784127Y-128242948D01*
X127819014Y-128350320D01*
X127819016Y-128350324D01*
X127905162Y-128519393D01*
X128016686Y-128672894D01*
X128016690Y-128672899D01*
X128150866Y-128807075D01*
X128150871Y-128807079D01*
X128252428Y-128880864D01*
X128304376Y-128918606D01*
X128384470Y-128959416D01*
X128473439Y-129004749D01*
X128473441Y-129004749D01*
X128473444Y-129004751D01*
X128518400Y-129019358D01*
X128653906Y-129063387D01*
X128841316Y-129093070D01*
X128841321Y-129093070D01*
X129031076Y-129093070D01*
X129218485Y-129063387D01*
X129398948Y-129004751D01*
X129568016Y-128918606D01*
X129721527Y-128807074D01*
X129855700Y-128672901D01*
X129967232Y-128519390D01*
X130053377Y-128350322D01*
X130088265Y-128242948D01*
X130127703Y-128185272D01*
X130192061Y-128158074D01*
X130260908Y-128169989D01*
X130312383Y-128217233D01*
X130324127Y-128242948D01*
X130359014Y-128350320D01*
X130359016Y-128350324D01*
X130445162Y-128519393D01*
X130556686Y-128672894D01*
X130556690Y-128672899D01*
X130690866Y-128807075D01*
X130690871Y-128807079D01*
X130792428Y-128880864D01*
X130844376Y-128918606D01*
X130924470Y-128959416D01*
X131013439Y-129004749D01*
X131013441Y-129004749D01*
X131013444Y-129004751D01*
X131058400Y-129019358D01*
X131193906Y-129063387D01*
X131381316Y-129093070D01*
X131381321Y-129093070D01*
X131571076Y-129093070D01*
X131758485Y-129063387D01*
X131938948Y-129004751D01*
X132108016Y-128918606D01*
X132261527Y-128807074D01*
X132395700Y-128672901D01*
X132507232Y-128519390D01*
X132593377Y-128350322D01*
X132628265Y-128242948D01*
X132667703Y-128185272D01*
X132732061Y-128158074D01*
X132800908Y-128169989D01*
X132852383Y-128217233D01*
X132864127Y-128242948D01*
X132899014Y-128350320D01*
X132899016Y-128350324D01*
X132985162Y-128519393D01*
X133096686Y-128672894D01*
X133096690Y-128672899D01*
X133230866Y-128807075D01*
X133230871Y-128807079D01*
X133332428Y-128880864D01*
X133384376Y-128918606D01*
X133464470Y-128959416D01*
X133553439Y-129004749D01*
X133553441Y-129004749D01*
X133553444Y-129004751D01*
X133598400Y-129019358D01*
X133733906Y-129063387D01*
X133921316Y-129093070D01*
X133921321Y-129093070D01*
X134111076Y-129093070D01*
X134298485Y-129063387D01*
X134478948Y-129004751D01*
X134648016Y-128918606D01*
X134801527Y-128807074D01*
X134935700Y-128672901D01*
X135047232Y-128519390D01*
X135133377Y-128350322D01*
X135168265Y-128242948D01*
X135207703Y-128185272D01*
X135272061Y-128158074D01*
X135340908Y-128169989D01*
X135392383Y-128217233D01*
X135404127Y-128242948D01*
X135439014Y-128350320D01*
X135439016Y-128350324D01*
X135525162Y-128519393D01*
X135636686Y-128672894D01*
X135636690Y-128672899D01*
X135770866Y-128807075D01*
X135770871Y-128807079D01*
X135872428Y-128880864D01*
X135924376Y-128918606D01*
X136004470Y-128959416D01*
X136093439Y-129004749D01*
X136093441Y-129004749D01*
X136093444Y-129004751D01*
X136138400Y-129019358D01*
X136273906Y-129063387D01*
X136461316Y-129093070D01*
X136461321Y-129093070D01*
X136651076Y-129093070D01*
X136838485Y-129063387D01*
X137018948Y-129004751D01*
X137188016Y-128918606D01*
X137341527Y-128807074D01*
X137475700Y-128672901D01*
X137587232Y-128519390D01*
X137673377Y-128350322D01*
X137708265Y-128242948D01*
X137747703Y-128185272D01*
X137812061Y-128158074D01*
X137880908Y-128169989D01*
X137932383Y-128217233D01*
X137944127Y-128242948D01*
X137979014Y-128350320D01*
X137979016Y-128350324D01*
X138065162Y-128519393D01*
X138176686Y-128672894D01*
X138176690Y-128672899D01*
X138310866Y-128807075D01*
X138310871Y-128807079D01*
X138412428Y-128880864D01*
X138464376Y-128918606D01*
X138544470Y-128959416D01*
X138633439Y-129004749D01*
X138633441Y-129004749D01*
X138633444Y-129004751D01*
X138678400Y-129019358D01*
X138813906Y-129063387D01*
X139001316Y-129093070D01*
X139001321Y-129093070D01*
X139191076Y-129093070D01*
X139378485Y-129063387D01*
X139558948Y-129004751D01*
X139728016Y-128918606D01*
X139881527Y-128807074D01*
X140015700Y-128672901D01*
X140127232Y-128519390D01*
X140213377Y-128350322D01*
X140248265Y-128242948D01*
X140287703Y-128185272D01*
X140352061Y-128158074D01*
X140420908Y-128169989D01*
X140472383Y-128217233D01*
X140484127Y-128242948D01*
X140519014Y-128350320D01*
X140519016Y-128350324D01*
X140605162Y-128519393D01*
X140716686Y-128672894D01*
X140716690Y-128672899D01*
X140850866Y-128807075D01*
X140850871Y-128807079D01*
X140952428Y-128880864D01*
X141004376Y-128918606D01*
X141084470Y-128959416D01*
X141173439Y-129004749D01*
X141173441Y-129004749D01*
X141173444Y-129004751D01*
X141218400Y-129019358D01*
X141353906Y-129063387D01*
X141541316Y-129093070D01*
X141541321Y-129093070D01*
X141731076Y-129093070D01*
X141918485Y-129063387D01*
X142098948Y-129004751D01*
X142166001Y-128970585D01*
X142234667Y-128957690D01*
X142299407Y-128983966D01*
X142309973Y-128993389D01*
X156888614Y-143572031D01*
X156958277Y-143612251D01*
X157035975Y-143633070D01*
X157035976Y-143633070D01*
X169875976Y-143633070D01*
X175150670Y-143633070D01*
X175217709Y-143652755D01*
X175263464Y-143705559D01*
X175265231Y-143709617D01*
X175296807Y-143785850D01*
X175296812Y-143785859D01*
X175402689Y-143944314D01*
X175402692Y-143944318D01*
X175537447Y-144079073D01*
X175537451Y-144079076D01*
X175695906Y-144184953D01*
X175695919Y-144184960D01*
X175871982Y-144257887D01*
X175871987Y-144257889D01*
X175871991Y-144257889D01*
X175871992Y-144257890D01*
X176058903Y-144295070D01*
X176058906Y-144295070D01*
X177773488Y-144295070D01*
X177899238Y-144270055D01*
X177960405Y-144257889D01*
X178136479Y-144184957D01*
X178294941Y-144079076D01*
X178429702Y-143944315D01*
X178535583Y-143785853D01*
X178608515Y-143609779D01*
X178645696Y-143422860D01*
X178645696Y-143232280D01*
X178645696Y-143232277D01*
X178608516Y-143045366D01*
X178608515Y-143045365D01*
X178608515Y-143045361D01*
X178582134Y-142981671D01*
X178535586Y-142869293D01*
X178535579Y-142869280D01*
X178429702Y-142710825D01*
X178429699Y-142710821D01*
X178294944Y-142576066D01*
X178294940Y-142576063D01*
X178136485Y-142470186D01*
X178136472Y-142470179D01*
X177960409Y-142397252D01*
X177960399Y-142397249D01*
X177773488Y-142360070D01*
X177773486Y-142360070D01*
X176058906Y-142360070D01*
X176058904Y-142360070D01*
X175871992Y-142397249D01*
X175871982Y-142397252D01*
X175695919Y-142470179D01*
X175695906Y-142470186D01*
X175537451Y-142576063D01*
X175537447Y-142576066D01*
X175402692Y-142710821D01*
X175402689Y-142710825D01*
X175296812Y-142869280D01*
X175296807Y-142869289D01*
X175265231Y-142945523D01*
X175221390Y-142999926D01*
X175155096Y-143021991D01*
X175150670Y-143022070D01*
X157254101Y-143022070D01*
X157187062Y-143002385D01*
X157166420Y-142985751D01*
X154673994Y-140493325D01*
X165756696Y-140493325D01*
X165756696Y-142041814D01*
X165768617Y-142101749D01*
X165768618Y-142101750D01*
X165814038Y-142169727D01*
X165848026Y-142192437D01*
X165882014Y-142215147D01*
X165882015Y-142215147D01*
X165882016Y-142215148D01*
X165941951Y-142227069D01*
X165941955Y-142227070D01*
X165941956Y-142227070D01*
X167490437Y-142227070D01*
X167490438Y-142227069D01*
X167510597Y-142223059D01*
X167550375Y-142215148D01*
X167550375Y-142215147D01*
X167550378Y-142215147D01*
X167618353Y-142169727D01*
X167663773Y-142101752D01*
X167675696Y-142041810D01*
X167675696Y-140882862D01*
X175186695Y-140882862D01*
X175223875Y-141069773D01*
X175223878Y-141069783D01*
X175296805Y-141245846D01*
X175296812Y-141245859D01*
X175402689Y-141404314D01*
X175402692Y-141404318D01*
X175537447Y-141539073D01*
X175537451Y-141539076D01*
X175695906Y-141644953D01*
X175695919Y-141644960D01*
X175871982Y-141717887D01*
X175871987Y-141717889D01*
X175871991Y-141717889D01*
X175871992Y-141717890D01*
X176058903Y-141755070D01*
X176058906Y-141755070D01*
X177773488Y-141755070D01*
X177899238Y-141730055D01*
X177960405Y-141717889D01*
X178136479Y-141644957D01*
X178294941Y-141539076D01*
X178429702Y-141404315D01*
X178535583Y-141245853D01*
X178608515Y-141069779D01*
X178628882Y-140967388D01*
X178645696Y-140882862D01*
X178645696Y-140692277D01*
X178608516Y-140505366D01*
X178608515Y-140505365D01*
X178608515Y-140505361D01*
X178578704Y-140433390D01*
X178535586Y-140329293D01*
X178535579Y-140329280D01*
X178429702Y-140170825D01*
X178429699Y-140170821D01*
X178294944Y-140036066D01*
X178294940Y-140036063D01*
X178136485Y-139930186D01*
X178136472Y-139930179D01*
X177960409Y-139857252D01*
X177960399Y-139857249D01*
X177773488Y-139820070D01*
X177773486Y-139820070D01*
X176058906Y-139820070D01*
X176058904Y-139820070D01*
X175871992Y-139857249D01*
X175871982Y-139857252D01*
X175695919Y-139930179D01*
X175695906Y-139930186D01*
X175537451Y-140036063D01*
X175537447Y-140036066D01*
X175402692Y-140170821D01*
X175402689Y-140170825D01*
X175296812Y-140329280D01*
X175296805Y-140329293D01*
X175223878Y-140505356D01*
X175223875Y-140505366D01*
X175186696Y-140692277D01*
X175186696Y-140692280D01*
X175186696Y-140882860D01*
X175186696Y-140882862D01*
X175186695Y-140882862D01*
X167675696Y-140882862D01*
X167675696Y-140493330D01*
X167672788Y-140478710D01*
X167663774Y-140433390D01*
X167663773Y-140433389D01*
X167663773Y-140433388D01*
X167641063Y-140399400D01*
X167618353Y-140365412D01*
X167555427Y-140323367D01*
X167550378Y-140319993D01*
X167550377Y-140319992D01*
X167550376Y-140319992D01*
X167550375Y-140319991D01*
X167490440Y-140308070D01*
X167490436Y-140308070D01*
X165941956Y-140308070D01*
X165941951Y-140308070D01*
X165882016Y-140319991D01*
X165882015Y-140319992D01*
X165814038Y-140365412D01*
X165768618Y-140433389D01*
X165768617Y-140433390D01*
X165756696Y-140493325D01*
X154673994Y-140493325D01*
X152523531Y-138342862D01*
X175186695Y-138342862D01*
X175223875Y-138529773D01*
X175223878Y-138529783D01*
X175296805Y-138705846D01*
X175296812Y-138705859D01*
X175402689Y-138864314D01*
X175402692Y-138864318D01*
X175537447Y-138999073D01*
X175537451Y-138999076D01*
X175695906Y-139104953D01*
X175695919Y-139104960D01*
X175853822Y-139170365D01*
X175871987Y-139177889D01*
X175871991Y-139177889D01*
X175871992Y-139177890D01*
X176058903Y-139215070D01*
X176058906Y-139215070D01*
X177773488Y-139215070D01*
X177899238Y-139190055D01*
X177960405Y-139177889D01*
X178136479Y-139104957D01*
X178294941Y-138999076D01*
X178429702Y-138864315D01*
X178535583Y-138705853D01*
X178608515Y-138529779D01*
X178620681Y-138468612D01*
X178645696Y-138342862D01*
X178645696Y-138152277D01*
X178608516Y-137965366D01*
X178608515Y-137965365D01*
X178608515Y-137965361D01*
X178608513Y-137965356D01*
X178535586Y-137789293D01*
X178535579Y-137789280D01*
X178429702Y-137630825D01*
X178429699Y-137630821D01*
X178294944Y-137496066D01*
X178294940Y-137496063D01*
X178136485Y-137390186D01*
X178136472Y-137390179D01*
X177960409Y-137317252D01*
X177960399Y-137317249D01*
X177773488Y-137280070D01*
X177773486Y-137280070D01*
X176058906Y-137280070D01*
X176058904Y-137280070D01*
X175871992Y-137317249D01*
X175871982Y-137317252D01*
X175695919Y-137390179D01*
X175695906Y-137390186D01*
X175537451Y-137496063D01*
X175537447Y-137496066D01*
X175402692Y-137630821D01*
X175402689Y-137630825D01*
X175296812Y-137789280D01*
X175296805Y-137789293D01*
X175223878Y-137965356D01*
X175223875Y-137965366D01*
X175186696Y-138152277D01*
X175186696Y-138152280D01*
X175186696Y-138342860D01*
X175186696Y-138342862D01*
X175186695Y-138342862D01*
X152523531Y-138342862D01*
X150441243Y-136260574D01*
X150361689Y-136181020D01*
X152210696Y-136181020D01*
X152210696Y-136314120D01*
X152245145Y-136442686D01*
X152311695Y-136557954D01*
X152405812Y-136652071D01*
X152521080Y-136718621D01*
X152649646Y-136753070D01*
X152649648Y-136753070D01*
X152782744Y-136753070D01*
X152782746Y-136753070D01*
X152911312Y-136718621D01*
X153026580Y-136652071D01*
X153120697Y-136557954D01*
X153187247Y-136442686D01*
X153221696Y-136314120D01*
X153221696Y-136225473D01*
X153241381Y-136158434D01*
X153258015Y-136137792D01*
X155406419Y-133989389D01*
X155467742Y-133955904D01*
X155494100Y-133953070D01*
X165632696Y-133953070D01*
X165699735Y-133972755D01*
X165745490Y-134025559D01*
X165756696Y-134077070D01*
X165756696Y-134421814D01*
X165768617Y-134481749D01*
X165768618Y-134481750D01*
X165814038Y-134549727D01*
X165848026Y-134572437D01*
X165882014Y-134595147D01*
X165882015Y-134595147D01*
X165882016Y-134595148D01*
X165941951Y-134607069D01*
X165941955Y-134607070D01*
X165941956Y-134607070D01*
X167490437Y-134607070D01*
X167490438Y-134607069D01*
X167510597Y-134603059D01*
X167550375Y-134595148D01*
X167550375Y-134595147D01*
X167550378Y-134595147D01*
X167618353Y-134549727D01*
X167663773Y-134481752D01*
X167675696Y-134421810D01*
X167675696Y-132873330D01*
X167675587Y-132872786D01*
X167663774Y-132813390D01*
X167663773Y-132813388D01*
X167618353Y-132745412D01*
X167567486Y-132711424D01*
X167550378Y-132699993D01*
X167550377Y-132699992D01*
X167550376Y-132699992D01*
X167550375Y-132699991D01*
X167490440Y-132688070D01*
X167490436Y-132688070D01*
X165941956Y-132688070D01*
X165941951Y-132688070D01*
X165882016Y-132699991D01*
X165882015Y-132699992D01*
X165814038Y-132745412D01*
X165768619Y-132813388D01*
X165768617Y-132813390D01*
X165756696Y-132873325D01*
X165756696Y-133218070D01*
X165737011Y-133285109D01*
X165684207Y-133330864D01*
X165632696Y-133342070D01*
X155275976Y-133342070D01*
X155198273Y-133362890D01*
X155198271Y-133362891D01*
X155128621Y-133403105D01*
X155128612Y-133403111D01*
X152825972Y-135705751D01*
X152764649Y-135739236D01*
X152738291Y-135742070D01*
X152649646Y-135742070D01*
X152521080Y-135776519D01*
X152521077Y-135776520D01*
X152405815Y-135843067D01*
X152405809Y-135843071D01*
X152311697Y-135937183D01*
X152311693Y-135937189D01*
X152245146Y-136052451D01*
X152245145Y-136052454D01*
X152210696Y-136181020D01*
X150361689Y-136181020D01*
X142742016Y-128561348D01*
X142708531Y-128500025D01*
X142713515Y-128430333D01*
X142719205Y-128417386D01*
X142753377Y-128350322D01*
X142812013Y-128169859D01*
X142813880Y-128158074D01*
X142841696Y-127982450D01*
X142841696Y-127792689D01*
X142812013Y-127605280D01*
X142778827Y-127503146D01*
X142753377Y-127424818D01*
X142753375Y-127424815D01*
X142753375Y-127424813D01*
X142722121Y-127363477D01*
X142667232Y-127255750D01*
X142652982Y-127236137D01*
X142555705Y-127102245D01*
X142555701Y-127102240D01*
X142421525Y-126968064D01*
X142421520Y-126968060D01*
X142268019Y-126856536D01*
X142268018Y-126856535D01*
X142268016Y-126856534D01*
X142215220Y-126829633D01*
X142098952Y-126770390D01*
X141918485Y-126711752D01*
X141731076Y-126682070D01*
X141731071Y-126682070D01*
X141541321Y-126682070D01*
X141541316Y-126682070D01*
X141353906Y-126711752D01*
X141173439Y-126770390D01*
X141004372Y-126856536D01*
X140850871Y-126968060D01*
X140850866Y-126968064D01*
X140716690Y-127102240D01*
X140716686Y-127102245D01*
X140605162Y-127255746D01*
X140519016Y-127424813D01*
X140484127Y-127532192D01*
X140444689Y-127589867D01*
X140380330Y-127617065D01*
X140311484Y-127605150D01*
X140260008Y-127557906D01*
X140248265Y-127532192D01*
X140238827Y-127503146D01*
X140213377Y-127424818D01*
X140213375Y-127424815D01*
X140213375Y-127424813D01*
X140182121Y-127363477D01*
X140127232Y-127255750D01*
X140112982Y-127236137D01*
X140015705Y-127102245D01*
X140015701Y-127102240D01*
X139881525Y-126968064D01*
X139881520Y-126968060D01*
X139728019Y-126856536D01*
X139728018Y-126856535D01*
X139728016Y-126856534D01*
X139675220Y-126829633D01*
X139558952Y-126770390D01*
X139378485Y-126711752D01*
X139191076Y-126682070D01*
X139191071Y-126682070D01*
X139001321Y-126682070D01*
X139001316Y-126682070D01*
X138813906Y-126711752D01*
X138633439Y-126770390D01*
X138464372Y-126856536D01*
X138310871Y-126968060D01*
X138310866Y-126968064D01*
X138176690Y-127102240D01*
X138176686Y-127102245D01*
X138065162Y-127255746D01*
X137979016Y-127424813D01*
X137944127Y-127532192D01*
X137904689Y-127589867D01*
X137840330Y-127617065D01*
X137771484Y-127605150D01*
X137720008Y-127557906D01*
X137708265Y-127532192D01*
X137698827Y-127503146D01*
X137673377Y-127424818D01*
X137673375Y-127424815D01*
X137673375Y-127424813D01*
X137642121Y-127363477D01*
X137587232Y-127255750D01*
X137572982Y-127236137D01*
X137475705Y-127102245D01*
X137475701Y-127102240D01*
X137341525Y-126968064D01*
X137341520Y-126968060D01*
X137188019Y-126856536D01*
X137188018Y-126856535D01*
X137188016Y-126856534D01*
X137135220Y-126829633D01*
X137018952Y-126770390D01*
X136838485Y-126711752D01*
X136651076Y-126682070D01*
X136651071Y-126682070D01*
X136461321Y-126682070D01*
X136461316Y-126682070D01*
X136273906Y-126711752D01*
X136093439Y-126770390D01*
X135924372Y-126856536D01*
X135770871Y-126968060D01*
X135770866Y-126968064D01*
X135636690Y-127102240D01*
X135636686Y-127102245D01*
X135525162Y-127255746D01*
X135439016Y-127424813D01*
X135404127Y-127532192D01*
X135364689Y-127589867D01*
X135300330Y-127617065D01*
X135231484Y-127605150D01*
X135180008Y-127557906D01*
X135168265Y-127532192D01*
X135158827Y-127503146D01*
X135133377Y-127424818D01*
X135133375Y-127424815D01*
X135133375Y-127424813D01*
X135102121Y-127363477D01*
X135047232Y-127255750D01*
X135032982Y-127236137D01*
X134935705Y-127102245D01*
X134935701Y-127102240D01*
X134801525Y-126968064D01*
X134801520Y-126968060D01*
X134648019Y-126856536D01*
X134648018Y-126856535D01*
X134648016Y-126856534D01*
X134595220Y-126829633D01*
X134478952Y-126770390D01*
X134298485Y-126711752D01*
X134111076Y-126682070D01*
X134111071Y-126682070D01*
X133921321Y-126682070D01*
X133921316Y-126682070D01*
X133733906Y-126711752D01*
X133553439Y-126770390D01*
X133384372Y-126856536D01*
X133230871Y-126968060D01*
X133230866Y-126968064D01*
X133096690Y-127102240D01*
X133096686Y-127102245D01*
X132985162Y-127255746D01*
X132899016Y-127424813D01*
X132864127Y-127532192D01*
X132824689Y-127589867D01*
X132760330Y-127617065D01*
X132691484Y-127605150D01*
X132640008Y-127557906D01*
X132628265Y-127532192D01*
X132618827Y-127503146D01*
X132593377Y-127424818D01*
X132593375Y-127424815D01*
X132593375Y-127424813D01*
X132562121Y-127363477D01*
X132507232Y-127255750D01*
X132492982Y-127236137D01*
X132395705Y-127102245D01*
X132395701Y-127102240D01*
X132261525Y-126968064D01*
X132261520Y-126968060D01*
X132108019Y-126856536D01*
X132108018Y-126856535D01*
X132108016Y-126856534D01*
X132055220Y-126829633D01*
X131938952Y-126770390D01*
X131758485Y-126711752D01*
X131571076Y-126682070D01*
X131571071Y-126682070D01*
X131381321Y-126682070D01*
X131381316Y-126682070D01*
X131193906Y-126711752D01*
X131013439Y-126770390D01*
X130844372Y-126856536D01*
X130690871Y-126968060D01*
X130690866Y-126968064D01*
X130556690Y-127102240D01*
X130556686Y-127102245D01*
X130445162Y-127255746D01*
X130359016Y-127424813D01*
X130324127Y-127532192D01*
X130284689Y-127589867D01*
X130220330Y-127617065D01*
X130151484Y-127605150D01*
X130100008Y-127557906D01*
X130088265Y-127532192D01*
X130078827Y-127503146D01*
X130053377Y-127424818D01*
X130053375Y-127424815D01*
X130053375Y-127424813D01*
X130022121Y-127363477D01*
X129967232Y-127255750D01*
X129952982Y-127236137D01*
X129855705Y-127102245D01*
X129855701Y-127102240D01*
X129721525Y-126968064D01*
X129721520Y-126968060D01*
X129568019Y-126856536D01*
X129568018Y-126856535D01*
X129568016Y-126856534D01*
X129398948Y-126770389D01*
X129327376Y-126747133D01*
X129269702Y-126707696D01*
X129242504Y-126643337D01*
X129241696Y-126629203D01*
X129241696Y-124405474D01*
X129261381Y-124338435D01*
X129278015Y-124317793D01*
X129486163Y-124109645D01*
X129728380Y-123867427D01*
X129789701Y-123833944D01*
X129859392Y-123838928D01*
X129915326Y-123880799D01*
X129939743Y-123946264D01*
X129935833Y-123987203D01*
X129910696Y-124081020D01*
X129910696Y-124214120D01*
X129945145Y-124342686D01*
X130011695Y-124457954D01*
X130105812Y-124552071D01*
X130221080Y-124618621D01*
X130349646Y-124653070D01*
X130349648Y-124653070D01*
X130482744Y-124653070D01*
X130482746Y-124653070D01*
X130611312Y-124618621D01*
X130611319Y-124618616D01*
X130618826Y-124615509D01*
X130619448Y-124617011D01*
X130671473Y-124603070D01*
X146776160Y-124603070D01*
X146843199Y-124622755D01*
X146863841Y-124639389D01*
X148764377Y-126539925D01*
X148779080Y-126566852D01*
X148795673Y-126592671D01*
X148796564Y-126598871D01*
X148797862Y-126601248D01*
X148800696Y-126627606D01*
X148800696Y-126690707D01*
X148781011Y-126757746D01*
X148732992Y-126801190D01*
X148674864Y-126830809D01*
X148624372Y-126856536D01*
X148470871Y-126968060D01*
X148470866Y-126968064D01*
X148336690Y-127102240D01*
X148336686Y-127102245D01*
X148225162Y-127255746D01*
X148139016Y-127424813D01*
X148104127Y-127532192D01*
X148064689Y-127589867D01*
X148000330Y-127617065D01*
X147931484Y-127605150D01*
X147880008Y-127557906D01*
X147868265Y-127532192D01*
X147858827Y-127503146D01*
X147833377Y-127424818D01*
X147833375Y-127424815D01*
X147833375Y-127424813D01*
X147802121Y-127363477D01*
X147747232Y-127255750D01*
X147732982Y-127236137D01*
X147635705Y-127102245D01*
X147635701Y-127102240D01*
X147501525Y-126968064D01*
X147501520Y-126968060D01*
X147348019Y-126856536D01*
X147348018Y-126856535D01*
X147348016Y-126856534D01*
X147295220Y-126829633D01*
X147178952Y-126770390D01*
X146998485Y-126711752D01*
X146811076Y-126682070D01*
X146811071Y-126682070D01*
X146621321Y-126682070D01*
X146621316Y-126682070D01*
X146433906Y-126711752D01*
X146253439Y-126770390D01*
X146084372Y-126856536D01*
X145930871Y-126968060D01*
X145930866Y-126968064D01*
X145796690Y-127102240D01*
X145796686Y-127102245D01*
X145685162Y-127255746D01*
X145599016Y-127424813D01*
X145540378Y-127605280D01*
X145510696Y-127792689D01*
X145510696Y-127982450D01*
X145540378Y-128169859D01*
X145599016Y-128350326D01*
X145685162Y-128519393D01*
X145796686Y-128672894D01*
X145796690Y-128672899D01*
X145930866Y-128807075D01*
X145930871Y-128807079D01*
X146032428Y-128880864D01*
X146084376Y-128918606D01*
X146164470Y-128959416D01*
X146253439Y-129004749D01*
X146253441Y-129004749D01*
X146253444Y-129004751D01*
X146298400Y-129019358D01*
X146433906Y-129063387D01*
X146621316Y-129093070D01*
X146621321Y-129093070D01*
X146811076Y-129093070D01*
X146998485Y-129063387D01*
X147178948Y-129004751D01*
X147348016Y-128918606D01*
X147501527Y-128807074D01*
X147635700Y-128672901D01*
X147747232Y-128519390D01*
X147833377Y-128350322D01*
X147868265Y-128242948D01*
X147907703Y-128185272D01*
X147972061Y-128158074D01*
X148040908Y-128169989D01*
X148092383Y-128217233D01*
X148104127Y-128242948D01*
X148139014Y-128350320D01*
X148139016Y-128350324D01*
X148225162Y-128519393D01*
X148336686Y-128672894D01*
X148336690Y-128672899D01*
X148470866Y-128807075D01*
X148470871Y-128807079D01*
X148572428Y-128880864D01*
X148624376Y-128918606D01*
X148732992Y-128973949D01*
X148783787Y-129021923D01*
X148800696Y-129084433D01*
X148800696Y-130147538D01*
X148818537Y-130214120D01*
X148818536Y-130214120D01*
X148831736Y-130263381D01*
X148831738Y-130263386D01*
X148891705Y-130367253D01*
X150336512Y-131812061D01*
X150336513Y-131812062D01*
X150336515Y-131812063D01*
X150440374Y-131872026D01*
X150440376Y-131872026D01*
X150440379Y-131872028D01*
X150464861Y-131878587D01*
X150556228Y-131903070D01*
X150556229Y-131903070D01*
X172676162Y-131903070D01*
X172676164Y-131903070D01*
X172792012Y-131872028D01*
X172895879Y-131812061D01*
X174806283Y-129901657D01*
X174895680Y-129812261D01*
X174895681Y-129812258D01*
X180458151Y-124249788D01*
X180519474Y-124216303D01*
X180545832Y-124213469D01*
X181074864Y-124213469D01*
X181582096Y-123706237D01*
X181582095Y-122988902D01*
X181074863Y-122481670D01*
X180357528Y-122481670D01*
X179850296Y-122988902D01*
X179850296Y-123517933D01*
X179830611Y-123584972D01*
X179813977Y-123605614D01*
X174166697Y-129252894D01*
X172463841Y-130955751D01*
X172402518Y-130989236D01*
X172376160Y-130992070D01*
X150856233Y-130992070D01*
X150789194Y-130972385D01*
X150768552Y-130955751D01*
X149748015Y-129935214D01*
X149714530Y-129873891D01*
X149711696Y-129847533D01*
X149711696Y-129084433D01*
X149731381Y-129017394D01*
X149779399Y-128973949D01*
X149888016Y-128918606D01*
X150041527Y-128807074D01*
X150175700Y-128672901D01*
X150287232Y-128519390D01*
X150373377Y-128350322D01*
X150408265Y-128242948D01*
X150447703Y-128185272D01*
X150512061Y-128158074D01*
X150580908Y-128169989D01*
X150632383Y-128217233D01*
X150644127Y-128242948D01*
X150679014Y-128350320D01*
X150679016Y-128350324D01*
X150765162Y-128519393D01*
X150876686Y-128672894D01*
X150876690Y-128672899D01*
X151010866Y-128807075D01*
X151010871Y-128807079D01*
X151112428Y-128880864D01*
X151164376Y-128918606D01*
X151244470Y-128959416D01*
X151333439Y-129004749D01*
X151333441Y-129004749D01*
X151333444Y-129004751D01*
X151378400Y-129019358D01*
X151513906Y-129063387D01*
X151701316Y-129093070D01*
X151701321Y-129093070D01*
X151891076Y-129093070D01*
X152078485Y-129063387D01*
X152258948Y-129004751D01*
X152428016Y-128918606D01*
X152581527Y-128807074D01*
X152715700Y-128672901D01*
X152827232Y-128519390D01*
X152913377Y-128350322D01*
X152972013Y-128169859D01*
X152973880Y-128158074D01*
X153001696Y-127982450D01*
X153001696Y-127792689D01*
X152972013Y-127605280D01*
X152938827Y-127503146D01*
X152913377Y-127424818D01*
X152913375Y-127424815D01*
X152913375Y-127424813D01*
X152882121Y-127363477D01*
X152827232Y-127255750D01*
X152812982Y-127236137D01*
X152715705Y-127102245D01*
X152715701Y-127102240D01*
X152581525Y-126968064D01*
X152581520Y-126968060D01*
X152428019Y-126856536D01*
X152428018Y-126856535D01*
X152428016Y-126856534D01*
X152375220Y-126829633D01*
X152258952Y-126770390D01*
X152078485Y-126711752D01*
X151891076Y-126682070D01*
X151891071Y-126682070D01*
X151701321Y-126682070D01*
X151701316Y-126682070D01*
X151513906Y-126711752D01*
X151333439Y-126770390D01*
X151164372Y-126856536D01*
X151010871Y-126968060D01*
X151010866Y-126968064D01*
X150876690Y-127102240D01*
X150876686Y-127102245D01*
X150765162Y-127255746D01*
X150679016Y-127424813D01*
X150644127Y-127532192D01*
X150604689Y-127589867D01*
X150540330Y-127617065D01*
X150471484Y-127605150D01*
X150420008Y-127557906D01*
X150408265Y-127532192D01*
X150398827Y-127503146D01*
X150373377Y-127424818D01*
X150373375Y-127424815D01*
X150373375Y-127424813D01*
X150342121Y-127363477D01*
X150287232Y-127255750D01*
X150272982Y-127236137D01*
X150175705Y-127102245D01*
X150175701Y-127102240D01*
X150041525Y-126968064D01*
X150041520Y-126968060D01*
X149888019Y-126856536D01*
X149888018Y-126856535D01*
X149888016Y-126856534D01*
X149779399Y-126801190D01*
X149728605Y-126753217D01*
X149711696Y-126690707D01*
X149711696Y-126327603D01*
X149680654Y-126211754D01*
X149680654Y-126211752D01*
X149620689Y-126107889D01*
X149620685Y-126107884D01*
X147295880Y-123783080D01*
X147295879Y-123783079D01*
X147192012Y-123723112D01*
X147192013Y-123723112D01*
X147153396Y-123712764D01*
X147076164Y-123692070D01*
X147076162Y-123692070D01*
X130671473Y-123692070D01*
X130619448Y-123678128D01*
X130618826Y-123679631D01*
X130611314Y-123676520D01*
X130611313Y-123676519D01*
X130611312Y-123676519D01*
X130482746Y-123642070D01*
X130349646Y-123642070D01*
X130255829Y-123667208D01*
X130185979Y-123665545D01*
X130128117Y-123626382D01*
X130100613Y-123562153D01*
X130112200Y-123493251D01*
X130136050Y-123459757D01*
X130206421Y-123389386D01*
X130267743Y-123355904D01*
X130294100Y-123353070D01*
X162638292Y-123353070D01*
X162705331Y-123372755D01*
X162725973Y-123389389D01*
X169374377Y-130037793D01*
X169407862Y-130099116D01*
X169410696Y-130125474D01*
X169410696Y-130214120D01*
X169445145Y-130342686D01*
X169511695Y-130457954D01*
X169605812Y-130552071D01*
X169721080Y-130618621D01*
X169849646Y-130653070D01*
X169849648Y-130653070D01*
X169982744Y-130653070D01*
X169982746Y-130653070D01*
X170111312Y-130618621D01*
X170226580Y-130552071D01*
X170320697Y-130457954D01*
X170387247Y-130342686D01*
X170421696Y-130214120D01*
X170421696Y-130081020D01*
X170387247Y-129952454D01*
X170320697Y-129837186D01*
X170226580Y-129743069D01*
X170111312Y-129676519D01*
X169982746Y-129642070D01*
X169894100Y-129642070D01*
X169827061Y-129622385D01*
X169806419Y-129605751D01*
X165422276Y-125221608D01*
X170499500Y-125221608D01*
X170499500Y-125473531D01*
X170538910Y-125722355D01*
X170616760Y-125961953D01*
X170731132Y-126186418D01*
X170879201Y-126390219D01*
X170879205Y-126390224D01*
X171057345Y-126568364D01*
X171057350Y-126568368D01*
X171102606Y-126601248D01*
X171261155Y-126716440D01*
X171367036Y-126770389D01*
X171485616Y-126830809D01*
X171485618Y-126830809D01*
X171485621Y-126830811D01*
X171725215Y-126908660D01*
X171974038Y-126948070D01*
X171974039Y-126948070D01*
X172225961Y-126948070D01*
X172225962Y-126948070D01*
X172474785Y-126908660D01*
X172714379Y-126830811D01*
X172938845Y-126716440D01*
X173142656Y-126568363D01*
X173320793Y-126390226D01*
X173468870Y-126186415D01*
X173583241Y-125961949D01*
X173661090Y-125722355D01*
X173700500Y-125473532D01*
X173700500Y-125221608D01*
X173661090Y-124972785D01*
X173583241Y-124733191D01*
X173583239Y-124733188D01*
X173583239Y-124733186D01*
X173541747Y-124651754D01*
X173468870Y-124508725D01*
X173381632Y-124388652D01*
X173320798Y-124304920D01*
X173320794Y-124304915D01*
X173142654Y-124126775D01*
X173142649Y-124126771D01*
X172938848Y-123978702D01*
X172938847Y-123978701D01*
X172938845Y-123978700D01*
X172868747Y-123942983D01*
X172714383Y-123864330D01*
X172474785Y-123786480D01*
X172453306Y-123783078D01*
X172225962Y-123747070D01*
X171974038Y-123747070D01*
X171917158Y-123756079D01*
X171725214Y-123786480D01*
X171485616Y-123864330D01*
X171261151Y-123978702D01*
X171057350Y-124126771D01*
X171057345Y-124126775D01*
X170879205Y-124304915D01*
X170879201Y-124304920D01*
X170731132Y-124508721D01*
X170616760Y-124733186D01*
X170538910Y-124972784D01*
X170499500Y-125221608D01*
X165422276Y-125221608D01*
X163003779Y-122803111D01*
X163003777Y-122803109D01*
X163000655Y-122801306D01*
X162934120Y-122762891D01*
X162934118Y-122762890D01*
X162934115Y-122762889D01*
X162856416Y-122742070D01*
X130156416Y-122742070D01*
X130075976Y-122742070D01*
X129998273Y-122762890D01*
X129998271Y-122762891D01*
X129928621Y-122803105D01*
X129928612Y-122803111D01*
X128691737Y-124039986D01*
X128691731Y-124039995D01*
X128651517Y-124109645D01*
X128651516Y-124109647D01*
X128630696Y-124187350D01*
X128630696Y-126629203D01*
X128611011Y-126696242D01*
X128558207Y-126741997D01*
X128545017Y-126747133D01*
X128473444Y-126770389D01*
X128354864Y-126830809D01*
X128304372Y-126856536D01*
X128150871Y-126968060D01*
X128150866Y-126968064D01*
X128016690Y-127102240D01*
X128016686Y-127102245D01*
X127905162Y-127255746D01*
X127819016Y-127424813D01*
X127784127Y-127532192D01*
X127744689Y-127589867D01*
X127680330Y-127617065D01*
X127611484Y-127605150D01*
X127560008Y-127557906D01*
X127548265Y-127532192D01*
X127538827Y-127503146D01*
X127513377Y-127424818D01*
X127513375Y-127424815D01*
X127513375Y-127424813D01*
X127482121Y-127363477D01*
X127427232Y-127255750D01*
X127412982Y-127236137D01*
X127315705Y-127102245D01*
X127315701Y-127102240D01*
X127181525Y-126968064D01*
X127181520Y-126968060D01*
X127028019Y-126856536D01*
X127028018Y-126856535D01*
X127028016Y-126856534D01*
X126975220Y-126829633D01*
X126858952Y-126770390D01*
X126678485Y-126711752D01*
X126491076Y-126682070D01*
X126491071Y-126682070D01*
X126301321Y-126682070D01*
X126301316Y-126682070D01*
X126113906Y-126711752D01*
X125933439Y-126770390D01*
X125764372Y-126856536D01*
X125610871Y-126968060D01*
X125610866Y-126968064D01*
X125476690Y-127102240D01*
X125476686Y-127102245D01*
X125365162Y-127255746D01*
X125279016Y-127424813D01*
X125244127Y-127532192D01*
X125204689Y-127589867D01*
X125140330Y-127617065D01*
X125071484Y-127605150D01*
X125020008Y-127557906D01*
X125008265Y-127532192D01*
X124998827Y-127503146D01*
X124973377Y-127424818D01*
X124973375Y-127424815D01*
X124973375Y-127424813D01*
X124942121Y-127363477D01*
X124887232Y-127255750D01*
X124872982Y-127236137D01*
X124775705Y-127102245D01*
X124775701Y-127102240D01*
X124641525Y-126968064D01*
X124641520Y-126968060D01*
X124488019Y-126856536D01*
X124488018Y-126856535D01*
X124488016Y-126856534D01*
X124435220Y-126829633D01*
X124318952Y-126770390D01*
X124138485Y-126711752D01*
X123951076Y-126682070D01*
X123951071Y-126682070D01*
X123761321Y-126682070D01*
X123761316Y-126682070D01*
X123573906Y-126711752D01*
X123393439Y-126770390D01*
X123224372Y-126856536D01*
X123070871Y-126968060D01*
X123070866Y-126968064D01*
X122936690Y-127102240D01*
X122936686Y-127102245D01*
X122825162Y-127255746D01*
X122739016Y-127424813D01*
X122704127Y-127532192D01*
X122664689Y-127589867D01*
X122600330Y-127617065D01*
X122531484Y-127605150D01*
X122480008Y-127557906D01*
X122468265Y-127532192D01*
X122458827Y-127503146D01*
X122433377Y-127424818D01*
X122433375Y-127424815D01*
X122433375Y-127424813D01*
X122402121Y-127363477D01*
X122347232Y-127255750D01*
X122332982Y-127236137D01*
X122235705Y-127102245D01*
X122235701Y-127102240D01*
X122101525Y-126968064D01*
X122101520Y-126968060D01*
X121948019Y-126856536D01*
X121948018Y-126856535D01*
X121948016Y-126856534D01*
X121895220Y-126829633D01*
X121778952Y-126770390D01*
X121598485Y-126711752D01*
X121411076Y-126682070D01*
X121411071Y-126682070D01*
X121221321Y-126682070D01*
X121221316Y-126682070D01*
X121033906Y-126711752D01*
X120853439Y-126770390D01*
X120684372Y-126856536D01*
X120530871Y-126968060D01*
X120530866Y-126968064D01*
X120396690Y-127102240D01*
X120396686Y-127102245D01*
X120285162Y-127255746D01*
X120199016Y-127424813D01*
X120164127Y-127532192D01*
X120124689Y-127589867D01*
X120060330Y-127617065D01*
X119991484Y-127605150D01*
X119940008Y-127557906D01*
X119928265Y-127532192D01*
X119918827Y-127503146D01*
X119893377Y-127424818D01*
X119893375Y-127424815D01*
X119893375Y-127424813D01*
X119862121Y-127363477D01*
X119807232Y-127255750D01*
X119792982Y-127236137D01*
X119695705Y-127102245D01*
X119695701Y-127102240D01*
X119561525Y-126968064D01*
X119561520Y-126968060D01*
X119408019Y-126856536D01*
X119408018Y-126856535D01*
X119408016Y-126856534D01*
X119355220Y-126829633D01*
X119238952Y-126770390D01*
X119058485Y-126711752D01*
X118871076Y-126682070D01*
X118871071Y-126682070D01*
X118681321Y-126682070D01*
X118681316Y-126682070D01*
X118493906Y-126711752D01*
X118313439Y-126770390D01*
X118144372Y-126856536D01*
X117990871Y-126968060D01*
X117990866Y-126968064D01*
X117856690Y-127102240D01*
X117856686Y-127102245D01*
X117745162Y-127255746D01*
X117659016Y-127424813D01*
X117624127Y-127532192D01*
X117584689Y-127589867D01*
X117520330Y-127617065D01*
X117451484Y-127605150D01*
X117400008Y-127557906D01*
X117388265Y-127532192D01*
X117378827Y-127503146D01*
X117353377Y-127424818D01*
X117353375Y-127424815D01*
X117353375Y-127424813D01*
X117322121Y-127363477D01*
X117267232Y-127255750D01*
X117252982Y-127236137D01*
X117155705Y-127102245D01*
X117155701Y-127102240D01*
X117021525Y-126968064D01*
X117021520Y-126968060D01*
X116868019Y-126856536D01*
X116868018Y-126856535D01*
X116868016Y-126856534D01*
X116815220Y-126829633D01*
X116698952Y-126770390D01*
X116518485Y-126711752D01*
X116331076Y-126682070D01*
X116331071Y-126682070D01*
X116141321Y-126682070D01*
X116141316Y-126682070D01*
X115953906Y-126711752D01*
X115773439Y-126770390D01*
X115604372Y-126856536D01*
X115450871Y-126968060D01*
X115450866Y-126968064D01*
X115316690Y-127102240D01*
X115316686Y-127102245D01*
X115205162Y-127255746D01*
X115119016Y-127424813D01*
X115084127Y-127532192D01*
X115044689Y-127589867D01*
X114980330Y-127617065D01*
X114911484Y-127605150D01*
X114860008Y-127557906D01*
X114848265Y-127532192D01*
X114838827Y-127503146D01*
X114813377Y-127424818D01*
X114813375Y-127424815D01*
X114813375Y-127424813D01*
X114782121Y-127363477D01*
X114727232Y-127255750D01*
X114712982Y-127236137D01*
X114615705Y-127102245D01*
X114615701Y-127102240D01*
X114481525Y-126968064D01*
X114481520Y-126968060D01*
X114328019Y-126856536D01*
X114328018Y-126856535D01*
X114328016Y-126856534D01*
X114275220Y-126829633D01*
X114158952Y-126770390D01*
X113978485Y-126711752D01*
X113791076Y-126682070D01*
X113791071Y-126682070D01*
X113601321Y-126682070D01*
X113601316Y-126682070D01*
X113413906Y-126711752D01*
X113233439Y-126770390D01*
X113064372Y-126856536D01*
X112910871Y-126968060D01*
X112910866Y-126968064D01*
X112776690Y-127102240D01*
X112776686Y-127102245D01*
X112665162Y-127255746D01*
X112579016Y-127424813D01*
X112520378Y-127605280D01*
X112490696Y-127792689D01*
X100950196Y-127792689D01*
X100950196Y-124066162D01*
X102389696Y-124066162D01*
X102389696Y-124228977D01*
X102421455Y-124388643D01*
X102421458Y-124388652D01*
X102483758Y-124539060D01*
X102483759Y-124539062D01*
X102574211Y-124674432D01*
X102574214Y-124674436D01*
X102689329Y-124789551D01*
X102689333Y-124789554D01*
X102824701Y-124880005D01*
X102824702Y-124880005D01*
X102824703Y-124880006D01*
X102824705Y-124880007D01*
X102924977Y-124921540D01*
X102975115Y-124942308D01*
X102975117Y-124942308D01*
X102975122Y-124942310D01*
X103134788Y-124974069D01*
X103134791Y-124974070D01*
X103134793Y-124974070D01*
X103297601Y-124974070D01*
X103297602Y-124974069D01*
X103350825Y-124963482D01*
X103457269Y-124942310D01*
X103457272Y-124942308D01*
X103457277Y-124942308D01*
X103607691Y-124880005D01*
X103743059Y-124789554D01*
X103858180Y-124674433D01*
X103948631Y-124539065D01*
X104010934Y-124388651D01*
X104017805Y-124354112D01*
X104042695Y-124228977D01*
X104042696Y-124228975D01*
X104042696Y-124066164D01*
X104042695Y-124066162D01*
X104010936Y-123906496D01*
X104010933Y-123906487D01*
X103948633Y-123756079D01*
X103948632Y-123756077D01*
X103939940Y-123743069D01*
X103858180Y-123620707D01*
X103858177Y-123620703D01*
X103743062Y-123505588D01*
X103743058Y-123505585D01*
X103607688Y-123415133D01*
X103607686Y-123415132D01*
X103457278Y-123352832D01*
X103457269Y-123352829D01*
X103297602Y-123321070D01*
X103297599Y-123321070D01*
X103134793Y-123321070D01*
X103134790Y-123321070D01*
X102975122Y-123352829D01*
X102975113Y-123352832D01*
X102824705Y-123415132D01*
X102824703Y-123415133D01*
X102689333Y-123505585D01*
X102689329Y-123505588D01*
X102574214Y-123620703D01*
X102574211Y-123620707D01*
X102483759Y-123756077D01*
X102483758Y-123756079D01*
X102421458Y-123906487D01*
X102421455Y-123906496D01*
X102389696Y-124066162D01*
X100950196Y-124066162D01*
X100950196Y-122255070D01*
X100969881Y-122188031D01*
X101022685Y-122142276D01*
X101074196Y-122131070D01*
X142113616Y-122131070D01*
X187492241Y-122147525D01*
G37*
%TD.AperFunction*%
%TD*%
M02*
