M48
; DRILL file KiCad 10.0.5 date 2026-08-13T11:25:04
; FORMAT={-:-/ absolute / metric / decimal}
; #@! TF.CreationDate,2026-08-13T11:25:04+05:00
; #@! TF.GenerationSoftware,Kicad,Pcbnew,10.0.5
; #@! TF.FileFunction,Plated,1,2,PTH
FMAT,2
METRIC
; #@! TA.AperFunction,Plated,PTH,ViaDrill
T1C0.300
; #@! TA.AperFunction,Plated,PTH,ComponentDrill
T2C0.813
; #@! TA.AperFunction,Plated,PTH,ComponentDrill
T3C0.900
; #@! TA.AperFunction,Plated,PTH,ComponentDrill
T4C1.000
; #@! TA.AperFunction,Plated,PTH,ComponentDrill
T5C1.016
; #@! TA.AperFunction,Plated,PTH,ComponentDrill
T6C1.040
; #@! TA.AperFunction,Plated,PTH,ComponentDrill
T7C1.118
; #@! TA.AperFunction,Plated,PTH,ComponentDrill
T8C1.600
%
G90
G05
T1
X101.516Y-135.798
X102.116Y-140.648
X102.116Y-141.548
X102.116Y-142.548
X102.116Y-143.548
X102.116Y-144.448
X102.116Y-145.448
X102.316Y-135.798
X102.416Y-123.048
X102.416Y-124.048
X102.416Y-125.048
X102.416Y-129.798
X102.916Y-140.648
X102.916Y-141.548
X102.916Y-142.548
X102.916Y-143.548
X102.916Y-144.448
X102.916Y-145.448
X103.116Y-135.798
X103.216Y-123.048
X103.216Y-124.048
X103.216Y-125.048
X103.316Y-139.648
X103.316Y-147.848
X103.416Y-151.548
X103.416Y-153.048
X103.716Y-134.148
X103.716Y-140.648
X103.716Y-141.548
X103.716Y-142.548
X103.716Y-143.548
X103.716Y-144.448
X103.716Y-145.448
X103.916Y-135.798
X104.016Y-123.048
X104.016Y-124.048
X104.016Y-125.048
X104.216Y-151.548
X104.216Y-153.048
X104.516Y-140.648
X104.516Y-141.548
X104.516Y-142.548
X104.516Y-143.548
X104.516Y-144.448
X104.516Y-145.448
X104.816Y-123.048
X104.816Y-124.048
X104.816Y-125.048
X104.916Y-129.848
X105.016Y-135.798
X105.016Y-151.548
X105.016Y-153.048
X105.63Y-123.08
X105.63Y-124.08
X105.63Y-125.08
X105.816Y-151.548
X105.816Y-153.048
X105.916Y-135.798
X106.416Y-123.048
X106.416Y-124.048
X106.416Y-125.048
X106.666Y-135.798
X106.716Y-140.848
X107.316Y-123.148
X107.316Y-124.048
X107.316Y-125.048
X107.416Y-135.798
X108.016Y-126.048
X108.016Y-127.048
X108.016Y-128.048
X108.016Y-129.048
X108.016Y-130.048
X108.116Y-123.148
X108.116Y-124.048
X108.116Y-125.048
X108.816Y-126.048
X108.816Y-127.048
X108.816Y-128.048
X108.816Y-129.048
X108.816Y-130.048
X108.916Y-123.148
X108.916Y-124.048
X108.916Y-125.048
X109.616Y-126.048
X109.616Y-127.048
X109.616Y-128.048
X109.616Y-129.048
X109.616Y-130.048
X109.616Y-153.048
X109.716Y-123.148
X109.716Y-124.048
X109.716Y-125.048
X110.416Y-126.048
X110.416Y-127.048
X110.416Y-128.048
X110.416Y-129.048
X110.416Y-130.048
X110.416Y-153.048
X110.516Y-123.148
X110.516Y-124.048
X110.516Y-125.048
X111.216Y-153.048
X111.316Y-123.148
X111.316Y-124.048
X111.316Y-125.048
X111.416Y-130.048
X111.416Y-133.048
X112.016Y-153.048
X112.116Y-123.148
X112.116Y-124.048
X112.116Y-125.048
X112.216Y-130.048
X112.416Y-134.048
X112.416Y-138.748
X112.416Y-139.648
X112.416Y-140.648
X112.416Y-141.648
X112.416Y-142.548
X112.916Y-123.148
X112.916Y-124.048
X112.916Y-125.048
X112.916Y-150.548
X113.016Y-130.048
X113.416Y-135.048
X113.716Y-150.548
X113.816Y-123.148
X113.816Y-124.048
X113.816Y-125.048
X113.816Y-130.048
X114.416Y-136.048
X114.516Y-150.548
X114.516Y-153.048
X114.616Y-123.148
X114.616Y-124.048
X114.616Y-125.048
X114.916Y-130.048
X114.916Y-141.448
X114.916Y-142.348
X114.916Y-143.348
X115.016Y-132.048
X115.316Y-150.548
X115.316Y-153.048
X115.416Y-123.148
X115.416Y-124.048
X115.416Y-125.048
X115.416Y-137.048
X115.516Y-133.048
X115.716Y-130.048
X115.816Y-132.048
X116.016Y-134.048
X116.116Y-153.048
X116.216Y-123.148
X116.216Y-124.048
X116.216Y-125.048
X116.316Y-133.048
X116.416Y-150.548
X116.516Y-130.048
X116.616Y-132.048
X116.816Y-134.048
X116.916Y-153.048
X117.016Y-135.048
X117.116Y-123.148
X117.116Y-124.048
X117.116Y-125.048
X117.116Y-133.048
X117.216Y-150.548
X117.316Y-130.048
X117.416Y-132.048
X117.616Y-134.048
X117.816Y-135.048
X117.916Y-123.148
X117.916Y-124.048
X117.916Y-125.048
X117.916Y-133.048
X118.016Y-150.548
X118.316Y-130.048
X118.416Y-134.048
X118.616Y-135.048
X118.716Y-123.148
X118.716Y-124.048
X118.716Y-125.048
X118.816Y-150.548
X119.016Y-153.048
X119.116Y-130.048
X119.416Y-135.048
X119.516Y-123.148
X119.516Y-124.048
X119.516Y-125.048
X119.816Y-153.048
X119.916Y-130.048
X119.916Y-150.548
X120.216Y-143.748
X120.216Y-144.648
X120.216Y-145.648
X120.516Y-123.148
X120.516Y-124.048
X120.516Y-125.048
X120.516Y-141.048
X120.616Y-153.048
X120.716Y-130.048
X120.716Y-150.548
X121.016Y-136.048
X121.016Y-137.048
X121.016Y-138.048
X121.016Y-139.048
X121.016Y-143.748
X121.016Y-144.648
X121.016Y-145.648
X121.316Y-123.148
X121.316Y-124.048
X121.316Y-125.048
X121.416Y-153.048
X121.516Y-150.548
X121.816Y-136.048
X121.816Y-137.048
X121.816Y-138.048
X121.816Y-139.048
X121.816Y-143.748
X121.816Y-144.648
X121.816Y-145.648
X122.116Y-123.148
X122.116Y-124.048
X122.116Y-125.048
X122.316Y-150.548
X122.616Y-136.048
X122.616Y-137.048
X122.616Y-138.048
X122.616Y-139.048
X122.616Y-143.748
X122.616Y-144.648
X122.616Y-145.648
X122.916Y-123.148
X122.916Y-124.048
X122.916Y-125.048
X123.416Y-136.048
X123.416Y-137.048
X123.416Y-138.048
X123.416Y-139.048
X123.416Y-150.548
X123.516Y-153.048
X124.016Y-123.148
X124.016Y-124.048
X124.016Y-125.048
X124.016Y-130.548
X124.216Y-150.548
X124.316Y-153.048
X124.816Y-123.148
X124.816Y-124.048
X124.816Y-125.048
X124.816Y-130.548
X125.016Y-150.548
X125.116Y-153.048
X125.616Y-123.148
X125.616Y-124.048
X125.616Y-125.048
X125.616Y-130.548
X125.816Y-150.548
X125.916Y-153.048
X126.416Y-123.148
X126.416Y-124.048
X126.416Y-125.048
X126.416Y-130.548
X127.416Y-150.548
X127.516Y-123.148
X127.516Y-124.048
X127.516Y-125.048
X128.016Y-153.048
X128.216Y-150.548
X128.316Y-123.148
X128.316Y-124.048
X128.316Y-125.048
X128.416Y-144.048
X128.416Y-144.948
X128.816Y-153.048
X129.016Y-150.548
X129.116Y-123.148
X129.116Y-124.048
X129.116Y-125.048
X129.216Y-144.048
X129.216Y-144.948
X129.616Y-153.048
X129.816Y-150.548
X129.916Y-123.148
X129.916Y-124.048
X129.916Y-125.048
X130.016Y-144.048
X130.016Y-144.948
X130.416Y-153.048
X130.816Y-144.048
X130.816Y-144.948
X131.016Y-123.148
X131.016Y-124.048
X131.016Y-125.048
X131.416Y-129.898
X131.416Y-130.798
X131.816Y-123.148
X131.816Y-124.048
X131.816Y-125.048
X132.016Y-150.548
X132.216Y-129.898
X132.216Y-130.798
X132.516Y-153.048
X132.616Y-123.148
X132.616Y-124.048
X132.616Y-125.048
X132.816Y-150.548
X133.016Y-129.898
X133.016Y-130.798
X133.316Y-153.048
X133.416Y-123.148
X133.416Y-124.048
X133.416Y-125.048
X133.616Y-150.548
X133.816Y-129.898
X133.816Y-130.798
X134.116Y-153.048
X134.416Y-150.548
X134.516Y-123.148
X134.516Y-124.048
X134.516Y-125.048
X134.616Y-135.548
X134.616Y-136.448
X134.616Y-137.448
X134.916Y-153.048
X135.316Y-123.148
X135.316Y-124.048
X135.316Y-125.048
X135.416Y-135.548
X135.416Y-136.448
X135.416Y-137.448
X136.116Y-123.148
X136.116Y-124.048
X136.116Y-125.048
X136.216Y-135.548
X136.216Y-136.448
X136.216Y-137.448
X136.516Y-153.048
X136.916Y-123.148
X136.916Y-124.048
X136.916Y-125.048
X137.016Y-135.548
X137.016Y-136.448
X137.016Y-137.448
X137.316Y-153.048
X138.116Y-153.048
X138.266Y-123.048
X138.916Y-137.648
X138.916Y-138.548
X138.916Y-153.048
X139.066Y-123.048
X139.716Y-137.648
X139.716Y-138.548
X139.866Y-123.048
X140.516Y-137.648
X140.516Y-138.548
X140.516Y-153.048
X140.666Y-123.048
X140.916Y-143.048
X140.916Y-143.948
X140.916Y-145.048
X140.916Y-145.948
X141.016Y-125.798
X141.316Y-137.648
X141.316Y-138.548
X141.316Y-153.048
X141.666Y-123.048
X141.716Y-143.048
X141.716Y-143.948
X141.716Y-145.048
X141.716Y-145.948
X141.816Y-125.798
X142.116Y-153.048
X142.466Y-123.048
X142.516Y-143.048
X142.516Y-143.948
X142.516Y-145.048
X142.516Y-145.948
X142.616Y-125.798
X142.916Y-153.048
X143.266Y-123.048
X143.316Y-143.048
X143.316Y-143.948
X143.316Y-145.048
X143.316Y-145.948
X143.416Y-125.798
X143.916Y-134.398
X143.916Y-135.298
X144.066Y-123.048
X144.416Y-125.798
X144.516Y-153.048
X144.716Y-134.398
X144.716Y-135.298
X144.766Y-123.048
X145.016Y-137.648
X145.016Y-138.548
X145.216Y-125.798
X145.316Y-153.048
X145.516Y-134.398
X145.516Y-135.298
X145.566Y-123.048
X145.816Y-137.648
X145.816Y-138.548
X146.016Y-125.798
X146.116Y-153.048
X146.316Y-134.398
X146.316Y-135.298
X146.366Y-123.048
X146.616Y-137.648
X146.616Y-138.548
X146.816Y-125.798
X146.916Y-153.048
X147.166Y-123.048
X147.416Y-137.648
X147.416Y-138.548
X147.516Y-125.048
X147.516Y-125.798
X147.666Y-134.398
X147.666Y-135.298
X147.916Y-143.148
X147.916Y-144.048
X147.916Y-145.148
X147.916Y-146.048
X147.916Y-147.148
X147.916Y-148.048
X147.916Y-149.148
X147.916Y-150.048
X148.266Y-123.048
X148.316Y-125.048
X148.316Y-125.798
X148.466Y-134.398
X148.466Y-135.298
X148.716Y-143.148
X148.716Y-144.048
X148.716Y-145.148
X148.716Y-146.048
X148.716Y-147.148
X148.716Y-148.048
X148.716Y-149.148
X148.716Y-150.048
X149.016Y-153.048
X149.066Y-123.048
X149.116Y-125.048
X149.116Y-125.798
X149.266Y-134.398
X149.266Y-135.298
X149.516Y-143.148
X149.516Y-144.048
X149.516Y-145.148
X149.516Y-146.048
X149.516Y-147.148
X149.516Y-148.048
X149.516Y-149.148
X149.516Y-150.048
X149.616Y-130.548
X149.816Y-153.048
X149.866Y-123.048
X149.916Y-125.048
X149.916Y-125.798
X150.066Y-134.398
X150.066Y-135.298
X150.316Y-143.148
X150.316Y-144.048
X150.316Y-145.148
X150.316Y-146.048
X150.316Y-147.148
X150.316Y-148.048
X150.316Y-149.148
X150.316Y-150.048
X150.416Y-130.548
X150.616Y-153.048
X150.666Y-123.048
X150.916Y-125.048
X151.216Y-130.548
X151.416Y-153.048
X151.616Y-134.398
X151.616Y-135.298
X151.666Y-123.048
X151.716Y-125.048
X152.016Y-130.548
X152.416Y-134.398
X152.416Y-135.298
X152.466Y-123.048
X152.516Y-125.048
X152.516Y-137.648
X152.516Y-138.548
X153.116Y-130.548
X153.216Y-134.398
X153.216Y-135.298
X153.266Y-123.048
X153.316Y-125.048
X153.316Y-137.648
X153.316Y-138.548
X153.916Y-130.548
X154.016Y-125.048
X154.016Y-134.398
X154.016Y-135.298
X154.016Y-142.848
X154.016Y-143.748
X154.016Y-144.748
X154.016Y-147.748
X154.016Y-148.648
X154.016Y-149.648
X154.066Y-123.048
X154.116Y-137.648
X154.116Y-138.548
X154.716Y-130.548
X154.766Y-123.048
X154.816Y-125.048
X154.816Y-142.848
X154.816Y-143.748
X154.816Y-144.748
X154.816Y-147.748
X154.816Y-148.648
X154.816Y-149.648
X154.916Y-137.648
X154.916Y-138.548
X155.516Y-130.548
X155.566Y-123.048
X155.566Y-134.398
X155.566Y-135.298
X155.616Y-125.048
X155.616Y-142.848
X155.616Y-143.748
X155.616Y-144.748
X155.616Y-147.748
X155.616Y-148.648
X155.616Y-149.648
X156.366Y-123.048
X156.366Y-134.398
X156.366Y-135.298
X156.416Y-125.048
X156.416Y-126.148
X156.416Y-126.948
X156.416Y-127.748
X156.416Y-128.548
X156.416Y-142.848
X156.416Y-143.748
X156.416Y-144.748
X156.416Y-147.748
X156.416Y-148.648
X156.416Y-149.648
X157.166Y-134.398
X157.166Y-135.298
X157.666Y-142.898
X157.666Y-143.798
X157.666Y-144.798
X157.666Y-147.648
X157.666Y-148.548
X157.666Y-149.548
X157.816Y-125.148
X157.816Y-126.048
X157.816Y-127.048
X157.816Y-128.148
X157.816Y-129.048
X157.816Y-130.048
X157.966Y-134.398
X157.966Y-135.298
X158.466Y-142.898
X158.466Y-143.798
X158.466Y-144.798
X158.466Y-147.648
X158.466Y-148.548
X158.466Y-149.548
X158.616Y-125.148
X158.616Y-126.048
X158.616Y-127.048
X158.616Y-128.148
X158.616Y-129.048
X158.616Y-130.048
X159.266Y-142.898
X159.266Y-143.798
X159.266Y-144.798
X159.266Y-147.648
X159.266Y-148.548
X159.266Y-149.548
X159.416Y-125.148
X159.416Y-126.048
X159.416Y-127.048
X159.416Y-128.148
X159.416Y-129.048
X159.416Y-130.048
X160.066Y-142.898
X160.066Y-143.798
X160.066Y-144.798
X160.066Y-147.648
X160.066Y-148.548
X160.066Y-149.548
X160.216Y-125.148
X160.216Y-126.048
X160.216Y-127.048
X160.216Y-128.148
X160.216Y-129.048
X160.216Y-130.048
X160.316Y-138.948
X161.066Y-142.898
X161.066Y-143.798
X161.066Y-144.798
X161.066Y-145.648
X161.066Y-146.548
X161.066Y-147.548
X161.316Y-125.148
X161.316Y-126.048
X161.316Y-127.048
X161.316Y-128.148
X161.316Y-129.048
X161.316Y-130.048
X161.866Y-142.898
X161.866Y-143.798
X161.866Y-144.798
X161.866Y-145.648
X161.866Y-146.548
X161.866Y-147.548
X162.116Y-125.148
X162.116Y-126.048
X162.116Y-127.048
X162.116Y-128.148
X162.116Y-129.048
X162.116Y-130.048
X162.666Y-142.898
X162.666Y-143.798
X162.666Y-144.798
X162.666Y-145.648
X162.666Y-146.548
X162.666Y-147.548
X162.916Y-125.148
X162.916Y-126.048
X162.916Y-127.048
X162.916Y-128.148
X162.916Y-129.048
X162.916Y-130.048
X163.166Y-135.298
X163.166Y-137.798
X163.466Y-142.898
X163.466Y-143.798
X163.466Y-144.798
X163.466Y-145.648
X163.466Y-146.548
X163.466Y-147.548
X163.716Y-125.148
X163.716Y-126.048
X163.716Y-127.048
X163.716Y-128.148
X163.716Y-129.048
X163.716Y-130.048
X164.316Y-142.898
X164.316Y-143.798
X164.316Y-144.798
X164.766Y-128.148
X164.766Y-129.048
X164.766Y-130.048
X165.116Y-142.898
X165.116Y-143.798
X165.116Y-144.798
X165.566Y-128.148
X165.566Y-129.048
X165.566Y-130.048
X165.916Y-135.298
X165.916Y-137.798
X165.916Y-142.898
X165.916Y-143.798
X165.916Y-144.798
X166.366Y-128.148
X166.366Y-129.048
X166.366Y-130.048
X166.716Y-142.898
X166.716Y-143.798
X166.716Y-144.798
X166.766Y-147.398
X166.766Y-148.298
X166.766Y-149.298
X167.166Y-128.148
X167.166Y-129.048
X167.166Y-130.048
X167.566Y-147.398
X167.566Y-148.298
X167.566Y-149.298
X167.916Y-135.298
X167.916Y-137.798
X168.016Y-123.148
X168.016Y-124.048
X168.016Y-125.048
X168.016Y-142.898
X168.016Y-143.798
X168.366Y-147.398
X168.366Y-148.298
X168.366Y-149.298
X168.666Y-131.048
X168.816Y-123.148
X168.816Y-124.048
X168.816Y-125.048
X168.816Y-142.898
X168.816Y-143.798
X169.166Y-149.298
X169.416Y-141.298
X169.616Y-123.148
X169.616Y-142.898
X169.616Y-143.798
X170.416Y-142.898
X170.416Y-143.798
X170.666Y-135.298
X170.666Y-137.798
X178.916Y-131.308
X178.916Y-141.048
X194.016Y-136.748
X209.116Y-123.248
T2
X116.956Y-136.648
X116.956Y-139.248
X119.836Y-133.048
X127.116Y-136.648
X127.116Y-139.248
X129.996Y-133.048
X136.516Y-142.932
X136.516Y-144.964
X178.436Y-150.948
X183.516Y-150.948
X187.716Y-140.518
X187.716Y-150.678
X190.216Y-131.758
X190.216Y-136.838
X211.736Y-137.948
X217.916Y-124.868
X217.916Y-135.028
X221.896Y-137.948
X221.916Y-124.868
X221.916Y-135.028
T3
X207.776Y-129.918
X212.176Y-127.378
T4
X164.516Y-133.538
X164.516Y-141.158
X218.816Y-150.248
T5
X186.623Y-126.798
X201.609Y-126.798
T6
X113.696Y-127.888
X113.696Y-148.208
X116.236Y-127.888
X116.236Y-148.208
X118.776Y-127.888
X118.776Y-148.208
X121.316Y-127.888
X121.316Y-148.208
X123.856Y-127.888
X123.856Y-148.208
X126.396Y-127.888
X126.396Y-148.208
X128.936Y-127.888
X128.936Y-148.208
X131.476Y-127.888
X131.476Y-148.208
X134.016Y-127.888
X134.016Y-148.208
X136.556Y-127.888
X136.556Y-148.208
X139.096Y-127.888
X139.096Y-148.208
X141.636Y-127.888
X141.636Y-148.208
X144.176Y-127.888
X146.716Y-127.888
X149.256Y-127.888
X151.796Y-127.888
T7
X191.416Y-140.618
X191.416Y-150.778
X195.216Y-140.718
X195.216Y-150.878
X199.016Y-140.718
X199.016Y-150.878
X202.916Y-140.718
X202.916Y-150.878
X206.916Y-137.668
X206.916Y-147.828
T8
X214.806Y-143.548
X222.426Y-143.548
M30
