%TF.GenerationSoftware,KiCad,Pcbnew,10.0.5*%
%TF.CreationDate,2026-08-13T11:25:06+05:00*%
%TF.ProjectId,geiger,67656967-6572-42e6-9b69-6361645f7063,rev?*%
%TF.SameCoordinates,Original*%
%TF.FileFunction,Soldermask,Top*%
%TF.FilePolarity,Negative*%
%FSLAX46Y46*%
G04 Gerber Fmt 4.6, Leading zero omitted, Abs format (unit mm)*
G04 Created by KiCad (PCBNEW 10.0.5) date 2026-08-13 11:25:06*
%MOMM*%
%LPD*%
G01*
G04 APERTURE LIST*
G04 Aperture macros list*
%AMRoundRect*
0 Rectangle with rounded corners*
0 $1 Rounding radius*
0 $2 $3 $4 $5 $6 $7 $8 $9 X,Y pos of 4 corners*
0 Add a 4 corners polygon primitive as box body*
4,1,4,$2,$3,$4,$5,$6,$7,$8,$9,$2,$3,0*
0 Add four circle primitives for the rounded corners*
1,1,$1+$1,$2,$3*
1,1,$1+$1,$4,$5*
1,1,$1+$1,$6,$7*
1,1,$1+$1,$8,$9*
0 Add four rect primitives between the rounded corners*
20,1,$1+$1,$2,$3,$4,$5,0*
20,1,$1+$1,$4,$5,$6,$7,0*
20,1,$1+$1,$6,$7,$8,$9,0*
20,1,$1+$1,$8,$9,$2,$3,0*%
%AMFreePoly0*
4,1,25,0.351325,0.786196,0.363448,0.775842,0.775842,0.363448,0.804349,0.307500,0.805600,0.291606,0.805600,-0.291606,0.786196,-0.351325,0.775842,-0.363448,0.363448,-0.775842,0.307500,-0.804349,0.291606,-0.805600,-0.291606,-0.805600,-0.351325,-0.786196,-0.363448,-0.775842,-0.775842,-0.363448,-0.804349,-0.307500,-0.805600,-0.291606,-0.805600,0.291606,-0.786196,0.351325,-0.775842,0.363448,
-0.363448,0.775842,-0.307500,0.804349,-0.291606,0.805600,0.291606,0.805600,0.351325,0.786196,0.351325,0.786196,$1*%
%AMFreePoly1*
4,1,25,0.333266,0.742596,0.345389,0.732242,0.732242,0.345389,0.760749,0.289441,0.762000,0.273547,0.762000,-0.273547,0.742596,-0.333266,0.732242,-0.345389,0.345389,-0.732242,0.289441,-0.760749,0.273547,-0.762000,-0.273547,-0.762000,-0.333266,-0.742596,-0.345389,-0.732242,-0.732242,-0.345389,-0.760749,-0.289441,-0.762000,-0.273547,-0.762000,0.273547,-0.742596,0.333266,-0.732242,0.345389,
-0.345389,0.732242,-0.289441,0.760749,-0.273547,0.762000,0.273547,0.762000,0.333266,0.742596,0.333266,0.742596,$1*%
%AMFreePoly2*
4,1,25,0.322745,0.717196,0.334868,0.706842,0.706842,0.334868,0.735349,0.278920,0.736600,0.263026,0.736600,-0.263026,0.717196,-0.322745,0.706842,-0.334868,0.334868,-0.706842,0.278920,-0.735349,0.263026,-0.736600,-0.263026,-0.736600,-0.322745,-0.717196,-0.334868,-0.706842,-0.706842,-0.334868,-0.735349,-0.278920,-0.736600,-0.263026,-0.736600,0.263026,-0.717196,0.322745,-0.706842,0.334868,
-0.334868,0.706842,-0.278920,0.735349,-0.263026,0.736600,0.263026,0.736600,0.322745,0.717196,0.322745,0.717196,$1*%
%AMFreePoly3*
4,1,25,0.375350,0.844196,0.387473,0.833842,0.833842,0.387473,0.862349,0.331525,0.863600,0.315631,0.863600,-0.315631,0.844196,-0.375350,0.833842,-0.387473,0.387473,-0.833842,0.331525,-0.862349,0.315631,-0.863600,-0.315631,-0.863600,-0.375350,-0.844196,-0.387473,-0.833842,-0.833842,-0.387473,-0.862349,-0.331525,-0.863600,-0.315631,-0.863600,0.315631,-0.844196,0.375350,-0.833842,0.387473,
-0.387473,0.833842,-0.331525,0.862349,-0.315631,0.863600,0.315631,0.863600,0.375350,0.844196,0.375350,0.844196,$1*%
G04 Aperture macros list end*
%ADD10C,2.700000*%
%ADD11FreePoly0,210.000000*%
%ADD12FreePoly1,0.000000*%
%ADD13FreePoly1,270.000000*%
%ADD14RoundRect,0.101600X-1.200000X-1.200000X1.200000X-1.200000X1.200000X1.200000X-1.200000X1.200000X0*%
%ADD15C,2.000000*%
%ADD16FreePoly1,180.000000*%
%ADD17C,1.879600*%
%ADD18RoundRect,0.101600X-1.117500X0.609500X-1.117500X-0.609500X1.117500X-0.609500X1.117500X0.609500X0*%
%ADD19RoundRect,0.101600X-1.100000X1.800000X-1.100000X-1.800000X1.100000X-1.800000X1.100000X1.800000X0*%
%ADD20RoundRect,0.150000X-0.625000X0.150000X-0.625000X-0.150000X0.625000X-0.150000X0.625000X0.150000X0*%
%ADD21RoundRect,0.250000X-0.650000X0.350000X-0.650000X-0.350000X0.650000X-0.350000X0.650000X0.350000X0*%
%ADD22RoundRect,0.101600X0.754000X-0.754000X0.754000X0.754000X-0.754000X0.754000X-0.754000X-0.754000X0*%
%ADD23FreePoly1,90.000000*%
%ADD24RoundRect,0.250000X-1.500000X0.250000X-1.500000X-0.250000X1.500000X-0.250000X1.500000X0.250000X0*%
%ADD25RoundRect,0.250001X-1.449999X0.499999X-1.449999X-0.499999X1.449999X-0.499999X1.449999X0.499999X0*%
%ADD26C,1.473200*%
%ADD27FreePoly2,90.000000*%
%ADD28FreePoly3,180.000000*%
G04 APERTURE END LIST*
D10*
%TO.C,REF\u002A\u002A*%
X172105222Y-147450356D03*
%TD*%
%TO.C,REF\u002A\u002A*%
X172105222Y-125355960D03*
%TD*%
D11*
%TO.C,L1*%
X212175900Y-127377571D03*
X207776492Y-129917569D03*
%TD*%
D12*
%TO.C,R7*%
X116956196Y-139247570D03*
X127116196Y-139247570D03*
%TD*%
D13*
%TO.C,R1*%
X187716196Y-140517570D03*
X187716196Y-150677570D03*
%TD*%
D14*
%TO.C,SBM-19/20*%
X214806196Y-143547570D03*
X222426196Y-143547570D03*
%TD*%
D15*
%TO.C,U2*%
X141636196Y-148207570D03*
X139096196Y-148207570D03*
X136556196Y-148207570D03*
X134016196Y-148207570D03*
X131476196Y-148207570D03*
X128936196Y-148207570D03*
X126396196Y-148207570D03*
X123856196Y-148207570D03*
X121316196Y-148207570D03*
X118776196Y-148207570D03*
X116236196Y-148207570D03*
X113696196Y-148207570D03*
X113696196Y-127887570D03*
X116236196Y-127887570D03*
X118776196Y-127887570D03*
X121316196Y-127887570D03*
X123856196Y-127887570D03*
X126396196Y-127887570D03*
X128936196Y-127887570D03*
X131476196Y-127887570D03*
X134016196Y-127887570D03*
X136556196Y-127887570D03*
X139096196Y-127887570D03*
X141636196Y-127887570D03*
X144176196Y-127887570D03*
X146716196Y-127887570D03*
X149256196Y-127887570D03*
X151796196Y-127887570D03*
%TD*%
D16*
%TO.C,C2*%
X183516196Y-150947570D03*
X178436196Y-150947570D03*
%TD*%
%TO.C,R6*%
X127116196Y-136647570D03*
X116956196Y-136647570D03*
%TD*%
D12*
%TO.C,R5*%
X119836196Y-133047570D03*
X129996196Y-133047570D03*
%TD*%
D17*
%TO.C,D3*%
X191416196Y-150777570D03*
X191416196Y-140617570D03*
%TD*%
D18*
%TO.C,U1*%
X195918196Y-132136570D03*
X195918196Y-134447570D03*
X195918196Y-136758570D03*
D19*
X202116196Y-134447570D03*
%TD*%
D17*
%TO.C,D2*%
X195216196Y-140717570D03*
X195216196Y-150877570D03*
%TD*%
D13*
%TO.C,R3*%
X221916196Y-124867570D03*
X221916196Y-135027570D03*
%TD*%
D17*
%TO.C,D6*%
X206916196Y-147827570D03*
X206916196Y-137667570D03*
%TD*%
D20*
%TO.C,J2*%
X106291196Y-129847570D03*
X106291196Y-130847570D03*
X106291196Y-131847570D03*
X106291196Y-132847570D03*
D21*
X102416196Y-128547570D03*
X102416196Y-134147570D03*
%TD*%
D13*
%TO.C,C4*%
X190216196Y-131757570D03*
X190216196Y-136837570D03*
%TD*%
D17*
%TO.C,D1*%
X199016196Y-150877570D03*
X199016196Y-140717570D03*
%TD*%
%TO.C,D4*%
X202916196Y-140717570D03*
X202916196Y-150877570D03*
%TD*%
D22*
%TO.C,PIEZO_KL1*%
X164516196Y-141157570D03*
X164516196Y-133537570D03*
%TD*%
D12*
%TO.C,R4*%
X211736196Y-137947570D03*
X221896196Y-137947570D03*
%TD*%
D23*
%TO.C,R2*%
X217916196Y-135027570D03*
X217916196Y-124867570D03*
%TD*%
D24*
%TO.C,J1*%
X109066196Y-140797570D03*
X109066196Y-142797570D03*
X109066196Y-144797570D03*
X109066196Y-146797570D03*
D25*
X103316196Y-138447570D03*
X103316196Y-149147570D03*
%TD*%
D15*
%TO.C,J3*%
X218816196Y-150247570D03*
%TD*%
D26*
%TO.C,C1*%
X136516196Y-144963570D03*
D27*
X136516196Y-142931570D03*
%TD*%
D28*
%TO.C,C3*%
X201609196Y-126797570D03*
X186623196Y-126797570D03*
%TD*%
M02*
