%TF.GenerationSoftware,KiCad,Pcbnew,10.0.5*%
%TF.CreationDate,2026-08-13T11:25:06+05:00*%
%TF.ProjectId,geiger,67656967-6572-42e6-9b69-6361645f7063,rev?*%
%TF.SameCoordinates,Original*%
%TF.FileFunction,Copper,L1,Top*%
%TF.FilePolarity,Positive*%
%FSLAX46Y46*%
G04 Gerber Fmt 4.6, Leading zero omitted, Abs format (unit mm)*
G04 Created by KiCad (PCBNEW 10.0.5) date 2026-08-13 11:25:06*
%MOMM*%
%LPD*%
G01*
G04 APERTURE LIST*
G04 Aperture macros list*
%AMRoundRect*
0 Rectangle with rounded corners*
0 $1 Rounding radius*
0 $2 $3 $4 $5 $6 $7 $8 $9 X,Y pos of 4 corners*
0 Add a 4 corners polygon primitive as box body*
4,1,4,$2,$3,$4,$5,$6,$7,$8,$9,$2,$3,0*
0 Add four circle primitives for the rounded corners*
1,1,$1+$1,$2,$3*
1,1,$1+$1,$4,$5*
1,1,$1+$1,$6,$7*
1,1,$1+$1,$8,$9*
0 Add four rect primitives between the rounded corners*
20,1,$1+$1,$2,$3,$4,$5,0*
20,1,$1+$1,$4,$5,$6,$7,0*
20,1,$1+$1,$6,$7,$8,$9,0*
20,1,$1+$1,$8,$9,$2,$3,0*%
%AMOutline5P*
0 Free polygon, 5 corners , with rotation*
0 The origin of the aperture is its center*
0 number of corners: always 5*
0 $1 to $10 corner X, Y*
0 $11 Rotation angle, in degrees counterclockwise*
0 create outline with 5 corners*
4,1,5,$1,$2,$3,$4,$5,$6,$7,$8,$9,$10,$1,$2,$11*%
%AMOutline6P*
0 Free polygon, 6 corners , with rotation*
0 The origin of the aperture is its center*
0 number of corners: always 6*
0 $1 to $12 corner X, Y*
0 $13 Rotation angle, in degrees counterclockwise*
0 create outline with 6 corners*
4,1,6,$1,$2,$3,$4,$5,$6,$7,$8,$9,$10,$11,$12,$1,$2,$13*%
%AMOutline7P*
0 Free polygon, 7 corners , with rotation*
0 The origin of the aperture is its center*
0 number of corners: always 7*
0 $1 to $14 corner X, Y*
0 $15 Rotation angle, in degrees counterclockwise*
0 create outline with 7 corners*
4,1,7,$1,$2,$3,$4,$5,$6,$7,$8,$9,$10,$11,$12,$13,$14,$1,$2,$15*%
%AMOutline8P*
0 Free polygon, 8 corners , with rotation*
0 The origin of the aperture is its center*
0 number of corners: always 8*
0 $1 to $16 corner X, Y*
0 $17 Rotation angle, in degrees counterclockwise*
0 create outline with 8 corners*
4,1,8,$1,$2,$3,$4,$5,$6,$7,$8,$9,$10,$11,$12,$13,$14,$15,$16,$1,$2,$17*%
G04 Aperture macros list end*
%TA.AperFunction,ComponentPad*%
%ADD10Outline8P,-0.704000X0.291606X-0.291606X0.704000X0.291606X0.704000X0.704000X0.291606X0.704000X-0.291606X0.291606X-0.704000X-0.291606X-0.704000X-0.704000X-0.291606X210.000000*%
%TD*%
%TA.AperFunction,ComponentPad*%
%ADD11Outline8P,-0.660400X0.273547X-0.273547X0.660400X0.273547X0.660400X0.660400X0.273547X0.660400X-0.273547X0.273547X-0.660400X-0.273547X-0.660400X-0.660400X-0.273547X0.000000*%
%TD*%
%TA.AperFunction,ComponentPad*%
%ADD12Outline8P,-0.660400X0.273547X-0.273547X0.660400X0.273547X0.660400X0.660400X0.273547X0.660400X-0.273547X0.273547X-0.660400X-0.273547X-0.660400X-0.660400X-0.273547X270.000000*%
%TD*%
%TA.AperFunction,ComponentPad*%
%ADD13R,2.400000X2.400000*%
%TD*%
%TA.AperFunction,ComponentPad*%
%ADD14C,2.000000*%
%TD*%
%TA.AperFunction,ComponentPad*%
%ADD15Outline8P,-0.660400X0.273547X-0.273547X0.660400X0.273547X0.660400X0.660400X0.273547X0.660400X-0.273547X0.273547X-0.660400X-0.273547X-0.660400X-0.660400X-0.273547X180.000000*%
%TD*%
%TA.AperFunction,ComponentPad*%
%ADD16C,1.676400*%
%TD*%
%TA.AperFunction,SMDPad,CuDef*%
%ADD17R,2.235000X1.219000*%
%TD*%
%TA.AperFunction,SMDPad,CuDef*%
%ADD18R,2.200000X3.600000*%
%TD*%
%TA.AperFunction,SMDPad,CuDef*%
%ADD19RoundRect,0.150000X-0.625000X0.150000X-0.625000X-0.150000X0.625000X-0.150000X0.625000X0.150000X0*%
%TD*%
%TA.AperFunction,SMDPad,CuDef*%
%ADD20RoundRect,0.250000X-0.650000X0.350000X-0.650000X-0.350000X0.650000X-0.350000X0.650000X0.350000X0*%
%TD*%
%TA.AperFunction,ComponentPad*%
%ADD21R,1.508000X1.508000*%
%TD*%
%TA.AperFunction,ComponentPad*%
%ADD22Outline8P,-0.660400X0.273547X-0.273547X0.660400X0.273547X0.660400X0.660400X0.273547X0.660400X-0.273547X0.273547X-0.660400X-0.273547X-0.660400X-0.660400X-0.273547X90.000000*%
%TD*%
%TA.AperFunction,SMDPad,CuDef*%
%ADD23RoundRect,0.250000X-1.500000X0.250000X-1.500000X-0.250000X1.500000X-0.250000X1.500000X0.250000X0*%
%TD*%
%TA.AperFunction,SMDPad,CuDef*%
%ADD24RoundRect,0.250001X-1.449999X0.499999X-1.449999X-0.499999X1.449999X-0.499999X1.449999X0.499999X0*%
%TD*%
%TA.AperFunction,ComponentPad*%
%ADD25C,1.270000*%
%TD*%
%TA.AperFunction,ComponentPad*%
%ADD26Outline8P,-0.635000X0.263026X-0.263026X0.635000X0.263026X0.635000X0.635000X0.263026X0.635000X-0.263026X0.263026X-0.635000X-0.263026X-0.635000X-0.635000X-0.263026X90.000000*%
%TD*%
%TA.AperFunction,ComponentPad*%
%ADD27Outline8P,-0.762000X0.315631X-0.315631X0.762000X0.315631X0.762000X0.762000X0.315631X0.762000X-0.315631X0.315631X-0.762000X-0.315631X-0.762000X-0.762000X-0.315631X180.000000*%
%TD*%
%TA.AperFunction,ViaPad*%
%ADD28C,0.600000*%
%TD*%
%TA.AperFunction,Conductor*%
%ADD29C,0.200000*%
%TD*%
%TA.AperFunction,Conductor*%
%ADD30C,0.500000*%
%TD*%
G04 APERTURE END LIST*
D10*
%TO.P,L1,1,1_1*%
%TO.N,+5V*%
X212175900Y-127377571D03*
%TO.P,L1,2,2_2*%
%TO.N,Net-(D1-K)*%
X207776492Y-129917569D03*
%TD*%
D11*
%TO.P,R7,1*%
%TO.N,/SCL*%
X116956196Y-139247570D03*
%TO.P,R7,2*%
%TO.N,+3V3*%
X127116196Y-139247570D03*
%TD*%
D12*
%TO.P,R1,1*%
%TO.N,/HV_CAP_FUL*%
X187716196Y-140517570D03*
%TO.P,R1,2*%
%TO.N,GND*%
X187716196Y-150677570D03*
%TD*%
D13*
%TO.P,SBM-19/20,P1,1_P1*%
%TO.N,Net-(SBM-19/20-1)*%
X214806196Y-143547570D03*
%TO.P,SBM-19/20,P2,2_P2*%
%TO.N,unconnected-(SBM-19/20-2-PadP2)*%
X222426196Y-143547570D03*
%TD*%
D14*
%TO.P,U2,1,BAT_1*%
%TO.N,unconnected-(U2-BAT-Pad1)*%
X141636196Y-148207570D03*
%TO.P,U2,2,EN_2*%
%TO.N,unconnected-(U2-EN-Pad2)*%
X139096196Y-148207570D03*
%TO.P,U2,3,5V_3*%
%TO.N,+5V*%
X136556196Y-148207570D03*
%TO.P,U2,4,13_4*%
%TO.N,unconnected-(U2-13-Pad4)*%
X134016196Y-148207570D03*
%TO.P,U2,5,12_5*%
%TO.N,unconnected-(U2-12-Pad5)*%
X131476196Y-148207570D03*
%TO.P,U2,6,11_6*%
%TO.N,unconnected-(U2-11-Pad6)*%
X128936196Y-148207570D03*
%TO.P,U2,7,1O_7*%
%TO.N,/SPEAKER_P*%
X126396196Y-148207570D03*
%TO.P,U2,8,9_8*%
%TO.N,/SPEAKER_N*%
X123856196Y-148207570D03*
%TO.P,U2,9,6_9*%
%TO.N,unconnected-(U2-6-Pad9)*%
X121316196Y-148207570D03*
%TO.P,U2,10,5_10*%
%TO.N,unconnected-(U2-5-Pad10)*%
X118776196Y-148207570D03*
%TO.P,U2,11,SCL_11*%
%TO.N,/SCL*%
X116236196Y-148207570D03*
%TO.P,U2,12,SDA_12*%
%TO.N,/SDA*%
X113696196Y-148207570D03*
%TO.P,U2,13,DB_13*%
%TO.N,unconnected-(U2-DB-Pad13)*%
X113696196Y-127887570D03*
%TO.P,U2,14,TX_14*%
%TO.N,unconnected-(U2-TX-Pad14)*%
X116236196Y-127887570D03*
%TO.P,U2,15,RX_15*%
%TO.N,unconnected-(U2-RX-Pad15)*%
X118776196Y-127887570D03*
%TO.P,U2,16*%
%TO.N,N/C*%
X121316196Y-127887570D03*
%TO.P,U2,17,MO_17*%
%TO.N,unconnected-(U2-MO-Pad17)*%
X123856196Y-127887570D03*
%TO.P,U2,18,SCK_18*%
%TO.N,unconnected-(U2-SCK-Pad18)*%
X126396196Y-127887570D03*
%TO.P,U2,19,A5_19*%
%TO.N,/GMZ_COUNT*%
X128936196Y-127887570D03*
%TO.P,U2,20,A4_20*%
%TO.N,unconnected-(U2-A4-Pad20)*%
X131476196Y-127887570D03*
%TO.P,U2,21,A3_21*%
%TO.N,unconnected-(U2-A3-Pad21)*%
X134016196Y-127887570D03*
%TO.P,U2,22,A2_22*%
%TO.N,unconnected-(U2-A2-Pad22)*%
X136556196Y-127887570D03*
%TO.P,U2,23,A1_23*%
%TO.N,/HV_FET_OUT*%
X139096196Y-127887570D03*
%TO.P,U2,24,A0_24*%
%TO.N,/HV_CAP_FUL*%
X141636196Y-127887570D03*
%TO.P,U2,25,GND_25*%
%TO.N,GND*%
X144176196Y-127887570D03*
%TO.P,U2,26,3V3_26*%
%TO.N,unconnected-(U2-3V3-Pad26)*%
X146716196Y-127887570D03*
%TO.P,U2,27,3V3_27*%
%TO.N,+3V3*%
X149256196Y-127887570D03*
%TO.P,U2,28,RST_28*%
%TO.N,unconnected-(U2-RST-Pad28)*%
X151796196Y-127887570D03*
%TD*%
D15*
%TO.P,C2,1*%
%TO.N,/HV_CAP_FUL*%
X183516196Y-150947570D03*
%TO.P,C2,2*%
%TO.N,GND*%
X178436196Y-150947570D03*
%TD*%
%TO.P,R6,1*%
%TO.N,+3V3*%
X127116196Y-136647570D03*
%TO.P,R6,2*%
%TO.N,/SDA*%
X116956196Y-136647570D03*
%TD*%
D11*
%TO.P,R5,1*%
%TO.N,+3V3*%
X119836196Y-133047570D03*
%TO.P,R5,2*%
%TO.N,/GMZ_COUNT*%
X129996196Y-133047570D03*
%TD*%
D16*
%TO.P,D3,A,A_A*%
%TO.N,GND*%
X191416196Y-150777570D03*
%TO.P,D3,C,K_C*%
%TO.N,/HV_CAP_FUL*%
X191416196Y-140617570D03*
%TD*%
D17*
%TO.P,U1,1,G_1*%
%TO.N,/HV_FET_OUT*%
X195918196Y-132136570D03*
%TO.P,U1,2,D_2*%
%TO.N,Net-(D1-K)*%
X195918196Y-134447570D03*
%TO.P,U1,3,S_3*%
%TO.N,GND*%
X195918196Y-136758570D03*
D18*
%TO.P,U1,4,D_4*%
%TO.N,Net-(D1-K)*%
X202116196Y-134447570D03*
%TD*%
D16*
%TO.P,D2,A,A_A*%
%TO.N,/HV_CAP_FUL*%
X195216196Y-140717570D03*
%TO.P,D2,C,K_C*%
%TO.N,Net-(D2-K)*%
X195216196Y-150877570D03*
%TD*%
D12*
%TO.P,R3,1*%
%TO.N,Net-(C4-Pad1)*%
X221916196Y-124867570D03*
%TO.P,R3,2*%
%TO.N,Net-(R3-Pad2)*%
X221916196Y-135027570D03*
%TD*%
D16*
%TO.P,D6,A,A_A*%
%TO.N,Net-(D4-K)*%
X206916196Y-147827570D03*
%TO.P,D6,C,C_C*%
%TO.N,Net-(C3-Pad1)*%
X206916196Y-137667570D03*
%TD*%
D19*
%TO.P,J2,1,Pin_1_1*%
%TO.N,GND*%
X106291196Y-129847570D03*
%TO.P,J2,2,Pin_2_2*%
%TO.N,+3V3*%
X106291196Y-130847570D03*
%TO.P,J2,3,Pin_3_3*%
%TO.N,/SDA*%
X106291196Y-131847570D03*
%TO.P,J2,4,Pin_4_4*%
%TO.N,/SCL*%
X106291196Y-132847570D03*
D20*
%TO.P,J2,MP,MountPin_MP*%
%TO.N,GND*%
X102416196Y-128547570D03*
X102416196Y-134147570D03*
%TD*%
D12*
%TO.P,C4,1*%
%TO.N,Net-(C4-Pad1)*%
X190216196Y-131757570D03*
%TO.P,C4,2*%
%TO.N,/GMZ_COUNT*%
X190216196Y-136837570D03*
%TD*%
D16*
%TO.P,D1,A,A_A*%
%TO.N,Net-(D2-K)*%
X199016196Y-150877570D03*
%TO.P,D1,C,K_C*%
%TO.N,Net-(D1-K)*%
X199016196Y-140717570D03*
%TD*%
%TO.P,D4,A,A_A*%
%TO.N,Net-(D1-K)*%
X202916196Y-140717570D03*
%TO.P,D4,C,K_C*%
%TO.N,Net-(D4-K)*%
X202916196Y-150877570D03*
%TD*%
D21*
%TO.P,PIEZO_KL1,P1,P1_P1*%
%TO.N,/SPEAKER_P*%
X164516196Y-141157570D03*
%TO.P,PIEZO_KL1,P2,P2_P2*%
%TO.N,/SPEAKER_N*%
X164516196Y-133537570D03*
%TD*%
D11*
%TO.P,R4,1*%
%TO.N,Net-(SBM-19/20-1)*%
X211736196Y-137947570D03*
%TO.P,R4,2*%
%TO.N,Net-(R3-Pad2)*%
X221896196Y-137947570D03*
%TD*%
D22*
%TO.P,R2,1*%
%TO.N,Net-(C3-Pad1)*%
X217916196Y-135027570D03*
%TO.P,R2,2*%
%TO.N,Net-(C4-Pad1)*%
X217916196Y-124867570D03*
%TD*%
D23*
%TO.P,J1,1,Pin_1_1*%
%TO.N,GND*%
X109066196Y-140797570D03*
%TO.P,J1,2,Pin_2_2*%
%TO.N,+5V*%
X109066196Y-142797570D03*
%TO.P,J1,3,Pin_3_3*%
%TO.N,/SDA*%
X109066196Y-144797570D03*
%TO.P,J1,4,Pin_4_4*%
%TO.N,/SCL*%
X109066196Y-146797570D03*
D24*
%TO.P,J1,MP,MountPin_MP*%
%TO.N,GND*%
X103316196Y-138447570D03*
X103316196Y-149147570D03*
%TD*%
D14*
%TO.P,J3,1,Pin_1_1*%
%TO.N,GND*%
X218816196Y-150247570D03*
%TD*%
D25*
%TO.P,C1,+*%
%TO.N,+5V*%
X136516196Y-144963570D03*
D26*
%TO.P,C1,-*%
%TO.N,GND*%
X136516196Y-142931570D03*
%TD*%
D27*
%TO.P,C3,1*%
%TO.N,Net-(C3-Pad1)*%
X201609196Y-126797570D03*
%TO.P,C3,2*%
%TO.N,GND*%
X186623196Y-126797570D03*
%TD*%
D28*
%TO.N,+5V*%
X178916196Y-131307570D03*
X209116196Y-123247570D03*
X178916196Y-141047570D03*
%TO.N,/SCL*%
X120516196Y-141047570D03*
%TO.N,/HV_CAP_FUL*%
X168666196Y-131047570D03*
X169416196Y-141297570D03*
%TO.N,GND*%
X151616196Y-134397570D03*
X144716196Y-134397570D03*
X103716196Y-145447570D03*
X111416196Y-133047570D03*
X160066196Y-144797570D03*
X149516196Y-145147570D03*
X102916196Y-145447570D03*
X113716196Y-150547570D03*
X163716196Y-129047570D03*
X155616196Y-144747570D03*
X111316196Y-123147570D03*
X164766196Y-129047570D03*
X135416196Y-137447570D03*
X156366196Y-134397570D03*
X112916196Y-124047570D03*
X127516196Y-124047570D03*
X163716196Y-127047570D03*
X120716196Y-130047570D03*
X146616196Y-138547570D03*
X150666196Y-123047570D03*
X107416196Y-135797570D03*
X167166196Y-129047570D03*
X114916196Y-141447570D03*
X168366196Y-149297570D03*
X105016196Y-153047570D03*
X157816196Y-128147570D03*
X161316196Y-127047570D03*
X165566196Y-130047570D03*
X144766196Y-123047570D03*
X154016196Y-125047570D03*
X115416196Y-124047570D03*
X157966196Y-134397570D03*
X103716196Y-143547570D03*
X151716196Y-125047570D03*
X145816196Y-138547570D03*
X110516196Y-123147570D03*
X157966196Y-135297570D03*
X169616196Y-142897570D03*
X155616196Y-148647570D03*
X119416196Y-135047570D03*
X168016196Y-124047570D03*
X103716196Y-140647570D03*
X119516196Y-123147570D03*
X161066196Y-142897570D03*
X153266196Y-123047570D03*
X104016196Y-124047570D03*
X134916196Y-153047570D03*
X145566196Y-123047570D03*
X145316196Y-153047570D03*
X156416196Y-126147570D03*
X159416196Y-126047570D03*
X103916196Y-135797570D03*
X103116196Y-135797570D03*
X144416196Y-125797570D03*
X104916196Y-129847570D03*
X164316196Y-142897570D03*
X146016196Y-125797570D03*
X108816196Y-129047570D03*
X158616196Y-127047570D03*
X154116196Y-138547570D03*
X133616196Y-150547570D03*
X112116196Y-124047570D03*
X102916196Y-141547570D03*
X127516196Y-123147570D03*
X117616196Y-134047570D03*
X121416196Y-153047570D03*
X132616196Y-124047570D03*
X155616196Y-142847570D03*
X160216196Y-125147570D03*
X125816196Y-150547570D03*
X141716196Y-143947570D03*
X108016196Y-126047570D03*
X154816196Y-147747570D03*
X147516196Y-125797570D03*
X154116196Y-137647570D03*
X150316196Y-145147570D03*
X168366196Y-147397570D03*
X153216196Y-134397570D03*
X167166196Y-130047570D03*
X143916196Y-134397570D03*
X157816196Y-125147570D03*
X104816196Y-123047570D03*
X152516196Y-125047570D03*
X148316196Y-125797570D03*
X154016196Y-142847570D03*
X111316196Y-125047570D03*
X116116196Y-153047570D03*
X136116196Y-123147570D03*
X143316196Y-143047570D03*
X136116196Y-124047570D03*
X158466196Y-149547570D03*
X133416196Y-124047570D03*
X149516196Y-147147570D03*
X116816196Y-134047570D03*
X158466196Y-148547570D03*
X114516196Y-150547570D03*
X108916196Y-124047570D03*
X103716196Y-144447570D03*
X148716196Y-146047570D03*
X122916196Y-124047570D03*
X129616196Y-153047570D03*
X140916196Y-143047570D03*
X165566196Y-129047570D03*
X150316196Y-144047570D03*
X113816196Y-125047570D03*
X167566196Y-148297570D03*
X155616196Y-149647570D03*
X168016196Y-142897570D03*
X104016196Y-123047570D03*
X148716196Y-149147570D03*
X155616196Y-125047570D03*
X124016196Y-123147570D03*
X122616196Y-136047570D03*
X126416196Y-124047570D03*
X104016196Y-125047570D03*
X116216196Y-123147570D03*
X120216196Y-143747570D03*
X116316196Y-133047570D03*
X146316196Y-134397570D03*
X158466196Y-143797570D03*
X159266196Y-142897570D03*
X114416196Y-136047570D03*
X126416196Y-125047570D03*
X102416196Y-129797570D03*
X153316196Y-125047570D03*
X127516196Y-125047570D03*
X163466196Y-145647570D03*
X112116196Y-125047570D03*
X142916196Y-153047570D03*
X117116196Y-133047570D03*
X133816196Y-130797570D03*
X154816196Y-143747570D03*
X154816196Y-148647570D03*
X117816196Y-135047570D03*
X107316196Y-124047570D03*
X157666196Y-147647570D03*
X141316196Y-153047570D03*
X149516196Y-146047570D03*
X157666196Y-142897570D03*
X147916196Y-146047570D03*
X166716196Y-144797570D03*
X147416196Y-138547570D03*
X141716196Y-145047570D03*
X151666196Y-123047570D03*
X105916196Y-135797570D03*
X122916196Y-125047570D03*
X130816196Y-144047570D03*
X128316196Y-125047570D03*
X122116196Y-123147570D03*
X131016196Y-124047570D03*
X154016196Y-134397570D03*
X103216196Y-125047570D03*
X163466196Y-143797570D03*
X103216196Y-123047570D03*
X147916196Y-148047570D03*
X128316196Y-123147570D03*
X131416196Y-130797570D03*
X137016196Y-137447570D03*
X105816196Y-151547570D03*
X104216196Y-153047570D03*
X105629849Y-123080210D03*
X163716196Y-126047570D03*
X165916196Y-144797570D03*
X145016196Y-137647570D03*
X136116196Y-125047570D03*
X161866196Y-142897570D03*
X168016196Y-125047570D03*
X116616196Y-132047570D03*
X114916196Y-142347570D03*
X112916196Y-150547570D03*
X159266196Y-144797570D03*
X160216196Y-130047570D03*
X152416196Y-134397570D03*
X149516196Y-144047570D03*
X128416196Y-144947570D03*
X141716196Y-143047570D03*
X162116196Y-127047570D03*
X149516196Y-148047570D03*
X147916196Y-145147570D03*
X109616196Y-127047570D03*
X129916196Y-124047570D03*
X102916196Y-142547570D03*
X110416196Y-126047570D03*
X159416196Y-130047570D03*
X125616196Y-125047570D03*
X102116196Y-145447570D03*
X106416196Y-125047570D03*
X129116196Y-125047570D03*
X166766196Y-149297570D03*
X134616196Y-135547570D03*
X159266196Y-147647570D03*
X121816196Y-144647570D03*
X115316196Y-150547570D03*
X158616196Y-129047570D03*
X150416196Y-130547570D03*
X143416196Y-125797570D03*
X127416196Y-150547570D03*
X148466196Y-134397570D03*
X122116196Y-124047570D03*
X146316196Y-135297570D03*
X115416196Y-123147570D03*
X154016196Y-144747570D03*
X151216196Y-130547570D03*
X168816196Y-143797570D03*
X104816196Y-125047570D03*
X119916196Y-130047570D03*
X156416196Y-148647570D03*
X125916196Y-153047570D03*
X162916196Y-125147570D03*
X119816196Y-153047570D03*
X104216196Y-151547570D03*
X170666196Y-135297570D03*
X156416196Y-128547570D03*
X102116196Y-142547570D03*
X134616196Y-137447570D03*
X142516196Y-145047570D03*
X159416196Y-129047570D03*
X129216196Y-144947570D03*
X161866196Y-145647570D03*
X106416196Y-124047570D03*
X132016196Y-150547570D03*
X141016196Y-125797570D03*
X154816196Y-125047570D03*
X110516196Y-124047570D03*
X112416196Y-139647570D03*
X169166196Y-149297570D03*
X169616196Y-143797570D03*
X121816196Y-137047570D03*
X124016196Y-130547570D03*
X154716196Y-130547570D03*
X168016196Y-143797570D03*
X121016196Y-137047570D03*
X144066196Y-123047570D03*
X131816196Y-123147570D03*
X133016196Y-130797570D03*
X164316196Y-143797570D03*
X136216196Y-137447570D03*
X137016196Y-136447570D03*
X164766196Y-130047570D03*
X121816196Y-143747570D03*
X132216196Y-130797570D03*
X121316196Y-124047570D03*
X161066196Y-143797570D03*
X157816196Y-130047570D03*
X163716196Y-130047570D03*
X156416196Y-142847570D03*
X151616196Y-135297570D03*
X120216196Y-144647570D03*
X148466196Y-135297570D03*
X160216196Y-126047570D03*
X166716196Y-142897570D03*
X148266196Y-123047570D03*
X144516196Y-153047570D03*
X110516196Y-125047570D03*
X162116196Y-128147570D03*
X104516196Y-140647570D03*
X103416196Y-153047570D03*
X155566196Y-123047570D03*
X155566196Y-134397570D03*
X149266196Y-135297570D03*
X154816196Y-144747570D03*
X147666196Y-134397570D03*
X154016196Y-149647570D03*
X159266196Y-149547570D03*
X142616196Y-125797570D03*
X147516196Y-125047570D03*
X103416196Y-151547570D03*
X112416196Y-142547570D03*
X108016196Y-127047570D03*
X134516196Y-123147570D03*
X122616196Y-137047570D03*
X161066196Y-147547570D03*
X157666196Y-148547570D03*
X145216196Y-125797570D03*
X113816196Y-124047570D03*
X120516196Y-125047570D03*
X162666196Y-147547570D03*
X149516196Y-143147570D03*
X165916196Y-143797570D03*
X108016196Y-128047570D03*
X141716196Y-145947570D03*
X122616196Y-139047570D03*
X153216196Y-135297570D03*
X154916196Y-138547570D03*
X114916196Y-143347570D03*
X142516196Y-145947570D03*
X107316196Y-125047570D03*
X164316196Y-144797570D03*
X162916196Y-126047570D03*
X134516196Y-125047570D03*
X119516196Y-124047570D03*
X109716196Y-123147570D03*
X158616196Y-128147570D03*
X146116196Y-153047570D03*
X162116196Y-126047570D03*
X104516196Y-144447570D03*
X120616196Y-153047570D03*
X113816196Y-123147570D03*
X165116196Y-143797570D03*
X109616196Y-129047570D03*
X125616196Y-130547570D03*
X166366196Y-128147570D03*
X155516196Y-130547570D03*
X160216196Y-127047570D03*
X158616196Y-130047570D03*
X153316196Y-137647570D03*
X121016196Y-139047570D03*
X156366196Y-123047570D03*
X102316196Y-135797570D03*
X170416196Y-143797570D03*
X154916196Y-137647570D03*
X162666196Y-145647570D03*
X162666196Y-144797570D03*
X124216196Y-150547570D03*
X165566196Y-128147570D03*
X155566196Y-135297570D03*
X161316196Y-130047570D03*
X114916196Y-130047570D03*
X104516196Y-145447570D03*
X133316196Y-153047570D03*
X135416196Y-136447570D03*
X117016196Y-135047570D03*
X113816196Y-130047570D03*
X144716196Y-135297570D03*
X157666196Y-143797570D03*
X112416196Y-138747570D03*
X149116196Y-125797570D03*
X121016196Y-144647570D03*
X108816196Y-130047570D03*
X168366196Y-148297570D03*
X117116196Y-125047570D03*
X141316196Y-137647570D03*
X109616196Y-128047570D03*
X115316196Y-153047570D03*
X110416196Y-129047570D03*
X140916196Y-143947570D03*
X153916196Y-130547570D03*
X142516196Y-143947570D03*
X149266196Y-134397570D03*
X154816196Y-149647570D03*
X153116196Y-130547570D03*
X116016196Y-134047570D03*
X128316196Y-124047570D03*
X167566196Y-149297570D03*
X120716196Y-150547570D03*
X102916196Y-144447570D03*
X159416196Y-125147570D03*
X115816196Y-132047570D03*
X121016196Y-136047570D03*
X145516196Y-134397570D03*
X110416196Y-128047570D03*
X137016196Y-135547570D03*
X166766196Y-148297570D03*
X103216196Y-124047570D03*
X104516196Y-143547570D03*
X168816196Y-125047570D03*
X154066196Y-123047570D03*
X112916196Y-123147570D03*
X135316196Y-123147570D03*
X143266196Y-123047570D03*
X147916196Y-144047570D03*
X108116196Y-123147570D03*
X110416196Y-130047570D03*
X140516196Y-153047570D03*
X120516196Y-123147570D03*
X148716196Y-145147570D03*
X150316196Y-143147570D03*
X157666196Y-149547570D03*
X147916196Y-149147570D03*
X122316196Y-150547570D03*
X168016196Y-123147570D03*
X152516196Y-138547570D03*
X115016196Y-132047570D03*
X163166196Y-137797570D03*
X102116196Y-144447570D03*
X162916196Y-129047570D03*
X140916196Y-145947570D03*
X103716196Y-134147570D03*
X118316196Y-130047570D03*
X104516196Y-142547570D03*
X161866196Y-147547570D03*
X163466196Y-144797570D03*
X112416196Y-141647570D03*
X122616196Y-143747570D03*
X102916196Y-140647570D03*
X160066196Y-148547570D03*
X112216196Y-130047570D03*
X124316196Y-153047570D03*
X136916196Y-125047570D03*
X121816196Y-145647570D03*
X140916196Y-145047570D03*
X117916196Y-123147570D03*
X163716196Y-128147570D03*
X112416196Y-140647570D03*
X133416196Y-125047570D03*
X106666196Y-135797570D03*
X161066196Y-146547570D03*
X131816196Y-124047570D03*
X115716196Y-130047570D03*
X128216196Y-150547570D03*
X162666196Y-142897570D03*
X109616196Y-153047570D03*
X148316196Y-125047570D03*
X143316196Y-145047570D03*
X161066196Y-144797570D03*
X156366196Y-135297570D03*
X132616196Y-123147570D03*
X129916196Y-125047570D03*
X150616196Y-153047570D03*
X102116196Y-141547570D03*
X105629849Y-125080210D03*
X121016196Y-143747570D03*
X129816196Y-150547570D03*
X117416196Y-132047570D03*
X146816196Y-125797570D03*
X168816196Y-124047570D03*
X103316196Y-139647570D03*
X117916196Y-124047570D03*
X160066196Y-143797570D03*
X149916196Y-125047570D03*
X122616196Y-144647570D03*
X115416196Y-137047570D03*
X138916196Y-138547570D03*
X162116196Y-129047570D03*
X147916196Y-150047570D03*
X108916196Y-125047570D03*
X122616196Y-138047570D03*
X166716196Y-143797570D03*
X118016196Y-150547570D03*
X131416196Y-129897570D03*
X155616196Y-143747570D03*
X114616196Y-125047570D03*
X116216196Y-124047570D03*
X162916196Y-128147570D03*
X164766196Y-128147570D03*
X111216196Y-153047570D03*
X138916196Y-137647570D03*
X167166196Y-128147570D03*
X135416196Y-135547570D03*
X149116196Y-125047570D03*
X156416196Y-149647570D03*
X126416196Y-123147570D03*
X114616196Y-123147570D03*
X152466196Y-123047570D03*
X161866196Y-144797570D03*
X123416196Y-137047570D03*
X165916196Y-137797570D03*
X116216196Y-125047570D03*
X125016196Y-150547570D03*
X109716196Y-125047570D03*
X124816196Y-124047570D03*
X163466196Y-147547570D03*
X117916196Y-133047570D03*
X110416196Y-153047570D03*
X102416196Y-124047570D03*
X132816196Y-150547570D03*
X140666196Y-123047570D03*
X137316196Y-153047570D03*
X125116196Y-153047570D03*
X103716196Y-142547570D03*
X121816196Y-138047570D03*
X136516196Y-153047570D03*
X159416196Y-128147570D03*
X143316196Y-145947570D03*
X118716196Y-123147570D03*
X149516196Y-149147570D03*
X129916196Y-123147570D03*
X156416196Y-144747570D03*
X159266196Y-148547570D03*
X161866196Y-143797570D03*
X165916196Y-142897570D03*
X154016196Y-135297570D03*
X145516196Y-135297570D03*
X122916196Y-123147570D03*
X105629849Y-124080210D03*
X170416196Y-142897570D03*
X157816196Y-127047570D03*
X156416196Y-143747570D03*
X140516196Y-138547570D03*
X117216196Y-150547570D03*
X106416196Y-123047570D03*
X152516196Y-137647570D03*
X104816196Y-124047570D03*
X103716196Y-141547570D03*
X162916196Y-130047570D03*
X123416196Y-138047570D03*
X107316196Y-123147570D03*
X102116196Y-140647570D03*
X146616196Y-137647570D03*
X136216196Y-135547570D03*
X160216196Y-128147570D03*
X152016196Y-130547570D03*
X108116196Y-124047570D03*
X147166196Y-123047570D03*
X163466196Y-142897570D03*
X112116196Y-123147570D03*
X151416196Y-153047570D03*
X121316196Y-125047570D03*
X143316196Y-143947570D03*
X124016196Y-124047570D03*
X147916196Y-147147570D03*
X128416196Y-144047570D03*
X103316196Y-147847570D03*
X136916196Y-124047570D03*
X133016196Y-129897570D03*
X149066196Y-123047570D03*
X156416196Y-125047570D03*
X136916196Y-123147570D03*
X161316196Y-126047570D03*
X165916196Y-135297570D03*
X121316196Y-123147570D03*
X141816196Y-125797570D03*
X114516196Y-153047570D03*
X108116196Y-125047570D03*
X108816196Y-127047570D03*
X145816196Y-137647570D03*
X150316196Y-146047570D03*
X121816196Y-136047570D03*
X154816196Y-142847570D03*
X108016196Y-129047570D03*
X119516196Y-125047570D03*
X123416196Y-136047570D03*
X150316196Y-150047570D03*
X142116196Y-153047570D03*
X132616196Y-125047570D03*
X135316196Y-125047570D03*
X105816196Y-153047570D03*
X157816196Y-126047570D03*
X156416196Y-126947570D03*
X122116196Y-125047570D03*
X168816196Y-142897570D03*
X128016196Y-153047570D03*
X149866196Y-123047570D03*
X125616196Y-123147570D03*
X138916196Y-153047570D03*
X170666196Y-137797570D03*
X109616196Y-130047570D03*
X134116196Y-153047570D03*
X162116196Y-130047570D03*
X130016196Y-144047570D03*
X109616196Y-126047570D03*
X148716196Y-150047570D03*
X139066196Y-123047570D03*
X161066196Y-145647570D03*
X115516196Y-133047570D03*
X123416196Y-150547570D03*
X141316196Y-138547570D03*
X128816196Y-153047570D03*
X154766196Y-123047570D03*
X161316196Y-129047570D03*
X150916196Y-125047570D03*
X147416196Y-137647570D03*
X148716196Y-143147570D03*
X112416196Y-134047570D03*
X150066196Y-134397570D03*
X118616196Y-135047570D03*
X165116196Y-142897570D03*
X105016196Y-135797570D03*
X133416196Y-123147570D03*
X108916196Y-123147570D03*
X112016196Y-153047570D03*
X104516196Y-141547570D03*
X102416196Y-125047570D03*
X157166196Y-134397570D03*
X139866196Y-123047570D03*
X102916196Y-143547570D03*
X149516196Y-150047570D03*
X131016196Y-123147570D03*
X130016196Y-144947570D03*
X130816196Y-144947570D03*
X167916196Y-135297570D03*
X150316196Y-149147570D03*
X113016196Y-130047570D03*
X194016196Y-136747570D03*
X142466196Y-123047570D03*
X152416196Y-135297570D03*
X139716196Y-138547570D03*
X116916196Y-153047570D03*
X139716196Y-137647570D03*
X121516196Y-150547570D03*
X122616196Y-145647570D03*
X123416196Y-139047570D03*
X118416196Y-134047570D03*
X108816196Y-128047570D03*
X124016196Y-125047570D03*
X148716196Y-147147570D03*
X108016196Y-130047570D03*
X163166196Y-135297570D03*
X147666196Y-135297570D03*
X142516196Y-143047570D03*
X162666196Y-143797570D03*
X130416196Y-153047570D03*
X140516196Y-137647570D03*
X167566196Y-147397570D03*
X167916196Y-137797570D03*
X162916196Y-127047570D03*
X146366196Y-123047570D03*
X149816196Y-153047570D03*
X120516196Y-124047570D03*
X163716196Y-125147570D03*
X147916196Y-143147570D03*
X102116196Y-143547570D03*
X132516196Y-153047570D03*
X166366196Y-129047570D03*
X149016196Y-153047570D03*
X119016196Y-153047570D03*
X129216196Y-144047570D03*
X120216196Y-145647570D03*
X108816196Y-126047570D03*
X126416196Y-130547570D03*
X125616196Y-124047570D03*
X131016196Y-125047570D03*
X131816196Y-125047570D03*
X124816196Y-123147570D03*
X111316196Y-124047570D03*
X159266196Y-143797570D03*
X150316196Y-148047570D03*
X155616196Y-147747570D03*
X157666196Y-144797570D03*
X148716196Y-144047570D03*
X166366196Y-130047570D03*
X153316196Y-138547570D03*
X162666196Y-146547570D03*
X138116196Y-153047570D03*
X143916196Y-135297570D03*
X117116196Y-123147570D03*
X133816196Y-129897570D03*
X117116196Y-124047570D03*
X113416196Y-135047570D03*
X134416196Y-150547570D03*
X112916196Y-125047570D03*
X161866196Y-146547570D03*
X154016196Y-148647570D03*
X115416196Y-125047570D03*
X124816196Y-125047570D03*
X148716196Y-148047570D03*
X141666196Y-123047570D03*
X163466196Y-146547570D03*
X156416196Y-127747570D03*
X123516196Y-153047570D03*
X118716196Y-124047570D03*
X121816196Y-139047570D03*
X158616196Y-126047570D03*
X136216196Y-136447570D03*
X158466196Y-142897570D03*
X160066196Y-147647570D03*
X118716196Y-125047570D03*
X134516196Y-124047570D03*
X156416196Y-147747570D03*
X162116196Y-125147570D03*
X165116196Y-144797570D03*
X102416196Y-123047570D03*
X134616196Y-136447570D03*
X110416196Y-127047570D03*
X132216196Y-129897570D03*
X101516196Y-135797570D03*
X158616196Y-125147570D03*
X106716196Y-140847570D03*
X109716196Y-124047570D03*
X129116196Y-124047570D03*
X154016196Y-143747570D03*
X117316196Y-130047570D03*
X159416196Y-127047570D03*
X158466196Y-144797570D03*
X129016196Y-150547570D03*
X158466196Y-147647570D03*
X168816196Y-123147570D03*
X150316196Y-147147570D03*
X129116196Y-123147570D03*
X121016196Y-145647570D03*
X111416196Y-130047570D03*
X117916196Y-125047570D03*
X119116196Y-130047570D03*
X146916196Y-153047570D03*
X161316196Y-128147570D03*
X149916196Y-125797570D03*
X160066196Y-142897570D03*
X138266196Y-123047570D03*
X157166196Y-135297570D03*
X118816196Y-150547570D03*
X154016196Y-147747570D03*
X124816196Y-130547570D03*
X116416196Y-150547570D03*
X166766196Y-147397570D03*
X119916196Y-150547570D03*
X160066196Y-149547570D03*
X114616196Y-124047570D03*
X160216196Y-129047570D03*
X150066196Y-135297570D03*
X135316196Y-124047570D03*
X161316196Y-125147570D03*
X121016196Y-138047570D03*
X149616196Y-130547570D03*
X145016196Y-138547570D03*
X169616196Y-123147570D03*
X116516196Y-130047570D03*
X105016196Y-151547570D03*
X157816196Y-129047570D03*
%TO.N,/SPEAKER_N*%
X160316196Y-138947570D03*
%TD*%
%TO.N,+5V*%
D29*
X136516196Y-144963570D02*
X136516196Y-148167570D01*
D30*
X135496196Y-151747570D02*
X136156196Y-151087570D01*
X108616196Y-151747570D02*
X135496196Y-151747570D01*
X106116196Y-149247570D02*
X108616196Y-151747570D01*
X136556196Y-150687570D02*
X136556196Y-148207570D01*
D29*
X167966196Y-144797570D02*
X160616196Y-152147570D01*
X160616196Y-152147570D02*
X138016196Y-152147570D01*
X178916196Y-131307570D02*
X178916196Y-126047570D01*
D30*
X136156196Y-151087570D02*
X136556196Y-150687570D01*
D29*
X175166196Y-144797570D02*
X167966196Y-144797570D01*
X181716196Y-123247570D02*
X209116196Y-123247570D01*
X136516196Y-148167570D02*
X136556196Y-148207570D01*
X178916196Y-126047570D02*
X181716196Y-123247570D01*
D30*
X106116196Y-143847570D02*
X106116196Y-149247570D01*
D29*
X178916196Y-141047570D02*
X175166196Y-144797570D01*
X138016196Y-152147570D02*
X136556196Y-150687570D01*
D30*
X109066196Y-142797570D02*
X107166196Y-142797570D01*
X107166196Y-142797570D02*
X106116196Y-143847570D01*
%TO.N,Net-(D1-K)*%
D29*
X202116196Y-134447570D02*
X199016196Y-134447570D01*
X202916196Y-140717570D02*
X199016196Y-140717570D01*
X199016196Y-134447570D02*
X195918196Y-134447570D01*
X207706493Y-129847570D02*
X207776492Y-129917569D01*
X204116196Y-132447570D02*
X206716196Y-129847570D01*
X206716196Y-129847570D02*
X207706493Y-129847570D01*
X204116196Y-132447570D02*
X202116196Y-134447570D01*
X199016196Y-134447570D02*
X199016196Y-140717570D01*
%TO.N,/SCL*%
X115616196Y-139247570D02*
X116956196Y-139247570D01*
X120516196Y-142047570D02*
X120516196Y-141047570D01*
X112616196Y-145647570D02*
X116916196Y-145647570D01*
X111466196Y-146797570D02*
X112616196Y-145647570D01*
X109066196Y-146797570D02*
X111466196Y-146797570D01*
X116916196Y-145647570D02*
X120516196Y-142047570D01*
X109216196Y-132847570D02*
X115616196Y-139247570D01*
X106291196Y-132847570D02*
X109216196Y-132847570D01*
%TO.N,+3V3*%
X119836196Y-133047570D02*
X123416196Y-133047570D01*
X106291196Y-130847570D02*
X121316196Y-130847570D01*
X123416196Y-133047570D02*
X123466196Y-132997570D01*
X123466196Y-132997570D02*
X127116196Y-136647570D01*
X121316196Y-130847570D02*
X123466196Y-132997570D01*
%TO.N,/HV_CAP_FUL*%
X158916196Y-131047570D02*
X156916196Y-133047570D01*
X173336196Y-139127570D02*
X185666196Y-139127570D01*
X187716196Y-141797570D02*
X187716196Y-140517570D01*
X183516196Y-150947570D02*
X187716196Y-146747570D01*
X144916196Y-133047570D02*
X141636196Y-129767570D01*
X191516196Y-140267570D02*
X191416196Y-140167570D01*
X168666196Y-131047570D02*
X158916196Y-131047570D01*
X169666196Y-141547570D02*
X170916196Y-141547570D01*
X187716196Y-146747570D02*
X187716196Y-141797570D01*
X191136196Y-140517570D02*
X187716196Y-140517570D01*
X186326196Y-139127570D02*
X187716196Y-140517570D01*
X170916196Y-141547570D02*
X173336196Y-139127570D01*
X191516196Y-140717570D02*
X191416196Y-140617570D01*
X187716196Y-141797570D02*
X187716196Y-140067570D01*
X191236196Y-140617570D02*
X191136196Y-140517570D01*
X187816196Y-140167570D02*
X187716196Y-140067570D01*
X185666196Y-139127570D02*
X186326196Y-139127570D01*
X169416196Y-141297570D02*
X169666196Y-141547570D01*
X191416196Y-140617570D02*
X191236196Y-140617570D01*
X195216196Y-140717570D02*
X191516196Y-140717570D01*
X156916196Y-133047570D02*
X144916196Y-133047570D01*
X141636196Y-129767570D02*
X141636196Y-127887570D01*
%TO.N,GND*%
D30*
X102416196Y-134147570D02*
X103716196Y-134147570D01*
D29*
X195918196Y-136758570D02*
X194027196Y-136758570D01*
D30*
X103316196Y-149147570D02*
X103316196Y-147847570D01*
D29*
X194027196Y-136758570D02*
X194016196Y-136747570D01*
D30*
X102416196Y-128547570D02*
X102416196Y-129797570D01*
X106291196Y-129847570D02*
X104916196Y-129847570D01*
X106766196Y-140797570D02*
X106716196Y-140847570D01*
X103316196Y-138447570D02*
X103316196Y-139647570D01*
X109066196Y-140797570D02*
X106766196Y-140797570D01*
%TO.N,Net-(SBM-19/20-1)*%
D29*
X214806196Y-143547570D02*
X214806196Y-141017570D01*
X214806196Y-141017570D02*
X211736196Y-137947570D01*
%TO.N,/SPEAKER_P*%
X164406196Y-141267570D02*
X164516196Y-141157570D01*
X126396196Y-148207570D02*
X126396196Y-144167570D01*
X129296196Y-141267570D02*
X164406196Y-141267570D01*
X126396196Y-144167570D02*
X129296196Y-141267570D01*
%TO.N,/SPEAKER_N*%
X160316196Y-138947570D02*
X159316196Y-139947570D01*
X123856196Y-144707570D02*
X123856196Y-148207570D01*
X159316196Y-139947570D02*
X128616196Y-139947570D01*
X128616196Y-139947570D02*
X123856196Y-144707570D01*
%TO.N,/SDA*%
X118016196Y-136647570D02*
X116956196Y-136647570D01*
X109066196Y-144797570D02*
X115666196Y-144797570D01*
X112156196Y-131847570D02*
X116956196Y-136647570D01*
X119216196Y-141247570D02*
X119216196Y-137847570D01*
X106291196Y-131847570D02*
X112156196Y-131847570D01*
X115666196Y-144797570D02*
X119216196Y-141247570D01*
X119216196Y-137847570D02*
X118016196Y-136647570D01*
%TO.N,/GMZ_COUNT*%
X142956196Y-136587570D02*
X139416196Y-133047570D01*
X147916196Y-136587570D02*
X142956196Y-136587570D01*
X139416196Y-133047570D02*
X129996196Y-133047570D01*
X189166196Y-136837570D02*
X190216196Y-136837570D01*
X188916196Y-136587570D02*
X189166196Y-136837570D01*
X128936196Y-131987570D02*
X128936196Y-128292570D01*
X189776196Y-136587570D02*
X190216196Y-137027570D01*
X147916196Y-136587570D02*
X188916196Y-136587570D01*
X129996196Y-133047570D02*
X128936196Y-131987570D01*
%TO.N,/HV_FET_OUT*%
X139096196Y-125867570D02*
X139096196Y-127887570D01*
X140916196Y-124047570D02*
X139096196Y-125867570D01*
X193827196Y-132136570D02*
X191916196Y-134047570D01*
X191916196Y-134047570D02*
X175316196Y-134047570D01*
X165316196Y-124047570D02*
X140916196Y-124047570D01*
X195918196Y-132136570D02*
X193827196Y-132136570D01*
X175316196Y-134047570D02*
X165316196Y-124047570D01*
%TO.N,Net-(D2-K)*%
X199016196Y-150877570D02*
X195216196Y-150877570D01*
%TO.N,Net-(C4-Pad1)*%
X217916196Y-124867570D02*
X221916196Y-124867570D01*
X217916196Y-124867570D02*
X191896196Y-124867570D01*
X190216196Y-126547570D02*
X190216196Y-131757570D01*
X191896196Y-124867570D02*
X190216196Y-126547570D01*
%TO.N,Net-(R3-Pad2)*%
X221896196Y-137947570D02*
X221896196Y-135047570D01*
X221896196Y-135047570D02*
X221916196Y-135027570D01*
%TO.N,Net-(D4-K)*%
X206916196Y-147827570D02*
X203866196Y-150877570D01*
X203866196Y-150877570D02*
X202916196Y-150877570D01*
%TO.N,Net-(C3-Pad1)*%
X205166196Y-126547570D02*
X202212749Y-126547570D01*
X210616196Y-129247570D02*
X207916196Y-126547570D01*
X207916196Y-126547570D02*
X205166196Y-126547570D01*
X209556196Y-135027570D02*
X217916196Y-135027570D01*
X209376196Y-135207570D02*
X210616196Y-133967570D01*
X206916196Y-137667570D02*
X209376196Y-135207570D01*
X210616196Y-133967570D02*
X210616196Y-129247570D01*
X205166196Y-126547570D02*
X201609196Y-126547570D01*
X209376196Y-135207570D02*
X209556196Y-135027570D01*
X202212749Y-126547570D02*
G75*
G03*
X201609226Y-126797600I51J-853530D01*
G01*
%TD*%
%TA.AperFunction,Conductor*%
%TO.N,GND*%
G36*
X111298896Y-122140435D02*
G01*
X111316194Y-122147568D01*
X111316196Y-122147570D01*
X111316197Y-122147569D01*
X111316198Y-122147570D01*
X116589353Y-122131071D01*
X116589741Y-122131070D01*
X145793236Y-122131070D01*
X145849428Y-122147570D01*
X145916196Y-122147570D01*
X171292196Y-122147570D01*
X171359235Y-122167255D01*
X171404990Y-122220059D01*
X171416196Y-122271570D01*
X171416196Y-123834765D01*
X171396511Y-123901804D01*
X171348492Y-123945249D01*
X171266375Y-123987090D01*
X171062572Y-124135161D01*
X171062567Y-124135165D01*
X170884427Y-124313305D01*
X170884423Y-124313310D01*
X170736354Y-124517111D01*
X170621982Y-124741576D01*
X170544132Y-124981174D01*
X170504722Y-125229998D01*
X170504722Y-125481921D01*
X170544132Y-125730745D01*
X170621982Y-125970343D01*
X170660264Y-126045474D01*
X170725808Y-126174112D01*
X170736354Y-126194808D01*
X170884423Y-126398609D01*
X170884427Y-126398614D01*
X171062567Y-126576754D01*
X171062572Y-126576758D01*
X171134757Y-126629203D01*
X171266377Y-126724830D01*
X171348491Y-126766669D01*
X171399287Y-126814642D01*
X171416196Y-126877153D01*
X171416196Y-129416166D01*
X171396511Y-129483205D01*
X171343707Y-129528960D01*
X171274549Y-129538904D01*
X171210993Y-129509879D01*
X171204515Y-129503847D01*
X165503779Y-123803111D01*
X165503777Y-123803109D01*
X165489505Y-123794869D01*
X165434120Y-123762891D01*
X165434118Y-123762890D01*
X165434115Y-123762889D01*
X165356416Y-123742070D01*
X140875976Y-123742070D01*
X140798275Y-123762889D01*
X140742885Y-123794870D01*
X140742884Y-123794869D01*
X140728613Y-123803109D01*
X138908615Y-125623109D01*
X138851737Y-125679986D01*
X138851731Y-125679995D01*
X138811517Y-125749645D01*
X138811516Y-125749647D01*
X138790696Y-125827350D01*
X138790696Y-126629203D01*
X138771011Y-126696242D01*
X138718207Y-126741997D01*
X138705017Y-126747133D01*
X138633444Y-126770389D01*
X138530869Y-126822654D01*
X138464372Y-126856536D01*
X138310871Y-126968060D01*
X138310866Y-126968064D01*
X138176690Y-127102240D01*
X138176686Y-127102245D01*
X138065162Y-127255746D01*
X137979016Y-127424813D01*
X137944127Y-127532192D01*
X137904689Y-127589867D01*
X137840330Y-127617065D01*
X137771484Y-127605150D01*
X137720008Y-127557906D01*
X137708265Y-127532192D01*
X137680770Y-127447571D01*
X137673377Y-127424818D01*
X137673375Y-127424815D01*
X137673375Y-127424813D01*
X137642121Y-127363477D01*
X137587232Y-127255750D01*
X137542881Y-127194706D01*
X137475705Y-127102245D01*
X137475701Y-127102240D01*
X137341525Y-126968064D01*
X137341520Y-126968060D01*
X137188019Y-126856536D01*
X137188018Y-126856535D01*
X137188016Y-126856534D01*
X137105799Y-126814642D01*
X137018952Y-126770390D01*
X136838485Y-126711752D01*
X136651076Y-126682070D01*
X136651071Y-126682070D01*
X136461321Y-126682070D01*
X136461316Y-126682070D01*
X136273906Y-126711752D01*
X136093439Y-126770390D01*
X135924372Y-126856536D01*
X135770871Y-126968060D01*
X135770866Y-126968064D01*
X135636690Y-127102240D01*
X135636686Y-127102245D01*
X135525162Y-127255746D01*
X135439016Y-127424813D01*
X135404127Y-127532192D01*
X135364689Y-127589867D01*
X135300330Y-127617065D01*
X135231484Y-127605150D01*
X135180008Y-127557906D01*
X135168265Y-127532192D01*
X135140770Y-127447571D01*
X135133377Y-127424818D01*
X135133375Y-127424815D01*
X135133375Y-127424813D01*
X135102121Y-127363477D01*
X135047232Y-127255750D01*
X135002881Y-127194706D01*
X134935705Y-127102245D01*
X134935701Y-127102240D01*
X134801525Y-126968064D01*
X134801520Y-126968060D01*
X134648019Y-126856536D01*
X134648018Y-126856535D01*
X134648016Y-126856534D01*
X134565799Y-126814642D01*
X134478952Y-126770390D01*
X134298485Y-126711752D01*
X134111076Y-126682070D01*
X134111071Y-126682070D01*
X133921321Y-126682070D01*
X133921316Y-126682070D01*
X133733906Y-126711752D01*
X133553439Y-126770390D01*
X133384372Y-126856536D01*
X133230871Y-126968060D01*
X133230866Y-126968064D01*
X133096690Y-127102240D01*
X133096686Y-127102245D01*
X132985162Y-127255746D01*
X132899016Y-127424813D01*
X132864127Y-127532192D01*
X132824689Y-127589867D01*
X132760330Y-127617065D01*
X132691484Y-127605150D01*
X132640008Y-127557906D01*
X132628265Y-127532192D01*
X132600770Y-127447571D01*
X132593377Y-127424818D01*
X132593375Y-127424815D01*
X132593375Y-127424813D01*
X132562121Y-127363477D01*
X132507232Y-127255750D01*
X132462881Y-127194706D01*
X132395705Y-127102245D01*
X132395701Y-127102240D01*
X132261525Y-126968064D01*
X132261520Y-126968060D01*
X132108019Y-126856536D01*
X132108018Y-126856535D01*
X132108016Y-126856534D01*
X132025799Y-126814642D01*
X131938952Y-126770390D01*
X131758485Y-126711752D01*
X131571076Y-126682070D01*
X131571071Y-126682070D01*
X131381321Y-126682070D01*
X131381316Y-126682070D01*
X131193906Y-126711752D01*
X131013439Y-126770390D01*
X130844372Y-126856536D01*
X130690871Y-126968060D01*
X130690866Y-126968064D01*
X130556690Y-127102240D01*
X130556686Y-127102245D01*
X130445162Y-127255746D01*
X130359016Y-127424813D01*
X130324127Y-127532192D01*
X130284689Y-127589867D01*
X130220330Y-127617065D01*
X130151484Y-127605150D01*
X130100008Y-127557906D01*
X130088265Y-127532192D01*
X130060770Y-127447571D01*
X130053377Y-127424818D01*
X130053375Y-127424815D01*
X130053375Y-127424813D01*
X130022121Y-127363477D01*
X129967232Y-127255750D01*
X129922881Y-127194706D01*
X129855705Y-127102245D01*
X129855701Y-127102240D01*
X129721525Y-126968064D01*
X129721520Y-126968060D01*
X129568019Y-126856536D01*
X129568018Y-126856535D01*
X129568016Y-126856534D01*
X129485799Y-126814642D01*
X129398952Y-126770390D01*
X129218485Y-126711752D01*
X129031076Y-126682070D01*
X129031071Y-126682070D01*
X128841321Y-126682070D01*
X128841316Y-126682070D01*
X128653906Y-126711752D01*
X128473439Y-126770390D01*
X128304372Y-126856536D01*
X128150871Y-126968060D01*
X128150866Y-126968064D01*
X128016690Y-127102240D01*
X128016686Y-127102245D01*
X127905162Y-127255746D01*
X127819016Y-127424813D01*
X127784127Y-127532192D01*
X127744689Y-127589867D01*
X127680330Y-127617065D01*
X127611484Y-127605150D01*
X127560008Y-127557906D01*
X127548265Y-127532192D01*
X127520770Y-127447571D01*
X127513377Y-127424818D01*
X127513375Y-127424815D01*
X127513375Y-127424813D01*
X127482121Y-127363477D01*
X127427232Y-127255750D01*
X127382881Y-127194706D01*
X127315705Y-127102245D01*
X127315701Y-127102240D01*
X127181525Y-126968064D01*
X127181520Y-126968060D01*
X127028019Y-126856536D01*
X127028018Y-126856535D01*
X127028016Y-126856534D01*
X126945799Y-126814642D01*
X126858952Y-126770390D01*
X126678485Y-126711752D01*
X126491076Y-126682070D01*
X126491071Y-126682070D01*
X126301321Y-126682070D01*
X126301316Y-126682070D01*
X126113906Y-126711752D01*
X125933439Y-126770390D01*
X125764372Y-126856536D01*
X125610871Y-126968060D01*
X125610866Y-126968064D01*
X125476690Y-127102240D01*
X125476686Y-127102245D01*
X125365162Y-127255746D01*
X125279016Y-127424813D01*
X125244127Y-127532192D01*
X125204689Y-127589867D01*
X125140330Y-127617065D01*
X125071484Y-127605150D01*
X125020008Y-127557906D01*
X125008265Y-127532192D01*
X124980770Y-127447571D01*
X124973377Y-127424818D01*
X124973375Y-127424815D01*
X124973375Y-127424813D01*
X124942121Y-127363477D01*
X124887232Y-127255750D01*
X124842881Y-127194706D01*
X124775705Y-127102245D01*
X124775701Y-127102240D01*
X124641525Y-126968064D01*
X124641520Y-126968060D01*
X124488019Y-126856536D01*
X124488018Y-126856535D01*
X124488016Y-126856534D01*
X124405799Y-126814642D01*
X124318952Y-126770390D01*
X124138485Y-126711752D01*
X123951076Y-126682070D01*
X123951071Y-126682070D01*
X123761321Y-126682070D01*
X123761316Y-126682070D01*
X123573906Y-126711752D01*
X123393439Y-126770390D01*
X123224372Y-126856536D01*
X123070871Y-126968060D01*
X123070866Y-126968064D01*
X122936690Y-127102240D01*
X122936686Y-127102245D01*
X122825162Y-127255746D01*
X122739016Y-127424813D01*
X122704127Y-127532192D01*
X122664689Y-127589867D01*
X122600330Y-127617065D01*
X122531484Y-127605150D01*
X122480008Y-127557906D01*
X122468265Y-127532192D01*
X122440770Y-127447571D01*
X122433377Y-127424818D01*
X122433375Y-127424815D01*
X122433375Y-127424813D01*
X122402121Y-127363477D01*
X122347232Y-127255750D01*
X122302881Y-127194706D01*
X122235705Y-127102245D01*
X122235701Y-127102240D01*
X122101525Y-126968064D01*
X122101520Y-126968060D01*
X121948019Y-126856536D01*
X121948018Y-126856535D01*
X121948016Y-126856534D01*
X121865799Y-126814642D01*
X121778952Y-126770390D01*
X121598485Y-126711752D01*
X121411076Y-126682070D01*
X121411071Y-126682070D01*
X121221321Y-126682070D01*
X121221316Y-126682070D01*
X121033906Y-126711752D01*
X120853439Y-126770390D01*
X120684372Y-126856536D01*
X120530871Y-126968060D01*
X120530866Y-126968064D01*
X120396690Y-127102240D01*
X120396686Y-127102245D01*
X120285162Y-127255746D01*
X120199016Y-127424813D01*
X120164127Y-127532192D01*
X120124689Y-127589867D01*
X120060330Y-127617065D01*
X119991484Y-127605150D01*
X119940008Y-127557906D01*
X119928265Y-127532192D01*
X119900770Y-127447571D01*
X119893377Y-127424818D01*
X119893375Y-127424815D01*
X119893375Y-127424813D01*
X119862121Y-127363477D01*
X119807232Y-127255750D01*
X119762881Y-127194706D01*
X119695705Y-127102245D01*
X119695701Y-127102240D01*
X119561525Y-126968064D01*
X119561520Y-126968060D01*
X119408019Y-126856536D01*
X119408018Y-126856535D01*
X119408016Y-126856534D01*
X119325799Y-126814642D01*
X119238952Y-126770390D01*
X119058485Y-126711752D01*
X118871076Y-126682070D01*
X118871071Y-126682070D01*
X118681321Y-126682070D01*
X118681316Y-126682070D01*
X118493906Y-126711752D01*
X118313439Y-126770390D01*
X118144372Y-126856536D01*
X117990871Y-126968060D01*
X117990866Y-126968064D01*
X117856690Y-127102240D01*
X117856686Y-127102245D01*
X117745162Y-127255746D01*
X117659016Y-127424813D01*
X117624127Y-127532192D01*
X117584689Y-127589867D01*
X117520330Y-127617065D01*
X117451484Y-127605150D01*
X117400008Y-127557906D01*
X117388265Y-127532192D01*
X117360770Y-127447571D01*
X117353377Y-127424818D01*
X117353375Y-127424815D01*
X117353375Y-127424813D01*
X117322121Y-127363477D01*
X117267232Y-127255750D01*
X117222881Y-127194706D01*
X117155705Y-127102245D01*
X117155701Y-127102240D01*
X117021525Y-126968064D01*
X117021520Y-126968060D01*
X116868019Y-126856536D01*
X116868018Y-126856535D01*
X116868016Y-126856534D01*
X116785799Y-126814642D01*
X116698952Y-126770390D01*
X116518485Y-126711752D01*
X116331076Y-126682070D01*
X116331071Y-126682070D01*
X116141321Y-126682070D01*
X116141316Y-126682070D01*
X115953906Y-126711752D01*
X115773439Y-126770390D01*
X115604372Y-126856536D01*
X115450871Y-126968060D01*
X115450866Y-126968064D01*
X115316690Y-127102240D01*
X115316686Y-127102245D01*
X115205162Y-127255746D01*
X115119016Y-127424813D01*
X115084127Y-127532192D01*
X115044689Y-127589867D01*
X114980330Y-127617065D01*
X114911484Y-127605150D01*
X114860008Y-127557906D01*
X114848265Y-127532192D01*
X114820770Y-127447571D01*
X114813377Y-127424818D01*
X114813375Y-127424815D01*
X114813375Y-127424813D01*
X114782121Y-127363477D01*
X114727232Y-127255750D01*
X114682881Y-127194706D01*
X114615705Y-127102245D01*
X114615701Y-127102240D01*
X114481525Y-126968064D01*
X114481520Y-126968060D01*
X114328019Y-126856536D01*
X114328018Y-126856535D01*
X114328016Y-126856534D01*
X114245799Y-126814642D01*
X114158952Y-126770390D01*
X113978485Y-126711752D01*
X113791076Y-126682070D01*
X113791071Y-126682070D01*
X113601321Y-126682070D01*
X113601316Y-126682070D01*
X113413906Y-126711752D01*
X113233439Y-126770390D01*
X113064372Y-126856536D01*
X112910871Y-126968060D01*
X112910866Y-126968064D01*
X112776690Y-127102240D01*
X112776686Y-127102245D01*
X112665162Y-127255746D01*
X112579016Y-127424813D01*
X112520378Y-127605280D01*
X112490696Y-127792689D01*
X112490696Y-127982450D01*
X112520378Y-128169859D01*
X112579016Y-128350326D01*
X112665162Y-128519393D01*
X112776686Y-128672894D01*
X112776690Y-128672899D01*
X112910866Y-128807075D01*
X112910871Y-128807079D01*
X113044763Y-128904356D01*
X113064376Y-128918606D01*
X113172103Y-128973495D01*
X113233439Y-129004749D01*
X113233441Y-129004749D01*
X113233444Y-129004751D01*
X113330176Y-129036181D01*
X113413906Y-129063387D01*
X113601316Y-129093070D01*
X113601321Y-129093070D01*
X113791076Y-129093070D01*
X113978485Y-129063387D01*
X114001697Y-129055845D01*
X114158948Y-129004751D01*
X114328016Y-128918606D01*
X114481527Y-128807074D01*
X114615700Y-128672901D01*
X114727232Y-128519390D01*
X114813377Y-128350322D01*
X114848265Y-128242948D01*
X114887703Y-128185272D01*
X114952061Y-128158074D01*
X115020908Y-128169989D01*
X115072383Y-128217233D01*
X115084127Y-128242948D01*
X115119015Y-128350322D01*
X115203024Y-128515198D01*
X115205162Y-128519393D01*
X115316686Y-128672894D01*
X115316690Y-128672899D01*
X115450866Y-128807075D01*
X115450871Y-128807079D01*
X115584763Y-128904356D01*
X115604376Y-128918606D01*
X115712103Y-128973495D01*
X115773439Y-129004749D01*
X115773441Y-129004749D01*
X115773444Y-129004751D01*
X115870176Y-129036181D01*
X115953906Y-129063387D01*
X116141316Y-129093070D01*
X116141321Y-129093070D01*
X116331076Y-129093070D01*
X116518485Y-129063387D01*
X116541697Y-129055845D01*
X116698948Y-129004751D01*
X116868016Y-128918606D01*
X117021527Y-128807074D01*
X117155700Y-128672901D01*
X117267232Y-128519390D01*
X117353377Y-128350322D01*
X117388265Y-128242948D01*
X117427703Y-128185272D01*
X117492061Y-128158074D01*
X117560908Y-128169989D01*
X117612383Y-128217233D01*
X117624127Y-128242948D01*
X117659015Y-128350322D01*
X117743024Y-128515198D01*
X117745162Y-128519393D01*
X117856686Y-128672894D01*
X117856690Y-128672899D01*
X117990866Y-128807075D01*
X117990871Y-128807079D01*
X118124763Y-128904356D01*
X118144376Y-128918606D01*
X118252103Y-128973495D01*
X118313439Y-129004749D01*
X118313441Y-129004749D01*
X118313444Y-129004751D01*
X118410176Y-129036181D01*
X118493906Y-129063387D01*
X118681316Y-129093070D01*
X118681321Y-129093070D01*
X118871076Y-129093070D01*
X119058485Y-129063387D01*
X119081697Y-129055845D01*
X119238948Y-129004751D01*
X119408016Y-128918606D01*
X119561527Y-128807074D01*
X119695700Y-128672901D01*
X119807232Y-128519390D01*
X119893377Y-128350322D01*
X119928265Y-128242948D01*
X119967703Y-128185272D01*
X120032061Y-128158074D01*
X120100908Y-128169989D01*
X120152383Y-128217233D01*
X120164127Y-128242948D01*
X120199015Y-128350322D01*
X120283024Y-128515198D01*
X120285162Y-128519393D01*
X120396686Y-128672894D01*
X120396690Y-128672899D01*
X120530866Y-128807075D01*
X120530871Y-128807079D01*
X120664763Y-128904356D01*
X120684376Y-128918606D01*
X120792103Y-128973495D01*
X120853439Y-129004749D01*
X120853441Y-129004749D01*
X120853444Y-129004751D01*
X120950176Y-129036181D01*
X121033906Y-129063387D01*
X121221316Y-129093070D01*
X121221321Y-129093070D01*
X121411076Y-129093070D01*
X121598485Y-129063387D01*
X121621697Y-129055845D01*
X121778948Y-129004751D01*
X121948016Y-128918606D01*
X122101527Y-128807074D01*
X122235700Y-128672901D01*
X122347232Y-128519390D01*
X122433377Y-128350322D01*
X122468265Y-128242948D01*
X122507703Y-128185272D01*
X122572061Y-128158074D01*
X122640908Y-128169989D01*
X122692383Y-128217233D01*
X122704127Y-128242948D01*
X122739015Y-128350322D01*
X122823024Y-128515198D01*
X122825162Y-128519393D01*
X122936686Y-128672894D01*
X122936690Y-128672899D01*
X123070866Y-128807075D01*
X123070871Y-128807079D01*
X123204763Y-128904356D01*
X123224376Y-128918606D01*
X123332103Y-128973495D01*
X123393439Y-129004749D01*
X123393441Y-129004749D01*
X123393444Y-129004751D01*
X123490176Y-129036181D01*
X123573906Y-129063387D01*
X123761316Y-129093070D01*
X123761321Y-129093070D01*
X123951076Y-129093070D01*
X124138485Y-129063387D01*
X124161697Y-129055845D01*
X124318948Y-129004751D01*
X124488016Y-128918606D01*
X124641527Y-128807074D01*
X124775700Y-128672901D01*
X124887232Y-128519390D01*
X124973377Y-128350322D01*
X125008265Y-128242948D01*
X125047703Y-128185272D01*
X125112061Y-128158074D01*
X125180908Y-128169989D01*
X125232383Y-128217233D01*
X125244127Y-128242948D01*
X125279015Y-128350322D01*
X125363024Y-128515198D01*
X125365162Y-128519393D01*
X125476686Y-128672894D01*
X125476690Y-128672899D01*
X125610866Y-128807075D01*
X125610871Y-128807079D01*
X125744763Y-128904356D01*
X125764376Y-128918606D01*
X125872103Y-128973495D01*
X125933439Y-129004749D01*
X125933441Y-129004749D01*
X125933444Y-129004751D01*
X126030176Y-129036181D01*
X126113906Y-129063387D01*
X126301316Y-129093070D01*
X126301321Y-129093070D01*
X126491076Y-129093070D01*
X126678485Y-129063387D01*
X126701697Y-129055845D01*
X126858948Y-129004751D01*
X127028016Y-128918606D01*
X127181527Y-128807074D01*
X127315700Y-128672901D01*
X127427232Y-128519390D01*
X127513377Y-128350322D01*
X127548265Y-128242948D01*
X127587703Y-128185272D01*
X127652061Y-128158074D01*
X127720908Y-128169989D01*
X127772383Y-128217233D01*
X127784127Y-128242948D01*
X127819015Y-128350322D01*
X127903024Y-128515198D01*
X127905162Y-128519393D01*
X128016686Y-128672894D01*
X128016690Y-128672899D01*
X128150866Y-128807075D01*
X128150871Y-128807079D01*
X128284763Y-128904356D01*
X128304376Y-128918606D01*
X128473444Y-129004751D01*
X128545014Y-129028005D01*
X128602688Y-129067441D01*
X128629888Y-129131799D01*
X128630696Y-129145936D01*
X128630696Y-132027789D01*
X128651516Y-132105492D01*
X128651517Y-132105494D01*
X128684133Y-132161985D01*
X128691735Y-132175151D01*
X128691737Y-132175153D01*
X129093977Y-132577393D01*
X129127462Y-132638716D01*
X129130296Y-132665074D01*
X129130296Y-133406237D01*
X129130297Y-133406238D01*
X129637529Y-133913470D01*
X130354864Y-133913469D01*
X130862096Y-133406237D01*
X130862096Y-133406236D01*
X130878944Y-133389389D01*
X130940267Y-133355904D01*
X130966625Y-133353070D01*
X139238292Y-133353070D01*
X139305331Y-133372755D01*
X139325973Y-133389389D01*
X142711735Y-136775151D01*
X142768615Y-136832031D01*
X142803446Y-136852141D01*
X142838271Y-136872248D01*
X142838273Y-136872249D01*
X142838274Y-136872249D01*
X142838277Y-136872251D01*
X142915976Y-136893070D01*
X142915978Y-136893070D01*
X171292196Y-136893070D01*
X171359235Y-136912755D01*
X171404990Y-136965559D01*
X171416196Y-137017070D01*
X171416196Y-140564166D01*
X171396511Y-140631205D01*
X171379877Y-140651847D01*
X170825973Y-141205751D01*
X170764650Y-141239236D01*
X170738292Y-141242070D01*
X170019805Y-141242070D01*
X169952766Y-141222385D01*
X169907011Y-141169581D01*
X169900032Y-141150168D01*
X169887247Y-141102454D01*
X169820697Y-140987186D01*
X169726580Y-140893069D01*
X169611312Y-140826519D01*
X169482746Y-140792070D01*
X169349646Y-140792070D01*
X169221080Y-140826519D01*
X169221077Y-140826520D01*
X169105815Y-140893067D01*
X169105809Y-140893071D01*
X169011697Y-140987183D01*
X169011693Y-140987189D01*
X168945146Y-141102451D01*
X168945145Y-141102454D01*
X168910696Y-141231020D01*
X168910696Y-141364120D01*
X168934263Y-141452071D01*
X168945145Y-141492685D01*
X168945146Y-141492688D01*
X168958556Y-141515915D01*
X169011695Y-141607954D01*
X169105812Y-141702071D01*
X169221080Y-141768621D01*
X169349646Y-141803070D01*
X169349648Y-141803070D01*
X169464510Y-141803070D01*
X169526509Y-141819682D01*
X169548277Y-141832251D01*
X169625975Y-141853070D01*
X169625976Y-141853070D01*
X169625977Y-141853070D01*
X170956414Y-141853070D01*
X170956416Y-141853070D01*
X171034115Y-141832251D01*
X171103777Y-141792031D01*
X171204515Y-141691293D01*
X171265838Y-141657808D01*
X171335530Y-141662792D01*
X171391463Y-141704664D01*
X171415880Y-141770128D01*
X171416196Y-141778974D01*
X171416196Y-144368070D01*
X171396511Y-144435109D01*
X171343707Y-144480864D01*
X171292196Y-144492070D01*
X167925976Y-144492070D01*
X167848276Y-144512889D01*
X167835982Y-144519988D01*
X167835980Y-144519989D01*
X167778618Y-144553107D01*
X167778612Y-144553111D01*
X160525973Y-151805751D01*
X160464650Y-151839236D01*
X160438292Y-151842070D01*
X138194100Y-151842070D01*
X138127061Y-151822385D01*
X138106419Y-151805751D01*
X137048015Y-150747347D01*
X137014530Y-150686024D01*
X137011696Y-150659666D01*
X137011696Y-149404433D01*
X137031381Y-149337394D01*
X137079399Y-149293949D01*
X137188016Y-149238606D01*
X137341527Y-149127074D01*
X137475700Y-148992901D01*
X137587232Y-148839390D01*
X137673377Y-148670322D01*
X137708265Y-148562948D01*
X137747703Y-148505272D01*
X137812061Y-148478074D01*
X137880908Y-148489989D01*
X137932383Y-148537233D01*
X137944127Y-148562948D01*
X137979015Y-148670322D01*
X138054886Y-148819227D01*
X138065162Y-148839393D01*
X138176686Y-148992894D01*
X138176690Y-148992899D01*
X138310866Y-149127075D01*
X138310871Y-149127079D01*
X138444763Y-149224356D01*
X138464376Y-149238606D01*
X138572103Y-149293495D01*
X138633439Y-149324749D01*
X138633441Y-149324749D01*
X138633444Y-149324751D01*
X138686294Y-149341923D01*
X138813906Y-149383387D01*
X139001316Y-149413070D01*
X139001321Y-149413070D01*
X139191076Y-149413070D01*
X139378485Y-149383387D01*
X139558948Y-149324751D01*
X139728016Y-149238606D01*
X139881527Y-149127074D01*
X140015700Y-148992901D01*
X140127232Y-148839390D01*
X140213377Y-148670322D01*
X140248265Y-148562948D01*
X140287703Y-148505272D01*
X140352061Y-148478074D01*
X140420908Y-148489989D01*
X140472383Y-148537233D01*
X140484127Y-148562948D01*
X140519015Y-148670322D01*
X140594886Y-148819227D01*
X140605162Y-148839393D01*
X140716686Y-148992894D01*
X140716690Y-148992899D01*
X140850866Y-149127075D01*
X140850871Y-149127079D01*
X140984763Y-149224356D01*
X141004376Y-149238606D01*
X141112103Y-149293495D01*
X141173439Y-149324749D01*
X141173441Y-149324749D01*
X141173444Y-149324751D01*
X141226294Y-149341923D01*
X141353906Y-149383387D01*
X141541316Y-149413070D01*
X141541321Y-149413070D01*
X141731076Y-149413070D01*
X141918485Y-149383387D01*
X142098948Y-149324751D01*
X142268016Y-149238606D01*
X142421527Y-149127074D01*
X142555700Y-148992901D01*
X142667232Y-148839390D01*
X142753377Y-148670322D01*
X142812013Y-148489859D01*
X142827860Y-148389806D01*
X142841696Y-148302450D01*
X142841696Y-148112689D01*
X142812013Y-147925280D01*
X142784807Y-147841550D01*
X142753377Y-147744818D01*
X142753375Y-147744815D01*
X142753375Y-147744813D01*
X142722121Y-147683477D01*
X142667232Y-147575750D01*
X142579381Y-147454833D01*
X142555705Y-147422245D01*
X142555701Y-147422240D01*
X142421525Y-147288064D01*
X142421520Y-147288060D01*
X142268019Y-147176536D01*
X142268018Y-147176535D01*
X142268016Y-147176534D01*
X142215220Y-147149633D01*
X142098952Y-147090390D01*
X141918485Y-147031752D01*
X141731076Y-147002070D01*
X141731071Y-147002070D01*
X141541321Y-147002070D01*
X141541316Y-147002070D01*
X141353906Y-147031752D01*
X141173439Y-147090390D01*
X141004372Y-147176536D01*
X140850871Y-147288060D01*
X140850866Y-147288064D01*
X140716690Y-147422240D01*
X140716686Y-147422245D01*
X140605162Y-147575746D01*
X140519016Y-147744813D01*
X140484127Y-147852192D01*
X140444689Y-147909867D01*
X140380330Y-147937065D01*
X140311484Y-147925150D01*
X140260008Y-147877906D01*
X140248265Y-147852192D01*
X140243284Y-147836864D01*
X140213377Y-147744818D01*
X140213375Y-147744815D01*
X140213375Y-147744813D01*
X140182121Y-147683477D01*
X140127232Y-147575750D01*
X140039381Y-147454833D01*
X140015705Y-147422245D01*
X140015701Y-147422240D01*
X139881525Y-147288064D01*
X139881520Y-147288060D01*
X139728019Y-147176536D01*
X139728018Y-147176535D01*
X139728016Y-147176534D01*
X139675220Y-147149633D01*
X139558952Y-147090390D01*
X139378485Y-147031752D01*
X139191076Y-147002070D01*
X139191071Y-147002070D01*
X139001321Y-147002070D01*
X139001316Y-147002070D01*
X138813906Y-147031752D01*
X138633439Y-147090390D01*
X138464372Y-147176536D01*
X138310871Y-147288060D01*
X138310866Y-147288064D01*
X138176690Y-147422240D01*
X138176686Y-147422245D01*
X138065162Y-147575746D01*
X137979016Y-147744813D01*
X137944127Y-147852192D01*
X137904689Y-147909867D01*
X137840330Y-147937065D01*
X137771484Y-147925150D01*
X137720008Y-147877906D01*
X137708265Y-147852192D01*
X137703284Y-147836864D01*
X137673377Y-147744818D01*
X137673375Y-147744815D01*
X137673375Y-147744813D01*
X137642121Y-147683477D01*
X137587232Y-147575750D01*
X137499381Y-147454833D01*
X137475705Y-147422245D01*
X137475701Y-147422240D01*
X137341525Y-147288064D01*
X137341520Y-147288060D01*
X137188019Y-147176536D01*
X137188018Y-147176535D01*
X137188016Y-147176534D01*
X137102990Y-147133211D01*
X137018951Y-147090390D01*
X136907377Y-147054137D01*
X136849702Y-147014699D01*
X136822504Y-146950340D01*
X136821696Y-146936206D01*
X136821696Y-145829632D01*
X136841381Y-145762593D01*
X136894185Y-145716838D01*
X136898185Y-145715095D01*
X136914322Y-145708412D01*
X137051984Y-145616429D01*
X137169055Y-145499358D01*
X137261038Y-145361696D01*
X137324396Y-145208735D01*
X137326050Y-145200423D01*
X137356695Y-145046356D01*
X137356696Y-145046354D01*
X137356696Y-144880785D01*
X137356695Y-144880783D01*
X137324398Y-144718412D01*
X137324395Y-144718403D01*
X137261041Y-144565450D01*
X137261034Y-144565437D01*
X137169055Y-144427782D01*
X137169052Y-144427778D01*
X137051987Y-144310713D01*
X137051983Y-144310710D01*
X136952997Y-144244569D01*
X136908192Y-144190956D01*
X136899485Y-144121631D01*
X136929640Y-144058604D01*
X136974435Y-144026906D01*
X137036979Y-144000999D01*
X137103826Y-143949070D01*
X137103832Y-143949065D01*
X137533692Y-143519205D01*
X137533703Y-143519192D01*
X137585625Y-143452354D01*
X137585625Y-143452353D01*
X137640646Y-143319520D01*
X137651195Y-143235537D01*
X137651196Y-143235531D01*
X137651196Y-143181570D01*
X136840933Y-143181570D01*
X136841397Y-143181106D01*
X136894901Y-143088435D01*
X136922596Y-142985074D01*
X136922596Y-142878066D01*
X136894901Y-142774705D01*
X136841397Y-142682034D01*
X136840933Y-142681570D01*
X137651195Y-142681570D01*
X137651195Y-142627609D01*
X137640647Y-142543619D01*
X137585625Y-142410786D01*
X137533696Y-142343939D01*
X137533691Y-142343933D01*
X137103831Y-141914073D01*
X137103818Y-141914062D01*
X137036980Y-141862140D01*
X136915040Y-141811631D01*
X136860637Y-141767790D01*
X136838572Y-141701496D01*
X136855851Y-141633796D01*
X136906989Y-141586186D01*
X136962493Y-141573070D01*
X163432696Y-141573070D01*
X163499735Y-141592755D01*
X163545490Y-141645559D01*
X163556696Y-141697070D01*
X163556696Y-141931814D01*
X163568617Y-141991749D01*
X163568618Y-141991750D01*
X163614038Y-142059727D01*
X163648026Y-142082437D01*
X163682014Y-142105147D01*
X163682015Y-142105147D01*
X163682016Y-142105148D01*
X163741951Y-142117069D01*
X163741955Y-142117070D01*
X163741956Y-142117070D01*
X165290437Y-142117070D01*
X165290438Y-142117069D01*
X165310597Y-142113059D01*
X165350375Y-142105148D01*
X165350375Y-142105147D01*
X165350378Y-142105147D01*
X165418353Y-142059727D01*
X165463773Y-141991752D01*
X165470617Y-141957347D01*
X165475695Y-141931814D01*
X165475696Y-141931811D01*
X165475696Y-140383329D01*
X165475695Y-140383325D01*
X165463774Y-140323390D01*
X165463773Y-140323389D01*
X165463773Y-140323388D01*
X165441055Y-140289389D01*
X165418353Y-140255412D01*
X165367486Y-140221424D01*
X165350378Y-140209993D01*
X165350377Y-140209992D01*
X165350376Y-140209992D01*
X165350375Y-140209991D01*
X165290440Y-140198070D01*
X165290436Y-140198070D01*
X163741956Y-140198070D01*
X163741951Y-140198070D01*
X163682016Y-140209991D01*
X163682015Y-140209992D01*
X163614038Y-140255412D01*
X163568618Y-140323389D01*
X163568617Y-140323390D01*
X163556696Y-140383325D01*
X163556696Y-140838070D01*
X163537011Y-140905109D01*
X163484207Y-140950864D01*
X163432696Y-140962070D01*
X129255976Y-140962070D01*
X129178277Y-140982889D01*
X129178274Y-140982890D01*
X129108617Y-141023107D01*
X129108611Y-141023111D01*
X126208615Y-143923109D01*
X126151737Y-143979986D01*
X126151731Y-143979995D01*
X126111517Y-144049645D01*
X126111516Y-144049647D01*
X126090696Y-144127350D01*
X126090696Y-146949203D01*
X126071011Y-147016242D01*
X126018207Y-147061997D01*
X126005017Y-147067133D01*
X125933444Y-147090389D01*
X125857001Y-147129339D01*
X125764372Y-147176536D01*
X125610871Y-147288060D01*
X125610866Y-147288064D01*
X125476690Y-147422240D01*
X125476686Y-147422245D01*
X125365162Y-147575746D01*
X125279016Y-147744813D01*
X125244127Y-147852192D01*
X125204689Y-147909867D01*
X125140330Y-147937065D01*
X125071484Y-147925150D01*
X125020008Y-147877906D01*
X125008265Y-147852192D01*
X125003284Y-147836864D01*
X124973377Y-147744818D01*
X124973375Y-147744815D01*
X124973375Y-147744813D01*
X124942121Y-147683477D01*
X124887232Y-147575750D01*
X124799381Y-147454833D01*
X124775705Y-147422245D01*
X124775701Y-147422240D01*
X124641525Y-147288064D01*
X124641520Y-147288060D01*
X124488019Y-147176536D01*
X124488018Y-147176535D01*
X124488016Y-147176534D01*
X124318948Y-147090389D01*
X124247376Y-147067133D01*
X124189702Y-147027696D01*
X124162504Y-146963337D01*
X124161696Y-146949203D01*
X124161696Y-144885474D01*
X124181381Y-144818435D01*
X124198015Y-144797793D01*
X128706419Y-140289389D01*
X128767742Y-140255904D01*
X128794100Y-140253070D01*
X159356414Y-140253070D01*
X159356416Y-140253070D01*
X159434115Y-140232251D01*
X159503777Y-140192031D01*
X160206418Y-139489388D01*
X160267741Y-139455904D01*
X160294099Y-139453070D01*
X160382744Y-139453070D01*
X160382746Y-139453070D01*
X160511312Y-139418621D01*
X160626580Y-139352071D01*
X160720697Y-139257954D01*
X160787247Y-139142686D01*
X160821696Y-139014120D01*
X160821696Y-138881020D01*
X160787247Y-138752454D01*
X160720697Y-138637186D01*
X160626580Y-138543069D01*
X160511312Y-138476519D01*
X160382746Y-138442070D01*
X160249646Y-138442070D01*
X160121080Y-138476519D01*
X160121077Y-138476520D01*
X160005815Y-138543067D01*
X160005809Y-138543071D01*
X159911697Y-138637183D01*
X159911693Y-138637189D01*
X159845146Y-138752451D01*
X159845145Y-138752454D01*
X159810696Y-138881020D01*
X159810696Y-138969665D01*
X159791011Y-139036704D01*
X159774377Y-139057346D01*
X159225973Y-139605751D01*
X159164650Y-139639236D01*
X159138292Y-139642070D01*
X128575970Y-139642070D01*
X128498278Y-139662887D01*
X128428612Y-139703110D01*
X123668615Y-144463109D01*
X123611737Y-144519986D01*
X123611731Y-144519995D01*
X123571517Y-144589645D01*
X123571516Y-144589647D01*
X123550696Y-144667350D01*
X123550696Y-146949203D01*
X123531011Y-147016242D01*
X123478207Y-147061997D01*
X123465017Y-147067133D01*
X123393444Y-147090389D01*
X123317001Y-147129339D01*
X123224372Y-147176536D01*
X123070871Y-147288060D01*
X123070866Y-147288064D01*
X122936690Y-147422240D01*
X122936686Y-147422245D01*
X122825162Y-147575746D01*
X122739016Y-147744813D01*
X122704127Y-147852192D01*
X122664689Y-147909867D01*
X122600330Y-147937065D01*
X122531484Y-147925150D01*
X122480008Y-147877906D01*
X122468265Y-147852192D01*
X122463284Y-147836864D01*
X122433377Y-147744818D01*
X122433375Y-147744815D01*
X122433375Y-147744813D01*
X122402121Y-147683477D01*
X122347232Y-147575750D01*
X122259381Y-147454833D01*
X122235705Y-147422245D01*
X122235701Y-147422240D01*
X122101525Y-147288064D01*
X122101520Y-147288060D01*
X121948019Y-147176536D01*
X121948018Y-147176535D01*
X121948016Y-147176534D01*
X121895220Y-147149633D01*
X121778952Y-147090390D01*
X121598485Y-147031752D01*
X121411076Y-147002070D01*
X121411071Y-147002070D01*
X121221321Y-147002070D01*
X121221316Y-147002070D01*
X121033906Y-147031752D01*
X120853439Y-147090390D01*
X120684372Y-147176536D01*
X120530871Y-147288060D01*
X120530866Y-147288064D01*
X120396690Y-147422240D01*
X120396686Y-147422245D01*
X120285162Y-147575746D01*
X120199016Y-147744813D01*
X120164127Y-147852192D01*
X120124689Y-147909867D01*
X120060330Y-147937065D01*
X119991484Y-147925150D01*
X119940008Y-147877906D01*
X119928265Y-147852192D01*
X119923284Y-147836864D01*
X119893377Y-147744818D01*
X119893375Y-147744815D01*
X119893375Y-147744813D01*
X119862121Y-147683477D01*
X119807232Y-147575750D01*
X119719381Y-147454833D01*
X119695705Y-147422245D01*
X119695701Y-147422240D01*
X119561525Y-147288064D01*
X119561520Y-147288060D01*
X119408019Y-147176536D01*
X119408018Y-147176535D01*
X119408016Y-147176534D01*
X119355220Y-147149633D01*
X119238952Y-147090390D01*
X119058485Y-147031752D01*
X118871076Y-147002070D01*
X118871071Y-147002070D01*
X118681321Y-147002070D01*
X118681316Y-147002070D01*
X118493906Y-147031752D01*
X118313439Y-147090390D01*
X118144372Y-147176536D01*
X117990871Y-147288060D01*
X117990866Y-147288064D01*
X117856690Y-147422240D01*
X117856686Y-147422245D01*
X117745162Y-147575746D01*
X117659016Y-147744813D01*
X117624127Y-147852192D01*
X117584689Y-147909867D01*
X117520330Y-147937065D01*
X117451484Y-147925150D01*
X117400008Y-147877906D01*
X117388265Y-147852192D01*
X117383284Y-147836864D01*
X117353377Y-147744818D01*
X117353375Y-147744815D01*
X117353375Y-147744813D01*
X117322121Y-147683477D01*
X117267232Y-147575750D01*
X117179381Y-147454833D01*
X117155705Y-147422245D01*
X117155701Y-147422240D01*
X117021525Y-147288064D01*
X117021520Y-147288060D01*
X116868019Y-147176536D01*
X116868018Y-147176535D01*
X116868016Y-147176534D01*
X116815220Y-147149633D01*
X116698952Y-147090390D01*
X116518485Y-147031752D01*
X116331076Y-147002070D01*
X116331071Y-147002070D01*
X116141321Y-147002070D01*
X116141316Y-147002070D01*
X115953906Y-147031752D01*
X115773439Y-147090390D01*
X115604372Y-147176536D01*
X115450871Y-147288060D01*
X115450866Y-147288064D01*
X115316690Y-147422240D01*
X115316686Y-147422245D01*
X115205162Y-147575746D01*
X115119016Y-147744813D01*
X115084127Y-147852192D01*
X115044689Y-147909867D01*
X114980330Y-147937065D01*
X114911484Y-147925150D01*
X114860008Y-147877906D01*
X114848265Y-147852192D01*
X114843284Y-147836864D01*
X114813377Y-147744818D01*
X114813375Y-147744815D01*
X114813375Y-147744813D01*
X114782121Y-147683477D01*
X114727232Y-147575750D01*
X114639381Y-147454833D01*
X114615705Y-147422245D01*
X114615701Y-147422240D01*
X114481525Y-147288064D01*
X114481520Y-147288060D01*
X114328019Y-147176536D01*
X114328018Y-147176535D01*
X114328016Y-147176534D01*
X114275220Y-147149633D01*
X114158952Y-147090390D01*
X113978485Y-147031752D01*
X113791076Y-147002070D01*
X113791071Y-147002070D01*
X113601321Y-147002070D01*
X113601316Y-147002070D01*
X113413906Y-147031752D01*
X113233439Y-147090390D01*
X113064372Y-147176536D01*
X112910871Y-147288060D01*
X112910866Y-147288064D01*
X112776690Y-147422240D01*
X112776686Y-147422245D01*
X112665162Y-147575746D01*
X112579016Y-147744813D01*
X112520378Y-147925280D01*
X112490696Y-148112689D01*
X112490696Y-148302450D01*
X112520378Y-148489859D01*
X112579016Y-148670326D01*
X112638259Y-148786594D01*
X112654886Y-148819227D01*
X112665162Y-148839393D01*
X112776686Y-148992894D01*
X112776690Y-148992899D01*
X112910866Y-149127075D01*
X112910871Y-149127079D01*
X113044763Y-149224356D01*
X113064376Y-149238606D01*
X113172103Y-149293495D01*
X113233439Y-149324749D01*
X113233441Y-149324749D01*
X113233444Y-149324751D01*
X113286294Y-149341923D01*
X113413906Y-149383387D01*
X113601316Y-149413070D01*
X113601321Y-149413070D01*
X113791076Y-149413070D01*
X113978485Y-149383387D01*
X114158948Y-149324751D01*
X114328016Y-149238606D01*
X114481527Y-149127074D01*
X114615700Y-148992901D01*
X114727232Y-148839390D01*
X114813377Y-148670322D01*
X114848265Y-148562948D01*
X114887703Y-148505272D01*
X114952061Y-148478074D01*
X115020908Y-148489989D01*
X115072383Y-148537233D01*
X115084127Y-148562948D01*
X115119015Y-148670322D01*
X115194886Y-148819227D01*
X115205162Y-148839393D01*
X115316686Y-148992894D01*
X115316690Y-148992899D01*
X115450866Y-149127075D01*
X115450871Y-149127079D01*
X115584763Y-149224356D01*
X115604376Y-149238606D01*
X115712103Y-149293495D01*
X115773439Y-149324749D01*
X115773441Y-149324749D01*
X115773444Y-149324751D01*
X115826294Y-149341923D01*
X115953906Y-149383387D01*
X116141316Y-149413070D01*
X116141321Y-149413070D01*
X116331076Y-149413070D01*
X116518485Y-149383387D01*
X116698948Y-149324751D01*
X116868016Y-149238606D01*
X117021527Y-149127074D01*
X117155700Y-148992901D01*
X117267232Y-148839390D01*
X117353377Y-148670322D01*
X117388265Y-148562948D01*
X117427703Y-148505272D01*
X117492061Y-148478074D01*
X117560908Y-148489989D01*
X117612383Y-148537233D01*
X117624127Y-148562948D01*
X117659015Y-148670322D01*
X117734886Y-148819227D01*
X117745162Y-148839393D01*
X117856686Y-148992894D01*
X117856690Y-148992899D01*
X117990866Y-149127075D01*
X117990871Y-149127079D01*
X118124763Y-149224356D01*
X118144376Y-149238606D01*
X118252103Y-149293495D01*
X118313439Y-149324749D01*
X118313441Y-149324749D01*
X118313444Y-149324751D01*
X118366294Y-149341923D01*
X118493906Y-149383387D01*
X118681316Y-149413070D01*
X118681321Y-149413070D01*
X118871076Y-149413070D01*
X119058485Y-149383387D01*
X119238948Y-149324751D01*
X119408016Y-149238606D01*
X119561527Y-149127074D01*
X119695700Y-148992901D01*
X119807232Y-148839390D01*
X119893377Y-148670322D01*
X119928265Y-148562948D01*
X119967703Y-148505272D01*
X120032061Y-148478074D01*
X120100908Y-148489989D01*
X120152383Y-148537233D01*
X120164127Y-148562948D01*
X120199015Y-148670322D01*
X120274886Y-148819227D01*
X120285162Y-148839393D01*
X120396686Y-148992894D01*
X120396690Y-148992899D01*
X120530866Y-149127075D01*
X120530871Y-149127079D01*
X120664763Y-149224356D01*
X120684376Y-149238606D01*
X120792103Y-149293495D01*
X120853439Y-149324749D01*
X120853441Y-149324749D01*
X120853444Y-149324751D01*
X120906294Y-149341923D01*
X121033906Y-149383387D01*
X121221316Y-149413070D01*
X121221321Y-149413070D01*
X121411076Y-149413070D01*
X121598485Y-149383387D01*
X121778948Y-149324751D01*
X121948016Y-149238606D01*
X122101527Y-149127074D01*
X122235700Y-148992901D01*
X122347232Y-148839390D01*
X122433377Y-148670322D01*
X122468265Y-148562948D01*
X122507703Y-148505272D01*
X122572061Y-148478074D01*
X122640908Y-148489989D01*
X122692383Y-148537233D01*
X122704127Y-148562948D01*
X122739015Y-148670322D01*
X122814886Y-148819227D01*
X122825162Y-148839393D01*
X122936686Y-148992894D01*
X122936690Y-148992899D01*
X123070866Y-149127075D01*
X123070871Y-149127079D01*
X123204763Y-149224356D01*
X123224376Y-149238606D01*
X123332103Y-149293495D01*
X123393439Y-149324749D01*
X123393441Y-149324749D01*
X123393444Y-149324751D01*
X123446294Y-149341923D01*
X123573906Y-149383387D01*
X123761316Y-149413070D01*
X123761321Y-149413070D01*
X123951076Y-149413070D01*
X124138485Y-149383387D01*
X124318948Y-149324751D01*
X124488016Y-149238606D01*
X124641527Y-149127074D01*
X124775700Y-148992901D01*
X124887232Y-148839390D01*
X124973377Y-148670322D01*
X125008265Y-148562948D01*
X125047703Y-148505272D01*
X125112061Y-148478074D01*
X125180908Y-148489989D01*
X125232383Y-148537233D01*
X125244127Y-148562948D01*
X125279015Y-148670322D01*
X125354886Y-148819227D01*
X125365162Y-148839393D01*
X125476686Y-148992894D01*
X125476690Y-148992899D01*
X125610866Y-149127075D01*
X125610871Y-149127079D01*
X125744763Y-149224356D01*
X125764376Y-149238606D01*
X125872103Y-149293495D01*
X125933439Y-149324749D01*
X125933441Y-149324749D01*
X125933444Y-149324751D01*
X125986294Y-149341923D01*
X126113906Y-149383387D01*
X126301316Y-149413070D01*
X126301321Y-149413070D01*
X126491076Y-149413070D01*
X126678485Y-149383387D01*
X126858948Y-149324751D01*
X127028016Y-149238606D01*
X127181527Y-149127074D01*
X127315700Y-148992901D01*
X127427232Y-148839390D01*
X127513377Y-148670322D01*
X127548265Y-148562948D01*
X127587703Y-148505272D01*
X127652061Y-148478074D01*
X127720908Y-148489989D01*
X127772383Y-148537233D01*
X127784127Y-148562948D01*
X127819015Y-148670322D01*
X127894886Y-148819227D01*
X127905162Y-148839393D01*
X128016686Y-148992894D01*
X128016690Y-148992899D01*
X128150866Y-149127075D01*
X128150871Y-149127079D01*
X128284763Y-149224356D01*
X128304376Y-149238606D01*
X128412103Y-149293495D01*
X128473439Y-149324749D01*
X128473441Y-149324749D01*
X128473444Y-149324751D01*
X128526294Y-149341923D01*
X128653906Y-149383387D01*
X128841316Y-149413070D01*
X128841321Y-149413070D01*
X129031076Y-149413070D01*
X129218485Y-149383387D01*
X129398948Y-149324751D01*
X129568016Y-149238606D01*
X129721527Y-149127074D01*
X129855700Y-148992901D01*
X129967232Y-148839390D01*
X130053377Y-148670322D01*
X130088265Y-148562948D01*
X130127703Y-148505272D01*
X130192061Y-148478074D01*
X130260908Y-148489989D01*
X130312383Y-148537233D01*
X130324127Y-148562948D01*
X130359015Y-148670322D01*
X130434886Y-148819227D01*
X130445162Y-148839393D01*
X130556686Y-148992894D01*
X130556690Y-148992899D01*
X130690866Y-149127075D01*
X130690871Y-149127079D01*
X130824763Y-149224356D01*
X130844376Y-149238606D01*
X130952103Y-149293495D01*
X131013439Y-149324749D01*
X131013441Y-149324749D01*
X131013444Y-149324751D01*
X131066294Y-149341923D01*
X131193906Y-149383387D01*
X131381316Y-149413070D01*
X131381321Y-149413070D01*
X131571076Y-149413070D01*
X131758485Y-149383387D01*
X131938948Y-149324751D01*
X132108016Y-149238606D01*
X132261527Y-149127074D01*
X132395700Y-148992901D01*
X132507232Y-148839390D01*
X132593377Y-148670322D01*
X132628265Y-148562948D01*
X132667703Y-148505272D01*
X132732061Y-148478074D01*
X132800908Y-148489989D01*
X132852383Y-148537233D01*
X132864127Y-148562948D01*
X132899015Y-148670322D01*
X132974886Y-148819227D01*
X132985162Y-148839393D01*
X133096686Y-148992894D01*
X133096690Y-148992899D01*
X133230866Y-149127075D01*
X133230871Y-149127079D01*
X133364763Y-149224356D01*
X133384376Y-149238606D01*
X133492103Y-149293495D01*
X133553439Y-149324749D01*
X133553441Y-149324749D01*
X133553444Y-149324751D01*
X133606294Y-149341923D01*
X133733906Y-149383387D01*
X133921316Y-149413070D01*
X133921321Y-149413070D01*
X134111076Y-149413070D01*
X134298485Y-149383387D01*
X134478948Y-149324751D01*
X134648016Y-149238606D01*
X134801527Y-149127074D01*
X134935700Y-148992901D01*
X135047232Y-148839390D01*
X135133377Y-148670322D01*
X135168265Y-148562948D01*
X135207703Y-148505272D01*
X135272061Y-148478074D01*
X135340908Y-148489989D01*
X135392383Y-148537233D01*
X135404127Y-148562948D01*
X135439015Y-148670322D01*
X135514886Y-148819227D01*
X135525162Y-148839393D01*
X135636686Y-148992894D01*
X135636690Y-148992899D01*
X135770866Y-149127075D01*
X135770871Y-149127079D01*
X135904763Y-149224356D01*
X135924376Y-149238606D01*
X136032992Y-149293949D01*
X136083787Y-149341923D01*
X136100696Y-149404433D01*
X136100696Y-150447533D01*
X136081011Y-150514572D01*
X136064377Y-150535214D01*
X135876513Y-150723079D01*
X135343841Y-151255751D01*
X135282518Y-151289236D01*
X135256160Y-151292070D01*
X108856232Y-151292070D01*
X108789193Y-151272385D01*
X108768551Y-151255751D01*
X106608015Y-149095215D01*
X106574530Y-149033892D01*
X106571696Y-149007534D01*
X106571696Y-144087606D01*
X106591381Y-144020567D01*
X106608015Y-143999925D01*
X106820338Y-143787602D01*
X107161665Y-143446274D01*
X107222986Y-143412791D01*
X107292677Y-143417775D01*
X107322975Y-143434186D01*
X107339357Y-143446276D01*
X107350951Y-143454833D01*
X107480555Y-143500184D01*
X107511328Y-143503070D01*
X107511332Y-143503070D01*
X110621064Y-143503070D01*
X110651835Y-143500184D01*
X110651837Y-143500184D01*
X110716638Y-143477508D01*
X110781441Y-143454833D01*
X110891921Y-143373295D01*
X110973459Y-143262815D01*
X111002050Y-143181106D01*
X111018810Y-143133211D01*
X111018810Y-143133209D01*
X111021696Y-143102437D01*
X111021696Y-142492702D01*
X111018810Y-142461930D01*
X111018810Y-142461928D01*
X110984796Y-142364726D01*
X110973459Y-142332325D01*
X110891921Y-142221845D01*
X110781441Y-142140307D01*
X110781439Y-142140306D01*
X110651836Y-142094955D01*
X110621064Y-142092070D01*
X110621060Y-142092070D01*
X107511332Y-142092070D01*
X107511328Y-142092070D01*
X107480556Y-142094955D01*
X107480554Y-142094955D01*
X107350952Y-142140306D01*
X107240470Y-142221845D01*
X107187947Y-142293011D01*
X107132299Y-142335261D01*
X107114051Y-142339869D01*
X107114078Y-142339967D01*
X107106229Y-142342070D01*
X107106228Y-142342070D01*
X107053184Y-142356283D01*
X107014860Y-142366552D01*
X107014859Y-142366551D01*
X106990381Y-142373111D01*
X106990378Y-142373112D01*
X106886513Y-142433078D01*
X106886510Y-142433080D01*
X105751706Y-143567885D01*
X105751704Y-143567888D01*
X105691738Y-143671753D01*
X105660696Y-143787603D01*
X105660696Y-148231905D01*
X105641011Y-148298944D01*
X105588207Y-148344699D01*
X105519049Y-148354643D01*
X105455493Y-148325618D01*
X105431157Y-148297002D01*
X105358511Y-148179225D01*
X105234540Y-148055254D01*
X105085319Y-147963213D01*
X105085314Y-147963211D01*
X104918892Y-147908064D01*
X104918885Y-147908063D01*
X104816181Y-147897570D01*
X103566196Y-147897570D01*
X103566196Y-150397570D01*
X104816169Y-150397570D01*
X104816181Y-150397569D01*
X104918885Y-150387076D01*
X104918892Y-150387075D01*
X105085314Y-150331928D01*
X105085319Y-150331926D01*
X105234540Y-150239885D01*
X105358511Y-150115914D01*
X105450552Y-149966693D01*
X105450554Y-149966688D01*
X105505701Y-149800266D01*
X105505702Y-149800259D01*
X105516195Y-149697555D01*
X105516196Y-149697542D01*
X105516196Y-149582113D01*
X105535881Y-149515074D01*
X105588685Y-149469319D01*
X105657843Y-149459375D01*
X105721399Y-149488400D01*
X105747585Y-149520117D01*
X105751702Y-149527249D01*
X105751704Y-149527252D01*
X105751705Y-149527253D01*
X108336513Y-152112061D01*
X108440380Y-152172028D01*
X108556228Y-152203070D01*
X108556230Y-152203070D01*
X135556162Y-152203070D01*
X135556164Y-152203070D01*
X135672012Y-152172028D01*
X135775879Y-152112061D01*
X136520687Y-151367253D01*
X136574581Y-151313359D01*
X136635904Y-151279874D01*
X136705596Y-151284858D01*
X136749943Y-151313359D01*
X137771735Y-152335151D01*
X137828615Y-152392031D01*
X137863446Y-152412141D01*
X137898271Y-152432248D01*
X137898273Y-152432249D01*
X137898274Y-152432249D01*
X137898277Y-152432251D01*
X137975976Y-152453070D01*
X137975978Y-152453070D01*
X160656414Y-152453070D01*
X160656416Y-152453070D01*
X160734115Y-152432251D01*
X160803777Y-152392031D01*
X168056419Y-145139389D01*
X168117742Y-145105904D01*
X168144100Y-145103070D01*
X171292196Y-145103070D01*
X171359235Y-145122755D01*
X171404990Y-145175559D01*
X171416196Y-145227070D01*
X171416196Y-145929161D01*
X171396511Y-145996200D01*
X171348492Y-146039645D01*
X171266375Y-146081486D01*
X171062572Y-146229557D01*
X171062567Y-146229561D01*
X170884427Y-146407701D01*
X170884423Y-146407706D01*
X170736354Y-146611507D01*
X170621982Y-146835972D01*
X170544132Y-147075570D01*
X170504722Y-147324394D01*
X170504722Y-147576317D01*
X170544132Y-147825141D01*
X170621982Y-148064739D01*
X170736354Y-148289204D01*
X170884423Y-148493005D01*
X170884427Y-148493010D01*
X171062567Y-148671150D01*
X171062572Y-148671154D01*
X171263836Y-148817380D01*
X171266377Y-148819226D01*
X171348491Y-148861065D01*
X171399287Y-148909038D01*
X171416196Y-148971549D01*
X171416196Y-153898070D01*
X171396511Y-153965109D01*
X171343707Y-154010864D01*
X171292196Y-154022070D01*
X101074196Y-154022070D01*
X101007157Y-154002385D01*
X100961402Y-153949581D01*
X100950196Y-153898070D01*
X100950196Y-150028377D01*
X100969881Y-149961338D01*
X101022685Y-149915583D01*
X101091843Y-149905639D01*
X101155399Y-149934664D01*
X101179735Y-149963280D01*
X101273880Y-150115914D01*
X101397851Y-150239885D01*
X101547072Y-150331926D01*
X101547077Y-150331928D01*
X101713499Y-150387075D01*
X101713506Y-150387076D01*
X101816210Y-150397569D01*
X101816223Y-150397570D01*
X103066196Y-150397570D01*
X103066196Y-147897570D01*
X101816210Y-147897570D01*
X101713506Y-147908063D01*
X101713499Y-147908064D01*
X101547077Y-147963211D01*
X101547072Y-147963213D01*
X101397851Y-148055254D01*
X101273880Y-148179225D01*
X101179735Y-148331859D01*
X101127787Y-148378583D01*
X101058824Y-148389806D01*
X100994742Y-148361962D01*
X100955886Y-148303893D01*
X100950196Y-148266762D01*
X100950196Y-141097556D01*
X106816197Y-141097556D01*
X106826690Y-141200267D01*
X106881837Y-141366689D01*
X106881839Y-141366694D01*
X106973880Y-141515915D01*
X107097850Y-141639885D01*
X107247071Y-141731926D01*
X107247076Y-141731928D01*
X107413498Y-141787075D01*
X107413505Y-141787076D01*
X107516215Y-141797569D01*
X108816195Y-141797569D01*
X109316196Y-141797569D01*
X110616168Y-141797569D01*
X110616182Y-141797568D01*
X110718893Y-141787075D01*
X110885315Y-141731928D01*
X110885320Y-141731926D01*
X111034541Y-141639885D01*
X111158511Y-141515915D01*
X111250552Y-141366694D01*
X111250554Y-141366689D01*
X111305701Y-141200267D01*
X111305702Y-141200260D01*
X111316195Y-141097556D01*
X111316196Y-141097543D01*
X111316196Y-141047570D01*
X109316196Y-141047570D01*
X109316196Y-141797569D01*
X108816195Y-141797569D01*
X108816196Y-141797568D01*
X108816196Y-141047570D01*
X106816197Y-141047570D01*
X106816197Y-141097556D01*
X100950196Y-141097556D01*
X100950196Y-140497583D01*
X106816196Y-140497583D01*
X106816196Y-140547570D01*
X108816196Y-140547570D01*
X109316196Y-140547570D01*
X111316195Y-140547570D01*
X111316195Y-140497598D01*
X111316194Y-140497583D01*
X111305701Y-140394872D01*
X111250554Y-140228450D01*
X111250552Y-140228445D01*
X111158511Y-140079224D01*
X111034541Y-139955254D01*
X110885320Y-139863213D01*
X110885315Y-139863211D01*
X110718893Y-139808064D01*
X110718886Y-139808063D01*
X110616182Y-139797570D01*
X109316196Y-139797570D01*
X109316196Y-140547570D01*
X108816196Y-140547570D01*
X108816196Y-139797570D01*
X107516224Y-139797570D01*
X107516208Y-139797571D01*
X107413498Y-139808064D01*
X107247076Y-139863211D01*
X107247071Y-139863213D01*
X107097850Y-139955254D01*
X106973880Y-140079224D01*
X106881839Y-140228445D01*
X106881837Y-140228450D01*
X106826690Y-140394872D01*
X106826689Y-140394879D01*
X106816196Y-140497583D01*
X100950196Y-140497583D01*
X100950196Y-139328377D01*
X100969881Y-139261338D01*
X101022685Y-139215583D01*
X101091843Y-139205639D01*
X101155399Y-139234664D01*
X101179735Y-139263280D01*
X101273880Y-139415914D01*
X101397851Y-139539885D01*
X101547072Y-139631926D01*
X101547077Y-139631928D01*
X101713499Y-139687075D01*
X101713506Y-139687076D01*
X101816210Y-139697569D01*
X101816223Y-139697570D01*
X103066196Y-139697570D01*
X103566196Y-139697570D01*
X104816169Y-139697570D01*
X104816181Y-139697569D01*
X104918885Y-139687076D01*
X104918892Y-139687075D01*
X105085314Y-139631928D01*
X105085319Y-139631926D01*
X105234540Y-139539885D01*
X105358511Y-139415914D01*
X105450552Y-139266693D01*
X105450554Y-139266688D01*
X105505701Y-139100266D01*
X105505702Y-139100259D01*
X105516195Y-138997555D01*
X105516196Y-138997542D01*
X105516196Y-138697570D01*
X103566196Y-138697570D01*
X103566196Y-139697570D01*
X103066196Y-139697570D01*
X103066196Y-138197570D01*
X103566196Y-138197570D01*
X105516196Y-138197570D01*
X105516196Y-137897597D01*
X105516195Y-137897584D01*
X105505702Y-137794880D01*
X105505701Y-137794873D01*
X105450554Y-137628451D01*
X105450552Y-137628446D01*
X105358511Y-137479225D01*
X105234540Y-137355254D01*
X105085319Y-137263213D01*
X105085314Y-137263211D01*
X104918892Y-137208064D01*
X104918885Y-137208063D01*
X104816181Y-137197570D01*
X103566196Y-137197570D01*
X103566196Y-138197570D01*
X103066196Y-138197570D01*
X103066196Y-137197570D01*
X101816210Y-137197570D01*
X101713506Y-137208063D01*
X101713499Y-137208064D01*
X101547077Y-137263211D01*
X101547072Y-137263213D01*
X101397851Y-137355254D01*
X101273880Y-137479225D01*
X101179735Y-137631859D01*
X101127787Y-137678583D01*
X101058824Y-137689806D01*
X100994742Y-137661962D01*
X100955886Y-137603893D01*
X100950196Y-137566762D01*
X100950196Y-135039768D01*
X100969881Y-134972729D01*
X101022685Y-134926974D01*
X101091843Y-134917030D01*
X101155399Y-134946055D01*
X101171463Y-134962858D01*
X101173880Y-134965915D01*
X101297850Y-135089885D01*
X101447071Y-135181926D01*
X101447076Y-135181928D01*
X101613498Y-135237075D01*
X101613505Y-135237076D01*
X101716215Y-135247569D01*
X102166195Y-135247569D01*
X102666196Y-135247569D01*
X103116168Y-135247569D01*
X103116182Y-135247568D01*
X103218893Y-135237075D01*
X103385315Y-135181928D01*
X103385320Y-135181926D01*
X103534541Y-135089885D01*
X103658511Y-134965915D01*
X103750552Y-134816694D01*
X103750554Y-134816689D01*
X103805701Y-134650267D01*
X103805702Y-134650260D01*
X103816195Y-134547556D01*
X103816196Y-134547543D01*
X103816196Y-134397570D01*
X102666196Y-134397570D01*
X102666196Y-135247569D01*
X102166195Y-135247569D01*
X102166196Y-135247568D01*
X102166196Y-133897570D01*
X102666196Y-133897570D01*
X103816195Y-133897570D01*
X103816195Y-133747598D01*
X103816194Y-133747583D01*
X103805701Y-133644872D01*
X103750554Y-133478450D01*
X103750552Y-133478445D01*
X103658511Y-133329224D01*
X103534541Y-133205254D01*
X103385320Y-133113213D01*
X103385315Y-133113211D01*
X103218893Y-133058064D01*
X103218886Y-133058063D01*
X103116182Y-133047570D01*
X102666196Y-133047570D01*
X102666196Y-133897570D01*
X102166196Y-133897570D01*
X102166196Y-133047570D01*
X101716224Y-133047570D01*
X101716208Y-133047571D01*
X101613498Y-133058064D01*
X101447076Y-133113211D01*
X101447071Y-133113213D01*
X101297850Y-133205254D01*
X101173878Y-133329226D01*
X101171459Y-133332286D01*
X101169266Y-133333838D01*
X101168772Y-133334333D01*
X101168687Y-133334248D01*
X101114435Y-133372661D01*
X101044636Y-133375796D01*
X100984222Y-133340697D01*
X100952374Y-133278508D01*
X100950196Y-133255371D01*
X100950196Y-130097571D01*
X105018900Y-130097571D01*
X105019095Y-130100056D01*
X105064914Y-130257768D01*
X105148510Y-130399122D01*
X105148517Y-130399131D01*
X105264635Y-130515249D01*
X105268340Y-130518123D01*
X105309247Y-130574766D01*
X105315044Y-130633977D01*
X105310696Y-130663828D01*
X105310696Y-131031312D01*
X105318246Y-131083135D01*
X105320763Y-131100412D01*
X105372872Y-131207000D01*
X105425761Y-131259889D01*
X105459246Y-131321212D01*
X105454262Y-131390904D01*
X105425761Y-131435251D01*
X105372874Y-131488138D01*
X105372872Y-131488139D01*
X105320763Y-131594727D01*
X105320763Y-131594730D01*
X105310696Y-131663828D01*
X105310696Y-132031312D01*
X105318246Y-132083135D01*
X105320763Y-132100412D01*
X105372872Y-132207000D01*
X105425761Y-132259889D01*
X105459246Y-132321212D01*
X105454262Y-132390904D01*
X105425761Y-132435251D01*
X105372874Y-132488138D01*
X105372872Y-132488139D01*
X105320763Y-132594727D01*
X105320763Y-132594730D01*
X105310696Y-132663828D01*
X105310696Y-133031312D01*
X105314594Y-133058064D01*
X105320763Y-133100412D01*
X105372872Y-133207000D01*
X105456765Y-133290893D01*
X105563353Y-133343002D01*
X105563354Y-133343002D01*
X105563356Y-133343003D01*
X105632454Y-133353070D01*
X105632460Y-133353070D01*
X106949932Y-133353070D01*
X106949938Y-133353070D01*
X107019036Y-133343003D01*
X107125625Y-133290894D01*
X107209520Y-133206999D01*
X107209521Y-133206997D01*
X107210934Y-133205018D01*
X107213559Y-133202958D01*
X107216784Y-133199734D01*
X107217173Y-133200123D01*
X107265909Y-133161895D01*
X107311852Y-133153070D01*
X109038292Y-133153070D01*
X109105331Y-133172755D01*
X109125973Y-133189389D01*
X115371735Y-139435151D01*
X115428615Y-139492031D01*
X115463446Y-139512141D01*
X115498271Y-139532248D01*
X115498273Y-139532249D01*
X115498274Y-139532249D01*
X115498277Y-139532251D01*
X115575976Y-139553070D01*
X115656416Y-139553070D01*
X115985767Y-139553070D01*
X116052806Y-139572755D01*
X116073448Y-139589389D01*
X116090297Y-139606238D01*
X116597529Y-140113470D01*
X117314864Y-140113469D01*
X117822096Y-139606237D01*
X117822095Y-138888902D01*
X117314863Y-138381670D01*
X116597528Y-138381670D01*
X116597527Y-138381671D01*
X116073448Y-138905751D01*
X116012125Y-138939236D01*
X115985767Y-138942070D01*
X115794100Y-138942070D01*
X115727061Y-138922385D01*
X115706419Y-138905751D01*
X109403779Y-132603111D01*
X109403777Y-132603109D01*
X109400655Y-132601306D01*
X109334120Y-132562891D01*
X109334118Y-132562890D01*
X109334115Y-132562889D01*
X109256416Y-132542070D01*
X109256415Y-132542070D01*
X107311852Y-132542070D01*
X107244813Y-132522385D01*
X107210934Y-132490122D01*
X107209521Y-132488143D01*
X107209520Y-132488141D01*
X107156630Y-132435251D01*
X107123145Y-132373928D01*
X107128129Y-132304236D01*
X107156630Y-132259889D01*
X107209520Y-132206999D01*
X107209522Y-132206993D01*
X107210934Y-132205018D01*
X107213564Y-132202954D01*
X107216785Y-132199734D01*
X107217174Y-132200123D01*
X107265909Y-132161895D01*
X107311852Y-132153070D01*
X111978292Y-132153070D01*
X112045331Y-132172755D01*
X112065973Y-132189389D01*
X116053977Y-136177393D01*
X116087462Y-136238716D01*
X116090296Y-136265074D01*
X116090296Y-137006237D01*
X116090297Y-137006238D01*
X116597529Y-137513470D01*
X117314864Y-137513469D01*
X117794779Y-137033553D01*
X117856100Y-137000070D01*
X117925791Y-137005054D01*
X117970139Y-137033555D01*
X118874377Y-137937793D01*
X118907862Y-137999116D01*
X118910696Y-138025474D01*
X118910696Y-141069666D01*
X118891011Y-141136705D01*
X118874377Y-141157347D01*
X115575973Y-144455751D01*
X115514650Y-144489236D01*
X115488292Y-144492070D01*
X111117339Y-144492070D01*
X111050300Y-144472385D01*
X111004545Y-144419581D01*
X111000298Y-144409025D01*
X110973459Y-144332326D01*
X110973459Y-144332325D01*
X110891921Y-144221845D01*
X110781441Y-144140307D01*
X110781439Y-144140306D01*
X110651836Y-144094955D01*
X110621064Y-144092070D01*
X110621060Y-144092070D01*
X107511332Y-144092070D01*
X107511328Y-144092070D01*
X107480556Y-144094955D01*
X107480554Y-144094955D01*
X107350952Y-144140306D01*
X107240471Y-144221845D01*
X107158932Y-144332326D01*
X107113581Y-144461928D01*
X107113581Y-144461930D01*
X107110696Y-144492702D01*
X107110696Y-145102437D01*
X107113581Y-145133209D01*
X107113581Y-145133211D01*
X107146425Y-145227070D01*
X107158933Y-145262815D01*
X107240471Y-145373295D01*
X107350951Y-145454833D01*
X107394153Y-145469950D01*
X107480555Y-145500184D01*
X107511328Y-145503070D01*
X107511332Y-145503070D01*
X110621064Y-145503070D01*
X110651835Y-145500184D01*
X110651837Y-145500184D01*
X110716638Y-145477508D01*
X110781441Y-145454833D01*
X110891921Y-145373295D01*
X110973459Y-145262815D01*
X110992382Y-145208736D01*
X111000298Y-145186115D01*
X111041020Y-145129339D01*
X111105972Y-145103592D01*
X111117339Y-145103070D01*
X112526063Y-145103070D01*
X112593102Y-145122755D01*
X112638857Y-145175559D01*
X112648801Y-145244717D01*
X112619776Y-145308273D01*
X112560998Y-145346047D01*
X112558174Y-145346839D01*
X112530270Y-145354316D01*
X112498276Y-145362889D01*
X112480256Y-145373294D01*
X112480254Y-145373295D01*
X112428618Y-145403107D01*
X112428612Y-145403111D01*
X111375973Y-146455751D01*
X111314650Y-146489236D01*
X111288292Y-146492070D01*
X111117339Y-146492070D01*
X111050300Y-146472385D01*
X111004545Y-146419581D01*
X111000298Y-146409025D01*
X110973459Y-146332326D01*
X110973459Y-146332325D01*
X110891921Y-146221845D01*
X110781441Y-146140307D01*
X110781439Y-146140306D01*
X110651836Y-146094955D01*
X110621064Y-146092070D01*
X110621060Y-146092070D01*
X107511332Y-146092070D01*
X107511328Y-146092070D01*
X107480556Y-146094955D01*
X107480554Y-146094955D01*
X107350952Y-146140306D01*
X107240471Y-146221845D01*
X107158932Y-146332326D01*
X107113581Y-146461928D01*
X107113581Y-146461930D01*
X107110696Y-146492702D01*
X107110696Y-147102437D01*
X107113581Y-147133209D01*
X107113581Y-147133211D01*
X107158932Y-147262813D01*
X107158933Y-147262815D01*
X107240471Y-147373295D01*
X107350951Y-147454833D01*
X107394153Y-147469950D01*
X107480555Y-147500184D01*
X107511328Y-147503070D01*
X107511332Y-147503070D01*
X110621064Y-147503070D01*
X110651835Y-147500184D01*
X110651837Y-147500184D01*
X110716638Y-147477508D01*
X110781441Y-147454833D01*
X110891921Y-147373295D01*
X110973459Y-147262815D01*
X110988263Y-147220506D01*
X111000298Y-147186115D01*
X111041020Y-147129339D01*
X111105972Y-147103592D01*
X111117339Y-147103070D01*
X111506414Y-147103070D01*
X111506416Y-147103070D01*
X111584115Y-147082251D01*
X111653777Y-147042031D01*
X112706419Y-145989389D01*
X112767742Y-145955904D01*
X112794100Y-145953070D01*
X116956414Y-145953070D01*
X116956416Y-145953070D01*
X117034115Y-145932251D01*
X117103777Y-145892031D01*
X120760657Y-142235151D01*
X120768339Y-142221845D01*
X120800877Y-142165489D01*
X120821696Y-142087790D01*
X120821696Y-141508317D01*
X120841381Y-141441278D01*
X120858015Y-141420636D01*
X120920697Y-141357954D01*
X120987247Y-141242686D01*
X121021696Y-141114120D01*
X121021696Y-140981020D01*
X120987247Y-140852454D01*
X120920697Y-140737186D01*
X120826580Y-140643069D01*
X120711312Y-140576519D01*
X120582746Y-140542070D01*
X120449646Y-140542070D01*
X120321080Y-140576519D01*
X120321077Y-140576520D01*
X120205815Y-140643067D01*
X120205809Y-140643071D01*
X120111697Y-140737183D01*
X120111693Y-140737189D01*
X120045146Y-140852451D01*
X120045145Y-140852454D01*
X120010696Y-140981020D01*
X120010696Y-141114120D01*
X120045145Y-141242686D01*
X120111695Y-141357954D01*
X120111697Y-141357956D01*
X120174377Y-141420636D01*
X120207862Y-141481959D01*
X120210696Y-141508317D01*
X120210696Y-141869666D01*
X120191011Y-141936705D01*
X120174377Y-141957347D01*
X116825973Y-145305751D01*
X116764650Y-145339236D01*
X116738292Y-145342070D01*
X115756329Y-145342070D01*
X115689290Y-145322385D01*
X115643535Y-145269581D01*
X115633591Y-145200423D01*
X115662616Y-145136867D01*
X115721394Y-145099093D01*
X115724217Y-145098300D01*
X115784115Y-145082251D01*
X115853777Y-145042031D01*
X119460657Y-141435151D01*
X119500877Y-141365489D01*
X119521696Y-141287790D01*
X119521696Y-141207350D01*
X119521696Y-138888902D01*
X126250296Y-138888902D01*
X126250296Y-139606237D01*
X126250297Y-139606238D01*
X126757529Y-140113470D01*
X127474864Y-140113469D01*
X127982096Y-139606237D01*
X127982095Y-138888902D01*
X127474863Y-138381670D01*
X126757528Y-138381670D01*
X126250296Y-138888902D01*
X119521696Y-138888902D01*
X119521696Y-137807350D01*
X119500877Y-137729651D01*
X119460657Y-137659989D01*
X119403777Y-137603109D01*
X118203777Y-136403109D01*
X118198373Y-136399989D01*
X118134120Y-136362891D01*
X118134118Y-136362890D01*
X118134115Y-136362889D01*
X118056416Y-136342070D01*
X118056415Y-136342070D01*
X117926625Y-136342070D01*
X117859586Y-136322385D01*
X117838944Y-136305751D01*
X117314863Y-135781670D01*
X116573700Y-135781670D01*
X116506661Y-135761985D01*
X116486019Y-135745351D01*
X112343779Y-131603111D01*
X112343777Y-131603109D01*
X112340655Y-131601306D01*
X112274120Y-131562891D01*
X112274118Y-131562890D01*
X112274115Y-131562889D01*
X112196416Y-131542070D01*
X112196415Y-131542070D01*
X107311852Y-131542070D01*
X107244813Y-131522385D01*
X107210934Y-131490122D01*
X107209521Y-131488143D01*
X107209520Y-131488141D01*
X107156630Y-131435251D01*
X107123145Y-131373928D01*
X107128129Y-131304236D01*
X107156630Y-131259889D01*
X107175499Y-131241020D01*
X107209520Y-131206999D01*
X107209522Y-131206993D01*
X107210934Y-131205018D01*
X107213564Y-131202954D01*
X107216785Y-131199734D01*
X107217174Y-131200123D01*
X107265909Y-131161895D01*
X107311852Y-131153070D01*
X121138292Y-131153070D01*
X121205331Y-131172755D01*
X121225973Y-131189389D01*
X122566973Y-132530389D01*
X122600458Y-132591712D01*
X122595474Y-132661404D01*
X122553602Y-132717337D01*
X122488138Y-132741754D01*
X122479292Y-132742070D01*
X120806625Y-132742070D01*
X120739586Y-132722385D01*
X120718944Y-132705751D01*
X120194863Y-132181670D01*
X119477528Y-132181670D01*
X118970296Y-132688902D01*
X118970296Y-133406237D01*
X118970297Y-133406238D01*
X119477529Y-133913470D01*
X120194864Y-133913469D01*
X120702096Y-133406237D01*
X120702096Y-133406236D01*
X120718944Y-133389389D01*
X120780267Y-133355904D01*
X120806625Y-133353070D01*
X123338292Y-133353070D01*
X123405331Y-133372755D01*
X123425973Y-133389389D01*
X126213977Y-136177393D01*
X126247462Y-136238716D01*
X126250296Y-136265074D01*
X126250296Y-137006237D01*
X126250297Y-137006238D01*
X126757529Y-137513470D01*
X127474864Y-137513469D01*
X127982096Y-137006237D01*
X127982095Y-136288902D01*
X127474863Y-135781670D01*
X126733700Y-135781670D01*
X126666661Y-135761985D01*
X126646019Y-135745351D01*
X123717727Y-132817059D01*
X123717724Y-132817055D01*
X123717724Y-132817056D01*
X123710657Y-132809989D01*
X123710657Y-132809988D01*
X123653778Y-132753109D01*
X123653777Y-132753108D01*
X123649447Y-132748778D01*
X123649436Y-132748768D01*
X121503779Y-130603111D01*
X121503777Y-130603109D01*
X121500655Y-130601306D01*
X121434120Y-130562891D01*
X121434118Y-130562890D01*
X121434115Y-130562889D01*
X121356416Y-130542070D01*
X121356415Y-130542070D01*
X107566737Y-130542070D01*
X107499698Y-130522385D01*
X107453943Y-130469581D01*
X107443999Y-130400423D01*
X107460005Y-130354949D01*
X107517477Y-130257768D01*
X107563296Y-130100056D01*
X107563491Y-130097571D01*
X107563491Y-130097570D01*
X105018901Y-130097570D01*
X105018900Y-130097571D01*
X100950196Y-130097571D01*
X100950196Y-129439768D01*
X100969881Y-129372729D01*
X101022685Y-129326974D01*
X101091843Y-129317030D01*
X101155399Y-129346055D01*
X101171463Y-129362858D01*
X101173880Y-129365915D01*
X101297850Y-129489885D01*
X101447071Y-129581926D01*
X101447076Y-129581928D01*
X101613498Y-129637075D01*
X101613505Y-129637076D01*
X101716215Y-129647569D01*
X102166195Y-129647569D01*
X102666196Y-129647569D01*
X103116168Y-129647569D01*
X103116182Y-129647568D01*
X103218893Y-129637075D01*
X103338117Y-129597568D01*
X105018900Y-129597568D01*
X105018901Y-129597570D01*
X106041196Y-129597570D01*
X106541196Y-129597570D01*
X107563491Y-129597570D01*
X107563491Y-129597568D01*
X107563296Y-129595083D01*
X107517477Y-129437371D01*
X107433881Y-129296017D01*
X107433874Y-129296008D01*
X107317757Y-129179891D01*
X107317748Y-129179884D01*
X107176392Y-129096287D01*
X107176389Y-129096286D01*
X107018691Y-129050470D01*
X107018685Y-129050469D01*
X106981845Y-129047570D01*
X106541196Y-129047570D01*
X106541196Y-129597570D01*
X106041196Y-129597570D01*
X106041196Y-129047570D01*
X105600546Y-129047570D01*
X105563706Y-129050469D01*
X105563700Y-129050470D01*
X105406002Y-129096286D01*
X105405999Y-129096287D01*
X105264643Y-129179884D01*
X105264634Y-129179891D01*
X105148517Y-129296008D01*
X105148510Y-129296017D01*
X105064914Y-129437371D01*
X105019095Y-129595083D01*
X105018900Y-129597568D01*
X103338117Y-129597568D01*
X103385315Y-129581928D01*
X103385320Y-129581926D01*
X103459170Y-129536375D01*
X103534541Y-129489885D01*
X103658511Y-129365915D01*
X103750552Y-129216694D01*
X103750554Y-129216689D01*
X103805701Y-129050267D01*
X103805702Y-129050260D01*
X103816195Y-128947556D01*
X103816196Y-128947543D01*
X103816196Y-128797570D01*
X102666196Y-128797570D01*
X102666196Y-129647569D01*
X102166195Y-129647569D01*
X102166196Y-129647568D01*
X102166196Y-128297570D01*
X102666196Y-128297570D01*
X103816195Y-128297570D01*
X103816195Y-128147598D01*
X103816194Y-128147583D01*
X103805701Y-128044872D01*
X103750554Y-127878450D01*
X103750552Y-127878445D01*
X103658511Y-127729224D01*
X103534541Y-127605254D01*
X103385320Y-127513213D01*
X103385315Y-127513211D01*
X103218893Y-127458064D01*
X103218886Y-127458063D01*
X103116182Y-127447570D01*
X102666196Y-127447570D01*
X102666196Y-128297570D01*
X102166196Y-128297570D01*
X102166196Y-127447570D01*
X101716224Y-127447570D01*
X101716208Y-127447571D01*
X101613498Y-127458064D01*
X101447076Y-127513211D01*
X101447071Y-127513213D01*
X101297850Y-127605254D01*
X101173878Y-127729226D01*
X101171459Y-127732286D01*
X101169266Y-127733838D01*
X101168772Y-127734333D01*
X101168687Y-127734248D01*
X101114435Y-127772661D01*
X101044636Y-127775796D01*
X100984222Y-127740697D01*
X100952374Y-127678508D01*
X100950196Y-127655371D01*
X100950196Y-122255070D01*
X100969881Y-122188031D01*
X101022685Y-122142276D01*
X101074196Y-122131070D01*
X111251621Y-122131070D01*
X111298896Y-122140435D01*
G37*
%TD.AperFunction*%
%TA.AperFunction,Conductor*%
G36*
X136136939Y-141592755D02*
G01*
X136182694Y-141645559D01*
X136192638Y-141714717D01*
X136163613Y-141778273D01*
X136117353Y-141811631D01*
X135995412Y-141862140D01*
X135928565Y-141914069D01*
X135928559Y-141914074D01*
X135498699Y-142343934D01*
X135498688Y-142343947D01*
X135446766Y-142410785D01*
X135446766Y-142410786D01*
X135391745Y-142543619D01*
X135381196Y-142627602D01*
X135381196Y-142681570D01*
X136191459Y-142681570D01*
X136190995Y-142682034D01*
X136137491Y-142774705D01*
X136109796Y-142878066D01*
X136109796Y-142985074D01*
X136137491Y-143088435D01*
X136190995Y-143181106D01*
X136191459Y-143181570D01*
X135381197Y-143181570D01*
X135381197Y-143235530D01*
X135391744Y-143319520D01*
X135446766Y-143452353D01*
X135498695Y-143519200D01*
X135498700Y-143519206D01*
X135928560Y-143949066D01*
X135928573Y-143949077D01*
X135995411Y-144000999D01*
X136057956Y-144026906D01*
X136112359Y-144070747D01*
X136134424Y-144137041D01*
X136117145Y-144204740D01*
X136079395Y-144244569D01*
X135980404Y-144310713D01*
X135863339Y-144427778D01*
X135863336Y-144427782D01*
X135771357Y-144565437D01*
X135771350Y-144565450D01*
X135707996Y-144718403D01*
X135707993Y-144718412D01*
X135675696Y-144880783D01*
X135675696Y-145046356D01*
X135707993Y-145208727D01*
X135707996Y-145208736D01*
X135771350Y-145361689D01*
X135771357Y-145361702D01*
X135863336Y-145499357D01*
X135863339Y-145499361D01*
X135980407Y-145616429D01*
X136118064Y-145708408D01*
X136118070Y-145708412D01*
X136134148Y-145715071D01*
X136188550Y-145758908D01*
X136210617Y-145825202D01*
X136210696Y-145829632D01*
X136210696Y-146962200D01*
X136191011Y-147029239D01*
X136138207Y-147074994D01*
X136125016Y-147080130D01*
X136093449Y-147090387D01*
X136093446Y-147090388D01*
X136093444Y-147090389D01*
X136017001Y-147129339D01*
X135924372Y-147176536D01*
X135770871Y-147288060D01*
X135770866Y-147288064D01*
X135636690Y-147422240D01*
X135636686Y-147422245D01*
X135525162Y-147575746D01*
X135439016Y-147744813D01*
X135404127Y-147852192D01*
X135364689Y-147909867D01*
X135300330Y-147937065D01*
X135231484Y-147925150D01*
X135180008Y-147877906D01*
X135168265Y-147852192D01*
X135163284Y-147836864D01*
X135133377Y-147744818D01*
X135133375Y-147744815D01*
X135133375Y-147744813D01*
X135102121Y-147683477D01*
X135047232Y-147575750D01*
X134959381Y-147454833D01*
X134935705Y-147422245D01*
X134935701Y-147422240D01*
X134801525Y-147288064D01*
X134801520Y-147288060D01*
X134648019Y-147176536D01*
X134648018Y-147176535D01*
X134648016Y-147176534D01*
X134595220Y-147149633D01*
X134478952Y-147090390D01*
X134298485Y-147031752D01*
X134111076Y-147002070D01*
X134111071Y-147002070D01*
X133921321Y-147002070D01*
X133921316Y-147002070D01*
X133733906Y-147031752D01*
X133553439Y-147090390D01*
X133384372Y-147176536D01*
X133230871Y-147288060D01*
X133230866Y-147288064D01*
X133096690Y-147422240D01*
X133096686Y-147422245D01*
X132985162Y-147575746D01*
X132899016Y-147744813D01*
X132864127Y-147852192D01*
X132824689Y-147909867D01*
X132760330Y-147937065D01*
X132691484Y-147925150D01*
X132640008Y-147877906D01*
X132628265Y-147852192D01*
X132623284Y-147836864D01*
X132593377Y-147744818D01*
X132593375Y-147744815D01*
X132593375Y-147744813D01*
X132562121Y-147683477D01*
X132507232Y-147575750D01*
X132419381Y-147454833D01*
X132395705Y-147422245D01*
X132395701Y-147422240D01*
X132261525Y-147288064D01*
X132261520Y-147288060D01*
X132108019Y-147176536D01*
X132108018Y-147176535D01*
X132108016Y-147176534D01*
X132055220Y-147149633D01*
X131938952Y-147090390D01*
X131758485Y-147031752D01*
X131571076Y-147002070D01*
X131571071Y-147002070D01*
X131381321Y-147002070D01*
X131381316Y-147002070D01*
X131193906Y-147031752D01*
X131013439Y-147090390D01*
X130844372Y-147176536D01*
X130690871Y-147288060D01*
X130690866Y-147288064D01*
X130556690Y-147422240D01*
X130556686Y-147422245D01*
X130445162Y-147575746D01*
X130359016Y-147744813D01*
X130324127Y-147852192D01*
X130284689Y-147909867D01*
X130220330Y-147937065D01*
X130151484Y-147925150D01*
X130100008Y-147877906D01*
X130088265Y-147852192D01*
X130083284Y-147836864D01*
X130053377Y-147744818D01*
X130053375Y-147744815D01*
X130053375Y-147744813D01*
X130022121Y-147683477D01*
X129967232Y-147575750D01*
X129879381Y-147454833D01*
X129855705Y-147422245D01*
X129855701Y-147422240D01*
X129721525Y-147288064D01*
X129721520Y-147288060D01*
X129568019Y-147176536D01*
X129568018Y-147176535D01*
X129568016Y-147176534D01*
X129515220Y-147149633D01*
X129398952Y-147090390D01*
X129218485Y-147031752D01*
X129031076Y-147002070D01*
X129031071Y-147002070D01*
X128841321Y-147002070D01*
X128841316Y-147002070D01*
X128653906Y-147031752D01*
X128473439Y-147090390D01*
X128304372Y-147176536D01*
X128150871Y-147288060D01*
X128150866Y-147288064D01*
X128016690Y-147422240D01*
X128016686Y-147422245D01*
X127905162Y-147575746D01*
X127819016Y-147744813D01*
X127784127Y-147852192D01*
X127744689Y-147909867D01*
X127680330Y-147937065D01*
X127611484Y-147925150D01*
X127560008Y-147877906D01*
X127548265Y-147852192D01*
X127543284Y-147836864D01*
X127513377Y-147744818D01*
X127513375Y-147744815D01*
X127513375Y-147744813D01*
X127482121Y-147683477D01*
X127427232Y-147575750D01*
X127339381Y-147454833D01*
X127315705Y-147422245D01*
X127315701Y-147422240D01*
X127181525Y-147288064D01*
X127181520Y-147288060D01*
X127028019Y-147176536D01*
X127028018Y-147176535D01*
X127028016Y-147176534D01*
X126858948Y-147090389D01*
X126787376Y-147067133D01*
X126729702Y-147027696D01*
X126702504Y-146963337D01*
X126701696Y-146949203D01*
X126701696Y-144345474D01*
X126721381Y-144278435D01*
X126738015Y-144257793D01*
X129386420Y-141609389D01*
X129447743Y-141575904D01*
X129474101Y-141573070D01*
X136069900Y-141573070D01*
X136136939Y-141592755D01*
G37*
%TD.AperFunction*%
%TA.AperFunction,Conductor*%
G36*
X165205331Y-124372755D02*
G01*
X165225973Y-124389389D01*
X171379877Y-130543293D01*
X171413362Y-130604616D01*
X171416196Y-130630974D01*
X171416196Y-136158070D01*
X171396511Y-136225109D01*
X171343707Y-136270864D01*
X171292196Y-136282070D01*
X143134100Y-136282070D01*
X143067061Y-136262385D01*
X143046419Y-136245751D01*
X139603779Y-132803111D01*
X139603777Y-132803109D01*
X139600655Y-132801306D01*
X139534120Y-132762891D01*
X139534118Y-132762890D01*
X139534115Y-132762889D01*
X139456416Y-132742070D01*
X139456415Y-132742070D01*
X130966625Y-132742070D01*
X130899586Y-132722385D01*
X130878944Y-132705751D01*
X130354863Y-132181670D01*
X129613701Y-132181670D01*
X129546662Y-132161985D01*
X129526020Y-132145351D01*
X129278015Y-131897346D01*
X129244530Y-131836023D01*
X129241696Y-131809665D01*
X129241696Y-129145936D01*
X129261381Y-129078897D01*
X129314185Y-129033142D01*
X129327368Y-129028008D01*
X129398948Y-129004751D01*
X129568016Y-128918606D01*
X129721527Y-128807074D01*
X129855700Y-128672901D01*
X129967232Y-128519390D01*
X130053377Y-128350322D01*
X130088265Y-128242948D01*
X130127703Y-128185272D01*
X130192061Y-128158074D01*
X130260908Y-128169989D01*
X130312383Y-128217233D01*
X130324127Y-128242948D01*
X130359015Y-128350322D01*
X130443024Y-128515198D01*
X130445162Y-128519393D01*
X130556686Y-128672894D01*
X130556690Y-128672899D01*
X130690866Y-128807075D01*
X130690871Y-128807079D01*
X130824763Y-128904356D01*
X130844376Y-128918606D01*
X130952103Y-128973495D01*
X131013439Y-129004749D01*
X131013441Y-129004749D01*
X131013444Y-129004751D01*
X131110176Y-129036181D01*
X131193906Y-129063387D01*
X131381316Y-129093070D01*
X131381321Y-129093070D01*
X131571076Y-129093070D01*
X131758485Y-129063387D01*
X131781697Y-129055845D01*
X131938948Y-129004751D01*
X132108016Y-128918606D01*
X132261527Y-128807074D01*
X132395700Y-128672901D01*
X132507232Y-128519390D01*
X132593377Y-128350322D01*
X132628265Y-128242948D01*
X132667703Y-128185272D01*
X132732061Y-128158074D01*
X132800908Y-128169989D01*
X132852383Y-128217233D01*
X132864127Y-128242948D01*
X132899015Y-128350322D01*
X132983024Y-128515198D01*
X132985162Y-128519393D01*
X133096686Y-128672894D01*
X133096690Y-128672899D01*
X133230866Y-128807075D01*
X133230871Y-128807079D01*
X133364763Y-128904356D01*
X133384376Y-128918606D01*
X133492103Y-128973495D01*
X133553439Y-129004749D01*
X133553441Y-129004749D01*
X133553444Y-129004751D01*
X133650176Y-129036181D01*
X133733906Y-129063387D01*
X133921316Y-129093070D01*
X133921321Y-129093070D01*
X134111076Y-129093070D01*
X134298485Y-129063387D01*
X134321697Y-129055845D01*
X134478948Y-129004751D01*
X134648016Y-128918606D01*
X134801527Y-128807074D01*
X134935700Y-128672901D01*
X135047232Y-128519390D01*
X135133377Y-128350322D01*
X135168265Y-128242948D01*
X135207703Y-128185272D01*
X135272061Y-128158074D01*
X135340908Y-128169989D01*
X135392383Y-128217233D01*
X135404127Y-128242948D01*
X135439015Y-128350322D01*
X135523024Y-128515198D01*
X135525162Y-128519393D01*
X135636686Y-128672894D01*
X135636690Y-128672899D01*
X135770866Y-128807075D01*
X135770871Y-128807079D01*
X135904763Y-128904356D01*
X135924376Y-128918606D01*
X136032103Y-128973495D01*
X136093439Y-129004749D01*
X136093441Y-129004749D01*
X136093444Y-129004751D01*
X136190176Y-129036181D01*
X136273906Y-129063387D01*
X136461316Y-129093070D01*
X136461321Y-129093070D01*
X136651076Y-129093070D01*
X136838485Y-129063387D01*
X136861697Y-129055845D01*
X137018948Y-129004751D01*
X137188016Y-128918606D01*
X137341527Y-128807074D01*
X137475700Y-128672901D01*
X137587232Y-128519390D01*
X137673377Y-128350322D01*
X137708265Y-128242948D01*
X137747703Y-128185272D01*
X137812061Y-128158074D01*
X137880908Y-128169989D01*
X137932383Y-128217233D01*
X137944127Y-128242948D01*
X137979015Y-128350322D01*
X138063024Y-128515198D01*
X138065162Y-128519393D01*
X138176686Y-128672894D01*
X138176690Y-128672899D01*
X138310866Y-128807075D01*
X138310871Y-128807079D01*
X138444763Y-128904356D01*
X138464376Y-128918606D01*
X138572103Y-128973495D01*
X138633439Y-129004749D01*
X138633441Y-129004749D01*
X138633444Y-129004751D01*
X138730176Y-129036181D01*
X138813906Y-129063387D01*
X139001316Y-129093070D01*
X139001321Y-129093070D01*
X139191076Y-129093070D01*
X139378485Y-129063387D01*
X139401697Y-129055845D01*
X139558948Y-129004751D01*
X139728016Y-128918606D01*
X139881527Y-128807074D01*
X140015700Y-128672901D01*
X140127232Y-128519390D01*
X140213377Y-128350322D01*
X140248265Y-128242948D01*
X140287703Y-128185272D01*
X140352061Y-128158074D01*
X140420908Y-128169989D01*
X140472383Y-128217233D01*
X140484127Y-128242948D01*
X140519015Y-128350322D01*
X140603024Y-128515198D01*
X140605162Y-128519393D01*
X140716686Y-128672894D01*
X140716690Y-128672899D01*
X140850866Y-128807075D01*
X140850871Y-128807079D01*
X140984763Y-128904356D01*
X141004376Y-128918606D01*
X141173444Y-129004751D01*
X141245014Y-129028005D01*
X141302688Y-129067441D01*
X141329888Y-129131799D01*
X141330696Y-129145936D01*
X141330696Y-129807789D01*
X141351516Y-129885492D01*
X141351517Y-129885494D01*
X141389932Y-129952029D01*
X141391735Y-129955151D01*
X144728614Y-133292031D01*
X144728615Y-133292032D01*
X144728617Y-133292033D01*
X144774729Y-133318655D01*
X144774731Y-133318657D01*
X144774732Y-133318657D01*
X144798273Y-133332249D01*
X144798277Y-133332251D01*
X144875976Y-133353070D01*
X144875978Y-133353070D01*
X156956414Y-133353070D01*
X156956416Y-133353070D01*
X157034115Y-133332251D01*
X157103777Y-133292031D01*
X157632483Y-132763325D01*
X163556696Y-132763325D01*
X163556696Y-134311814D01*
X163568617Y-134371749D01*
X163568618Y-134371750D01*
X163614038Y-134439727D01*
X163648026Y-134462437D01*
X163682014Y-134485147D01*
X163682015Y-134485147D01*
X163682016Y-134485148D01*
X163741951Y-134497069D01*
X163741955Y-134497070D01*
X163741956Y-134497070D01*
X165290437Y-134497070D01*
X165290438Y-134497069D01*
X165310597Y-134493059D01*
X165350375Y-134485148D01*
X165350375Y-134485147D01*
X165350378Y-134485147D01*
X165418353Y-134439727D01*
X165463773Y-134371752D01*
X165475696Y-134311810D01*
X165475696Y-132763330D01*
X165473663Y-132753107D01*
X165463774Y-132703390D01*
X165463773Y-132703389D01*
X165463773Y-132703388D01*
X165435720Y-132661404D01*
X165418353Y-132635412D01*
X165357463Y-132594727D01*
X165350378Y-132589993D01*
X165350377Y-132589992D01*
X165350376Y-132589992D01*
X165350375Y-132589991D01*
X165290440Y-132578070D01*
X165290436Y-132578070D01*
X163741956Y-132578070D01*
X163741951Y-132578070D01*
X163682016Y-132589991D01*
X163682015Y-132589992D01*
X163614038Y-132635412D01*
X163568618Y-132703389D01*
X163568617Y-132703390D01*
X163556696Y-132763325D01*
X157632483Y-132763325D01*
X159006419Y-131389389D01*
X159067742Y-131355904D01*
X159094100Y-131353070D01*
X168205449Y-131353070D01*
X168272488Y-131372755D01*
X168293130Y-131389389D01*
X168355812Y-131452071D01*
X168471080Y-131518621D01*
X168599646Y-131553070D01*
X168599648Y-131553070D01*
X168732744Y-131553070D01*
X168732746Y-131553070D01*
X168861312Y-131518621D01*
X168976580Y-131452071D01*
X169070697Y-131357954D01*
X169137247Y-131242686D01*
X169171696Y-131114120D01*
X169171696Y-130981020D01*
X169137247Y-130852454D01*
X169070697Y-130737186D01*
X168976580Y-130643069D01*
X168861312Y-130576519D01*
X168732746Y-130542070D01*
X168599646Y-130542070D01*
X168471080Y-130576519D01*
X168471077Y-130576520D01*
X168355815Y-130643067D01*
X168355809Y-130643071D01*
X168293130Y-130705751D01*
X168231807Y-130739236D01*
X168205449Y-130742070D01*
X158875976Y-130742070D01*
X158798273Y-130762890D01*
X158798271Y-130762891D01*
X158728621Y-130803105D01*
X158728612Y-130803111D01*
X156825973Y-132705751D01*
X156764650Y-132739236D01*
X156738292Y-132742070D01*
X145094101Y-132742070D01*
X145027062Y-132722385D01*
X145006420Y-132705751D01*
X141978015Y-129677346D01*
X141944530Y-129616023D01*
X141941696Y-129589665D01*
X141941696Y-129145936D01*
X141947073Y-129127623D01*
X141947469Y-129108540D01*
X141956714Y-129094789D01*
X141961381Y-129078897D01*
X141975802Y-129066400D01*
X141986455Y-129050558D01*
X142007419Y-129039004D01*
X142014185Y-129033142D01*
X142016536Y-129032097D01*
X142021856Y-129029799D01*
X142098948Y-129004751D01*
X142268016Y-128918606D01*
X142421527Y-128807074D01*
X142555700Y-128672901D01*
X142634936Y-128563841D01*
X142690264Y-128521177D01*
X142759877Y-128515198D01*
X142821673Y-128547803D01*
X142845738Y-128580433D01*
X142893283Y-128673744D01*
X142953534Y-128756674D01*
X142953536Y-128756675D01*
X143676903Y-128033308D01*
X143691633Y-128088282D01*
X143760092Y-128206857D01*
X143856909Y-128303674D01*
X143975484Y-128372133D01*
X144030456Y-128386862D01*
X143307089Y-129110228D01*
X143390024Y-129170484D01*
X143600393Y-129277672D01*
X143824948Y-129350635D01*
X143824947Y-129350635D01*
X144058144Y-129387570D01*
X144294248Y-129387570D01*
X144527443Y-129350635D01*
X144751998Y-129277672D01*
X144962359Y-129170488D01*
X144962365Y-129170484D01*
X145045300Y-129110228D01*
X145045301Y-129110228D01*
X144321935Y-128386862D01*
X144376908Y-128372133D01*
X144495483Y-128303674D01*
X144592300Y-128206857D01*
X144660759Y-128088282D01*
X144675488Y-128033309D01*
X145398854Y-128756675D01*
X145398854Y-128756674D01*
X145459110Y-128673739D01*
X145459117Y-128673729D01*
X145506653Y-128580434D01*
X145554627Y-128529638D01*
X145622448Y-128512842D01*
X145688583Y-128535379D01*
X145717456Y-128563843D01*
X145796686Y-128672894D01*
X145796690Y-128672899D01*
X145930866Y-128807075D01*
X145930871Y-128807079D01*
X146064763Y-128904356D01*
X146084376Y-128918606D01*
X146192103Y-128973495D01*
X146253439Y-129004749D01*
X146253441Y-129004749D01*
X146253444Y-129004751D01*
X146350176Y-129036181D01*
X146433906Y-129063387D01*
X146621316Y-129093070D01*
X146621321Y-129093070D01*
X146811076Y-129093070D01*
X146998485Y-129063387D01*
X147021697Y-129055845D01*
X147178948Y-129004751D01*
X147348016Y-128918606D01*
X147501527Y-128807074D01*
X147635700Y-128672901D01*
X147747232Y-128519390D01*
X147833377Y-128350322D01*
X147868265Y-128242948D01*
X147907703Y-128185272D01*
X147972061Y-128158074D01*
X148040908Y-128169989D01*
X148092383Y-128217233D01*
X148104127Y-128242948D01*
X148139015Y-128350322D01*
X148223024Y-128515198D01*
X148225162Y-128519393D01*
X148336686Y-128672894D01*
X148336690Y-128672899D01*
X148470866Y-128807075D01*
X148470871Y-128807079D01*
X148604763Y-128904356D01*
X148624376Y-128918606D01*
X148732103Y-128973495D01*
X148793439Y-129004749D01*
X148793441Y-129004749D01*
X148793444Y-129004751D01*
X148890176Y-129036181D01*
X148973906Y-129063387D01*
X149161316Y-129093070D01*
X149161321Y-129093070D01*
X149351076Y-129093070D01*
X149538485Y-129063387D01*
X149561697Y-129055845D01*
X149718948Y-129004751D01*
X149888016Y-128918606D01*
X150041527Y-128807074D01*
X150175700Y-128672901D01*
X150287232Y-128519390D01*
X150373377Y-128350322D01*
X150408265Y-128242948D01*
X150447703Y-128185272D01*
X150512061Y-128158074D01*
X150580908Y-128169989D01*
X150632383Y-128217233D01*
X150644127Y-128242948D01*
X150679015Y-128350322D01*
X150763024Y-128515198D01*
X150765162Y-128519393D01*
X150876686Y-128672894D01*
X150876690Y-128672899D01*
X151010866Y-128807075D01*
X151010871Y-128807079D01*
X151144763Y-128904356D01*
X151164376Y-128918606D01*
X151272103Y-128973495D01*
X151333439Y-129004749D01*
X151333441Y-129004749D01*
X151333444Y-129004751D01*
X151430176Y-129036181D01*
X151513906Y-129063387D01*
X151701316Y-129093070D01*
X151701321Y-129093070D01*
X151891076Y-129093070D01*
X152078485Y-129063387D01*
X152101697Y-129055845D01*
X152258948Y-129004751D01*
X152428016Y-128918606D01*
X152581527Y-128807074D01*
X152715700Y-128672901D01*
X152827232Y-128519390D01*
X152913377Y-128350322D01*
X152972013Y-128169859D01*
X152975541Y-128147583D01*
X153001696Y-127982450D01*
X153001696Y-127792689D01*
X152972013Y-127605280D01*
X152920770Y-127447571D01*
X152913377Y-127424818D01*
X152913375Y-127424815D01*
X152913375Y-127424813D01*
X152882121Y-127363477D01*
X152827232Y-127255750D01*
X152782881Y-127194706D01*
X152715705Y-127102245D01*
X152715701Y-127102240D01*
X152581525Y-126968064D01*
X152581520Y-126968060D01*
X152428019Y-126856536D01*
X152428018Y-126856535D01*
X152428016Y-126856534D01*
X152345799Y-126814642D01*
X152258952Y-126770390D01*
X152078485Y-126711752D01*
X151891076Y-126682070D01*
X151891071Y-126682070D01*
X151701321Y-126682070D01*
X151701316Y-126682070D01*
X151513906Y-126711752D01*
X151333439Y-126770390D01*
X151164372Y-126856536D01*
X151010871Y-126968060D01*
X151010866Y-126968064D01*
X150876690Y-127102240D01*
X150876686Y-127102245D01*
X150765162Y-127255746D01*
X150679016Y-127424813D01*
X150644127Y-127532192D01*
X150604689Y-127589867D01*
X150540330Y-127617065D01*
X150471484Y-127605150D01*
X150420008Y-127557906D01*
X150408265Y-127532192D01*
X150380770Y-127447571D01*
X150373377Y-127424818D01*
X150373375Y-127424815D01*
X150373375Y-127424813D01*
X150342121Y-127363477D01*
X150287232Y-127255750D01*
X150242881Y-127194706D01*
X150175705Y-127102245D01*
X150175701Y-127102240D01*
X150041525Y-126968064D01*
X150041520Y-126968060D01*
X149888019Y-126856536D01*
X149888018Y-126856535D01*
X149888016Y-126856534D01*
X149805799Y-126814642D01*
X149718952Y-126770390D01*
X149538485Y-126711752D01*
X149351076Y-126682070D01*
X149351071Y-126682070D01*
X149161321Y-126682070D01*
X149161316Y-126682070D01*
X148973906Y-126711752D01*
X148793439Y-126770390D01*
X148624372Y-126856536D01*
X148470871Y-126968060D01*
X148470866Y-126968064D01*
X148336690Y-127102240D01*
X148336686Y-127102245D01*
X148225162Y-127255746D01*
X148139016Y-127424813D01*
X148104127Y-127532192D01*
X148064689Y-127589867D01*
X148000330Y-127617065D01*
X147931484Y-127605150D01*
X147880008Y-127557906D01*
X147868265Y-127532192D01*
X147840770Y-127447571D01*
X147833377Y-127424818D01*
X147833375Y-127424815D01*
X147833375Y-127424813D01*
X147802121Y-127363477D01*
X147747232Y-127255750D01*
X147702881Y-127194706D01*
X147635705Y-127102245D01*
X147635701Y-127102240D01*
X147501525Y-126968064D01*
X147501520Y-126968060D01*
X147348019Y-126856536D01*
X147348018Y-126856535D01*
X147348016Y-126856534D01*
X147265799Y-126814642D01*
X147178952Y-126770390D01*
X146998485Y-126711752D01*
X146811076Y-126682070D01*
X146811071Y-126682070D01*
X146621321Y-126682070D01*
X146621316Y-126682070D01*
X146433906Y-126711752D01*
X146253439Y-126770390D01*
X146084372Y-126856536D01*
X145930871Y-126968060D01*
X145930866Y-126968064D01*
X145796690Y-127102240D01*
X145717456Y-127211297D01*
X145662126Y-127253962D01*
X145592512Y-127259941D01*
X145530718Y-127227335D01*
X145506653Y-127194706D01*
X145459110Y-127101398D01*
X145398854Y-127018464D01*
X145398854Y-127018463D01*
X144675488Y-127741829D01*
X144660759Y-127686858D01*
X144592300Y-127568283D01*
X144495483Y-127471466D01*
X144376908Y-127403007D01*
X144321935Y-127388277D01*
X145045301Y-126664910D01*
X145045300Y-126664908D01*
X144962370Y-126604657D01*
X144751998Y-126497467D01*
X144527443Y-126424504D01*
X144527444Y-126424504D01*
X144294248Y-126387570D01*
X144058144Y-126387570D01*
X143824948Y-126424504D01*
X143600393Y-126497467D01*
X143390026Y-126604654D01*
X143307090Y-126664910D01*
X144030457Y-127388277D01*
X143975484Y-127403007D01*
X143856909Y-127471466D01*
X143760092Y-127568283D01*
X143691633Y-127686858D01*
X143676903Y-127741831D01*
X142953536Y-127018464D01*
X142893279Y-127101403D01*
X142845737Y-127194707D01*
X142797762Y-127245503D01*
X142729941Y-127262297D01*
X142663806Y-127239759D01*
X142634935Y-127211296D01*
X142555705Y-127102245D01*
X142555701Y-127102240D01*
X142421525Y-126968064D01*
X142421520Y-126968060D01*
X142268019Y-126856536D01*
X142268018Y-126856535D01*
X142268016Y-126856534D01*
X142185799Y-126814642D01*
X142098952Y-126770390D01*
X141918485Y-126711752D01*
X141731076Y-126682070D01*
X141731071Y-126682070D01*
X141541321Y-126682070D01*
X141541316Y-126682070D01*
X141353906Y-126711752D01*
X141173439Y-126770390D01*
X141004372Y-126856536D01*
X140850871Y-126968060D01*
X140850866Y-126968064D01*
X140716690Y-127102240D01*
X140716686Y-127102245D01*
X140605162Y-127255746D01*
X140519016Y-127424813D01*
X140484127Y-127532192D01*
X140444689Y-127589867D01*
X140380330Y-127617065D01*
X140311484Y-127605150D01*
X140260008Y-127557906D01*
X140248265Y-127532192D01*
X140220770Y-127447571D01*
X140213377Y-127424818D01*
X140213375Y-127424815D01*
X140213375Y-127424813D01*
X140182121Y-127363477D01*
X140127232Y-127255750D01*
X140082881Y-127194706D01*
X140015705Y-127102245D01*
X140015701Y-127102240D01*
X139881525Y-126968064D01*
X139881520Y-126968060D01*
X139728019Y-126856536D01*
X139728018Y-126856535D01*
X139728016Y-126856534D01*
X139558948Y-126770389D01*
X139487376Y-126747133D01*
X139429702Y-126707696D01*
X139402504Y-126643337D01*
X139401696Y-126629203D01*
X139401696Y-126045474D01*
X139421381Y-125978435D01*
X139438015Y-125957793D01*
X141006419Y-124389389D01*
X141067742Y-124355904D01*
X141094100Y-124353070D01*
X165138292Y-124353070D01*
X165205331Y-124372755D01*
G37*
%TD.AperFunction*%
%TD*%
M02*
