%TF.GenerationSoftware,KiCad,Pcbnew,9.0.0*%
%TF.CreationDate,2026-05-13T20:33:43+05:00*%
%TF.ProjectId,geiger,67656967-6572-42e6-9b69-6361645f7063,rev?*%
%TF.SameCoordinates,Original*%
%TF.FileFunction,Copper,L1,Top*%
%TF.FilePolarity,Positive*%
%FSLAX46Y46*%
G04 Gerber Fmt 4.6, Leading zero omitted, Abs format (unit mm)*
G04 Created by KiCad (PCBNEW 9.0.0) date 2026-05-13 20:33:43*
%MOMM*%
%LPD*%
G01*
G04 APERTURE LIST*
G04 Aperture macros list*
%AMRoundRect*
0 Rectangle with rounded corners*
0 $1 Rounding radius*
0 $2 $3 $4 $5 $6 $7 $8 $9 X,Y pos of 4 corners*
0 Add a 4 corners polygon primitive as box body*
4,1,4,$2,$3,$4,$5,$6,$7,$8,$9,$2,$3,0*
0 Add four circle primitives for the rounded corners*
1,1,$1+$1,$2,$3*
1,1,$1+$1,$4,$5*
1,1,$1+$1,$6,$7*
1,1,$1+$1,$8,$9*
0 Add four rect primitives between the rounded corners*
20,1,$1+$1,$2,$3,$4,$5,0*
20,1,$1+$1,$4,$5,$6,$7,0*
20,1,$1+$1,$6,$7,$8,$9,0*
20,1,$1+$1,$8,$9,$2,$3,0*%
%AMOutline5P*
0 Free polygon, 5 corners , with rotation*
0 The origin of the aperture is its center*
0 number of corners: always 5*
0 $1 to $10 corner X, Y*
0 $11 Rotation angle, in degrees counterclockwise*
0 create outline with 5 corners*
4,1,5,$1,$2,$3,$4,$5,$6,$7,$8,$9,$10,$1,$2,$11*%
%AMOutline6P*
0 Free polygon, 6 corners , with rotation*
0 The origin of the aperture is its center*
0 number of corners: always 6*
0 $1 to $12 corner X, Y*
0 $13 Rotation angle, in degrees counterclockwise*
0 create outline with 6 corners*
4,1,6,$1,$2,$3,$4,$5,$6,$7,$8,$9,$10,$11,$12,$1,$2,$13*%
%AMOutline7P*
0 Free polygon, 7 corners , with rotation*
0 The origin of the aperture is its center*
0 number of corners: always 7*
0 $1 to $14 corner X, Y*
0 $15 Rotation angle, in degrees counterclockwise*
0 create outline with 7 corners*
4,1,7,$1,$2,$3,$4,$5,$6,$7,$8,$9,$10,$11,$12,$13,$14,$1,$2,$15*%
%AMOutline8P*
0 Free polygon, 8 corners , with rotation*
0 The origin of the aperture is its center*
0 number of corners: always 8*
0 $1 to $16 corner X, Y*
0 $17 Rotation angle, in degrees counterclockwise*
0 create outline with 8 corners*
4,1,8,$1,$2,$3,$4,$5,$6,$7,$8,$9,$10,$11,$12,$13,$14,$15,$16,$1,$2,$17*%
G04 Aperture macros list end*
%TA.AperFunction,ComponentPad*%
%ADD10Outline8P,-0.704000X0.291606X-0.291606X0.704000X0.291606X0.704000X0.704000X0.291606X0.704000X-0.291606X0.291606X-0.704000X-0.291606X-0.704000X-0.704000X-0.291606X0.000000*%
%TD*%
%TA.AperFunction,ComponentPad*%
%ADD11Outline8P,-0.660400X0.273547X-0.273547X0.660400X0.273547X0.660400X0.660400X0.273547X0.660400X-0.273547X0.273547X-0.660400X-0.273547X-0.660400X-0.660400X-0.273547X0.000000*%
%TD*%
%TA.AperFunction,ComponentPad*%
%ADD12Outline8P,-0.660400X0.273547X-0.273547X0.660400X0.273547X0.660400X0.660400X0.273547X0.660400X-0.273547X0.273547X-0.660400X-0.273547X-0.660400X-0.660400X-0.273547X270.000000*%
%TD*%
%TA.AperFunction,ComponentPad*%
%ADD13R,2.400000X2.400000*%
%TD*%
%TA.AperFunction,ComponentPad*%
%ADD14C,2.000000*%
%TD*%
%TA.AperFunction,ComponentPad*%
%ADD15Outline8P,-0.660400X0.273547X-0.273547X0.660400X0.273547X0.660400X0.660400X0.273547X0.660400X-0.273547X0.273547X-0.660400X-0.273547X-0.660400X-0.660400X-0.273547X180.000000*%
%TD*%
%TA.AperFunction,ComponentPad*%
%ADD16C,1.676400*%
%TD*%
%TA.AperFunction,SMDPad,CuDef*%
%ADD17R,2.235000X1.219000*%
%TD*%
%TA.AperFunction,SMDPad,CuDef*%
%ADD18R,2.200000X3.600000*%
%TD*%
%TA.AperFunction,ComponentPad*%
%ADD19O,3.048000X1.524000*%
%TD*%
%TA.AperFunction,SMDPad,CuDef*%
%ADD20RoundRect,0.150000X-0.625000X0.150000X-0.625000X-0.150000X0.625000X-0.150000X0.625000X0.150000X0*%
%TD*%
%TA.AperFunction,SMDPad,CuDef*%
%ADD21RoundRect,0.250000X-0.650000X0.350000X-0.650000X-0.350000X0.650000X-0.350000X0.650000X0.350000X0*%
%TD*%
%TA.AperFunction,ComponentPad*%
%ADD22R,1.508000X1.508000*%
%TD*%
%TA.AperFunction,ComponentPad*%
%ADD23Outline8P,-0.660400X0.273547X-0.273547X0.660400X0.273547X0.660400X0.660400X0.273547X0.660400X-0.273547X0.273547X-0.660400X-0.273547X-0.660400X-0.660400X-0.273547X90.000000*%
%TD*%
%TA.AperFunction,SMDPad,CuDef*%
%ADD24RoundRect,0.250000X-1.500000X0.250000X-1.500000X-0.250000X1.500000X-0.250000X1.500000X0.250000X0*%
%TD*%
%TA.AperFunction,SMDPad,CuDef*%
%ADD25RoundRect,0.250001X-1.449999X0.499999X-1.449999X-0.499999X1.449999X-0.499999X1.449999X0.499999X0*%
%TD*%
%TA.AperFunction,ComponentPad*%
%ADD26C,1.270000*%
%TD*%
%TA.AperFunction,ComponentPad*%
%ADD27Outline8P,-0.635000X0.263026X-0.263026X0.635000X0.263026X0.635000X0.635000X0.263026X0.635000X-0.263026X0.263026X-0.635000X-0.263026X-0.635000X-0.635000X-0.263026X270.000000*%
%TD*%
%TA.AperFunction,ComponentPad*%
%ADD28Outline8P,-0.762000X0.315631X-0.315631X0.762000X0.315631X0.762000X0.762000X0.315631X0.762000X-0.315631X0.315631X-0.762000X-0.315631X-0.762000X-0.762000X-0.315631X180.000000*%
%TD*%
%TA.AperFunction,ViaPad*%
%ADD29C,0.600000*%
%TD*%
%TA.AperFunction,Conductor*%
%ADD30C,0.500000*%
%TD*%
%TA.AperFunction,Conductor*%
%ADD31C,0.200000*%
%TD*%
G04 APERTURE END LIST*
D10*
%TO.P,L1,1,1*%
%TO.N,+5V*%
X207436196Y-128647570D03*
%TO.P,L1,2,2*%
%TO.N,Net-(D1-K)*%
X212516196Y-128647570D03*
%TD*%
D11*
%TO.P,R7,1*%
%TO.N,/SCL*%
X124316196Y-139847570D03*
%TO.P,R7,2*%
%TO.N,+3V3*%
X134476196Y-139847570D03*
%TD*%
D12*
%TO.P,R1,1*%
%TO.N,/HV_CAP_FUL*%
X193116196Y-139167570D03*
%TO.P,R1,2*%
%TO.N,GND*%
X193116196Y-149327570D03*
%TD*%
D13*
%TO.P,SBM-19/20,P1,1*%
%TO.N,Net-(SBM-19/20-1)*%
X214506196Y-142247570D03*
%TO.P,SBM-19/20,P2,2*%
%TO.N,unconnected-(SBM-19/20-2-PadP2)*%
X222126196Y-142247570D03*
%TD*%
D14*
%TO.P,U2,1,BAT*%
%TO.N,unconnected-(U2-BAT-Pad1)*%
X141636196Y-148207570D03*
%TO.P,U2,2,EN*%
%TO.N,unconnected-(U2-EN-Pad2)*%
X139096196Y-148207570D03*
%TO.P,U2,3,5V*%
%TO.N,+5V*%
X136556196Y-148207570D03*
%TO.P,U2,4,13*%
%TO.N,unconnected-(U2-13-Pad4)*%
X134016196Y-148207570D03*
%TO.P,U2,5,12*%
%TO.N,unconnected-(U2-12-Pad5)*%
X131476196Y-148207570D03*
%TO.P,U2,6,11*%
%TO.N,unconnected-(U2-11-Pad6)*%
X128936196Y-148207570D03*
%TO.P,U2,7,1O*%
%TO.N,/SPEAKER_P*%
X126396196Y-148207570D03*
%TO.P,U2,8,9*%
%TO.N,/SPEAKER_N*%
X123856196Y-148207570D03*
%TO.P,U2,9,6*%
%TO.N,unconnected-(U2-6-Pad9)*%
X121316196Y-148207570D03*
%TO.P,U2,10,5*%
%TO.N,unconnected-(U2-5-Pad10)*%
X118776196Y-148207570D03*
%TO.P,U2,11,SCL*%
%TO.N,/SCL*%
X116236196Y-148207570D03*
%TO.P,U2,12,SDA*%
%TO.N,/SDA*%
X113696196Y-148207570D03*
%TO.P,U2,13,DB*%
%TO.N,unconnected-(U2-DB-Pad13)*%
X113696196Y-127887570D03*
%TO.P,U2,14,TX*%
%TO.N,unconnected-(U2-TX-Pad14)*%
X116236196Y-127887570D03*
%TO.P,U2,15,RX*%
%TO.N,unconnected-(U2-RX-Pad15)*%
X118776196Y-127887570D03*
%TO.P,U2,16*%
%TO.N,N/C*%
X121316196Y-127887570D03*
%TO.P,U2,17,MO*%
%TO.N,unconnected-(U2-MO-Pad17)*%
X123856196Y-127887570D03*
%TO.P,U2,18,SCK*%
%TO.N,unconnected-(U2-SCK-Pad18)*%
X126396196Y-127887570D03*
%TO.P,U2,19,A5*%
%TO.N,/HV_FET_OUT*%
X128936196Y-127887570D03*
%TO.P,U2,20,A4*%
%TO.N,unconnected-(U2-A4-Pad20)*%
X131476196Y-127887570D03*
%TO.P,U2,21,A3*%
%TO.N,unconnected-(U2-A3-Pad21)*%
X134016196Y-127887570D03*
%TO.P,U2,22,A2*%
%TO.N,unconnected-(U2-A2-Pad22)*%
X136556196Y-127887570D03*
%TO.P,U2,23,A1*%
%TO.N,/GMZ_COUNT*%
X139096196Y-127887570D03*
%TO.P,U2,24,A0*%
%TO.N,/HV_CAP_FUL*%
X141636196Y-127887570D03*
%TO.P,U2,25,GND*%
%TO.N,GND*%
X144176196Y-127887570D03*
%TO.P,U2,26,3V3*%
%TO.N,unconnected-(U2-3V3-Pad26)*%
X146716196Y-127887570D03*
%TO.P,U2,27,3V3*%
%TO.N,+3V3*%
X149256196Y-127887570D03*
%TO.P,U2,28,RST*%
%TO.N,unconnected-(U2-RST-Pad28)*%
X151796196Y-127887570D03*
%TD*%
D12*
%TO.P,C2,1*%
%TO.N,/HV_CAP_FUL*%
X188716196Y-143847570D03*
%TO.P,C2,2*%
%TO.N,GND*%
X188716196Y-148927570D03*
%TD*%
D15*
%TO.P,R6,1*%
%TO.N,+3V3*%
X134476196Y-137247570D03*
%TO.P,R6,2*%
%TO.N,/SDA*%
X124316196Y-137247570D03*
%TD*%
D12*
%TO.P,R5,1*%
%TO.N,+3V3*%
X180716196Y-123347570D03*
%TO.P,R5,2*%
%TO.N,/GMZ_COUNT*%
X180716196Y-133507570D03*
%TD*%
D16*
%TO.P,D3,A,A*%
%TO.N,GND*%
X196716196Y-149227570D03*
%TO.P,D3,C,K*%
%TO.N,/HV_CAP_FUL*%
X196716196Y-139067570D03*
%TD*%
D17*
%TO.P,U1,1,G*%
%TO.N,/HV_FET_OUT*%
X194817196Y-131836570D03*
%TO.P,U1,2,D*%
%TO.N,Net-(D1-K)*%
X194817196Y-134147570D03*
%TO.P,U1,3,S*%
%TO.N,GND*%
X194817196Y-136458570D03*
D18*
%TO.P,U1,4,D*%
%TO.N,Net-(D1-K)*%
X201015196Y-134147570D03*
%TD*%
D16*
%TO.P,D2,A,A*%
%TO.N,/HV_CAP_FUL*%
X200116196Y-139167570D03*
%TO.P,D2,C,K*%
%TO.N,Net-(D2-K)*%
X200116196Y-149327570D03*
%TD*%
D12*
%TO.P,R3,1*%
%TO.N,Net-(C4-Pad1)*%
X221216196Y-123387570D03*
%TO.P,R3,2*%
%TO.N,Net-(R3-Pad2)*%
X221216196Y-133547570D03*
%TD*%
D16*
%TO.P,D6,A,A*%
%TO.N,Net-(D4-K)*%
X210116196Y-149227570D03*
%TO.P,D6,C,C*%
%TO.N,Net-(C3-Pad1)*%
X210116196Y-139067570D03*
%TD*%
D19*
%TO.P,JP1,1*%
%TO.N,+5V*%
X176916196Y-135707570D03*
%TO.P,JP1,2*%
%TO.N,/HV_FET_OUT*%
X176916196Y-138247570D03*
%TO.P,JP1,3*%
%TO.N,/GMZ_COUNT*%
X176916196Y-140787570D03*
%TO.P,JP1,4*%
%TO.N,/HV_CAP_FUL*%
X176916196Y-143327570D03*
%TO.P,JP1,5*%
%TO.N,GND*%
X176916196Y-145867570D03*
%TD*%
D20*
%TO.P,J2,1,Pin_1*%
%TO.N,GND*%
X106291196Y-129847570D03*
%TO.P,J2,2,Pin_2*%
%TO.N,+3V3*%
X106291196Y-130847570D03*
%TO.P,J2,3,Pin_3*%
%TO.N,/SDA*%
X106291196Y-131847570D03*
%TO.P,J2,4,Pin_4*%
%TO.N,/SCL*%
X106291196Y-132847570D03*
D21*
%TO.P,J2,MP,MountPin*%
%TO.N,GND*%
X102416196Y-128547570D03*
X102416196Y-134147570D03*
%TD*%
D15*
%TO.P,C4,1*%
%TO.N,Net-(C4-Pad1)*%
X191256196Y-132947570D03*
%TO.P,C4,2*%
%TO.N,/GMZ_COUNT*%
X186176196Y-132947570D03*
%TD*%
D16*
%TO.P,D1,A,A*%
%TO.N,Net-(D2-K)*%
X203116196Y-149227570D03*
%TO.P,D1,C,K*%
%TO.N,Net-(D1-K)*%
X203116196Y-139067570D03*
%TD*%
%TO.P,D4,A,A*%
%TO.N,Net-(D1-K)*%
X206516196Y-139067570D03*
%TO.P,D4,C,K*%
%TO.N,Net-(D4-K)*%
X206516196Y-149227570D03*
%TD*%
D22*
%TO.P,PIEZO_KL1,P1,P1*%
%TO.N,/SPEAKER_P*%
X166716196Y-141267570D03*
%TO.P,PIEZO_KL1,P2,P2*%
%TO.N,/SPEAKER_N*%
X166716196Y-133647570D03*
%TD*%
D11*
%TO.P,R4,1*%
%TO.N,Net-(SBM-19/20-1)*%
X212636196Y-137247570D03*
%TO.P,R4,2*%
%TO.N,Net-(R3-Pad2)*%
X222796196Y-137247570D03*
%TD*%
D23*
%TO.P,R2,1*%
%TO.N,Net-(C3-Pad1)*%
X217916196Y-133527570D03*
%TO.P,R2,2*%
%TO.N,Net-(C4-Pad1)*%
X217916196Y-123367570D03*
%TD*%
D24*
%TO.P,J1,1,Pin_1*%
%TO.N,GND*%
X109066196Y-140797570D03*
%TO.P,J1,2,Pin_2*%
%TO.N,+5V*%
X109066196Y-142797570D03*
%TO.P,J1,3,Pin_3*%
%TO.N,/SDA*%
X109066196Y-144797570D03*
%TO.P,J1,4,Pin_4*%
%TO.N,/SCL*%
X109066196Y-146797570D03*
D25*
%TO.P,J1,MP,MountPin*%
%TO.N,GND*%
X103316196Y-138447570D03*
X103316196Y-149147570D03*
%TD*%
D14*
%TO.P,J3,1,Pin_1*%
%TO.N,GND*%
X218816196Y-149647570D03*
%TD*%
D26*
%TO.P,C1,+*%
%TO.N,+5V*%
X146916196Y-141131570D03*
D27*
%TO.P,C1,-*%
%TO.N,GND*%
X146916196Y-143163570D03*
%TD*%
D28*
%TO.P,C3,1*%
%TO.N,Net-(C3-Pad1)*%
X201609196Y-126547570D03*
%TO.P,C3,2*%
%TO.N,GND*%
X186623196Y-126547570D03*
%TD*%
D29*
%TO.N,/HV_FET_OUT*%
X169916196Y-130147570D03*
%TO.N,/SPEAKER_N*%
X152716196Y-136247570D03*
%TO.N,+3V3*%
X130416196Y-124147570D03*
%TD*%
D30*
%TO.N,/HV_CAP_FUL*%
X200516196Y-139067570D02*
X197516196Y-139067570D01*
X196716196Y-139067570D02*
X193216196Y-139067570D01*
D31*
X178296196Y-143327570D02*
X176916196Y-143327570D01*
D30*
X188716196Y-143547570D02*
X193096196Y-139167570D01*
D31*
X183516196Y-146047570D02*
X181016196Y-146047570D01*
D30*
X188716196Y-143847570D02*
X188716196Y-143547570D01*
D31*
X188716196Y-143847570D02*
X186516196Y-146047570D01*
D30*
X193216196Y-139067570D02*
X193116196Y-139167570D01*
D31*
X186516196Y-146047570D02*
X183516196Y-146047570D01*
X181016196Y-146047570D02*
X178296196Y-143327570D01*
%TO.N,/HV_FET_OUT*%
X175016196Y-138247570D02*
X174216196Y-137447570D01*
X177816196Y-131147570D02*
X174216196Y-134747570D01*
X175016196Y-138247570D02*
X172116196Y-135347570D01*
X193116196Y-133547570D02*
X192216196Y-134447570D01*
X176916196Y-138247570D02*
X175016196Y-138247570D01*
X169916196Y-133147570D02*
X169916196Y-130147570D01*
X174216196Y-134747570D02*
X174216196Y-137447570D01*
X172116196Y-135347570D02*
X169916196Y-133147570D01*
X192216196Y-134447570D02*
X190016196Y-134447570D01*
X194817196Y-131836570D02*
X193627196Y-131836570D01*
X186716196Y-131147570D02*
X177816196Y-131147570D01*
X193116196Y-132347570D02*
X193116196Y-133547570D01*
X190016196Y-134447570D02*
X186716196Y-131147570D01*
X193627196Y-131836570D02*
X193116196Y-132347570D01*
%TO.N,/GMZ_COUNT*%
X142336196Y-124647570D02*
X139096196Y-127887570D01*
X170956196Y-140787570D02*
X154816196Y-124647570D01*
X177416196Y-140747570D02*
X178616196Y-140747570D01*
X154816196Y-124647570D02*
X142336196Y-124647570D01*
X178616196Y-140747570D02*
X180816196Y-138547570D01*
D30*
X186176196Y-132947570D02*
X185616196Y-133507570D01*
D31*
X173016196Y-140787570D02*
X170956196Y-140787570D01*
X180816196Y-138547570D02*
X180816196Y-132967570D01*
X141136196Y-125847570D02*
X139383281Y-127600485D01*
D30*
X185616196Y-133507570D02*
X181356196Y-133507570D01*
D31*
X176916196Y-140787570D02*
X173016196Y-140787570D01*
D30*
%TO.N,Net-(SBM-19/20-1)*%
X214506196Y-139117570D02*
X212636196Y-137247570D01*
X214506196Y-142247570D02*
X214506196Y-139117570D01*
D31*
%TO.N,/SPEAKER_N*%
X133816196Y-144147570D02*
X139916196Y-138047570D01*
X127916196Y-144147570D02*
X133816196Y-144147570D01*
X150916196Y-138047570D02*
X152716196Y-136247570D01*
X123856196Y-148207570D02*
X127916196Y-144147570D01*
X139916196Y-138047570D02*
X150916196Y-138047570D01*
D30*
%TO.N,Net-(R3-Pad2)*%
X222796196Y-137247570D02*
X222796196Y-135927570D01*
X222796196Y-135927570D02*
X221216196Y-134347570D01*
X221216196Y-134347570D02*
X221216196Y-133547570D01*
D31*
%TO.N,/SPEAKER_P*%
X134516196Y-145347570D02*
X140716196Y-139147570D01*
X152036196Y-141267570D02*
X166716196Y-141267570D01*
X140716196Y-139147570D02*
X149916196Y-139147570D01*
X129256196Y-145347570D02*
X134516196Y-145347570D01*
X126396196Y-148207570D02*
X129256196Y-145347570D01*
X149916196Y-139147570D02*
X152036196Y-141267570D01*
%TO.N,/SDA*%
X105116196Y-131847570D02*
X106291196Y-131847570D01*
X104516196Y-135047570D02*
X104516196Y-132447570D01*
X104516196Y-132447570D02*
X105116196Y-131847570D01*
X109416196Y-136347570D02*
X105816196Y-136347570D01*
X109066196Y-144797570D02*
X111066196Y-144797570D01*
X112776196Y-148207570D02*
X113696196Y-148207570D01*
X111066196Y-144797570D02*
X112016196Y-145747570D01*
X105816196Y-136347570D02*
X104516196Y-135047570D01*
X113696196Y-140627570D02*
X109416196Y-136347570D01*
X124116196Y-137047570D02*
X124316196Y-137247570D01*
X112016196Y-147447570D02*
X112776196Y-148207570D01*
X109516196Y-131847570D02*
X106291196Y-131847570D01*
X112016196Y-134347570D02*
X109516196Y-131847570D01*
X124316196Y-137247570D02*
X121416196Y-134347570D01*
X121416196Y-134347570D02*
X112016196Y-134347570D01*
X124316196Y-137247570D02*
X124316196Y-137347570D01*
X113696196Y-148207570D02*
X113696196Y-140627570D01*
X112016196Y-145747570D02*
X112016196Y-147447570D01*
%TO.N,/SCL*%
X110016196Y-151047570D02*
X115016196Y-151047570D01*
X109066196Y-150097570D02*
X110016196Y-151047570D01*
X109066196Y-146797570D02*
X109066196Y-150097570D01*
X110216196Y-135547570D02*
X107416196Y-135547570D01*
X124316196Y-139847570D02*
X119816196Y-135347570D01*
X115016196Y-151047570D02*
X116236196Y-149827570D01*
X122516196Y-138047570D02*
X124316196Y-139847570D01*
X119816196Y-135347570D02*
X112016196Y-135347570D01*
X107416196Y-135547570D02*
X107016196Y-135147570D01*
X109516196Y-132847570D02*
X106291196Y-132847570D01*
X107016196Y-135147570D02*
X107016196Y-133572570D01*
X107016196Y-133572570D02*
X106291196Y-132847570D01*
X116236196Y-148207570D02*
X116236196Y-141567570D01*
X112016196Y-135347570D02*
X109516196Y-132847570D01*
X116236196Y-141567570D02*
X110216196Y-135547570D01*
X116236196Y-149827570D02*
X116236196Y-148207570D01*
D30*
%TO.N,Net-(C4-Pad1)*%
X217916196Y-123367570D02*
X193196196Y-123367570D01*
X191316196Y-125247570D02*
X191316196Y-125547570D01*
X191256196Y-125607570D02*
X191256196Y-132947570D01*
X193196196Y-123367570D02*
X191316196Y-125247570D01*
X217936196Y-123387570D02*
X217916196Y-123367570D01*
X221216196Y-123387570D02*
X217936196Y-123387570D01*
X191316196Y-125547570D02*
X191256196Y-125607570D01*
%TO.N,+3V3*%
X124016196Y-133347570D02*
X118191196Y-133347570D01*
X134476196Y-137247570D02*
X134476196Y-139847570D01*
X129316196Y-133347570D02*
X124016196Y-133347570D01*
X106291196Y-130847570D02*
X107416196Y-130847570D01*
X116216196Y-124147570D02*
X117316196Y-124147570D01*
X108916196Y-129347570D02*
X109416196Y-128847570D01*
X124016196Y-133347570D02*
X130576196Y-133347570D01*
X107416196Y-130847570D02*
X108916196Y-129347570D01*
X118191196Y-133347570D02*
X112216196Y-133347570D01*
X108916196Y-129347570D02*
X114116196Y-124147570D01*
X112216196Y-133347570D02*
X111166196Y-132297570D01*
X114116196Y-124147570D02*
X116216196Y-124147570D01*
X106291196Y-130847570D02*
X109716196Y-130847570D01*
X109716196Y-130847570D02*
X111166196Y-132297570D01*
X132576196Y-135347570D02*
X133096196Y-135867570D01*
X133096196Y-135867570D02*
X133596196Y-136367570D01*
X111166196Y-132297570D02*
X110616196Y-131747570D01*
X117316196Y-124147570D02*
X130416196Y-124147570D01*
X130576196Y-133347570D02*
X133596196Y-136367570D01*
X133596196Y-136367570D02*
X134476196Y-137247570D01*
%TO.N,+5V*%
X108816196Y-152147570D02*
X106216196Y-149547570D01*
X106216196Y-149547570D02*
X106216196Y-143647570D01*
X136556196Y-148207570D02*
X136556196Y-151007570D01*
X136556196Y-151007570D02*
X135416196Y-152147570D01*
X107066196Y-142797570D02*
X109066196Y-142797570D01*
X135416196Y-152147570D02*
X108816196Y-152147570D01*
X106216196Y-143647570D02*
X107066196Y-142797570D01*
%TO.N,Net-(D1-K)*%
X201015196Y-134147570D02*
X202516196Y-134147570D01*
X206516196Y-139067570D02*
X203116196Y-139067570D01*
X203116196Y-139067570D02*
X203116196Y-134747570D01*
X207016196Y-134147570D02*
X207816196Y-133347570D01*
X201015196Y-134147570D02*
X194817196Y-134147570D01*
X206516196Y-134647570D02*
X206516196Y-139067570D01*
X207816196Y-133347570D02*
X206516196Y-134647570D01*
X207816196Y-133347570D02*
X212516196Y-128647570D01*
X207016196Y-139067570D02*
X203816196Y-139067570D01*
X202516196Y-134147570D02*
X202666196Y-134297570D01*
X203116196Y-134747570D02*
X202666196Y-134297570D01*
%TO.N,Net-(C3-Pad1)*%
X214516196Y-125647570D02*
X202509196Y-125647570D01*
X217916196Y-133527570D02*
X212036196Y-133527570D01*
X217916196Y-129047570D02*
X214516196Y-125647570D01*
X202509196Y-125647570D02*
X201609196Y-126547570D01*
X217916196Y-133527570D02*
X217916196Y-129047570D01*
X212036196Y-133527570D02*
X210116196Y-135447570D01*
X210116196Y-135447570D02*
X210116196Y-139067570D01*
%TO.N,Net-(D4-K)*%
X207016196Y-149227570D02*
X210116196Y-149227570D01*
%TO.N,Net-(D2-K)*%
X203816196Y-149227570D02*
X200516196Y-149227570D01*
%TD*%
%TA.AperFunction,Conductor*%
%TO.N,GND*%
G36*
X180117950Y-122721247D02*
G01*
X179850296Y-122988902D01*
X179850296Y-123706237D01*
X179850297Y-123706238D01*
X180100790Y-123956731D01*
X180016196Y-130047570D01*
X183416196Y-130047570D01*
X183416196Y-130718070D01*
X183396511Y-130785109D01*
X183343707Y-130830864D01*
X183292196Y-130842070D01*
X177775976Y-130842070D01*
X177698273Y-130862890D01*
X177698271Y-130862891D01*
X177628621Y-130903105D01*
X177628612Y-130903111D01*
X173971737Y-134559986D01*
X173971731Y-134559995D01*
X173931517Y-134629645D01*
X173931516Y-134629647D01*
X173910696Y-134707350D01*
X173910696Y-136410665D01*
X173891011Y-136477704D01*
X173838207Y-136523459D01*
X173769049Y-136533403D01*
X173705493Y-136504378D01*
X173699015Y-136498346D01*
X172303777Y-135103109D01*
X170258015Y-133057347D01*
X170224530Y-132996024D01*
X170221696Y-132969666D01*
X170221696Y-130608317D01*
X170241381Y-130541278D01*
X170258015Y-130520636D01*
X170320697Y-130457954D01*
X170387247Y-130342686D01*
X170421696Y-130214120D01*
X170421696Y-130081020D01*
X170387247Y-129952454D01*
X170320697Y-129837186D01*
X170226580Y-129743069D01*
X170111312Y-129676519D01*
X169982746Y-129642070D01*
X169849646Y-129642070D01*
X169721080Y-129676519D01*
X169721077Y-129676520D01*
X169605815Y-129743067D01*
X169605809Y-129743071D01*
X169511697Y-129837183D01*
X169511693Y-129837189D01*
X169445146Y-129952451D01*
X169445145Y-129952454D01*
X169410696Y-130081020D01*
X169410696Y-130214120D01*
X169420424Y-130250423D01*
X169445145Y-130342685D01*
X169445146Y-130342688D01*
X169452688Y-130355751D01*
X169511695Y-130457954D01*
X169511697Y-130457956D01*
X169574377Y-130520636D01*
X169607862Y-130581959D01*
X169610696Y-130608317D01*
X169610696Y-133107350D01*
X169610696Y-133187790D01*
X169615843Y-133206999D01*
X169631516Y-133265492D01*
X169631517Y-133265494D01*
X169667669Y-133328109D01*
X169671735Y-133335151D01*
X171871735Y-135535151D01*
X174828614Y-138492031D01*
X174860898Y-138510670D01*
X174860900Y-138510671D01*
X174898274Y-138532250D01*
X174898276Y-138532250D01*
X174898277Y-138532251D01*
X174975976Y-138553070D01*
X175150670Y-138553070D01*
X175217709Y-138572755D01*
X175263464Y-138625559D01*
X175265231Y-138629617D01*
X175296807Y-138705850D01*
X175296812Y-138705859D01*
X175402689Y-138864314D01*
X175402692Y-138864318D01*
X175537447Y-138999073D01*
X175537451Y-138999076D01*
X175695906Y-139104953D01*
X175695919Y-139104960D01*
X175853822Y-139170365D01*
X175871987Y-139177889D01*
X175871991Y-139177889D01*
X175871992Y-139177890D01*
X176058903Y-139215070D01*
X176058906Y-139215070D01*
X177773488Y-139215070D01*
X177899238Y-139190055D01*
X177960405Y-139177889D01*
X178136479Y-139104957D01*
X178294941Y-138999076D01*
X178429702Y-138864315D01*
X178535583Y-138705853D01*
X178536733Y-138703078D01*
X178584486Y-138587790D01*
X178608515Y-138529779D01*
X178630147Y-138421028D01*
X178645696Y-138342862D01*
X178645696Y-138152277D01*
X178608516Y-137965366D01*
X178608515Y-137965365D01*
X178608515Y-137965361D01*
X178586114Y-137911280D01*
X178535586Y-137789293D01*
X178535579Y-137789280D01*
X178429702Y-137630825D01*
X178429699Y-137630821D01*
X178294944Y-137496066D01*
X178294940Y-137496063D01*
X178136485Y-137390186D01*
X178136472Y-137390179D01*
X177960409Y-137317252D01*
X177960399Y-137317249D01*
X177773488Y-137280070D01*
X177773486Y-137280070D01*
X176058906Y-137280070D01*
X176058904Y-137280070D01*
X175871992Y-137317249D01*
X175871982Y-137317252D01*
X175695919Y-137390179D01*
X175695906Y-137390186D01*
X175537451Y-137496063D01*
X175537447Y-137496066D01*
X175402692Y-137630821D01*
X175402689Y-137630825D01*
X175296812Y-137789280D01*
X175296804Y-137789295D01*
X175277950Y-137834813D01*
X175234109Y-137889216D01*
X175167814Y-137911280D01*
X175100115Y-137894000D01*
X175075709Y-137875040D01*
X174558015Y-137357346D01*
X174524530Y-137296023D01*
X174521696Y-137269665D01*
X174521696Y-135802862D01*
X175186695Y-135802862D01*
X175223875Y-135989773D01*
X175223878Y-135989783D01*
X175296805Y-136165846D01*
X175296812Y-136165859D01*
X175402689Y-136324314D01*
X175402692Y-136324318D01*
X175537447Y-136459073D01*
X175537451Y-136459076D01*
X175695906Y-136564953D01*
X175695919Y-136564960D01*
X175871982Y-136637887D01*
X175871987Y-136637889D01*
X175871991Y-136637889D01*
X175871992Y-136637890D01*
X176058903Y-136675070D01*
X176058906Y-136675070D01*
X177773488Y-136675070D01*
X177899238Y-136650055D01*
X177960405Y-136637889D01*
X178136479Y-136564957D01*
X178294941Y-136459076D01*
X178429702Y-136324315D01*
X178535583Y-136165853D01*
X178608515Y-135989779D01*
X178620681Y-135928612D01*
X178645696Y-135802862D01*
X178645696Y-135612277D01*
X178608516Y-135425366D01*
X178608515Y-135425365D01*
X178608515Y-135425361D01*
X178557875Y-135303105D01*
X178535586Y-135249293D01*
X178535579Y-135249280D01*
X178429702Y-135090825D01*
X178429699Y-135090821D01*
X178294944Y-134956066D01*
X178294940Y-134956063D01*
X178136485Y-134850186D01*
X178136472Y-134850179D01*
X177960409Y-134777252D01*
X177960399Y-134777249D01*
X177773488Y-134740070D01*
X177773486Y-134740070D01*
X176058906Y-134740070D01*
X176058904Y-134740070D01*
X175871992Y-134777249D01*
X175871982Y-134777252D01*
X175695919Y-134850179D01*
X175695906Y-134850186D01*
X175537451Y-134956063D01*
X175537447Y-134956066D01*
X175402692Y-135090821D01*
X175402689Y-135090825D01*
X175296812Y-135249280D01*
X175296805Y-135249293D01*
X175223878Y-135425356D01*
X175223875Y-135425366D01*
X175186696Y-135612277D01*
X175186696Y-135612280D01*
X175186696Y-135802860D01*
X175186696Y-135802862D01*
X175186695Y-135802862D01*
X174521696Y-135802862D01*
X174521696Y-134925474D01*
X174541381Y-134858435D01*
X174558015Y-134837793D01*
X177906419Y-131489389D01*
X177967742Y-131455904D01*
X177994100Y-131453070D01*
X183292196Y-131453070D01*
X183359235Y-131472755D01*
X183404990Y-131525559D01*
X183416196Y-131577070D01*
X183416196Y-132928070D01*
X183396511Y-132995109D01*
X183343707Y-133040864D01*
X183292196Y-133052070D01*
X181536625Y-133052070D01*
X181469586Y-133032385D01*
X181448944Y-133015751D01*
X181074863Y-132641670D01*
X180357528Y-132641670D01*
X179850296Y-133148902D01*
X179850296Y-133866237D01*
X179850297Y-133866238D01*
X180357529Y-134373470D01*
X180386696Y-134373469D01*
X180453734Y-134393152D01*
X180499489Y-134445955D01*
X180510696Y-134497469D01*
X180510696Y-138369665D01*
X180491011Y-138436704D01*
X180474377Y-138457346D01*
X178669200Y-140262522D01*
X178607877Y-140296007D01*
X178538185Y-140291023D01*
X178482252Y-140249151D01*
X178478417Y-140243732D01*
X178429702Y-140170824D01*
X178294944Y-140036066D01*
X178294940Y-140036063D01*
X178136485Y-139930186D01*
X178136472Y-139930179D01*
X177960409Y-139857252D01*
X177960399Y-139857249D01*
X177773488Y-139820070D01*
X177773486Y-139820070D01*
X176058906Y-139820070D01*
X176058904Y-139820070D01*
X175871992Y-139857249D01*
X175871982Y-139857252D01*
X175695919Y-139930179D01*
X175695906Y-139930186D01*
X175537451Y-140036063D01*
X175537447Y-140036066D01*
X175402692Y-140170821D01*
X175402689Y-140170825D01*
X175296812Y-140329280D01*
X175296807Y-140329289D01*
X175265231Y-140405523D01*
X175221390Y-140459926D01*
X175155096Y-140481991D01*
X175150670Y-140482070D01*
X171134100Y-140482070D01*
X171067061Y-140462385D01*
X171046419Y-140445751D01*
X163473993Y-132873325D01*
X165756696Y-132873325D01*
X165756696Y-134421814D01*
X165768617Y-134481749D01*
X165768618Y-134481750D01*
X165814038Y-134549727D01*
X165847003Y-134571753D01*
X165882014Y-134595147D01*
X165882015Y-134595147D01*
X165882016Y-134595148D01*
X165941951Y-134607069D01*
X165941955Y-134607070D01*
X165941956Y-134607070D01*
X167490437Y-134607070D01*
X167490438Y-134607069D01*
X167510597Y-134603059D01*
X167550375Y-134595148D01*
X167550375Y-134595147D01*
X167550378Y-134595147D01*
X167618353Y-134549727D01*
X167663773Y-134481752D01*
X167675696Y-134421810D01*
X167675696Y-132873330D01*
X167675508Y-132872385D01*
X167663774Y-132813390D01*
X167663773Y-132813389D01*
X167663773Y-132813388D01*
X167627100Y-132758503D01*
X167618353Y-132745412D01*
X167567486Y-132711424D01*
X167550378Y-132699993D01*
X167550377Y-132699992D01*
X167550376Y-132699992D01*
X167550375Y-132699991D01*
X167490440Y-132688070D01*
X167490436Y-132688070D01*
X165941956Y-132688070D01*
X165941951Y-132688070D01*
X165882016Y-132699991D01*
X165882015Y-132699992D01*
X165814038Y-132745412D01*
X165768618Y-132813389D01*
X165768617Y-132813390D01*
X165756696Y-132873325D01*
X163473993Y-132873325D01*
X155841951Y-125241283D01*
X170749500Y-125241283D01*
X170749500Y-125453856D01*
X170782753Y-125663809D01*
X170848444Y-125865984D01*
X170944951Y-126055390D01*
X171069890Y-126227356D01*
X171220213Y-126377679D01*
X171392179Y-126502618D01*
X171392181Y-126502619D01*
X171392184Y-126502621D01*
X171581588Y-126599127D01*
X171783757Y-126664816D01*
X171993713Y-126698070D01*
X171993714Y-126698070D01*
X172206286Y-126698070D01*
X172206287Y-126698070D01*
X172416243Y-126664816D01*
X172618412Y-126599127D01*
X172807816Y-126502621D01*
X172829789Y-126486656D01*
X172979786Y-126377679D01*
X172979788Y-126377676D01*
X172979792Y-126377674D01*
X173130104Y-126227362D01*
X173130106Y-126227358D01*
X173130109Y-126227356D01*
X173255048Y-126055390D01*
X173255047Y-126055390D01*
X173255051Y-126055386D01*
X173351557Y-125865982D01*
X173417246Y-125663813D01*
X173450500Y-125453857D01*
X173450500Y-125241283D01*
X173417246Y-125031327D01*
X173351557Y-124829158D01*
X173255051Y-124639754D01*
X173255049Y-124639751D01*
X173255048Y-124639749D01*
X173130109Y-124467783D01*
X172979786Y-124317460D01*
X172807820Y-124192521D01*
X172618414Y-124096014D01*
X172618413Y-124096013D01*
X172618412Y-124096013D01*
X172416243Y-124030324D01*
X172416241Y-124030323D01*
X172416240Y-124030323D01*
X172254957Y-124004778D01*
X172206287Y-123997070D01*
X171993713Y-123997070D01*
X171945042Y-124004778D01*
X171783760Y-124030323D01*
X171783757Y-124030324D01*
X171627732Y-124081020D01*
X171581585Y-124096014D01*
X171392179Y-124192521D01*
X171220213Y-124317460D01*
X171069890Y-124467783D01*
X170944951Y-124639749D01*
X170848444Y-124829155D01*
X170782753Y-125031330D01*
X170749500Y-125241283D01*
X155841951Y-125241283D01*
X155003779Y-124403111D01*
X155003777Y-124403109D01*
X155000655Y-124401306D01*
X154934120Y-124362891D01*
X154934118Y-124362890D01*
X154934115Y-124362889D01*
X154856416Y-124342070D01*
X142376416Y-124342070D01*
X142295976Y-124342070D01*
X142218273Y-124362890D01*
X142218271Y-124362891D01*
X142148621Y-124403105D01*
X142148612Y-124403111D01*
X139769974Y-126781748D01*
X139708651Y-126815233D01*
X139638959Y-126810249D01*
X139625999Y-126804552D01*
X139558955Y-126770391D01*
X139378485Y-126711752D01*
X139191076Y-126682070D01*
X139191071Y-126682070D01*
X139001321Y-126682070D01*
X139001316Y-126682070D01*
X138813906Y-126711752D01*
X138633439Y-126770390D01*
X138464372Y-126856536D01*
X138310871Y-126968060D01*
X138310866Y-126968064D01*
X138176690Y-127102240D01*
X138176686Y-127102245D01*
X138065162Y-127255746D01*
X137979016Y-127424813D01*
X137944127Y-127532192D01*
X137904689Y-127589867D01*
X137840330Y-127617065D01*
X137771484Y-127605150D01*
X137720008Y-127557906D01*
X137708265Y-127532192D01*
X137698827Y-127503146D01*
X137673377Y-127424818D01*
X137673375Y-127424815D01*
X137673375Y-127424813D01*
X137604223Y-127289097D01*
X137587232Y-127255750D01*
X137556746Y-127213790D01*
X137475705Y-127102245D01*
X137475701Y-127102240D01*
X137341525Y-126968064D01*
X137341520Y-126968060D01*
X137188019Y-126856536D01*
X137188018Y-126856535D01*
X137188016Y-126856534D01*
X137106959Y-126815233D01*
X137018952Y-126770390D01*
X136838485Y-126711752D01*
X136651076Y-126682070D01*
X136651071Y-126682070D01*
X136461321Y-126682070D01*
X136461316Y-126682070D01*
X136273906Y-126711752D01*
X136093439Y-126770390D01*
X135924372Y-126856536D01*
X135770871Y-126968060D01*
X135770866Y-126968064D01*
X135636690Y-127102240D01*
X135636686Y-127102245D01*
X135525162Y-127255746D01*
X135439016Y-127424813D01*
X135404127Y-127532192D01*
X135364689Y-127589867D01*
X135300330Y-127617065D01*
X135231484Y-127605150D01*
X135180008Y-127557906D01*
X135168265Y-127532192D01*
X135158827Y-127503146D01*
X135133377Y-127424818D01*
X135133375Y-127424815D01*
X135133375Y-127424813D01*
X135064223Y-127289097D01*
X135047232Y-127255750D01*
X135016746Y-127213790D01*
X134935705Y-127102245D01*
X134935701Y-127102240D01*
X134801525Y-126968064D01*
X134801520Y-126968060D01*
X134648019Y-126856536D01*
X134648018Y-126856535D01*
X134648016Y-126856534D01*
X134566959Y-126815233D01*
X134478952Y-126770390D01*
X134298485Y-126711752D01*
X134111076Y-126682070D01*
X134111071Y-126682070D01*
X133921321Y-126682070D01*
X133921316Y-126682070D01*
X133733906Y-126711752D01*
X133553439Y-126770390D01*
X133384372Y-126856536D01*
X133230871Y-126968060D01*
X133230866Y-126968064D01*
X133096690Y-127102240D01*
X133096686Y-127102245D01*
X132985162Y-127255746D01*
X132899016Y-127424813D01*
X132864127Y-127532192D01*
X132824689Y-127589867D01*
X132760330Y-127617065D01*
X132691484Y-127605150D01*
X132640008Y-127557906D01*
X132628265Y-127532192D01*
X132618827Y-127503146D01*
X132593377Y-127424818D01*
X132593375Y-127424815D01*
X132593375Y-127424813D01*
X132524223Y-127289097D01*
X132507232Y-127255750D01*
X132476746Y-127213790D01*
X132395705Y-127102245D01*
X132395701Y-127102240D01*
X132261525Y-126968064D01*
X132261520Y-126968060D01*
X132108019Y-126856536D01*
X132108018Y-126856535D01*
X132108016Y-126856534D01*
X132026959Y-126815233D01*
X131938952Y-126770390D01*
X131758485Y-126711752D01*
X131571076Y-126682070D01*
X131571071Y-126682070D01*
X131381321Y-126682070D01*
X131381316Y-126682070D01*
X131193906Y-126711752D01*
X131013439Y-126770390D01*
X130844372Y-126856536D01*
X130690871Y-126968060D01*
X130690866Y-126968064D01*
X130556690Y-127102240D01*
X130556686Y-127102245D01*
X130445162Y-127255746D01*
X130359016Y-127424813D01*
X130324127Y-127532192D01*
X130284689Y-127589867D01*
X130220330Y-127617065D01*
X130151484Y-127605150D01*
X130100008Y-127557906D01*
X130088265Y-127532192D01*
X130078827Y-127503146D01*
X130053377Y-127424818D01*
X130053375Y-127424815D01*
X130053375Y-127424813D01*
X129984223Y-127289097D01*
X129967232Y-127255750D01*
X129936746Y-127213790D01*
X129855705Y-127102245D01*
X129855701Y-127102240D01*
X129721525Y-126968064D01*
X129721520Y-126968060D01*
X129568019Y-126856536D01*
X129568018Y-126856535D01*
X129568016Y-126856534D01*
X129486959Y-126815233D01*
X129398952Y-126770390D01*
X129218485Y-126711752D01*
X129031076Y-126682070D01*
X129031071Y-126682070D01*
X128841321Y-126682070D01*
X128841316Y-126682070D01*
X128653906Y-126711752D01*
X128473439Y-126770390D01*
X128304372Y-126856536D01*
X128150871Y-126968060D01*
X128150866Y-126968064D01*
X128016690Y-127102240D01*
X128016686Y-127102245D01*
X127905162Y-127255746D01*
X127819016Y-127424813D01*
X127784127Y-127532192D01*
X127744689Y-127589867D01*
X127680330Y-127617065D01*
X127611484Y-127605150D01*
X127560008Y-127557906D01*
X127548265Y-127532192D01*
X127538827Y-127503146D01*
X127513377Y-127424818D01*
X127513375Y-127424815D01*
X127513375Y-127424813D01*
X127444223Y-127289097D01*
X127427232Y-127255750D01*
X127396746Y-127213790D01*
X127315705Y-127102245D01*
X127315701Y-127102240D01*
X127181525Y-126968064D01*
X127181520Y-126968060D01*
X127028019Y-126856536D01*
X127028018Y-126856535D01*
X127028016Y-126856534D01*
X126946959Y-126815233D01*
X126858952Y-126770390D01*
X126678485Y-126711752D01*
X126491076Y-126682070D01*
X126491071Y-126682070D01*
X126301321Y-126682070D01*
X126301316Y-126682070D01*
X126113906Y-126711752D01*
X125933439Y-126770390D01*
X125764372Y-126856536D01*
X125610871Y-126968060D01*
X125610866Y-126968064D01*
X125476690Y-127102240D01*
X125476686Y-127102245D01*
X125365162Y-127255746D01*
X125279016Y-127424813D01*
X125244127Y-127532192D01*
X125204689Y-127589867D01*
X125140330Y-127617065D01*
X125071484Y-127605150D01*
X125020008Y-127557906D01*
X125008265Y-127532192D01*
X124998827Y-127503146D01*
X124973377Y-127424818D01*
X124973375Y-127424815D01*
X124973375Y-127424813D01*
X124904223Y-127289097D01*
X124887232Y-127255750D01*
X124856746Y-127213790D01*
X124775705Y-127102245D01*
X124775701Y-127102240D01*
X124641525Y-126968064D01*
X124641520Y-126968060D01*
X124488019Y-126856536D01*
X124488018Y-126856535D01*
X124488016Y-126856534D01*
X124406959Y-126815233D01*
X124318952Y-126770390D01*
X124138485Y-126711752D01*
X123951076Y-126682070D01*
X123951071Y-126682070D01*
X123761321Y-126682070D01*
X123761316Y-126682070D01*
X123573906Y-126711752D01*
X123393439Y-126770390D01*
X123224372Y-126856536D01*
X123070871Y-126968060D01*
X123070866Y-126968064D01*
X122936690Y-127102240D01*
X122936686Y-127102245D01*
X122825162Y-127255746D01*
X122739016Y-127424813D01*
X122704127Y-127532192D01*
X122664689Y-127589867D01*
X122600330Y-127617065D01*
X122531484Y-127605150D01*
X122480008Y-127557906D01*
X122468265Y-127532192D01*
X122458827Y-127503146D01*
X122433377Y-127424818D01*
X122433375Y-127424815D01*
X122433375Y-127424813D01*
X122364223Y-127289097D01*
X122347232Y-127255750D01*
X122316746Y-127213790D01*
X122235705Y-127102245D01*
X122235701Y-127102240D01*
X122101525Y-126968064D01*
X122101520Y-126968060D01*
X121948019Y-126856536D01*
X121948018Y-126856535D01*
X121948016Y-126856534D01*
X121866959Y-126815233D01*
X121778952Y-126770390D01*
X121598485Y-126711752D01*
X121411076Y-126682070D01*
X121411071Y-126682070D01*
X121221321Y-126682070D01*
X121221316Y-126682070D01*
X121033906Y-126711752D01*
X120853439Y-126770390D01*
X120684372Y-126856536D01*
X120530871Y-126968060D01*
X120530866Y-126968064D01*
X120396690Y-127102240D01*
X120396686Y-127102245D01*
X120285162Y-127255746D01*
X120199016Y-127424813D01*
X120164127Y-127532192D01*
X120124689Y-127589867D01*
X120060330Y-127617065D01*
X119991484Y-127605150D01*
X119940008Y-127557906D01*
X119928265Y-127532192D01*
X119918827Y-127503146D01*
X119893377Y-127424818D01*
X119893375Y-127424815D01*
X119893375Y-127424813D01*
X119824223Y-127289097D01*
X119807232Y-127255750D01*
X119776746Y-127213790D01*
X119695705Y-127102245D01*
X119695701Y-127102240D01*
X119561525Y-126968064D01*
X119561520Y-126968060D01*
X119408019Y-126856536D01*
X119408018Y-126856535D01*
X119408016Y-126856534D01*
X119326959Y-126815233D01*
X119238952Y-126770390D01*
X119058485Y-126711752D01*
X118871076Y-126682070D01*
X118871071Y-126682070D01*
X118681321Y-126682070D01*
X118681316Y-126682070D01*
X118493906Y-126711752D01*
X118313439Y-126770390D01*
X118144372Y-126856536D01*
X117990871Y-126968060D01*
X117990866Y-126968064D01*
X117856690Y-127102240D01*
X117856686Y-127102245D01*
X117745162Y-127255746D01*
X117659016Y-127424813D01*
X117624127Y-127532192D01*
X117584689Y-127589867D01*
X117520330Y-127617065D01*
X117451484Y-127605150D01*
X117400008Y-127557906D01*
X117388265Y-127532192D01*
X117378827Y-127503146D01*
X117353377Y-127424818D01*
X117353375Y-127424815D01*
X117353375Y-127424813D01*
X117284223Y-127289097D01*
X117267232Y-127255750D01*
X117236746Y-127213790D01*
X117155705Y-127102245D01*
X117155701Y-127102240D01*
X117021525Y-126968064D01*
X117021520Y-126968060D01*
X116868019Y-126856536D01*
X116868018Y-126856535D01*
X116868016Y-126856534D01*
X116786959Y-126815233D01*
X116698952Y-126770390D01*
X116518485Y-126711752D01*
X116331076Y-126682070D01*
X116331071Y-126682070D01*
X116141321Y-126682070D01*
X116141316Y-126682070D01*
X115953906Y-126711752D01*
X115773439Y-126770390D01*
X115604372Y-126856536D01*
X115450871Y-126968060D01*
X115450866Y-126968064D01*
X115316690Y-127102240D01*
X115316686Y-127102245D01*
X115205162Y-127255746D01*
X115119016Y-127424813D01*
X115084127Y-127532192D01*
X115044689Y-127589867D01*
X114980330Y-127617065D01*
X114911484Y-127605150D01*
X114860008Y-127557906D01*
X114848265Y-127532192D01*
X114838827Y-127503146D01*
X114813377Y-127424818D01*
X114813375Y-127424815D01*
X114813375Y-127424813D01*
X114744223Y-127289097D01*
X114727232Y-127255750D01*
X114696746Y-127213790D01*
X114615705Y-127102245D01*
X114615701Y-127102240D01*
X114481525Y-126968064D01*
X114481520Y-126968060D01*
X114328019Y-126856536D01*
X114328018Y-126856535D01*
X114328016Y-126856534D01*
X114246959Y-126815233D01*
X114158952Y-126770390D01*
X113978485Y-126711752D01*
X113791076Y-126682070D01*
X113791071Y-126682070D01*
X113601321Y-126682070D01*
X113601316Y-126682070D01*
X113413906Y-126711752D01*
X113233439Y-126770390D01*
X113064372Y-126856536D01*
X112910871Y-126968060D01*
X112910866Y-126968064D01*
X112776690Y-127102240D01*
X112776686Y-127102245D01*
X112665162Y-127255746D01*
X112579016Y-127424813D01*
X112520378Y-127605280D01*
X112490696Y-127792689D01*
X112490696Y-127982450D01*
X112520378Y-128169859D01*
X112579016Y-128350326D01*
X112665162Y-128519393D01*
X112776686Y-128672894D01*
X112776690Y-128672899D01*
X112910866Y-128807075D01*
X112910871Y-128807079D01*
X113044763Y-128904356D01*
X113064376Y-128918606D01*
X113144470Y-128959416D01*
X113233439Y-129004749D01*
X113233441Y-129004749D01*
X113233444Y-129004751D01*
X113278400Y-129019358D01*
X113413906Y-129063387D01*
X113601316Y-129093070D01*
X113601321Y-129093070D01*
X113791076Y-129093070D01*
X113978485Y-129063387D01*
X114158948Y-129004751D01*
X114328016Y-128918606D01*
X114481527Y-128807074D01*
X114615700Y-128672901D01*
X114727232Y-128519390D01*
X114813377Y-128350322D01*
X114848265Y-128242948D01*
X114887703Y-128185272D01*
X114952061Y-128158074D01*
X115020908Y-128169989D01*
X115072383Y-128217233D01*
X115084127Y-128242948D01*
X115094795Y-128275782D01*
X115119016Y-128350324D01*
X115205162Y-128519393D01*
X115316686Y-128672894D01*
X115316690Y-128672899D01*
X115450866Y-128807075D01*
X115450871Y-128807079D01*
X115584763Y-128904356D01*
X115604376Y-128918606D01*
X115684470Y-128959416D01*
X115773439Y-129004749D01*
X115773441Y-129004749D01*
X115773444Y-129004751D01*
X115818400Y-129019358D01*
X115953906Y-129063387D01*
X116141316Y-129093070D01*
X116141321Y-129093070D01*
X116331076Y-129093070D01*
X116518485Y-129063387D01*
X116698948Y-129004751D01*
X116868016Y-128918606D01*
X117021527Y-128807074D01*
X117155700Y-128672901D01*
X117267232Y-128519390D01*
X117353377Y-128350322D01*
X117388265Y-128242948D01*
X117427703Y-128185272D01*
X117492061Y-128158074D01*
X117560908Y-128169989D01*
X117612383Y-128217233D01*
X117624127Y-128242948D01*
X117634795Y-128275782D01*
X117659016Y-128350324D01*
X117745162Y-128519393D01*
X117856686Y-128672894D01*
X117856690Y-128672899D01*
X117990866Y-128807075D01*
X117990871Y-128807079D01*
X118124763Y-128904356D01*
X118144376Y-128918606D01*
X118224470Y-128959416D01*
X118313439Y-129004749D01*
X118313441Y-129004749D01*
X118313444Y-129004751D01*
X118358400Y-129019358D01*
X118493906Y-129063387D01*
X118681316Y-129093070D01*
X118681321Y-129093070D01*
X118871076Y-129093070D01*
X119058485Y-129063387D01*
X119238948Y-129004751D01*
X119408016Y-128918606D01*
X119561527Y-128807074D01*
X119695700Y-128672901D01*
X119807232Y-128519390D01*
X119893377Y-128350322D01*
X119928265Y-128242948D01*
X119967703Y-128185272D01*
X120032061Y-128158074D01*
X120100908Y-128169989D01*
X120152383Y-128217233D01*
X120164127Y-128242948D01*
X120174795Y-128275782D01*
X120199016Y-128350324D01*
X120285162Y-128519393D01*
X120396686Y-128672894D01*
X120396690Y-128672899D01*
X120530866Y-128807075D01*
X120530871Y-128807079D01*
X120664763Y-128904356D01*
X120684376Y-128918606D01*
X120764470Y-128959416D01*
X120853439Y-129004749D01*
X120853441Y-129004749D01*
X120853444Y-129004751D01*
X120898400Y-129019358D01*
X121033906Y-129063387D01*
X121221316Y-129093070D01*
X121221321Y-129093070D01*
X121411076Y-129093070D01*
X121598485Y-129063387D01*
X121778948Y-129004751D01*
X121948016Y-128918606D01*
X122101527Y-128807074D01*
X122235700Y-128672901D01*
X122347232Y-128519390D01*
X122433377Y-128350322D01*
X122468265Y-128242948D01*
X122507703Y-128185272D01*
X122572061Y-128158074D01*
X122640908Y-128169989D01*
X122692383Y-128217233D01*
X122704127Y-128242948D01*
X122714795Y-128275782D01*
X122739016Y-128350324D01*
X122825162Y-128519393D01*
X122936686Y-128672894D01*
X122936690Y-128672899D01*
X123070866Y-128807075D01*
X123070871Y-128807079D01*
X123204763Y-128904356D01*
X123224376Y-128918606D01*
X123304470Y-128959416D01*
X123393439Y-129004749D01*
X123393441Y-129004749D01*
X123393444Y-129004751D01*
X123438400Y-129019358D01*
X123573906Y-129063387D01*
X123761316Y-129093070D01*
X123761321Y-129093070D01*
X123951076Y-129093070D01*
X124138485Y-129063387D01*
X124318948Y-129004751D01*
X124488016Y-128918606D01*
X124641527Y-128807074D01*
X124775700Y-128672901D01*
X124887232Y-128519390D01*
X124973377Y-128350322D01*
X125008265Y-128242948D01*
X125047703Y-128185272D01*
X125112061Y-128158074D01*
X125180908Y-128169989D01*
X125232383Y-128217233D01*
X125244127Y-128242948D01*
X125254795Y-128275782D01*
X125279016Y-128350324D01*
X125365162Y-128519393D01*
X125476686Y-128672894D01*
X125476690Y-128672899D01*
X125610866Y-128807075D01*
X125610871Y-128807079D01*
X125744763Y-128904356D01*
X125764376Y-128918606D01*
X125844470Y-128959416D01*
X125933439Y-129004749D01*
X125933441Y-129004749D01*
X125933444Y-129004751D01*
X125978400Y-129019358D01*
X126113906Y-129063387D01*
X126301316Y-129093070D01*
X126301321Y-129093070D01*
X126491076Y-129093070D01*
X126678485Y-129063387D01*
X126858948Y-129004751D01*
X127028016Y-128918606D01*
X127181527Y-128807074D01*
X127315700Y-128672901D01*
X127427232Y-128519390D01*
X127513377Y-128350322D01*
X127548265Y-128242948D01*
X127587703Y-128185272D01*
X127652061Y-128158074D01*
X127720908Y-128169989D01*
X127772383Y-128217233D01*
X127784127Y-128242948D01*
X127794795Y-128275782D01*
X127819016Y-128350324D01*
X127905162Y-128519393D01*
X128016686Y-128672894D01*
X128016690Y-128672899D01*
X128150866Y-128807075D01*
X128150871Y-128807079D01*
X128284763Y-128904356D01*
X128304376Y-128918606D01*
X128384470Y-128959416D01*
X128473439Y-129004749D01*
X128473441Y-129004749D01*
X128473444Y-129004751D01*
X128518400Y-129019358D01*
X128653906Y-129063387D01*
X128841316Y-129093070D01*
X128841321Y-129093070D01*
X129031076Y-129093070D01*
X129218485Y-129063387D01*
X129398948Y-129004751D01*
X129568016Y-128918606D01*
X129721527Y-128807074D01*
X129855700Y-128672901D01*
X129967232Y-128519390D01*
X130053377Y-128350322D01*
X130088265Y-128242948D01*
X130127703Y-128185272D01*
X130192061Y-128158074D01*
X130260908Y-128169989D01*
X130312383Y-128217233D01*
X130324127Y-128242948D01*
X130334795Y-128275782D01*
X130359016Y-128350324D01*
X130445162Y-128519393D01*
X130556686Y-128672894D01*
X130556690Y-128672899D01*
X130690866Y-128807075D01*
X130690871Y-128807079D01*
X130824763Y-128904356D01*
X130844376Y-128918606D01*
X130924470Y-128959416D01*
X131013439Y-129004749D01*
X131013441Y-129004749D01*
X131013444Y-129004751D01*
X131058400Y-129019358D01*
X131193906Y-129063387D01*
X131381316Y-129093070D01*
X131381321Y-129093070D01*
X131571076Y-129093070D01*
X131758485Y-129063387D01*
X131938948Y-129004751D01*
X132108016Y-128918606D01*
X132261527Y-128807074D01*
X132395700Y-128672901D01*
X132507232Y-128519390D01*
X132593377Y-128350322D01*
X132628265Y-128242948D01*
X132667703Y-128185272D01*
X132732061Y-128158074D01*
X132800908Y-128169989D01*
X132852383Y-128217233D01*
X132864127Y-128242948D01*
X132874795Y-128275782D01*
X132899016Y-128350324D01*
X132985162Y-128519393D01*
X133096686Y-128672894D01*
X133096690Y-128672899D01*
X133230866Y-128807075D01*
X133230871Y-128807079D01*
X133364763Y-128904356D01*
X133384376Y-128918606D01*
X133464470Y-128959416D01*
X133553439Y-129004749D01*
X133553441Y-129004749D01*
X133553444Y-129004751D01*
X133598400Y-129019358D01*
X133733906Y-129063387D01*
X133921316Y-129093070D01*
X133921321Y-129093070D01*
X134111076Y-129093070D01*
X134298485Y-129063387D01*
X134478948Y-129004751D01*
X134648016Y-128918606D01*
X134801527Y-128807074D01*
X134935700Y-128672901D01*
X135047232Y-128519390D01*
X135133377Y-128350322D01*
X135168265Y-128242948D01*
X135207703Y-128185272D01*
X135272061Y-128158074D01*
X135340908Y-128169989D01*
X135392383Y-128217233D01*
X135404127Y-128242948D01*
X135414795Y-128275782D01*
X135439016Y-128350324D01*
X135525162Y-128519393D01*
X135636686Y-128672894D01*
X135636690Y-128672899D01*
X135770866Y-128807075D01*
X135770871Y-128807079D01*
X135904763Y-128904356D01*
X135924376Y-128918606D01*
X136004470Y-128959416D01*
X136093439Y-129004749D01*
X136093441Y-129004749D01*
X136093444Y-129004751D01*
X136138400Y-129019358D01*
X136273906Y-129063387D01*
X136461316Y-129093070D01*
X136461321Y-129093070D01*
X136651076Y-129093070D01*
X136838485Y-129063387D01*
X137018948Y-129004751D01*
X137188016Y-128918606D01*
X137341527Y-128807074D01*
X137475700Y-128672901D01*
X137587232Y-128519390D01*
X137673377Y-128350322D01*
X137708265Y-128242948D01*
X137747703Y-128185272D01*
X137812061Y-128158074D01*
X137880908Y-128169989D01*
X137932383Y-128217233D01*
X137944127Y-128242948D01*
X137954795Y-128275782D01*
X137979016Y-128350324D01*
X138065162Y-128519393D01*
X138176686Y-128672894D01*
X138176690Y-128672899D01*
X138310866Y-128807075D01*
X138310871Y-128807079D01*
X138444763Y-128904356D01*
X138464376Y-128918606D01*
X138544470Y-128959416D01*
X138633439Y-129004749D01*
X138633441Y-129004749D01*
X138633444Y-129004751D01*
X138678400Y-129019358D01*
X138813906Y-129063387D01*
X139001316Y-129093070D01*
X139001321Y-129093070D01*
X139191076Y-129093070D01*
X139378485Y-129063387D01*
X139558948Y-129004751D01*
X139728016Y-128918606D01*
X139881527Y-128807074D01*
X140015700Y-128672901D01*
X140127232Y-128519390D01*
X140213377Y-128350322D01*
X140248265Y-128242948D01*
X140287703Y-128185272D01*
X140352061Y-128158074D01*
X140420908Y-128169989D01*
X140472383Y-128217233D01*
X140484127Y-128242948D01*
X140494795Y-128275782D01*
X140519016Y-128350324D01*
X140605162Y-128519393D01*
X140716686Y-128672894D01*
X140716690Y-128672899D01*
X140850866Y-128807075D01*
X140850871Y-128807079D01*
X140984763Y-128904356D01*
X141004376Y-128918606D01*
X141084470Y-128959416D01*
X141173439Y-129004749D01*
X141173441Y-129004749D01*
X141173444Y-129004751D01*
X141218400Y-129019358D01*
X141353906Y-129063387D01*
X141541316Y-129093070D01*
X141541321Y-129093070D01*
X141731076Y-129093070D01*
X141918485Y-129063387D01*
X142098948Y-129004751D01*
X142268016Y-128918606D01*
X142421527Y-128807074D01*
X142555700Y-128672901D01*
X142667232Y-128519390D01*
X142753377Y-128350322D01*
X142812013Y-128169859D01*
X142813880Y-128158074D01*
X142841696Y-127982450D01*
X142841696Y-127792689D01*
X145510696Y-127792689D01*
X145510696Y-127982450D01*
X145540378Y-128169859D01*
X145599016Y-128350326D01*
X145685162Y-128519393D01*
X145796686Y-128672894D01*
X145796690Y-128672899D01*
X145930866Y-128807075D01*
X145930871Y-128807079D01*
X146064763Y-128904356D01*
X146084376Y-128918606D01*
X146164470Y-128959416D01*
X146253439Y-129004749D01*
X146253441Y-129004749D01*
X146253444Y-129004751D01*
X146298400Y-129019358D01*
X146433906Y-129063387D01*
X146621316Y-129093070D01*
X146621321Y-129093070D01*
X146811076Y-129093070D01*
X146998485Y-129063387D01*
X147178948Y-129004751D01*
X147348016Y-128918606D01*
X147501527Y-128807074D01*
X147635700Y-128672901D01*
X147747232Y-128519390D01*
X147833377Y-128350322D01*
X147868265Y-128242948D01*
X147907703Y-128185272D01*
X147972061Y-128158074D01*
X148040908Y-128169989D01*
X148092383Y-128217233D01*
X148104127Y-128242948D01*
X148114795Y-128275782D01*
X148139016Y-128350324D01*
X148225162Y-128519393D01*
X148336686Y-128672894D01*
X148336690Y-128672899D01*
X148470866Y-128807075D01*
X148470871Y-128807079D01*
X148604763Y-128904356D01*
X148624376Y-128918606D01*
X148704470Y-128959416D01*
X148793439Y-129004749D01*
X148793441Y-129004749D01*
X148793444Y-129004751D01*
X148838400Y-129019358D01*
X148973906Y-129063387D01*
X149161316Y-129093070D01*
X149161321Y-129093070D01*
X149351076Y-129093070D01*
X149538485Y-129063387D01*
X149718948Y-129004751D01*
X149888016Y-128918606D01*
X150041527Y-128807074D01*
X150175700Y-128672901D01*
X150287232Y-128519390D01*
X150373377Y-128350322D01*
X150408265Y-128242948D01*
X150447703Y-128185272D01*
X150512061Y-128158074D01*
X150580908Y-128169989D01*
X150632383Y-128217233D01*
X150644127Y-128242948D01*
X150654795Y-128275782D01*
X150679016Y-128350324D01*
X150765162Y-128519393D01*
X150876686Y-128672894D01*
X150876690Y-128672899D01*
X151010866Y-128807075D01*
X151010871Y-128807079D01*
X151144763Y-128904356D01*
X151164376Y-128918606D01*
X151244470Y-128959416D01*
X151333439Y-129004749D01*
X151333441Y-129004749D01*
X151333444Y-129004751D01*
X151378400Y-129019358D01*
X151513906Y-129063387D01*
X151701316Y-129093070D01*
X151701321Y-129093070D01*
X151891076Y-129093070D01*
X152078485Y-129063387D01*
X152258948Y-129004751D01*
X152428016Y-128918606D01*
X152581527Y-128807074D01*
X152715700Y-128672901D01*
X152827232Y-128519390D01*
X152913377Y-128350322D01*
X152972013Y-128169859D01*
X152973880Y-128158074D01*
X153001696Y-127982450D01*
X153001696Y-127792689D01*
X152972013Y-127605280D01*
X152938827Y-127503146D01*
X152913377Y-127424818D01*
X152913375Y-127424815D01*
X152913375Y-127424813D01*
X152844223Y-127289097D01*
X152827232Y-127255750D01*
X152796746Y-127213790D01*
X152715705Y-127102245D01*
X152715701Y-127102240D01*
X152581525Y-126968064D01*
X152581520Y-126968060D01*
X152428019Y-126856536D01*
X152428018Y-126856535D01*
X152428016Y-126856534D01*
X152346959Y-126815233D01*
X152258952Y-126770390D01*
X152078485Y-126711752D01*
X151891076Y-126682070D01*
X151891071Y-126682070D01*
X151701321Y-126682070D01*
X151701316Y-126682070D01*
X151513906Y-126711752D01*
X151333439Y-126770390D01*
X151164372Y-126856536D01*
X151010871Y-126968060D01*
X151010866Y-126968064D01*
X150876690Y-127102240D01*
X150876686Y-127102245D01*
X150765162Y-127255746D01*
X150679016Y-127424813D01*
X150644127Y-127532192D01*
X150604689Y-127589867D01*
X150540330Y-127617065D01*
X150471484Y-127605150D01*
X150420008Y-127557906D01*
X150408265Y-127532192D01*
X150398827Y-127503146D01*
X150373377Y-127424818D01*
X150373375Y-127424815D01*
X150373375Y-127424813D01*
X150304223Y-127289097D01*
X150287232Y-127255750D01*
X150256746Y-127213790D01*
X150175705Y-127102245D01*
X150175701Y-127102240D01*
X150041525Y-126968064D01*
X150041520Y-126968060D01*
X149888019Y-126856536D01*
X149888018Y-126856535D01*
X149888016Y-126856534D01*
X149806959Y-126815233D01*
X149718952Y-126770390D01*
X149538485Y-126711752D01*
X149351076Y-126682070D01*
X149351071Y-126682070D01*
X149161321Y-126682070D01*
X149161316Y-126682070D01*
X148973906Y-126711752D01*
X148793439Y-126770390D01*
X148624372Y-126856536D01*
X148470871Y-126968060D01*
X148470866Y-126968064D01*
X148336690Y-127102240D01*
X148336686Y-127102245D01*
X148225162Y-127255746D01*
X148139016Y-127424813D01*
X148104127Y-127532192D01*
X148064689Y-127589867D01*
X148000330Y-127617065D01*
X147931484Y-127605150D01*
X147880008Y-127557906D01*
X147868265Y-127532192D01*
X147858827Y-127503146D01*
X147833377Y-127424818D01*
X147833375Y-127424815D01*
X147833375Y-127424813D01*
X147764223Y-127289097D01*
X147747232Y-127255750D01*
X147716746Y-127213790D01*
X147635705Y-127102245D01*
X147635701Y-127102240D01*
X147501525Y-126968064D01*
X147501520Y-126968060D01*
X147348019Y-126856536D01*
X147348018Y-126856535D01*
X147348016Y-126856534D01*
X147266959Y-126815233D01*
X147178952Y-126770390D01*
X146998485Y-126711752D01*
X146811076Y-126682070D01*
X146811071Y-126682070D01*
X146621321Y-126682070D01*
X146621316Y-126682070D01*
X146433906Y-126711752D01*
X146253439Y-126770390D01*
X146084372Y-126856536D01*
X145930871Y-126968060D01*
X145930866Y-126968064D01*
X145796690Y-127102240D01*
X145796686Y-127102245D01*
X145685162Y-127255746D01*
X145599016Y-127424813D01*
X145540378Y-127605280D01*
X145510696Y-127792689D01*
X142841696Y-127792689D01*
X142812013Y-127605280D01*
X142778827Y-127503146D01*
X142753377Y-127424818D01*
X142753375Y-127424815D01*
X142753375Y-127424813D01*
X142684223Y-127289097D01*
X142667232Y-127255750D01*
X142636746Y-127213790D01*
X142555705Y-127102245D01*
X142555701Y-127102240D01*
X142421525Y-126968064D01*
X142421520Y-126968060D01*
X142268019Y-126856536D01*
X142268018Y-126856535D01*
X142268016Y-126856534D01*
X142186959Y-126815233D01*
X142098952Y-126770390D01*
X141918485Y-126711752D01*
X141731076Y-126682070D01*
X141731071Y-126682070D01*
X141541321Y-126682070D01*
X141541316Y-126682070D01*
X141353906Y-126711752D01*
X141173439Y-126770390D01*
X141004372Y-126856536D01*
X140850871Y-126968060D01*
X140850866Y-126968064D01*
X140716690Y-127102240D01*
X140716686Y-127102245D01*
X140605162Y-127255746D01*
X140519016Y-127424813D01*
X140484127Y-127532192D01*
X140444689Y-127589867D01*
X140380330Y-127617065D01*
X140311484Y-127605150D01*
X140260008Y-127557906D01*
X140248265Y-127532192D01*
X140238827Y-127503146D01*
X140213377Y-127424818D01*
X140213375Y-127424815D01*
X140213375Y-127424813D01*
X140179212Y-127357766D01*
X140166316Y-127289097D01*
X140192592Y-127224357D01*
X140202007Y-127213799D01*
X142426419Y-124989389D01*
X142487742Y-124955904D01*
X142514100Y-124953070D01*
X154638292Y-124953070D01*
X154705331Y-124972755D01*
X154725973Y-124989389D01*
X170711735Y-140975151D01*
X170768615Y-141032031D01*
X170797630Y-141048783D01*
X170838271Y-141072248D01*
X170838273Y-141072249D01*
X170838274Y-141072249D01*
X170838277Y-141072251D01*
X170915976Y-141093070D01*
X172975976Y-141093070D01*
X175150670Y-141093070D01*
X175217709Y-141112755D01*
X175263464Y-141165559D01*
X175265231Y-141169617D01*
X175296807Y-141245850D01*
X175296812Y-141245859D01*
X175402689Y-141404314D01*
X175402692Y-141404318D01*
X175537447Y-141539073D01*
X175537451Y-141539076D01*
X175695906Y-141644953D01*
X175695919Y-141644960D01*
X175814584Y-141694112D01*
X175871987Y-141717889D01*
X175871991Y-141717889D01*
X175871992Y-141717890D01*
X176058903Y-141755070D01*
X176058906Y-141755070D01*
X177773488Y-141755070D01*
X177899238Y-141730055D01*
X177960405Y-141717889D01*
X178136479Y-141644957D01*
X178294941Y-141539076D01*
X178429702Y-141404315D01*
X178535583Y-141245853D01*
X178535586Y-141245846D01*
X178586919Y-141121917D01*
X178630760Y-141067513D01*
X178669384Y-141049595D01*
X178734115Y-141032251D01*
X178803777Y-140992031D01*
X181060657Y-138735151D01*
X181077569Y-138705859D01*
X181079175Y-138703078D01*
X181100876Y-138665490D01*
X181100877Y-138665489D01*
X181121696Y-138587790D01*
X181121696Y-134377999D01*
X181141381Y-134310960D01*
X181158015Y-134290318D01*
X181448944Y-133999389D01*
X181510267Y-133965904D01*
X181536625Y-133963070D01*
X183292196Y-133963070D01*
X183359235Y-133982755D01*
X183404990Y-134035559D01*
X183416196Y-134087070D01*
X183416196Y-135647570D01*
X195892196Y-135647570D01*
X195959235Y-135667255D01*
X196004990Y-135720059D01*
X196016196Y-135771570D01*
X196016196Y-137123570D01*
X195996511Y-137190609D01*
X195943707Y-137236364D01*
X195892196Y-137247570D01*
X186416196Y-137247570D01*
X186416196Y-145618070D01*
X186396511Y-145685109D01*
X186343707Y-145730864D01*
X186292196Y-145742070D01*
X181194100Y-145742070D01*
X181127061Y-145722385D01*
X181106419Y-145705751D01*
X178675459Y-143274791D01*
X178641974Y-143213468D01*
X178641523Y-143211301D01*
X178619868Y-143102437D01*
X178608515Y-143045361D01*
X178582134Y-142981671D01*
X178535586Y-142869293D01*
X178535579Y-142869280D01*
X178429702Y-142710825D01*
X178429699Y-142710821D01*
X178294944Y-142576066D01*
X178294940Y-142576063D01*
X178136485Y-142470186D01*
X178136472Y-142470179D01*
X177960409Y-142397252D01*
X177960399Y-142397249D01*
X177773488Y-142360070D01*
X177773486Y-142360070D01*
X176058906Y-142360070D01*
X176058904Y-142360070D01*
X175871992Y-142397249D01*
X175871982Y-142397252D01*
X175695919Y-142470179D01*
X175695906Y-142470186D01*
X175537451Y-142576063D01*
X175537447Y-142576066D01*
X175402692Y-142710821D01*
X175402689Y-142710825D01*
X175296812Y-142869280D01*
X175296805Y-142869293D01*
X175223878Y-143045356D01*
X175223875Y-143045366D01*
X175186696Y-143232277D01*
X175186696Y-143232280D01*
X175186696Y-143422860D01*
X175186696Y-143422862D01*
X175186695Y-143422862D01*
X175223875Y-143609773D01*
X175223878Y-143609783D01*
X175296805Y-143785846D01*
X175296812Y-143785859D01*
X175402689Y-143944314D01*
X175402692Y-143944318D01*
X175537447Y-144079073D01*
X175537451Y-144079076D01*
X175695906Y-144184953D01*
X175695919Y-144184960D01*
X175838050Y-144243832D01*
X175871987Y-144257889D01*
X175871991Y-144257889D01*
X175871992Y-144257890D01*
X176058903Y-144295070D01*
X176058906Y-144295070D01*
X177773488Y-144295070D01*
X177899238Y-144270055D01*
X177960405Y-144257889D01*
X178136479Y-144184957D01*
X178294941Y-144079076D01*
X178367620Y-144006396D01*
X178428940Y-143972912D01*
X178498632Y-143977896D01*
X178542981Y-144006397D01*
X180771735Y-146235151D01*
X180828615Y-146292031D01*
X180829464Y-146292521D01*
X180898271Y-146332248D01*
X180898273Y-146332249D01*
X180898274Y-146332249D01*
X180898277Y-146332251D01*
X180975976Y-146353070D01*
X180975978Y-146353070D01*
X186292196Y-146353070D01*
X186359235Y-146372755D01*
X186404990Y-146425559D01*
X186416196Y-146477070D01*
X186416196Y-147947570D01*
X198392196Y-147947570D01*
X198459235Y-147967255D01*
X198504990Y-148020059D01*
X198516196Y-148071570D01*
X198516196Y-151247570D01*
X212916196Y-151247570D01*
X212916196Y-148070457D01*
X212935881Y-148003418D01*
X212988685Y-147957663D01*
X213039074Y-147946462D01*
X223857082Y-147849002D01*
X223924293Y-147868082D01*
X223970522Y-147920471D01*
X223982196Y-147972997D01*
X223982196Y-153898070D01*
X223962511Y-153965109D01*
X223909707Y-154010864D01*
X223858196Y-154022070D01*
X101074196Y-154022070D01*
X101007157Y-154002385D01*
X100961402Y-153949581D01*
X100950196Y-153898070D01*
X100950196Y-151766162D01*
X102389696Y-151766162D01*
X102389696Y-151928977D01*
X102421455Y-152088643D01*
X102421458Y-152088652D01*
X102483758Y-152239060D01*
X102483759Y-152239062D01*
X102574211Y-152374432D01*
X102574214Y-152374436D01*
X102689329Y-152489551D01*
X102689333Y-152489554D01*
X102824701Y-152580005D01*
X102824702Y-152580005D01*
X102824703Y-152580006D01*
X102824705Y-152580007D01*
X102880383Y-152603069D01*
X102975115Y-152642308D01*
X102975117Y-152642308D01*
X102975122Y-152642310D01*
X103134788Y-152674069D01*
X103134791Y-152674070D01*
X103134793Y-152674070D01*
X103297601Y-152674070D01*
X103297602Y-152674069D01*
X103350825Y-152663482D01*
X103457269Y-152642310D01*
X103457272Y-152642308D01*
X103457277Y-152642308D01*
X103607691Y-152580005D01*
X103743059Y-152489554D01*
X103858180Y-152374433D01*
X103948631Y-152239065D01*
X104010934Y-152088651D01*
X104042696Y-151928973D01*
X104042696Y-151766167D01*
X104042696Y-151766164D01*
X104042695Y-151766162D01*
X104010936Y-151606496D01*
X104010933Y-151606487D01*
X103948633Y-151456079D01*
X103948632Y-151456077D01*
X103879804Y-151353070D01*
X103858180Y-151320707D01*
X103858177Y-151320703D01*
X103743062Y-151205588D01*
X103743058Y-151205585D01*
X103607688Y-151115133D01*
X103607686Y-151115132D01*
X103457278Y-151052832D01*
X103457269Y-151052829D01*
X103297602Y-151021070D01*
X103297599Y-151021070D01*
X103134793Y-151021070D01*
X103134790Y-151021070D01*
X102975122Y-151052829D01*
X102975113Y-151052832D01*
X102824705Y-151115132D01*
X102824703Y-151115133D01*
X102689333Y-151205585D01*
X102689329Y-151205588D01*
X102574214Y-151320703D01*
X102574211Y-151320707D01*
X102483759Y-151456077D01*
X102483758Y-151456079D01*
X102421458Y-151606487D01*
X102421455Y-151606496D01*
X102389696Y-151766162D01*
X100950196Y-151766162D01*
X100950196Y-132407350D01*
X104210696Y-132407350D01*
X104210696Y-135087789D01*
X104231516Y-135165492D01*
X104231517Y-135165494D01*
X104264364Y-135222385D01*
X104271735Y-135235151D01*
X105571735Y-136535151D01*
X105628615Y-136592031D01*
X105663446Y-136612141D01*
X105698271Y-136632248D01*
X105698273Y-136632249D01*
X105698274Y-136632249D01*
X105698277Y-136632251D01*
X105775976Y-136653070D01*
X105856416Y-136653070D01*
X109238292Y-136653070D01*
X109305331Y-136672755D01*
X109325973Y-136689389D01*
X113354377Y-140717793D01*
X113387862Y-140779116D01*
X113390696Y-140805474D01*
X113390696Y-146949203D01*
X113371011Y-147016242D01*
X113318207Y-147061997D01*
X113305017Y-147067133D01*
X113233444Y-147090389D01*
X113086124Y-147165453D01*
X113064372Y-147176536D01*
X112910871Y-147288060D01*
X112910866Y-147288064D01*
X112776690Y-147422240D01*
X112776686Y-147422245D01*
X112713154Y-147509690D01*
X112698349Y-147521105D01*
X112687146Y-147536072D01*
X112671255Y-147541999D01*
X112657824Y-147552356D01*
X112639198Y-147553955D01*
X112621682Y-147560489D01*
X112605108Y-147556883D01*
X112588211Y-147558335D01*
X112571677Y-147549611D01*
X112553409Y-147545637D01*
X112527769Y-147526443D01*
X112526416Y-147525729D01*
X112525155Y-147524486D01*
X112358015Y-147357346D01*
X112324530Y-147296023D01*
X112321696Y-147269665D01*
X112321696Y-145707352D01*
X112321696Y-145707350D01*
X112300877Y-145629651D01*
X112260657Y-145559989D01*
X112203777Y-145503109D01*
X111253777Y-144553109D01*
X111250655Y-144551306D01*
X111184120Y-144512891D01*
X111184118Y-144512890D01*
X111184115Y-144512889D01*
X111106416Y-144492070D01*
X111106412Y-144492069D01*
X111101278Y-144491393D01*
X111037384Y-144463121D01*
X111000432Y-144409411D01*
X110973459Y-144332325D01*
X110891921Y-144221845D01*
X110781441Y-144140307D01*
X110781439Y-144140306D01*
X110651836Y-144094955D01*
X110621064Y-144092070D01*
X110621060Y-144092070D01*
X107511332Y-144092070D01*
X107511328Y-144092070D01*
X107480556Y-144094955D01*
X107480554Y-144094955D01*
X107350952Y-144140306D01*
X107240471Y-144221845D01*
X107158932Y-144332326D01*
X107113581Y-144461928D01*
X107113581Y-144461930D01*
X107110696Y-144492702D01*
X107110696Y-145102437D01*
X107113581Y-145133209D01*
X107113581Y-145133211D01*
X107158932Y-145262813D01*
X107158933Y-145262815D01*
X107240471Y-145373295D01*
X107350951Y-145454833D01*
X107394153Y-145469950D01*
X107480555Y-145500184D01*
X107511328Y-145503070D01*
X107511332Y-145503070D01*
X110621064Y-145503070D01*
X110651835Y-145500184D01*
X110651837Y-145500184D01*
X110716638Y-145477508D01*
X110781441Y-145454833D01*
X110891921Y-145373295D01*
X110941375Y-145306287D01*
X110997021Y-145264038D01*
X111066678Y-145258579D01*
X111128227Y-145291647D01*
X111128825Y-145292241D01*
X111674377Y-145837793D01*
X111707862Y-145899116D01*
X111710696Y-145925474D01*
X111710696Y-147407350D01*
X111710696Y-147487790D01*
X111723633Y-147536072D01*
X111731516Y-147565492D01*
X111731517Y-147565494D01*
X111756692Y-147609097D01*
X111771735Y-147635151D01*
X111771737Y-147635153D01*
X112471929Y-148335346D01*
X112505414Y-148396669D01*
X112506721Y-148403629D01*
X112520378Y-148489859D01*
X112579016Y-148670326D01*
X112638259Y-148786594D01*
X112662002Y-148833193D01*
X112665162Y-148839393D01*
X112776686Y-148992894D01*
X112776690Y-148992899D01*
X112910866Y-149127075D01*
X112910871Y-149127079D01*
X112966647Y-149167602D01*
X113064376Y-149238606D01*
X113160410Y-149287538D01*
X113233439Y-149324749D01*
X113233441Y-149324749D01*
X113233444Y-149324751D01*
X113330176Y-149356181D01*
X113413906Y-149383387D01*
X113601316Y-149413070D01*
X113601321Y-149413070D01*
X113791076Y-149413070D01*
X113978485Y-149383387D01*
X114012844Y-149372223D01*
X114158948Y-149324751D01*
X114328016Y-149238606D01*
X114481527Y-149127074D01*
X114615700Y-148992901D01*
X114727232Y-148839390D01*
X114813377Y-148670322D01*
X114848265Y-148562948D01*
X114887703Y-148505272D01*
X114952061Y-148478074D01*
X115020908Y-148489989D01*
X115072383Y-148537233D01*
X115084127Y-148562948D01*
X115119015Y-148670322D01*
X115202002Y-148833193D01*
X115205162Y-148839393D01*
X115316686Y-148992894D01*
X115316690Y-148992899D01*
X115450866Y-149127075D01*
X115450871Y-149127079D01*
X115506647Y-149167602D01*
X115604376Y-149238606D01*
X115773444Y-149324751D01*
X115845014Y-149348005D01*
X115865415Y-149361954D01*
X115887899Y-149372223D01*
X115893752Y-149381331D01*
X115902688Y-149387441D01*
X115912309Y-149410207D01*
X115925673Y-149431001D01*
X115928031Y-149447407D01*
X115929888Y-149451799D01*
X115930696Y-149465936D01*
X115930696Y-149649666D01*
X115911011Y-149716705D01*
X115894377Y-149737347D01*
X114925973Y-150705751D01*
X114864650Y-150739236D01*
X114838292Y-150742070D01*
X110194100Y-150742070D01*
X110127061Y-150722385D01*
X110106419Y-150705751D01*
X109408015Y-150007347D01*
X109374530Y-149946024D01*
X109371696Y-149919666D01*
X109371696Y-147627070D01*
X109391381Y-147560031D01*
X109444185Y-147514276D01*
X109495696Y-147503070D01*
X110621064Y-147503070D01*
X110651835Y-147500184D01*
X110651837Y-147500184D01*
X110716638Y-147477508D01*
X110781441Y-147454833D01*
X110891921Y-147373295D01*
X110973459Y-147262815D01*
X111003650Y-147176534D01*
X111018810Y-147133211D01*
X111018810Y-147133209D01*
X111021696Y-147102437D01*
X111021696Y-146492702D01*
X111018810Y-146461930D01*
X111018810Y-146461928D01*
X110980718Y-146353070D01*
X110973459Y-146332325D01*
X110891921Y-146221845D01*
X110781441Y-146140307D01*
X110781439Y-146140306D01*
X110651836Y-146094955D01*
X110621064Y-146092070D01*
X110621060Y-146092070D01*
X107511332Y-146092070D01*
X107511328Y-146092070D01*
X107480556Y-146094955D01*
X107480554Y-146094955D01*
X107350952Y-146140306D01*
X107240471Y-146221845D01*
X107158932Y-146332326D01*
X107113581Y-146461928D01*
X107113581Y-146461930D01*
X107110696Y-146492702D01*
X107110696Y-147102437D01*
X107113581Y-147133209D01*
X107113581Y-147133211D01*
X107158932Y-147262813D01*
X107158933Y-147262815D01*
X107240471Y-147373295D01*
X107350951Y-147454833D01*
X107394153Y-147469950D01*
X107480555Y-147500184D01*
X107511328Y-147503070D01*
X107511332Y-147503070D01*
X108636696Y-147503070D01*
X108703735Y-147522755D01*
X108749490Y-147575559D01*
X108760696Y-147627070D01*
X108760696Y-150057350D01*
X108760696Y-150137790D01*
X108781515Y-150215489D01*
X108781516Y-150215492D01*
X108781517Y-150215494D01*
X108790563Y-150231161D01*
X108821735Y-150285151D01*
X109771735Y-151235151D01*
X109828615Y-151292031D01*
X109863446Y-151312141D01*
X109898271Y-151332248D01*
X109898273Y-151332249D01*
X109898274Y-151332249D01*
X109898277Y-151332251D01*
X109975976Y-151353070D01*
X109975978Y-151353070D01*
X115056414Y-151353070D01*
X115056416Y-151353070D01*
X115134115Y-151332251D01*
X115203777Y-151292031D01*
X116480657Y-150015151D01*
X116520878Y-149945488D01*
X116541696Y-149867790D01*
X116541696Y-149787349D01*
X116541696Y-149465936D01*
X116561381Y-149398897D01*
X116614185Y-149353142D01*
X116627368Y-149348008D01*
X116698948Y-149324751D01*
X116868016Y-149238606D01*
X117021527Y-149127074D01*
X117155700Y-148992901D01*
X117267232Y-148839390D01*
X117353377Y-148670322D01*
X117388265Y-148562948D01*
X117427703Y-148505272D01*
X117492061Y-148478074D01*
X117560908Y-148489989D01*
X117612383Y-148537233D01*
X117624127Y-148562948D01*
X117659015Y-148670322D01*
X117742002Y-148833193D01*
X117745162Y-148839393D01*
X117856686Y-148992894D01*
X117856690Y-148992899D01*
X117990866Y-149127075D01*
X117990871Y-149127079D01*
X118046647Y-149167602D01*
X118144376Y-149238606D01*
X118240410Y-149287538D01*
X118313439Y-149324749D01*
X118313441Y-149324749D01*
X118313444Y-149324751D01*
X118410176Y-149356181D01*
X118493906Y-149383387D01*
X118681316Y-149413070D01*
X118681321Y-149413070D01*
X118871076Y-149413070D01*
X119058485Y-149383387D01*
X119092844Y-149372223D01*
X119238948Y-149324751D01*
X119408016Y-149238606D01*
X119561527Y-149127074D01*
X119695700Y-148992901D01*
X119807232Y-148839390D01*
X119893377Y-148670322D01*
X119928265Y-148562948D01*
X119967703Y-148505272D01*
X120032061Y-148478074D01*
X120100908Y-148489989D01*
X120152383Y-148537233D01*
X120164127Y-148562948D01*
X120199015Y-148670322D01*
X120282002Y-148833193D01*
X120285162Y-148839393D01*
X120396686Y-148992894D01*
X120396690Y-148992899D01*
X120530866Y-149127075D01*
X120530871Y-149127079D01*
X120586647Y-149167602D01*
X120684376Y-149238606D01*
X120780410Y-149287538D01*
X120853439Y-149324749D01*
X120853441Y-149324749D01*
X120853444Y-149324751D01*
X120950176Y-149356181D01*
X121033906Y-149383387D01*
X121221316Y-149413070D01*
X121221321Y-149413070D01*
X121411076Y-149413070D01*
X121598485Y-149383387D01*
X121632844Y-149372223D01*
X121778948Y-149324751D01*
X121948016Y-149238606D01*
X122101527Y-149127074D01*
X122235700Y-148992901D01*
X122347232Y-148839390D01*
X122433377Y-148670322D01*
X122468265Y-148562948D01*
X122507703Y-148505272D01*
X122572061Y-148478074D01*
X122640908Y-148489989D01*
X122692383Y-148537233D01*
X122704127Y-148562948D01*
X122739015Y-148670322D01*
X122822002Y-148833193D01*
X122825162Y-148839393D01*
X122936686Y-148992894D01*
X122936690Y-148992899D01*
X123070866Y-149127075D01*
X123070871Y-149127079D01*
X123126647Y-149167602D01*
X123224376Y-149238606D01*
X123320410Y-149287538D01*
X123393439Y-149324749D01*
X123393441Y-149324749D01*
X123393444Y-149324751D01*
X123490176Y-149356181D01*
X123573906Y-149383387D01*
X123761316Y-149413070D01*
X123761321Y-149413070D01*
X123951076Y-149413070D01*
X124138485Y-149383387D01*
X124172844Y-149372223D01*
X124318948Y-149324751D01*
X124488016Y-149238606D01*
X124641527Y-149127074D01*
X124775700Y-148992901D01*
X124887232Y-148839390D01*
X124973377Y-148670322D01*
X125008265Y-148562948D01*
X125047703Y-148505272D01*
X125112061Y-148478074D01*
X125180908Y-148489989D01*
X125232383Y-148537233D01*
X125244127Y-148562948D01*
X125279015Y-148670322D01*
X125362002Y-148833193D01*
X125365162Y-148839393D01*
X125476686Y-148992894D01*
X125476690Y-148992899D01*
X125610866Y-149127075D01*
X125610871Y-149127079D01*
X125666647Y-149167602D01*
X125764376Y-149238606D01*
X125860410Y-149287538D01*
X125933439Y-149324749D01*
X125933441Y-149324749D01*
X125933444Y-149324751D01*
X126030176Y-149356181D01*
X126113906Y-149383387D01*
X126301316Y-149413070D01*
X126301321Y-149413070D01*
X126491076Y-149413070D01*
X126678485Y-149383387D01*
X126712844Y-149372223D01*
X126858948Y-149324751D01*
X127028016Y-149238606D01*
X127181527Y-149127074D01*
X127315700Y-148992901D01*
X127427232Y-148839390D01*
X127513377Y-148670322D01*
X127548265Y-148562948D01*
X127587703Y-148505272D01*
X127652061Y-148478074D01*
X127720908Y-148489989D01*
X127772383Y-148537233D01*
X127784127Y-148562948D01*
X127819015Y-148670322D01*
X127902002Y-148833193D01*
X127905162Y-148839393D01*
X128016686Y-148992894D01*
X128016690Y-148992899D01*
X128150866Y-149127075D01*
X128150871Y-149127079D01*
X128206647Y-149167602D01*
X128304376Y-149238606D01*
X128400410Y-149287538D01*
X128473439Y-149324749D01*
X128473441Y-149324749D01*
X128473444Y-149324751D01*
X128570176Y-149356181D01*
X128653906Y-149383387D01*
X128841316Y-149413070D01*
X128841321Y-149413070D01*
X129031076Y-149413070D01*
X129218485Y-149383387D01*
X129252844Y-149372223D01*
X129398948Y-149324751D01*
X129568016Y-149238606D01*
X129721527Y-149127074D01*
X129855700Y-148992901D01*
X129967232Y-148839390D01*
X130053377Y-148670322D01*
X130088265Y-148562948D01*
X130127703Y-148505272D01*
X130192061Y-148478074D01*
X130260908Y-148489989D01*
X130312383Y-148537233D01*
X130324127Y-148562948D01*
X130359015Y-148670322D01*
X130442002Y-148833193D01*
X130445162Y-148839393D01*
X130556686Y-148992894D01*
X130556690Y-148992899D01*
X130690866Y-149127075D01*
X130690871Y-149127079D01*
X130746647Y-149167602D01*
X130844376Y-149238606D01*
X130940410Y-149287538D01*
X131013439Y-149324749D01*
X131013441Y-149324749D01*
X131013444Y-149324751D01*
X131110176Y-149356181D01*
X131193906Y-149383387D01*
X131381316Y-149413070D01*
X131381321Y-149413070D01*
X131571076Y-149413070D01*
X131758485Y-149383387D01*
X131792844Y-149372223D01*
X131938948Y-149324751D01*
X132108016Y-149238606D01*
X132261527Y-149127074D01*
X132395700Y-148992901D01*
X132507232Y-148839390D01*
X132593377Y-148670322D01*
X132628265Y-148562948D01*
X132667703Y-148505272D01*
X132732061Y-148478074D01*
X132800908Y-148489989D01*
X132852383Y-148537233D01*
X132864127Y-148562948D01*
X132899015Y-148670322D01*
X132982002Y-148833193D01*
X132985162Y-148839393D01*
X133096686Y-148992894D01*
X133096690Y-148992899D01*
X133230866Y-149127075D01*
X133230871Y-149127079D01*
X133286647Y-149167602D01*
X133384376Y-149238606D01*
X133480410Y-149287538D01*
X133553439Y-149324749D01*
X133553441Y-149324749D01*
X133553444Y-149324751D01*
X133650176Y-149356181D01*
X133733906Y-149383387D01*
X133921316Y-149413070D01*
X133921321Y-149413070D01*
X134111076Y-149413070D01*
X134298485Y-149383387D01*
X134332844Y-149372223D01*
X134478948Y-149324751D01*
X134648016Y-149238606D01*
X134801527Y-149127074D01*
X134935700Y-148992901D01*
X135047232Y-148839390D01*
X135133377Y-148670322D01*
X135168265Y-148562948D01*
X135207703Y-148505272D01*
X135272061Y-148478074D01*
X135340908Y-148489989D01*
X135392383Y-148537233D01*
X135404127Y-148562948D01*
X135439015Y-148670322D01*
X135522002Y-148833193D01*
X135525162Y-148839393D01*
X135636686Y-148992894D01*
X135636690Y-148992899D01*
X135770866Y-149127075D01*
X135770871Y-149127079D01*
X135826647Y-149167602D01*
X135924376Y-149238606D01*
X136032992Y-149293949D01*
X136083787Y-149341923D01*
X136100696Y-149404433D01*
X136100696Y-150767533D01*
X136081011Y-150834572D01*
X136064377Y-150855214D01*
X135263841Y-151655751D01*
X135202518Y-151689236D01*
X135176160Y-151692070D01*
X109056233Y-151692070D01*
X108989194Y-151672385D01*
X108968552Y-151655751D01*
X106708015Y-149395214D01*
X106674530Y-149333891D01*
X106671696Y-149307533D01*
X106671696Y-143887605D01*
X106691381Y-143820566D01*
X106708011Y-143799928D01*
X107104128Y-143403810D01*
X107165449Y-143370327D01*
X107235140Y-143375311D01*
X107265437Y-143391721D01*
X107350951Y-143454833D01*
X107388037Y-143467810D01*
X107480555Y-143500184D01*
X107511328Y-143503070D01*
X107511332Y-143503070D01*
X110621064Y-143503070D01*
X110651835Y-143500184D01*
X110651837Y-143500184D01*
X110733092Y-143471751D01*
X110781441Y-143454833D01*
X110891921Y-143373295D01*
X110973459Y-143262815D01*
X110996134Y-143198012D01*
X111018810Y-143133211D01*
X111018810Y-143133209D01*
X111021696Y-143102437D01*
X111021696Y-142492702D01*
X111018810Y-142461930D01*
X111018810Y-142461928D01*
X110973459Y-142332326D01*
X110973459Y-142332325D01*
X110891921Y-142221845D01*
X110781441Y-142140307D01*
X110781439Y-142140306D01*
X110651836Y-142094955D01*
X110621064Y-142092070D01*
X110621060Y-142092070D01*
X107511332Y-142092070D01*
X107511328Y-142092070D01*
X107480556Y-142094955D01*
X107480554Y-142094955D01*
X107350952Y-142140306D01*
X107240471Y-142221845D01*
X107188913Y-142291704D01*
X107133265Y-142333954D01*
X107089143Y-142342070D01*
X107006228Y-142342070D01*
X106928996Y-142362764D01*
X106890379Y-142373112D01*
X106786514Y-142433078D01*
X106786511Y-142433080D01*
X105851706Y-143367885D01*
X105851704Y-143367888D01*
X105806903Y-143445488D01*
X105806902Y-143445489D01*
X105791739Y-143471751D01*
X105791738Y-143471752D01*
X105760696Y-143587603D01*
X105760696Y-149607537D01*
X105780934Y-149683069D01*
X105791735Y-149723379D01*
X105791738Y-149723386D01*
X105851705Y-149827253D01*
X108536512Y-152512061D01*
X108536513Y-152512062D01*
X108536515Y-152512063D01*
X108640374Y-152572026D01*
X108640376Y-152572026D01*
X108640379Y-152572028D01*
X108664861Y-152578587D01*
X108756228Y-152603070D01*
X108756229Y-152603070D01*
X135476162Y-152603070D01*
X135476164Y-152603070D01*
X135592012Y-152572028D01*
X135695879Y-152512061D01*
X136441779Y-151766162D01*
X221589696Y-151766162D01*
X221589696Y-151928977D01*
X221621455Y-152088643D01*
X221621458Y-152088652D01*
X221683758Y-152239060D01*
X221683759Y-152239062D01*
X221774211Y-152374432D01*
X221774214Y-152374436D01*
X221889329Y-152489551D01*
X221889333Y-152489554D01*
X222024701Y-152580005D01*
X222024702Y-152580005D01*
X222024703Y-152580006D01*
X222024705Y-152580007D01*
X222080383Y-152603069D01*
X222175115Y-152642308D01*
X222175117Y-152642308D01*
X222175122Y-152642310D01*
X222334788Y-152674069D01*
X222334791Y-152674070D01*
X222334793Y-152674070D01*
X222497601Y-152674070D01*
X222497602Y-152674069D01*
X222550825Y-152663482D01*
X222657269Y-152642310D01*
X222657272Y-152642308D01*
X222657277Y-152642308D01*
X222807691Y-152580005D01*
X222943059Y-152489554D01*
X223058180Y-152374433D01*
X223148631Y-152239065D01*
X223210934Y-152088651D01*
X223242696Y-151928973D01*
X223242696Y-151766167D01*
X223242696Y-151766164D01*
X223242695Y-151766162D01*
X223210936Y-151606496D01*
X223210933Y-151606487D01*
X223148633Y-151456079D01*
X223148632Y-151456077D01*
X223079804Y-151353070D01*
X223058180Y-151320707D01*
X223058177Y-151320703D01*
X222943062Y-151205588D01*
X222943058Y-151205585D01*
X222807688Y-151115133D01*
X222807686Y-151115132D01*
X222657278Y-151052832D01*
X222657269Y-151052829D01*
X222497602Y-151021070D01*
X222497599Y-151021070D01*
X222334793Y-151021070D01*
X222334790Y-151021070D01*
X222175122Y-151052829D01*
X222175113Y-151052832D01*
X222024705Y-151115132D01*
X222024703Y-151115133D01*
X221889333Y-151205585D01*
X221889329Y-151205588D01*
X221774214Y-151320703D01*
X221774211Y-151320707D01*
X221683759Y-151456077D01*
X221683758Y-151456079D01*
X221621458Y-151606487D01*
X221621455Y-151606496D01*
X221589696Y-151766162D01*
X136441779Y-151766162D01*
X136920687Y-151287254D01*
X136980653Y-151183387D01*
X136980654Y-151183386D01*
X137011696Y-151067538D01*
X137011696Y-149404433D01*
X137031381Y-149337394D01*
X137079399Y-149293949D01*
X137188016Y-149238606D01*
X137341527Y-149127074D01*
X137475700Y-148992901D01*
X137587232Y-148839390D01*
X137673377Y-148670322D01*
X137708265Y-148562948D01*
X137747703Y-148505272D01*
X137812061Y-148478074D01*
X137880908Y-148489989D01*
X137932383Y-148537233D01*
X137944127Y-148562948D01*
X137979015Y-148670322D01*
X138062002Y-148833193D01*
X138065162Y-148839393D01*
X138176686Y-148992894D01*
X138176690Y-148992899D01*
X138310866Y-149127075D01*
X138310871Y-149127079D01*
X138366647Y-149167602D01*
X138464376Y-149238606D01*
X138560410Y-149287538D01*
X138633439Y-149324749D01*
X138633441Y-149324749D01*
X138633444Y-149324751D01*
X138730176Y-149356181D01*
X138813906Y-149383387D01*
X139001316Y-149413070D01*
X139001321Y-149413070D01*
X139191076Y-149413070D01*
X139378485Y-149383387D01*
X139412844Y-149372223D01*
X139558948Y-149324751D01*
X139728016Y-149238606D01*
X139881527Y-149127074D01*
X140015700Y-148992901D01*
X140127232Y-148839390D01*
X140213377Y-148670322D01*
X140248265Y-148562948D01*
X140287703Y-148505272D01*
X140352061Y-148478074D01*
X140420908Y-148489989D01*
X140472383Y-148537233D01*
X140484127Y-148562948D01*
X140519015Y-148670322D01*
X140602002Y-148833193D01*
X140605162Y-148839393D01*
X140716686Y-148992894D01*
X140716690Y-148992899D01*
X140850866Y-149127075D01*
X140850871Y-149127079D01*
X140906647Y-149167602D01*
X141004376Y-149238606D01*
X141100410Y-149287538D01*
X141173439Y-149324749D01*
X141173441Y-149324749D01*
X141173444Y-149324751D01*
X141270176Y-149356181D01*
X141353906Y-149383387D01*
X141541316Y-149413070D01*
X141541321Y-149413070D01*
X141731076Y-149413070D01*
X141918485Y-149383387D01*
X141952844Y-149372223D01*
X142098948Y-149324751D01*
X142268016Y-149238606D01*
X142421527Y-149127074D01*
X142555700Y-148992901D01*
X142667232Y-148839390D01*
X142753377Y-148670322D01*
X142812013Y-148489859D01*
X142813943Y-148477674D01*
X142841696Y-148302450D01*
X142841696Y-148112689D01*
X142812013Y-147925280D01*
X142759549Y-147763813D01*
X142753377Y-147744818D01*
X142753375Y-147744815D01*
X142753375Y-147744813D01*
X142719212Y-147677766D01*
X142667232Y-147575750D01*
X142636746Y-147533790D01*
X142555705Y-147422245D01*
X142555701Y-147422240D01*
X142474744Y-147341283D01*
X170749500Y-147341283D01*
X170749500Y-147553857D01*
X170751342Y-147565489D01*
X170779744Y-147744813D01*
X170782754Y-147763813D01*
X170839047Y-147937065D01*
X170848444Y-147965984D01*
X170944951Y-148155390D01*
X171069890Y-148327356D01*
X171220213Y-148477679D01*
X171392179Y-148602618D01*
X171392181Y-148602619D01*
X171392184Y-148602621D01*
X171581588Y-148699127D01*
X171783757Y-148764816D01*
X171993713Y-148798070D01*
X171993714Y-148798070D01*
X172206286Y-148798070D01*
X172206287Y-148798070D01*
X172416243Y-148764816D01*
X172618412Y-148699127D01*
X172807816Y-148602621D01*
X172862422Y-148562948D01*
X172979786Y-148477679D01*
X172979788Y-148477676D01*
X172979792Y-148477674D01*
X173130104Y-148327362D01*
X173130106Y-148327358D01*
X173130109Y-148327356D01*
X173255048Y-148155390D01*
X173255047Y-148155390D01*
X173255051Y-148155386D01*
X173351557Y-147965982D01*
X173417246Y-147763813D01*
X173450500Y-147553857D01*
X173450500Y-147341283D01*
X173417246Y-147131327D01*
X173351557Y-146929158D01*
X173255051Y-146739754D01*
X173255049Y-146739751D01*
X173255048Y-146739749D01*
X173130109Y-146567783D01*
X172979786Y-146417460D01*
X172807820Y-146292521D01*
X172618414Y-146196014D01*
X172618413Y-146196013D01*
X172618412Y-146196013D01*
X172416243Y-146130324D01*
X172416241Y-146130323D01*
X172416240Y-146130323D01*
X172254957Y-146104778D01*
X172206287Y-146097070D01*
X171993713Y-146097070D01*
X171945042Y-146104778D01*
X171783760Y-146130323D01*
X171581585Y-146196014D01*
X171392179Y-146292521D01*
X171220213Y-146417460D01*
X171069890Y-146567783D01*
X170944951Y-146739749D01*
X170848444Y-146929155D01*
X170782753Y-147131330D01*
X170752708Y-147321027D01*
X170749500Y-147341283D01*
X142474744Y-147341283D01*
X142421525Y-147288064D01*
X142421520Y-147288060D01*
X142268019Y-147176536D01*
X142268018Y-147176535D01*
X142268016Y-147176534D01*
X142186959Y-147135233D01*
X142098952Y-147090390D01*
X141918485Y-147031752D01*
X141731076Y-147002070D01*
X141731071Y-147002070D01*
X141541321Y-147002070D01*
X141541316Y-147002070D01*
X141353906Y-147031752D01*
X141173439Y-147090390D01*
X141004372Y-147176536D01*
X140850871Y-147288060D01*
X140850866Y-147288064D01*
X140716690Y-147422240D01*
X140716686Y-147422245D01*
X140605162Y-147575746D01*
X140519016Y-147744813D01*
X140484127Y-147852192D01*
X140444689Y-147909867D01*
X140380330Y-147937065D01*
X140311484Y-147925150D01*
X140260008Y-147877906D01*
X140248265Y-147852192D01*
X140219549Y-147763813D01*
X140213377Y-147744818D01*
X140213375Y-147744815D01*
X140213375Y-147744813D01*
X140179212Y-147677766D01*
X140127232Y-147575750D01*
X140096746Y-147533790D01*
X140015705Y-147422245D01*
X140015701Y-147422240D01*
X139881525Y-147288064D01*
X139881520Y-147288060D01*
X139728019Y-147176536D01*
X139728018Y-147176535D01*
X139728016Y-147176534D01*
X139646959Y-147135233D01*
X139558952Y-147090390D01*
X139378485Y-147031752D01*
X139191076Y-147002070D01*
X139191071Y-147002070D01*
X139001321Y-147002070D01*
X139001316Y-147002070D01*
X138813906Y-147031752D01*
X138633439Y-147090390D01*
X138464372Y-147176536D01*
X138310871Y-147288060D01*
X138310866Y-147288064D01*
X138176690Y-147422240D01*
X138176686Y-147422245D01*
X138065162Y-147575746D01*
X137979016Y-147744813D01*
X137944127Y-147852192D01*
X137904689Y-147909867D01*
X137840330Y-147937065D01*
X137771484Y-147925150D01*
X137720008Y-147877906D01*
X137708265Y-147852192D01*
X137679549Y-147763813D01*
X137673377Y-147744818D01*
X137673375Y-147744815D01*
X137673375Y-147744813D01*
X137639212Y-147677766D01*
X137587232Y-147575750D01*
X137556746Y-147533790D01*
X137475705Y-147422245D01*
X137475701Y-147422240D01*
X137341525Y-147288064D01*
X137341520Y-147288060D01*
X137188019Y-147176536D01*
X137188018Y-147176535D01*
X137188016Y-147176534D01*
X137106959Y-147135233D01*
X137018952Y-147090390D01*
X136838485Y-147031752D01*
X136651076Y-147002070D01*
X136651071Y-147002070D01*
X136461321Y-147002070D01*
X136461316Y-147002070D01*
X136273906Y-147031752D01*
X136093439Y-147090390D01*
X135924372Y-147176536D01*
X135770871Y-147288060D01*
X135770866Y-147288064D01*
X135636690Y-147422240D01*
X135636686Y-147422245D01*
X135525162Y-147575746D01*
X135439016Y-147744813D01*
X135404127Y-147852192D01*
X135364689Y-147909867D01*
X135300330Y-147937065D01*
X135231484Y-147925150D01*
X135180008Y-147877906D01*
X135168265Y-147852192D01*
X135139549Y-147763813D01*
X135133377Y-147744818D01*
X135133375Y-147744815D01*
X135133375Y-147744813D01*
X135099212Y-147677766D01*
X135047232Y-147575750D01*
X135016746Y-147533790D01*
X134935705Y-147422245D01*
X134935701Y-147422240D01*
X134801525Y-147288064D01*
X134801520Y-147288060D01*
X134648019Y-147176536D01*
X134648018Y-147176535D01*
X134648016Y-147176534D01*
X134566959Y-147135233D01*
X134478952Y-147090390D01*
X134298485Y-147031752D01*
X134111076Y-147002070D01*
X134111071Y-147002070D01*
X133921321Y-147002070D01*
X133921316Y-147002070D01*
X133733906Y-147031752D01*
X133553439Y-147090390D01*
X133384372Y-147176536D01*
X133230871Y-147288060D01*
X133230866Y-147288064D01*
X133096690Y-147422240D01*
X133096686Y-147422245D01*
X132985162Y-147575746D01*
X132899016Y-147744813D01*
X132864127Y-147852192D01*
X132824689Y-147909867D01*
X132760330Y-147937065D01*
X132691484Y-147925150D01*
X132640008Y-147877906D01*
X132628265Y-147852192D01*
X132599549Y-147763813D01*
X132593377Y-147744818D01*
X132593375Y-147744815D01*
X132593375Y-147744813D01*
X132559212Y-147677766D01*
X132507232Y-147575750D01*
X132476746Y-147533790D01*
X132395705Y-147422245D01*
X132395701Y-147422240D01*
X132261525Y-147288064D01*
X132261520Y-147288060D01*
X132108019Y-147176536D01*
X132108018Y-147176535D01*
X132108016Y-147176534D01*
X132026959Y-147135233D01*
X131938952Y-147090390D01*
X131758485Y-147031752D01*
X131571076Y-147002070D01*
X131571071Y-147002070D01*
X131381321Y-147002070D01*
X131381316Y-147002070D01*
X131193906Y-147031752D01*
X131013439Y-147090390D01*
X130844372Y-147176536D01*
X130690871Y-147288060D01*
X130690866Y-147288064D01*
X130556690Y-147422240D01*
X130556686Y-147422245D01*
X130445162Y-147575746D01*
X130359016Y-147744813D01*
X130324127Y-147852192D01*
X130284689Y-147909867D01*
X130220330Y-147937065D01*
X130151484Y-147925150D01*
X130100008Y-147877906D01*
X130088265Y-147852192D01*
X130059549Y-147763813D01*
X130053377Y-147744818D01*
X130053375Y-147744815D01*
X130053375Y-147744813D01*
X130019212Y-147677766D01*
X129967232Y-147575750D01*
X129936746Y-147533790D01*
X129855705Y-147422245D01*
X129855701Y-147422240D01*
X129721525Y-147288064D01*
X129721520Y-147288060D01*
X129568019Y-147176536D01*
X129568018Y-147176535D01*
X129568016Y-147176534D01*
X129486959Y-147135233D01*
X129398952Y-147090390D01*
X129218485Y-147031752D01*
X129031076Y-147002070D01*
X129031071Y-147002070D01*
X128841321Y-147002070D01*
X128841316Y-147002070D01*
X128653906Y-147031752D01*
X128473439Y-147090390D01*
X128304372Y-147176536D01*
X128150871Y-147288060D01*
X128150866Y-147288064D01*
X128016690Y-147422240D01*
X128016686Y-147422245D01*
X127905162Y-147575746D01*
X127819016Y-147744813D01*
X127784127Y-147852192D01*
X127744689Y-147909867D01*
X127680330Y-147937065D01*
X127611484Y-147925150D01*
X127560008Y-147877906D01*
X127548265Y-147852192D01*
X127519549Y-147763813D01*
X127513377Y-147744818D01*
X127513375Y-147744815D01*
X127513375Y-147744813D01*
X127479212Y-147677766D01*
X127466316Y-147609097D01*
X127492592Y-147544357D01*
X127502007Y-147533799D01*
X129346419Y-145689389D01*
X129407742Y-145655904D01*
X129434100Y-145653070D01*
X134556414Y-145653070D01*
X134556416Y-145653070D01*
X134634115Y-145632251D01*
X134703777Y-145592031D01*
X139247025Y-141048783D01*
X146075696Y-141048783D01*
X146075696Y-141214356D01*
X146107993Y-141376727D01*
X146107996Y-141376736D01*
X146171350Y-141529689D01*
X146171357Y-141529702D01*
X146263336Y-141667357D01*
X146263339Y-141667361D01*
X146380404Y-141784426D01*
X146380408Y-141784429D01*
X146518063Y-141876408D01*
X146518076Y-141876415D01*
X146632790Y-141923930D01*
X146671031Y-141939770D01*
X146671033Y-141939770D01*
X146671038Y-141939772D01*
X146833409Y-141972069D01*
X146833412Y-141972070D01*
X146833414Y-141972070D01*
X146998980Y-141972070D01*
X146998981Y-141972069D01*
X147053105Y-141961303D01*
X147161353Y-141939772D01*
X147161356Y-141939770D01*
X147161361Y-141939770D01*
X147314322Y-141876412D01*
X147451984Y-141784429D01*
X147569055Y-141667358D01*
X147661038Y-141529696D01*
X147724396Y-141376735D01*
X147756696Y-141214352D01*
X147756696Y-141048788D01*
X147756696Y-141048785D01*
X147756695Y-141048783D01*
X147724398Y-140886412D01*
X147724395Y-140886403D01*
X147661041Y-140733450D01*
X147661034Y-140733437D01*
X147569055Y-140595782D01*
X147569052Y-140595778D01*
X147451987Y-140478713D01*
X147451983Y-140478710D01*
X147314328Y-140386731D01*
X147314315Y-140386724D01*
X147161362Y-140323370D01*
X147161353Y-140323367D01*
X146998981Y-140291070D01*
X146998978Y-140291070D01*
X146833414Y-140291070D01*
X146833411Y-140291070D01*
X146671038Y-140323367D01*
X146671029Y-140323370D01*
X146518076Y-140386724D01*
X146518063Y-140386731D01*
X146380408Y-140478710D01*
X146380404Y-140478713D01*
X146263339Y-140595778D01*
X146263336Y-140595782D01*
X146171357Y-140733437D01*
X146171350Y-140733450D01*
X146107996Y-140886403D01*
X146107993Y-140886412D01*
X146075696Y-141048783D01*
X139247025Y-141048783D01*
X140806419Y-139489389D01*
X140867742Y-139455904D01*
X140894100Y-139453070D01*
X149738292Y-139453070D01*
X149805331Y-139472755D01*
X149825973Y-139489389D01*
X151791735Y-141455151D01*
X151848615Y-141512031D01*
X151879199Y-141529689D01*
X151918271Y-141552248D01*
X151918273Y-141552249D01*
X151918274Y-141552249D01*
X151918277Y-141552251D01*
X151995976Y-141573070D01*
X152076416Y-141573070D01*
X165632696Y-141573070D01*
X165699735Y-141592755D01*
X165745490Y-141645559D01*
X165756696Y-141697070D01*
X165756696Y-142041814D01*
X165768617Y-142101749D01*
X165768618Y-142101750D01*
X165814038Y-142169727D01*
X165848026Y-142192437D01*
X165882014Y-142215147D01*
X165882015Y-142215147D01*
X165882016Y-142215148D01*
X165941951Y-142227069D01*
X165941955Y-142227070D01*
X165941956Y-142227070D01*
X167490437Y-142227070D01*
X167490438Y-142227069D01*
X167510597Y-142223059D01*
X167550375Y-142215148D01*
X167550375Y-142215147D01*
X167550378Y-142215147D01*
X167618353Y-142169727D01*
X167663773Y-142101752D01*
X167675696Y-142041810D01*
X167675696Y-140493330D01*
X167669052Y-140459926D01*
X167663774Y-140433390D01*
X167663773Y-140433389D01*
X167663773Y-140433388D01*
X167641063Y-140399400D01*
X167618353Y-140365412D01*
X167555427Y-140323367D01*
X167550378Y-140319993D01*
X167550377Y-140319992D01*
X167550376Y-140319992D01*
X167550375Y-140319991D01*
X167490440Y-140308070D01*
X167490436Y-140308070D01*
X165941956Y-140308070D01*
X165941951Y-140308070D01*
X165882016Y-140319991D01*
X165882015Y-140319992D01*
X165814038Y-140365412D01*
X165768618Y-140433389D01*
X165768617Y-140433390D01*
X165756696Y-140493325D01*
X165756696Y-140838070D01*
X165737011Y-140905109D01*
X165684207Y-140950864D01*
X165632696Y-140962070D01*
X152214100Y-140962070D01*
X152147061Y-140942385D01*
X152126419Y-140925751D01*
X150103779Y-138903111D01*
X150103777Y-138903109D01*
X150100655Y-138901306D01*
X150034120Y-138862891D01*
X150034118Y-138862890D01*
X150034115Y-138862889D01*
X149956416Y-138842070D01*
X140756416Y-138842070D01*
X140675976Y-138842070D01*
X140598273Y-138862890D01*
X140598271Y-138862891D01*
X140528621Y-138903105D01*
X140528612Y-138903111D01*
X134425973Y-145005751D01*
X134364650Y-145039236D01*
X134338292Y-145042070D01*
X129215976Y-145042070D01*
X129138277Y-145062889D01*
X129104742Y-145082251D01*
X129068618Y-145103107D01*
X129068612Y-145103111D01*
X127069974Y-147101748D01*
X127008651Y-147135233D01*
X126938959Y-147130249D01*
X126925999Y-147124552D01*
X126858955Y-147090391D01*
X126678485Y-147031752D01*
X126491076Y-147002070D01*
X126491071Y-147002070D01*
X126301321Y-147002070D01*
X126301316Y-147002070D01*
X126113906Y-147031752D01*
X125933439Y-147090390D01*
X125764372Y-147176536D01*
X125610871Y-147288060D01*
X125610866Y-147288064D01*
X125476690Y-147422240D01*
X125476686Y-147422245D01*
X125365162Y-147575746D01*
X125279016Y-147744813D01*
X125244127Y-147852192D01*
X125204689Y-147909867D01*
X125140330Y-147937065D01*
X125071484Y-147925150D01*
X125020008Y-147877906D01*
X125008265Y-147852192D01*
X124979549Y-147763813D01*
X124973377Y-147744818D01*
X124973375Y-147744815D01*
X124973375Y-147744813D01*
X124939212Y-147677766D01*
X124926316Y-147609097D01*
X124952592Y-147544357D01*
X124962007Y-147533799D01*
X128006419Y-144489389D01*
X128067742Y-144455904D01*
X128094100Y-144453070D01*
X133856414Y-144453070D01*
X133856416Y-144453070D01*
X133934115Y-144432251D01*
X134003777Y-144392031D01*
X140006419Y-138389389D01*
X140067742Y-138355904D01*
X140094100Y-138353070D01*
X150956414Y-138353070D01*
X150956416Y-138353070D01*
X151034115Y-138332251D01*
X151103777Y-138292031D01*
X152606419Y-136789389D01*
X152667742Y-136755904D01*
X152694100Y-136753070D01*
X152782744Y-136753070D01*
X152782746Y-136753070D01*
X152911312Y-136718621D01*
X153026580Y-136652071D01*
X153120697Y-136557954D01*
X153187247Y-136442686D01*
X153221696Y-136314120D01*
X153221696Y-136181020D01*
X153187247Y-136052454D01*
X153120697Y-135937186D01*
X153026580Y-135843069D01*
X152911312Y-135776519D01*
X152782746Y-135742070D01*
X152649646Y-135742070D01*
X152521080Y-135776519D01*
X152521077Y-135776520D01*
X152405815Y-135843067D01*
X152405809Y-135843071D01*
X152311697Y-135937183D01*
X152311693Y-135937189D01*
X152245146Y-136052451D01*
X152245145Y-136052454D01*
X152210696Y-136181020D01*
X152210696Y-136269664D01*
X152191011Y-136336703D01*
X152174377Y-136357345D01*
X150825973Y-137705751D01*
X150764650Y-137739236D01*
X150738292Y-137742070D01*
X139875976Y-137742070D01*
X139798275Y-137762889D01*
X139752555Y-137789287D01*
X139752554Y-137789286D01*
X139728618Y-137803106D01*
X139728612Y-137803111D01*
X133725973Y-143805751D01*
X133664650Y-143839236D01*
X133638292Y-143842070D01*
X127875976Y-143842070D01*
X127798273Y-143862890D01*
X127798271Y-143862891D01*
X127728621Y-143903105D01*
X127728612Y-143903111D01*
X124529974Y-147101748D01*
X124468651Y-147135233D01*
X124398959Y-147130249D01*
X124385999Y-147124552D01*
X124318955Y-147090391D01*
X124138485Y-147031752D01*
X123951076Y-147002070D01*
X123951071Y-147002070D01*
X123761321Y-147002070D01*
X123761316Y-147002070D01*
X123573906Y-147031752D01*
X123393439Y-147090390D01*
X123224372Y-147176536D01*
X123070871Y-147288060D01*
X123070866Y-147288064D01*
X122936690Y-147422240D01*
X122936686Y-147422245D01*
X122825162Y-147575746D01*
X122739016Y-147744813D01*
X122704127Y-147852192D01*
X122664689Y-147909867D01*
X122600330Y-147937065D01*
X122531484Y-147925150D01*
X122480008Y-147877906D01*
X122468265Y-147852192D01*
X122439549Y-147763813D01*
X122433377Y-147744818D01*
X122433375Y-147744815D01*
X122433375Y-147744813D01*
X122399212Y-147677766D01*
X122347232Y-147575750D01*
X122316746Y-147533790D01*
X122235705Y-147422245D01*
X122235701Y-147422240D01*
X122101525Y-147288064D01*
X122101520Y-147288060D01*
X121948019Y-147176536D01*
X121948018Y-147176535D01*
X121948016Y-147176534D01*
X121866959Y-147135233D01*
X121778952Y-147090390D01*
X121598485Y-147031752D01*
X121411076Y-147002070D01*
X121411071Y-147002070D01*
X121221321Y-147002070D01*
X121221316Y-147002070D01*
X121033906Y-147031752D01*
X120853439Y-147090390D01*
X120684372Y-147176536D01*
X120530871Y-147288060D01*
X120530866Y-147288064D01*
X120396690Y-147422240D01*
X120396686Y-147422245D01*
X120285162Y-147575746D01*
X120199016Y-147744813D01*
X120164127Y-147852192D01*
X120124689Y-147909867D01*
X120060330Y-147937065D01*
X119991484Y-147925150D01*
X119940008Y-147877906D01*
X119928265Y-147852192D01*
X119899549Y-147763813D01*
X119893377Y-147744818D01*
X119893375Y-147744815D01*
X119893375Y-147744813D01*
X119859212Y-147677766D01*
X119807232Y-147575750D01*
X119776746Y-147533790D01*
X119695705Y-147422245D01*
X119695701Y-147422240D01*
X119561525Y-147288064D01*
X119561520Y-147288060D01*
X119408019Y-147176536D01*
X119408018Y-147176535D01*
X119408016Y-147176534D01*
X119326959Y-147135233D01*
X119238952Y-147090390D01*
X119058485Y-147031752D01*
X118871076Y-147002070D01*
X118871071Y-147002070D01*
X118681321Y-147002070D01*
X118681316Y-147002070D01*
X118493906Y-147031752D01*
X118313439Y-147090390D01*
X118144372Y-147176536D01*
X117990871Y-147288060D01*
X117990866Y-147288064D01*
X117856690Y-147422240D01*
X117856686Y-147422245D01*
X117745162Y-147575746D01*
X117659016Y-147744813D01*
X117624127Y-147852192D01*
X117584689Y-147909867D01*
X117520330Y-147937065D01*
X117451484Y-147925150D01*
X117400008Y-147877906D01*
X117388265Y-147852192D01*
X117359549Y-147763813D01*
X117353377Y-147744818D01*
X117353375Y-147744815D01*
X117353375Y-147744813D01*
X117319212Y-147677766D01*
X117267232Y-147575750D01*
X117236746Y-147533790D01*
X117155705Y-147422245D01*
X117155701Y-147422240D01*
X117021525Y-147288064D01*
X117021520Y-147288060D01*
X116868019Y-147176536D01*
X116868018Y-147176535D01*
X116868016Y-147176534D01*
X116698948Y-147090389D01*
X116627376Y-147067133D01*
X116569702Y-147027696D01*
X116542504Y-146963337D01*
X116541696Y-146949203D01*
X116541696Y-141527352D01*
X116541696Y-141527350D01*
X116520877Y-141449651D01*
X116480657Y-141379989D01*
X116423777Y-141323109D01*
X110403777Y-135303109D01*
X110400655Y-135301306D01*
X110334120Y-135262891D01*
X110334118Y-135262890D01*
X110334115Y-135262889D01*
X110256416Y-135242070D01*
X110256415Y-135242070D01*
X107594101Y-135242070D01*
X107564660Y-135233425D01*
X107534674Y-135226902D01*
X107529658Y-135223147D01*
X107527062Y-135222385D01*
X107506420Y-135205751D01*
X107358015Y-135057346D01*
X107324530Y-134996023D01*
X107321696Y-134969665D01*
X107321696Y-133532352D01*
X107321696Y-133532350D01*
X107300877Y-133454651D01*
X107260657Y-133384989D01*
X107240419Y-133364751D01*
X107206934Y-133303428D01*
X107211918Y-133233736D01*
X107253790Y-133177803D01*
X107319254Y-133153386D01*
X107328100Y-133153070D01*
X109338292Y-133153070D01*
X109405331Y-133172755D01*
X109425973Y-133189389D01*
X111771735Y-135535151D01*
X111828615Y-135592031D01*
X111863446Y-135612141D01*
X111898271Y-135632248D01*
X111898273Y-135632249D01*
X111898274Y-135632249D01*
X111898277Y-135632251D01*
X111975976Y-135653070D01*
X112056416Y-135653070D01*
X119638292Y-135653070D01*
X119705331Y-135672755D01*
X119725973Y-135689389D01*
X123413977Y-139377393D01*
X123447462Y-139438716D01*
X123450296Y-139465074D01*
X123450296Y-140206237D01*
X123450297Y-140206238D01*
X123957529Y-140713470D01*
X124674864Y-140713469D01*
X125182096Y-140206237D01*
X125182095Y-139488902D01*
X124674863Y-138981670D01*
X123933700Y-138981670D01*
X123866661Y-138961985D01*
X123846019Y-138945351D01*
X120003779Y-135103111D01*
X120003777Y-135103109D01*
X119982494Y-135090821D01*
X119934120Y-135062891D01*
X119934118Y-135062890D01*
X119934115Y-135062889D01*
X119856416Y-135042070D01*
X119856415Y-135042070D01*
X112194100Y-135042070D01*
X112164659Y-135033425D01*
X112134673Y-135026902D01*
X112129657Y-135023147D01*
X112127061Y-135022385D01*
X112106419Y-135005751D01*
X111965419Y-134864751D01*
X111931934Y-134803428D01*
X111936918Y-134733736D01*
X111978790Y-134677803D01*
X112044254Y-134653386D01*
X112053100Y-134653070D01*
X121238292Y-134653070D01*
X121305331Y-134672755D01*
X121325973Y-134689389D01*
X123413977Y-136777393D01*
X123447462Y-136838716D01*
X123450296Y-136865074D01*
X123450296Y-137606237D01*
X123450297Y-137606238D01*
X123957529Y-138113470D01*
X124674864Y-138113469D01*
X125182096Y-137606237D01*
X125182095Y-136888902D01*
X124674863Y-136381670D01*
X123933700Y-136381670D01*
X123866661Y-136361985D01*
X123846019Y-136345351D01*
X121603779Y-134103111D01*
X121603777Y-134103109D01*
X121600655Y-134101306D01*
X121534120Y-134062891D01*
X121534117Y-134062890D01*
X121534116Y-134062889D01*
X121534115Y-134062889D01*
X121474235Y-134046844D01*
X121414575Y-134010480D01*
X121384046Y-133947633D01*
X121392341Y-133878258D01*
X121436826Y-133824380D01*
X121503378Y-133803105D01*
X121506329Y-133803070D01*
X123956228Y-133803070D01*
X130336160Y-133803070D01*
X130403199Y-133822755D01*
X130423841Y-133839389D01*
X133573977Y-136989525D01*
X133607462Y-137050848D01*
X133610296Y-137077206D01*
X133610296Y-137606237D01*
X133984377Y-137980318D01*
X134017862Y-138041641D01*
X134020696Y-138067999D01*
X134020696Y-139027141D01*
X134001011Y-139094180D01*
X133984377Y-139114822D01*
X133610296Y-139488902D01*
X133610296Y-140206237D01*
X133610297Y-140206238D01*
X134117529Y-140713470D01*
X134834864Y-140713469D01*
X135342096Y-140206237D01*
X135342095Y-139488902D01*
X134968015Y-139114822D01*
X134934530Y-139053499D01*
X134931696Y-139027141D01*
X134931696Y-138067999D01*
X134951381Y-138000960D01*
X134968015Y-137980318D01*
X135145227Y-137803106D01*
X135342096Y-137606237D01*
X135342095Y-136888902D01*
X134834863Y-136381670D01*
X134305832Y-136381670D01*
X134238793Y-136361985D01*
X134218151Y-136345351D01*
X130855880Y-132983080D01*
X130855879Y-132983079D01*
X130752012Y-132923112D01*
X130752013Y-132923112D01*
X130713396Y-132912764D01*
X130636164Y-132892070D01*
X130636162Y-132892070D01*
X112456233Y-132892070D01*
X112389194Y-132872385D01*
X112368552Y-132855751D01*
X111537757Y-132024957D01*
X111537755Y-132024954D01*
X110895879Y-131383079D01*
X109995880Y-130483080D01*
X109995879Y-130483079D01*
X109892012Y-130423112D01*
X109892013Y-130423112D01*
X109853396Y-130412764D01*
X109776164Y-130392070D01*
X109776162Y-130392070D01*
X108815233Y-130392070D01*
X108748194Y-130372385D01*
X108702439Y-130319581D01*
X108692495Y-130250423D01*
X108721520Y-130186867D01*
X108727552Y-130180389D01*
X108955490Y-129952451D01*
X109280687Y-129627254D01*
X109280687Y-129627252D01*
X109290891Y-129617049D01*
X109290894Y-129617044D01*
X114268551Y-124639389D01*
X114329874Y-124605904D01*
X114356232Y-124603070D01*
X116156228Y-124603070D01*
X117256228Y-124603070D01*
X130160919Y-124603070D01*
X130212943Y-124617011D01*
X130213566Y-124615509D01*
X130221075Y-124618618D01*
X130221080Y-124618621D01*
X130349646Y-124653070D01*
X130349648Y-124653070D01*
X130482744Y-124653070D01*
X130482746Y-124653070D01*
X130611312Y-124618621D01*
X130726580Y-124552071D01*
X130820697Y-124457954D01*
X130887247Y-124342686D01*
X130921696Y-124214120D01*
X130921696Y-124081020D01*
X130887247Y-123952454D01*
X130820697Y-123837186D01*
X130726580Y-123743069D01*
X130611312Y-123676519D01*
X130482746Y-123642070D01*
X130349646Y-123642070D01*
X130221080Y-123676519D01*
X130221079Y-123676519D01*
X130221077Y-123676520D01*
X130213566Y-123679631D01*
X130212943Y-123678128D01*
X130160919Y-123692070D01*
X117376164Y-123692070D01*
X116276164Y-123692070D01*
X114056228Y-123692070D01*
X113978996Y-123712764D01*
X113940379Y-123723112D01*
X113836514Y-123783078D01*
X113836511Y-123783080D01*
X111116973Y-126502618D01*
X108636514Y-128983077D01*
X108636512Y-128983079D01*
X107943072Y-129676520D01*
X107263841Y-130355751D01*
X107236913Y-130370454D01*
X107211095Y-130387047D01*
X107204894Y-130387938D01*
X107202518Y-130389236D01*
X107176160Y-130392070D01*
X107129407Y-130392070D01*
X107074946Y-130379470D01*
X107019038Y-130352137D01*
X107001761Y-130349620D01*
X106949938Y-130342070D01*
X105632454Y-130342070D01*
X105586388Y-130348781D01*
X105563353Y-130352137D01*
X105456765Y-130404246D01*
X105456764Y-130404248D01*
X105372874Y-130488138D01*
X105372872Y-130488139D01*
X105320763Y-130594727D01*
X105320763Y-130594730D01*
X105310696Y-130663828D01*
X105310696Y-131031312D01*
X105317631Y-131078913D01*
X105320763Y-131100412D01*
X105372872Y-131207000D01*
X105425761Y-131259889D01*
X105429458Y-131266659D01*
X105435731Y-131271149D01*
X105445968Y-131296895D01*
X105459246Y-131321212D01*
X105458695Y-131328905D01*
X105461546Y-131336074D01*
X105456238Y-131363266D01*
X105454262Y-131390904D01*
X105449301Y-131398807D01*
X105448161Y-131404650D01*
X105430437Y-131428863D01*
X105427621Y-131433351D01*
X105426685Y-131434327D01*
X105372872Y-131488141D01*
X105370517Y-131492957D01*
X105360081Y-131503851D01*
X105337223Y-131516976D01*
X105316483Y-131533245D01*
X105305074Y-131535436D01*
X105299490Y-131538643D01*
X105290675Y-131538202D01*
X105270540Y-131542070D01*
X105075976Y-131542070D01*
X104998273Y-131562890D01*
X104998271Y-131562891D01*
X104928621Y-131603105D01*
X104928612Y-131603111D01*
X104271737Y-132259986D01*
X104271731Y-132259995D01*
X104231517Y-132329645D01*
X104231516Y-132329647D01*
X104210696Y-132407350D01*
X100950196Y-132407350D01*
X100950196Y-124066162D01*
X102389696Y-124066162D01*
X102389696Y-124228977D01*
X102421455Y-124388643D01*
X102421458Y-124388652D01*
X102483758Y-124539060D01*
X102483759Y-124539062D01*
X102574211Y-124674432D01*
X102574214Y-124674436D01*
X102689329Y-124789551D01*
X102689333Y-124789554D01*
X102824701Y-124880005D01*
X102824702Y-124880005D01*
X102824703Y-124880006D01*
X102824705Y-124880007D01*
X102924977Y-124921540D01*
X102975115Y-124942308D01*
X102975117Y-124942308D01*
X102975122Y-124942310D01*
X103134788Y-124974069D01*
X103134791Y-124974070D01*
X103134793Y-124974070D01*
X103297601Y-124974070D01*
X103297602Y-124974069D01*
X103350825Y-124963482D01*
X103457269Y-124942310D01*
X103457272Y-124942308D01*
X103457277Y-124942308D01*
X103607691Y-124880005D01*
X103743059Y-124789554D01*
X103858180Y-124674433D01*
X103948631Y-124539065D01*
X104010934Y-124388651D01*
X104016059Y-124362890D01*
X104042695Y-124228977D01*
X104042696Y-124228975D01*
X104042696Y-124066164D01*
X104042695Y-124066162D01*
X104010936Y-123906496D01*
X104010933Y-123906487D01*
X103948633Y-123756079D01*
X103948632Y-123756077D01*
X103939940Y-123743069D01*
X103858180Y-123620707D01*
X103858177Y-123620703D01*
X103743062Y-123505588D01*
X103743058Y-123505585D01*
X103607688Y-123415133D01*
X103607686Y-123415132D01*
X103457278Y-123352832D01*
X103457269Y-123352829D01*
X103297602Y-123321070D01*
X103297599Y-123321070D01*
X103134793Y-123321070D01*
X103134790Y-123321070D01*
X102975122Y-123352829D01*
X102975113Y-123352832D01*
X102824705Y-123415132D01*
X102824703Y-123415133D01*
X102689333Y-123505585D01*
X102689329Y-123505588D01*
X102574214Y-123620703D01*
X102574211Y-123620707D01*
X102483759Y-123756077D01*
X102483758Y-123756079D01*
X102421458Y-123906487D01*
X102421455Y-123906496D01*
X102389696Y-124066162D01*
X100950196Y-124066162D01*
X100950196Y-122271570D01*
X100969881Y-122204531D01*
X101022685Y-122158776D01*
X101074196Y-122147570D01*
X180125918Y-122147570D01*
X180117950Y-122721247D01*
G37*
%TD.AperFunction*%
%TD*%
%TA.AperFunction,Conductor*%
%TO.N,GND*%
G36*
X187559235Y-122167255D02*
G01*
X187604990Y-122220059D01*
X187616196Y-122271570D01*
X187616196Y-129923570D01*
X187596511Y-129990609D01*
X187543707Y-130036364D01*
X187492196Y-130047570D01*
X180016196Y-130047570D01*
X180100790Y-123956731D01*
X180357529Y-124213470D01*
X181074864Y-124213469D01*
X181582096Y-123706237D01*
X181582095Y-122988902D01*
X181074863Y-122481670D01*
X180357528Y-122481670D01*
X180117950Y-122721247D01*
X180125918Y-122147570D01*
X187492196Y-122147570D01*
X187559235Y-122167255D01*
G37*
%TD.AperFunction*%
%TD*%
M02*
