ISO-10303-21;
HEADER;
FILE_DESCRIPTION (( 'STEP AP214' ),
    '1' );
FILE_NAME ('CUI_DEVICES_CPT-1495CI-300.step',
    '2019-10-20T21:39:27',
    ( '' ),
    ( '' ),
    'SwSTEP 2.0',
    'SolidWorks 2019',
    '' );
FILE_SCHEMA (( 'AUTOMOTIVE_DESIGN' ));
ENDSEC;

DATA;
#1 = CARTESIAN_POINT ( 'NONE',  ( -0.09468570483284828587, -1.077242151987533925, -1.355704108046179510E-17 ) ) ;
#2 = DIRECTION ( 'NONE',  ( -0.0000000000000000000, -1.000000000000000000, -0.0000000000000000000 ) ) ;
#3 = FACE_BOUND ( 'NONE', #567, .T. ) ;
#4 = B_SPLINE_CURVE_WITH_KNOTS ( 'NONE', 3,
 ( #29, #126, #326, #502, #88, #279, #407, #44, #90, #462 ),
 .UNSPECIFIED., .F., .F.,
 ( 4, 2, 2, 2, 4 ),
 ( 0.0000000000000000000, 0.0003155254075481332470, 0.0006310508150962664941, 0.0009465762226444011506, 0.001262101630192535807 ),
 .UNSPECIFIED. ) ;
#5 = CARTESIAN_POINT ( 'NONE',  ( 2.561450031791466333E-19, 19685.03937007874265, 0.1496062992125984370 ) ) ;
#6 = FACE_OUTER_BOUND ( 'NONE', #175, .T. ) ;
#7 = COLOUR_RGB ( '',0.7529411764705882248, 0.7529411764705882248, 0.0000000000000000000 ) ;
#8 = UNCERTAINTY_MEASURE_WITH_UNIT (LENGTH_MEASURE( 1.000000000000000082E-05 ), #184, 'distance_accuracy_value', 'NONE');
#9 = SURFACE_STYLE_FILL_AREA ( #562 ) ;
#10 = ADVANCED_FACE ( 'NONE', ( #376 ), #192, .F. ) ;
#11 = SURFACE_SIDE_STYLE ('',( #432 ) ) ;
#12 = AXIS2_PLACEMENT_3D ( 'NONE', #266, #37, #221 ) ;
#13 = DIRECTION ( 'NONE',  ( 1.000000000000000000, 0.0000000000000000000, 0.0000000000000000000 ) ) ;
#14 = AXIS2_PLACEMENT_3D ( 'NONE', #105, #511, #554 ) ;
#15 = AXIS2_PLACEMENT_3D ( 'NONE', #158, #246, #13 ) ;
#16 =( LENGTH_UNIT ( ) NAMED_UNIT ( * ) SI_UNIT ( $, .METRE. ) );
#17 = LENGTH_MEASURE_WITH_UNIT ( LENGTH_MEASURE( 0.02539999999999999897 ), #16 );
#18 = ORIENTED_EDGE ( 'NONE', *, *, #408, .T. ) ;
#19 =( NAMED_UNIT ( * ) SI_UNIT ( $, .STERADIAN. ) SOLID_ANGLE_UNIT ( ) );
#20 = EDGE_CURVE ( 'NONE', #474, #577, #583, .T. ) ;
#21 = LENGTH_MEASURE_WITH_UNIT ( LENGTH_MEASURE( 0.02539999999999999897 ), #565 );
#22 = CARTESIAN_POINT ( 'NONE',  ( -0.01575073489902098847, 0.01035872467148208666, 0.1537473411588563821 ) ) ;
#23 = VERTEX_POINT ( 'NONE', #292 ) ;
#24 =( NAMED_UNIT ( * ) PLANE_ANGLE_UNIT ( ) SI_UNIT ( $, .RADIAN. ) );
#25 = DIRECTION ( 'NONE',  ( -9.326470300950578586E-17, 1.000000000000000000, 0.0000000000000000000 ) ) ;
#26 = DIRECTION ( 'NONE',  ( 1.000000000000000000, 9.326470300950578586E-17, 0.0000000000000000000 ) ) ;
#27 = ORIENTED_EDGE ( 'NONE', *, *, #119, .T. ) ;
#28 = SURFACE_STYLE_USAGE ( .BOTH. , #442 ) ;
#29 = CARTESIAN_POINT ( 'NONE',  ( 2.290649948756316105E-18, 0.01129263868198669002, -0.1338582677165354451 ) ) ;
#30 = ORIENTED_EDGE ( 'NONE', *, *, #66, .T. ) ;
#31 = ADVANCED_FACE ( 'NONE', ( #558 ), #430, .T. ) ;
#32 = CYLINDRICAL_SURFACE ( 'NONE', #55, 0.01574803149606298150 ) ;
#33 = ORIENTED_EDGE ( 'NONE', *, *, #500, .T. ) ;
#34 = VECTOR ( 'NONE', #25, 39.37007874015748143 ) ;
#35 = CARTESIAN_POINT ( 'NONE',  ( -0.01405052355398594098, 0.01013467661528920372, 0.1578212275579116697 ) ) ;
#36 = CIRCLE ( 'NONE', #84, 1.089239404438167247 ) ;
#37 = DIRECTION ( 'NONE',  ( 0.0000000000000000000, 1.000000000000000000, 0.0000000000000000000 ) ) ;
#38 =( LENGTH_UNIT ( ) NAMED_UNIT ( * ) SI_UNIT ( $, .METRE. ) );
#39 = CARTESIAN_POINT ( 'NONE',  ( 0.2755905511811023723, 0.3740157480314960647, 3.375010863791918375E-17 ) ) ;
#40 = UNCERTAINTY_MEASURE_WITH_UNIT (LENGTH_MEASURE( 1.000000000000000082E-05 ), #275, 'distance_accuracy_value', 'NONE');
#41 = LINE ( 'NONE', #227, #258 ) ;
#42 = CARTESIAN_POINT ( 'NONE',  ( 2.290649948682885019E-18, 19685.03937007874265, -0.1338582677165354451 ) ) ;
#43 = EDGE_CURVE ( 'NONE', #322, #222, #526, .T. ) ;
#44 = CARTESIAN_POINT ( 'NONE',  ( -0.008226054059125860463, 0.009804011627747064028, -0.1636488717308328955 ) ) ;
#45 = AXIS2_PLACEMENT_3D ( 'NONE', #506, #325, #77 ) ;
#46 = DIRECTION ( 'NONE',  ( 0.0000000000000000000, 1.000000000000000000, 1.249363108168667596E-17 ) ) ;
#47 = AXIS2_PLACEMENT_3D ( 'NONE', #5, #164, #301 ) ;
#48 = VERTEX_POINT ( 'NONE', #396 ) ;
#49 =( NAMED_UNIT ( * ) SI_UNIT ( $, .STERADIAN. ) SOLID_ANGLE_UNIT ( ) );
#50 = CARTESIAN_POINT ( 'NONE',  ( -0.2755905511811023167, -2.570287090813151703E-17, 0.0000000000000000000 ) ) ;
#51 = DIRECTION ( 'NONE',  ( 0.0000000000000000000, 1.000000000000000000, 0.0000000000000000000 ) ) ;
#52 = DIMENSIONAL_EXPONENTS ( 1.000000000000000000, 0.0000000000000000000, 0.0000000000000000000, 0.0000000000000000000, 0.0000000000000000000, 0.0000000000000000000, 0.0000000000000000000 ) ;
#53 = CARTESIAN_POINT ( 'NONE',  ( 3.620723122303614972E-19, 19685.03937007874265, -0.1496062992125984370 ) ) ;
#54 = ORIENTED_EDGE ( 'NONE', *, *, #163, .F. ) ;
#55 = AXIS2_PLACEMENT_3D ( 'NONE', #395, #151, #524 ) ;
#56 = CLOSED_SHELL ( 'NONE', ( #517, #459, #109, #245, #174, #73, #417, #240, #559, #200, #537, #137, #31, #10, #355 ) ) ;
#57 = DIRECTION ( 'NONE',  ( -0.0000000000000000000, -1.000000000000000000, -0.0000000000000000000 ) ) ;
#58 = ORIENTED_EDGE ( 'NONE', *, *, #545, .T. ) ;
#59 = PRODUCT_DEFINITION_FORMATION_WITH_SPECIFIED_SOURCE ( 'ANY', '', #427, .NOT_KNOWN. ) ;
#60 =( NAMED_UNIT ( * ) SI_UNIT ( $, .STERADIAN. ) SOLID_ANGLE_UNIT ( ) );
#61 = CIRCLE ( 'NONE', #299, 0.2755905511811023723 ) ;
#62 = CARTESIAN_POINT ( 'NONE',  ( 0.01407935798546915140, 0.01013617041548386423, -0.1577950227519667459 ) ) ;
#63 =( GEOMETRIC_REPRESENTATION_CONTEXT ( 3 ) GLOBAL_UNCERTAINTY_ASSIGNED_CONTEXT ( ( #8 ) ) GLOBAL_UNIT_ASSIGNED_CONTEXT ( ( #184, #287, #49 ) ) REPRESENTATION_CONTEXT ( 'NONE', 'WORKASPACE' ) );
#64 = CIRCLE ( 'NONE', #404, 0.2559055118110243887 ) ;
#65 = CARTESIAN_POINT ( 'NONE',  ( 0.01404663909369196009, 0.01097121718584156275, -0.1413851251709365153 ) ) ;
#66 = EDGE_CURVE ( 'NONE', #474, #155, #36, .T. ) ;
#67 = ORIENTED_EDGE ( 'NONE', *, *, #163, .T. ) ;
#68 = SURFACE_STYLE_FILL_AREA ( #523 ) ;
#69 = PLANE ( 'NONE',  #281 ) ;
#70 = EDGE_LOOP ( 'NONE', ( #532, #118 ) ) ;
#71 = TOROIDAL_SURFACE ( 'NONE', #229, 0.09468570483284834138, 1.089239404438167247 ) ;
#72 = DIRECTION ( 'NONE',  ( -1.000000000000000000, 0.0000000000000000000, 0.0000000000000000000 ) ) ;
#73 = ADVANCED_FACE ( 'NONE', ( #304 ), #483, .T. ) ;
#74 = ORIENTED_EDGE ( 'NONE', *, *, #43, .F. ) ;
#75 = DIRECTION ( 'NONE',  ( 8.659560562354932858E-17, 0.7071067811865474617, -0.7071067811865474617 ) ) ;
#76 = VERTEX_POINT ( 'NONE', #82 ) ;
#77 = DIRECTION ( 'NONE',  ( -1.000000000000000000, 0.0000000000000000000, 0.0000000000000000000 ) ) ;
#78 =( NAMED_UNIT ( * ) SI_UNIT ( $, .STERADIAN. ) SOLID_ANGLE_UNIT ( ) );
#79 = DIRECTION ( 'NONE',  ( 0.0000000000000000000, 1.000000000000000000, 0.0000000000000000000 ) ) ;
#80 = ORIENTED_EDGE ( 'NONE', *, *, #335, .T. ) ;
#81 = AXIS2_PLACEMENT_3D ( 'NONE', #321, #262, #391 ) ;
#82 = CARTESIAN_POINT ( 'NONE',  ( 2.290649948682885019E-18, -0.2559055118116860816, -0.1338582677165354451 ) ) ;
#83 = SURFACE_STYLE_FILL_AREA ( #323 ) ;
#84 = AXIS2_PLACEMENT_3D ( 'NONE', #575, #530, #113 ) ;
#85 = AXIS2_PLACEMENT_3D ( 'NONE', #178, #365, #590 ) ;
#86 = CARTESIAN_POINT ( 'NONE',  ( 0.0000000000000000000, 0.3937007874056925871, 0.0000000000000000000 ) ) ;
#87 = LENGTH_MEASURE_WITH_UNIT ( LENGTH_MEASURE( 0.02539999999999999897 ), #38 );
#88 = CARTESIAN_POINT ( 'NONE',  ( -0.01575203473163397719, 0.01078057242907914590, -0.1454704437308255438 ) ) ;
#89 = FACE_OUTER_BOUND ( 'NONE', #203, .T. ) ;
#90 = CARTESIAN_POINT ( 'NONE',  ( -0.004113046800642200518, 0.009702384544868958641, -0.1653543307086650649 ) ) ;
#91 =( LENGTH_UNIT ( ) NAMED_UNIT ( * ) SI_UNIT ( $, .METRE. ) );
#92 = CARTESIAN_POINT ( 'NONE',  ( 9.057762116163651383E-15, 0.01129263868198999467, 0.1338582677164545653 ) ) ;
#93 = AXIS2_PLACEMENT_3D ( 'NONE', #573, #264, #205 ) ;
#94 = EDGE_CURVE ( 'NONE', #349, #322, #454, .T. ) ;
#95 = ORIENTED_EDGE ( 'NONE', *, *, #228, .F. ) ;
#96 = CARTESIAN_POINT ( 'NONE',  ( 0.01574602671450179431, 0.01036007234267897342, 0.1537200622955344487 ) ) ;
#97 = SURFACE_SIDE_STYLE ('',( #426 ) ) ;
#98 = MANIFOLD_SOLID_BREP ( 'Wrap1', #56 ) ;
#99 = FACE_OUTER_BOUND ( 'NONE', #371, .T. ) ;
#100 = SURFACE_SIDE_STYLE ('',( #413 ) ) ;
#101 = CIRCLE ( 'NONE', #110, 0.2755905511811023723 ) ;
#102 = DIRECTION ( 'NONE',  ( 0.0000000000000000000, 0.0000000000000000000, 1.000000000000000000 ) ) ;
#103 = SURFACE_STYLE_FILL_AREA ( #486 ) ;
#104 = VERTEX_POINT ( 'NONE', #419 ) ;
#105 = CARTESIAN_POINT ( 'NONE',  ( 3.612373030877490845E-17, 0.0000000000000000000, 0.0000000000000000000 ) ) ;
#106 = FACE_OUTER_BOUND ( 'NONE', #219, .T. ) ;
#107 = CARTESIAN_POINT ( 'NONE',  ( -0.2755905511811023723, 0.3937007874015748254, 0.0000000000000000000 ) ) ;
#108 = CARTESIAN_POINT ( 'NONE',  ( 7.687394531133817589E-15, 0.009702384544863239257, -0.1653543307087397551 ) ) ;
#109 = ADVANCED_FACE ( 'NONE', ( #3, #99 ), #403, .F. ) ;
#110 = AXIS2_PLACEMENT_3D ( 'NONE', #435, #201, #310 ) ;
#111 = APPLICATION_PROTOCOL_DEFINITION ( 'draft international standard', 'automotive_design', 1998, #588 ) ;
#112 = CARTESIAN_POINT ( 'NONE',  ( 2.561450031791466333E-19, -0.2165354330702216334, 0.1338582677165354173 ) ) ;
#113 = DIRECTION ( 'NONE',  ( 1.000000000000000000, 0.0000000000000000000, 1.224646799147353207E-16 ) ) ;
#114 = ORIENTED_EDGE ( 'NONE', *, *, #152, .F. ) ;
#115 = FILL_AREA_STYLE_COLOUR ( '', #157 ) ;
#116 = PLANE ( 'NONE',  #456 ) ;
#117 = CARTESIAN_POINT ( 'NONE',  ( 2.184722639679639821E-18, 0.009702384544867942093, 0.1653543307086614567 ) ) ;
#118 = ORIENTED_EDGE ( 'NONE', *, *, #212, .F. ) ;
#119 = EDGE_CURVE ( 'NONE', #311, #536, #154, .T. ) ;
#120 = DIRECTION ( 'NONE',  ( -9.326470300950578586E-17, 1.000000000000000000, 0.0000000000000000000 ) ) ;
#121 = ORIENTED_EDGE ( 'NONE', *, *, #295, .T. ) ;
#122 = CIRCLE ( 'NONE', #580, 0.01574803149606299885 ) ;
#123 =( NAMED_UNIT ( * ) SI_UNIT ( $, .STERADIAN. ) SOLID_ANGLE_UNIT ( ) );
#124 = ORIENTED_EDGE ( 'NONE', *, *, #94, .F. ) ;
#125 = PRESENTATION_LAYER_ASSIGNMENT (  '', '', ( #543 ) ) ;
#126 = CARTESIAN_POINT ( 'NONE',  ( -0.004163908361535829071, 0.01129263782105630574, -0.1338582891222522553 ) ) ;
#127 = VERTEX_POINT ( 'NONE', #159 ) ;
#128 = CARTESIAN_POINT ( 'NONE',  ( 0.0000000000000000000, 0.3740157480314960647, 0.0000000000000000000 ) ) ;
#129 = DIRECTION ( 'NONE',  ( -1.000000000000000000, -8.745541757180672400E-17, 3.487857288809649633E-34 ) ) ;
#130 = ORIENTED_EDGE ( 'NONE', *, *, #444, .T. ) ;
#131 = UNCERTAINTY_MEASURE_WITH_UNIT (LENGTH_MEASURE( 1.000000000000000082E-05 ), #204, 'distance_accuracy_value', 'NONE');
#132 = EDGE_CURVE ( 'NONE', #313, #357, #589, .T. ) ;
#133 = DIRECTION ( 'NONE',  ( -9.326470300950578586E-17, 1.000000000000000000, 0.0000000000000000000 ) ) ;
#134 = CONICAL_SURFACE ( 'NONE', #81, 0.2322834645690453337, 0.7853981633974482790 ) ;
#135 =( NAMED_UNIT ( * ) PLANE_ANGLE_UNIT ( ) SI_UNIT ( $, .RADIAN. ) );
#136 =( NAMED_UNIT ( * ) PLANE_ANGLE_UNIT ( ) SI_UNIT ( $, .RADIAN. ) );
#137 = ADVANCED_FACE ( 'NONE', ( #485 ), #32, .T. ) ;
#138 = CARTESIAN_POINT ( 'NONE',  ( 3.620723122303614972E-19, -0.2559055118110236671, -0.1496062992125984370 ) ) ;
#139 = MECHANICAL_DESIGN_GEOMETRIC_PRESENTATION_REPRESENTATION (  '', ( #543 ), #493 ) ;
#140 = VECTOR ( 'NONE', #451, 39.37007874015748854 ) ;
#141 = AXIS2_PLACEMENT_3D ( 'NONE', #280, #288, #241 ) ;
#142 = ORIENTED_EDGE ( 'NONE', *, *, #228, .T. ) ;
#143 = FILL_AREA_STYLE ('',( #369 ) ) ;
#144 =( LENGTH_UNIT ( ) NAMED_UNIT ( * ) SI_UNIT ( $, .METRE. ) );
#145 = EDGE_CURVE ( 'NONE', #571, #48, #243, .T. ) ;
#146 = CIRCLE ( 'NONE', #519, 0.2125984251927182933 ) ;
#147 = SURFACE_SIDE_STYLE ('',( #9 ) ) ;
#148 = PRESENTATION_STYLE_ASSIGNMENT (( #195 ) ) ;
#149 = AXIS2_PLACEMENT_3D ( 'NONE', #469, #57, #191 ) ;
#150 = FILL_AREA_STYLE_COLOUR ( '', #443 ) ;
#151 = DIRECTION ( 'NONE',  ( -0.0000000000000000000, -1.000000000000000000, -0.0000000000000000000 ) ) ;
#152 = EDGE_CURVE ( 'NONE', #222, #322, #555, .T. ) ;
#153 = PLANE ( 'NONE',  #207 ) ;
#154 = LINE ( 'NONE', #495, #140 ) ;
#155 = VERTEX_POINT ( 'NONE', #578 ) ;
#156 = DIMENSIONAL_EXPONENTS ( 1.000000000000000000, 0.0000000000000000000, 0.0000000000000000000, 0.0000000000000000000, 0.0000000000000000000, 0.0000000000000000000, 0.0000000000000000000 ) ;
#157 = COLOUR_RGB ( '',0.7529411764705882248, 0.7529411764705882248, 0.0000000000000000000 ) ;
#158 = CARTESIAN_POINT ( 'NONE',  ( 0.0000000000000000000, 0.0000000000000000000, 0.0000000000000000000 ) ) ;
#159 = CARTESIAN_POINT ( 'NONE',  ( 2.844652013793389760E-17, 0.3937007874056925871, -0.2322834645690453337 ) ) ;
#160 = LINE ( 'NONE', #347, #34 ) ;
#161 = DIRECTION ( 'NONE',  ( 0.0000000000000000000, 1.000000000000000000, 0.0000000000000000000 ) ) ;
#162 = ORIENTED_EDGE ( 'NONE', *, *, #295, .F. ) ;
#163 = EDGE_CURVE ( 'NONE', #311, #104, #269, .T. ) ;
#164 = DIRECTION ( 'NONE',  ( -0.0000000000000000000, -1.000000000000000000, -0.0000000000000000000 ) ) ;
#165 = ORIENTED_EDGE ( 'NONE', *, *, #66, .F. ) ;
#166 = SURFACE_SIDE_STYLE ('',( #414 ) ) ;
#167 = ORIENTED_EDGE ( 'NONE', *, *, #394, .T. ) ;
#168 = MECHANICAL_DESIGN_GEOMETRIC_PRESENTATION_REPRESENTATION (  '', ( #433 ), #247 ) ;
#169 = CARTESIAN_POINT ( 'NONE',  ( -0.01403738190306283440, 0.01097186640193413033, 0.1413707651095780504 ) ) ;
#170 = AXIS2_PLACEMENT_3D ( 'NONE', #415, #181, #586 ) ;
#171 = ORIENTED_EDGE ( 'NONE', *, *, #20, .T. ) ;
#172 = FACE_OUTER_BOUND ( 'NONE', #389, .T. ) ;
#173 = DIRECTION ( 'NONE',  ( -1.000000000000000000, 0.0000000000000000000, 0.0000000000000000000 ) ) ;
#174 = ADVANCED_FACE ( 'NONE', ( #172 ), #548, .T. ) ;
#175 = EDGE_LOOP ( 'NONE', ( #484, #453, #206, #257 ) ) ;
#176 = SURFACE_SIDE_STYLE ('',( #103 ) ) ;
#177 = AXIS2_PLACEMENT_3D ( 'NONE', #128, #133, #503 ) ;
#178 = CARTESIAN_POINT ( 'NONE',  ( -0.2125984251968504046, 0.3740157480314960647, 0.0000000000000000000 ) ) ;
#179 = EDGE_CURVE ( 'NONE', #127, #536, #480, .T. ) ;
#180 = CARTESIAN_POINT ( 'NONE',  ( 5.122214988120493535E-17, -1.077242151987533925, -1.355704108046179510E-17 ) ) ;
#181 = DIRECTION ( 'NONE',  ( 0.0000000000000000000, 1.000000000000000000, 0.0000000000000000000 ) ) ;
#182 = CARTESIAN_POINT ( 'NONE',  ( 0.2559055118110242777, 1.193347577877538208E-17, 3.124101154446631292E-17 ) ) ;
#183 =( CONVERSION_BASED_UNIT ( 'INCH', #223 ) LENGTH_UNIT ( ) NAMED_UNIT ( #52 ) );
#184 =( CONVERSION_BASED_UNIT ( 'INCH', #423 ) LENGTH_UNIT ( ) NAMED_UNIT ( #156 ) );
#185 =( LENGTH_UNIT ( ) NAMED_UNIT ( * ) SI_UNIT ( $, .METRE. ) );
#186 = SURFACE_STYLE_USAGE ( .BOTH. , #100 ) ;
#187 = SURFACE_STYLE_USAGE ( .BOTH. , #176 ) ;
#188 = STYLED_ITEM ( 'NONE', ( #256 ), #459 ) ;
#189 = FILL_AREA_STYLE_COLOUR ( '', #220 ) ;
#190 = CARTESIAN_POINT ( 'NONE',  ( 0.01404483827178006593, 0.01013419503492944684, 0.1578298501902757889 ) ) ;
#191 = DIRECTION ( 'NONE',  ( 0.0000000000000000000, 0.0000000000000000000, -1.000000000000000000 ) ) ;
#192 = PLANE ( 'NONE',  #465 ) ;
#193 = EDGE_CURVE ( 'NONE', #571, #398, #41, .T. ) ;
#194 = SURFACE_STYLE_USAGE ( .BOTH. , #147 ) ;
#195 = SURFACE_STYLE_USAGE ( .BOTH. , #11 ) ;
#196 = VECTOR ( 'NONE', #491, 39.37007874015748143 ) ;
#197 = PRESENTATION_STYLE_ASSIGNMENT (( #194 ) ) ;
#198 = ADVANCED_BREP_SHAPE_REPRESENTATION ( 'CUI_DEVICES_CPT-1495CI-300', ( #98, #15 ), #380 ) ;
#199 =( GEOMETRIC_REPRESENTATION_CONTEXT ( 3 ) GLOBAL_UNCERTAINTY_ASSIGNED_CONTEXT ( ( #518 ) ) GLOBAL_UNIT_ASSIGNED_CONTEXT ( ( #249, #24, #19 ) ) REPRESENTATION_CONTEXT ( 'NONE', 'WORKASPACE' ) );
#200 = ADVANCED_FACE ( 'NONE', ( #89, #409 ), #71, .F. ) ;
#201 = DIRECTION ( 'NONE',  ( -9.326470300950578586E-17, 1.000000000000000000, 0.0000000000000000000 ) ) ;
#202 = FILL_AREA_STYLE_COLOUR ( '', #250 ) ;
#203 = EDGE_LOOP ( 'NONE', ( #165, #263, #58 ) ) ;
#204 =( CONVERSION_BASED_UNIT ( 'INCH', #21 ) LENGTH_UNIT ( ) NAMED_UNIT ( #566 ) );
#205 = DIRECTION ( 'NONE',  ( 0.0000000000000000000, 0.0000000000000000000, -1.000000000000000000 ) ) ;
#206 = ORIENTED_EDGE ( 'NONE', *, *, #132, .T. ) ;
#207 = AXIS2_PLACEMENT_3D ( 'NONE', #439, #538, #569 ) ;
#208 =( LENGTH_UNIT ( ) NAMED_UNIT ( * ) SI_UNIT ( $, .METRE. ) );
#209 = CIRCLE ( 'NONE', #233, 0.2322834645690453337 ) ;
#210 = DIRECTION ( 'NONE',  ( 0.0000000000000000000, 0.0000000000000000000, 1.000000000000000000 ) ) ;
#211 = EDGE_LOOP ( 'NONE', ( #315, #546, #306, #467 ) ) ;
#212 = EDGE_CURVE ( 'NONE', #23, #354, #595, .T. ) ;
#213 = LENGTH_MEASURE_WITH_UNIT ( LENGTH_MEASURE( 0.02539999999999999897 ), #208 );
#214 = CARTESIAN_POINT ( 'NONE',  ( 0.2755905511811023723, 0.3937007874015748254, 3.375010863791918375E-17 ) ) ;
#215 = B_SPLINE_CURVE_WITH_KNOTS ( 'NONE', 3,
 ( #421, #516, #514, #551, #327, #96, #190, #330, #284, #424 ),
 .UNSPECIFIED., .F., .F.,
 ( 4, 2, 2, 2, 4 ),
 ( 0.001262116650979766162, 0.001577715660626933082, 0.001893314670274099786, 0.002208913679921265406, 0.002524512689568431025 ),
 .UNSPECIFIED. ) ;
#216 = EDGE_LOOP ( 'NONE', ( #509, #267 ) ) ;
#217 = UNCERTAINTY_MEASURE_WITH_UNIT (LENGTH_MEASURE( 1.000000000000000082E-05 ), #350, 'distance_accuracy_value', 'NONE');
#218 = CARTESIAN_POINT ( 'NONE',  ( -0.008242063569304165435, 0.009804483753188117032, 0.1636409223988223860 ) ) ;
#219 = EDGE_LOOP ( 'NONE', ( #67, #121 ) ) ;
#220 = COLOUR_RGB ( '',0.7529411764705882248, 0.7529411764705882248, 0.0000000000000000000 ) ;
#221 = DIRECTION ( 'NONE',  ( 0.0000000000000000000, 0.0000000000000000000, 1.000000000000000000 ) ) ;
#222 = VERTEX_POINT ( 'NONE', #253 ) ;
#223 = LENGTH_MEASURE_WITH_UNIT ( LENGTH_MEASURE( 0.02539999999999999897 ), #144 );
#224 = CARTESIAN_POINT ( 'NONE',  ( -0.2559055118110242777, -1.193347577877538208E-17, -9.837504788729970694E-20 ) ) ;
#225 = DIRECTION ( 'NONE',  ( -9.326470300950578586E-17, 1.000000000000000000, 0.0000000000000000000 ) ) ;
#226 = SURFACE_STYLE_USAGE ( .BOTH. , #271 ) ;
#227 = CARTESIAN_POINT ( 'NONE',  ( 3.620723122303614972E-19, 19685.03937007874265, -0.1653543307086614012 ) ) ;
#228 = EDGE_CURVE ( 'NONE', #104, #127, #314, .T. ) ;
#229 = AXIS2_PLACEMENT_3D ( 'NONE', #544, #397, #129 ) ;
#230 = FILL_AREA_STYLE ('',( #581 ) ) ;
#231 = DIRECTION ( 'NONE',  ( -0.0000000000000000000, -1.000000000000000000, -0.0000000000000000000 ) ) ;
#232 = FACE_OUTER_BOUND ( 'NONE', #343, .T. ) ;
#233 = AXIS2_PLACEMENT_3D ( 'NONE', #471, #2, #461 ) ;
#234 = EDGE_LOOP ( 'NONE', ( #114, #74 ) ) ;
#235 =( NAMED_UNIT ( * ) SI_UNIT ( $, .STERADIAN. ) SOLID_ANGLE_UNIT ( ) );
#236 = EDGE_LOOP ( 'NONE', ( #124, #130, #18, #334 ) ) ;
#237 = DIRECTION ( 'NONE',  ( -0.0000000000000000000, -1.000000000000000000, -0.0000000000000000000 ) ) ;
#238 = ORIENTED_EDGE ( 'NONE', *, *, #179, .T. ) ;
#239 = UNCERTAINTY_MEASURE_WITH_UNIT (LENGTH_MEASURE( 1.000000000000000082E-05 ), #366, 'distance_accuracy_value', 'NONE');
#240 = ADVANCED_FACE ( 'NONE', ( #535, #570 ), #69, .T. ) ;
#241 = DIRECTION ( 'NONE',  ( 0.0000000000000000000, 0.0000000000000000000, -1.000000000000000000 ) ) ;
#242 = CARTESIAN_POINT ( 'NONE',  ( 3.612373030877490845E-17, 0.0000000000000000000, 0.0000000000000000000 ) ) ;
#243 = B_SPLINE_CURVE_WITH_KNOTS ( 'NONE', 3,
 ( #108, #297, #479, #62, #302, #481, #65, #252, #438, #584 ),
 .UNSPECIFIED., .F., .F.,
 ( 4, 2, 2, 2, 4 ),
 ( 0.001262101630192535807, 0.001577700200562131378, 0.001893298770931727167, 0.002208897341301322738, 0.002524495911670918309 ),
 .UNSPECIFIED. ) ;
#244 = DIMENSIONAL_EXPONENTS ( 1.000000000000000000, 0.0000000000000000000, 0.0000000000000000000, 0.0000000000000000000, 0.0000000000000000000, 0.0000000000000000000, 0.0000000000000000000 ) ;
#245 = ADVANCED_FACE ( 'NONE', ( #448 ), #134, .F. ) ;
#246 = DIRECTION ( 'NONE',  ( 0.0000000000000000000, 0.0000000000000000000, 1.000000000000000000 ) ) ;
#247 =( GEOMETRIC_REPRESENTATION_CONTEXT ( 3 ) GLOBAL_UNCERTAINTY_ASSIGNED_CONTEXT ( ( #131 ) ) GLOBAL_UNIT_ASSIGNED_CONTEXT ( ( #204, #482, #60 ) ) REPRESENTATION_CONTEXT ( 'NONE', 'WORKASPACE' ) );
#248 = DIRECTION ( 'NONE',  ( -1.000000000000000000, -9.326470300950578586E-17, 0.0000000000000000000 ) ) ;
#249 =( CONVERSION_BASED_UNIT ( 'INCH', #312 ) LENGTH_UNIT ( ) NAMED_UNIT ( #385 ) );
#250 = COLOUR_RGB ( '',0.2509803921568627416, 0.2509803921568627416, 0.2509803921568627416 ) ;
#251 = PRESENTATION_STYLE_ASSIGNMENT (( #28 ) ) ;
#252 = CARTESIAN_POINT ( 'NONE',  ( 0.008236938878161024005, 0.01122581279368208354, -0.1355688987990898708 ) ) ;
#253 = CARTESIAN_POINT ( 'NONE',  ( -0.2755905511811023723, 0.3937007874015748254, 0.0000000000000000000 ) ) ;
#254 = ORIENTED_EDGE ( 'NONE', *, *, #179, .F. ) ;
#255 = SURFACE_STYLE_FILL_AREA ( #568 ) ;
#256 = PRESENTATION_STYLE_ASSIGNMENT (( #529 ) ) ;
#257 = ORIENTED_EDGE ( 'NONE', *, *, #563, .F. ) ;
#258 = VECTOR ( 'NONE', #587, 39.37007874015748143 ) ;
#259 = CARTESIAN_POINT ( 'NONE',  ( 2.561450031791466333E-19, -0.2165354330702216334, 0.1496062992125984370 ) ) ;
#260 =( GEOMETRIC_REPRESENTATION_CONTEXT ( 3 ) GLOBAL_UNCERTAINTY_ASSIGNED_CONTEXT ( ( #273 ) ) GLOBAL_UNIT_ASSIGNED_CONTEXT ( ( #329, #508, #235 ) ) REPRESENTATION_CONTEXT ( 'NONE', 'WORKASPACE' ) );
#261 = AXIS2_PLACEMENT_3D ( 'NONE', #1, #463, #46 ) ;
#262 = DIRECTION ( 'NONE',  ( 0.0000000000000000000, 1.000000000000000000, 0.0000000000000000000 ) ) ;
#263 = ORIENTED_EDGE ( 'NONE', *, *, #522, .F. ) ;
#264 = DIRECTION ( 'NONE',  ( 0.0000000000000000000, 1.000000000000000000, 0.0000000000000000000 ) ) ;
#265 = ORIENTED_EDGE ( 'NONE', *, *, #94, .T. ) ;
#266 = CARTESIAN_POINT ( 'NONE',  ( 0.0000000000000000000, 0.3740157480293655468, 0.0000000000000000000 ) ) ;
#267 = ORIENTED_EDGE ( 'NONE', *, *, #132, .F. ) ;
#268 = AXIS2_PLACEMENT_3D ( 'NONE', #387, #501, #173 ) ;
#269 = CIRCLE ( 'NONE', #12, 0.2125984251927182933 ) ;
#270 =( GEOMETRIC_REPRESENTATION_CONTEXT ( 3 ) GLOBAL_UNCERTAINTY_ASSIGNED_CONTEXT ( ( #450 ) ) GLOBAL_UNIT_ASSIGNED_CONTEXT ( ( #368, #283, #470 ) ) REPRESENTATION_CONTEXT ( 'NONE', 'WORKASPACE' ) );
#271 = SURFACE_SIDE_STYLE ('',( #83 ) ) ;
#272 = STYLED_ITEM ( 'NONE', ( #148 ), #537 ) ;
#273 = UNCERTAINTY_MEASURE_WITH_UNIT (LENGTH_MEASURE( 1.000000000000000082E-05 ), #329, 'distance_accuracy_value', 'NONE');
#274 = DIRECTION ( 'NONE',  ( -0.0000000000000000000, -1.000000000000000000, -0.0000000000000000000 ) ) ;
#275 =( CONVERSION_BASED_UNIT ( 'INCH', #87 ) LENGTH_UNIT ( ) NAMED_UNIT ( #477 ) );
#276 = FACE_OUTER_BOUND ( 'NONE', #216, .T. ) ;
#277 = PRESENTATION_STYLE_ASSIGNMENT (( #186 ) ) ;
#278 = APPLICATION_CONTEXT ( 'automotive_design' ) ;
#279 = CARTESIAN_POINT ( 'NONE',  ( -0.01574401356035671704, 0.01035737729281984917, -0.1537725848201891843 ) ) ;
#280 = CARTESIAN_POINT ( 'NONE',  ( 3.620723122303614972E-19, -0.2559055118116860816, -0.1496062992125984370 ) ) ;
#281 = AXIS2_PLACEMENT_3D ( 'NONE', #400, #531, #26 ) ;
#282 = ORIENTED_EDGE ( 'NONE', *, *, #335, .F. ) ;
#283 =( NAMED_UNIT ( * ) PLANE_ANGLE_UNIT ( ) SI_UNIT ( $, .RADIAN. ) );
#284 = CARTESIAN_POINT ( 'NONE',  ( 0.004164875052423302852, 0.009702385643634320322, 0.1653543120299358904 ) ) ;
#285 = CYLINDRICAL_SURFACE ( 'NONE', #149, 0.01574803149606299885 ) ;
#286 = ORIENTED_EDGE ( 'NONE', *, *, #563, .T. ) ;
#287 =( NAMED_UNIT ( * ) PLANE_ANGLE_UNIT ( ) SI_UNIT ( $, .RADIAN. ) );
#288 = DIRECTION ( 'NONE',  ( 0.0000000000000000000, 1.000000000000000000, 0.0000000000000000000 ) ) ;
#289 = EDGE_CURVE ( 'NONE', #357, #313, #122, .T. ) ;
#290 = DIRECTION ( 'NONE',  ( 0.0000000000000000000, 0.0000000000000000000, -1.000000000000000000 ) ) ;
#291 = EDGE_LOOP ( 'NONE', ( #401, #171 ) ) ;
#292 = CARTESIAN_POINT ( 'NONE',  ( 2.184722639679639821E-18, 0.009702384544867942093, 0.1653543307086614567 ) ) ;
#293 = COLOUR_RGB ( '',1.000000000000000000, 1.000000000000000000, 1.000000000000000000 ) ;
#294 = FILL_AREA_STYLE_COLOUR ( '', #293 ) ;
#295 = EDGE_CURVE ( 'NONE', #104, #311, #146, .T. ) ;
#296 =( LENGTH_UNIT ( ) NAMED_UNIT ( * ) SI_UNIT ( $, .METRE. ) );
#297 = CARTESIAN_POINT ( 'NONE',  ( 0.004114000518186139432, 0.009702384544869348953, -0.1653543307086584868 ) ) ;
#298 = MECHANICAL_DESIGN_GEOMETRIC_PRESENTATION_REPRESENTATION (  '', ( #317 ), #270 ) ;
#299 = AXIS2_PLACEMENT_3D ( 'NONE', #338, #525, #390 ) ;
#300 = CARTESIAN_POINT ( 'NONE',  ( 3.620723122303614972E-19, -0.2559055118116860816, -0.1653543307086614012 ) ) ;
#301 = DIRECTION ( 'NONE',  ( 0.0000000000000000000, 0.0000000000000000000, -1.000000000000000000 ) ) ;
#302 = CARTESIAN_POINT ( 'NONE',  ( 0.01574879032041777080, 0.01036063181234771723, -0.1537095755710961853 ) ) ;
#303 =( CONVERSION_BASED_UNIT ( 'INCH', #17 ) LENGTH_UNIT ( ) NAMED_UNIT ( #377 ) );
#304 = FACE_OUTER_BOUND ( 'NONE', #236, .T. ) ;
#305 = DIRECTION ( 'NONE',  ( 0.0000000000000000000, 0.0000000000000000000, -1.000000000000000000 ) ) ;
#306 = ORIENTED_EDGE ( 'NONE', *, *, #309, .T. ) ;
#307 = DIMENSIONAL_EXPONENTS ( 1.000000000000000000, 0.0000000000000000000, 0.0000000000000000000, 0.0000000000000000000, 0.0000000000000000000, 0.0000000000000000000, 0.0000000000000000000 ) ;
#308 = DIRECTION ( 'NONE',  ( 0.0000000000000000000, 1.000000000000000000, 0.0000000000000000000 ) ) ;
#309 = EDGE_CURVE ( 'NONE', #76, #398, #464, .T. ) ;
#310 = DIRECTION ( 'NONE',  ( -1.000000000000000000, -9.326470300950578586E-17, 0.0000000000000000000 ) ) ;
#311 = VERTEX_POINT ( 'NONE', #452 ) ;
#312 = LENGTH_MEASURE_WITH_UNIT ( LENGTH_MEASURE( 0.02539999999999999897 ), #296 );
#313 = VERTEX_POINT ( 'NONE', #576 ) ;
#314 = LINE ( 'NONE', #585, #378 ) ;
#315 = ORIENTED_EDGE ( 'NONE', *, *, #145, .T. ) ;
#316 = AXIS2_PLACEMENT_3D ( 'NONE', #259, #308, #447 ) ;
#317 = STYLED_ITEM ( 'NONE', ( #197 ), #31 ) ;
#318 = MECHANICAL_DESIGN_GEOMETRIC_PRESENTATION_REPRESENTATION (  '', ( #272 ), #260 ) ;
#319 = EDGE_CURVE ( 'NONE', #23, #313, #388, .T. ) ;
#320 = ORIENTED_EDGE ( 'NONE', *, *, #507, .T. ) ;
#321 = CARTESIAN_POINT ( 'NONE',  ( 0.0000000000000000000, 0.3937007874056925871, 0.0000000000000000000 ) ) ;
#322 = VERTEX_POINT ( 'NONE', #214 ) ;
#323 = FILL_AREA_STYLE ('',( #547 ) ) ;
#324 =( GEOMETRIC_REPRESENTATION_CONTEXT ( 3 ) GLOBAL_UNCERTAINTY_ASSIGNED_CONTEXT ( ( #489 ) ) GLOBAL_UNIT_ASSIGNED_CONTEXT ( ( #303, #135, #363 ) ) REPRESENTATION_CONTEXT ( 'NONE', 'WORKASPACE' ) );
#325 = DIRECTION ( 'NONE',  ( 9.326470300950578586E-17, -1.000000000000000000, 0.0000000000000000000 ) ) ;
#326 = CARTESIAN_POINT ( 'NONE',  ( -0.008242746166736619751, 0.01122570459884910526, -0.1355716540848573570 ) ) ;
#327 = CARTESIAN_POINT ( 'NONE',  ( 0.01575003253054375885, 0.01077864535694320579, 0.1455078996123709834 ) ) ;
#328 =( NAMED_UNIT ( * ) SI_UNIT ( $, .STERADIAN. ) SOLID_ANGLE_UNIT ( ) );
#329 =( CONVERSION_BASED_UNIT ( 'INCH', #411 ) LENGTH_UNIT ( ) NAMED_UNIT ( #346 ) );
#330 = CARTESIAN_POINT ( 'NONE',  ( 0.008236541393897617649, 0.009804328530475405964, 0.1636435232483373359 ) ) ;
#331 = STYLED_ITEM ( 'NONE', ( #251 ), #137 ) ;
#332 = FILL_AREA_STYLE_COLOUR ( '', #457 ) ;
#333 =( LENGTH_UNIT ( ) NAMED_UNIT ( * ) SI_UNIT ( $, .METRE. ) );
#334 = ORIENTED_EDGE ( 'NONE', *, *, #152, .T. ) ;
#335 = EDGE_CURVE ( 'NONE', #48, #571, #4, .T. ) ;
#336 = VERTEX_POINT ( 'NONE', #50 ) ;
#337 =( GEOMETRIC_REPRESENTATION_CONTEXT ( 3 ) GLOBAL_UNCERTAINTY_ASSIGNED_CONTEXT ( ( #217 ) ) GLOBAL_UNIT_ASSIGNED_CONTEXT ( ( #350, #339, #123 ) ) REPRESENTATION_CONTEXT ( 'NONE', 'WORKASPACE' ) );
#338 = CARTESIAN_POINT ( 'NONE',  ( 3.488246766103562343E-17, 0.0000000000000000000, 0.0000000000000000000 ) ) ;
#339 =( NAMED_UNIT ( * ) PLANE_ANGLE_UNIT ( ) SI_UNIT ( $, .RADIAN. ) );
#340 = COLOUR_RGB ( '',0.2509803921568627416, 0.2509803921568627416, 0.2509803921568627416 ) ;
#341 = FACE_OUTER_BOUND ( 'NONE', #211, .T. ) ;
#342 = DIRECTION ( 'NONE',  ( 9.326470300950578586E-17, -1.000000000000000000, 0.0000000000000000000 ) ) ;
#343 = EDGE_LOOP ( 'NONE', ( #95, #54, #27, #254 ) ) ;
#344 = EDGE_CURVE ( 'NONE', #48, #76, #510, .T. ) ;
#345 = AXIS2_PLACEMENT_3D ( 'NONE', #352, #342, #72 ) ;
#346 = DIMENSIONAL_EXPONENTS ( 1.000000000000000000, 0.0000000000000000000, 0.0000000000000000000, 0.0000000000000000000, 0.0000000000000000000, 0.0000000000000000000, 0.0000000000000000000 ) ;
#347 = CARTESIAN_POINT ( 'NONE',  ( -0.2755905511811023723, 0.3740157480314960647, 0.0000000000000000000 ) ) ;
#348 = CARTESIAN_POINT ( 'NONE',  ( 2.184722639631672610E-18, 19685.03937007874265, 0.1653543307086614567 ) ) ;
#349 = VERTEX_POINT ( 'NONE', #364 ) ;
#350 =( CONVERSION_BASED_UNIT ( 'INCH', #213 ) LENGTH_UNIT ( ) NAMED_UNIT ( #382 ) );
#351 = FACE_OUTER_BOUND ( 'NONE', #234, .T. ) ;
#352 = CARTESIAN_POINT ( 'NONE',  ( -1.835919350580826442E-18, 0.3937007874015748254, 0.0000000000000000000 ) ) ;
#353 = CARTESIAN_POINT ( 'NONE',  ( -0.004163812061591124804, 0.009702383446382164059, 0.1653543493830084976 ) ) ;
#354 = VERTEX_POINT ( 'NONE', #92 ) ;
#355 = ADVANCED_FACE ( 'NONE', ( #276 ), #153, .F. ) ;
#356 = SURFACE_STYLE_USAGE ( .BOTH. , #166 ) ;
#357 = VERTEX_POINT ( 'NONE', #112 ) ;
#358 = MECHANICAL_DESIGN_GEOMETRIC_PRESENTATION_REPRESENTATION (  '', ( #533 ), #494 ) ;
#359 = ORIENTED_EDGE ( 'NONE', *, *, #212, .T. ) ;
#360 = LINE ( 'NONE', #505, #372 ) ;
#361 = DIRECTION ( 'NONE',  ( -0.0000000000000000000, -1.000000000000000000, -0.0000000000000000000 ) ) ;
#362 = MECHANICAL_DESIGN_GEOMETRIC_PRESENTATION_REPRESENTATION (  '', ( #458 ), #199 ) ;
#363 =( NAMED_UNIT ( * ) SI_UNIT ( $, .STERADIAN. ) SOLID_ANGLE_UNIT ( ) );
#364 = CARTESIAN_POINT ( 'NONE',  ( 0.2755905511811024278, 2.570287090813151703E-17, 3.375010863791918375E-17 ) ) ;
#365 = DIRECTION ( 'NONE',  ( -9.326470300950578586E-17, 1.000000000000000000, 0.0000000000000000000 ) ) ;
#366 =( CONVERSION_BASED_UNIT ( 'INCH', #416 ) LENGTH_UNIT ( ) NAMED_UNIT ( #307 ) );
#367 =( NAMED_UNIT ( * ) PLANE_ANGLE_UNIT ( ) SI_UNIT ( $, .RADIAN. ) );
#368 =( CONVERSION_BASED_UNIT ( 'INCH', #476 ) LENGTH_UNIT ( ) NAMED_UNIT ( #244 ) );
#369 = FILL_AREA_STYLE_COLOUR ( '', #7 ) ;
#370 = MECHANICAL_DESIGN_GEOMETRIC_PRESENTATION_REPRESENTATION (  '', ( #331 ), #337 ) ;
#371 = EDGE_LOOP ( 'NONE', ( #488, #30, #384 ) ) ;
#372 = VECTOR ( 'NONE', #361, 39.37007874015748143 ) ;
#373 = PRESENTATION_STYLE_ASSIGNMENT (( #187 ) ) ;
#374 = DIRECTION ( 'NONE',  ( -9.326470300950578586E-17, 1.000000000000000000, 0.0000000000000000000 ) ) ;
#375 = SURFACE_STYLE_USAGE ( .BOTH. , #97 ) ;
#376 = FACE_OUTER_BOUND ( 'NONE', #445, .T. ) ;
#377 = DIMENSIONAL_EXPONENTS ( 1.000000000000000000, 0.0000000000000000000, 0.0000000000000000000, 0.0000000000000000000, 0.0000000000000000000, 0.0000000000000000000, 0.0000000000000000000 ) ;
#378 = VECTOR ( 'NONE', #75, 39.37007874015748854 ) ;
#379 = UNCERTAINTY_MEASURE_WITH_UNIT (LENGTH_MEASURE( 1.000000000000000082E-05 ), #183, 'distance_accuracy_value', 'NONE');
#380 =( GEOMETRIC_REPRESENTATION_CONTEXT ( 3 ) GLOBAL_UNCERTAINTY_ASSIGNED_CONTEXT ( ( #40 ) ) GLOBAL_UNIT_ASSIGNED_CONTEXT ( ( #275, #399, #78 ) ) REPRESENTATION_CONTEXT ( 'NONE', 'WORKASPACE' ) );
#381 = SHAPE_DEFINITION_REPRESENTATION ( #592, #198 ) ;
#382 = DIMENSIONAL_EXPONENTS ( 1.000000000000000000, 0.0000000000000000000, 0.0000000000000000000, 0.0000000000000000000, 0.0000000000000000000, 0.0000000000000000000, 0.0000000000000000000 ) ;
#383 = DIRECTION ( 'NONE',  ( -1.000000000000000000, -8.745541757180672400E-17, 3.487857288809649633E-34 ) ) ;
#384 = ORIENTED_EDGE ( 'NONE', *, *, #545, .F. ) ;
#385 = DIMENSIONAL_EXPONENTS ( 1.000000000000000000, 0.0000000000000000000, 0.0000000000000000000, 0.0000000000000000000, 0.0000000000000000000, 0.0000000000000000000, 0.0000000000000000000 ) ;
#386 = AXIS2_PLACEMENT_3D ( 'NONE', #180, #553, #383 ) ;
#387 = CARTESIAN_POINT ( 'NONE',  ( 0.0000000000000000000, 0.3740157480314960647, 0.0000000000000000000 ) ) ;
#388 = LINE ( 'NONE', #348, #196 ) ;
#389 = EDGE_LOOP ( 'NONE', ( #167, #265, #472, #540 ) ) ;
#390 = DIRECTION ( 'NONE',  ( -1.000000000000000000, -9.326470300950578586E-17, 0.0000000000000000000 ) ) ;
#391 = DIRECTION ( 'NONE',  ( 0.0000000000000000000, 0.0000000000000000000, 1.000000000000000000 ) ) ;
#392 = ORIENTED_EDGE ( 'NONE', *, *, #193, .T. ) ;
#393 = PRODUCT_DEFINITION_CONTEXT ( 'detailed design', #278, 'design' ) ;
#394 = EDGE_CURVE ( 'NONE', #336, #349, #61, .T. ) ;
#395 = CARTESIAN_POINT ( 'NONE',  ( 3.620723122303614972E-19, 19685.03937007874265, -0.1496062992125984370 ) ) ;
#396 = CARTESIAN_POINT ( 'NONE',  ( 2.290649948756316105E-18, 0.01129263868198669002, -0.1338582677165354451 ) ) ;
#397 = DIRECTION ( 'NONE',  ( -8.745541757180672400E-17, 1.000000000000000000, 1.249363108168667596E-17 ) ) ;
#398 = VERTEX_POINT ( 'NONE', #300 ) ;
#399 =( NAMED_UNIT ( * ) PLANE_ANGLE_UNIT ( ) SI_UNIT ( $, .RADIAN. ) );
#400 = CARTESIAN_POINT ( 'NONE',  ( -0.2559055118110235560, -3.942103598592113872E-18, 0.0000000000000000000 ) ) ;
#401 = ORIENTED_EDGE ( 'NONE', *, *, #522, .T. ) ;
#402 = PRESENTATION_LAYER_ASSIGNMENT (  '', '', ( #331 ) ) ;
#403 = TOROIDAL_SURFACE ( 'NONE', #386, 0.09468570483284834138, 1.089239404438167247 ) ;
#404 = AXIS2_PLACEMENT_3D ( 'NONE', #242, #374, #560 ) ;
#405 = CARTESIAN_POINT ( 'NONE',  ( 7.687394531133817589E-15, 0.009702384544863239257, -0.1653543307087397551 ) ) ;
#406 = CARTESIAN_POINT ( 'NONE',  ( 9.057762116163651383E-15, 0.01129263868198999467, 0.1338582677164545653 ) ) ;
#407 = CARTESIAN_POINT ( 'NONE',  ( -0.01403562314710924894, 0.01013339393375126823, -0.1578442049650251866 ) ) ;
#408 = EDGE_CURVE ( 'NONE', #336, #222, #160, .T. ) ;
#409 = FACE_BOUND ( 'NONE', #70, .T. ) ;
#410 = PRESENTATION_STYLE_ASSIGNMENT (( #226 ) ) ;
#411 = LENGTH_MEASURE_WITH_UNIT ( LENGTH_MEASURE( 0.02539999999999999897 ), #91 );
#412 = AXIS2_PLACEMENT_3D ( 'NONE', #86, #274, #460 ) ;
#413 = SURFACE_STYLE_FILL_AREA ( #143 ) ;
#414 = SURFACE_STYLE_FILL_AREA ( #230 ) ;
#415 = CARTESIAN_POINT ( 'NONE',  ( 0.0000000000000000000, 0.3937007874056925871, 0.0000000000000000000 ) ) ;
#416 = LENGTH_MEASURE_WITH_UNIT ( LENGTH_MEASURE( 0.02539999999999999897 ), #593 );
#417 = ADVANCED_FACE ( 'NONE', ( #572, #351 ), #116, .T. ) ;
#418 = EDGE_LOOP ( 'NONE', ( #492, #80, #392, #33 ) ) ;
#419 = CARTESIAN_POINT ( 'NONE',  ( 2.724115911476847295E-17, 0.3740157480293655468, -0.2125984251927182933 ) ) ;
#420 = PLANE ( 'NONE',  #85 ) ;
#421 = CARTESIAN_POINT ( 'NONE',  ( 9.057762116163651383E-15, 0.01129263868198999467, 0.1338582677164545653 ) ) ;
#422 = EDGE_LOOP ( 'NONE', ( #162, #142, #449, #497 ) ) ;
#423 = LENGTH_MEASURE_WITH_UNIT ( LENGTH_MEASURE( 0.02539999999999999897 ), #333 );
#424 = CARTESIAN_POINT ( 'NONE',  ( 2.184722639679639821E-18, 0.009702384544867942093, 0.1653543307086614567 ) ) ;
#425 = MECHANICAL_DESIGN_GEOMETRIC_PRESENTATION_REPRESENTATION (  '', ( #188 ), #324 ) ;
#426 = SURFACE_STYLE_FILL_AREA ( #515 ) ;
#427 = PRODUCT ( 'CUI_DEVICES_CPT-1495CI-300', 'CUI_DEVICES_CPT-1495CI-300', '', ( #436 ) ) ;
#428 = CIRCLE ( 'NONE', #141, 0.01574803149606298150 ) ;
#429 = ORIENTED_EDGE ( 'NONE', *, *, #500, .F. ) ;
#430 = CYLINDRICAL_SURFACE ( 'NONE', #47, 0.01574803149606299885 ) ;
#431 = PRODUCT_RELATED_PRODUCT_CATEGORY ( 'part', '', ( #427 ) ) ;
#432 = SURFACE_STYLE_FILL_AREA ( #475 ) ;
#433 = STYLED_ITEM ( 'NONE', ( #410 ), #355 ) ;
#434 = VECTOR ( 'NONE', #225, 39.37007874015748143 ) ;
#435 = CARTESIAN_POINT ( 'NONE',  ( 3.488246766103562343E-17, 0.0000000000000000000, 0.0000000000000000000 ) ) ;
#436 = PRODUCT_CONTEXT ( 'NONE', #588, 'mechanical' ) ;
#437 = SURFACE_SIDE_STYLE ('',( #68 ) ) ;
#438 = CARTESIAN_POINT ( 'NONE',  ( 0.004164711937820708872, 0.01129263954312722563, -0.1338582463061942507 ) ) ;
#439 = CARTESIAN_POINT ( 'NONE',  ( 2.561450031791466333E-19, -0.2165354330708661457, 0.1496062992125984370 ) ) ;
#440 = CARTESIAN_POINT ( 'NONE',  ( 0.0000000000000000000, 0.3740157480293655468, 0.0000000000000000000 ) ) ;
#441 = ORIENTED_EDGE ( 'NONE', *, *, #145, .F. ) ;
#442 = SURFACE_SIDE_STYLE ('',( #255 ) ) ;
#443 = COLOUR_RGB ( '',0.7529411764705882248, 0.7529411764705882248, 0.0000000000000000000 ) ;
#444 = EDGE_CURVE ( 'NONE', #349, #336, #101, .T. ) ;
#445 = EDGE_LOOP ( 'NONE', ( #429, #552 ) ) ;
#446 = CONICAL_SURFACE ( 'NONE', #170, 0.2322834645690453337, 0.7853981633974482790 ) ;
#447 = DIRECTION ( 'NONE',  ( 0.0000000000000000000, 0.0000000000000000000, -1.000000000000000000 ) ) ;
#448 = FACE_OUTER_BOUND ( 'NONE', #422, .T. ) ;
#449 = ORIENTED_EDGE ( 'NONE', *, *, #507, .F. ) ;
#450 = UNCERTAINTY_MEASURE_WITH_UNIT (LENGTH_MEASURE( 1.000000000000000082E-05 ), #368, 'distance_accuracy_value', 'NONE');
#451 = DIRECTION ( 'NONE',  ( 0.0000000000000000000, 0.7071067811865474617, 0.7071067811865474617 ) ) ;
#452 = CARTESIAN_POINT ( 'NONE',  ( 0.0000000000000000000, 0.3740157480293655468, 0.2125984251927182933 ) ) ;
#453 = ORIENTED_EDGE ( 'NONE', *, *, #319, .T. ) ;
#454 = LINE ( 'NONE', #39, #434 ) ;
#455 = CARTESIAN_POINT ( 'NONE',  ( -0.01574532139807942321, 0.01078182264374813112, 0.1454447211067487478 ) ) ;
#456 = AXIS2_PLACEMENT_3D ( 'NONE', #107, #120, #248 ) ;
#457 = COLOUR_RGB ( '',0.7529411764705882248, 0.7529411764705882248, 0.0000000000000000000 ) ;
#458 = STYLED_ITEM ( 'NONE', ( #373 ), #198 ) ;
#459 = ADVANCED_FACE ( 'NONE', ( #341 ), #468, .T. ) ;
#460 = DIRECTION ( 'NONE',  ( 0.0000000000000000000, 0.0000000000000000000, 1.000000000000000000 ) ) ;
#461 = DIRECTION ( 'NONE',  ( 0.0000000000000000000, 0.0000000000000000000, 1.000000000000000000 ) ) ;
#462 = CARTESIAN_POINT ( 'NONE',  ( 7.687394531133817589E-15, 0.009702384544863239257, -0.1653543307087397551 ) ) ;
#463 = DIRECTION ( 'NONE',  ( -1.092635723237011606E-33, 1.249363108168667596E-17, -1.000000000000000000 ) ) ;
#464 = CIRCLE ( 'NONE', #93, 0.01574803149606298150 ) ;
#465 = AXIS2_PLACEMENT_3D ( 'NONE', #138, #51, #102 ) ;
#466 =( NAMED_UNIT ( * ) SI_UNIT ( $, .STERADIAN. ) SOLID_ANGLE_UNIT ( ) );
#467 = ORIENTED_EDGE ( 'NONE', *, *, #193, .F. ) ;
#468 = CYLINDRICAL_SURFACE ( 'NONE', #504, 0.01574803149606298150 ) ;
#469 = CARTESIAN_POINT ( 'NONE',  ( 2.561450031791466333E-19, 19685.03937007874265, 0.1496062992125984370 ) ) ;
#470 =( NAMED_UNIT ( * ) SI_UNIT ( $, .STERADIAN. ) SOLID_ANGLE_UNIT ( ) );
#471 = CARTESIAN_POINT ( 'NONE',  ( 0.0000000000000000000, 0.3937007874056925871, 0.0000000000000000000 ) ) ;
#472 = ORIENTED_EDGE ( 'NONE', *, *, #43, .T. ) ;
#473 = PRESENTATION_LAYER_ASSIGNMENT (  '', '', ( #433 ) ) ;
#474 = VERTEX_POINT ( 'NONE', #182 ) ;
#475 = FILL_AREA_STYLE ('',( #294 ) ) ;
#476 = LENGTH_MEASURE_WITH_UNIT ( LENGTH_MEASURE( 0.02539999999999999897 ), #185 );
#477 = DIMENSIONAL_EXPONENTS ( 1.000000000000000000, 0.0000000000000000000, 0.0000000000000000000, 0.0000000000000000000, 0.0000000000000000000, 0.0000000000000000000, 0.0000000000000000000 ) ;
#478 = EDGE_CURVE ( 'NONE', #354, #23, #215, .T. ) ;
#479 = CARTESIAN_POINT ( 'NONE',  ( 0.008203065240548770842, 0.009802412418754858844, -0.1636773061114134564 ) ) ;
#480 = CIRCLE ( 'NONE', #412, 0.2322834645690453337 ) ;
#481 = CARTESIAN_POINT ( 'NONE',  ( 0.01574727213351450120, 0.01077916567216785984, -0.1454972003109256395 ) ) ;
#482 =( NAMED_UNIT ( * ) PLANE_ANGLE_UNIT ( ) SI_UNIT ( $, .RADIAN. ) );
#483 = CYLINDRICAL_SURFACE ( 'NONE', #268, 0.2755905511811023723 ) ;
#484 = ORIENTED_EDGE ( 'NONE', *, *, #478, .T. ) ;
#485 = FACE_OUTER_BOUND ( 'NONE', #418, .T. ) ;
#486 = FILL_AREA_STYLE ('',( #202 ) ) ;
#487 = CARTESIAN_POINT ( 'NONE',  ( -0.004112965819704748199, 0.01129263868198817841, 0.1338582677165313095 ) ) ;
#488 = ORIENTED_EDGE ( 'NONE', *, *, #20, .F. ) ;
#489 = UNCERTAINTY_MEASURE_WITH_UNIT (LENGTH_MEASURE( 1.000000000000000082E-05 ), #303, 'distance_accuracy_value', 'NONE');
#490 = ORIENTED_EDGE ( 'NONE', *, *, #444, .F. ) ;
#491 = DIRECTION ( 'NONE',  ( -0.0000000000000000000, -1.000000000000000000, -0.0000000000000000000 ) ) ;
#492 = ORIENTED_EDGE ( 'NONE', *, *, #344, .F. ) ;
#493 =( GEOMETRIC_REPRESENTATION_CONTEXT ( 3 ) GLOBAL_UNCERTAINTY_ASSIGNED_CONTEXT ( ( #379 ) ) GLOBAL_UNIT_ASSIGNED_CONTEXT ( ( #183, #136, #328 ) ) REPRESENTATION_CONTEXT ( 'NONE', 'WORKASPACE' ) );
#494 =( GEOMETRIC_REPRESENTATION_CONTEXT ( 3 ) GLOBAL_UNCERTAINTY_ASSIGNED_CONTEXT ( ( #239 ) ) GLOBAL_UNIT_ASSIGNED_CONTEXT ( ( #366, #367, #466 ) ) REPRESENTATION_CONTEXT ( 'NONE', 'WORKASPACE' ) );
#495 = CARTESIAN_POINT ( 'NONE',  ( 0.0000000000000000000, 0.3937007874056925871, 0.2322834645690453337 ) ) ;
#496 = PRESENTATION_STYLE_ASSIGNMENT (( #356 ) ) ;
#497 = ORIENTED_EDGE ( 'NONE', *, *, #119, .F. ) ;
#498 = CARTESIAN_POINT ( 'NONE',  ( 2.561450031791466333E-19, -0.2165354330702216334, 0.1496062992125984370 ) ) ;
#499 = ORIENTED_EDGE ( 'NONE', *, *, #394, .F. ) ;
#500 = EDGE_CURVE ( 'NONE', #398, #76, #428, .T. ) ;
#501 = DIRECTION ( 'NONE',  ( -9.326470300950578586E-17, 1.000000000000000000, 0.0000000000000000000 ) ) ;
#502 = CARTESIAN_POINT ( 'NONE',  ( -0.01405253907109980070, 0.01097081204395843577, -0.1413940964699664793 ) ) ;
#503 = DIRECTION ( 'NONE',  ( -1.000000000000000000, 0.0000000000000000000, 0.0000000000000000000 ) ) ;
#504 = AXIS2_PLACEMENT_3D ( 'NONE', #53, #237, #290 ) ;
#505 = CARTESIAN_POINT ( 'NONE',  ( 2.561450031791466333E-19, 19685.03937007874265, 0.1338582677165354173 ) ) ;
#506 = CARTESIAN_POINT ( 'NONE',  ( -1.835919350580826442E-18, 0.3937007874015748254, 0.0000000000000000000 ) ) ;
#507 = EDGE_CURVE ( 'NONE', #536, #127, #209, .T. ) ;
#508 =( NAMED_UNIT ( * ) PLANE_ANGLE_UNIT ( ) SI_UNIT ( $, .RADIAN. ) );
#509 = ORIENTED_EDGE ( 'NONE', *, *, #289, .F. ) ;
#510 = LINE ( 'NONE', #42, #549 ) ;
#511 = DIRECTION ( 'NONE',  ( -9.326470300950578586E-17, 1.000000000000000000, 0.0000000000000000000 ) ) ;
#512 = MECHANICAL_DESIGN_GEOMETRIC_PRESENTATION_REPRESENTATION (  '', ( #591 ), #63 ) ;
#513 = ORIENTED_EDGE ( 'NONE', *, *, #319, .F. ) ;
#514 = CARTESIAN_POINT ( 'NONE',  ( 0.008203653497996126961, 0.01122728827413249468, 0.1355352241155241833 ) ) ;
#515 = FILL_AREA_STYLE ('',( #332 ) ) ;
#516 = CARTESIAN_POINT ( 'NONE',  ( 0.004113876283662827420, 0.01129263868198788351, 0.1338582677165387480 ) ) ;
#517 = ADVANCED_FACE ( 'NONE', ( #6 ), #285, .T. ) ;
#518 = UNCERTAINTY_MEASURE_WITH_UNIT (LENGTH_MEASURE( 1.000000000000000082E-05 ), #249, 'distance_accuracy_value', 'NONE');
#519 = AXIS2_PLACEMENT_3D ( 'NONE', #440, #161, #210 ) ;
#520 = CARTESIAN_POINT ( 'NONE',  ( 0.0000000000000000000, 0.3937007874056925871, 0.2322834645690453337 ) ) ;
#521 = EDGE_LOOP ( 'NONE', ( #513, #359, #286, #542 ) ) ;
#522 = EDGE_CURVE ( 'NONE', #577, #474, #64, .T. ) ;
#523 = FILL_AREA_STYLE ('',( #150 ) ) ;
#524 = DIRECTION ( 'NONE',  ( 0.0000000000000000000, 0.0000000000000000000, -1.000000000000000000 ) ) ;
#525 = DIRECTION ( 'NONE',  ( -9.326470300950578586E-17, 1.000000000000000000, 0.0000000000000000000 ) ) ;
#526 = CIRCLE ( 'NONE', #345, 0.2755905511811023723 ) ;
#527 = PRESENTATION_LAYER_ASSIGNMENT (  '', '', ( #188 ) ) ;
#528 = PRESENTATION_LAYER_ASSIGNMENT (  '', '', ( #317 ) ) ;
#529 = SURFACE_STYLE_USAGE ( .BOTH. , #437 ) ;
#530 = DIRECTION ( 'NONE',  ( -1.224646799147353207E-16, -1.249363108168668674E-17, 1.000000000000000000 ) ) ;
#531 = DIRECTION ( 'NONE',  ( 9.326470300950578586E-17, -1.000000000000000000, 0.0000000000000000000 ) ) ;
#532 = ORIENTED_EDGE ( 'NONE', *, *, #478, .F. ) ;
#533 = STYLED_ITEM ( 'NONE', ( #277 ), #517 ) ;
#534 = APPLICATION_PROTOCOL_DEFINITION ( 'draft international standard', 'automotive_design', 1998, #278 ) ;
#535 = FACE_OUTER_BOUND ( 'NONE', #574, .T. ) ;
#536 = VERTEX_POINT ( 'NONE', #520 ) ;
#537 = ADVANCED_FACE ( 'NONE', ( #106 ), #420, .T. ) ;
#538 = DIRECTION ( 'NONE',  ( 0.0000000000000000000, 1.000000000000000000, 0.0000000000000000000 ) ) ;
#539 = CARTESIAN_POINT ( 'NONE',  ( -0.008226652189964534651, 0.01122601921838518868, 0.1355637101920580956 ) ) ;
#540 = ORIENTED_EDGE ( 'NONE', *, *, #408, .F. ) ;
#541 = COLOUR_RGB ( '',0.7529411764705882248, 0.7529411764705882248, 0.0000000000000000000 ) ;
#542 = ORIENTED_EDGE ( 'NONE', *, *, #289, .T. ) ;
#543 = STYLED_ITEM ( 'NONE', ( #561 ), #10 ) ;
#544 = CARTESIAN_POINT ( 'NONE',  ( 5.122214988120493535E-17, -1.077242151987533925, -1.355704108046179510E-17 ) ) ;
#545 = EDGE_CURVE ( 'NONE', #577, #155, #594, .T. ) ;
#546 = ORIENTED_EDGE ( 'NONE', *, *, #344, .T. ) ;
#547 = FILL_AREA_STYLE_COLOUR ( '', #541 ) ;
#548 = CYLINDRICAL_SURFACE ( 'NONE', #177, 0.2755905511811023723 ) ;
#549 = VECTOR ( 'NONE', #231, 39.37007874015748143 ) ;
#550 = PRESENTATION_LAYER_ASSIGNMENT (  '', '', ( #533 ) ) ;
#551 = CARTESIAN_POINT ( 'NONE',  ( 0.01408125570998042773, 0.01096968336347678256, 0.1414201326657444635 ) ) ;
#552 = ORIENTED_EDGE ( 'NONE', *, *, #309, .F. ) ;
#553 = DIRECTION ( 'NONE',  ( -8.745541757180672400E-17, 1.000000000000000000, 1.249363108168667596E-17 ) ) ;
#554 = DIRECTION ( 'NONE',  ( -1.000000000000000000, -9.326470300950578586E-17, 0.0000000000000000000 ) ) ;
#555 = CIRCLE ( 'NONE', #45, 0.2755905511811023723 ) ;
#556 = PRESENTATION_LAYER_ASSIGNMENT (  '', '', ( #591 ) ) ;
#557 = PRESENTATION_LAYER_ASSIGNMENT (  '', '', ( #458 ) ) ;
#558 = FACE_OUTER_BOUND ( 'NONE', #521, .T. ) ;
#559 = ADVANCED_FACE ( 'NONE', ( #232 ), #446, .F. ) ;
#560 = DIRECTION ( 'NONE',  ( -1.000000000000000000, -9.326470300950578586E-17, 0.0000000000000000000 ) ) ;
#561 = PRESENTATION_STYLE_ASSIGNMENT (( #375 ) ) ;
#562 = FILL_AREA_STYLE ('',( #189 ) ) ;
#563 = EDGE_CURVE ( 'NONE', #354, #357, #360, .T. ) ;
#564 = PRESENTATION_LAYER_ASSIGNMENT (  '', '', ( #272 ) ) ;
#565 =( LENGTH_UNIT ( ) NAMED_UNIT ( * ) SI_UNIT ( $, .METRE. ) );
#566 = DIMENSIONAL_EXPONENTS ( 1.000000000000000000, 0.0000000000000000000, 0.0000000000000000000, 0.0000000000000000000, 0.0000000000000000000, 0.0000000000000000000, 0.0000000000000000000 ) ;
#567 = EDGE_LOOP ( 'NONE', ( #441, #282 ) ) ;
#568 = FILL_AREA_STYLE ('',( #115 ) ) ;
#569 = DIRECTION ( 'NONE',  ( 0.0000000000000000000, 0.0000000000000000000, 1.000000000000000000 ) ) ;
#570 = FACE_BOUND ( 'NONE', #291, .T. ) ;
#571 = VERTEX_POINT ( 'NONE', #405 ) ;
#572 = FACE_BOUND ( 'NONE', #582, .T. ) ;
#573 = CARTESIAN_POINT ( 'NONE',  ( 3.620723122303614972E-19, -0.2559055118116860816, -0.1496062992125984370 ) ) ;
#574 = EDGE_LOOP ( 'NONE', ( #499, #490 ) ) ;
#575 = CARTESIAN_POINT ( 'NONE',  ( 0.09468570483284838302, -1.077242151987533925, -1.961386545605916565E-18 ) ) ;
#576 = CARTESIAN_POINT ( 'NONE',  ( 2.184722639631670684E-18, -0.2165354330702216334, 0.1653543307086614567 ) ) ;
#577 = VERTEX_POINT ( 'NONE', #224 ) ;
#578 = CARTESIAN_POINT ( 'NONE',  ( -4.367713768202760106E-17, 0.007874015748031584425, -1.895600338963814870E-33 ) ) ;
#579 = PRODUCT_DEFINITION ( 'UNKNOWN', '', #59, #393 ) ;
#580 = AXIS2_PLACEMENT_3D ( 'NONE', #498, #79, #305 ) ;
#581 = FILL_AREA_STYLE_COLOUR ( '', #340 ) ;
#582 = EDGE_LOOP ( 'NONE', ( #320, #238 ) ) ;
#583 = CIRCLE ( 'NONE', #14, 0.2559055118110243887 ) ;
#584 = CARTESIAN_POINT ( 'NONE',  ( 2.290649948756316105E-18, 0.01129263868198669002, -0.1338582677165354451 ) ) ;
#585 = CARTESIAN_POINT ( 'NONE',  ( 2.844652013793389760E-17, 0.3937007874056925871, -0.2322834645690453337 ) ) ;
#586 = DIRECTION ( 'NONE',  ( 0.0000000000000000000, 0.0000000000000000000, 1.000000000000000000 ) ) ;
#587 = DIRECTION ( 'NONE',  ( -0.0000000000000000000, -1.000000000000000000, -0.0000000000000000000 ) ) ;
#588 = APPLICATION_CONTEXT ( 'automotive_design' ) ;
#589 = CIRCLE ( 'NONE', #316, 0.01574803149606299885 ) ;
#590 = DIRECTION ( 'NONE',  ( -1.000000000000000000, -9.326470300950578586E-17, 0.0000000000000000000 ) ) ;
#591 = STYLED_ITEM ( 'NONE', ( #496 ), #98 ) ;
#592 = PRODUCT_DEFINITION_SHAPE ( 'NONE', 'NONE',  #579 ) ;
#593 =( LENGTH_UNIT ( ) NAMED_UNIT ( * ) SI_UNIT ( $, .METRE. ) );
#594 = CIRCLE ( 'NONE', #261, 1.089239404438167247 ) ;
#595 = B_SPLINE_CURVE_WITH_KNOTS ( 'NONE', 3,
 ( #117, #353, #218, #35, #22, #455, #169, #539, #487, #406 ),
 .UNSPECIFIED., .F., .F.,
 ( 4, 2, 2, 2, 4 ),
 ( 0.0000000000000000000, 0.0003155291627449421910, 0.0006310583254898843820, 0.0009465874882348252178, 0.001262116650979766162 ),
 .UNSPECIFIED. ) ;
ENDSEC;
END-ISO-10303-21;
