ISO-10303-21;
HEADER;
FILE_DESCRIPTION (( 'STEP AP214' ),
    '1' );
FILE_NAME ('MKP2C021001B00JA00.STEP',
    '2026-01-22T14:55:16',
    ( 'LENOVO' ),
    ( '' ),
    'SwSTEP 2.0',
    'SolidWorks 2021',
    '' );
FILE_SCHEMA (( 'AUTOMOTIVE_DESIGN' ));
ENDSEC;

DATA;
#1 = CYLINDRICAL_SURFACE ( 'NONE', #139, 0.2500000000000003886 ) ;
#2 = ADVANCED_FACE ( 'NONE', ( #764 ), #771, .T. ) ;
#3 = DIRECTION ( 'NONE',  ( 0.000000000000000000, -1.000000000000000000, 0.000000000000000000 ) ) ;
#4 = AXIS2_PLACEMENT_3D ( 'NONE', #1212, #1238, #504 ) ;
#5 = ORIENTED_EDGE ( 'NONE', *, *, #156, .T. ) ;
#6 = FACE_OUTER_BOUND ( 'NONE', #1018, .T. ) ;
#7 = ORIENTED_EDGE ( 'NONE', *, *, #530, .T. ) ;
#8 = EDGE_CURVE ( 'NONE', #758, #848, #768, .T. ) ;
#9 = FACE_OUTER_BOUND ( 'NONE', #874, .T. ) ;
#10 = ORIENTED_EDGE ( 'NONE', *, *, #778, .T. ) ;
#11 = LINE ( 'NONE', #575, #471 ) ;
#12 = DIRECTION ( 'NONE',  ( 0.000000000000000000, 0.000000000000000000, -1.000000000000000000 ) ) ;
#13 = SURFACE_STYLE_USAGE ( .BOTH. , #104 ) ;
#14 = ORIENTED_EDGE ( 'NONE', *, *, #323, .F. ) ;
#15 = PRESENTATION_STYLE_ASSIGNMENT (( #951 ) ) ;
#16 = DIRECTION ( 'NONE',  ( 0.000000000000000000, -1.000000000000000000, 0.000000000000000000 ) ) ;
#17 = CARTESIAN_POINT ( 'NONE',  ( 2.000000000000004441, 0.1875000000000000000, -1.500000000000001332 ) ) ;
#18 = FACE_OUTER_BOUND ( 'NONE', #209, .T. ) ;
#19 = DIRECTION ( 'NONE',  ( 0.000000000000000000, 0.000000000000000000, -1.000000000000000000 ) ) ;
#20 = ORIENTED_EDGE ( 'NONE', *, *, #1231, .F. ) ;
#21 = VECTOR ( 'NONE', #942, 1000.000000000000000 ) ;
#22 = LINE ( 'NONE', #1173, #443 ) ;
#23 = FACE_OUTER_BOUND ( 'NONE', #1164, .T. ) ;
#24 = ORIENTED_EDGE ( 'NONE', *, *, #1029, .F. ) ;
#25 = LINE ( 'NONE', #797, #439 ) ;
#26 = CARTESIAN_POINT ( 'NONE',  ( 2.000000000000004441, 0.1875000000000000000, 0.000000000000000000 ) ) ;
#27 = DIRECTION ( 'NONE',  ( 0.9659258262890689783, -0.2588190451025185190, 0.000000000000000000 ) ) ;
#28 = AXIS2_PLACEMENT_3D ( 'NONE', #978, #981, #801 ) ;
#29 = EDGE_LOOP ( 'NONE', ( #372, #444, #1083, #1200 ) ) ;
#30 = LINE ( 'NONE', #973, #423 ) ;
#31 = CARTESIAN_POINT ( 'NONE',  ( -3.600000000000005862, 7.349999999999999645, -1.500000000000001332 ) ) ;
#32 = AXIS2_PLACEMENT_3D ( 'NONE', #83, #236, #946 ) ;
#33 = CARTESIAN_POINT ( 'NONE',  ( 1.150240473580838030, 0.000000000000000000, 0.000000000000000000 ) ) ;
#34 = VERTEX_POINT ( 'NONE', #972 ) ;
#35 = EDGE_CURVE ( 'NONE', #264, #1109, #333, .T. ) ;
#36 = DIRECTION ( 'NONE',  ( 0.000000000000000000, 0.000000000000000000, -1.000000000000000000 ) ) ;
#37 = ORIENTED_EDGE ( 'NONE', *, *, #1046, .T. ) ;
#38 = VECTOR ( 'NONE', #686, 1000.000000000000000 ) ;
#39 = VERTEX_POINT ( 'NONE', #17 ) ;
#40 = FACE_OUTER_BOUND ( 'NONE', #1078, .T. ) ;
#41 = CARTESIAN_POINT ( 'NONE',  ( -2.499999999999998668, -12.70710678118654791, 0.2500000000000003886 ) ) ;
#42 = DIRECTION ( 'NONE',  ( 1.000000000000000000, 0.000000000000000000, 4.818676322157799347E-16 ) ) ;
#43 = ORIENTED_EDGE ( 'NONE', *, *, #117, .F. ) ;
#44 = LINE ( 'NONE', #417, #844 ) ;
#45 = CARTESIAN_POINT ( 'NONE',  ( 0.000000000000000000, -6.000000000000000000, 0.000000000000000000 ) ) ;
#46 = ORIENTED_EDGE ( 'NONE', *, *, #996, .F. ) ;
#47 = VECTOR ( 'NONE', #214, 1000.000000000000000 ) ;
#48 = ORIENTED_EDGE ( 'NONE', *, *, #144, .T. ) ;
#49 = LINE ( 'NONE', #967, #872 ) ;
#50 = AXIS2_PLACEMENT_3D ( 'NONE', #714, #1135, #145 ) ;
#51 = VECTOR ( 'NONE', #772, 1000.000000000000000 ) ;
#52 = DIRECTION ( 'NONE',  ( 0.000000000000000000, -1.000000000000000000, 0.000000000000000000 ) ) ;
#53 = CARTESIAN_POINT ( 'NONE',  ( 2.499999999999998668, 0.1875000000000000000, -0.2500000000000003886 ) ) ;
#54 = EDGE_CURVE ( 'NONE', #403, #590, #1174, .T. ) ;
#55 = CARTESIAN_POINT ( 'NONE',  ( 2.499999999999998668, 0.1875000000000000000, 0.000000000000000000 ) ) ;
#56 = CARTESIAN_POINT ( 'NONE',  ( -3.600000000000005862, 0.1875000000000000000, 0.000000000000000000 ) ) ;
#57 = CYLINDRICAL_SURFACE ( 'NONE', #1157, 0.1499999999999999667 ) ;
#58 = DIRECTION ( 'NONE',  ( 0.000000000000000000, 0.000000000000000000, 1.000000000000000000 ) ) ;
#59 = ORIENTED_EDGE ( 'NONE', *, *, #103, .T. ) ;
#60 = LINE ( 'NONE', #67, #878 ) ;
#61 = DIRECTION ( 'NONE',  ( 0.000000000000000000, 0.000000000000000000, -1.000000000000000000 ) ) ;
#62 = DIRECTION ( 'NONE',  ( -0.2588190451025185190, -0.9659258262890689783, 0.000000000000000000 ) ) ;
#63 = AXIS2_PLACEMENT_3D ( 'NONE', #1205, #629, #1076 ) ;
#64 = DIRECTION ( 'NONE',  ( -1.000000000000000000, 0.000000000000000000, 1.927470528863115795E-15 ) ) ;
#65 = LINE ( 'NONE', #571, #899 ) ;
#66 = VECTOR ( 'NONE', #1082, 1000.000000000000000 ) ;
#67 = CARTESIAN_POINT ( 'NONE',  ( 2.499999999999998668, -12.70710678118654791, -0.2500000000000003886 ) ) ;
#68 = VECTOR ( 'NONE', #616, 1000.000000000000114 ) ;
#69 = DIRECTION ( 'NONE',  ( -0.000000000000000000, -1.000000000000000000, 0.000000000000000000 ) ) ;
#70 = CARTESIAN_POINT ( 'NONE',  ( -1.949759526419168276, 0.000000000000000000, -1.500000000000001332 ) ) ;
#71 = LINE ( 'NONE', #939, #511 ) ;
#72 = VECTOR ( 'NONE', #1181, 1000.000000000000000 ) ;
#73 = EDGE_CURVE ( 'NONE', #649, #840, #1142, .T. ) ;
#74 = CYLINDRICAL_SURFACE ( 'NONE', #111, 0.2500000000000003886 ) ;
#75 = DIRECTION ( 'NONE',  ( 1.000000000000000000, 0.000000000000000000, 0.000000000000000000 ) ) ;
#76 = PRODUCT_DEFINITION_FORMATION_WITH_SPECIFIED_SOURCE ( 'ANY', '', #704, .NOT_KNOWN. ) ;
#77 = VECTOR ( 'NONE', #140, 1000.000000000000000 ) ;
#78 = CARTESIAN_POINT ( 'NONE',  ( -3.450000000000005951, 7.500000000000000000, -1.350000000000001421 ) ) ;
#79 = CARTESIAN_POINT ( 'NONE',  ( 0.000000000000000000, 0.1875000000000000000, -1.500000000000001332 ) ) ;
#80 = AXIS2_PLACEMENT_3D ( 'NONE', #532, #276, #129 ) ;
#81 = VECTOR ( 'NONE', #210, 1000.000000000000000 ) ;
#82 = ADVANCED_FACE ( 'NONE', ( #752 ), #360, .T. ) ;
#83 = CARTESIAN_POINT ( 'NONE',  ( -1.099999999999945688, 0.1875000000000018874, 9.367506770274327907E-14 ) ) ;
#84 = VECTOR ( 'NONE', #314, 1000.000000000000000 ) ;
#85 = VECTOR ( 'NONE', #513, 1000.000000000000114 ) ;
#86 = ADVANCED_FACE ( 'NONE', ( #754 ), #1227, .F. ) ;
#87 = APPLICATION_CONTEXT ( 'automotive_design' ) ;
#88 = CARTESIAN_POINT ( 'NONE',  ( 2.120217581749411084E-15, 0.1875000000000000000, -1.099999999999991651 ) ) ;
#89 = LINE ( 'NONE', #175, #501 ) ;
#90 = DIRECTION ( 'NONE',  ( -0.2588190451025165761, -0.9659258262890694224, 0.000000000000000000 ) ) ;
#91 = LINE ( 'NONE', #79, #94 ) ;
#92 = LINE ( 'NONE', #465, #68 ) ;
#93 = CARTESIAN_POINT ( 'NONE',  ( -3.600000000000005862, 7.500000000000000000, 1.499999999999997780 ) ) ;
#94 = VECTOR ( 'NONE', #721, 1000.000000000000000 ) ;
#95 = EDGE_CURVE ( 'NONE', #861, #730, #335, .T. ) ;
#96 = VECTOR ( 'NONE', #1094, 1000.000000000000000 ) ;
#97 = CYLINDRICAL_SURFACE ( 'NONE', #890, 0.1499999999999999667 ) ;
#98 = LINE ( 'NONE', #782, #77 ) ;
#99 = LINE ( 'NONE', #183, #961 ) ;
#100 = AXIS2_PLACEMENT_3D ( 'NONE', #659, #510, #1131 ) ;
#101 = SHAPE_DEFINITION_REPRESENTATION ( #546, #290 ) ;
#102 = ADVANCED_FACE ( 'NONE', ( #1152 ), #351, .T. ) ;
#103 = EDGE_CURVE ( 'NONE', #403, #185, #391, .T. ) ;
#104 = SURFACE_SIDE_STYLE ('',( #376 ) ) ;
#105 = EDGE_CURVE ( 'NONE', #712, #649, #1215, .T. ) ;
#106 = CARTESIAN_POINT ( 'NONE',  ( -1.949759526419168276, 1.807003620809158115E-16, 1.499999999999998224 ) ) ;
#107 = EDGE_CURVE ( 'NONE', #182, #787, #1203, .T. ) ;
#108 = CARTESIAN_POINT ( 'NONE',  ( -1.100000000000023626, 0.1875000000000000000, -1.500000000000001332 ) ) ;
#109 = CARTESIAN_POINT ( 'NONE',  ( -2.499999999999998668, -6.000000000000000000, 0.2500000000000003886 ) ) ;
#110 = CARTESIAN_POINT ( 'NONE',  ( 2.120217581749411084E-15, 0.1875000000000000000, -1.099999999999991651 ) ) ;
#111 = AXIS2_PLACEMENT_3D ( 'NONE', #994, #349, #338 ) ;
#112 = SURFACE_SIDE_STYLE ('',( #552 ) ) ;
#113 = DIRECTION ( 'NONE',  ( 0.000000000000000000, 0.000000000000000000, -1.000000000000000000 ) ) ;
#114 = DIRECTION ( 'NONE',  ( 0.000000000000000000, 0.000000000000000000, -1.000000000000000000 ) ) ;
#115 = AXIS2_PLACEMENT_3D ( 'NONE', #88, #533, #327 ) ;
#116 = CARTESIAN_POINT ( 'NONE',  ( 1.100000000000002975, 0.1875000000000000000, 1.500000000000000444 ) ) ;
#117 = EDGE_CURVE ( 'NONE', #378, #332, #1208, .T. ) ;
#118 = DIRECTION ( 'NONE',  ( 0.000000000000000000, -1.000000000000000000, 0.000000000000000000 ) ) ;
#119 = FILL_AREA_STYLE ('',( #941 ) ) ;
#120 = ADVANCED_FACE ( 'NONE', ( #380 ), #1153, .T. ) ;
#121 = DIRECTION ( 'NONE',  ( 0.000000000000000000, 0.000000000000000000, -1.000000000000000000 ) ) ;
#122 = CARTESIAN_POINT ( 'NONE',  ( 2.000000000000004441, 0.1875000000000036360, 1.099999999999993427 ) ) ;
#123 = AXIS2_PLACEMENT_3D ( 'NONE', #1004, #932, #823 ) ;
#124 = CARTESIAN_POINT ( 'NONE',  ( -2.499999999999998668, 0.1875000000000000000, 0.2500000000000003886 ) ) ;
#125 = LINE ( 'NONE', #106, #541 ) ;
#126 = ADVANCED_FACE ( 'NONE', ( #387 ), #818, .T. ) ;
#127 = DIRECTION ( 'NONE',  ( 0.000000000000000000, -1.000000000000000000, 0.000000000000000000 ) ) ;
#128 = AXIS2_PLACEMENT_3D ( 'NONE', #45, #295, #587 ) ;
#129 = DIRECTION ( 'NONE',  ( 0.000000000000000000, -0.000000000000000000, -1.000000000000000000 ) ) ;
#130 = CARTESIAN_POINT ( 'NONE',  ( -1.100000000000002975, 0.1875000000000000000, 1.099999999999993427 ) ) ;
#131 = CIRCLE ( 'NONE', #279, 0.1499999999999999667 ) ;
#132 = EDGE_CURVE ( 'NONE', #697, #182, #234, .T. ) ;
#133 = LINE ( 'NONE', #31, #529 ) ;
#134 = CARTESIAN_POINT ( 'NONE',  ( 2.499999999999998668, 0.1875000000000000000, 0.2500000000000003886 ) ) ;
#135 = CARTESIAN_POINT ( 'NONE',  ( 1.150240473580857126, 0.000000000000000000, -1.500000000000001332 ) ) ;
#136 = DIRECTION ( 'NONE',  ( 0.000000000000000000, -1.000000000000000000, 0.000000000000000000 ) ) ;
#137 = CARTESIAN_POINT ( 'NONE',  ( 3.599999999999992095, 7.349999999999999645, 1.350000000000001421 ) ) ;
#138 = PLANE ( 'NONE',  #919 ) ;
#139 = AXIS2_PLACEMENT_3D ( 'NONE', #1009, #1099, #534 ) ;
#140 = DIRECTION ( 'NONE',  ( -1.000000000000000000, -0.000000000000000000, -0.000000000000000000 ) ) ;
#141 = DIRECTION ( 'NONE',  ( -0.000000000000000000, 1.000000000000000000, -0.000000000000000000 ) ) ;
#142 = SURFACE_STYLE_USAGE ( .BOTH. , #987 ) ;
#143 = CARTESIAN_POINT ( 'NONE',  ( -3.600000000000005862, 7.500000000000000000, 1.499999999999997780 ) ) ;
#144 = EDGE_CURVE ( 'NONE', #1169, #718, #656, .T. ) ;
#145 = DIRECTION ( 'NONE',  ( 1.000000000000000000, 0.000000000000000000, 0.000000000000000000 ) ) ;
#146 = CARTESIAN_POINT ( 'NONE',  ( 3.449999999999992184, 7.349999999999999645, 1.350000000000001421 ) ) ;
#147 = PLANE ( 'NONE',  #115 ) ;
#148 = CARTESIAN_POINT ( 'NONE',  ( -1.150240473580838030, 0.000000000000000000, -1.099999999999992539 ) ) ;
#149 = DIRECTION ( 'NONE',  ( -1.000000000000000000, 0.000000000000000000, 0.000000000000000000 ) ) ;
#150 = AXIS2_PLACEMENT_3D ( 'NONE', #1176, #543, #985 ) ;
#151 = DIRECTION ( 'NONE',  ( 0.000000000000000000, 0.000000000000000000, 1.000000000000000000 ) ) ;
#152 = EDGE_CURVE ( 'NONE', #268, #401, #1063, .T. ) ;
#153 = ADVANCED_FACE ( 'NONE', ( #1049 ), #147, .F. ) ;
#154 = DIRECTION ( 'NONE',  ( -0.000000000000000000, -1.000000000000000000, 0.000000000000000000 ) ) ;
#155 = CARTESIAN_POINT ( 'NONE',  ( -1.949759526419168276, 0.000000000000000000, -1.099999999999996758 ) ) ;
#156 = EDGE_CURVE ( 'NONE', #697, #688, #644, .T. ) ;
#157 = DIRECTION ( 'NONE',  ( 0.000000000000000000, 0.000000000000000000, -1.000000000000000000 ) ) ;
#158 = CARTESIAN_POINT ( 'NONE',  ( 0.000000000000000000, 0.1875000000000000000, 1.099999999999993427 ) ) ;
#159 = DIRECTION ( 'NONE',  ( -1.000000000000000000, 0.000000000000000000, 0.000000000000000000 ) ) ;
#160 = AXIS2_PLACEMENT_3D ( 'NONE', #284, #27, #400 ) ;
#161 = ORIENTED_EDGE ( 'NONE', *, *, #399, .F. ) ;
#162 = EDGE_CURVE ( 'NONE', #446, #861, #642, .T. ) ;
#163 = CARTESIAN_POINT ( 'NONE',  ( -2.000000000000004441, 0.1875000000000000000, 1.099999999999993427 ) ) ;
#164 = EDGE_CURVE ( 'NONE', #264, #730, #1056, .T. ) ;
#165 = PRESENTATION_LAYER_ASSIGNMENT (  '', '', ( #202 ) ) ;
#166 = CARTESIAN_POINT ( 'NONE',  ( -1.949759526419168276, 0.000000000000000000, 0.000000000000000000 ) ) ;
#167 = CARTESIAN_POINT ( 'NONE',  ( 3.449999999999992184, 0.1875000000000000000, -1.500000000000001332 ) ) ;
#168 = ORIENTED_EDGE ( 'NONE', *, *, #1085, .T. ) ;
#169 = DIRECTION ( 'NONE',  ( 1.000000000000000000, -0.000000000000000000, -0.000000000000000000 ) ) ;
#170 = DIRECTION ( 'NONE',  ( 1.000000000000000000, 0.000000000000000000, 0.000000000000000000 ) ) ;
#171 = CARTESIAN_POINT ( 'NONE',  ( 3.449999999999992184, 7.349999999999999645, -1.500000000000001332 ) ) ;
#172 = AXIS2_PLACEMENT_3D ( 'NONE', #143, #924, #1133 ) ;
#173 = ORIENTED_EDGE ( 'NONE', *, *, #498, .T. ) ;
#174 = ORIENTED_EDGE ( 'NONE', *, *, #891, .T. ) ;
#175 = CARTESIAN_POINT ( 'NONE',  ( -3.600000000000005862, 7.349999999999999645, 1.499999999999997780 ) ) ;
#176 = DIRECTION ( 'NONE',  ( 1.000000000000000000, 0.000000000000000000, 1.927470528863115795E-15 ) ) ;
#177 = SURFACE_STYLE_USAGE ( .BOTH. , #112 ) ;
#178 = ORIENTED_EDGE ( 'NONE', *, *, #319, .T. ) ;
#179 = ORIENTED_EDGE ( 'NONE', *, *, #1029, .T. ) ;
#180 = DIRECTION ( 'NONE',  ( 0.000000000000000000, 0.000000000000000000, 1.000000000000000000 ) ) ;
#181 =( NAMED_UNIT ( * ) SI_UNIT ( $, .STERADIAN. ) SOLID_ANGLE_UNIT ( ) );
#182 = VERTEX_POINT ( 'NONE', #137 ) ;
#183 = CARTESIAN_POINT ( 'NONE',  ( 0.000000000000000000, 0.1875000000000000000, 1.099999999999993427 ) ) ;
#184 = EDGE_CURVE ( 'NONE', #848, #1089, #1054, .T. ) ;
#185 = VERTEX_POINT ( 'NONE', #1081 ) ;
#186 = ADVANCED_FACE ( 'NONE', ( #225 ), #660, .T. ) ;
#187 = CARTESIAN_POINT ( 'NONE',  ( 1.100000000000002975, 0.1875000000000000000, 0.000000000000000000 ) ) ;
#188 = ORIENTED_EDGE ( 'NONE', *, *, #1015, .T. ) ;
#189 = ORIENTED_EDGE ( 'NONE', *, *, #631, .T. ) ;
#190 = DIRECTION ( 'NONE',  ( 0.2588190451025165761, 0.9659258262890694224, 1.247165204358988180E-16 ) ) ;
#191 = VERTEX_POINT ( 'NONE', #320 ) ;
#192 = DIRECTION ( 'NONE',  ( 0.000000000000000000, -1.000000000000000000, 0.000000000000000000 ) ) ;
#193 = PLANE ( 'NONE',  #1057 ) ;
#194 = ORIENTED_EDGE ( 'NONE', *, *, #8, .T. ) ;
#195 = EDGE_CURVE ( 'NONE', #235, #799, #239, .T. ) ;
#196 = EDGE_CURVE ( 'NONE', #758, #854, #1037, .T. ) ;
#197 = EDGE_LOOP ( 'NONE', ( #178, #473 ) ) ;
#198 = MANIFOLD_SOLID_BREP ( 'Housing', #299 ) ;
#199 = EDGE_LOOP ( 'NONE', ( #621, #605, #669, #1019 ) ) ;
#200 = CARTESIAN_POINT ( 'NONE',  ( 1.150240473580838030, 0.000000000000000000, 1.099999999999993427 ) ) ;
#201 = DIRECTION ( 'NONE',  ( 0.000000000000000000, 0.000000000000000000, -1.000000000000000000 ) ) ;
#202 = STYLED_ITEM ( 'NONE', ( #948 ), #290 ) ;
#203 =( LENGTH_UNIT ( ) NAMED_UNIT ( * ) SI_UNIT ( .MILLI., .METRE. ) );
#204 = STYLED_ITEM ( 'NONE', ( #414 ), #455 ) ;
#205 = CARTESIAN_POINT ( 'NONE',  ( -2.499999999999998668, -12.70710678118654791, -0.2500000000000003886 ) ) ;
#206 = ORIENTED_EDGE ( 'NONE', *, *, #940, .F. ) ;
#207 = CARTESIAN_POINT ( 'NONE',  ( -2.499999999999998668, -6.000000000000000000, 0.000000000000000000 ) ) ;
#208 = VERTEX_POINT ( 'NONE', #1232 ) ;
#209 = EDGE_LOOP ( 'NONE', ( #1112, #416, #703, #459 ) ) ;
#210 = DIRECTION ( 'NONE',  ( -0.000000000000000000, 1.000000000000000000, -0.000000000000000000 ) ) ;
#211 = COLOUR_RGB ( '',1.000000000000000000, 0.2352941176470588203, 0.2352941176470588203 ) ;
#212 = CARTESIAN_POINT ( 'NONE',  ( -7.228014483236697541E-16, 0.1875000000000000000, 1.499999999999999556 ) ) ;
#213 =( LENGTH_UNIT ( ) NAMED_UNIT ( * ) SI_UNIT ( .MILLI., .METRE. ) );
#214 = DIRECTION ( 'NONE',  ( -0.2588190451025185190, 0.9659258262890689783, -0.000000000000000000 ) ) ;
#215 = EDGE_LOOP ( 'NONE', ( #783, #7, #371, #43 ) ) ;
#216 = VECTOR ( 'NONE', #440, 1000.000000000000000 ) ;
#217 = CARTESIAN_POINT ( 'NONE',  ( 1.150240473580838030, 1.807003620809148254E-16, 1.500000000000000444 ) ) ;
#218 = VECTOR ( 'NONE', #597, 1000.000000000000000 ) ;
#219 = ORIENTED_EDGE ( 'NONE', *, *, #723, .F. ) ;
#220 = AXIS2_PLACEMENT_3D ( 'NONE', #815, #898, #971 ) ;
#221 = ORIENTED_EDGE ( 'NONE', *, *, #451, .T. ) ;
#222 = AXIS2_PLACEMENT_3D ( 'NONE', #207, #918, #36 ) ;
#223 = CARTESIAN_POINT ( 'NONE',  ( -1.949759526419168276, 0.000000000000000000, 0.000000000000000000 ) ) ;
#224 = ORIENTED_EDGE ( 'NONE', *, *, #1115, .F. ) ;
#225 = FACE_OUTER_BOUND ( 'NONE', #674, .T. ) ;
#226 = ADVANCED_FACE ( 'NONE', ( #309 ), #641, .F. ) ;
#227 = CARTESIAN_POINT ( 'NONE',  ( 0.000000000000000000, -6.000000000000000000, 0.000000000000000000 ) ) ;
#228 = VECTOR ( 'NONE', #628, 1000.000000000000000 ) ;
#229 = DIRECTION ( 'NONE',  ( -0.000000000000000000, 1.000000000000000000, -0.000000000000000000 ) ) ;
#230 = ADVANCED_FACE ( 'NONE', ( #321 ), #731, .T. ) ;
#231 = DIRECTION ( 'NONE',  ( 1.000000000000000000, 0.000000000000000000, 4.818676322157799347E-16 ) ) ;
#232 = DIRECTION ( 'NONE',  ( 0.000000000000000000, -1.000000000000000000, 0.000000000000000000 ) ) ;
#233 = ORIENTED_EDGE ( 'NONE', *, *, #561, .F. ) ;
#234 = LINE ( 'NONE', #1168, #216 ) ;
#235 = VERTEX_POINT ( 'NONE', #163 ) ;
#236 = DIRECTION ( 'NONE',  ( 0.9659258262890694224, -0.2588190451025165761, -5.026842620747752036E-14 ) ) ;
#237 =( GEOMETRIC_REPRESENTATION_CONTEXT ( 3 ) GLOBAL_UNCERTAINTY_ASSIGNED_CONTEXT ( ( #549 ) ) GLOBAL_UNIT_ASSIGNED_CONTEXT ( ( #565, #653, #181 ) ) REPRESENTATION_CONTEXT ( 'NONE', 'WORKASPACE' ) );
#238 = ORIENTED_EDGE ( 'NONE', *, *, #576, .T. ) ;
#239 = LINE ( 'NONE', #158, #228 ) ;
#240 = DIRECTION ( 'NONE',  ( -1.000000000000000000, 0.000000000000000000, 0.000000000000000000 ) ) ;
#241 = EDGE_CURVE ( 'NONE', #262, #827, #304, .T. ) ;
#242 = VERTEX_POINT ( 'NONE', #486 ) ;
#243 = DIRECTION ( 'NONE',  ( 1.000000000000000000, 0.000000000000000000, 4.818676322157799347E-16 ) ) ;
#244 = CARTESIAN_POINT ( 'NONE',  ( -1.099999999999945688, 0.1875000000000000000, 9.367506770274327907E-14 ) ) ;
#245 = ORIENTED_EDGE ( 'NONE', *, *, #73, .F. ) ;
#246 = ORIENTED_EDGE ( 'NONE', *, *, #619, .T. ) ;
#247 = ORIENTED_EDGE ( 'NONE', *, *, #1046, .F. ) ;
#248 = CARTESIAN_POINT ( 'NONE',  ( -2.000000000000004441, 0.1875000000000000000, 1.499999999999998224 ) ) ;
#249 = ORIENTED_EDGE ( 'NONE', *, *, #437, .T. ) ;
#250 = DIRECTION ( 'NONE',  ( 1.000000000000000000, -0.000000000000000000, 0.000000000000000000 ) ) ;
#251 = ADVANCED_FACE ( 'NONE', ( #734 ), #1122, .T. ) ;
#252 = ORIENTED_EDGE ( 'NONE', *, *, #488, .T. ) ;
#253 = PLANE ( 'NONE',  #263 ) ;
#254 = ORIENTED_EDGE ( 'NONE', *, *, #807, .F. ) ;
#255 = DIRECTION ( 'NONE',  ( 0.000000000000000000, 0.000000000000000000, 1.000000000000000000 ) ) ;
#256 = ORIENTED_EDGE ( 'NONE', *, *, #498, .F. ) ;
#257 = VERTEX_POINT ( 'NONE', #116 ) ;
#258 = ORIENTED_EDGE ( 'NONE', *, *, #8, .F. ) ;
#259 = AXIS2_PLACEMENT_3D ( 'NONE', #554, #622, #943 ) ;
#260 = ORIENTED_EDGE ( 'NONE', *, *, #336, .T. ) ;
#261 = ADVANCED_FACE ( 'NONE', ( #311 ), #1104, .T. ) ;
#262 = VERTEX_POINT ( 'NONE', #108 ) ;
#263 = AXIS2_PLACEMENT_3D ( 'NONE', #647, #1119, #957 ) ;
#264 = VERTEX_POINT ( 'NONE', #673 ) ;
#265 = EDGE_LOOP ( 'NONE', ( #602, #252, #1022, #625 ) ) ;
#266 = VECTOR ( 'NONE', #520, 1000.000000000000000 ) ;
#267 = DIRECTION ( 'NONE',  ( 0.000000000000000000, 0.000000000000000000, 1.000000000000000000 ) ) ;
#268 = VERTEX_POINT ( 'NONE', #569 ) ;
#269 =( NAMED_UNIT ( * ) SI_UNIT ( $, .STERADIAN. ) SOLID_ANGLE_UNIT ( ) );
#270 = CARTESIAN_POINT ( 'NONE',  ( 0.000000000000000000, 7.500000000000000000, 0.000000000000000000 ) ) ;
#271 = ADVANCED_FACE ( 'NONE', ( #313 ), #738, .T. ) ;
#272 = EDGE_LOOP ( 'NONE', ( #46, #368, #862, #256 ) ) ;
#273 = DIRECTION ( 'NONE',  ( -1.000000000000000000, -0.000000000000000000, -4.818676322157799347E-16 ) ) ;
#274 = CARTESIAN_POINT ( 'NONE',  ( 1.150240473580780742, 0.000000000000000000, 9.628966757168924213E-14 ) ) ;
#275 = ORIENTED_EDGE ( 'NONE', *, *, #1006, .T. ) ;
#276 = DIRECTION ( 'NONE',  ( 0.000000000000000000, -1.000000000000000000, 0.000000000000000000 ) ) ;
#277 = CARTESIAN_POINT ( 'NONE',  ( 3.449999999999992184, 7.349999999999999645, -1.350000000000001421 ) ) ;
#278 = ORIENTED_EDGE ( 'NONE', *, *, #589, .T. ) ;
#279 = AXIS2_PLACEMENT_3D ( 'NONE', #1035, #16, #121 ) ;
#280 = ORIENTED_EDGE ( 'NONE', *, *, #586, .T. ) ;
#281 = ADVANCED_FACE ( 'NONE', ( #18 ), #1217, .F. ) ;
#282 = EDGE_CURVE ( 'NONE', #852, #697, #22, .T. ) ;
#283 = CARTESIAN_POINT ( 'NONE',  ( -1.150240473580838474, 0.000000000000000000, 1.499999999999998668 ) ) ;
#284 = CARTESIAN_POINT ( 'NONE',  ( 2.000000000000004441, 0.1875000000000036360, 0.000000000000000000 ) ) ;
#285 = EDGE_CURVE ( 'NONE', #378, #339, #1193, .T. ) ;
#286 = ORIENTED_EDGE ( 'NONE', *, *, #144, .F. ) ;
#287 = DIRECTION ( 'NONE',  ( 1.000000000000000000, 0.000000000000000000, 0.000000000000000000 ) ) ;
#288 = DIRECTION ( 'NONE',  ( -0.000000000000000000, 1.000000000000000000, -0.000000000000000000 ) ) ;
#289 = ORIENTED_EDGE ( 'NONE', *, *, #1025, .T. ) ;
#290 = ADVANCED_BREP_SHAPE_REPRESENTATION ( 'MKP2C021001B00JA00', ( #455, #909, #198, #1034 ), #1239 ) ;
#291 = ORIENTED_EDGE ( 'NONE', *, *, #1141, .T. ) ;
#292 = ADVANCED_FACE ( 'NONE', ( #1091 ), #331, .F. ) ;
#293 = ORIENTED_EDGE ( 'NONE', *, *, #285, .F. ) ;
#294 = CARTESIAN_POINT ( 'NONE',  ( -7.228014483236697541E-16, 0.1875000000000000000, 1.499999999999999556 ) ) ;
#295 = DIRECTION ( 'NONE',  ( 0.000000000000000000, -1.000000000000000000, 0.000000000000000000 ) ) ;
#296 = DIRECTION ( 'NONE',  ( 0.9659258262890694224, 0.2588190451025165761, 0.000000000000000000 ) ) ;
#297 = ORIENTED_EDGE ( 'NONE', *, *, #1141, .F. ) ;
#298 = DIRECTION ( 'NONE',  ( 0.000000000000000000, -1.000000000000000000, 0.000000000000000000 ) ) ;
#299 = CLOSED_SHELL ( 'NONE', ( #292, #362, #281, #779, #261, #562, #693, #86, #1125, #1222, #153, #2, #1108, #120, #519, #402, #548, #251, #490, #867, #716, #226, #126, #822, #638, #82, #895, #998, #230, #733, #102, #271, #584, #186 ) ) ;
#300 = EDGE_LOOP ( 'NONE', ( #456, #1110, #707, #14 ) ) ;
#301 = EDGE_CURVE ( 'NONE', #257, #412, #695, .T. ) ;
#302 = CARTESIAN_POINT ( 'NONE',  ( -3.450000000000005951, 7.349999999999999645, 1.349999999999997868 ) ) ;
#303 = CARTESIAN_POINT ( 'NONE',  ( -2.000000000000003109, 0.1875000000000000000, -1.500000000000001332 ) ) ;
#304 = LINE ( 'NONE', #577, #1128 ) ;
#305 = ORIENTED_EDGE ( 'NONE', *, *, #282, .T. ) ;
#306 = CARTESIAN_POINT ( 'NONE',  ( -3.450000000000005951, 0.1875000000000001665, -1.350000000000001421 ) ) ;
#307 = CARTESIAN_POINT ( 'NONE',  ( 1.949759526419168276, 0.000000000000000000, 1.099999999999993427 ) ) ;
#308 = EDGE_CURVE ( 'NONE', #39, #461, #1201, .T. ) ;
#309 = FACE_OUTER_BOUND ( 'NONE', #453, .T. ) ;
#310 = ORIENTED_EDGE ( 'NONE', *, *, #241, .F. ) ;
#311 = FACE_OUTER_BOUND ( 'NONE', #780, .T. ) ;
#312 = ORIENTED_EDGE ( 'NONE', *, *, #988, .T. ) ;
#313 = FACE_OUTER_BOUND ( 'NONE', #859, .T. ) ;
#314 = DIRECTION ( 'NONE',  ( 0.000000000000000000, 0.000000000000000000, -1.000000000000000000 ) ) ;
#315 = CARTESIAN_POINT ( 'NONE',  ( -3.450000000000005951, 7.500000000000000000, 0.000000000000000000 ) ) ;
#316 = AXIS2_PLACEMENT_3D ( 'NONE', #711, #232, #729 ) ;
#317 = ADVANCED_FACE ( 'NONE', ( #776 ), #542, .T. ) ;
#318 = APPLICATION_PROTOCOL_DEFINITION ( 'draft international standard', 'automotive_design', 1998, #1202 ) ;
#319 = EDGE_CURVE ( 'NONE', #1003, #1169, #811, .T. ) ;
#320 = CARTESIAN_POINT ( 'NONE',  ( 2.499999999999998668, -6.000000000000000000, 0.2500000000000003886 ) ) ;
#321 = FACE_OUTER_BOUND ( 'NONE', #773, .T. ) ;
#322 = ORIENTED_EDGE ( 'NONE', *, *, #860, .T. ) ;
#323 = EDGE_CURVE ( 'NONE', #191, #1052, #385, .T. ) ;
#324 = ORIENTED_EDGE ( 'NONE', *, *, #530, .F. ) ;
#325 = ORIENTED_EDGE ( 'NONE', *, *, #241, .T. ) ;
#326 = ORIENTED_EDGE ( 'NONE', *, *, #377, .F. ) ;
#327 = DIRECTION ( 'NONE',  ( -1.000000000000000000, 0.000000000000000000, -1.927470528863115795E-15 ) ) ;
#328 = DIRECTION ( 'NONE',  ( -0.2588190451025185190, 0.9659258262890689783, -0.000000000000000000 ) ) ;
#329 = ORIENTED_EDGE ( 'NONE', *, *, #395, .F. ) ;
#330 = ORIENTED_EDGE ( 'NONE', *, *, #842, .F. ) ;
#331 = PLANE ( 'NONE',  #648 ) ;
#332 = VERTEX_POINT ( 'NONE', #421 ) ;
#333 = LINE ( 'NONE', #499, #744 ) ;
#334 = CARTESIAN_POINT ( 'NONE',  ( -3.450000000000005951, 7.349999999999999645, -1.500000000000001332 ) ) ;
#335 = LINE ( 'NONE', #887, #747 ) ;
#336 = EDGE_CURVE ( 'NONE', #185, #1226, #1149, .T. ) ;
#337 = CARTESIAN_POINT ( 'NONE',  ( 3.599999999999992095, 7.500000000000000000, 1.350000000000001421 ) ) ;
#338 = DIRECTION ( 'NONE',  ( 0.000000000000000000, 0.000000000000000000, 1.000000000000000000 ) ) ;
#339 = VERTEX_POINT ( 'NONE', #547 ) ;
#340 = EDGE_CURVE ( 'NONE', #182, #649, #1198, .T. ) ;
#341 = CARTESIAN_POINT ( 'NONE',  ( -2.000000000000004441, 0.1875000000000000000, 0.000000000000000000 ) ) ;
#342 = EDGE_LOOP ( 'NONE', ( #1016, #280, #470, #618 ) ) ;
#343 = FACE_OUTER_BOUND ( 'NONE', #363, .T. ) ;
#344 = CIRCLE ( 'NONE', #1101, 0.1499999999999999667 ) ;
#345 = CARTESIAN_POINT ( 'NONE',  ( 3.599999999999992095, 7.349999999999999645, -1.350000000000001421 ) ) ;
#346 = ORIENTED_EDGE ( 'NONE', *, *, #323, .T. ) ;
#347 = CIRCLE ( 'NONE', #910, 0.1499999999999999667 ) ;
#348 =( NAMED_UNIT ( * ) PLANE_ANGLE_UNIT ( ) SI_UNIT ( $, .RADIAN. ) );
#349 = DIRECTION ( 'NONE',  ( -0.000000000000000000, 1.000000000000000000, -0.000000000000000000 ) ) ;
#350 = ORIENTED_EDGE ( 'NONE', *, *, #195, .F. ) ;
#351 = CYLINDRICAL_SURFACE ( 'NONE', #123, 0.1499999999999999667 ) ;
#352 = LINE ( 'NONE', #620, #767 ) ;
#353 = CARTESIAN_POINT ( 'NONE',  ( 3.449999999999992184, 7.500000000000000000, 1.350000000000001421 ) ) ;
#354 = EDGE_CURVE ( 'NONE', #688, #840, #769, .T. ) ;
#355 = VECTOR ( 'NONE', #458, 1000.000000000000000 ) ;
#356 = DIRECTION ( 'NONE',  ( 0.000000000000000000, 0.000000000000000000, -1.000000000000000000 ) ) ;
#357 = EDGE_CURVE ( 'NONE', #191, #422, #796, .T. ) ;
#358 = ORIENTED_EDGE ( 'NONE', *, *, #1017, .F. ) ;
#359 = FACE_OUTER_BOUND ( 'NONE', #832, .T. ) ;
#360 = SPHERICAL_SURFACE ( 'NONE', #1033, 0.1500000000000000222 ) ;
#361 = ORIENTED_EDGE ( 'NONE', *, *, #105, .F. ) ;
#362 = ADVANCED_FACE ( 'NONE', ( #359 ), #790, .F. ) ;
#363 = EDGE_LOOP ( 'NONE', ( #694, #795, #1087, #329 ) ) ;
#364 = LINE ( 'NONE', #845, #1162 ) ;
#365 = PRODUCT_RELATED_PRODUCT_CATEGORY ( 'part', '', ( #704 ) ) ;
#366 = VERTEX_POINT ( 'NONE', #124 ) ;
#367 = LINE ( 'NONE', #110, #1196 ) ;
#368 = ORIENTED_EDGE ( 'NONE', *, *, #488, .F. ) ;
#369 = AXIS2_PLACEMENT_3D ( 'NONE', #585, #141, #151 ) ;
#370 = ORIENTED_EDGE ( 'NONE', *, *, #897, .T. ) ;
#371 = ORIENTED_EDGE ( 'NONE', *, *, #975, .F. ) ;
#372 = ORIENTED_EDGE ( 'NONE', *, *, #301, .F. ) ;
#373 = FACE_OUTER_BOUND ( 'NONE', #1107, .T. ) ;
#374 = DIRECTION ( 'NONE',  ( 0.000000000000000000, 0.000000000000000000, 1.000000000000000000 ) ) ;
#375 = ORIENTED_EDGE ( 'NONE', *, *, #952, .F. ) ;
#376 = SURFACE_STYLE_FILL_AREA ( #119 ) ;
#377 = EDGE_CURVE ( 'NONE', #257, #242, #806, .T. ) ;
#378 = VERTEX_POINT ( 'NONE', #155 ) ;
#379 = ORIENTED_EDGE ( 'NONE', *, *, #354, .F. ) ;
#380 = FACE_OUTER_BOUND ( 'NONE', #406, .T. ) ;
#381 = CARTESIAN_POINT ( 'NONE',  ( 3.449999999999992184, 7.349999999999999645, -1.350000000000001421 ) ) ;
#382 = ORIENTED_EDGE ( 'NONE', *, *, #1088, .F. ) ;
#383 = EDGE_CURVE ( 'NONE', #799, #1011, #364, .T. ) ;
#384 = FACE_OUTER_BOUND ( 'NONE', #215, .T. ) ;
#385 = LINE ( 'NONE', #1058, #833 ) ;
#386 = DIRECTION ( 'NONE',  ( 0.000000000000000000, -1.000000000000000000, 0.000000000000000000 ) ) ;
#387 = FACE_OUTER_BOUND ( 'NONE', #441, .T. ) ;
#388 = ORIENTED_EDGE ( 'NONE', *, *, #516, .F. ) ;
#389 = VECTOR ( 'NONE', #834, 1000.000000000000000 ) ;
#390 = MECHANICAL_DESIGN_GEOMETRIC_PRESENTATION_REPRESENTATION (  '', ( #947 ), #1001 ) ;
#391 = LINE ( 'NONE', #452, #808 ) ;
#392 = COLOUR_RGB ( '',0.7921568627450980005, 0.8196078431372548767, 0.9333333333333333481 ) ;
#393 = AXIS2_PLACEMENT_3D ( 'NONE', #757, #883, #662 ) ;
#394 = CARTESIAN_POINT ( 'NONE',  ( -1.949759526419168276, 0.000000000000000000, 1.099999999999993427 ) ) ;
#395 = EDGE_CURVE ( 'NONE', #590, #639, #1213, .T. ) ;
#396 = CARTESIAN_POINT ( 'NONE',  ( 1.949759526419168276, 0.000000000000000000, 1.500000000000000888 ) ) ;
#397 = CARTESIAN_POINT ( 'NONE',  ( 1.150240473580838030, 0.000000000000000000, 1.099999999999993427 ) ) ;
#398 = DIRECTION ( 'NONE',  ( 1.000000000000000000, 0.000000000000000000, 0.000000000000000000 ) ) ;
#399 = EDGE_CURVE ( 'NONE', #1169, #1003, #1188, .T. ) ;
#400 = DIRECTION ( 'NONE',  ( 0.000000000000000000, 0.000000000000000000, 1.000000000000000000 ) ) ;
#401 = VERTEX_POINT ( 'NONE', #394 ) ;
#402 = ADVANCED_FACE ( 'NONE', ( #384 ), #1048, .F. ) ;
#403 = VERTEX_POINT ( 'NONE', #964 ) ;
#404 = CARTESIAN_POINT ( 'NONE',  ( -2.499999999999998668, 0.1875000000000000000, 0.000000000000000000 ) ) ;
#405 = AXIS2_PLACEMENT_3D ( 'NONE', #521, #903, #913 ) ;
#406 = EDGE_LOOP ( 'NONE', ( #322, #1155, #1143, #179, #1090, #326, #610, #173, #350, #755, #189, #741, #635, #658, #1126, #324, #1148, #645, #325, #1074, #1224, #1092, #864, #700 ) ) ;
#407 = DIRECTION ( 'NONE',  ( 0.000000000000000000, 0.000000000000000000, -1.000000000000000000 ) ) ;
#408 = AXIS2_PLACEMENT_3D ( 'NONE', #819, #609, #826 ) ;
#409 = ORIENTED_EDGE ( 'NONE', *, *, #319, .F. ) ;
#410 = CARTESIAN_POINT ( 'NONE',  ( -3.450000000000005951, 7.500000000000000000, 1.349999999999997868 ) ) ;
#411 = DIRECTION ( 'NONE',  ( -1.000000000000000000, 0.000000000000000000, -4.818676322157799347E-16 ) ) ;
#412 = VERTEX_POINT ( 'NONE', #1024 ) ;
#413 = EDGE_CURVE ( 'NONE', #262, #791, #1179, .T. ) ;
#414 = PRESENTATION_STYLE_ASSIGNMENT (( #13 ) ) ;
#415 = PLANE ( 'NONE',  #220 ) ;
#416 = ORIENTED_EDGE ( 'NONE', *, *, #35, .T. ) ;
#417 = CARTESIAN_POINT ( 'NONE',  ( 1.150240473580838030, 0.000000000000000000, 0.000000000000000000 ) ) ;
#418 = LINE ( 'NONE', #839, #21 ) ;
#419 = ORIENTED_EDGE ( 'NONE', *, *, #651, .F. ) ;
#420 = FACE_OUTER_BOUND ( 'NONE', #749, .T. ) ;
#421 = CARTESIAN_POINT ( 'NONE',  ( -1.949759526419168276, 0.000000000000000000, -1.500000000000001332 ) ) ;
#422 = VERTEX_POINT ( 'NONE', #668 ) ;
#423 = VECTOR ( 'NONE', #288, 1000.000000000000000 ) ;
#424 = DIRECTION ( 'NONE',  ( -0.2588190451025165761, 0.9659258262890694224, -3.503246160812043455E-46 ) ) ;
#425 = EDGE_LOOP ( 'NONE', ( #278, #1042, #1165, #1032 ) ) ;
#426 = VECTOR ( 'NONE', #1214, 1000.000000000000000 ) ;
#427 = CARTESIAN_POINT ( 'NONE',  ( -3.600000000000005862, 7.349999999999999645, 1.349999999999997868 ) ) ;
#428 = DIRECTION ( 'NONE',  ( 0.000000000000000000, 0.000000000000000000, -1.000000000000000000 ) ) ;
#429 = ORIENTED_EDGE ( 'NONE', *, *, #437, .F. ) ;
#430 = CARTESIAN_POINT ( 'NONE',  ( -3.600000000000005862, 7.349999999999999645, 1.499999999999997780 ) ) ;
#431 = VECTOR ( 'NONE', #930, 1000.000000000000000 ) ;
#432 = AXIS2_PLACEMENT_3D ( 'NONE', #980, #1061, #821 ) ;
#433 = COLOUR_RGB ( '',0.7921568627450980005, 0.8196078431372548767, 0.9333333333333333481 ) ;
#434 = DIRECTION ( 'NONE',  ( 0.000000000000000000, 0.000000000000000000, -1.000000000000000000 ) ) ;
#435 = VERTEX_POINT ( 'NONE', #496 ) ;
#436 = LINE ( 'NONE', #604, #431 ) ;
#437 = EDGE_CURVE ( 'NONE', #435, #403, #1207, .T. ) ;
#438 = CARTESIAN_POINT ( 'NONE',  ( 1.150240473580838030, 0.000000000000000000, -1.099999999999994982 ) ) ;
#439 = VECTOR ( 'NONE', #42, 1000.000000000000000 ) ;
#440 = DIRECTION ( 'NONE',  ( -0.000000000000000000, -0.000000000000000000, 1.000000000000000000 ) ) ;
#441 = EDGE_LOOP ( 'NONE', ( #224, #1028, #596, #419 ) ) ;
#442 = LINE ( 'NONE', #430, #51 ) ;
#443 = VECTOR ( 'NONE', #526, 1000.000000000000000 ) ;
#444 = ORIENTED_EDGE ( 'NONE', *, *, #377, .T. ) ;
#445 = LINE ( 'NONE', #1228, #869 ) ;
#446 = VERTEX_POINT ( 'NONE', #960 ) ;
#447 = DIRECTION ( 'NONE',  ( 0.000000000000000000, 0.000000000000000000, 1.000000000000000000 ) ) ;
#448 = ORIENTED_EDGE ( 'NONE', *, *, #357, .F. ) ;
#449 = FACE_OUTER_BOUND ( 'NONE', #1197, .T. ) ;
#450 =( NAMED_UNIT ( * ) SI_UNIT ( $, .STERADIAN. ) SOLID_ANGLE_UNIT ( ) );
#451 = EDGE_CURVE ( 'NONE', #712, #1008, #1175, .T. ) ;
#452 = CARTESIAN_POINT ( 'NONE',  ( 1.819134295108998378, -0.4874999999999960476, -1.099999999999996314 ) ) ;
#453 = EDGE_LOOP ( 'NONE', ( #1144, #370, #330, #643 ) ) ;
#454 = FACE_OUTER_BOUND ( 'NONE', #794, .T. ) ;
#455 = MANIFOLD_SOLID_BREP ( 'Pin 2', #828 ) ;
#456 = ORIENTED_EDGE ( 'NONE', *, *, #1025, .F. ) ;
#457 = VECTOR ( 'NONE', #62, 1000.000000000000000 ) ;
#458 = DIRECTION ( 'NONE',  ( 1.000000000000000000, 0.000000000000000000, 0.000000000000000000 ) ) ;
#459 = ORIENTED_EDGE ( 'NONE', *, *, #95, .T. ) ;
#460 = FACE_OUTER_BOUND ( 'NONE', #1038, .T. ) ;
#461 = VERTEX_POINT ( 'NONE', #167 ) ;
#462 = LINE ( 'NONE', #636, #858 ) ;
#463 = CARTESIAN_POINT ( 'NONE',  ( -1.949759526419168276, 0.000000000000000000, 0.000000000000000000 ) ) ;
#464 = ORIENTED_EDGE ( 'NONE', *, *, #1015, .F. ) ;
#465 = CARTESIAN_POINT ( 'NONE',  ( 0.9794228634060018202, 0.6374999999999946265, -1.099999999999994760 ) ) ;
#466 = AXIS2_PLACEMENT_3D ( 'NONE', #270, #386, #761 ) ;
#467 = CYLINDRICAL_SURFACE ( 'NONE', #573, 0.1499999999999999667 ) ;
#468 = LINE ( 'NONE', #889, #47 ) ;
#469 = DIRECTION ( 'NONE',  ( 0.000000000000000000, 0.000000000000000000, -1.000000000000000000 ) ) ;
#470 = ORIENTED_EDGE ( 'NONE', *, *, #478, .F. ) ;
#471 = VECTOR ( 'NONE', #671, 1000.000000000000000 ) ;
#472 = CARTESIAN_POINT ( 'NONE',  ( -3.600000000000005862, 0.1875000000000000000, -1.350000000000001421 ) ) ;
#473 = ORIENTED_EDGE ( 'NONE', *, *, #399, .T. ) ;
#474 = SPHERICAL_SURFACE ( 'NONE', #1080, 0.1500000000000000222 ) ;
#475 = CARTESIAN_POINT ( 'NONE',  ( 2.000000000000004441, 0.1875000000000034417, 1.500000000000000888 ) ) ;
#476 = DIRECTION ( 'NONE',  ( 5.204170427930338611E-14, 0.000000000000000000, 1.000000000000000000 ) ) ;
#477 = VECTOR ( 'NONE', #411, 1000.000000000000000 ) ;
#478 = EDGE_CURVE ( 'NONE', #1123, #735, #367, .T. ) ;
#479 = FACE_OUTER_BOUND ( 'NONE', #986, .T. ) ;
#480 = CARTESIAN_POINT ( 'NONE',  ( 3.449999999999992184, 7.349999999999999645, 1.500000000000001332 ) ) ;
#481 = CARTESIAN_POINT ( 'NONE',  ( 2.000000000000004441, 0.1875000000000036360, 0.000000000000000000 ) ) ;
#482 = CIRCLE ( 'NONE', #1182, 0.2500000000000003886 ) ;
#483 = AXIS2_PLACEMENT_3D ( 'NONE', #306, #581, #1050 ) ;
#484 = CIRCLE ( 'NONE', #483, 0.1499999999999999667 ) ;
#485 = LINE ( 'NONE', #26, #84 ) ;
#486 = CARTESIAN_POINT ( 'NONE',  ( 1.100000000000002975, 0.1875000000000000000, 1.099999999999993427 ) ) ;
#487 = LINE ( 'NONE', #1005, #96 ) ;
#488 = EDGE_CURVE ( 'NONE', #1011, #1102, #1211, .T. ) ;
#489 = DIRECTION ( 'NONE',  ( 0.000000000000000000, 0.000000000000000000, 1.000000000000000000 ) ) ;
#490 = ADVANCED_FACE ( 'NONE', ( #373 ), #556, .T. ) ;
#491 = LINE ( 'NONE', #934, #72 ) ;
#492 = DIRECTION ( 'NONE',  ( -1.000000000000000000, 0.000000000000000000, -0.000000000000000000 ) ) ;
#493 = CIRCLE ( 'NONE', #820, 0.1499999999999999667 ) ;
#494 =( NAMED_UNIT ( * ) SI_UNIT ( $, .STERADIAN. ) SOLID_ANGLE_UNIT ( ) );
#495 = CYLINDRICAL_SURFACE ( 'NONE', #405, 0.2500000000000003886 ) ;
#496 = CARTESIAN_POINT ( 'NONE',  ( 1.949759526419166722, 0.000000000000000000, -1.500000000000001332 ) ) ;
#497 = LINE ( 'NONE', #70, #915 ) ;
#498 = EDGE_CURVE ( 'NONE', #34, #799, #760, .T. ) ;
#499 = CARTESIAN_POINT ( 'NONE',  ( -3.600000000000005862, 7.500000000000000000, 1.349999999999997868 ) ) ;
#500 = CARTESIAN_POINT ( 'NONE',  ( 2.499999999999998668, 0.1875000000000000000, 0.000000000000000000 ) ) ;
#501 = VECTOR ( 'NONE', #273, 1000.000000000000000 ) ;
#502 = DIRECTION ( 'NONE',  ( 0.000000000000000000, 1.000000000000000000, 0.000000000000000000 ) ) ;
#503 = CARTESIAN_POINT ( 'NONE',  ( -3.450000000000005951, 0.1875000000000001665, 1.349999999999997868 ) ) ;
#504 = DIRECTION ( 'NONE',  ( 0.000000000000000000, 0.000000000000000000, -1.000000000000000000 ) ) ;
#505 = LINE ( 'NONE', #1190, #896 ) ;
#506 = CARTESIAN_POINT ( 'NONE',  ( 3.449999999999992184, 0.1875000000000000000, 1.500000000000001332 ) ) ;
#507 = CARTESIAN_POINT ( 'NONE',  ( -2.120217581749411084E-15, 0.000000000000000000, -1.099999999999991651 ) ) ;
#508 = DIRECTION ( 'NONE',  ( 0.000000000000000000, 1.000000000000000000, 0.000000000000000000 ) ) ;
#509 = AXIS2_PLACEMENT_3D ( 'NONE', #603, #52, #709 ) ;
#510 = DIRECTION ( 'NONE',  ( 0.000000000000000000, -1.000000000000000000, 0.000000000000000000 ) ) ;
#511 = VECTOR ( 'NONE', #190, 1000.000000000000000 ) ;
#512 = CIRCLE ( 'NONE', #509, 0.2500000000000003886 ) ;
#513 = DIRECTION ( 'NONE',  ( -0.2588190451025165761, 0.9659258262890694224, 0.000000000000000000 ) ) ;
#514 = DIRECTION ( 'NONE',  ( -0.000000000000000000, -0.000000000000000000, 1.000000000000000000 ) ) ;
#515 = LINE ( 'NONE', #41, #81 ) ;
#516 = EDGE_CURVE ( 'NONE', #697, #840, #344, .T. ) ;
#517 = PLANE ( 'NONE',  #1012 ) ;
#518 = DIRECTION ( 'NONE',  ( 0.000000000000000000, -0.000000000000000000, -1.000000000000000000 ) ) ;
#519 = ADVANCED_FACE ( 'NONE', ( #836 ), #746, .T. ) ;
#520 = DIRECTION ( 'NONE',  ( 1.000000000000000000, 0.000000000000000000, 1.927470528863115795E-15 ) ) ;
#521 = CARTESIAN_POINT ( 'NONE',  ( 2.499999999999998668, -12.70710678118654791, 0.000000000000000000 ) ) ;
#522 = CARTESIAN_POINT ( 'NONE',  ( 3.449999999999992184, 7.500000000000000000, -1.350000000000001421 ) ) ;
#523 = DIRECTION ( 'NONE',  ( -1.000000000000000000, 0.000000000000000000, 0.000000000000000000 ) ) ;
#524 = CARTESIAN_POINT ( 'NONE',  ( 1.949759526419166722, 0.000000000000000000, 1.500000000000000888 ) ) ;
#525 = AXIS2_PLACEMENT_3D ( 'NONE', #302, #990, #591 ) ;
#526 = DIRECTION ( 'NONE',  ( -0.000000000000000000, 1.000000000000000000, -0.000000000000000000 ) ) ;
#527 = FACE_OUTER_BOUND ( 'NONE', #726, .T. ) ;
#528 = AXIS2_PLACEMENT_3D ( 'NONE', #927, #1072, #724 ) ;
#529 = VECTOR ( 'NONE', #169, 1000.000000000000000 ) ;
#530 = EDGE_CURVE ( 'NONE', #1123, #646, #814, .T. ) ;
#531 = COLOUR_RGB ( '',0.7921568627450980005, 0.8196078431372548767, 0.9333333333333333481 ) ;
#532 = CARTESIAN_POINT ( 'NONE',  ( 0.000000000000000000, 0.000000000000000000, 0.000000000000000000 ) ) ;
#533 = DIRECTION ( 'NONE',  ( 1.927470528863115795E-15, 0.000000000000000000, -1.000000000000000000 ) ) ;
#534 = DIRECTION ( 'NONE',  ( 0.000000000000000000, 0.000000000000000000, 1.000000000000000000 ) ) ;
#535 = DIRECTION ( 'NONE',  ( -0.000000000000000000, 1.000000000000000000, -0.000000000000000000 ) ) ;
#536 = FACE_OUTER_BOUND ( 'NONE', #1147, .T. ) ;
#537 = DIRECTION ( 'NONE',  ( 0.2588190451025165761, 0.9659258262890694224, 4.988660817435943846E-16 ) ) ;
#538 =( NAMED_UNIT ( * ) PLANE_ANGLE_UNIT ( ) SI_UNIT ( $, .RADIAN. ) );
#539 = CARTESIAN_POINT ( 'NONE',  ( 0.000000000000000000, 7.349999999999999645, -1.350000000000001421 ) ) ;
#540 = PRESENTATION_LAYER_ASSIGNMENT (  '', '', ( #947 ) ) ;
#541 = VECTOR ( 'NONE', #916, 999.9999999999998863 ) ;
#542 = PLANE ( 'NONE',  #1000 ) ;
#543 = DIRECTION ( 'NONE',  ( 0.000000000000000000, -1.000000000000000000, 0.000000000000000000 ) ) ;
#544 = DIRECTION ( 'NONE',  ( 0.000000000000000000, 0.000000000000000000, 1.000000000000000000 ) ) ;
#545 = SURFACE_SIDE_STYLE ('',( #882 ) ) ;
#546 = PRODUCT_DEFINITION_SHAPE ( 'NONE', 'NONE',  #1111 ) ;
#547 = CARTESIAN_POINT ( 'NONE',  ( -1.150240473580838030, 0.000000000000000000, -1.099999999999994982 ) ) ;
#548 = ADVANCED_FACE ( 'NONE', ( #343 ), #1097, .F. ) ;
#549 = UNCERTAINTY_MEASURE_WITH_UNIT (LENGTH_MEASURE( 1.000000000000000082E-05 ), #565, 'distance_accuracy_value', 'NONE');
#550 = VECTOR ( 'NONE', #287, 1000.000000000000000 ) ;
#551 = DIRECTION ( 'NONE',  ( 0.000000000000000000, -0.000000000000000000, -1.000000000000000000 ) ) ;
#552 = SURFACE_STYLE_FILL_AREA ( #1127 ) ;
#553 = MECHANICAL_DESIGN_GEOMETRIC_PRESENTATION_REPRESENTATION (  '', ( #1145 ), #1185 ) ;
#554 = CARTESIAN_POINT ( 'NONE',  ( 0.000000000000000000, 0.1875000000000000000, 0.000000000000000000 ) ) ;
#555 = DIRECTION ( 'NONE',  ( 0.000000000000000000, 0.000000000000000000, -1.000000000000000000 ) ) ;
#556 = PLANE ( 'NONE',  #160 ) ;
#557 = CARTESIAN_POINT ( 'NONE',  ( -1.100000000000002975, 0.1875000000000000000, -1.099999999999994982 ) ) ;
#558 = DIRECTION ( 'NONE',  ( 4.818676322157800333E-16, 0.000000000000000000, -1.000000000000000000 ) ) ;
#559 =( LENGTH_UNIT ( ) NAMED_UNIT ( * ) SI_UNIT ( .MILLI., .METRE. ) );
#560 = DIRECTION ( 'NONE',  ( 0.000000000000000000, 0.000000000000000000, -1.000000000000000000 ) ) ;
#561 = EDGE_CURVE ( 'NONE', #257, #34, #753, .T. ) ;
#562 = ADVANCED_FACE ( 'NONE', ( #1156 ), #612, .T. ) ;
#563 = DIRECTION ( 'NONE',  ( 0.000000000000000000, 0.000000000000000000, 1.000000000000000000 ) ) ;
#564 = EDGE_CURVE ( 'NONE', #1109, #1008, #756, .T. ) ;
#565 =( LENGTH_UNIT ( ) NAMED_UNIT ( * ) SI_UNIT ( .MILLI., .METRE. ) );
#566 = CARTESIAN_POINT ( 'NONE',  ( -2.499999999999998668, -6.000000000000000000, -0.2500000000000003886 ) ) ;
#567 = DIRECTION ( 'NONE',  ( 0.000000000000000000, 1.000000000000000000, -0.000000000000000000 ) ) ;
#568 = CARTESIAN_POINT ( 'NONE',  ( -3.450000000000005951, 7.500000000000000000, 1.349999999999997868 ) ) ;
#569 = CARTESIAN_POINT ( 'NONE',  ( -1.949759526419168276, 0.000000000000000000, 1.499999999999998224 ) ) ;
#570 = ORIENTED_EDGE ( 'NONE', *, *, #683, .F. ) ;
#571 = CARTESIAN_POINT ( 'NONE',  ( 2.000000000000004441, 0.1875000000000036360, -1.500000000000001332 ) ) ;
#572 = CARTESIAN_POINT ( 'NONE',  ( -1.100000000000018519, 0.1875000000000214273, -1.500000000000001332 ) ) ;
#573 = AXIS2_PLACEMENT_3D ( 'NONE', #1002, #157, #240 ) ;
#574 = EDGE_CURVE ( 'NONE', #787, #1187, #1158, .T. ) ;
#575 = CARTESIAN_POINT ( 'NONE',  ( -2.000000000000004441, 0.1875000000000000000, 0.000000000000000000 ) ) ;
#576 = EDGE_CURVE ( 'NONE', #710, #649, #347, .T. ) ;
#577 = CARTESIAN_POINT ( 'NONE',  ( 0.000000000000000000, 0.1875000000000000000, -1.500000000000001332 ) ) ;
#578 = CARTESIAN_POINT ( 'NONE',  ( 2.499999999999998668, 0.1875000000000000000, 0.000000000000000000 ) ) ;
#579 = CARTESIAN_POINT ( 'NONE',  ( 1.949759526419168276, 0.000000000000000000, -1.099999999999996758 ) ) ;
#580 = ADVANCED_FACE ( 'NONE', ( #1167 ), #1170, .T. ) ;
#581 = DIRECTION ( 'NONE',  ( 0.000000000000000000, -1.000000000000000000, 0.000000000000000000 ) ) ;
#582 = DIRECTION ( 'NONE',  ( -0.000000000000000000, 0.000000000000000000, 1.000000000000000000 ) ) ;
#583 = EDGE_CURVE ( 'NONE', #639, #827, #352, .T. ) ;
#584 = ADVANCED_FACE ( 'NONE', ( #1172 ), #474, .T. ) ;
#585 = CARTESIAN_POINT ( 'NONE',  ( 2.499999999999998668, -12.70710678118654791, 0.000000000000000000 ) ) ;
#586 = EDGE_CURVE ( 'NONE', #339, #735, #884, .T. ) ;
#587 = DIRECTION ( 'NONE',  ( 0.000000000000000000, -0.000000000000000000, -1.000000000000000000 ) ) ;
#588 = CARTESIAN_POINT ( 'NONE',  ( 2.000000000000004441, 0.1875000000000000000, 1.099999999999993427 ) ) ;
#589 = EDGE_CURVE ( 'NONE', #446, #712, #863, .T. ) ;
#590 = VERTEX_POINT ( 'NONE', #438 ) ;
#591 = DIRECTION ( 'NONE',  ( 1.000000000000000000, 0.000000000000000000, 0.000000000000000000 ) ) ;
#592 = DIRECTION ( 'NONE',  ( 5.204170427930338611E-14, 0.000000000000000000, -1.000000000000000000 ) ) ;
#593 = ORIENTED_EDGE ( 'NONE', *, *, #1088, .T. ) ;
#594 = EDGE_CURVE ( 'NONE', #1008, #1079, #436, .T. ) ;
#595 = DIRECTION ( 'NONE',  ( 0.000000000000000000, 0.000000000000000000, -1.000000000000000000 ) ) ;
#596 = ORIENTED_EDGE ( 'NONE', *, *, #1223, .F. ) ;
#597 = DIRECTION ( 'NONE',  ( -1.000000000000000000, 0.000000000000000000, 0.000000000000000000 ) ) ;
#598 = DIRECTION ( 'NONE',  ( -1.000000000000000000, 0.000000000000000000, 0.000000000000000000 ) ) ;
#599 = ORIENTED_EDGE ( 'NONE', *, *, #1085, .F. ) ;
#600 = CARTESIAN_POINT ( 'NONE',  ( 0.000000000000000000, 0.1875000000000000000, -1.500000000000001332 ) ) ;
#601 = AXIS2_PLACEMENT_3D ( 'NONE', #876, #699, #592 ) ;
#602 = ORIENTED_EDGE ( 'NONE', *, *, #1210, .T. ) ;
#603 = CARTESIAN_POINT ( 'NONE',  ( 2.499999999999998668, -6.000000000000000000, 0.000000000000000000 ) ) ;
#604 = CARTESIAN_POINT ( 'NONE',  ( -3.450000000000005951, 7.500000000000000000, 1.499999999999997780 ) ) ;
#605 = ORIENTED_EDGE ( 'NONE', *, *, #825, .T. ) ;
#606 = ORIENTED_EDGE ( 'NONE', *, *, #107, .T. ) ;
#607 = DIRECTION ( 'NONE',  ( -0.000000000000000000, -0.000000000000000000, 1.000000000000000000 ) ) ;
#608 =( NAMED_UNIT ( * ) SI_UNIT ( $, .STERADIAN. ) SOLID_ANGLE_UNIT ( ) );
#609 = DIRECTION ( 'NONE',  ( 1.000000000000000000, -0.000000000000000000, 0.000000000000000000 ) ) ;
#610 = ORIENTED_EDGE ( 'NONE', *, *, #561, .T. ) ;
#611 = EDGE_CURVE ( 'NONE', #422, #614, #60, .T. ) ;
#612 = PLANE ( 'NONE',  #856 ) ;
#613 = ORIENTED_EDGE ( 'NONE', *, *, #723, .T. ) ;
#614 = VERTEX_POINT ( 'NONE', #53 ) ;
#615 = CARTESIAN_POINT ( 'NONE',  ( -3.450000000000005951, 7.349999999999999645, -1.350000000000001421 ) ) ;
#616 = DIRECTION ( 'NONE',  ( 0.2588190451025165761, -0.9659258262890694224, -4.988660817435943846E-16 ) ) ;
#617 = VERTEX_POINT ( 'NONE', #334 ) ;
#618 = ORIENTED_EDGE ( 'NONE', *, *, #725, .T. ) ;
#619 = EDGE_CURVE ( 'NONE', #268, #1102, #25, .T. ) ;
#620 = CARTESIAN_POINT ( 'NONE',  ( 1.150240473580853573, 1.951563910473974877E-14, -1.500000000000001332 ) ) ;
#621 = ORIENTED_EDGE ( 'NONE', *, *, #1130, .F. ) ;
#622 = DIRECTION ( 'NONE',  ( 0.000000000000000000, -1.000000000000000000, 0.000000000000000000 ) ) ;
#623 = CARTESIAN_POINT ( 'NONE',  ( -3.600000000000005862, 0.000000000000000000, -1.500000000000001332 ) ) ;
#624 = ORIENTED_EDGE ( 'NONE', *, *, #576, .F. ) ;
#625 = ORIENTED_EDGE ( 'NONE', *, *, #152, .T. ) ;
#626 = ORIENTED_EDGE ( 'NONE', *, *, #988, .F. ) ;
#627 = ORIENTED_EDGE ( 'NONE', *, *, #564, .T. ) ;
#628 = DIRECTION ( 'NONE',  ( 1.000000000000000000, 0.000000000000000000, 0.000000000000000000 ) ) ;
#629 = DIRECTION ( 'NONE',  ( 0.000000000000000000, 1.000000000000000000, 0.000000000000000000 ) ) ;
#630 = ORIENTED_EDGE ( 'NONE', *, *, #940, .T. ) ;
#631 = EDGE_CURVE ( 'NONE', #713, #1079, #879, .T. ) ;
#632 = SURFACE_STYLE_FILL_AREA ( #922 ) ;
#633 = EDGE_LOOP ( 'NONE', ( #37, #690, #1036 ) ) ;
#634 = VECTOR ( 'NONE', #1180, 1000.000000000000000 ) ;
#635 = ORIENTED_EDGE ( 'NONE', *, *, #164, .T. ) ;
#636 = CARTESIAN_POINT ( 'NONE',  ( -7.228014483236697541E-16, 0.1875000000000000000, 1.499999999999999556 ) ) ;
#637 = VECTOR ( 'NONE', #999, 999.9999999999998863 ) ;
#638 = ADVANCED_FACE ( 'NONE', ( #888 ), #57, .T. ) ;
#639 = VERTEX_POINT ( 'NONE', #135 ) ;
#640 = APPLICATION_PROTOCOL_DEFINITION ( 'draft international standard', 'automotive_design', 1998, #87 ) ;
#641 = PLANE ( 'NONE',  #665 ) ;
#642 = CIRCLE ( 'NONE', #1161, 0.1499999999999999667 ) ;
#643 = ORIENTED_EDGE ( 'NONE', *, *, #152, .F. ) ;
#644 = CIRCLE ( 'NONE', #963, 0.1499999999999999667 ) ;
#645 = ORIENTED_EDGE ( 'NONE', *, *, #912, .T. ) ;
#646 = VERTEX_POINT ( 'NONE', #303 ) ;
#647 = CARTESIAN_POINT ( 'NONE',  ( 0.000000000000000000, 0.000000000000000000, 0.000000000000000000 ) ) ;
#648 = AXIS2_PLACEMENT_3D ( 'NONE', #989, #149, #58 ) ;
#649 = VERTEX_POINT ( 'NONE', #353 ) ;
#650 = ADVANCED_FACE ( 'NONE', ( #6 ), #736, .T. ) ;
#651 = EDGE_CURVE ( 'NONE', #208, #617, #1236, .T. ) ;
#652 = ORIENTED_EDGE ( 'NONE', *, *, #977, .F. ) ;
#653 =( NAMED_UNIT ( * ) PLANE_ANGLE_UNIT ( ) SI_UNIT ( $, .RADIAN. ) );
#654 = VECTOR ( 'NONE', #428, 1000.000000000000000 ) ;
#655 = CARTESIAN_POINT ( 'NONE',  ( -3.450000000000005951, 7.500000000000000000, -1.500000000000001332 ) ) ;
#656 = LINE ( 'NONE', #205, #634 ) ;
#657 = PRESENTATION_LAYER_ASSIGNMENT (  '', '', ( #1145 ) ) ;
#658 = ORIENTED_EDGE ( 'NONE', *, *, #1115, .T. ) ;
#659 = CARTESIAN_POINT ( 'NONE',  ( 0.000000000000000000, 0.000000000000000000, 0.000000000000000000 ) ) ;
#660 = CYLINDRICAL_SURFACE ( 'NONE', #849, 0.1499999999999999667 ) ;
#661 = ORIENTED_EDGE ( 'NONE', *, *, #631, .F. ) ;
#662 = DIRECTION ( 'NONE',  ( 0.000000000000000000, 0.000000000000000000, -1.000000000000000000 ) ) ;
#663 = ORIENTED_EDGE ( 'NONE', *, *, #340, .T. ) ;
#664 = DIRECTION ( 'NONE',  ( 0.000000000000000000, 0.000000000000000000, 1.000000000000000000 ) ) ;
#665 = AXIS2_PLACEMENT_3D ( 'NONE', #166, #873, #560 ) ;
#666 = ORIENTED_EDGE ( 'NONE', *, *, #132, .F. ) ;
#667 = DIRECTION ( 'NONE',  ( 1.000000000000000000, 0.000000000000000000, 0.000000000000000000 ) ) ;
#668 = CARTESIAN_POINT ( 'NONE',  ( 2.499999999999998668, -6.000000000000000000, -0.2500000000000003886 ) ) ;
#669 = ORIENTED_EDGE ( 'NONE', *, *, #196, .T. ) ;
#670 =( LENGTH_UNIT ( ) NAMED_UNIT ( * ) SI_UNIT ( .MILLI., .METRE. ) );
#671 = DIRECTION ( 'NONE',  ( 0.000000000000000000, 0.000000000000000000, -1.000000000000000000 ) ) ;
#672 = ORIENTED_EDGE ( 'NONE', *, *, #196, .F. ) ;
#673 = CARTESIAN_POINT ( 'NONE',  ( -3.600000000000005862, 0.1875000000000000000, 1.349999999999997868 ) ) ;
#674 = EDGE_LOOP ( 'NONE', ( #221, #599, #238, #361 ) ) ;
#675 = CARTESIAN_POINT ( 'NONE',  ( -1.150240473580838030, 0.000000000000000000, 1.499999999999998668 ) ) ;
#676 = ORIENTED_EDGE ( 'NONE', *, *, #54, .F. ) ;
#677 = VECTOR ( 'NONE', #974, 1000.000000000000000 ) ;
#678 = CARTESIAN_POINT ( 'NONE',  ( -2.120217581749411084E-15, 0.1875000000000000000, -1.099999999999991651 ) ) ;
#679 = AXIS2_PLACEMENT_3D ( 'NONE', #481, #958, #740 ) ;
#680 = CARTESIAN_POINT ( 'NONE',  ( 0.000000000000000000, 0.1875000000000000000, 1.099999999999993427 ) ) ;
#681 = CARTESIAN_POINT ( 'NONE',  ( 3.449999999999992184, 7.500000000000000000, -1.350000000000001421 ) ) ;
#682 = EDGE_LOOP ( 'NONE', ( #1195, #375, #1183, #1235 ) ) ;
#683 = EDGE_CURVE ( 'NONE', #1187, #1089, #462, .T. ) ;
#684 = ORIENTED_EDGE ( 'NONE', *, *, #103, .F. ) ;
#685 = CARTESIAN_POINT ( 'NONE',  ( -1.150240473580838030, 0.000000000000000000, 1.099999999999993427 ) ) ;
#686 = DIRECTION ( 'NONE',  ( 0.000000000000000000, 0.000000000000000000, 1.000000000000000000 ) ) ;
#687 = ORIENTED_EDGE ( 'NONE', *, *, #594, .F. ) ;
#688 = VERTEX_POINT ( 'NONE', #171 ) ;
#689 = CARTESIAN_POINT ( 'NONE',  ( -0.000000000000000000, 0.000000000000000000, 1.099999999999993427 ) ) ;
#690 = ORIENTED_EDGE ( 'NONE', *, *, #1223, .T. ) ;
#691 = CARTESIAN_POINT ( 'NONE',  ( 1.100000000000013189, 0.1875000000000000000, -1.500000000000001332 ) ) ;
#692 = ORIENTED_EDGE ( 'NONE', *, *, #952, .T. ) ;
#693 = ADVANCED_FACE ( 'NONE', ( #454 ), #253, .T. ) ;
#694 = ORIENTED_EDGE ( 'NONE', *, *, #956, .F. ) ;
#695 = LINE ( 'NONE', #217, #677 ) ;
#696 = CARTESIAN_POINT ( 'NONE',  ( 2.120217581749411084E-15, 0.000000000000000000, -1.099999999999991651 ) ) ;
#697 = VERTEX_POINT ( 'NONE', #345 ) ;
#698 = CARTESIAN_POINT ( 'NONE',  ( -3.450000000000005951, 0.1875000000000000000, 1.499999999999997780 ) ) ;
#699 = DIRECTION ( 'NONE',  ( 0.9659258262890694224, 0.2588190451025165761, 5.026842620747752036E-14 ) ) ;
#700 = ORIENTED_EDGE ( 'NONE', *, *, #1166, .T. ) ;
#701 =( NAMED_UNIT ( * ) PLANE_ANGLE_UNIT ( ) SI_UNIT ( $, .RADIAN. ) );
#702 = CARTESIAN_POINT ( 'NONE',  ( -1.150240473580859346, 0.000000000000000000, -1.500000000000001332 ) ) ;
#703 = ORIENTED_EDGE ( 'NONE', *, *, #807, .T. ) ;
#704 = PRODUCT ( 'MKP2C021001B00JA00', 'MKP2C021001B00JA00', '', ( #1216 ) ) ;
#705 = PRODUCT_DEFINITION_CONTEXT ( 'detailed design', #87, 'design' ) ;
#706 = EDGE_CURVE ( 'NONE', #412, #848, #880, .T. ) ;
#707 = ORIENTED_EDGE ( 'NONE', *, *, #1095, .T. ) ;
#708 = ORIENTED_EDGE ( 'NONE', *, *, #706, .T. ) ;
#709 = DIRECTION ( 'NONE',  ( 0.000000000000000000, 0.000000000000000000, -1.000000000000000000 ) ) ;
#710 = VERTEX_POINT ( 'NONE', #480 ) ;
#711 = CARTESIAN_POINT ( 'NONE',  ( -2.499999999999998668, 0.1875000000000000000, 0.000000000000000000 ) ) ;
#712 = VERTEX_POINT ( 'NONE', #568 ) ;
#713 = VERTEX_POINT ( 'NONE', #248 ) ;
#714 = CARTESIAN_POINT ( 'NONE',  ( 3.449999999999992184, 7.349999999999999645, 1.350000000000001421 ) ) ;
#715 = AXIS2_PLACEMENT_3D ( 'NONE', #680, #802, #492 ) ;
#716 = ADVANCED_FACE ( 'NONE', ( #1234 ), #727, .T. ) ;
#717 = DIRECTION ( 'NONE',  ( -1.000000000000000000, -0.000000000000000000, -0.000000000000000000 ) ) ;
#718 = VERTEX_POINT ( 'NONE', #1114 ) ;
#719 = DIRECTION ( 'NONE',  ( 1.000000000000000000, 0.000000000000000000, 0.000000000000000000 ) ) ;
#720 = CARTESIAN_POINT ( 'NONE',  ( 3.449999999999992184, 7.349999999999999645, -1.350000000000001421 ) ) ;
#721 = DIRECTION ( 'NONE',  ( 1.000000000000000000, 0.000000000000000000, 0.000000000000000000 ) ) ;
#722 = ORIENTED_EDGE ( 'NONE', *, *, #860, .F. ) ;
#723 = EDGE_CURVE ( 'NONE', #688, #461, #445, .T. ) ;
#724 = DIRECTION ( 'NONE',  ( 1.000000000000000000, 0.000000000000000000, -0.000000000000000000 ) ) ;
#725 = EDGE_CURVE ( 'NONE', #1123, #378, #418, .T. ) ;
#726 = EDGE_LOOP ( 'NONE', ( #260, #1023, #676, #59 ) ) ;
#727 = PLANE ( 'NONE',  #991 ) ;
#728 = DIRECTION ( 'NONE',  ( -0.000000000000000000, 1.000000000000000000, 0.000000000000000000 ) ) ;
#729 = DIRECTION ( 'NONE',  ( 0.000000000000000000, 0.000000000000000000, -1.000000000000000000 ) ) ;
#730 = VERTEX_POINT ( 'NONE', #472 ) ;
#731 = CYLINDRICAL_SURFACE ( 'NONE', #1059, 0.1499999999999999667 ) ;
#732 = PRESENTATION_LAYER_ASSIGNMENT (  '', '', ( #204 ) ) ;
#733 = ADVANCED_FACE ( 'NONE', ( #9 ), #467, .T. ) ;
#734 = FACE_OUTER_BOUND ( 'NONE', #868, .T. ) ;
#735 = VERTEX_POINT ( 'NONE', #557 ) ;
#736 = PLANE ( 'NONE',  #798 ) ;
#737 = CARTESIAN_POINT ( 'NONE',  ( 0.000000000000000000, 0.000000000000000000, 0.000000000000000000 ) ) ;
#738 = SPHERICAL_SURFACE ( 'NONE', #937, 0.1500000000000000222 ) ;
#739 = ORIENTED_EDGE ( 'NONE', *, *, #117, .T. ) ;
#740 = DIRECTION ( 'NONE',  ( 0.000000000000000000, 0.000000000000000000, 1.000000000000000000 ) ) ;
#741 = ORIENTED_EDGE ( 'NONE', *, *, #1017, .T. ) ;
#742 = ADVANCED_FACE ( 'NONE', ( #420 ), #1, .T. ) ;
#743 = ORIENTED_EDGE ( 'NONE', *, *, #1073, .T. ) ;
#744 = VECTOR ( 'NONE', #567, 1000.000000000000000 ) ;
#745 = EDGE_LOOP ( 'NONE', ( #1027, #766, #626, #1053 ) ) ;
#746 = PLANE ( 'NONE',  #32 ) ;
#747 = VECTOR ( 'NONE', #154, 1000.000000000000000 ) ;
#748 = DIRECTION ( 'NONE',  ( -0.000000000000000000, 1.000000000000000000, -0.000000000000000000 ) ) ;
#749 = EDGE_LOOP ( 'NONE', ( #161, #48, #630, #464 ) ) ;
#750 = VECTOR ( 'NONE', #469, 1000.000000000000000 ) ;
#751 = AXIS2_PLACEMENT_3D ( 'NONE', #1031, #1117, #563 ) ;
#752 = FACE_OUTER_BOUND ( 'NONE', #633, .T. ) ;
#753 = LINE ( 'NONE', #212, #763 ) ;
#754 = FACE_OUTER_BOUND ( 'NONE', #425, .T. ) ;
#755 = ORIENTED_EDGE ( 'NONE', *, *, #897, .F. ) ;
#756 = CIRCLE ( 'NONE', #1220, 0.1499999999999999667 ) ;
#757 = CARTESIAN_POINT ( 'NONE',  ( -2.499999999999998668, -6.000000000000000000, 0.000000000000000000 ) ) ;
#758 = VERTEX_POINT ( 'NONE', #307 ) ;
#759 = ORIENTED_EDGE ( 'NONE', *, *, #1073, .F. ) ;
#760 = LINE ( 'NONE', #1086, #389 ) ;
#761 = DIRECTION ( 'NONE',  ( 0.000000000000000000, -0.000000000000000000, -1.000000000000000000 ) ) ;
#762 = CARTESIAN_POINT ( 'NONE',  ( 3.599999999999992095, 0.1875000000000000000, 1.350000000000001421 ) ) ;
#763 = VECTOR ( 'NONE', #812, 1000.000000000000000 ) ;
#764 = FACE_OUTER_BOUND ( 'NONE', #1206, .T. ) ;
#765 = VERTEX_POINT ( 'NONE', #588 ) ;
#766 = ORIENTED_EDGE ( 'NONE', *, *, #107, .F. ) ;
#767 = VECTOR ( 'NONE', #424, 1000.000000000000000 ) ;
#768 = LINE ( 'NONE', #396, #1139 ) ;
#769 = CIRCLE ( 'NONE', #408, 0.1499999999999999667 ) ;
#770 = DIRECTION ( 'NONE',  ( 0.000000000000000000, 0.000000000000000000, 1.000000000000000000 ) ) ;
#771 = PLANE ( 'NONE',  #715 ) ;
#772 = DIRECTION ( 'NONE',  ( -0.000000000000000000, -0.000000000000000000, -1.000000000000000000 ) ) ;
#773 = EDGE_LOOP ( 'NONE', ( #1067, #254, #759, #1043 ) ) ;
#774 = AXIS2_PLACEMENT_3D ( 'NONE', #93, #250, #356 ) ;
#775 = ORIENTED_EDGE ( 'NONE', *, *, #594, .T. ) ;
#776 = FACE_OUTER_BOUND ( 'NONE', #1069, .T. ) ;
#777 = CARTESIAN_POINT ( 'NONE',  ( -3.450000000000005951, 7.349999999999999645, 1.349999999999997868 ) ) ;
#778 = EDGE_CURVE ( 'NONE', #1187, #710, #30, .T. ) ;
#779 = ADVANCED_FACE ( 'NONE', ( #23 ), #908, .F. ) ;
#780 = EDGE_LOOP ( 'NONE', ( #1077, #1100, #652, #249 ) ) ;
#781 = ORIENTED_EDGE ( 'NONE', *, *, #1166, .F. ) ;
#782 = CARTESIAN_POINT ( 'NONE',  ( -3.600000000000005862, 0.000000000000000000, -1.500000000000001332 ) ) ;
#783 = ORIENTED_EDGE ( 'NONE', *, *, #725, .F. ) ;
#784 = VECTOR ( 'NONE', #489, 1000.000000000000000 ) ;
#785 = DIRECTION ( 'NONE',  ( 1.927470528863115795E-15, -0.000000000000000000, 1.000000000000000000 ) ) ;
#786 = CARTESIAN_POINT ( 'NONE',  ( -3.600000000000005862, 7.349999999999999645, -1.350000000000001421 ) ) ;
#787 = VERTEX_POINT ( 'NONE', #762 ) ;
#788 = ORIENTED_EDGE ( 'NONE', *, *, #950, .F. ) ;
#789 = VECTOR ( 'NONE', #1124, 1000.000000000000000 ) ;
#790 = PLANE ( 'NONE',  #528 ) ;
#791 = VERTEX_POINT ( 'NONE', #702 ) ;
#792 = ORIENTED_EDGE ( 'NONE', *, *, #965, .F. ) ;
#793 = ADVANCED_FACE ( 'NONE', ( #40 ), #138, .F. ) ;
#794 = EDGE_LOOP ( 'NONE', ( #672, #194, #1013, #174 ) ) ;
#795 = ORIENTED_EDGE ( 'NONE', *, *, #984, .T. ) ;
#796 = CIRCLE ( 'NONE', #992, 0.2500000000000003886 ) ;
#797 = CARTESIAN_POINT ( 'NONE',  ( -3.600000000000005862, 0.000000000000000000, 1.499999999999997780 ) ) ;
#798 = AXIS2_PLACEMENT_3D ( 'NONE', #500, #870, #374 ) ;
#799 = VERTEX_POINT ( 'NONE', #130 ) ;
#800 = VECTOR ( 'NONE', #407, 1000.000000000000000 ) ;
#801 = DIRECTION ( 'NONE',  ( 0.000000000000000000, 0.000000000000000000, 1.000000000000000000 ) ) ;
#802 = DIRECTION ( 'NONE',  ( 0.000000000000000000, 0.000000000000000000, -1.000000000000000000 ) ) ;
#803 = UNCERTAINTY_MEASURE_WITH_UNIT (LENGTH_MEASURE( 1.000000000000000082E-05 ), #670, 'distance_accuracy_value', 'NONE');
#804 = EDGE_LOOP ( 'NONE', ( #781, #219, #857, #1171 ) ) ;
#805 = EDGE_LOOP ( 'NONE', ( #1116, #606, #722, #305 ) ) ;
#806 = LINE ( 'NONE', #187, #800 ) ;
#807 = EDGE_CURVE ( 'NONE', #1109, #861, #442, .T. ) ;
#808 = VECTOR ( 'NONE', #993, 1000.000000000000000 ) ;
#809 = VECTOR ( 'NONE', #894, 1000.000000000000000 ) ;
#810 = VECTOR ( 'NONE', #982, 1000.000000000000000 ) ;
#811 = CIRCLE ( 'NONE', #222, 0.2500000000000003886 ) ;
#812 = DIRECTION ( 'NONE',  ( -1.000000000000000000, 0.000000000000000000, -4.818676322157799347E-16 ) ) ;
#813 = VECTOR ( 'NONE', #1071, 1000.000000000000000 ) ;
#814 = LINE ( 'NONE', #341, #750 ) ;
#815 = CARTESIAN_POINT ( 'NONE',  ( 0.000000000000000000, 0.1875000000000000000, 1.099999999999993427 ) ) ;
#816 = FILL_AREA_STYLE_COLOUR ( '', #211 ) ;
#817 = DIRECTION ( 'NONE',  ( 0.000000000000000000, -1.000000000000000000, 0.000000000000000000 ) ) ;
#818 = CYLINDRICAL_SURFACE ( 'NONE', #865, 0.1499999999999999667 ) ;
#819 = CARTESIAN_POINT ( 'NONE',  ( 3.449999999999992184, 7.349999999999999645, -1.350000000000001421 ) ) ;
#820 = AXIS2_PLACEMENT_3D ( 'NONE', #503, #1137, #12 ) ;
#821 = DIRECTION ( 'NONE',  ( 0.000000000000000000, 0.000000000000000000, 1.000000000000000000 ) ) ;
#822 = ADVANCED_FACE ( 'NONE', ( #449 ), #866, .T. ) ;
#823 = DIRECTION ( 'NONE',  ( 0.000000000000000000, 0.000000000000000000, -1.000000000000000000 ) ) ;
#824 =( NAMED_UNIT ( * ) PLANE_ANGLE_UNIT ( ) SI_UNIT ( $, .RADIAN. ) );
#825 = EDGE_CURVE ( 'NONE', #765, #758, #847, .T. ) ;
#826 = DIRECTION ( 'NONE',  ( 0.000000000000000000, 0.000000000000000000, -1.000000000000000000 ) ) ;
#827 = VERTEX_POINT ( 'NONE', #691 ) ;
#828 = CLOSED_SHELL ( 'NONE', ( #1044, #580, #650, #317 ) ) ;
#829 = CARTESIAN_POINT ( 'NONE',  ( -1.099999999999998979, 0.1875000000000167644, -1.099999999999994982 ) ) ;
#830 = ORIENTED_EDGE ( 'NONE', *, *, #977, .T. ) ;
#831 = DIRECTION ( 'NONE',  ( -1.000000000000000000, -0.000000000000000000, -0.000000000000000000 ) ) ;
#832 = EDGE_LOOP ( 'NONE', ( #1120, #613, #1084, #593, #830, #835, #310, #1221, #275, #877, #1020, #1233 ) ) ;
#833 = VECTOR ( 'NONE', #535, 1000.000000000000000 ) ;
#834 = DIRECTION ( 'NONE',  ( 0.000000000000000000, 0.000000000000000000, -1.000000000000000000 ) ) ;
#835 = ORIENTED_EDGE ( 'NONE', *, *, #583, .T. ) ;
#836 = FACE_OUTER_BOUND ( 'NONE', #682, .T. ) ;
#837 = EDGE_LOOP ( 'NONE', ( #312, #663, #624 ) ) ;
#838 = VECTOR ( 'NONE', #748, 1000.000000000000000 ) ;
#839 = CARTESIAN_POINT ( 'NONE',  ( -1.949759526419168276, -5.300543954373508975E-16, -1.099999999999996758 ) ) ;
#840 = VERTEX_POINT ( 'NONE', #681 ) ;
#841 = CARTESIAN_POINT ( 'NONE',  ( -6.505213034913027590E-16, 7.500000000000000000, 1.349999999999999645 ) ) ;
#842 = EDGE_CURVE ( 'NONE', #401, #235, #468, .T. ) ;
#843 = ORIENTED_EDGE ( 'NONE', *, *, #35, .F. ) ;
#844 = VECTOR ( 'NONE', #114, 1000.000000000000000 ) ;
#845 = CARTESIAN_POINT ( 'NONE',  ( -0.9794228634060018202, 0.6374999999999941824, 1.099999999999993427 ) ) ;
#846 = ORIENTED_EDGE ( 'NONE', *, *, #184, .F. ) ;
#847 = LINE ( 'NONE', #122, #457 ) ;
#848 = VERTEX_POINT ( 'NONE', #524 ) ;
#849 = AXIS2_PLACEMENT_3D ( 'NONE', #1189, #231, #558 ) ;
#850 = FACE_OUTER_BOUND ( 'NONE', #29, .T. ) ;
#851 = CARTESIAN_POINT ( 'NONE',  ( -3.600000000000005862, 0.000000000000000000, 1.499999999999997780 ) ) ;
#852 = VERTEX_POINT ( 'NONE', #1129 ) ;
#853 = CARTESIAN_POINT ( 'NONE',  ( 0.000000000000000000, 0.000000000000000000, 1.099999999999993427 ) ) ;
#854 = VERTEX_POINT ( 'NONE', #397 ) ;
#855 = VECTOR ( 'NONE', #537, 1000.000000000000114 ) ;
#856 = AXIS2_PLACEMENT_3D ( 'NONE', #976, #127, #551 ) ;
#857 = ORIENTED_EDGE ( 'NONE', *, *, #156, .F. ) ;
#858 = VECTOR ( 'NONE', #962, 1000.000000000000000 ) ;
#859 = EDGE_LOOP ( 'NONE', ( #743, #627, #1064 ) ) ;
#860 = EDGE_CURVE ( 'NONE', #852, #787, #49, .T. ) ;
#861 = VERTEX_POINT ( 'NONE', #786 ) ;
#862 = ORIENTED_EDGE ( 'NONE', *, *, #383, .F. ) ;
#863 = LINE ( 'NONE', #315, #38 ) ;
#864 = ORIENTED_EDGE ( 'NONE', *, *, #308, .T. ) ;
#865 = AXIS2_PLACEMENT_3D ( 'NONE', #78, #69, #1075 ) ;
#866 = CYLINDRICAL_SURFACE ( 'NONE', #936, 0.1499999999999999667 ) ;
#867 = ADVANCED_FACE ( 'NONE', ( #850 ), #193, .F. ) ;
#868 = EDGE_LOOP ( 'NONE', ( #684, #429, #382, #792 ) ) ;
#869 = VECTOR ( 'NONE', #3, 1000.000000000000000 ) ;
#870 = DIRECTION ( 'NONE',  ( -0.000000000000000000, 1.000000000000000000, 0.000000000000000000 ) ) ;
#871 = EDGE_LOOP ( 'NONE', ( #358, #687, #1240, #843 ) ) ;
#872 = VECTOR ( 'NONE', #582, 1000.000000000000000 ) ;
#873 = DIRECTION ( 'NONE',  ( 0.9659258262890689783, 0.2588190451025185190, 0.000000000000000000 ) ) ;
#874 = EDGE_LOOP ( 'NONE', ( #1134, #245, #1209, #666 ) ) ;
#875 = SPHERICAL_SURFACE ( 'NONE', #1040, 0.1500000000000000222 ) ;
#876 = CARTESIAN_POINT ( 'NONE',  ( 1.150240473580780742, 0.000000000000000000, 9.628966757168924213E-14 ) ) ;
#877 = ORIENTED_EDGE ( 'NONE', *, *, #975, .T. ) ;
#878 = VECTOR ( 'NONE', #229, 1000.000000000000000 ) ;
#879 = LINE ( 'NONE', #294, #477 ) ;
#880 = LINE ( 'NONE', #851, #426 ) ;
#881 = ORIENTED_EDGE ( 'NONE', *, *, #383, .T. ) ;
#882 = SURFACE_STYLE_FILL_AREA ( #1154 ) ;
#883 = DIRECTION ( 'NONE',  ( 0.000000000000000000, -1.000000000000000000, 0.000000000000000000 ) ) ;
#884 = LINE ( 'NONE', #829, #855 ) ;
#885 = CARTESIAN_POINT ( 'NONE',  ( -2.000000000000004441, 0.1875000000000000000, -1.099999999999996758 ) ) ;
#886 = ORIENTED_EDGE ( 'NONE', *, *, #996, .T. ) ;
#887 = CARTESIAN_POINT ( 'NONE',  ( -3.600000000000005862, 7.500000000000000000, -1.350000000000001421 ) ) ;
#888 = FACE_OUTER_BOUND ( 'NONE', #804, .T. ) ;
#889 = CARTESIAN_POINT ( 'NONE',  ( -1.819134295108998822, -0.4874999999999954925, 1.099999999999993427 ) ) ;
#890 = AXIS2_PLACEMENT_3D ( 'NONE', #410, #1146, #929 ) ;
#891 = EDGE_CURVE ( 'NONE', #412, #854, #44, .T. ) ;
#892 = LINE ( 'NONE', #200, #85 ) ;
#893 = DIRECTION ( 'NONE',  ( -0.2588190451025185190, -0.9659258262890689783, 0.000000000000000000 ) ) ;
#894 = DIRECTION ( 'NONE',  ( -0.2588190451025165761, -0.9659258262890694224, 3.503246160812043455E-46 ) ) ;
#895 = ADVANCED_FACE ( 'NONE', ( #460 ), #875, .T. ) ;
#896 = VECTOR ( 'NONE', #555, 1000.000000000000000 ) ;
#897 = EDGE_CURVE ( 'NONE', #713, #235, #11, .T. ) ;
#898 = DIRECTION ( 'NONE',  ( 0.000000000000000000, -0.000000000000000000, 1.000000000000000000 ) ) ;
#899 = VECTOR ( 'NONE', #893, 999.9999999999998863 ) ;
#900 = DIRECTION ( 'NONE',  ( 1.000000000000000000, 0.000000000000000000, 0.000000000000000000 ) ) ;
#901 = FACE_OUTER_BOUND ( 'NONE', #199, .T. ) ;
#902 = FACE_OUTER_BOUND ( 'NONE', #871, .T. ) ;
#903 = DIRECTION ( 'NONE',  ( -0.000000000000000000, 1.000000000000000000, -0.000000000000000000 ) ) ;
#904 = DIRECTION ( 'NONE',  ( 0.000000000000000000, 1.000000000000000000, -0.000000000000000000 ) ) ;
#905 = DIRECTION ( 'NONE',  ( 1.000000000000000000, 0.000000000000000000, -1.927470528863115795E-15 ) ) ;
#906 = DIRECTION ( 'NONE',  ( -1.000000000000000000, 0.000000000000000000, 1.927470528863115795E-15 ) ) ;
#907 = LINE ( 'NONE', #244, #66 ) ;
#908 = PLANE ( 'NONE',  #172 ) ;
#909 = MANIFOLD_SOLID_BREP ( 'Pin 1', #1096 ) ;
#910 = AXIS2_PLACEMENT_3D ( 'NONE', #1068, #717, #61 ) ;
#911 = VECTOR ( 'NONE', #831, 1000.000000000000000 ) ;
#912 = EDGE_CURVE ( 'NONE', #735, #262, #907, .T. ) ;
#913 = DIRECTION ( 'NONE',  ( 0.000000000000000000, 0.000000000000000000, 1.000000000000000000 ) ) ;
#914 = DIRECTION ( 'NONE',  ( 0.000000000000000000, -1.000000000000000000, 0.000000000000000000 ) ) ;
#915 = VECTOR ( 'NONE', #328, 999.9999999999998863 ) ;
#916 = DIRECTION ( 'NONE',  ( 0.2588190451025185190, -0.9659258262890689783, 1.247165204358997548E-16 ) ) ;
#917 = CIRCLE ( 'NONE', #525, 0.1499999999999999667 ) ;
#918 = DIRECTION ( 'NONE',  ( 0.000000000000000000, -1.000000000000000000, 0.000000000000000000 ) ) ;
#919 = AXIS2_PLACEMENT_3D ( 'NONE', #404, #817, #518 ) ;
#920 = CIRCLE ( 'NONE', #432, 0.1499999999999999667 ) ;
#921 = CARTESIAN_POINT ( 'NONE',  ( -2.499999999999998668, 0.1875000000000000000, 0.000000000000000000 ) ) ;
#922 = FILL_AREA_STYLE ('',( #816 ) ) ;
#923 = CIRCLE ( 'NONE', #316, 0.2500000000000003886 ) ;
#924 = DIRECTION ( 'NONE',  ( 4.818676322157799347E-16, 0.000000000000000000, -1.000000000000000000 ) ) ;
#925 = ADVANCED_FACE ( 'NONE', ( #479 ), #74, .T. ) ;
#926 = LINE ( 'NONE', #148, #928 ) ;
#927 = CARTESIAN_POINT ( 'NONE',  ( -3.600000000000005862, 7.500000000000000000, -1.500000000000001332 ) ) ;
#928 = VECTOR ( 'NONE', #476, 1000.000000000000000 ) ;
#929 = DIRECTION ( 'NONE',  ( 0.000000000000000000, 0.000000000000000000, -1.000000000000000000 ) ) ;
#930 = DIRECTION ( 'NONE',  ( 0.000000000000000000, -1.000000000000000000, 0.000000000000000000 ) ) ;
#931 = LINE ( 'NONE', #623, #911 ) ;
#932 = DIRECTION ( 'NONE',  ( 0.000000000000000000, -1.000000000000000000, 0.000000000000000000 ) ) ;
#933 = CIRCLE ( 'NONE', #63, 0.1499999999999999667 ) ;
#934 = CARTESIAN_POINT ( 'NONE',  ( 0.000000000000000000, 7.500000000000000000, -1.350000000000001421 ) ) ;
#935 = FACE_OUTER_BOUND ( 'NONE', #300, .T. ) ;
#936 = AXIS2_PLACEMENT_3D ( 'NONE', #539, #598, #664 ) ;
#937 = AXIS2_PLACEMENT_3D ( 'NONE', #777, #502, #667 ) ;
#938 = DIRECTION ( 'NONE',  ( -1.000000000000000000, 0.000000000000000000, 0.000000000000000000 ) ) ;
#939 = CARTESIAN_POINT ( 'NONE',  ( -1.100000000000002975, 0.1875000000000017208, 1.499999999999998668 ) ) ;
#940 = EDGE_CURVE ( 'NONE', #718, #366, #923, .T. ) ;
#941 = FILL_AREA_STYLE_COLOUR ( '', #392 ) ;
#942 = DIRECTION ( 'NONE',  ( 0.2588190451025185190, -0.9659258262890689783, 4.988660817435979344E-16 ) ) ;
#943 = DIRECTION ( 'NONE',  ( 0.000000000000000000, -0.000000000000000000, -1.000000000000000000 ) ) ;
#944 = FACE_OUTER_BOUND ( 'NONE', #197, .T. ) ;
#945 = LINE ( 'NONE', #689, #550 ) ;
#946 = DIRECTION ( 'NONE',  ( 5.204170427930338611E-14, 0.000000000000000000, 1.000000000000000000 ) ) ;
#947 = STYLED_ITEM ( 'NONE', ( #15 ), #909 ) ;
#948 = PRESENTATION_STYLE_ASSIGNMENT (( #177 ) ) ;
#949 = CIRCLE ( 'NONE', #28, 0.1499999999999999667 ) ;
#950 = EDGE_CURVE ( 'NONE', #840, #446, #491, .T. ) ;
#951 = SURFACE_STYLE_USAGE ( .BOTH. , #545 ) ;
#952 = EDGE_CURVE ( 'NONE', #791, #339, #926, .T. ) ;
#953 = EDGE_CURVE ( 'NONE', #208, #646, #91, .T. ) ;
#954 = CIRCLE ( 'NONE', #1218, 0.2500000000000003886 ) ;
#955 = MECHANICAL_DESIGN_GEOMETRIC_PRESENTATION_REPRESENTATION (  '', ( #204 ), #237 ) ;
#956 = EDGE_CURVE ( 'NONE', #1226, #590, #92, .T. ) ;
#957 = DIRECTION ( 'NONE',  ( 0.000000000000000000, -0.000000000000000000, -1.000000000000000000 ) ) ;
#958 = DIRECTION ( 'NONE',  ( 0.9659258262890689783, -0.2588190451025185190, 0.000000000000000000 ) ) ;
#959 = CIRCLE ( 'NONE', #983, 0.2500000000000003886 ) ;
#960 = CARTESIAN_POINT ( 'NONE',  ( -3.450000000000005951, 7.500000000000000000, -1.350000000000001421 ) ) ;
#961 = VECTOR ( 'NONE', #523, 1000.000000000000000 ) ;
#962 = DIRECTION ( 'NONE',  ( -1.000000000000000000, 0.000000000000000000, -4.818676322157799347E-16 ) ) ;
#963 = AXIS2_PLACEMENT_3D ( 'NONE', #720, #728, #544 ) ;
#964 = CARTESIAN_POINT ( 'NONE',  ( 1.949759526419168276, 0.000000000000000000, -1.099999999999996758 ) ) ;
#965 = EDGE_CURVE ( 'NONE', #185, #39, #505, .T. ) ;
#966 = FILL_AREA_STYLE_COLOUR ( '', #531 ) ;
#967 = CARTESIAN_POINT ( 'NONE',  ( 3.599999999999992095, 0.1875000000000000000, 0.000000000000000000 ) ) ;
#968 = UNCERTAINTY_MEASURE_WITH_UNIT (LENGTH_MEASURE( 1.000000000000000082E-05 ), #203, 'distance_accuracy_value', 'NONE');
#969 = DIRECTION ( 'NONE',  ( 1.000000000000000000, 0.000000000000000000, 0.000000000000000000 ) ) ;
#970 = CARTESIAN_POINT ( 'NONE',  ( 2.000000000000003553, 0.1875000000000000000, 1.500000000000000444 ) ) ;
#971 = DIRECTION ( 'NONE',  ( 1.000000000000000000, 0.000000000000000000, -0.000000000000000000 ) ) ;
#972 = CARTESIAN_POINT ( 'NONE',  ( -1.100000000000002975, 0.1875000000000000000, 1.499999999999998668 ) ) ;
#973 = CARTESIAN_POINT ( 'NONE',  ( 3.449999999999992184, 7.500000000000000000, 1.500000000000001332 ) ) ;
#974 = DIRECTION ( 'NONE',  ( 0.2588190451025165761, -0.9659258262890694224, 1.247165204358988180E-16 ) ) ;
#975 = EDGE_CURVE ( 'NONE', #332, #646, #497, .T. ) ;
#976 = CARTESIAN_POINT ( 'NONE',  ( 0.000000000000000000, 0.000000000000000000, 0.000000000000000000 ) ) ;
#977 = EDGE_CURVE ( 'NONE', #435, #639, #931, .T. ) ;
#978 = CARTESIAN_POINT ( 'NONE',  ( -3.450000000000005951, 7.349999999999999645, -1.350000000000001421 ) ) ;
#979 = CARTESIAN_POINT ( 'NONE',  ( -3.450000000000005951, 7.349999999999999645, -1.350000000000001421 ) ) ;
#980 = CARTESIAN_POINT ( 'NONE',  ( -3.450000000000005951, 7.349999999999999645, -1.350000000000001421 ) ) ;
#981 = DIRECTION ( 'NONE',  ( 0.000000000000000000, 1.000000000000000000, 0.000000000000000000 ) ) ;
#982 = DIRECTION ( 'NONE',  ( 0.000000000000000000, -1.000000000000000000, 0.000000000000000000 ) ) ;
#983 = AXIS2_PLACEMENT_3D ( 'NONE', #55, #136, #770 ) ;
#984 = EDGE_CURVE ( 'NONE', #1226, #827, #487, .T. ) ;
#985 = DIRECTION ( 'NONE',  ( 0.000000000000000000, 0.000000000000000000, -1.000000000000000000 ) ) ;
#986 = EDGE_LOOP ( 'NONE', ( #286, #409, #188, #291 ) ) ;
#987 = SURFACE_SIDE_STYLE ('',( #632 ) ) ;
#988 = EDGE_CURVE ( 'NONE', #710, #182, #933, .T. ) ;
#989 = CARTESIAN_POINT ( 'NONE',  ( 3.599999999999992095, 7.500000000000000000, 1.500000000000001332 ) ) ;
#990 = DIRECTION ( 'NONE',  ( 0.000000000000000000, -0.000000000000000000, 1.000000000000000000 ) ) ;
#991 = AXIS2_PLACEMENT_3D ( 'NONE', #1014, #1106, #1219 ) ;
#992 = AXIS2_PLACEMENT_3D ( 'NONE', #995, #1159, #434 ) ;
#993 = DIRECTION ( 'NONE',  ( 0.2588190451025185190, 0.9659258262890689783, -4.988660817435979344E-16 ) ) ;
#994 = CARTESIAN_POINT ( 'NONE',  ( -2.499999999999998668, -12.70710678118654791, 0.000000000000000000 ) ) ;
#995 = CARTESIAN_POINT ( 'NONE',  ( 2.499999999999998668, -6.000000000000000000, 0.000000000000000000 ) ) ;
#996 = EDGE_CURVE ( 'NONE', #1102, #34, #71, .T. ) ;
#997 = CARTESIAN_POINT ( 'NONE',  ( -3.450000000000005951, 7.349999999999999645, 1.349999999999997868 ) ) ;
#998 = ADVANCED_FACE ( 'NONE', ( #902 ), #97, .T. ) ;
#999 = DIRECTION ( 'NONE',  ( 0.2588190451025185190, 0.9659258262890689783, 1.247165204358997548E-16 ) ) ;
#1000 = AXIS2_PLACEMENT_3D ( 'NONE', #227, #298, #1184 ) ;
#1001 =( GEOMETRIC_REPRESENTATION_CONTEXT ( 3 ) GLOBAL_UNCERTAINTY_ASSIGNED_CONTEXT ( ( #1055 ) ) GLOBAL_UNIT_ASSIGNED_CONTEXT ( ( #559, #824, #608 ) ) REPRESENTATION_CONTEXT ( 'NONE', 'WORKASPACE' ) );
#1002 = CARTESIAN_POINT ( 'NONE',  ( 3.449999999999992184, 7.349999999999999645, 0.000000000000000000 ) ) ;
#1003 = VERTEX_POINT ( 'NONE', #109 ) ;
#1004 = CARTESIAN_POINT ( 'NONE',  ( 3.449999999999992184, 7.500000000000000000, 1.350000000000001421 ) ) ;
#1005 = CARTESIAN_POINT ( 'NONE',  ( 1.099999999999945688, 0.1875000000000000000, 9.367506770274327907E-14 ) ) ;
#1006 = EDGE_CURVE ( 'NONE', #791, #332, #98, .T. ) ;
#1007 = ORIENTED_EDGE ( 'NONE', *, *, #301, .T. ) ;
#1008 = VERTEX_POINT ( 'NONE', #1132 ) ;
#1009 = CARTESIAN_POINT ( 'NONE',  ( -2.499999999999998668, -12.70710678118654791, 0.000000000000000000 ) ) ;
#1010 = ORIENTED_EDGE ( 'NONE', *, *, #357, .T. ) ;
#1011 = VERTEX_POINT ( 'NONE', #685 ) ;
#1012 = AXIS2_PLACEMENT_3D ( 'NONE', #678, #785, #905 ) ;
#1013 = ORIENTED_EDGE ( 'NONE', *, *, #706, .F. ) ;
#1014 = CARTESIAN_POINT ( 'NONE',  ( -1.100000000000002975, 0.1875000000000018874, 0.000000000000000000 ) ) ;
#1015 = EDGE_CURVE ( 'NONE', #1003, #366, #515, .T. ) ;
#1016 = ORIENTED_EDGE ( 'NONE', *, *, #285, .T. ) ;
#1017 = EDGE_CURVE ( 'NONE', #1079, #264, #493, .T. ) ;
#1018 = EDGE_LOOP ( 'NONE', ( #20, #1098 ) ) ;
#1019 = ORIENTED_EDGE ( 'NONE', *, *, #1062, .T. ) ;
#1020 = ORIENTED_EDGE ( 'NONE', *, *, #953, .F. ) ;
#1021 = CARTESIAN_POINT ( 'NONE',  ( 3.449999999999992184, 7.500000000000000000, 0.000000000000000000 ) ) ;
#1022 = ORIENTED_EDGE ( 'NONE', *, *, #619, .F. ) ;
#1023 = ORIENTED_EDGE ( 'NONE', *, *, #956, .T. ) ;
#1024 = CARTESIAN_POINT ( 'NONE',  ( 1.150240473580836253, 0.000000000000000000, 1.500000000000000444 ) ) ;
#1025 = EDGE_CURVE ( 'NONE', #422, #191, #512, .T. ) ;
#1026 = ORIENTED_EDGE ( 'NONE', *, *, #1210, .F. ) ;
#1027 = ORIENTED_EDGE ( 'NONE', *, *, #574, .F. ) ;
#1028 = ORIENTED_EDGE ( 'NONE', *, *, #95, .F. ) ;
#1029 = EDGE_CURVE ( 'NONE', #1089, #765, #485, .T. ) ;
#1030 = ORIENTED_EDGE ( 'NONE', *, *, #184, .T. ) ;
#1031 = CARTESIAN_POINT ( 'NONE',  ( -3.450000000000005951, 7.349999999999999645, 1.349999999999997868 ) ) ;
#1032 = ORIENTED_EDGE ( 'NONE', *, *, #950, .T. ) ;
#1033 = AXIS2_PLACEMENT_3D ( 'NONE', #979, #1140, #170 ) ;
#1034 = AXIS2_PLACEMENT_3D ( 'NONE', #737, #1103, #719 ) ;
#1035 = CARTESIAN_POINT ( 'NONE',  ( 3.449999999999992184, 0.1875000000000001665, -1.350000000000001421 ) ) ;
#1036 = ORIENTED_EDGE ( 'NONE', *, *, #162, .F. ) ;
#1037 = LINE ( 'NONE', #853, #218 ) ;
#1038 = EDGE_LOOP ( 'NONE', ( #5, #1178, #388 ) ) ;
#1039 = PRESENTATION_STYLE_ASSIGNMENT (( #142 ) ) ;
#1040 = AXIS2_PLACEMENT_3D ( 'NONE', #277, #508, #900 ) ;
#1041 = CARTESIAN_POINT ( 'NONE',  ( -3.450000000000005951, 7.349999999999999645, 0.000000000000000000 ) ) ;
#1042 = ORIENTED_EDGE ( 'NONE', *, *, #105, .T. ) ;
#1043 = ORIENTED_EDGE ( 'NONE', *, *, #589, .F. ) ;
#1044 = ADVANCED_FACE ( 'NONE', ( #935 ), #495, .T. ) ;
#1045 = VECTOR ( 'NONE', #1093, 1000.000000000000000 ) ;
#1046 = EDGE_CURVE ( 'NONE', #446, #617, #920, .T. ) ;
#1047 = ORIENTED_EDGE ( 'NONE', *, *, #842, .T. ) ;
#1048 = PLANE ( 'NONE',  #4 ) ;
#1049 = FACE_OUTER_BOUND ( 'NONE', #342, .T. ) ;
#1050 = DIRECTION ( 'NONE',  ( 0.000000000000000000, 0.000000000000000000, -1.000000000000000000 ) ) ;
#1051 = DIRECTION ( 'NONE',  ( 0.000000000000000000, 0.000000000000000000, 1.000000000000000000 ) ) ;
#1052 = VERTEX_POINT ( 'NONE', #134 ) ;
#1053 = ORIENTED_EDGE ( 'NONE', *, *, #778, .F. ) ;
#1054 = LINE ( 'NONE', #475, #637 ) ;
#1055 = UNCERTAINTY_MEASURE_WITH_UNIT (LENGTH_MEASURE( 1.000000000000000082E-05 ), #559, 'distance_accuracy_value', 'NONE');
#1056 = LINE ( 'NONE', #56, #1045 ) ;
#1057 = AXIS2_PLACEMENT_3D ( 'NONE', #33, #296, #19 ) ;
#1058 = CARTESIAN_POINT ( 'NONE',  ( 2.499999999999998668, -12.70710678118654791, 0.2500000000000003886 ) ) ;
#1059 = AXIS2_PLACEMENT_3D ( 'NONE', #1041, #255, #969 ) ;
#1060 = ORIENTED_EDGE ( 'NONE', *, *, #195, .T. ) ;
#1061 = DIRECTION ( 'NONE',  ( -1.000000000000000000, 0.000000000000000000, 0.000000000000000000 ) ) ;
#1062 = EDGE_CURVE ( 'NONE', #854, #242, #892, .T. ) ;
#1063 = LINE ( 'NONE', #223, #654 ) ;
#1064 = ORIENTED_EDGE ( 'NONE', *, *, #451, .F. ) ;
#1065 = FILL_AREA_STYLE_COLOUR ( '', #433 ) ;
#1066 = CARTESIAN_POINT ( 'NONE',  ( -2.120217581749411084E-15, 0.1875000000000000000, -1.099999999999991651 ) ) ;
#1067 = ORIENTED_EDGE ( 'NONE', *, *, #162, .T. ) ;
#1068 = CARTESIAN_POINT ( 'NONE',  ( 3.449999999999992184, 7.349999999999999645, 1.350000000000001421 ) ) ;
#1069 = EDGE_LOOP ( 'NONE', ( #1010, #289 ) ) ;
#1070 = PLANE ( 'NONE',  #80 ) ;
#1071 = DIRECTION ( 'NONE',  ( 0.000000000000000000, 0.000000000000000000, -1.000000000000000000 ) ) ;
#1072 = DIRECTION ( 'NONE',  ( 0.000000000000000000, 0.000000000000000000, 1.000000000000000000 ) ) ;
#1073 = EDGE_CURVE ( 'NONE', #712, #1109, #917, .T. ) ;
#1074 = ORIENTED_EDGE ( 'NONE', *, *, #984, .F. ) ;
#1075 = DIRECTION ( 'NONE',  ( 0.000000000000000000, 0.000000000000000000, -1.000000000000000000 ) ) ;
#1076 = DIRECTION ( 'NONE',  ( 0.000000000000000000, 0.000000000000000000, 1.000000000000000000 ) ) ;
#1077 = ORIENTED_EDGE ( 'NONE', *, *, #54, .T. ) ;
#1078 = EDGE_LOOP ( 'NONE', ( #297, #206 ) ) ;
#1079 = VERTEX_POINT ( 'NONE', #698 ) ;
#1080 = AXIS2_PLACEMENT_3D ( 'NONE', #146, #1163, #75 ) ;
#1081 = CARTESIAN_POINT ( 'NONE',  ( 2.000000000000004441, 0.1875000000000000000, -1.099999999999996758 ) ) ;
#1082 = DIRECTION ( 'NONE',  ( -5.204170427930339242E-14, 0.000000000000000000, -1.000000000000000000 ) ) ;
#1083 = ORIENTED_EDGE ( 'NONE', *, *, #1062, .F. ) ;
#1084 = ORIENTED_EDGE ( 'NONE', *, *, #308, .F. ) ;
#1085 = EDGE_CURVE ( 'NONE', #710, #1008, #89, .T. ) ;
#1086 = CARTESIAN_POINT ( 'NONE',  ( -1.100000000000002975, 0.1875000000000000000, 0.000000000000000000 ) ) ;
#1087 = ORIENTED_EDGE ( 'NONE', *, *, #583, .F. ) ;
#1088 = EDGE_CURVE ( 'NONE', #39, #435, #65, .T. ) ;
#1089 = VERTEX_POINT ( 'NONE', #970 ) ;
#1090 = ORIENTED_EDGE ( 'NONE', *, *, #1130, .T. ) ;
#1091 = FACE_OUTER_BOUND ( 'NONE', #805, .T. ) ;
#1092 = ORIENTED_EDGE ( 'NONE', *, *, #965, .T. ) ;
#1093 = DIRECTION ( 'NONE',  ( 0.000000000000000000, 0.000000000000000000, -1.000000000000000000 ) ) ;
#1094 = DIRECTION ( 'NONE',  ( 5.204170427930339242E-14, 0.000000000000000000, -1.000000000000000000 ) ) ;
#1095 = EDGE_CURVE ( 'NONE', #614, #1052, #482, .T. ) ;
#1096 = CLOSED_SHELL ( 'NONE', ( #742, #925, #793, #1194 ) ) ;
#1097 = PLANE ( 'NONE',  #601 ) ;
#1098 = ORIENTED_EDGE ( 'NONE', *, *, #1095, .F. ) ;
#1100 = ORIENTED_EDGE ( 'NONE', *, *, #395, .T. ) ;
#1099 = DIRECTION ( 'NONE',  ( -0.000000000000000000, 1.000000000000000000, -0.000000000000000000 ) ) ;
#1101 = AXIS2_PLACEMENT_3D ( 'NONE', #381, #514, #159 ) ;
#1102 = VERTEX_POINT ( 'NONE', #283 ) ;
#1103 = DIRECTION ( 'NONE',  ( 0.000000000000000000, 0.000000000000000000, 1.000000000000000000 ) ) ;
#1104 = PLANE ( 'NONE',  #100 ) ;
#1105 = ORIENTED_EDGE ( 'NONE', *, *, #1006, .F. ) ;
#1107 = EDGE_LOOP ( 'NONE', ( #846, #258, #1191, #24 ) ) ;
#1106 = DIRECTION ( 'NONE',  ( 0.9659258262890694224, -0.2588190451025165761, 0.000000000000000000 ) ) ;
#1108 = ADVANCED_FACE ( 'NONE', ( #901 ), #415, .F. ) ;
#1109 = VERTEX_POINT ( 'NONE', #427 ) ;
#1110 = ORIENTED_EDGE ( 'NONE', *, *, #611, .T. ) ;
#1111 = PRODUCT_DEFINITION ( 'UNKNOWN', '', #76, #705 ) ;
#1112 = ORIENTED_EDGE ( 'NONE', *, *, #164, .F. ) ;
#1113 =( GEOMETRIC_REPRESENTATION_CONTEXT ( 3 ) GLOBAL_UNCERTAINTY_ASSIGNED_CONTEXT ( ( #803 ) ) GLOBAL_UNIT_ASSIGNED_CONTEXT ( ( #670, #348, #450 ) ) REPRESENTATION_CONTEXT ( 'NONE', 'WORKASPACE' ) );
#1114 = CARTESIAN_POINT ( 'NONE',  ( -2.499999999999998668, 0.1875000000000000000, -0.2500000000000003886 ) ) ;
#1115 = EDGE_CURVE ( 'NONE', #730, #208, #484, .T. ) ;
#1116 = ORIENTED_EDGE ( 'NONE', *, *, #132, .T. ) ;
#1117 = DIRECTION ( 'NONE',  ( 1.000000000000000000, -0.000000000000000000, -0.000000000000000000 ) ) ;
#1118 = ORIENTED_EDGE ( 'NONE', *, *, #1231, .T. ) ;
#1120 = ORIENTED_EDGE ( 'NONE', *, *, #1150, .T. ) ;
#1119 = DIRECTION ( 'NONE',  ( 0.000000000000000000, -1.000000000000000000, 0.000000000000000000 ) ) ;
#1121 = ORIENTED_EDGE ( 'NONE', *, *, #1225, .T. ) ;
#1122 = PLANE ( 'NONE',  #679 ) ;
#1123 = VERTEX_POINT ( 'NONE', #885 ) ;
#1124 = DIRECTION ( 'NONE',  ( 5.204170427930338611E-14, 0.000000000000000000, -1.000000000000000000 ) ) ;
#1125 = ADVANCED_FACE ( 'NONE', ( #536 ), #1070, .T. ) ;
#1126 = ORIENTED_EDGE ( 'NONE', *, *, #953, .T. ) ;
#1127 = FILL_AREA_STYLE ('',( #966 ) ) ;
#1128 = VECTOR ( 'NONE', #398, 1000.000000000000000 ) ;
#1129 = CARTESIAN_POINT ( 'NONE',  ( 3.599999999999992095, 0.1875000000000000000, -1.350000000000001421 ) ) ;
#1130 = EDGE_CURVE ( 'NONE', #765, #242, #99, .T. ) ;
#1131 = DIRECTION ( 'NONE',  ( 0.000000000000000000, -0.000000000000000000, -1.000000000000000000 ) ) ;
#1132 = CARTESIAN_POINT ( 'NONE',  ( -3.450000000000005951, 7.349999999999999645, 1.499999999999997780 ) ) ;
#1133 = DIRECTION ( 'NONE',  ( -1.000000000000000000, 0.000000000000000000, -4.818676322157799347E-16 ) ) ;
#1134 = ORIENTED_EDGE ( 'NONE', *, *, #516, .T. ) ;
#1135 = DIRECTION ( 'NONE',  ( 0.000000000000000000, 0.000000000000000000, 1.000000000000000000 ) ) ;
#1136 = ORIENTED_EDGE ( 'NONE', *, *, #1150, .F. ) ;
#1137 = DIRECTION ( 'NONE',  ( 0.000000000000000000, -1.000000000000000000, 0.000000000000000000 ) ) ;
#1138 = PLANE ( 'NONE',  #128 ) ;
#1139 = VECTOR ( 'NONE', #1051, 1000.000000000000000 ) ;
#1140 = DIRECTION ( 'NONE',  ( 0.000000000000000000, 1.000000000000000000, 0.000000000000000000 ) ) ;
#1141 = EDGE_CURVE ( 'NONE', #366, #718, #954, .T. ) ;
#1142 = LINE ( 'NONE', #1021, #1160 ) ;
#1143 = ORIENTED_EDGE ( 'NONE', *, *, #683, .T. ) ;
#1144 = ORIENTED_EDGE ( 'NONE', *, *, #1225, .F. ) ;
#1145 = STYLED_ITEM ( 'NONE', ( #1039 ), #198 ) ;
#1146 = DIRECTION ( 'NONE',  ( 0.000000000000000000, -1.000000000000000000, 0.000000000000000000 ) ) ;
#1147 = EDGE_LOOP ( 'NONE', ( #1105, #692, #293, #739 ) ) ;
#1148 = ORIENTED_EDGE ( 'NONE', *, *, #478, .T. ) ;
#1149 = LINE ( 'NONE', #1066, #1230 ) ;
#1150 = EDGE_CURVE ( 'NONE', #617, #688, #133, .T. ) ;
#1151 = CARTESIAN_POINT ( 'NONE',  ( 1.100000000000003197, 0.1875000000000000000, -1.099999999999993872 ) ) ;
#1152 = FACE_OUTER_BOUND ( 'NONE', #745, .T. ) ;
#1153 = PLANE ( 'NONE',  #259 ) ;
#1155 = ORIENTED_EDGE ( 'NONE', *, *, #574, .T. ) ;
#1154 = FILL_AREA_STYLE ('',( #1065 ) ) ;
#1156 = FACE_OUTER_BOUND ( 'NONE', #265, .T. ) ;
#1157 = AXIS2_PLACEMENT_3D ( 'NONE', #522, #914, #201 ) ;
#1158 = CIRCLE ( 'NONE', #150, 0.1499999999999999667 ) ;
#1159 = DIRECTION ( 'NONE',  ( 0.000000000000000000, -1.000000000000000000, 0.000000000000000000 ) ) ;
#1160 = VECTOR ( 'NONE', #113, 1000.000000000000000 ) ;
#1161 = AXIS2_PLACEMENT_3D ( 'NONE', #615, #607, #938 ) ;
#1162 = VECTOR ( 'NONE', #90, 1000.000000000000114 ) ;
#1163 = DIRECTION ( 'NONE',  ( 0.000000000000000000, 1.000000000000000000, 0.000000000000000000 ) ) ;
#1164 = EDGE_LOOP ( 'NONE', ( #570, #10, #168, #775, #661, #1121, #246, #886, #233, #1007, #708, #1030 ) ) ;
#1165 = ORIENTED_EDGE ( 'NONE', *, *, #73, .T. ) ;
#1166 = EDGE_CURVE ( 'NONE', #461, #852, #131, .T. ) ;
#1167 = FACE_OUTER_BOUND ( 'NONE', #1229, .T. ) ;
#1168 = CARTESIAN_POINT ( 'NONE',  ( 3.599999999999992095, 7.349999999999999645, 1.500000000000001332 ) ) ;
#1169 = VERTEX_POINT ( 'NONE', #566 ) ;
#1170 = CYLINDRICAL_SURFACE ( 'NONE', #369, 0.2500000000000003886 ) ;
#1171 = ORIENTED_EDGE ( 'NONE', *, *, #282, .F. ) ;
#1172 = FACE_OUTER_BOUND ( 'NONE', #837, .T. ) ;
#1173 = CARTESIAN_POINT ( 'NONE',  ( 3.599999999999992095, 7.500000000000000000, -1.350000000000001421 ) ) ;
#1174 = LINE ( 'NONE', #507, #1177 ) ;
#1175 = CIRCLE ( 'NONE', #751, 0.1499999999999999667 ) ;
#1176 = CARTESIAN_POINT ( 'NONE',  ( 3.449999999999992184, 0.1875000000000001665, 1.350000000000001421 ) ) ;
#1177 = VECTOR ( 'NONE', #906, 1000.000000000000000 ) ;
#1178 = ORIENTED_EDGE ( 'NONE', *, *, #354, .T. ) ;
#1179 = LINE ( 'NONE', #572, #809 ) ;
#1180 = DIRECTION ( 'NONE',  ( -0.000000000000000000, 1.000000000000000000, -0.000000000000000000 ) ) ;
#1181 = DIRECTION ( 'NONE',  ( -1.000000000000000000, 0.000000000000000000, 0.000000000000000000 ) ) ;
#1182 = AXIS2_PLACEMENT_3D ( 'NONE', #578, #118, #180 ) ;
#1183 = ORIENTED_EDGE ( 'NONE', *, *, #413, .F. ) ;
#1184 = DIRECTION ( 'NONE',  ( 0.000000000000000000, -0.000000000000000000, -1.000000000000000000 ) ) ;
#1185 =( GEOMETRIC_REPRESENTATION_CONTEXT ( 3 ) GLOBAL_UNCERTAINTY_ASSIGNED_CONTEXT ( ( #1237 ) ) GLOBAL_UNIT_ASSIGNED_CONTEXT ( ( #213, #538, #494 ) ) REPRESENTATION_CONTEXT ( 'NONE', 'WORKASPACE' ) );
#1186 = ORIENTED_EDGE ( 'NONE', *, *, #611, .F. ) ;
#1187 = VERTEX_POINT ( 'NONE', #506 ) ;
#1188 = CIRCLE ( 'NONE', #393, 0.2500000000000003886 ) ;
#1189 = CARTESIAN_POINT ( 'NONE',  ( -6.505213034913027590E-16, 7.349999999999999645, 1.349999999999999645 ) ) ;
#1191 = ORIENTED_EDGE ( 'NONE', *, *, #825, .F. ) ;
#1190 = CARTESIAN_POINT ( 'NONE',  ( 2.000000000000004441, 0.1875000000000000000, 0.000000000000000000 ) ) ;
#1192 = VECTOR ( 'NONE', #267, 1000.000000000000000 ) ;
#1193 = LINE ( 'NONE', #696, #266 ) ;
#1194 = ADVANCED_FACE ( 'NONE', ( #944 ), #1138, .T. ) ;
#1195 = ORIENTED_EDGE ( 'NONE', *, *, #586, .F. ) ;
#1196 = VECTOR ( 'NONE', #176, 1000.000000000000000 ) ;
#1197 = EDGE_LOOP ( 'NONE', ( #379, #1136, #247, #788 ) ) ;
#1198 = CIRCLE ( 'NONE', #50, 0.1499999999999999667 ) ;
#1199 = VECTOR ( 'NONE', #243, 1000.000000000000000 ) ;
#1200 = ORIENTED_EDGE ( 'NONE', *, *, #891, .F. ) ;
#1201 = LINE ( 'NONE', #600, #355 ) ;
#1202 = APPLICATION_CONTEXT ( 'automotive_design' ) ;
#1203 = LINE ( 'NONE', #337, #810 ) ;
#1204 = MECHANICAL_DESIGN_GEOMETRIC_PRESENTATION_REPRESENTATION (  '', ( #202 ), #1113 ) ;
#1206 = EDGE_LOOP ( 'NONE', ( #1060, #881, #1026, #1047 ) ) ;
#1205 = CARTESIAN_POINT ( 'NONE',  ( 3.449999999999992184, 7.349999999999999645, 1.350000000000001421 ) ) ;
#1207 = LINE ( 'NONE', #579, #784 ) ;
#1208 = LINE ( 'NONE', #463, #813 ) ;
#1209 = ORIENTED_EDGE ( 'NONE', *, *, #340, .F. ) ;
#1210 = EDGE_CURVE ( 'NONE', #401, #1011, #945, .T. ) ;
#1211 = LINE ( 'NONE', #675, #1192 ) ;
#1212 = CARTESIAN_POINT ( 'NONE',  ( -1.949759526419168276, 0.000000000000000000, 0.000000000000000000 ) ) ;
#1213 = LINE ( 'NONE', #274, #789 ) ;
#1214 = DIRECTION ( 'NONE',  ( 1.000000000000000000, 0.000000000000000000, 4.818676322157799347E-16 ) ) ;
#1215 = LINE ( 'NONE', #841, #1199 ) ;
#1216 = PRODUCT_CONTEXT ( 'NONE', #1202, 'mechanical' ) ;
#1217 = PLANE ( 'NONE',  #774 ) ;
#1218 = AXIS2_PLACEMENT_3D ( 'NONE', #921, #192, #595 ) ;
#1219 = DIRECTION ( 'NONE',  ( 0.000000000000000000, 0.000000000000000000, 1.000000000000000000 ) ) ;
#1220 = AXIS2_PLACEMENT_3D ( 'NONE', #997, #904, #447 ) ;
#1221 = ORIENTED_EDGE ( 'NONE', *, *, #413, .T. ) ;
#1222 = ADVANCED_FACE ( 'NONE', ( #527 ), #517, .T. ) ;
#1223 = EDGE_CURVE ( 'NONE', #617, #861, #949, .T. ) ;
#1224 = ORIENTED_EDGE ( 'NONE', *, *, #336, .F. ) ;
#1225 = EDGE_CURVE ( 'NONE', #713, #268, #125, .T. ) ;
#1226 = VERTEX_POINT ( 'NONE', #1151 ) ;
#1227 = PLANE ( 'NONE',  #466 ) ;
#1228 = CARTESIAN_POINT ( 'NONE',  ( 3.449999999999992184, 7.500000000000000000, -1.500000000000001332 ) ) ;
#1229 = EDGE_LOOP ( 'NONE', ( #1186, #448, #346, #1118 ) ) ;
#1230 = VECTOR ( 'NONE', #64, 1000.000000000000000 ) ;
#1231 = EDGE_CURVE ( 'NONE', #1052, #614, #959, .T. ) ;
#1232 = CARTESIAN_POINT ( 'NONE',  ( -3.450000000000005951, 0.1875000000000000000, -1.500000000000001332 ) ) ;
#1233 = ORIENTED_EDGE ( 'NONE', *, *, #651, .T. ) ;
#1234 = FACE_OUTER_BOUND ( 'NONE', #272, .T. ) ;
#1235 = ORIENTED_EDGE ( 'NONE', *, *, #912, .F. ) ;
#1237 = UNCERTAINTY_MEASURE_WITH_UNIT (LENGTH_MEASURE( 1.000000000000000082E-05 ), #213, 'distance_accuracy_value', 'NONE');
#1236 = LINE ( 'NONE', #655, #838 ) ;
#1238 = DIRECTION ( 'NONE',  ( 0.9659258262890689783, 0.2588190451025185190, 0.000000000000000000 ) ) ;
#1239 =( GEOMETRIC_REPRESENTATION_CONTEXT ( 3 ) GLOBAL_UNCERTAINTY_ASSIGNED_CONTEXT ( ( #968 ) ) GLOBAL_UNIT_ASSIGNED_CONTEXT ( ( #203, #701, #269 ) ) REPRESENTATION_CONTEXT ( 'NONE', 'WORKASPACE' ) );
#1240 = ORIENTED_EDGE ( 'NONE', *, *, #564, .F. ) ;
ENDSEC;
END-ISO-10303-21;
